<svg version="1.1" xmlns="http://www.w3.org/2000/svg" xmlns:xlink="http://www.w3.org/1999/xlink" width="1000" height="400"><defs><clipPath id="TiJCZATugxZC"><path fill="none" stroke="none" d="M 50.5 5.5 L 970.5 5.5 L 970.5 267.5 L 50.5 267.5 L 50.5 5.5"/></clipPath><clipPath id="dTKRTyFtkkTy"><path fill="none" stroke="none" d="M 50.5 5.5 L 970.5 5.5 L 970.5 267.5 L 50.5 267.5 L 50.5 5.5"/></clipPath><clipPath id="TnzOesXAxGOf"><path fill="none" stroke="none" d="M 50.5 5.5 L 970.5 5.5 L 970.5 267.5 L 50.5 267.5 L 50.5 5.5"/></clipPath><clipPath id="AepsHpCDTtNH"><path fill="none" stroke="none" d="M 50.5 5.5 L 970.5 5.5 L 970.5 267.5 L 50.5 267.5 L 50.5 5.5"/></clipPath><clipPath id="fipKaqwlhGoq"><path fill="none" stroke="none" d="M 50.5 5.5 L 970.5 5.5 L 970.5 267.5 L 50.5 267.5 L 50.5 5.5"/></clipPath></defs><path fill="rgb(255,255,255)" stroke="none" paint-order="stroke" d="M 0.5 0.5 L 1000.5 0.5 L 1000.5 400.5 L 0.5 400.5 L 0.5 0.5" fill-opacity="1"/><rect fill="#FFFFFF" stroke="none" x="50" y="5" width="920" height="262" transform="matrix(1, 0, 0, 1, 0.5, 0.5)"/><path fill="rgb(255,255,255)" stroke="none" paint-order="stroke" d="M 50.5 5.5 L 970.5 5.5 L 970.5 267.5 L 50.5 267.5 L 50.5 5.5" fill-opacity="1"/><path fill="none" stroke="rgb(229,229,229)" paint-order="fill" d="M 50.5 5.5 L 970.5 5.5 L 970.5 267.5 L 50.5 267.5 L 50.5 5.5" stroke-opacity="1" stroke-linejoin="bevel" stroke-miterlimit="10" stroke-dasharray=""/><path fill="none" stroke="rgb(229,229,229)" paint-order="fill" d="M 50.5 244.5 L 970.5 244.5 M 50.5 202.5 L 970.5 202.5 M 50.5 159.5 L 970.5 159.5 M 50.5 117.5 L 970.5 117.5 M 50.5 74.5 L 970.5 74.5 M 50.5 32.5 L 970.5 32.5" stroke-opacity="1" stroke-linejoin="bevel" stroke-miterlimit="10" stroke-dasharray="" clip-path="url(#dTKRTyFtkkTy)"/><path fill="none" stroke="none"/><path fill="none" stroke="none"/><path fill="rgb(44,160,44)" stroke="rgb(0,0,0)" paint-order="fill" d="M 57.35837173461914 215.55052185058594 L 67.35837173461914 215.55052185058594 L 67.35837173461914 225.55052185058594 L 57.35837173461914 225.55052185058594 L 57.35837173461914 215.55052185058594" fill-opacity="1" clip-path="url(#AepsHpCDTtNH)" stroke-opacity="0.7019607843137254" stroke-linejoin="bevel" stroke-miterlimit="10" stroke-width="2" stroke-dasharray=""/><path fill="rgb(44,160,44)" stroke="rgb(0,0,0)" paint-order="fill" d="M 299.0096740722656 212.01766967773438 L 309.0096740722656 212.01766967773438 L 309.0096740722656 222.01766967773438 L 299.0096740722656 222.01766967773438 L 299.0096740722656 212.01766967773438" fill-opacity="1" clip-path="url(#AepsHpCDTtNH)" stroke-opacity="0.7019607843137254" stroke-linejoin="bevel" stroke-miterlimit="10" stroke-width="2" stroke-dasharray=""/><path fill="rgb(44,160,44)" stroke="rgb(0,0,0)" paint-order="fill" d="M 536.7186279296875 214.74609375 L 546.7186279296875 214.74609375 L 546.7186279296875 224.74609375 L 536.7186279296875 224.74609375 L 536.7186279296875 214.74609375" fill-opacity="1" clip-path="url(#AepsHpCDTtNH)" stroke-opacity="0.7019607843137254" stroke-linejoin="bevel" stroke-miterlimit="10" stroke-width="2" stroke-dasharray=""/><path fill="rgb(44,160,44)" stroke="rgb(0,0,0)" paint-order="fill" d="M 777.6495361328125 111.129638671875 L 787.6495361328125 111.129638671875 L 787.6495361328125 121.129638671875 L 777.6495361328125 121.129638671875 L 777.6495361328125 111.129638671875" fill-opacity="1" clip-path="url(#AepsHpCDTtNH)" stroke-opacity="0.7019607843137254" stroke-linejoin="bevel" stroke-miterlimit="10" stroke-width="2" stroke-dasharray=""/><path fill="rgb(152,223,138)" stroke="rgb(0,0,0)" paint-order="fill" d="M 87.3509750366211 214.3626251220703 L 97.3509750366211 214.3626251220703 L 97.3509750366211 224.3626251220703 L 87.3509750366211 224.3626251220703 L 87.3509750366211 214.3626251220703" fill-opacity="1" clip-path="url(#AepsHpCDTtNH)" stroke-opacity="0.7019607843137254" stroke-linejoin="bevel" stroke-miterlimit="10" stroke-width="2" stroke-dasharray=""/><path fill="rgb(152,223,138)" stroke="rgb(0,0,0)" paint-order="fill" d="M 325.4100341796875 220.58705139160156 L 335.4100341796875 220.58705139160156 L 335.4100341796875 230.58705139160156 L 325.4100341796875 230.58705139160156 L 325.4100341796875 220.58705139160156" fill-opacity="1" clip-path="url(#AepsHpCDTtNH)" stroke-opacity="0.7019607843137254" stroke-linejoin="bevel" stroke-miterlimit="10" stroke-width="2" stroke-dasharray=""/><path fill="rgb(152,223,138)" stroke="rgb(0,0,0)" paint-order="fill" d="M 571.0917358398438 211.40289306640625 L 581.0917358398438 211.40289306640625 L 581.0917358398438 221.40289306640625 L 571.0917358398438 221.40289306640625 L 571.0917358398438 211.40289306640625" fill-opacity="1" clip-path="url(#AepsHpCDTtNH)" stroke-opacity="0.7019607843137254" stroke-linejoin="bevel" stroke-miterlimit="10" stroke-width="2" stroke-dasharray=""/><path fill="rgb(152,223,138)" stroke="rgb(0,0,0)" paint-order="fill" d="M 811.317138671875 112.68196105957031 L 821.317138671875 112.68196105957031 L 821.317138671875 122.68196105957031 L 811.317138671875 122.68196105957031 L 811.317138671875 112.68196105957031" fill-opacity="1" clip-path="url(#AepsHpCDTtNH)" stroke-opacity="0.7019607843137254" stroke-linejoin="bevel" stroke-miterlimit="10" stroke-width="2" stroke-dasharray=""/><path fill="rgb(44,160,44)" stroke="rgb(0,0,0)" paint-order="fill" d="M 60.35014343261719 218.81410217285156 L 70.35014343261719 218.81410217285156 L 70.35014343261719 228.81410217285156 L 60.35014343261719 228.81410217285156 L 60.35014343261719 218.81410217285156" fill-opacity="1" clip-path="url(#AepsHpCDTtNH)" stroke-opacity="0.7019607843137254" stroke-linejoin="bevel" stroke-miterlimit="10" stroke-width="2" stroke-dasharray=""/><path fill="rgb(44,160,44)" stroke="rgb(0,0,0)" paint-order="fill" d="M 303.7649841308594 208.94631958007812 L 313.7649841308594 208.94631958007812 L 313.7649841308594 218.94631958007812 L 303.7649841308594 218.94631958007812 L 303.7649841308594 208.94631958007812" fill-opacity="1" clip-path="url(#AepsHpCDTtNH)" stroke-opacity="0.7019607843137254" stroke-linejoin="bevel" stroke-miterlimit="10" stroke-width="2" stroke-dasharray=""/><path fill="rgb(44,160,44)" stroke="rgb(0,0,0)" paint-order="fill" d="M 541.2613525390625 219.00428771972656 L 551.2613525390625 219.00428771972656 L 551.2613525390625 229.00428771972656 L 541.2613525390625 229.00428771972656 L 541.2613525390625 219.00428771972656" fill-opacity="1" clip-path="url(#AepsHpCDTtNH)" stroke-opacity="0.7019607843137254" stroke-linejoin="bevel" stroke-miterlimit="10" stroke-width="2" stroke-dasharray=""/><path fill="rgb(44,160,44)" stroke="rgb(0,0,0)" paint-order="fill" d="M 783.4047241210938 127.90911865234375 L 793.4047241210938 127.90911865234375 L 793.4047241210938 137.90911865234375 L 783.4047241210938 137.90911865234375 L 783.4047241210938 127.90911865234375" fill-opacity="1" clip-path="url(#AepsHpCDTtNH)" stroke-opacity="0.7019607843137254" stroke-linejoin="bevel" stroke-miterlimit="10" stroke-width="2" stroke-dasharray=""/><path fill="rgb(152,223,138)" stroke="rgb(0,0,0)" paint-order="fill" d="M 90.17070007324219 211.88006591796875 L 100.17070007324219 211.88006591796875 L 100.17070007324219 221.88006591796875 L 90.17070007324219 221.88006591796875 L 90.17070007324219 211.88006591796875" fill-opacity="1" clip-path="url(#AepsHpCDTtNH)" stroke-opacity="0.7019607843137254" stroke-linejoin="bevel" stroke-miterlimit="10" stroke-width="2" stroke-dasharray=""/><path fill="rgb(152,223,138)" stroke="rgb(0,0,0)" paint-order="fill" d="M 328.20703125 209.97816467285156 L 338.20703125 209.97816467285156 L 338.20703125 219.97816467285156 L 328.20703125 219.97816467285156 L 328.20703125 209.97816467285156" fill-opacity="1" clip-path="url(#AepsHpCDTtNH)" stroke-opacity="0.7019607843137254" stroke-linejoin="bevel" stroke-miterlimit="10" stroke-width="2" stroke-dasharray=""/><path fill="rgb(152,223,138)" stroke="rgb(0,0,0)" paint-order="fill" d="M 568.34375 214.5881805419922 L 578.34375 214.5881805419922 L 578.34375 224.5881805419922 L 568.34375 224.5881805419922 L 568.34375 214.5881805419922" fill-opacity="1" clip-path="url(#AepsHpCDTtNH)" stroke-opacity="0.7019607843137254" stroke-linejoin="bevel" stroke-miterlimit="10" stroke-width="2" stroke-dasharray=""/><path fill="rgb(152,223,138)" stroke="rgb(0,0,0)" paint-order="fill" d="M 810.6282348632812 77.74365997314453 L 820.6282348632812 77.74365997314453 L 820.6282348632812 87.74365997314453 L 810.6282348632812 87.74365997314453 L 810.6282348632812 77.74365997314453" fill-opacity="1" clip-path="url(#AepsHpCDTtNH)" stroke-opacity="0.7019607843137254" stroke-linejoin="bevel" stroke-miterlimit="10" stroke-width="2" stroke-dasharray=""/><path fill="rgb(31,119,180)" stroke="rgb(0,0,0)" paint-order="fill" d="M 120.51958465576172 201.96788024902344 L 130.51958465576172 201.96788024902344 L 130.51958465576172 211.96788024902344 L 120.51958465576172 211.96788024902344 L 120.51958465576172 201.96788024902344" fill-opacity="1" clip-path="url(#AepsHpCDTtNH)" stroke-opacity="0.7019607843137254" stroke-linejoin="bevel" stroke-miterlimit="10" stroke-width="2" stroke-dasharray=""/><path fill="rgb(31,119,180)" stroke="rgb(0,0,0)" paint-order="fill" d="M 355.5903015136719 215.73562622070312 L 365.5903015136719 215.73562622070312 L 365.5903015136719 225.73562622070312 L 355.5903015136719 225.73562622070312 L 355.5903015136719 215.73562622070312" fill-opacity="1" clip-path="url(#AepsHpCDTtNH)" stroke-opacity="0.7019607843137254" stroke-linejoin="bevel" stroke-miterlimit="10" stroke-width="2" stroke-dasharray=""/><path fill="rgb(31,119,180)" stroke="rgb(0,0,0)" paint-order="fill" d="M 595.7490234375 214.51136779785156 L 605.7490234375 214.51136779785156 L 605.7490234375 224.51136779785156 L 595.7490234375 224.51136779785156 L 595.7490234375 214.51136779785156" fill-opacity="1" clip-path="url(#AepsHpCDTtNH)" stroke-opacity="0.7019607843137254" stroke-linejoin="bevel" stroke-miterlimit="10" stroke-width="2" stroke-dasharray=""/><path fill="rgb(31,119,180)" stroke="rgb(0,0,0)" paint-order="fill" d="M 841.1122436523438 102.98430633544922 L 851.1122436523438 102.98430633544922 L 851.1122436523438 112.98430633544922 L 841.1122436523438 112.98430633544922 L 841.1122436523438 102.98430633544922" fill-opacity="1" clip-path="url(#AepsHpCDTtNH)" stroke-opacity="0.7019607843137254" stroke-linejoin="bevel" stroke-miterlimit="10" stroke-width="2" stroke-dasharray=""/><path fill="rgb(31,119,180)" stroke="rgb(0,0,0)" paint-order="fill" d="M 114.6902847290039 217.60838317871094 L 124.6902847290039 217.60838317871094 L 124.6902847290039 227.60838317871094 L 114.6902847290039 227.60838317871094 L 114.6902847290039 217.60838317871094" fill-opacity="1" clip-path="url(#AepsHpCDTtNH)" stroke-opacity="0.7019607843137254" stroke-linejoin="bevel" stroke-miterlimit="10" stroke-width="2" stroke-dasharray=""/><path fill="rgb(31,119,180)" stroke="rgb(0,0,0)" paint-order="fill" d="M 359.6419677734375 215.18203735351562 L 369.6419677734375 215.18203735351562 L 369.6419677734375 225.18203735351562 L 359.6419677734375 225.18203735351562 L 359.6419677734375 215.18203735351562" fill-opacity="1" clip-path="url(#AepsHpCDTtNH)" stroke-opacity="0.7019607843137254" stroke-linejoin="bevel" stroke-miterlimit="10" stroke-width="2" stroke-dasharray=""/><path fill="rgb(31,119,180)" stroke="rgb(0,0,0)" paint-order="fill" d="M 598.613037109375 194.2215118408203 L 608.613037109375 194.2215118408203 L 608.613037109375 204.2215118408203 L 598.613037109375 204.2215118408203 L 598.613037109375 194.2215118408203" fill-opacity="1" clip-path="url(#AepsHpCDTtNH)" stroke-opacity="0.7019607843137254" stroke-linejoin="bevel" stroke-miterlimit="10" stroke-width="2" stroke-dasharray=""/><path fill="rgb(31,119,180)" stroke="rgb(0,0,0)" paint-order="fill" d="M 839.1964721679688 71.4569091796875 L 849.1964721679688 71.4569091796875 L 849.1964721679688 81.4569091796875 L 839.1964721679688 81.4569091796875 L 839.1964721679688 71.4569091796875" fill-opacity="1" clip-path="url(#AepsHpCDTtNH)" stroke-opacity="0.7019607843137254" stroke-linejoin="bevel" stroke-miterlimit="10" stroke-width="2" stroke-dasharray=""/><path fill="rgb(174,199,232)" stroke="rgb(0,0,0)" paint-order="fill" d="M 147.7662811279297 218.8182373046875 L 157.7662811279297 218.8182373046875 L 157.7662811279297 228.8182373046875 L 147.7662811279297 228.8182373046875 L 147.7662811279297 218.8182373046875" fill-opacity="1" clip-path="url(#AepsHpCDTtNH)" stroke-opacity="0.7019607843137254" stroke-linejoin="bevel" stroke-miterlimit="10" stroke-width="2" stroke-dasharray=""/><path fill="rgb(174,199,232)" stroke="rgb(0,0,0)" paint-order="fill" d="M 381.3351745605469 218.02174377441406 L 391.3351745605469 218.02174377441406 L 391.3351745605469 228.02174377441406 L 381.3351745605469 228.02174377441406 L 381.3351745605469 218.02174377441406" fill-opacity="1" clip-path="url(#AepsHpCDTtNH)" stroke-opacity="0.7019607843137254" stroke-linejoin="bevel" stroke-miterlimit="10" stroke-width="2" stroke-dasharray=""/><path fill="rgb(174,199,232)" stroke="rgb(0,0,0)" paint-order="fill" d="M 628.3229370117188 208.82415771484375 L 638.3229370117188 208.82415771484375 L 638.3229370117188 218.82415771484375 L 628.3229370117188 218.82415771484375 L 628.3229370117188 208.82415771484375" fill-opacity="1" clip-path="url(#AepsHpCDTtNH)" stroke-opacity="0.7019607843137254" stroke-linejoin="bevel" stroke-miterlimit="10" stroke-width="2" stroke-dasharray=""/><path fill="rgb(174,199,232)" stroke="rgb(0,0,0)" paint-order="fill" d="M 868.1417236328125 149.87112426757812 L 878.1417236328125 149.87112426757812 L 878.1417236328125 159.87112426757812 L 868.1417236328125 159.87112426757812 L 868.1417236328125 149.87112426757812" fill-opacity="1" clip-path="url(#AepsHpCDTtNH)" stroke-opacity="0.7019607843137254" stroke-linejoin="bevel" stroke-miterlimit="10" stroke-width="2" stroke-dasharray=""/><path fill="rgb(174,199,232)" stroke="rgb(0,0,0)" paint-order="fill" d="M 147.05226135253906 210.7942657470703 L 157.05226135253906 210.7942657470703 L 157.05226135253906 220.7942657470703 L 147.05226135253906 220.7942657470703 L 147.05226135253906 210.7942657470703" fill-opacity="1" clip-path="url(#AepsHpCDTtNH)" stroke-opacity="0.7019607843137254" stroke-linejoin="bevel" stroke-miterlimit="10" stroke-width="2" stroke-dasharray=""/><path fill="rgb(174,199,232)" stroke="rgb(0,0,0)" paint-order="fill" d="M 385.14508056640625 218.47483825683594 L 395.14508056640625 218.47483825683594 L 395.14508056640625 228.47483825683594 L 385.14508056640625 228.47483825683594 L 385.14508056640625 218.47483825683594" fill-opacity="1" clip-path="url(#AepsHpCDTtNH)" stroke-opacity="0.7019607843137254" stroke-linejoin="bevel" stroke-miterlimit="10" stroke-width="2" stroke-dasharray=""/><path fill="rgb(174,199,232)" stroke="rgb(0,0,0)" paint-order="fill" d="M 623.3602294921875 212.73448181152344 L 633.3602294921875 212.73448181152344 L 633.3602294921875 222.73448181152344 L 623.3602294921875 222.73448181152344 L 623.3602294921875 212.73448181152344" fill-opacity="1" clip-path="url(#AepsHpCDTtNH)" stroke-opacity="0.7019607843137254" stroke-linejoin="bevel" stroke-miterlimit="10" stroke-width="2" stroke-dasharray=""/><path fill="rgb(174,199,232)" stroke="rgb(0,0,0)" paint-order="fill" d="M 863.1510620117188 182.66270446777344 L 873.1510620117188 182.66270446777344 L 873.1510620117188 192.66270446777344 L 863.1510620117188 192.66270446777344 L 863.1510620117188 182.66270446777344" fill-opacity="1" clip-path="url(#AepsHpCDTtNH)" stroke-opacity="0.7019607843137254" stroke-linejoin="bevel" stroke-miterlimit="10" stroke-width="2" stroke-dasharray=""/><path fill="rgb(214,39,40)" stroke="rgb(0,0,0)" paint-order="fill" d="M 173.13758850097656 216.36904907226562 L 183.13758850097656 216.36904907226562 L 183.13758850097656 226.36904907226562 L 173.13758850097656 226.36904907226562 L 173.13758850097656 216.36904907226562" fill-opacity="1" clip-path="url(#AepsHpCDTtNH)" stroke-opacity="0.7019607843137254" stroke-linejoin="bevel" stroke-miterlimit="10" stroke-width="2" stroke-dasharray=""/><path fill="rgb(214,39,40)" stroke="rgb(0,0,0)" paint-order="fill" d="M 417.3947448730469 210.1825408935547 L 427.3947448730469 210.1825408935547 L 427.3947448730469 220.1825408935547 L 417.3947448730469 220.1825408935547 L 417.3947448730469 210.1825408935547" fill-opacity="1" clip-path="url(#AepsHpCDTtNH)" stroke-opacity="0.7019607843137254" stroke-linejoin="bevel" stroke-miterlimit="10" stroke-width="2" stroke-dasharray=""/><path fill="rgb(214,39,40)" stroke="rgb(0,0,0)" paint-order="fill" d="M 653.8458251953125 214.75563049316406 L 663.8458251953125 214.75563049316406 L 663.8458251953125 224.75563049316406 L 653.8458251953125 224.75563049316406 L 653.8458251953125 214.75563049316406" fill-opacity="1" clip-path="url(#AepsHpCDTtNH)" stroke-opacity="0.7019607843137254" stroke-linejoin="bevel" stroke-miterlimit="10" stroke-width="2" stroke-dasharray=""/><path fill="rgb(214,39,40)" stroke="rgb(0,0,0)" paint-order="fill" d="M 897.8336791992188 93.11564636230469 L 907.8336791992188 93.11564636230469 L 907.8336791992188 103.11564636230469 L 897.8336791992188 103.11564636230469 L 897.8336791992188 93.11564636230469" fill-opacity="1" clip-path="url(#AepsHpCDTtNH)" stroke-opacity="0.7019607843137254" stroke-linejoin="bevel" stroke-miterlimit="10" stroke-width="2" stroke-dasharray=""/><path fill="rgb(214,39,40)" stroke="rgb(0,0,0)" paint-order="fill" d="M 175.1756134033203 217.5485382080078 L 185.1756134033203 217.5485382080078 L 185.1756134033203 227.5485382080078 L 175.1756134033203 227.5485382080078 L 175.1756134033203 217.5485382080078" fill-opacity="1" clip-path="url(#AepsHpCDTtNH)" stroke-opacity="0.7019607843137254" stroke-linejoin="bevel" stroke-miterlimit="10" stroke-width="2" stroke-dasharray=""/><path fill="rgb(214,39,40)" stroke="rgb(0,0,0)" paint-order="fill" d="M 411.0179138183594 216.4917755126953 L 421.0179138183594 216.4917755126953 L 421.0179138183594 226.4917755126953 L 411.0179138183594 226.4917755126953 L 411.0179138183594 216.4917755126953" fill-opacity="1" clip-path="url(#AepsHpCDTtNH)" stroke-opacity="0.7019607843137254" stroke-linejoin="bevel" stroke-miterlimit="10" stroke-width="2" stroke-dasharray=""/><path fill="rgb(214,39,40)" stroke="rgb(0,0,0)" paint-order="fill" d="M 652.0442504882812 214.89401245117188 L 662.0442504882812 214.89401245117188 L 662.0442504882812 224.89401245117188 L 652.0442504882812 224.89401245117188 L 652.0442504882812 214.89401245117188" fill-opacity="1" clip-path="url(#AepsHpCDTtNH)" stroke-opacity="0.7019607843137254" stroke-linejoin="bevel" stroke-miterlimit="10" stroke-width="2" stroke-dasharray=""/><path fill="rgb(214,39,40)" stroke="rgb(0,0,0)" paint-order="fill" d="M 890.8500366210938 12.976190567016602 L 900.8500366210938 12.976190567016602 L 900.8500366210938 22.9761905670166 L 890.8500366210938 22.9761905670166 L 890.8500366210938 12.976190567016602" fill-opacity="1" clip-path="url(#AepsHpCDTtNH)" stroke-opacity="0.7019607843137254" stroke-linejoin="bevel" stroke-miterlimit="10" stroke-width="2" stroke-dasharray=""/><path fill="rgb(255,127,14)" stroke="rgb(0,0,0)" paint-order="fill" d="M 206.65333557128906 215.80471801757812 L 216.65333557128906 215.80471801757812 L 216.65333557128906 225.80471801757812 L 206.65333557128906 225.80471801757812 L 206.65333557128906 215.80471801757812" fill-opacity="1" clip-path="url(#AepsHpCDTtNH)" stroke-opacity="0.7019607843137254" stroke-linejoin="bevel" stroke-miterlimit="10" stroke-width="2" stroke-dasharray=""/><path fill="rgb(255,127,14)" stroke="rgb(0,0,0)" paint-order="fill" d="M 441.3323669433594 214.97012329101562 L 451.3323669433594 214.97012329101562 L 451.3323669433594 224.97012329101562 L 441.3323669433594 224.97012329101562 L 441.3323669433594 214.97012329101562" fill-opacity="1" clip-path="url(#AepsHpCDTtNH)" stroke-opacity="0.7019607843137254" stroke-linejoin="bevel" stroke-miterlimit="10" stroke-width="2" stroke-dasharray=""/><path fill="rgb(255,127,14)" stroke="rgb(0,0,0)" paint-order="fill" d="M 678.3893432617188 192.594482421875 L 688.3893432617188 192.594482421875 L 688.3893432617188 202.594482421875 L 678.3893432617188 202.594482421875 L 678.3893432617188 192.594482421875" fill-opacity="1" clip-path="url(#AepsHpCDTtNH)" stroke-opacity="0.7019607843137254" stroke-linejoin="bevel" stroke-miterlimit="10" stroke-width="2" stroke-dasharray=""/><path fill="rgb(255,127,14)" stroke="rgb(0,0,0)" paint-order="fill" d="M 922.3499755859375 112.90383911132812 L 932.3499755859375 112.90383911132812 L 932.3499755859375 122.90383911132812 L 922.3499755859375 122.90383911132812 L 922.3499755859375 112.90383911132812" fill-opacity="1" clip-path="url(#AepsHpCDTtNH)" stroke-opacity="0.7019607843137254" stroke-linejoin="bevel" stroke-miterlimit="10" stroke-width="2" stroke-dasharray=""/><path fill="rgb(255,127,14)" stroke="rgb(0,0,0)" paint-order="fill" d="M 200.21592712402344 218.30812072753906 L 210.21592712402344 218.30812072753906 L 210.21592712402344 228.30812072753906 L 200.21592712402344 228.30812072753906 L 200.21592712402344 218.30812072753906" fill-opacity="1" clip-path="url(#AepsHpCDTtNH)" stroke-opacity="0.7019607843137254" stroke-linejoin="bevel" stroke-miterlimit="10" stroke-width="2" stroke-dasharray=""/><path fill="rgb(255,127,14)" stroke="rgb(0,0,0)" paint-order="fill" d="M 439.082275390625 214.78866577148438 L 449.082275390625 214.78866577148438 L 449.082275390625 224.78866577148438 L 439.082275390625 224.78866577148438 L 439.082275390625 214.78866577148438" fill-opacity="1" clip-path="url(#AepsHpCDTtNH)" stroke-opacity="0.7019607843137254" stroke-linejoin="bevel" stroke-miterlimit="10" stroke-width="2" stroke-dasharray=""/><path fill="rgb(255,127,14)" stroke="rgb(0,0,0)" paint-order="fill" d="M 680.3929443359375 147.67051696777344 L 690.3929443359375 147.67051696777344 L 690.3929443359375 157.67051696777344 L 680.3929443359375 157.67051696777344 L 680.3929443359375 147.67051696777344" fill-opacity="1" clip-path="url(#AepsHpCDTtNH)" stroke-opacity="0.7019607843137254" stroke-linejoin="bevel" stroke-miterlimit="10" stroke-width="2" stroke-dasharray=""/><path fill="rgb(255,127,14)" stroke="rgb(0,0,0)" paint-order="fill" d="M 925.548095703125 157.78585815429688 L 935.548095703125 157.78585815429688 L 935.548095703125 167.78585815429688 L 925.548095703125 167.78585815429688 L 925.548095703125 157.78585815429688" fill-opacity="1" clip-path="url(#AepsHpCDTtNH)" stroke-opacity="0.7019607843137254" stroke-linejoin="bevel" stroke-miterlimit="10" stroke-width="2" stroke-dasharray=""/><path fill="rgb(255,187,120)" stroke="rgb(0,0,0)" paint-order="fill" d="M 231.23934936523438 208.73707580566406 L 241.23934936523438 208.73707580566406 L 241.23934936523438 218.73707580566406 L 231.23934936523438 218.73707580566406 L 231.23934936523438 208.73707580566406" fill-opacity="1" clip-path="url(#AepsHpCDTtNH)" stroke-opacity="0.7019607843137254" stroke-linejoin="bevel" stroke-miterlimit="10" stroke-width="2" stroke-dasharray=""/><path fill="rgb(255,187,120)" stroke="rgb(0,0,0)" paint-order="fill" d="M 470.2082824707031 212.11038208007812 L 480.2082824707031 212.11038208007812 L 480.2082824707031 222.11038208007812 L 470.2082824707031 222.11038208007812 L 470.2082824707031 212.11038208007812" fill-opacity="1" clip-path="url(#AepsHpCDTtNH)" stroke-opacity="0.7019607843137254" stroke-linejoin="bevel" stroke-miterlimit="10" stroke-width="2" stroke-dasharray=""/><path fill="rgb(255,187,120)" stroke="rgb(0,0,0)" paint-order="fill" d="M 714.9210205078125 171.07540893554688 L 724.9210205078125 171.07540893554688 L 724.9210205078125 181.07540893554688 L 714.9210205078125 181.07540893554688 L 714.9210205078125 171.07540893554688" fill-opacity="1" clip-path="url(#AepsHpCDTtNH)" stroke-opacity="0.7019607843137254" stroke-linejoin="bevel" stroke-miterlimit="10" stroke-width="2" stroke-dasharray=""/><path fill="rgb(255,187,120)" stroke="rgb(0,0,0)" paint-order="fill" d="M 949.4863891601562 118.12252044677734 L 959.4863891601562 118.12252044677734 L 959.4863891601562 128.12252044677734 L 949.4863891601562 128.12252044677734 L 949.4863891601562 118.12252044677734" fill-opacity="1" clip-path="url(#AepsHpCDTtNH)" stroke-opacity="0.7019607843137254" stroke-linejoin="bevel" stroke-miterlimit="10" stroke-width="2" stroke-dasharray=""/><path fill="rgb(255,187,120)" stroke="rgb(0,0,0)" paint-order="fill" d="M 230.42515563964844 211.43594360351562 L 240.42515563964844 211.43594360351562 L 240.42515563964844 221.43594360351562 L 230.42515563964844 221.43594360351562 L 230.42515563964844 211.43594360351562" fill-opacity="1" clip-path="url(#AepsHpCDTtNH)" stroke-opacity="0.7019607843137254" stroke-linejoin="bevel" stroke-miterlimit="10" stroke-width="2" stroke-dasharray=""/><path fill="rgb(255,187,120)" stroke="rgb(0,0,0)" paint-order="fill" d="M 467.9997253417969 208.22784423828125 L 477.9997253417969 208.22784423828125 L 477.9997253417969 218.22784423828125 L 467.9997253417969 218.22784423828125 L 467.9997253417969 208.22784423828125" fill-opacity="1" clip-path="url(#AepsHpCDTtNH)" stroke-opacity="0.7019607843137254" stroke-linejoin="bevel" stroke-miterlimit="10" stroke-width="2" stroke-dasharray=""/><path fill="rgb(255,187,120)" stroke="rgb(0,0,0)" paint-order="fill" d="M 710.7799072265625 149.75856018066406 L 720.7799072265625 149.75856018066406 L 720.7799072265625 159.75856018066406 L 710.7799072265625 159.75856018066406 L 710.7799072265625 149.75856018066406" fill-opacity="1" clip-path="url(#AepsHpCDTtNH)" stroke-opacity="0.7019607843137254" stroke-linejoin="bevel" stroke-miterlimit="10" stroke-width="2" stroke-dasharray=""/><path fill="rgb(255,187,120)" stroke="rgb(0,0,0)" paint-order="fill" d="M 951.3705444335938 158.3151397705078 L 961.3705444335938 158.3151397705078 L 961.3705444335938 168.3151397705078 L 951.3705444335938 168.3151397705078 L 951.3705444335938 158.3151397705078" fill-opacity="1" clip-path="url(#AepsHpCDTtNH)" stroke-opacity="0.7019607843137254" stroke-linejoin="bevel" stroke-miterlimit="10" stroke-width="2" stroke-dasharray=""/><path fill="none" stroke="rgb(0,0,0)" paint-order="fill" d="M 50.5 267.5 L 970.5 267.5" stroke-opacity="1" stroke-linejoin="bevel" stroke-miterlimit="10" stroke-dasharray=""/><path fill="none" stroke="rgb(0,0,0)" paint-order="fill" d="M 64.5 273.5 L 64.5 265.5 M 304.5 273.5 L 304.5 265.5 M 544.5 273.5 L 544.5 265.5 M 784.5 273.5 L 784.5 265.5 M 93.5 273.5 L 93.5 265.5 M 333.5 273.5 L 333.5 265.5 M 573.5 273.5 L 573.5 265.5 M 813.5 273.5 L 813.5 265.5 M 121.5 273.5 L 121.5 265.5 M 361.5 273.5 L 361.5 265.5 M 601.5 273.5 L 601.5 265.5 M 841.5 273.5 L 841.5 265.5 M 150.5 273.5 L 150.5 265.5 M 390.5 273.5 L 390.5 265.5 M 630.5 273.5 L 630.5 265.5 M 870.5 273.5 L 870.5 265.5 M 179.5 273.5 L 179.5 265.5 M 419.5 273.5 L 419.5 265.5 M 659.5 273.5 L 659.5 265.5 M 899.5 273.5 L 899.5 265.5 M 207.5 273.5 L 207.5 265.5 M 447.5 273.5 L 447.5 265.5 M 687.5 273.5 L 687.5 265.5 M 927.5 273.5 L 927.5 265.5 M 236.5 273.5 L 236.5 265.5 M 476.5 273.5 L 476.5 265.5 M 716.5 273.5 L 716.5 265.5 M 956.5 273.5 L 956.5 265.5" stroke-opacity="1" stroke-linejoin="bevel" stroke-miterlimit="10" stroke-dasharray=""/><path fill="none" stroke="rgb(0,0,0)" paint-order="fill" d="" stroke-opacity="1" stroke-linejoin="bevel" stroke-miterlimit="10" stroke-dasharray=""/><text fill="rgb(68,68,68)" stroke="none" font-family="helvetica" font-size="11px" font-style="normal" font-weight="normal" text-decoration="normal" x="20.90237808227539" y="282.009521484375" text-anchor="start" dominant-baseline="alphabetic" transform="matrix(0.7071067811865476, -0.7071067811865475, 0.7071067811865475, 0.7071067811865476, -177.24683570822367, 127.38117856430401)" fill-opacity="1">PhzOx A</text><text fill="rgb(68,68,68)" stroke="none" font-family="helvetica" font-size="11px" font-style="normal" font-weight="normal" text-decoration="normal" x="260.90237045288086" y="282.009521484375" text-anchor="start" dominant-baseline="alphabetic" transform="matrix(0.7071067811865476, -0.7071067811865475, 0.7071067811865475, 0.7071067811865476, -106.95246542759298, 297.0868006542788)" fill-opacity="1">PhzOx A</text><text fill="rgb(68,68,68)" stroke="none" font-family="helvetica" font-size="11px" font-style="normal" font-weight="normal" text-decoration="normal" x="500.90237045288086" y="282.009521484375" text-anchor="start" dominant-baseline="alphabetic" transform="matrix(0.7071067811865476, -0.7071067811865475, 0.7071067811865475, 0.7071067811865476, -36.65809291236451, 466.79242813905023)" fill-opacity="1">PhzOx A</text><text fill="rgb(68,68,68)" stroke="none" font-family="helvetica" font-size="11px" font-style="normal" font-weight="normal" text-decoration="normal" x="740.9024314880371" y="282.009521484375" text-anchor="start" dominant-baseline="alphabetic" transform="matrix(0.7071067811865476, -0.7071067811865475, 0.7071067811865475, 0.7071067811865476, 33.63629747964751, 636.4980987821945)" fill-opacity="1">PhzOx A</text><text fill="rgb(68,68,68)" stroke="none" font-family="helvetica" font-size="11px" font-style="normal" font-weight="normal" text-decoration="normal" x="48.857139587402344" y="282.009521484375" text-anchor="start" dominant-baseline="alphabetic" transform="matrix(0.7071067811865476, -0.7071067811865475, 0.7071067811865475, 0.7071067811865476, -168.8784586662959, 147.58422791397777)" fill-opacity="1">PhzOx C</text><text fill="rgb(68,68,68)" stroke="none" font-family="helvetica" font-size="11px" font-style="normal" font-weight="normal" text-decoration="normal" x="288.85711669921875" y="282.009521484375" text-anchor="start" dominant-baseline="alphabetic" transform="matrix(0.7071067811865476, -0.7071067811865475, 0.7071067811865475, 0.7071067811865476, -98.58409285486107, 317.2898392143593)" fill-opacity="1">PhzOx C</text><text fill="rgb(68,68,68)" stroke="none" font-family="helvetica" font-size="11px" font-style="normal" font-weight="normal" text-decoration="normal" x="528.8571166992188" y="282.009521484375" text-anchor="start" dominant-baseline="alphabetic" transform="matrix(0.7071067811865476, -0.7071067811865475, 0.7071067811865475, 0.7071067811865476, -28.28972033963248, 486.9954666991307)" fill-opacity="1">PhzOx C</text><text fill="rgb(68,68,68)" stroke="none" font-family="helvetica" font-size="11px" font-style="normal" font-weight="normal" text-decoration="normal" x="768.857177734375" y="282.009521484375" text-anchor="start" dominant-baseline="alphabetic" transform="matrix(0.7071067811865476, -0.7071067811865475, 0.7071067811865475, 0.7071067811865476, 42.004670052379424, 656.701137342275)" fill-opacity="1">PhzOx C</text><text fill="rgb(68,68,68)" stroke="none" font-family="helvetica" font-size="11px" font-style="normal" font-weight="normal" text-decoration="normal" x="67.62857437133789" y="282.009521484375" text-anchor="start" dominant-baseline="alphabetic" transform="matrix(0.7071067811865476, -0.7071067811865475, 0.7071067811865475, 0.7071067811865476, -160.51007938977017, 167.78728265844813)" fill-opacity="1">Citrobacter</text><text fill="rgb(68,68,68)" stroke="none" font-family="helvetica" font-size="11px" font-style="normal" font-weight="normal" text-decoration="normal" x="307.6285591125488" y="282.009521484375" text-anchor="start" dominant-baseline="alphabetic" transform="matrix(0.7071067811865476, -0.7071067811865475, 0.7071067811865475, 0.7071067811865476, -90.21571134373744, 337.4928993536263)" fill-opacity="1">Citrobacter</text><text fill="rgb(68,68,68)" stroke="none" font-family="helvetica" font-size="11px" font-style="normal" font-weight="normal" text-decoration="normal" x="547.6285285949707" y="282.009521484375" text-anchor="start" dominant-baseline="alphabetic" transform="matrix(0.7071067811865476, -0.7071067811865475, 0.7071067811865475, 0.7071067811865476, -19.921347766900453, 507.1985052592113)" fill-opacity="1">Citrobacter</text><text fill="rgb(68,68,68)" stroke="none" font-family="helvetica" font-size="11px" font-style="normal" font-weight="normal" text-decoration="normal" x="787.628589630127" y="282.009521484375" text-anchor="start" dominant-baseline="alphabetic" transform="matrix(0.7071067811865476, -0.7071067811865475, 0.7071067811865475, 0.7071067811865476, 50.37304262511145, 676.9041759023555)" fill-opacity="1">Citrobacter</text><text fill="rgb(68,68,68)" stroke="none" font-family="helvetica" font-size="11px" font-style="normal" font-weight="normal" text-decoration="normal" x="83.53333282470703" y="282.009521484375" text-anchor="start" dominant-baseline="alphabetic" transform="matrix(0.7071067811865476, -0.7071067811865475, 0.7071067811865475, 0.7071067811865476, -152.14170234784234, 187.99033200812187)" fill-opacity="1">P. aeruginosa</text><text fill="rgb(68,68,68)" stroke="none" font-family="helvetica" font-size="11px" font-style="normal" font-weight="normal" text-decoration="normal" x="323.53333282470703" y="282.009521484375" text-anchor="start" dominant-baseline="alphabetic" transform="matrix(0.7071067811865476, -0.7071067811865475, 0.7071067811865475, 0.7071067811865476, -81.84732983261375, 357.6959594928933)" fill-opacity="1">P. aeruginosa</text><text fill="rgb(68,68,68)" stroke="none" font-family="helvetica" font-size="11px" font-style="normal" font-weight="normal" text-decoration="normal" x="563.533332824707" y="282.009521484375" text-anchor="start" dominant-baseline="alphabetic" transform="matrix(0.7071067811865476, -0.7071067811865475, 0.7071067811865475, 0.7071067811865476, -11.552957317385108, 527.4015869776647)" fill-opacity="1">P. aeruginosa</text><text fill="rgb(68,68,68)" stroke="none" font-family="helvetica" font-size="11px" font-style="normal" font-weight="normal" text-decoration="normal" x="803.533332824707" y="282.009521484375" text-anchor="start" dominant-baseline="alphabetic" transform="matrix(0.7071067811865476, -0.7071067811865475, 0.7071067811865475, 0.7071067811865476, 58.74141519784337, 697.1072144624361)" fill-opacity="1">P. aeruginosa</text><text fill="rgb(68,68,68)" stroke="none" font-family="helvetica" font-size="11px" font-style="normal" font-weight="normal" text-decoration="normal" x="56.888092041015625" y="282.009521484375" text-anchor="start" dominant-baseline="alphabetic" transform="matrix(0.7071067811865476, -0.7071067811865475, 0.7071067811865475, 0.7071067811865476, -143.77332530591457, 208.19338135779563)" fill-opacity="1">Pseudogulbenkiania MAI</text><text fill="rgb(68,68,68)" stroke="none" font-family="helvetica" font-size="11px" font-style="normal" font-weight="normal" text-decoration="normal" x="296.88807678222656" y="282.009521484375" text-anchor="start" dominant-baseline="alphabetic" transform="matrix(0.7071067811865476, -0.7071067811865475, 0.7071067811865475, 0.7071067811865476, -73.47895725988178, 377.89899805297375)" fill-opacity="1">Pseudogulbenkiania MAI</text><text fill="rgb(68,68,68)" stroke="none" font-family="helvetica" font-size="11px" font-style="normal" font-weight="normal" text-decoration="normal" x="536.8880767822266" y="282.009521484375" text-anchor="start" dominant-baseline="alphabetic" transform="matrix(0.7071067811865476, -0.7071067811865475, 0.7071067811865475, 0.7071067811865476, -3.1845847446531934, 547.6046255377452)" fill-opacity="1">Pseudogulbenkiania MAI</text><text fill="rgb(68,68,68)" stroke="none" font-family="helvetica" font-size="11px" font-style="normal" font-weight="normal" text-decoration="normal" x="776.8881378173828" y="282.009521484375" text-anchor="start" dominant-baseline="alphabetic" transform="matrix(0.7071067811865476, -0.7071067811865475, 0.7071067811865475, 0.7071067811865476, 67.10980564735871, 717.3102961808895)" fill-opacity="1">Pseudogulbenkiania MAI</text><text fill="rgb(68,68,68)" stroke="none" font-family="helvetica" font-size="11px" font-style="normal" font-weight="normal" text-decoration="normal" x="91.77618408203125" y="282.009521484375" text-anchor="start" dominant-baseline="alphabetic" transform="matrix(0.7071067811865476, -0.7071067811865475, 0.7071067811865475, 0.7071067811865476, -135.40494826398674, 228.3964307074694)" fill-opacity="1">P. nitroreducens pointer</text><text fill="rgb(68,68,68)" stroke="none" font-family="helvetica" font-size="11px" font-style="normal" font-weight="normal" text-decoration="normal" x="331.77618408203125" y="282.009521484375" text-anchor="start" dominant-baseline="alphabetic" transform="matrix(0.7071067811865476, -0.7071067811865475, 0.7071067811865475, 0.7071067811865476, -65.11057574875815, 398.10205819224075)" fill-opacity="1">P. nitroreducens pointer</text><text fill="rgb(68,68,68)" stroke="none" font-family="helvetica" font-size="11px" font-style="normal" font-weight="normal" text-decoration="normal" x="571.7761535644531" y="282.009521484375" text-anchor="start" dominant-baseline="alphabetic" transform="matrix(0.7071067811865476, -0.7071067811865475, 0.7071067811865475, 0.7071067811865476, 5.183787828078721, 567.8076640978258)" fill-opacity="1">P. nitroreducens pointer</text><text fill="rgb(68,68,68)" stroke="none" font-family="helvetica" font-size="11px" font-style="normal" font-weight="normal" text-decoration="normal" x="811.7762145996094" y="282.009521484375" text-anchor="start" dominant-baseline="alphabetic" transform="matrix(0.7071067811865476, -0.7071067811865475, 0.7071067811865475, 0.7071067811865476, 75.47817822009074, 737.51333474097)" fill-opacity="1">P. nitroreducens pointer</text><text fill="rgb(68,68,68)" stroke="none" font-family="helvetica" font-size="11px" font-style="normal" font-weight="normal" text-decoration="normal" x="110.56427764892578" y="282.009521484375" text-anchor="start" dominant-baseline="alphabetic" transform="matrix(0.7071067811865476, -0.7071067811865475, 0.7071067811865475, 0.7071067811865476, -127.03657122205891, 248.59948005714315)" fill-opacity="1">P. nitroreducens spreader</text><text fill="rgb(68,68,68)" stroke="none" font-family="helvetica" font-size="11px" font-style="normal" font-weight="normal" text-decoration="normal" x="350.5642623901367" y="282.009521484375" text-anchor="start" dominant-baseline="alphabetic" transform="matrix(0.7071067811865476, -0.7071067811865475, 0.7071067811865475, 0.7071067811865476, -56.74220317602612, 418.30509675232133)" fill-opacity="1">P. nitroreducens spreader</text><text fill="rgb(68,68,68)" stroke="none" font-family="helvetica" font-size="11px" font-style="normal" font-weight="normal" text-decoration="normal" x="590.5642318725586" y="282.009521484375" text-anchor="start" dominant-baseline="alphabetic" transform="matrix(0.7071067811865476, -0.7071067811865475, 0.7071067811865475, 0.7071067811865476, 13.552160400810635, 588.0107026579062)" fill-opacity="1">P. nitroreducens spreader</text><text fill="rgb(68,68,68)" stroke="none" font-family="helvetica" font-size="11px" font-style="normal" font-weight="normal" text-decoration="normal" x="830.5642929077148" y="282.009521484375" text-anchor="start" dominant-baseline="alphabetic" transform="matrix(0.7071067811865476, -0.7071067811865475, 0.7071067811865475, 0.7071067811865476, 83.84655079282265, 757.7163733010506)" fill-opacity="1">P. nitroreducens spreader</text><text fill="rgb(128,128,128)" stroke="none" font-family="helvetica" font-size="11px" font-style="normal" font-weight="bold" text-decoration="normal" x="138.38333320617676" y="394.1920909401256" text-anchor="start" dominant-baseline="alphabetic" transform="matrix(1, 0, 0, 1, 0.5, 0.5)" fill-opacity="1">PCA</text><text fill="rgb(128,128,128)" stroke="none" font-family="helvetica" font-size="11px" font-style="normal" font-weight="bold" text-decoration="normal" x="363.7250003814697" y="394.1920909401256" text-anchor="start" dominant-baseline="alphabetic" transform="matrix(1, 0, 0, 1, 0.5, 0.5)" fill-opacity="1">PCA, Fum</text><text fill="rgb(128,128,128)" stroke="none" font-family="helvetica" font-size="11px" font-style="normal" font-weight="bold" text-decoration="normal" x="604.0249996185303" y="394.1920909401256" text-anchor="start" dominant-baseline="alphabetic" transform="matrix(1, 0, 0, 1, 0.5, 0.5)" fill-opacity="1">PCA, NO2</text><text fill="rgb(128,128,128)" stroke="none" font-family="helvetica" font-size="11px" font-style="normal" font-weight="bold" text-decoration="normal" x="844.0249996185303" y="394.1920909401256" text-anchor="start" dominant-baseline="alphabetic" transform="matrix(1, 0, 0, 1, 0.5, 0.5)" fill-opacity="1">PCA, NO3</text><path fill="none" stroke="rgb(211,211,211)" paint-order="fill" d="M 184.5 388.5 L 184.5 270.5 M 424.5 388.5 L 424.5 270.5 M 664.5 388.5 L 664.5 270.5" stroke-opacity="1" stroke-linejoin="bevel" stroke-miterlimit="10" stroke-width="2" stroke-dasharray=""/><path fill="none" stroke="rgb(0,0,0)" paint-order="fill" d="M 50.5 267.5 L 50.5 5.5" stroke-opacity="1" stroke-linejoin="bevel" stroke-miterlimit="10" stroke-dasharray=""/><path fill="none" stroke="rgb(0,0,0)" paint-order="fill" d="M 44.5 244.5 L 52.5 244.5 M 44.5 202.5 L 52.5 202.5 M 44.5 159.5 L 52.5 159.5 M 44.5 117.5 L 52.5 117.5 M 44.5 74.5 L 52.5 74.5 M 44.5 32.5 L 52.5 32.5" stroke-opacity="1" stroke-linejoin="bevel" stroke-miterlimit="10" stroke-dasharray=""/><path fill="none" stroke="rgb(0,0,0)" paint-order="fill" d="M 46.5 253.5 L 50.5 253.5 M 46.5 261.5 L 50.5 261.5 M 46.5 244.5 L 50.5 244.5 M 46.5 236.5 L 50.5 236.5 M 46.5 227.5 L 50.5 227.5 M 46.5 219.5 L 50.5 219.5 M 46.5 210.5 L 50.5 210.5 M 46.5 202.5 L 50.5 202.5 M 46.5 193.5 L 50.5 193.5 M 46.5 185.5 L 50.5 185.5 M 46.5 176.5 L 50.5 176.5 M 46.5 168.5 L 50.5 168.5 M 46.5 159.5 L 50.5 159.5 M 46.5 151.5 L 50.5 151.5 M 46.5 142.5 L 50.5 142.5 M 46.5 134.5 L 50.5 134.5 M 46.5 125.5 L 50.5 125.5 M 46.5 117.5 L 50.5 117.5 M 46.5 108.5 L 50.5 108.5 M 46.5 100.5 L 50.5 100.5 M 46.5 91.5 L 50.5 91.5 M 46.5 83.5 L 50.5 83.5 M 46.5 74.5 L 50.5 74.5 M 46.5 66.5 L 50.5 66.5 M 46.5 57.5 L 50.5 57.5 M 46.5 49.5 L 50.5 49.5 M 46.5 40.5 L 50.5 40.5 M 46.5 32.5 L 50.5 32.5 M 46.5 23.5 L 50.5 23.5 M 46.5 15.5 L 50.5 15.5 M 46.5 6.5 L 50.5 6.5" stroke-opacity="1" stroke-linejoin="bevel" stroke-miterlimit="10" stroke-dasharray=""/><text fill="rgb(68,68,68)" stroke="none" font-family="helvetica" font-size="11px" font-style="normal" font-weight="normal" text-decoration="normal" x="32.88333320617676" y="248.26109313964844" text-anchor="start" dominant-baseline="alphabetic" transform="matrix(1, 0, 0, 1, 0.5, 0.5)" fill-opacity="1">0</text><text fill="rgb(68,68,68)" stroke="none" font-family="helvetica" font-size="11px" font-style="normal" font-weight="normal" text-decoration="normal" x="26.766666412353516" y="205.737060546875" text-anchor="start" dominant-baseline="alphabetic" transform="matrix(1, 0, 0, 1, 0.5, 0.5)" fill-opacity="1">10</text><text fill="rgb(68,68,68)" stroke="none" font-family="helvetica" font-size="11px" font-style="normal" font-weight="normal" text-decoration="normal" x="26.766666412353516" y="163.21304321289062" text-anchor="start" dominant-baseline="alphabetic" transform="matrix(1, 0, 0, 1, 0.5, 0.5)" fill-opacity="1">20</text><text fill="rgb(68,68,68)" stroke="none" font-family="helvetica" font-size="11px" font-style="normal" font-weight="normal" text-decoration="normal" x="26.766666412353516" y="120.68901062011719" text-anchor="start" dominant-baseline="alphabetic" transform="matrix(1, 0, 0, 1, 0.5, 0.5)" fill-opacity="1">30</text><text fill="rgb(68,68,68)" stroke="none" font-family="helvetica" font-size="11px" font-style="normal" font-weight="normal" text-decoration="normal" x="26.766666412353516" y="78.16498565673828" text-anchor="start" dominant-baseline="alphabetic" transform="matrix(1, 0, 0, 1, 0.5, 0.5)" fill-opacity="1">40</text><text fill="rgb(68,68,68)" stroke="none" font-family="helvetica" font-size="11px" font-style="normal" font-weight="normal" text-decoration="normal" x="26.766666412353516" y="35.64096260070801" text-anchor="start" dominant-baseline="alphabetic" transform="matrix(1, 0, 0, 1, 0.5, 0.5)" fill-opacity="1">50</text><text fill="rgb(68,68,68)" stroke="none" font-family="helvetica" font-size="13px" font-style="italic" font-weight="normal" text-decoration="normal" x="-72.29166793823242" y="133.12451171875" text-anchor="start" dominant-baseline="alphabetic" transform="matrix(6.123233995736766e-17, -1, 1, 6.123233995736766e-17, -116.73333358764648, 155.26666641235352)" fill-opacity="1">max PCA oxidation rate (AU/hr)</text></svg>