<svg version="1.1" xmlns="http://www.w3.org/2000/svg" xmlns:xlink="http://www.w3.org/1999/xlink" width="400" height="500"><defs><clipPath id="dvkoSTlkZbxy"><path fill="none" stroke="none" d="M 59.5 31.5 L 370.5 31.5 L 370.5 351.5 L 59.5 351.5 L 59.5 31.5"/></clipPath><clipPath id="HJKLTylMTdEu"><path fill="none" stroke="none" d="M 59.5 31.5 L 370.5 31.5 L 370.5 351.5 L 59.5 351.5 L 59.5 31.5"/></clipPath><clipPath id="BlnZZNhMamgT"><path fill="none" stroke="none" d="M 59.5 31.5 L 370.5 31.5 L 370.5 351.5 L 59.5 351.5 L 59.5 31.5"/></clipPath><clipPath id="mUsxTtcATRVu"><path fill="none" stroke="none" d="M 59.5 31.5 L 370.5 31.5 L 370.5 351.5 L 59.5 351.5 L 59.5 31.5"/></clipPath><clipPath id="IEhzyUeEmFCG"><path fill="none" stroke="none" d="M 59.5 31.5 L 370.5 31.5 L 370.5 351.5 L 59.5 351.5 L 59.5 31.5"/></clipPath></defs><path fill="rgb(255,255,255)" stroke="none" paint-order="stroke" d="M 0.5 0.5 L 400.5 0.5 L 400.5 500.5 L 0.5 500.5 L 0.5 0.5" fill-opacity="1"/><rect fill="#FFFFFF" stroke="none" x="59" y="31" width="311" height="320" transform="matrix(1, 0, 0, 1, 0.5, 0.5)"/><path fill="rgb(255,255,255)" stroke="none" paint-order="stroke" d="M 59.5 31.5 L 370.5 31.5 L 370.5 351.5 L 59.5 351.5 L 59.5 31.5" fill-opacity="1"/><path fill="none" stroke="rgb(229,229,229)" paint-order="fill" d="M 59.5 31.5 L 370.5 31.5 L 370.5 351.5 L 59.5 351.5 L 59.5 31.5" stroke-opacity="1" stroke-linejoin="bevel" stroke-miterlimit="10" stroke-dasharray=""/><path fill="none" stroke="rgb(229,229,229)" paint-order="fill" d="M 59.5 323.5 L 370.5 323.5 M 59.5 279.5 L 370.5 279.5 M 59.5 235.5 L 370.5 235.5 M 59.5 191.5 L 370.5 191.5 M 59.5 146.5 L 370.5 146.5 M 59.5 102.5 L 370.5 102.5 M 59.5 58.5 L 370.5 58.5" stroke-opacity="1" stroke-linejoin="bevel" stroke-miterlimit="10" stroke-dasharray="" clip-path="url(#HJKLTylMTdEu)"/><path fill="none" stroke="none"/><path fill="none" stroke="none"/><path fill="rgb(174,199,232)" stroke="rgb(0,0,0)" paint-order="fill" d="M 71.53211212158203 123.04918670654297 L 81.53211212158203 123.04918670654297 L 81.53211212158203 133.04918670654297 L 71.53211212158203 133.04918670654297 L 71.53211212158203 123.04918670654297" fill-opacity="1" clip-path="url(#mUsxTtcATRVu)" stroke-opacity="0.7019607843137254" stroke-linejoin="bevel" stroke-miterlimit="10" stroke-width="2" stroke-dasharray=""/><path fill="rgb(174,199,232)" stroke="rgb(0,0,0)" paint-order="fill" d="M 75.19659423828125 133.3607635498047 L 85.19659423828125 133.3607635498047 L 85.19659423828125 143.3607635498047 L 75.19659423828125 143.3607635498047 L 75.19659423828125 133.3607635498047" fill-opacity="1" clip-path="url(#mUsxTtcATRVu)" stroke-opacity="0.7019607843137254" stroke-linejoin="bevel" stroke-miterlimit="10" stroke-width="2" stroke-dasharray=""/><path fill="rgb(174,199,232)" stroke="rgb(0,0,0)" paint-order="fill" d="M 69.69564819335938 78.32977294921875 L 79.69564819335938 78.32977294921875 L 79.69564819335938 88.32977294921875 L 69.69564819335938 88.32977294921875 L 69.69564819335938 78.32977294921875" fill-opacity="1" clip-path="url(#mUsxTtcATRVu)" stroke-opacity="0.7019607843137254" stroke-linejoin="bevel" stroke-miterlimit="10" stroke-width="2" stroke-dasharray=""/><path fill="rgb(174,199,232)" stroke="rgb(0,0,0)" paint-order="fill" d="M 71.49559783935547 130.9229736328125 L 81.49559783935547 130.9229736328125 L 81.49559783935547 140.9229736328125 L 71.49559783935547 140.9229736328125 L 71.49559783935547 130.9229736328125" fill-opacity="1" clip-path="url(#mUsxTtcATRVu)" stroke-opacity="0.7019607843137254" stroke-linejoin="bevel" stroke-miterlimit="10" stroke-width="2" stroke-dasharray=""/><path fill="rgb(174,199,232)" stroke="rgb(0,0,0)" paint-order="fill" d="M 71.67076110839844 121.93373107910156 L 81.67076110839844 121.93373107910156 L 81.67076110839844 131.93373107910156 L 71.67076110839844 131.93373107910156 L 71.67076110839844 121.93373107910156" fill-opacity="1" clip-path="url(#mUsxTtcATRVu)" stroke-opacity="0.7019607843137254" stroke-linejoin="bevel" stroke-miterlimit="10" stroke-width="2" stroke-dasharray=""/><path fill="rgb(174,199,232)" stroke="rgb(0,0,0)" paint-order="fill" d="M 72.29361724853516 208.19281005859375 L 82.29361724853516 208.19281005859375 L 82.29361724853516 218.19281005859375 L 72.29361724853516 218.19281005859375 L 72.29361724853516 208.19281005859375" fill-opacity="1" clip-path="url(#mUsxTtcATRVu)" stroke-opacity="0.7019607843137254" stroke-linejoin="bevel" stroke-miterlimit="10" stroke-width="2" stroke-dasharray=""/><path fill="rgb(31,119,180)" stroke="rgb(0,0,0)" paint-order="fill" d="M 110.95126342773438 312.3628845214844 L 120.95126342773438 312.3628845214844 L 120.95126342773438 322.3628845214844 L 110.95126342773438 322.3628845214844 L 110.95126342773438 312.3628845214844" fill-opacity="1" clip-path="url(#mUsxTtcATRVu)" stroke-opacity="0.7019607843137254" stroke-linejoin="bevel" stroke-miterlimit="10" stroke-width="2" stroke-dasharray=""/><path fill="rgb(31,119,180)" stroke="rgb(0,0,0)" paint-order="fill" d="M 105.88727569580078 312.3804626464844 L 115.88727569580078 312.3804626464844 L 115.88727569580078 322.3804626464844 L 105.88727569580078 322.3804626464844 L 105.88727569580078 312.3804626464844" fill-opacity="1" clip-path="url(#mUsxTtcATRVu)" stroke-opacity="0.7019607843137254" stroke-linejoin="bevel" stroke-miterlimit="10" stroke-width="2" stroke-dasharray=""/><path fill="rgb(31,119,180)" stroke="rgb(0,0,0)" paint-order="fill" d="M 106.9537124633789 314.61669921875 L 116.9537124633789 314.61669921875 L 116.9537124633789 324.61669921875 L 106.9537124633789 324.61669921875 L 106.9537124633789 314.61669921875" fill-opacity="1" clip-path="url(#mUsxTtcATRVu)" stroke-opacity="0.7019607843137254" stroke-linejoin="bevel" stroke-miterlimit="10" stroke-width="2" stroke-dasharray=""/><path fill="rgb(255,127,14)" stroke="rgb(0,0,0)" paint-order="fill" d="M 145.2841339111328 99.39591979980469 L 155.2841339111328 99.39591979980469 L 155.2841339111328 109.39591979980469 L 145.2841339111328 109.39591979980469 L 145.2841339111328 99.39591979980469" fill-opacity="1" clip-path="url(#mUsxTtcATRVu)" stroke-opacity="0.7019607843137254" stroke-linejoin="bevel" stroke-miterlimit="10" stroke-width="2" stroke-dasharray=""/><path fill="rgb(152,223,138)" stroke="rgb(0,0,0)" paint-order="fill" d="M 177.0578155517578 157.3117218017578 L 187.0578155517578 157.3117218017578 L 187.0578155517578 167.3117218017578 L 177.0578155517578 167.3117218017578 L 177.0578155517578 157.3117218017578" fill-opacity="1" clip-path="url(#mUsxTtcATRVu)" stroke-opacity="0.7019607843137254" stroke-linejoin="bevel" stroke-miterlimit="10" stroke-width="2" stroke-dasharray=""/><path fill="rgb(148,103,189)" stroke="rgb(0,0,0)" paint-order="fill" d="M 206.6683807373047 202.2666473388672 L 216.6683807373047 202.2666473388672 L 216.6683807373047 212.2666473388672 L 206.6683807373047 212.2666473388672 L 206.6683807373047 202.2666473388672" fill-opacity="1" clip-path="url(#mUsxTtcATRVu)" stroke-opacity="0.7019607843137254" stroke-linejoin="bevel" stroke-miterlimit="10" stroke-width="2" stroke-dasharray=""/><path fill="rgb(255,127,14)" stroke="rgb(0,0,0)" paint-order="fill" d="M 142.19741821289062 128.80262756347656 L 152.19741821289062 128.80262756347656 L 152.19741821289062 138.80262756347656 L 142.19741821289062 138.80262756347656 L 142.19741821289062 128.80262756347656" fill-opacity="1" clip-path="url(#mUsxTtcATRVu)" stroke-opacity="0.7019607843137254" stroke-linejoin="bevel" stroke-miterlimit="10" stroke-width="2" stroke-dasharray=""/><path fill="rgb(152,223,138)" stroke="rgb(0,0,0)" paint-order="fill" d="M 171.8289031982422 185.76177978515625 L 181.8289031982422 185.76177978515625 L 181.8289031982422 195.76177978515625 L 171.8289031982422 195.76177978515625 L 171.8289031982422 185.76177978515625" fill-opacity="1" clip-path="url(#mUsxTtcATRVu)" stroke-opacity="0.7019607843137254" stroke-linejoin="bevel" stroke-miterlimit="10" stroke-width="2" stroke-dasharray=""/><path fill="rgb(148,103,189)" stroke="rgb(0,0,0)" paint-order="fill" d="M 214.52301025390625 213.51632690429688 L 224.52301025390625 213.51632690429688 L 224.52301025390625 223.51632690429688 L 214.52301025390625 223.51632690429688 L 214.52301025390625 213.51632690429688" fill-opacity="1" clip-path="url(#mUsxTtcATRVu)" stroke-opacity="0.7019607843137254" stroke-linejoin="bevel" stroke-miterlimit="10" stroke-width="2" stroke-dasharray=""/><path fill="rgb(255,127,14)" stroke="rgb(0,0,0)" paint-order="fill" d="M 144.1751251220703 175.10293579101562 L 154.1751251220703 175.10293579101562 L 154.1751251220703 185.10293579101562 L 144.1751251220703 185.10293579101562 L 144.1751251220703 175.10293579101562" fill-opacity="1" clip-path="url(#mUsxTtcATRVu)" stroke-opacity="0.7019607843137254" stroke-linejoin="bevel" stroke-miterlimit="10" stroke-width="2" stroke-dasharray=""/><path fill="rgb(152,223,138)" stroke="rgb(0,0,0)" paint-order="fill" d="M 178.23939514160156 163.99302673339844 L 188.23939514160156 163.99302673339844 L 188.23939514160156 173.99302673339844 L 178.23939514160156 173.99302673339844 L 178.23939514160156 163.99302673339844" fill-opacity="1" clip-path="url(#mUsxTtcATRVu)" stroke-opacity="0.7019607843137254" stroke-linejoin="bevel" stroke-miterlimit="10" stroke-width="2" stroke-dasharray=""/><path fill="rgb(148,103,189)" stroke="rgb(0,0,0)" paint-order="fill" d="M 206.38584899902344 190.61488342285156 L 216.38584899902344 190.61488342285156 L 216.38584899902344 200.61488342285156 L 206.38584899902344 200.61488342285156 L 206.38584899902344 190.61488342285156" fill-opacity="1" clip-path="url(#mUsxTtcATRVu)" stroke-opacity="0.7019607843137254" stroke-linejoin="bevel" stroke-miterlimit="10" stroke-width="2" stroke-dasharray=""/><path fill="rgb(255,127,14)" stroke="rgb(0,0,0)" paint-order="fill" d="M 136.621826171875 101.17660522460938 L 146.621826171875 101.17660522460938 L 146.621826171875 111.17660522460938 L 136.621826171875 111.17660522460938 L 136.621826171875 101.17660522460938" fill-opacity="1" clip-path="url(#mUsxTtcATRVu)" stroke-opacity="0.7019607843137254" stroke-linejoin="bevel" stroke-miterlimit="10" stroke-width="2" stroke-dasharray=""/><path fill="rgb(152,223,138)" stroke="rgb(0,0,0)" paint-order="fill" d="M 178.0675048828125 199.34066772460938 L 188.0675048828125 199.34066772460938 L 188.0675048828125 209.34066772460938 L 178.0675048828125 209.34066772460938 L 178.0675048828125 199.34066772460938" fill-opacity="1" clip-path="url(#mUsxTtcATRVu)" stroke-opacity="0.7019607843137254" stroke-linejoin="bevel" stroke-miterlimit="10" stroke-width="2" stroke-dasharray=""/><path fill="rgb(148,103,189)" stroke="rgb(0,0,0)" paint-order="fill" d="M 208.80081176757812 199.93173217773438 L 218.80081176757812 199.93173217773438 L 218.80081176757812 209.93173217773438 L 208.80081176757812 209.93173217773438 L 208.80081176757812 199.93173217773438" fill-opacity="1" clip-path="url(#mUsxTtcATRVu)" stroke-opacity="0.7019607843137254" stroke-linejoin="bevel" stroke-miterlimit="10" stroke-width="2" stroke-dasharray=""/><path fill="rgb(255,127,14)" stroke="rgb(0,0,0)" paint-order="fill" d="M 135.89254760742188 101.7421646118164 L 145.89254760742188 101.7421646118164 L 145.89254760742188 111.7421646118164 L 135.89254760742188 111.7421646118164 L 135.89254760742188 101.7421646118164" fill-opacity="1" clip-path="url(#mUsxTtcATRVu)" stroke-opacity="0.7019607843137254" stroke-linejoin="bevel" stroke-miterlimit="10" stroke-width="2" stroke-dasharray=""/><path fill="rgb(152,223,138)" stroke="rgb(0,0,0)" paint-order="fill" d="M 173.37722778320312 207.2552947998047 L 183.37722778320312 207.2552947998047 L 183.37722778320312 217.2552947998047 L 173.37722778320312 217.2552947998047 L 173.37722778320312 207.2552947998047" fill-opacity="1" clip-path="url(#mUsxTtcATRVu)" stroke-opacity="0.7019607843137254" stroke-linejoin="bevel" stroke-miterlimit="10" stroke-width="2" stroke-dasharray=""/><path fill="rgb(148,103,189)" stroke="rgb(0,0,0)" paint-order="fill" d="M 213.1024932861328 213.60781860351562 L 223.1024932861328 213.60781860351562 L 223.1024932861328 223.60781860351562 L 213.1024932861328 223.60781860351562 L 213.1024932861328 213.60781860351562" fill-opacity="1" clip-path="url(#mUsxTtcATRVu)" stroke-opacity="0.7019607843137254" stroke-linejoin="bevel" stroke-miterlimit="10" stroke-width="2" stroke-dasharray=""/><path fill="rgb(255,127,14)" stroke="rgb(0,0,0)" paint-order="fill" d="M 136.1057586669922 192.96856689453125 L 146.1057586669922 192.96856689453125 L 146.1057586669922 202.96856689453125 L 136.1057586669922 202.96856689453125 L 136.1057586669922 192.96856689453125" fill-opacity="1" clip-path="url(#mUsxTtcATRVu)" stroke-opacity="0.7019607843137254" stroke-linejoin="bevel" stroke-miterlimit="10" stroke-width="2" stroke-dasharray=""/><path fill="rgb(152,223,138)" stroke="rgb(0,0,0)" paint-order="fill" d="M 171.85986328125 214.88916015625 L 181.85986328125 214.88916015625 L 181.85986328125 224.88916015625 L 171.85986328125 224.88916015625 L 171.85986328125 214.88916015625" fill-opacity="1" clip-path="url(#mUsxTtcATRVu)" stroke-opacity="0.7019607843137254" stroke-linejoin="bevel" stroke-miterlimit="10" stroke-width="2" stroke-dasharray=""/><path fill="rgb(148,103,189)" stroke="rgb(0,0,0)" paint-order="fill" d="M 214.03305053710938 244.29725646972656 L 224.03305053710938 244.29725646972656 L 224.03305053710938 254.29725646972656 L 214.03305053710938 254.29725646972656 L 214.03305053710938 244.29725646972656" fill-opacity="1" clip-path="url(#mUsxTtcATRVu)" stroke-opacity="0.7019607843137254" stroke-linejoin="bevel" stroke-miterlimit="10" stroke-width="2" stroke-dasharray=""/><path fill="rgb(255,187,120)" stroke="rgb(0,0,0)" paint-order="fill" d="M 247.7515411376953 95.08412170410156 L 257.7515411376953 95.08412170410156 L 257.7515411376953 105.08412170410156 L 247.7515411376953 105.08412170410156 L 247.7515411376953 95.08412170410156" fill-opacity="1" clip-path="url(#mUsxTtcATRVu)" stroke-opacity="0.7019607843137254" stroke-linejoin="bevel" stroke-miterlimit="10" stroke-width="2" stroke-dasharray=""/><path fill="rgb(214,39,40)" stroke="rgb(0,0,0)" paint-order="fill" d="M 280.21075439453125 120.72177124023438 L 290.21075439453125 120.72177124023438 L 290.21075439453125 130.72177124023438 L 280.21075439453125 130.72177124023438 L 280.21075439453125 120.72177124023438" fill-opacity="1" clip-path="url(#mUsxTtcATRVu)" stroke-opacity="0.7019607843137254" stroke-linejoin="bevel" stroke-miterlimit="10" stroke-width="2" stroke-dasharray=""/><path fill="rgb(255,152,150)" stroke="rgb(0,0,0)" paint-order="fill" d="M 310.849853515625 310.0746154785156 L 320.849853515625 310.0746154785156 L 320.849853515625 320.0746154785156 L 310.849853515625 320.0746154785156 L 310.849853515625 310.0746154785156" fill-opacity="1" clip-path="url(#mUsxTtcATRVu)" stroke-opacity="0.7019607843137254" stroke-linejoin="bevel" stroke-miterlimit="10" stroke-width="2" stroke-dasharray=""/><path fill="rgb(255,187,120)" stroke="rgb(0,0,0)" paint-order="fill" d="M 240.13038635253906 167.5395965576172 L 250.13038635253906 167.5395965576172 L 250.13038635253906 177.5395965576172 L 240.13038635253906 177.5395965576172 L 240.13038635253906 167.5395965576172" fill-opacity="1" clip-path="url(#mUsxTtcATRVu)" stroke-opacity="0.7019607843137254" stroke-linejoin="bevel" stroke-miterlimit="10" stroke-width="2" stroke-dasharray=""/><path fill="rgb(214,39,40)" stroke="rgb(0,0,0)" paint-order="fill" d="M 279.4757080078125 41.738094329833984 L 289.4757080078125 41.738094329833984 L 289.4757080078125 51.738094329833984 L 279.4757080078125 51.738094329833984 L 279.4757080078125 41.738094329833984" fill-opacity="1" clip-path="url(#mUsxTtcATRVu)" stroke-opacity="0.7019607843137254" stroke-linejoin="bevel" stroke-miterlimit="10" stroke-width="2" stroke-dasharray=""/><path fill="rgb(255,152,150)" stroke="rgb(0,0,0)" paint-order="fill" d="M 316.1627197265625 317.95062255859375 L 326.1627197265625 317.95062255859375 L 326.1627197265625 327.95062255859375 L 316.1627197265625 327.95062255859375 L 316.1627197265625 317.95062255859375" fill-opacity="1" clip-path="url(#mUsxTtcATRVu)" stroke-opacity="0.7019607843137254" stroke-linejoin="bevel" stroke-miterlimit="10" stroke-width="2" stroke-dasharray=""/><path fill="rgb(255,187,120)" stroke="rgb(0,0,0)" paint-order="fill" d="M 244.26197814941406 196.55014038085938 L 254.26197814941406 196.55014038085938 L 254.26197814941406 206.55014038085938 L 244.26197814941406 206.55014038085938 L 244.26197814941406 196.55014038085938" fill-opacity="1" clip-path="url(#mUsxTtcATRVu)" stroke-opacity="0.7019607843137254" stroke-linejoin="bevel" stroke-miterlimit="10" stroke-width="2" stroke-dasharray=""/><path fill="rgb(214,39,40)" stroke="rgb(0,0,0)" paint-order="fill" d="M 275.5871887207031 203.50917053222656 L 285.5871887207031 203.50917053222656 L 285.5871887207031 213.50917053222656 L 275.5871887207031 213.50917053222656 L 275.5871887207031 203.50917053222656" fill-opacity="1" clip-path="url(#mUsxTtcATRVu)" stroke-opacity="0.7019607843137254" stroke-linejoin="bevel" stroke-miterlimit="10" stroke-width="2" stroke-dasharray=""/><path fill="rgb(255,152,150)" stroke="rgb(0,0,0)" paint-order="fill" d="M 318.5018005371094 317.8405456542969 L 328.5018005371094 317.8405456542969 L 328.5018005371094 327.8405456542969 L 318.5018005371094 327.8405456542969 L 318.5018005371094 317.8405456542969" fill-opacity="1" clip-path="url(#mUsxTtcATRVu)" stroke-opacity="0.7019607843137254" stroke-linejoin="bevel" stroke-miterlimit="10" stroke-width="2" stroke-dasharray=""/><path fill="rgb(255,187,120)" stroke="rgb(0,0,0)" paint-order="fill" d="M 246.37660217285156 207.12252807617188 L 256.37660217285156 207.12252807617188 L 256.37660217285156 217.12252807617188 L 246.37660217285156 217.12252807617188 L 246.37660217285156 207.12252807617188" fill-opacity="1" clip-path="url(#mUsxTtcATRVu)" stroke-opacity="0.7019607843137254" stroke-linejoin="bevel" stroke-miterlimit="10" stroke-width="2" stroke-dasharray=""/><path fill="rgb(214,39,40)" stroke="rgb(0,0,0)" paint-order="fill" d="M 281.06536865234375 202.64784240722656 L 291.06536865234375 202.64784240722656 L 291.06536865234375 212.64784240722656 L 281.06536865234375 212.64784240722656 L 281.06536865234375 202.64784240722656" fill-opacity="1" clip-path="url(#mUsxTtcATRVu)" stroke-opacity="0.7019607843137254" stroke-linejoin="bevel" stroke-miterlimit="10" stroke-width="2" stroke-dasharray=""/><path fill="rgb(255,152,150)" stroke="rgb(0,0,0)" paint-order="fill" d="M 311.6496276855469 316.0501708984375 L 321.6496276855469 316.0501708984375 L 321.6496276855469 326.0501708984375 L 311.6496276855469 326.0501708984375 L 311.6496276855469 316.0501708984375" fill-opacity="1" clip-path="url(#mUsxTtcATRVu)" stroke-opacity="0.7019607843137254" stroke-linejoin="bevel" stroke-miterlimit="10" stroke-width="2" stroke-dasharray=""/><path fill="rgb(255,187,120)" stroke="rgb(0,0,0)" paint-order="fill" d="M 245.1291961669922 218.46273803710938 L 255.1291961669922 218.46273803710938 L 255.1291961669922 228.46273803710938 L 245.1291961669922 228.46273803710938 L 245.1291961669922 218.46273803710938" fill-opacity="1" clip-path="url(#mUsxTtcATRVu)" stroke-opacity="0.7019607843137254" stroke-linejoin="bevel" stroke-miterlimit="10" stroke-width="2" stroke-dasharray=""/><path fill="rgb(214,39,40)" stroke="rgb(0,0,0)" paint-order="fill" d="M 278.2001953125 195.72119140625 L 288.2001953125 195.72119140625 L 288.2001953125 205.72119140625 L 278.2001953125 205.72119140625 L 278.2001953125 195.72119140625" fill-opacity="1" clip-path="url(#mUsxTtcATRVu)" stroke-opacity="0.7019607843137254" stroke-linejoin="bevel" stroke-miterlimit="10" stroke-width="2" stroke-dasharray=""/><path fill="rgb(255,152,150)" stroke="rgb(0,0,0)" paint-order="fill" d="M 314.79595947265625 325.41217041015625 L 324.79595947265625 325.41217041015625 L 324.79595947265625 335.41217041015625 L 314.79595947265625 335.41217041015625 L 314.79595947265625 325.41217041015625" fill-opacity="1" clip-path="url(#mUsxTtcATRVu)" stroke-opacity="0.7019607843137254" stroke-linejoin="bevel" stroke-miterlimit="10" stroke-width="2" stroke-dasharray=""/><path fill="rgb(44,160,44)" stroke="rgb(0,0,0)" paint-order="fill" d="M 352.16217041015625 311.0399169921875 L 362.16217041015625 311.0399169921875 L 362.16217041015625 321.0399169921875 L 352.16217041015625 321.0399169921875 L 352.16217041015625 311.0399169921875" fill-opacity="1" clip-path="url(#mUsxTtcATRVu)" stroke-opacity="0.7019607843137254" stroke-linejoin="bevel" stroke-miterlimit="10" stroke-width="2" stroke-dasharray=""/><path fill="rgb(44,160,44)" stroke="rgb(0,0,0)" paint-order="fill" d="M 347.3540954589844 317.2046203613281 L 357.3540954589844 317.2046203613281 L 357.3540954589844 327.2046203613281 L 347.3540954589844 327.2046203613281 L 347.3540954589844 317.2046203613281" fill-opacity="1" clip-path="url(#mUsxTtcATRVu)" stroke-opacity="0.7019607843137254" stroke-linejoin="bevel" stroke-miterlimit="10" stroke-width="2" stroke-dasharray=""/><path fill="rgb(44,160,44)" stroke="rgb(0,0,0)" paint-order="fill" d="M 352.34454345703125 320.34075927734375 L 362.34454345703125 320.34075927734375 L 362.34454345703125 330.34075927734375 L 352.34454345703125 330.34075927734375 L 352.34454345703125 320.34075927734375" fill-opacity="1" clip-path="url(#mUsxTtcATRVu)" stroke-opacity="0.7019607843137254" stroke-linejoin="bevel" stroke-miterlimit="10" stroke-width="2" stroke-dasharray=""/><path fill="rgb(44,160,44)" stroke="rgb(0,0,0)" paint-order="fill" d="M 344.9226989746094 319.2049255371094 L 354.9226989746094 319.2049255371094 L 354.9226989746094 329.2049255371094 L 344.9226989746094 329.2049255371094 L 344.9226989746094 319.2049255371094" fill-opacity="1" clip-path="url(#mUsxTtcATRVu)" stroke-opacity="0.7019607843137254" stroke-linejoin="bevel" stroke-miterlimit="10" stroke-width="2" stroke-dasharray=""/><path fill="rgb(44,160,44)" stroke="rgb(0,0,0)" paint-order="fill" d="M 347.7252502441406 322.6678771972656 L 357.7252502441406 322.6678771972656 L 357.7252502441406 332.6678771972656 L 347.7252502441406 332.6678771972656 L 347.7252502441406 322.6678771972656" fill-opacity="1" clip-path="url(#mUsxTtcATRVu)" stroke-opacity="0.7019607843137254" stroke-linejoin="bevel" stroke-miterlimit="10" stroke-width="2" stroke-dasharray=""/><path fill="none" stroke="rgb(0,0,0)" paint-order="fill" d="M 59.5 351.5 L 370.5 351.5" stroke-opacity="1" stroke-linejoin="bevel" stroke-miterlimit="10" stroke-dasharray=""/><path fill="none" stroke="rgb(0,0,0)" paint-order="fill" d="M 76.5 357.5 L 76.5 349.5 M 111.5 357.5 L 111.5 349.5 M 145.5 357.5 L 145.5 349.5 M 180.5 357.5 L 180.5 349.5 M 215.5 357.5 L 215.5 349.5 M 249.5 357.5 L 249.5 349.5 M 284.5 357.5 L 284.5 349.5 M 318.5 357.5 L 318.5 349.5 M 353.5 357.5 L 353.5 349.5" stroke-opacity="1" stroke-linejoin="bevel" stroke-miterlimit="10" stroke-dasharray=""/><path fill="none" stroke="rgb(0,0,0)" paint-order="fill" d="" stroke-opacity="1" stroke-linejoin="bevel" stroke-miterlimit="10" stroke-dasharray=""/><text fill="rgb(68,68,68)" stroke="none" font-family="helvetica" font-size="12pt" font-style="normal" font-weight="normal" text-decoration="normal" x="51.41111183166504" y="367.83203125" text-anchor="start" dominant-baseline="alphabetic" transform="matrix(0.7071067811865476, -0.7071067811865475, 0.7071067811865475, 0.7071067811865476, -233.13141068397096, 160.46387973039882)" fill-opacity="1">WT</text><text fill="rgb(68,68,68)" stroke="none" font-family="helvetica" font-size="12pt" font-style="normal" font-weight="normal" text-decoration="normal" x="62.81666946411133" y="367.83203125" text-anchor="start" dominant-baseline="alphabetic" transform="matrix(0.7071067811865476, -0.7071067811865475, 0.7071067811865475, 0.7071067811865476, -223.01032229283987, 184.89834859024432)" fill-opacity="1">Abiotic</text><text fill="rgb(68,68,68)" stroke="none" font-family="helvetica" font-size="12pt" font-style="normal" font-weight="normal" text-decoration="normal" x="71.57221984863281" y="367.83203125" text-anchor="start" dominant-baseline="alphabetic" transform="matrix(0.7071067811865476, -0.7071067811865475, 0.7071067811865475, 0.7071067811865476, -212.88923613630675, 209.3328120552932)" fill-opacity="1">napA-tlKO</text><text fill="rgb(68,68,68)" stroke="none" font-family="helvetica" font-size="12pt" font-style="normal" font-weight="normal" text-decoration="normal" x="107.9111099243164" y="367.83203125" text-anchor="start" dominant-baseline="alphabetic" transform="matrix(0.7071067811865476, -0.7071067811865475, 0.7071067811865475, 0.7071067811865476, -202.76814774517567, 233.7672809151387)" fill-opacity="1">narG-tlKO</text><text fill="rgb(68,68,68)" stroke="none" font-family="helvetica" font-size="12pt" font-style="normal" font-weight="normal" text-decoration="normal" x="145.1500015258789" y="367.83203125" text-anchor="start" dominant-baseline="alphabetic" transform="matrix(0.7071067811865476, -0.7071067811865475, 0.7071067811865475, 0.7071067811865476, -192.6470593540446, 258.2017497749842)" fill-opacity="1">narZ-tlKO</text><text fill="rgb(68,68,68)" stroke="none" font-family="helvetica" font-size="12pt" font-style="normal" font-weight="normal" text-decoration="normal" x="142.3388900756836" y="367.83203125" text-anchor="start" dominant-baseline="alphabetic" transform="matrix(0.7071067811865476, -0.7071067811865475, 0.7071067811865475, 0.7071067811865476, -182.52597096291356, 282.6362186348297)" fill-opacity="1">napAnarZ-tlKO</text><text fill="rgb(68,68,68)" stroke="none" font-family="helvetica" font-size="12pt" font-style="normal" font-weight="normal" text-decoration="normal" x="174.21111297607422" y="367.83203125" text-anchor="start" dominant-baseline="alphabetic" transform="matrix(0.7071067811865476, -0.7071067811865475, 0.7071067811865475, 0.7071067811865476, -172.40488257178254, 307.0706874946752)" fill-opacity="1">narGnapA-tlKO</text><text fill="rgb(68,68,68)" stroke="none" font-family="helvetica" font-size="12pt" font-style="normal" font-weight="normal" text-decoration="normal" x="213.2333221435547" y="367.83203125" text-anchor="start" dominant-baseline="alphabetic" transform="matrix(0.7071067811865476, -0.7071067811865475, 0.7071067811865475, 0.7071067811865476, -162.2837986498473, 331.5051455649275)" fill-opacity="1">narGnarZ-tlKO</text><text fill="rgb(68,68,68)" stroke="none" font-family="helvetica" font-size="12pt" font-style="normal" font-weight="normal" text-decoration="normal" x="210.42222595214844" y="367.83203125" text-anchor="start" dominant-baseline="alphabetic" transform="matrix(0.7071067811865476, -0.7071067811865475, 0.7071067811865475, 0.7071067811865476, -152.16270578952037, 355.9396252143662)" fill-opacity="1">napAnarZnarG-tlKO</text><text fill="rgb(128,128,128)" stroke="none" font-family="helvetica" font-size="11px" font-style="normal" font-weight="bold" text-decoration="normal" x="188.52499961853027" y="494.4604507775341" text-anchor="start" dominant-baseline="alphabetic" transform="matrix(1, 0, 0, 1, 0.5, 0.5)" fill-opacity="1">PCA, NO3</text><path fill="none" stroke="rgb(0,0,0)" paint-order="fill" d="M 59.5 351.5 L 59.5 31.5" stroke-opacity="1" stroke-linejoin="bevel" stroke-miterlimit="10" stroke-dasharray=""/><path fill="none" stroke="rgb(0,0,0)" paint-order="fill" d="M 53.5 323.5 L 61.5 323.5 M 53.5 279.5 L 61.5 279.5 M 53.5 235.5 L 61.5 235.5 M 53.5 191.5 L 61.5 191.5 M 53.5 146.5 L 61.5 146.5 M 53.5 102.5 L 61.5 102.5 M 53.5 58.5 L 61.5 58.5" stroke-opacity="1" stroke-linejoin="bevel" stroke-miterlimit="10" stroke-dasharray=""/><path fill="none" stroke="rgb(0,0,0)" paint-order="fill" d="M 55.5 332.5 L 59.5 332.5 M 55.5 341.5 L 59.5 341.5 M 55.5 350.5 L 59.5 350.5 M 55.5 323.5 L 59.5 323.5 M 55.5 314.5 L 59.5 314.5 M 55.5 306.5 L 59.5 306.5 M 55.5 297.5 L 59.5 297.5 M 55.5 288.5 L 59.5 288.5 M 55.5 279.5 L 59.5 279.5 M 55.5 270.5 L 59.5 270.5 M 55.5 261.5 L 59.5 261.5 M 55.5 253.5 L 59.5 253.5 M 55.5 244.5 L 59.5 244.5 M 55.5 235.5 L 59.5 235.5 M 55.5 226.5 L 59.5 226.5 M 55.5 217.5 L 59.5 217.5 M 55.5 208.5 L 59.5 208.5 M 55.5 200.5 L 59.5 200.5 M 55.5 191.5 L 59.5 191.5 M 55.5 182.5 L 59.5 182.5 M 55.5 173.5 L 59.5 173.5 M 55.5 164.5 L 59.5 164.5 M 55.5 155.5 L 59.5 155.5 M 55.5 146.5 L 59.5 146.5 M 55.5 138.5 L 59.5 138.5 M 55.5 129.5 L 59.5 129.5 M 55.5 120.5 L 59.5 120.5 M 55.5 111.5 L 59.5 111.5 M 55.5 102.5 L 59.5 102.5 M 55.5 93.5 L 59.5 93.5 M 55.5 85.5 L 59.5 85.5 M 55.5 76.5 L 59.5 76.5 M 55.5 67.5 L 59.5 67.5 M 55.5 58.5 L 59.5 58.5 M 55.5 49.5 L 59.5 49.5 M 55.5 40.5 L 59.5 40.5 M 55.5 31.5 L 59.5 31.5" stroke-opacity="1" stroke-linejoin="bevel" stroke-miterlimit="10" stroke-dasharray=""/><text fill="rgb(68,68,68)" stroke="none" font-family="helvetica" font-size="12pt" font-style="normal" font-weight="normal" text-decoration="normal" x="39.10000038146973" y="329.03265380859375" text-anchor="start" dominant-baseline="alphabetic" transform="matrix(1, 0, 0, 1, 0.5, 0.5)" fill-opacity="1">0</text><text fill="rgb(68,68,68)" stroke="none" font-family="helvetica" font-size="12pt" font-style="normal" font-weight="normal" text-decoration="normal" x="30.200000762939453" y="284.8204040527344" text-anchor="start" dominant-baseline="alphabetic" transform="matrix(1, 0, 0, 1, 0.5, 0.5)" fill-opacity="1">10</text><text fill="rgb(68,68,68)" stroke="none" font-family="helvetica" font-size="12pt" font-style="normal" font-weight="normal" text-decoration="normal" x="30.200000762939453" y="240.60818481445312" text-anchor="start" dominant-baseline="alphabetic" transform="matrix(1, 0, 0, 1, 0.5, 0.5)" fill-opacity="1">20</text><text fill="rgb(68,68,68)" stroke="none" font-family="helvetica" font-size="12pt" font-style="normal" font-weight="normal" text-decoration="normal" x="30.200000762939453" y="196.3959503173828" text-anchor="start" dominant-baseline="alphabetic" transform="matrix(1, 0, 0, 1, 0.5, 0.5)" fill-opacity="1">30</text><text fill="rgb(68,68,68)" stroke="none" font-family="helvetica" font-size="12pt" font-style="normal" font-weight="normal" text-decoration="normal" x="30.200000762939453" y="152.1837158203125" text-anchor="start" dominant-baseline="alphabetic" transform="matrix(1, 0, 0, 1, 0.5, 0.5)" fill-opacity="1">40</text><text fill="rgb(68,68,68)" stroke="none" font-family="helvetica" font-size="12pt" font-style="normal" font-weight="normal" text-decoration="normal" x="30.200000762939453" y="107.97148132324219" text-anchor="start" dominant-baseline="alphabetic" transform="matrix(1, 0, 0, 1, 0.5, 0.5)" fill-opacity="1">50</text><text fill="rgb(68,68,68)" stroke="none" font-family="helvetica" font-size="12pt" font-style="normal" font-weight="normal" text-decoration="normal" x="30.200000762939453" y="63.75924301147461" text-anchor="start" dominant-baseline="alphabetic" transform="matrix(1, 0, 0, 1, 0.5, 0.5)" fill-opacity="1">60</text><text fill="rgb(68,68,68)" stroke="none" font-family="helvetica" font-size="12pt" font-style="italic" font-weight="normal" text-decoration="normal" x="-121.15000534057617" y="187.4609375" text-anchor="start" dominant-baseline="alphabetic" transform="matrix(6.123233995736766e-17, -1, 1, 6.123233995736766e-17, -168.29999923706055, 213.70000076293945)" fill-opacity="1">Maximum PCAred oxidation rate (µM/hr)</text><path fill="none" stroke="none"/><text fill="rgb(68,68,68)" stroke="none" font-family="helvetica" font-size="12pt" font-style="normal" font-weight="bold" text-decoration="normal" x="0" y="0" text-anchor="start" dominant-baseline="text-after-edge" transform="matrix(1, 0, 0, 1, 59.5, 26.5)" fill-opacity="1">Shaking pregrowth; all nitrate reductase tlKOs</text></svg>