<svg version="1.1" xmlns="http://www.w3.org/2000/svg" xmlns:xlink="http://www.w3.org/1999/xlink" width="250" height="300"><defs><clipPath id="pSMyIEoHTXAs"><path fill="none" stroke="none" d="M 59.5 31.5 L 220.5 31.5 L 220.5 197.5 L 59.5 197.5 L 59.5 31.5"/></clipPath><clipPath id="ygTGAhqdGTGz"><path fill="none" stroke="none" d="M 59.5 31.5 L 220.5 31.5 L 220.5 197.5 L 59.5 197.5 L 59.5 31.5"/></clipPath><clipPath id="ncWKDDUivatf"><path fill="none" stroke="none" d="M 59.5 31.5 L 220.5 31.5 L 220.5 197.5 L 59.5 197.5 L 59.5 31.5"/></clipPath><clipPath id="UpZLtAStTOGZ"><path fill="none" stroke="none" d="M 59.5 31.5 L 220.5 31.5 L 220.5 197.5 L 59.5 197.5 L 59.5 31.5"/></clipPath><clipPath id="JeCLmxxsdzkC"><path fill="none" stroke="none" d="M 59.5 31.5 L 220.5 31.5 L 220.5 197.5 L 59.5 197.5 L 59.5 31.5"/></clipPath></defs><path fill="rgb(255,255,255)" stroke="none" paint-order="stroke" d="M 0.5 0.5 L 250.5 0.5 L 250.5 300.5 L 0.5 300.5 L 0.5 0.5" fill-opacity="1"/><rect fill="#FFFFFF" stroke="none" x="59" y="31" width="161" height="166" transform="matrix(1, 0, 0, 1, 0.5, 0.5)"/><path fill="rgb(255,255,255)" stroke="none" paint-order="stroke" d="M 59.5 31.5 L 220.5 31.5 L 220.5 197.5 L 59.5 197.5 L 59.5 31.5" fill-opacity="1"/><path fill="none" stroke="rgb(229,229,229)" paint-order="fill" d="M 59.5 31.5 L 220.5 31.5 L 220.5 197.5 L 59.5 197.5 L 59.5 31.5" stroke-opacity="1" stroke-linejoin="bevel" stroke-miterlimit="10" stroke-dasharray=""/><path fill="none" stroke="rgb(229,229,229)" paint-order="fill" d="M 59.5 183.5 L 220.5 183.5 M 59.5 155.5 L 220.5 155.5 M 59.5 128.5 L 220.5 128.5 M 59.5 101.5 L 220.5 101.5 M 59.5 73.5 L 220.5 73.5 M 59.5 46.5 L 220.5 46.5" stroke-opacity="1" stroke-linejoin="bevel" stroke-miterlimit="10" stroke-dasharray="" clip-path="url(#ygTGAhqdGTGz)"/><path fill="none" stroke="none"/><path fill="rgb(174,199,232)" stroke="rgb(0,0,0)" paint-order="fill" d="M 85.33123016357422 46.517723083496094 A 5 5 0 1 1 85.33122766357442 46.51272308432942" fill-opacity="1" clip-path="url(#ncWKDDUivatf)" stroke-opacity="0.7019607843137254" stroke-linejoin="bevel" stroke-miterlimit="10" stroke-width="2" stroke-dasharray=""/><path fill="rgb(174,199,232)" stroke="rgb(0,0,0)" paint-order="fill" d="M 88.56536865234375 87.94358825683594 A 5 5 0 1 1 88.56536615234396 87.93858825766927" fill-opacity="1" clip-path="url(#ncWKDDUivatf)" stroke-opacity="0.7019607843137254" stroke-linejoin="bevel" stroke-miterlimit="10" stroke-width="2" stroke-dasharray=""/><path fill="rgb(174,199,232)" stroke="rgb(0,0,0)" paint-order="fill" d="M 94.48804473876953 87.78366088867188 A 5 5 0 1 1 94.48804223876974 87.7786608895052" fill-opacity="1" clip-path="url(#ncWKDDUivatf)" stroke-opacity="0.7019607843137254" stroke-linejoin="bevel" stroke-miterlimit="10" stroke-width="2" stroke-dasharray=""/><path fill="rgb(174,199,232)" stroke="rgb(0,0,0)" paint-order="fill" d="M 83.32941436767578 45.47699737548828 A 5 5 0 1 1 83.32941186767599 45.47199737632161" fill-opacity="1" clip-path="url(#ncWKDDUivatf)" stroke-opacity="0.7019607843137254" stroke-linejoin="bevel" stroke-miterlimit="10" stroke-width="2" stroke-dasharray=""/><path fill="rgb(174,199,232)" stroke="rgb(0,0,0)" paint-order="fill" d="M 87.16801452636719 43.86080551147461 A 5 5 0 1 1 87.16801202636739 43.85580551230794" fill-opacity="1" clip-path="url(#ncWKDDUivatf)" stroke-opacity="0.7019607843137254" stroke-linejoin="bevel" stroke-miterlimit="10" stroke-width="2" stroke-dasharray=""/><path fill="rgb(174,199,232)" stroke="rgb(0,0,0)" paint-order="fill" d="M 85.21173858642578 43.8236083984375 A 5 5 0 1 1 85.21173608642599 43.81860839927083" fill-opacity="1" clip-path="url(#ncWKDDUivatf)" stroke-opacity="0.7019607843137254" stroke-linejoin="bevel" stroke-miterlimit="10" stroke-width="2" stroke-dasharray=""/><path fill="rgb(174,199,232)" stroke="rgb(0,0,0)" paint-order="fill" d="M 99.29388427734375 53.885963439941406 A 5 5 0 1 1 99.29388177734396 53.880963440774735" fill-opacity="1" clip-path="url(#ncWKDDUivatf)" stroke-opacity="0.7019607843137254" stroke-linejoin="bevel" stroke-miterlimit="10" stroke-width="2" stroke-dasharray=""/><path fill="rgb(174,199,232)" stroke="rgb(0,0,0)" paint-order="fill" d="M 86.20669555664062 69.22608947753906 A 5 5 0 1 1 86.20669305664083 69.22108947837239" fill-opacity="1" clip-path="url(#ncWKDDUivatf)" stroke-opacity="0.7019607843137254" stroke-linejoin="bevel" stroke-miterlimit="10" stroke-width="2" stroke-dasharray=""/><path fill="rgb(174,199,232)" stroke="rgb(0,0,0)" paint-order="fill" d="M 85.92757415771484 39.404762268066406 A 5 5 0 1 1 85.92757165771505 39.399762268899735" fill-opacity="1" clip-path="url(#ncWKDDUivatf)" stroke-opacity="0.7019607843137254" stroke-linejoin="bevel" stroke-miterlimit="10" stroke-width="2" stroke-dasharray=""/><path fill="rgb(255,127,14)" stroke="rgb(0,0,0)" paint-order="fill" d="M 194.6122589111328 173.7279815673828 A 5 5 0 1 1 194.61225641113302 173.72298156821614" fill-opacity="1" clip-path="url(#ncWKDDUivatf)" stroke-opacity="0.7019607843137254" stroke-linejoin="bevel" stroke-miterlimit="10" stroke-width="2" stroke-dasharray=""/><path fill="rgb(255,127,14)" stroke="rgb(0,0,0)" paint-order="fill" d="M 199.24159240722656 172.9651641845703 A 5 5 0 1 1 199.24158990722677 172.96016418540364" fill-opacity="1" clip-path="url(#ncWKDDUivatf)" stroke-opacity="0.7019607843137254" stroke-linejoin="bevel" stroke-miterlimit="10" stroke-width="2" stroke-dasharray=""/><path fill="rgb(255,127,14)" stroke="rgb(0,0,0)" paint-order="fill" d="M 204.15187072753906 175.34719848632812 A 5 5 0 1 1 204.15186822753927 175.34219848716145" fill-opacity="1" clip-path="url(#ncWKDDUivatf)" stroke-opacity="0.7019607843137254" stroke-linejoin="bevel" stroke-miterlimit="10" stroke-width="2" stroke-dasharray=""/><path fill="rgb(255,127,14)" stroke="rgb(0,0,0)" paint-order="fill" d="M 196.2100830078125 167.43136596679688 A 5 5 0 1 1 196.2100805078127 167.4263659676302" fill-opacity="1" clip-path="url(#ncWKDDUivatf)" stroke-opacity="0.7019607843137254" stroke-linejoin="bevel" stroke-miterlimit="10" stroke-width="2" stroke-dasharray=""/><path fill="rgb(255,127,14)" stroke="rgb(0,0,0)" paint-order="fill" d="M 198.37380981445312 173.47869873046875 A 5 5 0 1 1 198.37380731445333 173.47369873130208" fill-opacity="1" clip-path="url(#ncWKDDUivatf)" stroke-opacity="0.7019607843137254" stroke-linejoin="bevel" stroke-miterlimit="10" stroke-width="2" stroke-dasharray=""/><path fill="rgb(255,127,14)" stroke="rgb(0,0,0)" paint-order="fill" d="M 196.0383758544922 166.6498565673828 A 5 5 0 1 1 196.0383733544924 166.64485656821614" fill-opacity="1" clip-path="url(#ncWKDDUivatf)" stroke-opacity="0.7019607843137254" stroke-linejoin="bevel" stroke-miterlimit="10" stroke-width="2" stroke-dasharray=""/><path fill="rgb(255,127,14)" stroke="rgb(0,0,0)" paint-order="fill" d="M 198.1983184814453 130.7629852294922 A 5 5 0 1 1 198.19831598144552 130.75798523032552" fill-opacity="1" clip-path="url(#ncWKDDUivatf)" stroke-opacity="0.7019607843137254" stroke-linejoin="bevel" stroke-miterlimit="10" stroke-width="2" stroke-dasharray=""/><path fill="rgb(255,127,14)" stroke="rgb(0,0,0)" paint-order="fill" d="M 196.46438598632812 127.70600891113281 A 5 5 0 1 1 196.46438348632833 127.70100891196614" fill-opacity="1" clip-path="url(#ncWKDDUivatf)" stroke-opacity="0.7019607843137254" stroke-linejoin="bevel" stroke-miterlimit="10" stroke-width="2" stroke-dasharray=""/><path fill="rgb(255,127,14)" stroke="rgb(0,0,0)" paint-order="fill" d="M 197.11627197265625 137.8881378173828 A 5 5 0 1 1 197.11626947265646 137.88313781821614" fill-opacity="1" clip-path="url(#ncWKDDUivatf)" stroke-opacity="0.7019607843137254" stroke-linejoin="bevel" stroke-miterlimit="10" stroke-width="2" stroke-dasharray=""/><path fill="none" stroke="none"/><path fill="rgb(31,119,180)" stroke="rgb(0,0,0)" paint-order="fill" d="M 136.9928436279297 171.295166015625 L 146.9928436279297 171.295166015625 L 146.9928436279297 181.295166015625 L 136.9928436279297 181.295166015625 L 136.9928436279297 171.295166015625" fill-opacity="1" clip-path="url(#UpZLtAStTOGZ)" stroke-opacity="0.7019607843137254" stroke-linejoin="bevel" stroke-miterlimit="10" stroke-width="2" stroke-dasharray=""/><path fill="rgb(31,119,180)" stroke="rgb(0,0,0)" paint-order="fill" d="M 130.50624084472656 151.0073699951172 L 140.50624084472656 151.0073699951172 L 140.50624084472656 161.0073699951172 L 130.50624084472656 161.0073699951172 L 130.50624084472656 151.0073699951172" fill-opacity="1" clip-path="url(#UpZLtAStTOGZ)" stroke-opacity="0.7019607843137254" stroke-linejoin="bevel" stroke-miterlimit="10" stroke-width="2" stroke-dasharray=""/><path fill="rgb(31,119,180)" stroke="rgb(0,0,0)" paint-order="fill" d="M 134.65399169921875 158.5452423095703 L 144.65399169921875 158.5452423095703 L 144.65399169921875 168.5452423095703 L 134.65399169921875 168.5452423095703 L 134.65399169921875 158.5452423095703" fill-opacity="1" clip-path="url(#UpZLtAStTOGZ)" stroke-opacity="0.7019607843137254" stroke-linejoin="bevel" stroke-miterlimit="10" stroke-width="2" stroke-dasharray=""/><path fill="rgb(31,119,180)" stroke="rgb(0,0,0)" paint-order="fill" d="M 130.32310485839844 146.0105743408203 L 140.32310485839844 146.0105743408203 L 140.32310485839844 156.0105743408203 L 130.32310485839844 156.0105743408203 L 130.32310485839844 146.0105743408203" fill-opacity="1" clip-path="url(#UpZLtAStTOGZ)" stroke-opacity="0.7019607843137254" stroke-linejoin="bevel" stroke-miterlimit="10" stroke-width="2" stroke-dasharray=""/><path fill="rgb(31,119,180)" stroke="rgb(0,0,0)" paint-order="fill" d="M 133.9473876953125 165.20382690429688 L 143.9473876953125 165.20382690429688 L 143.9473876953125 175.20382690429688 L 133.9473876953125 175.20382690429688 L 133.9473876953125 165.20382690429688" fill-opacity="1" clip-path="url(#UpZLtAStTOGZ)" stroke-opacity="0.7019607843137254" stroke-linejoin="bevel" stroke-miterlimit="10" stroke-width="2" stroke-dasharray=""/><path fill="none" stroke="rgb(0,0,0)" paint-order="fill" d="M 59.5 197.5 L 220.5 197.5" stroke-opacity="1" stroke-linejoin="bevel" stroke-miterlimit="10" stroke-dasharray=""/><path fill="none" stroke="rgb(0,0,0)" paint-order="fill" d="M 86.5 203.5 L 86.5 195.5 M 140.5 203.5 L 140.5 195.5 M 193.5 203.5 L 193.5 195.5" stroke-opacity="1" stroke-linejoin="bevel" stroke-miterlimit="10" stroke-dasharray=""/><path fill="none" stroke="rgb(0,0,0)" paint-order="fill" d="" stroke-opacity="1" stroke-linejoin="bevel" stroke-miterlimit="10" stroke-dasharray=""/><text fill="rgb(68,68,68)" stroke="none" font-family="helvetica" font-size="12pt" font-style="normal" font-weight="normal" text-decoration="normal" x="60.9666690826416" y="213.83203125" text-anchor="start" dominant-baseline="alphabetic" transform="matrix(0.7071067811865476, -0.7071067811865475, 0.7071067811865475, 0.7071067811865476, -121.4382084604479, 122.11512336330895)" fill-opacity="1">WT</text><text fill="rgb(68,68,68)" stroke="none" font-family="helvetica" font-size="12pt" font-style="normal" font-weight="normal" text-decoration="normal" x="91.48333358764648" y="213.83203125" text-anchor="start" dominant-baseline="alphabetic" transform="matrix(0.7071067811865476, -0.7071067811865475, 0.7071067811865475, 0.7071067811865476, -105.71960646232526, 160.06318548872144)" fill-opacity="1">Abiotic</text><text fill="rgb(68,68,68)" stroke="none" font-family="helvetica" font-size="12pt" font-style="normal" font-weight="normal" text-decoration="normal" x="115.8166732788086" y="213.83203125" text-anchor="start" dominant-baseline="alphabetic" transform="matrix(0.7071067811865476, -0.7071067811865475, 0.7071067811865475, 0.7071067811865476, -90.0010022296047, 198.0112530089306)" fill-opacity="1">dmsA-tlKO</text><text fill="rgb(128,128,128)" stroke="none" font-family="helvetica" font-size="11px" font-style="normal" font-weight="bold" text-decoration="normal" x="108.33333396911621" y="294.53386210258986" text-anchor="start" dominant-baseline="alphabetic" transform="matrix(1, 0, 0, 1, 0.5, 0.5)" fill-opacity="1">PCA, DMSO</text><path fill="none" stroke="rgb(0,0,0)" paint-order="fill" d="M 59.5 197.5 L 59.5 31.5" stroke-opacity="1" stroke-linejoin="bevel" stroke-miterlimit="10" stroke-dasharray=""/><path fill="none" stroke="rgb(0,0,0)" paint-order="fill" d="M 53.5 183.5 L 61.5 183.5 M 53.5 155.5 L 61.5 155.5 M 53.5 128.5 L 61.5 128.5 M 53.5 101.5 L 61.5 101.5 M 53.5 73.5 L 61.5 73.5 M 53.5 46.5 L 61.5 46.5" stroke-opacity="1" stroke-linejoin="bevel" stroke-miterlimit="10" stroke-dasharray=""/><path fill="none" stroke="rgb(0,0,0)" paint-order="fill" d="M 55.5 188.5 L 59.5 188.5 M 55.5 194.5 L 59.5 194.5 M 55.5 183.5 L 59.5 183.5 M 55.5 177.5 L 59.5 177.5 M 55.5 172.5 L 59.5 172.5 M 55.5 166.5 L 59.5 166.5 M 55.5 161.5 L 59.5 161.5 M 55.5 155.5 L 59.5 155.5 M 55.5 150.5 L 59.5 150.5 M 55.5 144.5 L 59.5 144.5 M 55.5 139.5 L 59.5 139.5 M 55.5 134.5 L 59.5 134.5 M 55.5 128.5 L 59.5 128.5 M 55.5 123.5 L 59.5 123.5 M 55.5 117.5 L 59.5 117.5 M 55.5 112.5 L 59.5 112.5 M 55.5 106.5 L 59.5 106.5 M 55.5 101.5 L 59.5 101.5 M 55.5 95.5 L 59.5 95.5 M 55.5 90.5 L 59.5 90.5 M 55.5 84.5 L 59.5 84.5 M 55.5 79.5 L 59.5 79.5 M 55.5 73.5 L 59.5 73.5 M 55.5 68.5 L 59.5 68.5 M 55.5 63.5 L 59.5 63.5 M 55.5 57.5 L 59.5 57.5 M 55.5 52.5 L 59.5 52.5 M 55.5 46.5 L 59.5 46.5 M 55.5 41.5 L 59.5 41.5 M 55.5 35.5 L 59.5 35.5" stroke-opacity="1" stroke-linejoin="bevel" stroke-miterlimit="10" stroke-dasharray=""/><text fill="rgb(68,68,68)" stroke="none" font-family="helvetica" font-size="12pt" font-style="normal" font-weight="normal" text-decoration="normal" x="39.10000038146973" y="188.36598205566406" text-anchor="start" dominant-baseline="alphabetic" transform="matrix(1, 0, 0, 1, 0.5, 0.5)" fill-opacity="1">0</text><text fill="rgb(68,68,68)" stroke="none" font-family="helvetica" font-size="12pt" font-style="normal" font-weight="normal" text-decoration="normal" x="39.10000038146973" y="161.08023071289062" text-anchor="start" dominant-baseline="alphabetic" transform="matrix(1, 0, 0, 1, 0.5, 0.5)" fill-opacity="1">2</text><text fill="rgb(68,68,68)" stroke="none" font-family="helvetica" font-size="12pt" font-style="normal" font-weight="normal" text-decoration="normal" x="39.10000038146973" y="133.7944793701172" text-anchor="start" dominant-baseline="alphabetic" transform="matrix(1, 0, 0, 1, 0.5, 0.5)" fill-opacity="1">4</text><text fill="rgb(68,68,68)" stroke="none" font-family="helvetica" font-size="12pt" font-style="normal" font-weight="normal" text-decoration="normal" x="39.10000038146973" y="106.50873565673828" text-anchor="start" dominant-baseline="alphabetic" transform="matrix(1, 0, 0, 1, 0.5, 0.5)" fill-opacity="1">6</text><text fill="rgb(68,68,68)" stroke="none" font-family="helvetica" font-size="12pt" font-style="normal" font-weight="normal" text-decoration="normal" x="39.10000038146973" y="79.22298431396484" text-anchor="start" dominant-baseline="alphabetic" transform="matrix(1, 0, 0, 1, 0.5, 0.5)" fill-opacity="1">8</text><text fill="rgb(68,68,68)" stroke="none" font-family="helvetica" font-size="12pt" font-style="normal" font-weight="normal" text-decoration="normal" x="30.200000762939453" y="51.93722915649414" text-anchor="start" dominant-baseline="alphabetic" transform="matrix(1, 0, 0, 1, 0.5, 0.5)" fill-opacity="1">10</text><text fill="rgb(68,68,68)" stroke="none" font-family="helvetica" font-size="12pt" font-style="italic" font-weight="normal" text-decoration="normal" x="-121.15000534057617" y="110.4609375" text-anchor="start" dominant-baseline="alphabetic" transform="matrix(6.123233995736766e-17, -1, 1, 6.123233995736766e-17, -91.29999923706055, 136.70000076293945)" fill-opacity="1">Maximum PCAred oxidation rate (µM/hr)</text><path fill="none" stroke="none"/><text fill="rgb(68,68,68)" stroke="none" font-family="helvetica" font-size="12pt" font-style="normal" font-weight="bold" text-decoration="normal" x="0" y="0" text-anchor="start" dominant-baseline="text-after-edge" transform="matrix(1, 0, 0, 1, 59.5, 26.5)" fill-opacity="1">DMSO</text></svg>