<svg version="1.1" xmlns="http://www.w3.org/2000/svg" xmlns:xlink="http://www.w3.org/1999/xlink" width="600" height="400"><defs><clipPath id="rClVEVGrhVTa"><path fill="none" stroke="none" d="M 65.5 34.5 L 316.5 34.5 L 316.5 343.5 L 65.5 343.5 L 65.5 34.5"/></clipPath><clipPath id="lyFHVocEzApD"><path fill="none" stroke="none" d="M 65.5 34.5 L 316.5 34.5 L 316.5 343.5 L 65.5 343.5 L 65.5 34.5"/></clipPath><clipPath id="mkuIRWZEdVZU"><path fill="none" stroke="none" d="M 65.5 34.5 L 316.5 34.5 L 316.5 343.5 L 65.5 343.5 L 65.5 34.5"/></clipPath><clipPath id="hRlctWIsCAVJ"><path fill="none" stroke="none" d="M 65.5 34.5 L 316.5 34.5 L 316.5 343.5 L 65.5 343.5 L 65.5 34.5"/></clipPath><clipPath id="HiSJfAGcuIwK"><path fill="none" stroke="none" d="M 65.5 34.5 L 316.5 34.5 L 316.5 343.5 L 65.5 343.5 L 65.5 34.5"/></clipPath><clipPath id="EUcSFOddlReG"><path fill="none" stroke="none" d="M 65.5 34.5 L 316.5 34.5 L 316.5 343.5 L 65.5 343.5 L 65.5 34.5"/></clipPath><clipPath id="VDucmlmwCNFn"><path fill="none" stroke="none" d="M 65.5 34.5 L 316.5 34.5 L 316.5 343.5 L 65.5 343.5 L 65.5 34.5"/></clipPath><clipPath id="HButSvocTGuT"><path fill="none" stroke="none" d="M 65.5 34.5 L 316.5 34.5 L 316.5 343.5 L 65.5 343.5 L 65.5 34.5"/></clipPath><clipPath id="FgSdOgMpvqac"><path fill="none" stroke="none" d="M 65.5 34.5 L 316.5 34.5 L 316.5 343.5 L 65.5 343.5 L 65.5 34.5"/></clipPath><clipPath id="ZOgQxNmbVcIk"><path fill="none" stroke="none" d="M 65.5 34.5 L 316.5 34.5 L 316.5 343.5 L 65.5 343.5 L 65.5 34.5"/></clipPath><clipPath id="KWefdUhvUTcO"><path fill="none" stroke="none" d="M 65.5 34.5 L 316.5 34.5 L 316.5 343.5 L 65.5 343.5 L 65.5 34.5"/></clipPath><clipPath id="WTBMRnfydXfi"><path fill="none" stroke="none" d="M 65.5 34.5 L 316.5 34.5 L 316.5 343.5 L 65.5 343.5 L 65.5 34.5"/></clipPath><clipPath id="QPHovoSBnAcr"><path fill="none" stroke="none" d="M 65.5 34.5 L 316.5 34.5 L 316.5 343.5 L 65.5 343.5 L 65.5 34.5"/></clipPath><clipPath id="qGsbCaUbTzVq"><path fill="none" stroke="none" d="M 65.5 34.5 L 316.5 34.5 L 316.5 343.5 L 65.5 343.5 L 65.5 34.5"/></clipPath><clipPath id="fIKwMmONwPLk"><path fill="none" stroke="none" d="M 65.5 34.5 L 316.5 34.5 L 316.5 343.5 L 65.5 343.5 L 65.5 34.5"/></clipPath><clipPath id="CAiRkBwsOzHF"><path fill="none" stroke="none" d="M 65.5 34.5 L 316.5 34.5 L 316.5 343.5 L 65.5 343.5 L 65.5 34.5"/></clipPath><clipPath id="aTcMUehQMDyT"><path fill="none" stroke="none" d="M 65.5 34.5 L 316.5 34.5 L 316.5 343.5 L 65.5 343.5 L 65.5 34.5"/></clipPath><clipPath id="zHETMpKPqftX"><path fill="none" stroke="none" d="M 65.5 34.5 L 316.5 34.5 L 316.5 343.5 L 65.5 343.5 L 65.5 34.5"/></clipPath><clipPath id="eAGSUmHEFDbX"><path fill="none" stroke="none" d="M 65.5 34.5 L 316.5 34.5 L 316.5 343.5 L 65.5 343.5 L 65.5 34.5"/></clipPath><clipPath id="xMMeWPpFTMzD"><path fill="none" stroke="none" d="M 65.5 34.5 L 316.5 34.5 L 316.5 343.5 L 65.5 343.5 L 65.5 34.5"/></clipPath><clipPath id="AnViUxLAuwCd"><path fill="none" stroke="none" d="M 65.5 34.5 L 316.5 34.5 L 316.5 343.5 L 65.5 343.5 L 65.5 34.5"/></clipPath></defs><path fill="rgb(255,255,255)" stroke="none" paint-order="stroke" d="M 0.5 0.5 L 600.5 0.5 L 600.5 400.5 L 0.5 400.5 L 0.5 0.5" fill-opacity="1"/><rect fill="#FFFFFF" stroke="none" x="65" y="34" width="251" height="309" transform="matrix(1, 0, 0, 1, 0.5, 0.5)"/><path fill="rgb(255,255,255)" stroke="none" paint-order="stroke" d="M 65.5 34.5 L 316.5 34.5 L 316.5 343.5 L 65.5 343.5 L 65.5 34.5" fill-opacity="1"/><path fill="none" stroke="rgb(229,229,229)" paint-order="fill" d="M 65.5 34.5 L 316.5 34.5 L 316.5 343.5 L 65.5 343.5 L 65.5 34.5" stroke-opacity="1" stroke-linejoin="bevel" stroke-miterlimit="10" stroke-dasharray=""/><path fill="none" stroke="rgb(229,229,229)" paint-order="fill" d="M 76.5 343.5 L 76.5 34.5 M 119.5 343.5 L 119.5 34.5 M 163.5 343.5 L 163.5 34.5 M 206.5 343.5 L 206.5 34.5 M 249.5 343.5 L 249.5 34.5 M 292.5 343.5 L 292.5 34.5" stroke-opacity="1" stroke-linejoin="bevel" stroke-miterlimit="10" stroke-dasharray="" clip-path="url(#rClVEVGrhVTa)"/><path fill="none" stroke="rgb(229,229,229)" paint-order="fill" d="M 65.5 331.5 L 316.5 331.5 M 65.5 281.5 L 316.5 281.5 M 65.5 232.5 L 316.5 232.5 M 65.5 182.5 L 316.5 182.5 M 65.5 133.5 L 316.5 133.5 M 65.5 83.5 L 316.5 83.5" stroke-opacity="1" stroke-linejoin="bevel" stroke-miterlimit="10" stroke-dasharray="" clip-path="url(#lyFHVocEzApD)"/><path fill="none" stroke="none"/><path fill="rgb(0,114,178)" stroke="rgb(0,0,0)" paint-order="fill" d="M 80.40908813476562 69.90398406982422 A 3.5 3.5 0 1 1 80.40908638476577 69.90048407040754" fill-opacity="1" clip-path="url(#mkuIRWZEdVZU)" stroke-opacity="1" stroke-linejoin="bevel" stroke-miterlimit="10" stroke-dasharray=""/><path fill="rgb(0,114,178)" stroke="rgb(0,0,0)" paint-order="fill" d="M 114.85163116455078 70.54258728027344 A 3.5 3.5 0 1 1 114.85162941455093 70.53908728085676" fill-opacity="1" clip-path="url(#mkuIRWZEdVZU)" stroke-opacity="1" stroke-linejoin="bevel" stroke-miterlimit="10" stroke-dasharray=""/><path fill="rgb(0,114,178)" stroke="rgb(0,0,0)" paint-order="fill" d="M 220.3319091796875 77.37354278564453 A 3.5 3.5 0 1 1 220.33190742968765 77.37004278622786" fill-opacity="1" clip-path="url(#mkuIRWZEdVZU)" stroke-opacity="1" stroke-linejoin="bevel" stroke-miterlimit="10" stroke-dasharray=""/><path fill="rgb(0,114,178)" stroke="rgb(0,0,0)" paint-order="fill" d="M 308.5909118652344 86.24967193603516 A 3.5 3.5 0 1 1 308.5909101152345 86.24617193661848" fill-opacity="1" clip-path="url(#mkuIRWZEdVZU)" stroke-opacity="1" stroke-linejoin="bevel" stroke-miterlimit="10" stroke-dasharray=""/><path fill="none" stroke="none"/><path fill="none" stroke="rgb(0,114,178)" paint-order="fill" d="M 76.90908813476562 69.90398406982422 L 111.35163116455078 70.54258728027344 L 216.8319091796875 77.37354278564453 L 305.0909118652344 86.24967193603516" stroke-opacity="1" stroke-linejoin="bevel" stroke-miterlimit="10" stroke-width="2" stroke-dasharray="" clip-path="url(#hRlctWIsCAVJ)"/><path fill="none" stroke="none"/><path fill="rgb(0,114,178)" stroke="rgb(0,0,0)" paint-order="fill" d="M 73.40908813476562 326.0521545410156 L 80.40908813476562 326.0521545410156 L 80.40908813476562 333.0521545410156 L 73.40908813476562 333.0521545410156 L 73.40908813476562 326.0521545410156" fill-opacity="1" clip-path="url(#HiSJfAGcuIwK)" stroke-opacity="1" stroke-linejoin="bevel" stroke-miterlimit="10" stroke-dasharray=""/><path fill="rgb(0,114,178)" stroke="rgb(0,0,0)" paint-order="fill" d="M 107.85163116455078 321.7344055175781 L 114.85163116455078 321.7344055175781 L 114.85163116455078 328.7344055175781 L 107.85163116455078 328.7344055175781 L 107.85163116455078 321.7344055175781" fill-opacity="1" clip-path="url(#HiSJfAGcuIwK)" stroke-opacity="1" stroke-linejoin="bevel" stroke-miterlimit="10" stroke-dasharray=""/><path fill="rgb(0,114,178)" stroke="rgb(0,0,0)" paint-order="fill" d="M 213.3319091796875 314.19891357421875 L 220.3319091796875 314.19891357421875 L 220.3319091796875 321.19891357421875 L 213.3319091796875 321.19891357421875 L 213.3319091796875 314.19891357421875" fill-opacity="1" clip-path="url(#HiSJfAGcuIwK)" stroke-opacity="1" stroke-linejoin="bevel" stroke-miterlimit="10" stroke-dasharray=""/><path fill="rgb(0,114,178)" stroke="rgb(0,0,0)" paint-order="fill" d="M 301.5909118652344 307.7931213378906 L 308.5909118652344 307.7931213378906 L 308.5909118652344 314.7931213378906 L 301.5909118652344 314.7931213378906 L 301.5909118652344 307.7931213378906" fill-opacity="1" clip-path="url(#HiSJfAGcuIwK)" stroke-opacity="1" stroke-linejoin="bevel" stroke-miterlimit="10" stroke-dasharray=""/><path fill="none" stroke="none"/><path fill="none" stroke="rgb(0,114,178)" paint-order="fill" d="M 76.90908813476562 329.5521545410156 L 111.35163116455078 325.2344055175781 L 216.8319091796875 317.69891357421875 L 305.0909118652344 311.2931213378906" stroke-opacity="1" stroke-linejoin="bevel" stroke-miterlimit="10" stroke-width="2" stroke-dasharray="" clip-path="url(#EUcSFOddlReG)"/><path fill="none" stroke="none"/><path fill="none" stroke="rgb(128,128,128)" paint-order="fill" d="M 76.90908813476562 76.65853881835938 L 76.90908813476562 63.14943313598633" stroke-opacity="1" stroke-linejoin="bevel" stroke-miterlimit="10" stroke-width="1.5" stroke-dasharray="" clip-path="url(#VDucmlmwCNFn)"/><path fill="none" stroke="rgb(128,128,128)" paint-order="fill" d="M 111.35163116455078 76.38873291015625 L 111.35163116455078 64.6964340209961" stroke-opacity="1" stroke-linejoin="bevel" stroke-miterlimit="10" stroke-width="1.5" stroke-dasharray="" clip-path="url(#VDucmlmwCNFn)"/><path fill="none" stroke="rgb(128,128,128)" paint-order="fill" d="M 216.8319091796875 81.18995666503906 L 216.8319091796875 73.55712890625" stroke-opacity="1" stroke-linejoin="bevel" stroke-miterlimit="10" stroke-width="1.5" stroke-dasharray="" clip-path="url(#VDucmlmwCNFn)"/><path fill="none" stroke="rgb(128,128,128)" paint-order="fill" d="M 305.0909118652344 91.70207214355469 L 305.0909118652344 80.79727172851562" stroke-opacity="1" stroke-linejoin="bevel" stroke-miterlimit="10" stroke-width="1.5" stroke-dasharray="" clip-path="url(#VDucmlmwCNFn)"/><path fill="none" stroke="none"/><path fill="none" stroke="rgb(128,128,128)" paint-order="fill" d="M 76.90908813476562 329.9343566894531 L 76.90908813476562 329.1699523925781" stroke-opacity="1" stroke-linejoin="bevel" stroke-miterlimit="10" stroke-width="1.5" stroke-dasharray="" clip-path="url(#HButSvocTGuT)"/><path fill="none" stroke="rgb(128,128,128)" paint-order="fill" d="M 111.35163116455078 325.39630126953125 L 111.35163116455078 325.0724792480469" stroke-opacity="1" stroke-linejoin="bevel" stroke-miterlimit="10" stroke-width="1.5" stroke-dasharray="" clip-path="url(#HButSvocTGuT)"/><path fill="none" stroke="rgb(128,128,128)" paint-order="fill" d="M 216.8319091796875 318.819580078125 L 216.8319091796875 316.5782470703125" stroke-opacity="1" stroke-linejoin="bevel" stroke-miterlimit="10" stroke-width="1.5" stroke-dasharray="" clip-path="url(#HButSvocTGuT)"/><path fill="none" stroke="rgb(128,128,128)" paint-order="fill" d="M 305.0909118652344 313.5213623046875 L 305.0909118652344 309.0649108886719" stroke-opacity="1" stroke-linejoin="bevel" stroke-miterlimit="10" stroke-width="1.5" stroke-dasharray="" clip-path="url(#HButSvocTGuT)"/><path fill="none" stroke="none"/><path fill="rgb(230,159,0)" stroke="rgb(0,0,0)" paint-order="fill" d="M 80.40908813476562 71.87334442138672 A 3.5 3.5 0 1 1 80.40908638476577 71.86984442197004" fill-opacity="1" clip-path="url(#FgSdOgMpvqac)" stroke-opacity="1" stroke-linejoin="bevel" stroke-miterlimit="10" stroke-dasharray=""/><path fill="rgb(230,159,0)" stroke="rgb(0,0,0)" paint-order="fill" d="M 114.85163116455078 78.79247283935547 A 3.5 3.5 0 1 1 114.85162941455093 78.7889728399388" fill-opacity="1" clip-path="url(#FgSdOgMpvqac)" stroke-opacity="1" stroke-linejoin="bevel" stroke-miterlimit="10" stroke-dasharray=""/><path fill="rgb(230,159,0)" stroke="rgb(0,0,0)" paint-order="fill" d="M 220.3319091796875 86.64849090576172 A 3.5 3.5 0 1 1 220.33190742968765 86.64499090634504" fill-opacity="1" clip-path="url(#FgSdOgMpvqac)" stroke-opacity="1" stroke-linejoin="bevel" stroke-miterlimit="10" stroke-dasharray=""/><path fill="rgb(230,159,0)" stroke="rgb(0,0,0)" paint-order="fill" d="M 308.5909118652344 96.84878540039062 A 3.5 3.5 0 1 1 308.5909101152345 96.84528540097395" fill-opacity="1" clip-path="url(#FgSdOgMpvqac)" stroke-opacity="1" stroke-linejoin="bevel" stroke-miterlimit="10" stroke-dasharray=""/><path fill="none" stroke="none"/><path fill="none" stroke="rgb(230,159,0)" paint-order="fill" d="M 76.90908813476562 71.87334442138672 L 111.35163116455078 78.79247283935547 L 216.8319091796875 86.64849090576172 L 305.0909118652344 96.84878540039062" stroke-opacity="1" stroke-linejoin="bevel" stroke-miterlimit="10" stroke-width="2" stroke-dasharray="" clip-path="url(#ZOgQxNmbVcIk)"/><path fill="none" stroke="none"/><path fill="rgb(230,159,0)" stroke="rgb(0,0,0)" paint-order="fill" d="M 73.40908813476562 325.6599426269531 L 80.40908813476562 325.6599426269531 L 80.40908813476562 332.6599426269531 L 73.40908813476562 332.6599426269531 L 73.40908813476562 325.6599426269531" fill-opacity="1" clip-path="url(#KWefdUhvUTcO)" stroke-opacity="1" stroke-linejoin="bevel" stroke-miterlimit="10" stroke-dasharray=""/><path fill="rgb(230,159,0)" stroke="rgb(0,0,0)" paint-order="fill" d="M 107.85163116455078 314.111572265625 L 114.85163116455078 314.111572265625 L 114.85163116455078 321.111572265625 L 107.85163116455078 321.111572265625 L 107.85163116455078 314.111572265625" fill-opacity="1" clip-path="url(#KWefdUhvUTcO)" stroke-opacity="1" stroke-linejoin="bevel" stroke-miterlimit="10" stroke-dasharray=""/><path fill="rgb(230,159,0)" stroke="rgb(0,0,0)" paint-order="fill" d="M 213.3319091796875 304.3636474609375 L 220.3319091796875 304.3636474609375 L 220.3319091796875 311.3636474609375 L 213.3319091796875 311.3636474609375 L 213.3319091796875 304.3636474609375" fill-opacity="1" clip-path="url(#KWefdUhvUTcO)" stroke-opacity="1" stroke-linejoin="bevel" stroke-miterlimit="10" stroke-dasharray=""/><path fill="rgb(230,159,0)" stroke="rgb(0,0,0)" paint-order="fill" d="M 301.5909118652344 297.449462890625 L 308.5909118652344 297.449462890625 L 308.5909118652344 304.449462890625 L 301.5909118652344 304.449462890625 L 301.5909118652344 297.449462890625" fill-opacity="1" clip-path="url(#KWefdUhvUTcO)" stroke-opacity="1" stroke-linejoin="bevel" stroke-miterlimit="10" stroke-dasharray=""/><path fill="none" stroke="none"/><path fill="none" stroke="rgb(230,159,0)" paint-order="fill" d="M 76.90908813476562 329.1599426269531 L 111.35163116455078 317.611572265625 L 216.8319091796875 307.8636474609375 L 305.0909118652344 300.949462890625" stroke-opacity="1" stroke-linejoin="bevel" stroke-miterlimit="10" stroke-width="2" stroke-dasharray="" clip-path="url(#WTBMRnfydXfi)"/><path fill="none" stroke="none"/><path fill="none" stroke="rgb(128,128,128)" paint-order="fill" d="M 76.90908813476562 76.10994720458984 L 76.90908813476562 67.63673400878906" stroke-opacity="1" stroke-linejoin="bevel" stroke-miterlimit="10" stroke-width="1.5" stroke-dasharray="" clip-path="url(#QPHovoSBnAcr)"/><path fill="none" stroke="rgb(128,128,128)" paint-order="fill" d="M 111.35163116455078 82.5502700805664 L 111.35163116455078 75.03467559814453" stroke-opacity="1" stroke-linejoin="bevel" stroke-miterlimit="10" stroke-width="1.5" stroke-dasharray="" clip-path="url(#QPHovoSBnAcr)"/><path fill="none" stroke="rgb(128,128,128)" paint-order="fill" d="M 216.8319091796875 86.74847412109375 L 216.8319091796875 86.54850006103516" stroke-opacity="1" stroke-linejoin="bevel" stroke-miterlimit="10" stroke-width="1.5" stroke-dasharray="" clip-path="url(#QPHovoSBnAcr)"/><path fill="none" stroke="rgb(128,128,128)" paint-order="fill" d="M 305.0909118652344 101.00355529785156 L 305.0909118652344 92.69401550292969" stroke-opacity="1" stroke-linejoin="bevel" stroke-miterlimit="10" stroke-width="1.5" stroke-dasharray="" clip-path="url(#QPHovoSBnAcr)"/><path fill="none" stroke="none"/><path fill="none" stroke="rgb(128,128,128)" paint-order="fill" d="M 76.90908813476562 329.24560546875 L 76.90908813476562 329.0742492675781" stroke-opacity="1" stroke-linejoin="bevel" stroke-miterlimit="10" stroke-width="1.5" stroke-dasharray="" clip-path="url(#qGsbCaUbTzVq)"/><path fill="none" stroke="rgb(128,128,128)" paint-order="fill" d="M 111.35163116455078 317.98284912109375 L 111.35163116455078 317.24029541015625" stroke-opacity="1" stroke-linejoin="bevel" stroke-miterlimit="10" stroke-width="1.5" stroke-dasharray="" clip-path="url(#qGsbCaUbTzVq)"/><path fill="none" stroke="rgb(128,128,128)" paint-order="fill" d="M 216.8319091796875 309.0320739746094 L 216.8319091796875 306.6952209472656" stroke-opacity="1" stroke-linejoin="bevel" stroke-miterlimit="10" stroke-width="1.5" stroke-dasharray="" clip-path="url(#qGsbCaUbTzVq)"/><path fill="none" stroke="rgb(128,128,128)" paint-order="fill" d="M 305.0909118652344 303.77880859375 L 305.0909118652344 298.1201171875" stroke-opacity="1" stroke-linejoin="bevel" stroke-miterlimit="10" stroke-width="1.5" stroke-dasharray="" clip-path="url(#qGsbCaUbTzVq)"/><path fill="none" stroke="none"/><path fill="rgb(240,228,66)" stroke="rgb(0,0,0)" paint-order="fill" d="M 80.40908813476562 74.4054946899414 A 3.5 3.5 0 1 1 80.40908638476577 74.40199469052473" fill-opacity="1" clip-path="url(#fIKwMmONwPLk)" stroke-opacity="1" stroke-linejoin="bevel" stroke-miterlimit="10" stroke-dasharray=""/><path fill="rgb(240,228,66)" stroke="rgb(0,0,0)" paint-order="fill" d="M 114.85163116455078 100.25520324707031 A 3.5 3.5 0 1 1 114.85162941455093 100.25170324765364" fill-opacity="1" clip-path="url(#fIKwMmONwPLk)" stroke-opacity="1" stroke-linejoin="bevel" stroke-miterlimit="10" stroke-dasharray=""/><path fill="rgb(240,228,66)" stroke="rgb(0,0,0)" paint-order="fill" d="M 220.3319091796875 112.46028900146484 A 3.5 3.5 0 1 1 220.33190742968765 112.45678900204817" fill-opacity="1" clip-path="url(#fIKwMmONwPLk)" stroke-opacity="1" stroke-linejoin="bevel" stroke-miterlimit="10" stroke-dasharray=""/><path fill="rgb(240,228,66)" stroke="rgb(0,0,0)" paint-order="fill" d="M 308.5909118652344 125.73162841796875 A 3.5 3.5 0 1 1 308.5909101152345 125.72812841855207" fill-opacity="1" clip-path="url(#fIKwMmONwPLk)" stroke-opacity="1" stroke-linejoin="bevel" stroke-miterlimit="10" stroke-dasharray=""/><path fill="none" stroke="none"/><path fill="none" stroke="rgb(240,228,66)" paint-order="fill" d="M 76.90908813476562 74.4054946899414 L 111.35163116455078 100.25520324707031 L 216.8319091796875 112.46028900146484 L 305.0909118652344 125.73162841796875" stroke-opacity="1" stroke-linejoin="bevel" stroke-miterlimit="10" stroke-width="2" stroke-dasharray="" clip-path="url(#CAiRkBwsOzHF)"/><path fill="none" stroke="none"/><path fill="rgb(240,228,66)" stroke="rgb(0,0,0)" paint-order="fill" d="M 73.40908813476562 326.6405029296875 L 80.40908813476562 326.6405029296875 L 80.40908813476562 333.6405029296875 L 73.40908813476562 333.6405029296875 L 73.40908813476562 326.6405029296875" fill-opacity="1" clip-path="url(#aTcMUehQMDyT)" stroke-opacity="1" stroke-linejoin="bevel" stroke-miterlimit="10" stroke-dasharray=""/><path fill="rgb(240,228,66)" stroke="rgb(0,0,0)" paint-order="fill" d="M 107.85163116455078 297.5986022949219 L 114.85163116455078 297.5986022949219 L 114.85163116455078 304.5986022949219 L 107.85163116455078 304.5986022949219 L 107.85163116455078 297.5986022949219" fill-opacity="1" clip-path="url(#aTcMUehQMDyT)" stroke-opacity="1" stroke-linejoin="bevel" stroke-miterlimit="10" stroke-dasharray=""/><path fill="rgb(240,228,66)" stroke="rgb(0,0,0)" paint-order="fill" d="M 213.3319091796875 283.46453857421875 L 220.3319091796875 283.46453857421875 L 220.3319091796875 290.46453857421875 L 213.3319091796875 290.46453857421875 L 213.3319091796875 283.46453857421875" fill-opacity="1" clip-path="url(#aTcMUehQMDyT)" stroke-opacity="1" stroke-linejoin="bevel" stroke-miterlimit="10" stroke-dasharray=""/><path fill="rgb(240,228,66)" stroke="rgb(0,0,0)" paint-order="fill" d="M 301.5909118652344 276.0971374511719 L 308.5909118652344 276.0971374511719 L 308.5909118652344 283.0971374511719 L 301.5909118652344 283.0971374511719 L 301.5909118652344 276.0971374511719" fill-opacity="1" clip-path="url(#aTcMUehQMDyT)" stroke-opacity="1" stroke-linejoin="bevel" stroke-miterlimit="10" stroke-dasharray=""/><path fill="none" stroke="none"/><path fill="none" stroke="rgb(240,228,66)" paint-order="fill" d="M 76.90908813476562 330.1405029296875 L 111.35163116455078 301.0986022949219 L 216.8319091796875 286.96453857421875 L 305.0909118652344 279.5971374511719" stroke-opacity="1" stroke-linejoin="bevel" stroke-miterlimit="10" stroke-width="2" stroke-dasharray="" clip-path="url(#zHETMpKPqftX)"/><path fill="none" stroke="none"/><path fill="none" stroke="rgb(128,128,128)" paint-order="fill" d="M 76.90908813476562 78.03292083740234 L 76.90908813476562 70.778076171875" stroke-opacity="1" stroke-linejoin="bevel" stroke-miterlimit="10" stroke-width="1.5" stroke-dasharray="" clip-path="url(#eAGSUmHEFDbX)"/><path fill="none" stroke="rgb(128,128,128)" paint-order="fill" d="M 111.35163116455078 107.30007934570312 L 111.35163116455078 93.21031951904297" stroke-opacity="1" stroke-linejoin="bevel" stroke-miterlimit="10" stroke-width="1.5" stroke-dasharray="" clip-path="url(#eAGSUmHEFDbX)"/><path fill="none" stroke="rgb(128,128,128)" paint-order="fill" d="M 216.8319091796875 120.58714294433594 L 216.8319091796875 104.33343505859375" stroke-opacity="1" stroke-linejoin="bevel" stroke-miterlimit="10" stroke-width="1.5" stroke-dasharray="" clip-path="url(#eAGSUmHEFDbX)"/><path fill="none" stroke="rgb(128,128,128)" paint-order="fill" d="M 305.0909118652344 140.38134765625 L 305.0909118652344 111.0819091796875" stroke-opacity="1" stroke-linejoin="bevel" stroke-miterlimit="10" stroke-width="1.5" stroke-dasharray="" clip-path="url(#eAGSUmHEFDbX)"/><path fill="none" stroke="none"/><path fill="none" stroke="rgb(128,128,128)" paint-order="fill" d="M 76.90908813476562 330.4143981933594 L 76.90908813476562 329.8665771484375" stroke-opacity="1" stroke-linejoin="bevel" stroke-miterlimit="10" stroke-width="1.5" stroke-dasharray="" clip-path="url(#xMMeWPpFTMzD)"/><path fill="none" stroke="rgb(128,128,128)" paint-order="fill" d="M 111.35163116455078 308.2655334472656 L 111.35163116455078 293.9316711425781" stroke-opacity="1" stroke-linejoin="bevel" stroke-miterlimit="10" stroke-width="1.5" stroke-dasharray="" clip-path="url(#xMMeWPpFTMzD)"/><path fill="none" stroke="rgb(128,128,128)" paint-order="fill" d="M 216.8319091796875 299.3105163574219 L 216.8319091796875 274.6185607910156" stroke-opacity="1" stroke-linejoin="bevel" stroke-miterlimit="10" stroke-width="1.5" stroke-dasharray="" clip-path="url(#xMMeWPpFTMzD)"/><path fill="none" stroke="rgb(128,128,128)" paint-order="fill" d="M 305.0909118652344 294.47625732421875 L 305.0909118652344 264.7180480957031" stroke-opacity="1" stroke-linejoin="bevel" stroke-miterlimit="10" stroke-width="1.5" stroke-dasharray="" clip-path="url(#xMMeWPpFTMzD)"/><path fill="none" stroke="rgb(0,0,0)" paint-order="fill" d="M 65.5 343.5 L 316.5 343.5" stroke-opacity="1" stroke-linejoin="bevel" stroke-miterlimit="10" stroke-dasharray=""/><path fill="none" stroke="rgb(0,0,0)" paint-order="fill" d="M 76.5 349.5 L 76.5 341.5 M 119.5 349.5 L 119.5 341.5 M 163.5 349.5 L 163.5 341.5 M 206.5 349.5 L 206.5 341.5 M 249.5 349.5 L 249.5 341.5 M 292.5 349.5 L 292.5 341.5" stroke-opacity="1" stroke-linejoin="bevel" stroke-miterlimit="10" stroke-dasharray=""/><path fill="none" stroke="rgb(0,0,0)" paint-order="fill" d="M 68.5 347.5 L 68.5 343.5 M 76.5 347.5 L 76.5 343.5 M 85.5 347.5 L 85.5 343.5 M 94.5 347.5 L 94.5 343.5 M 102.5 347.5 L 102.5 343.5 M 111.5 347.5 L 111.5 343.5 M 119.5 347.5 L 119.5 343.5 M 128.5 347.5 L 128.5 343.5 M 137.5 347.5 L 137.5 343.5 M 145.5 347.5 L 145.5 343.5 M 154.5 347.5 L 154.5 343.5 M 163.5 347.5 L 163.5 343.5 M 171.5 347.5 L 171.5 343.5 M 180.5 347.5 L 180.5 343.5 M 188.5 347.5 L 188.5 343.5 M 197.5 347.5 L 197.5 343.5 M 206.5 347.5 L 206.5 343.5 M 214.5 347.5 L 214.5 343.5 M 223.5 347.5 L 223.5 343.5 M 231.5 347.5 L 231.5 343.5 M 240.5 347.5 L 240.5 343.5 M 249.5 347.5 L 249.5 343.5 M 257.5 347.5 L 257.5 343.5 M 266.5 347.5 L 266.5 343.5 M 274.5 347.5 L 274.5 343.5 M 283.5 347.5 L 283.5 343.5 M 292.5 347.5 L 292.5 343.5 M 300.5 347.5 L 300.5 343.5 M 309.5 347.5 L 309.5 343.5" stroke-opacity="1" stroke-linejoin="bevel" stroke-miterlimit="10" stroke-dasharray=""/><text fill="rgb(68,68,68)" stroke="none" font-family="helvetica" font-size="14pt" font-style="normal" font-weight="normal" text-decoration="normal" x="71.21742153167725" y="367.3893239339193" text-anchor="start" dominant-baseline="alphabetic" transform="matrix(1, 0, 0, 1, 0.5, 0.5)" fill-opacity="1">0</text><text fill="rgb(68,68,68)" stroke="none" font-family="helvetica" font-size="14pt" font-style="normal" font-weight="normal" text-decoration="normal" x="109.07893180847168" y="367.3893239339193" text-anchor="start" dominant-baseline="alphabetic" transform="matrix(1, 0, 0, 1, 0.5, 0.5)" fill-opacity="1">10</text><text fill="rgb(68,68,68)" stroke="none" font-family="helvetica" font-size="14pt" font-style="normal" font-weight="normal" text-decoration="normal" x="152.1321086883545" y="367.3893239339193" text-anchor="start" dominant-baseline="alphabetic" transform="matrix(1, 0, 0, 1, 0.5, 0.5)" fill-opacity="1">20</text><text fill="rgb(68,68,68)" stroke="none" font-family="helvetica" font-size="14pt" font-style="normal" font-weight="normal" text-decoration="normal" x="195.18527030944824" y="367.3893239339193" text-anchor="start" dominant-baseline="alphabetic" transform="matrix(1, 0, 0, 1, 0.5, 0.5)" fill-opacity="1">30</text><text fill="rgb(68,68,68)" stroke="none" font-family="helvetica" font-size="14pt" font-style="normal" font-weight="normal" text-decoration="normal" x="238.23844718933105" y="367.3893239339193" text-anchor="start" dominant-baseline="alphabetic" transform="matrix(1, 0, 0, 1, 0.5, 0.5)" fill-opacity="1">40</text><text fill="rgb(68,68,68)" stroke="none" font-family="helvetica" font-size="14pt" font-style="normal" font-weight="normal" text-decoration="normal" x="281.29162406921387" y="367.3893239339193" text-anchor="start" dominant-baseline="alphabetic" transform="matrix(1, 0, 0, 1, 0.5, 0.5)" fill-opacity="1">50</text><text fill="rgb(68,68,68)" stroke="none" font-family="helvetica" font-size="14pt" font-style="italic" font-weight="normal" text-decoration="normal" x="148.32500076293945" y="393.2903676350912" text-anchor="start" dominant-baseline="alphabetic" transform="matrix(1, 0, 0, 1, 0.5, 0.5)" fill-opacity="1">Time (hrs)</text><path fill="none" stroke="rgb(0,0,0)" paint-order="fill" d="M 65.5 343.5 L 65.5 34.5" stroke-opacity="1" stroke-linejoin="bevel" stroke-miterlimit="10" stroke-dasharray=""/><path fill="none" stroke="rgb(0,0,0)" paint-order="fill" d="M 59.5 331.5 L 67.5 331.5 M 59.5 281.5 L 67.5 281.5 M 59.5 232.5 L 67.5 232.5 M 59.5 182.5 L 67.5 182.5 M 59.5 133.5 L 67.5 133.5 M 59.5 83.5 L 67.5 83.5 M 59.5 34.5 L 67.5 34.5" stroke-opacity="1" stroke-linejoin="bevel" stroke-miterlimit="10" stroke-dasharray=""/><path fill="none" stroke="rgb(0,0,0)" paint-order="fill" d="M 61.5 341.5 L 65.5 341.5 M 61.5 331.5 L 65.5 331.5 M 61.5 321.5 L 65.5 321.5 M 61.5 311.5 L 65.5 311.5 M 61.5 301.5 L 65.5 301.5 M 61.5 291.5 L 65.5 291.5 M 61.5 281.5 L 65.5 281.5 M 61.5 271.5 L 65.5 271.5 M 61.5 261.5 L 65.5 261.5 M 61.5 252.5 L 65.5 252.5 M 61.5 242.5 L 65.5 242.5 M 61.5 232.5 L 65.5 232.5 M 61.5 222.5 L 65.5 222.5 M 61.5 212.5 L 65.5 212.5 M 61.5 202.5 L 65.5 202.5 M 61.5 192.5 L 65.5 192.5 M 61.5 182.5 L 65.5 182.5 M 61.5 172.5 L 65.5 172.5 M 61.5 163.5 L 65.5 163.5 M 61.5 153.5 L 65.5 153.5 M 61.5 143.5 L 65.5 143.5 M 61.5 133.5 L 65.5 133.5 M 61.5 123.5 L 65.5 123.5 M 61.5 113.5 L 65.5 113.5 M 61.5 103.5 L 65.5 103.5 M 61.5 93.5 L 65.5 93.5 M 61.5 83.5 L 65.5 83.5 M 61.5 74.5 L 65.5 74.5 M 61.5 64.5 L 65.5 64.5 M 61.5 54.5 L 65.5 54.5 M 61.5 44.5 L 65.5 44.5 M 61.5 34.5 L 65.5 34.5" stroke-opacity="1" stroke-linejoin="bevel" stroke-miterlimit="10" stroke-dasharray=""/><text fill="rgb(68,68,68)" stroke="none" font-family="helvetica" font-size="14pt" font-style="normal" font-weight="normal" text-decoration="normal" x="43.61666679382324" y="337.33467661539714" text-anchor="start" dominant-baseline="alphabetic" transform="matrix(1, 0, 0, 1, 0.5, 0.5)" fill-opacity="1">0</text><text fill="rgb(68,68,68)" stroke="none" font-family="helvetica" font-size="14pt" font-style="normal" font-weight="normal" text-decoration="normal" x="43.61666679382324" y="287.8946741739909" text-anchor="start" dominant-baseline="alphabetic" transform="matrix(1, 0, 0, 1, 0.5, 0.5)" fill-opacity="1">2</text><text fill="rgb(68,68,68)" stroke="none" font-family="helvetica" font-size="14pt" font-style="normal" font-weight="normal" text-decoration="normal" x="43.61666679382324" y="238.45465647379555" text-anchor="start" dominant-baseline="alphabetic" transform="matrix(1, 0, 0, 1, 0.5, 0.5)" fill-opacity="1">4</text><text fill="rgb(68,68,68)" stroke="none" font-family="helvetica" font-size="14pt" font-style="normal" font-weight="normal" text-decoration="normal" x="43.61666679382324" y="189.01466929117836" text-anchor="start" dominant-baseline="alphabetic" transform="matrix(1, 0, 0, 1, 0.5, 0.5)" fill-opacity="1">6</text><text fill="rgb(68,68,68)" stroke="none" font-family="helvetica" font-size="14pt" font-style="normal" font-weight="normal" text-decoration="normal" x="43.61666679382324" y="139.57466684977214" text-anchor="start" dominant-baseline="alphabetic" transform="matrix(1, 0, 0, 1, 0.5, 0.5)" fill-opacity="1">8</text><text fill="rgb(68,68,68)" stroke="none" font-family="helvetica" font-size="14pt" font-style="normal" font-weight="normal" text-decoration="normal" x="33.233333587646484" y="90.1346644083659" text-anchor="start" dominant-baseline="alphabetic" transform="matrix(1, 0, 0, 1, 0.5, 0.5)" fill-opacity="1">10</text><text fill="rgb(68,68,68)" stroke="none" font-family="helvetica" font-size="14pt" font-style="normal" font-weight="normal" text-decoration="normal" x="33.233333587646484" y="40.694661966959636" text-anchor="start" dominant-baseline="alphabetic" transform="matrix(1, 0, 0, 1, 0.5, 0.5)" fill-opacity="1">12</text><text fill="rgb(68,68,68)" stroke="none" font-family="helvetica" font-size="14pt" font-style="italic" font-weight="normal" text-decoration="normal" x="-64.47500228881836" y="184.37109375" text-anchor="start" dominant-baseline="alphabetic" transform="matrix(6.123233995736766e-17, -1, 1, 6.123233995736766e-17, -162.76666641235352, 214.23333358764648)" fill-opacity="1">Nitrate or Nitrite (mM)</text><path fill="rgb(255,255,255)" stroke="rgb(229,229,229)" paint-order="fill" d="M 326.31666564941406 44.5 L 560.5 44.5 L 560.5 210.69532470703126 L 326.31666564941406 210.69532470703126 L 326.31666564941406 44.5" fill-opacity="0.9490196078431372" stroke-opacity="0.5019607843137255" stroke-linejoin="bevel" stroke-miterlimit="10" stroke-dasharray=""/><text fill="rgb(68,68,68)" stroke="none" font-family="helvetica" font-size="14pt" font-style="normal" font-weight="normal" text-decoration="normal" x="360.81666564941406" y="64.93294372558594" text-anchor="start" dominant-baseline="central" transform="matrix(1, 0, 0, 1, 0.5, 0.5)" fill-opacity="1">0 µM PCA (NO3)</text><path fill="none" stroke="rgb(0,114,178)" paint-order="fill" d="M 336.31666564941406 64.5 L 356.31666564941406 64.5" stroke-opacity="1" stroke-linejoin="bevel" stroke-miterlimit="10" stroke-width="2" stroke-dasharray=""/><path fill="rgb(0,114,178)" stroke="rgb(0,0,0)" paint-order="fill" d="M 350.31666564941406 64.5 A 4 4 0 1 1 350.31666364941424 64.49600000066667" fill-opacity="1" stroke-opacity="1" stroke-linejoin="bevel" stroke-miterlimit="10" stroke-dasharray=""/><text fill="rgb(68,68,68)" stroke="none" font-family="helvetica" font-size="14pt" font-style="normal" font-weight="normal" text-decoration="normal" x="360.81666564941406" y="89.79883117675782" text-anchor="start" dominant-baseline="central" transform="matrix(1, 0, 0, 1, 0.5, 0.5)" fill-opacity="1">0 µM PCA (NO2)</text><path fill="none" stroke="rgb(0,114,178)" paint-order="fill" d="M 336.31666564941406 89.36588745117187 L 356.31666564941406 89.36588745117187" stroke-opacity="1" stroke-linejoin="bevel" stroke-miterlimit="10" stroke-width="2" stroke-dasharray=""/><path fill="rgb(0,114,178)" stroke="rgb(0,0,0)" paint-order="fill" d="M 342.31666564941406 85.36588745117187 L 350.31666564941406 85.36588745117187 L 350.31666564941406 93.36588745117187 L 342.31666564941406 93.36588745117187 L 342.31666564941406 85.36588745117187" fill-opacity="1" stroke-opacity="1" stroke-linejoin="bevel" stroke-miterlimit="10" stroke-dasharray=""/><text fill="rgb(68,68,68)" stroke="none" font-family="helvetica" font-size="14pt" font-style="normal" font-weight="normal" text-decoration="normal" x="360.81666564941406" y="114.66471862792969" text-anchor="start" dominant-baseline="central" transform="matrix(1, 0, 0, 1, 0.5, 0.5)" fill-opacity="1">200 µM PCAox (NO3)</text><path fill="none" stroke="rgb(230,159,0)" paint-order="fill" d="M 336.31666564941406 114.23177490234374 L 356.31666564941406 114.23177490234374" stroke-opacity="1" stroke-linejoin="bevel" stroke-miterlimit="10" stroke-width="2" stroke-dasharray=""/><path fill="rgb(230,159,0)" stroke="rgb(0,0,0)" paint-order="fill" d="M 350.31666564941406 114.23177490234374 A 4 4 0 1 1 350.31666364941424 114.22777490301041" fill-opacity="1" stroke-opacity="1" stroke-linejoin="bevel" stroke-miterlimit="10" stroke-dasharray=""/><text fill="rgb(68,68,68)" stroke="none" font-family="helvetica" font-size="14pt" font-style="normal" font-weight="normal" text-decoration="normal" x="360.81666564941406" y="139.53060607910155" text-anchor="start" dominant-baseline="central" transform="matrix(1, 0, 0, 1, 0.5, 0.5)" fill-opacity="1">200 µM PCAox (NO2)</text><path fill="none" stroke="rgb(230,159,0)" paint-order="fill" d="M 336.31666564941406 139.0976623535156 L 356.31666564941406 139.0976623535156" stroke-opacity="1" stroke-linejoin="bevel" stroke-miterlimit="10" stroke-width="2" stroke-dasharray=""/><path fill="rgb(230,159,0)" stroke="rgb(0,0,0)" paint-order="fill" d="M 342.31666564941406 135.0976623535156 L 350.31666564941406 135.0976623535156 L 350.31666564941406 143.0976623535156 L 342.31666564941406 143.0976623535156 L 342.31666564941406 135.0976623535156" fill-opacity="1" stroke-opacity="1" stroke-linejoin="bevel" stroke-miterlimit="10" stroke-dasharray=""/><text fill="rgb(68,68,68)" stroke="none" font-family="helvetica" font-size="14pt" font-style="normal" font-weight="normal" text-decoration="normal" x="360.81666564941406" y="164.39649353027343" text-anchor="start" dominant-baseline="central" transform="matrix(1, 0, 0, 1, 0.5, 0.5)" fill-opacity="1">200 µM PCAred (NO3)</text><path fill="none" stroke="rgb(240,228,66)" paint-order="fill" d="M 336.31666564941406 163.9635498046875 L 356.31666564941406 163.9635498046875" stroke-opacity="1" stroke-linejoin="bevel" stroke-miterlimit="10" stroke-width="2" stroke-dasharray=""/><path fill="rgb(240,228,66)" stroke="rgb(0,0,0)" paint-order="fill" d="M 350.31666564941406 163.9635498046875 A 4 4 0 1 1 350.31666364941424 163.95954980535416" fill-opacity="1" stroke-opacity="1" stroke-linejoin="bevel" stroke-miterlimit="10" stroke-dasharray=""/><text fill="rgb(68,68,68)" stroke="none" font-family="helvetica" font-size="14pt" font-style="normal" font-weight="normal" text-decoration="normal" x="360.81666564941406" y="189.26238098144532" text-anchor="start" dominant-baseline="central" transform="matrix(1, 0, 0, 1, 0.5, 0.5)" fill-opacity="1">200 µM PCAred (NO2)</text><path fill="none" stroke="rgb(240,228,66)" paint-order="fill" d="M 336.31666564941406 188.82943725585938 L 356.31666564941406 188.82943725585938" stroke-opacity="1" stroke-linejoin="bevel" stroke-miterlimit="10" stroke-width="2" stroke-dasharray=""/><path fill="rgb(240,228,66)" stroke="rgb(0,0,0)" paint-order="fill" d="M 342.31666564941406 184.82943725585938 L 350.31666564941406 184.82943725585938 L 350.31666564941406 192.82943725585938 L 342.31666564941406 192.82943725585938 L 342.31666564941406 184.82943725585938" fill-opacity="1" stroke-opacity="1" stroke-linejoin="bevel" stroke-miterlimit="10" stroke-dasharray=""/><path fill="none" stroke="none"/><text fill="rgb(68,68,68)" stroke="none" font-family="helvetica" font-size="14pt" font-style="normal" font-weight="bold" text-decoration="normal" x="0" y="0" text-anchor="start" dominant-baseline="text-after-edge" transform="matrix(1, 0, 0, 1, 65.5, 29.5)" fill-opacity="1">0 mM acetate</text></svg>