<svg version="1.1" xmlns="http://www.w3.org/2000/svg" xmlns:xlink="http://www.w3.org/1999/xlink" width="400" height="500"><defs><clipPath id="OEUpSBSWeUuz"><path fill="none" stroke="none" d="M 59.5 31.5 L 370.5 31.5 L 370.5 351.5 L 59.5 351.5 L 59.5 31.5"/></clipPath><clipPath id="dKDBhpmllerS"><path fill="none" stroke="none" d="M 59.5 31.5 L 370.5 31.5 L 370.5 351.5 L 59.5 351.5 L 59.5 31.5"/></clipPath><clipPath id="kTfnSFwnIlEW"><path fill="none" stroke="none" d="M 59.5 31.5 L 370.5 31.5 L 370.5 351.5 L 59.5 351.5 L 59.5 31.5"/></clipPath><clipPath id="AVarDHPFFxwb"><path fill="none" stroke="none" d="M 59.5 31.5 L 370.5 31.5 L 370.5 351.5 L 59.5 351.5 L 59.5 31.5"/></clipPath><clipPath id="ATdTgpCTuDnS"><path fill="none" stroke="none" d="M 59.5 31.5 L 370.5 31.5 L 370.5 351.5 L 59.5 351.5 L 59.5 31.5"/></clipPath></defs><path fill="rgb(255,255,255)" stroke="none" paint-order="stroke" d="M 0.5 0.5 L 400.5 0.5 L 400.5 500.5 L 0.5 500.5 L 0.5 0.5" fill-opacity="1"/><rect fill="#FFFFFF" stroke="none" x="59" y="31" width="311" height="320" transform="matrix(1, 0, 0, 1, 0.5, 0.5)"/><path fill="rgb(255,255,255)" stroke="none" paint-order="stroke" d="M 59.5 31.5 L 370.5 31.5 L 370.5 351.5 L 59.5 351.5 L 59.5 31.5" fill-opacity="1"/><path fill="none" stroke="rgb(229,229,229)" paint-order="fill" d="M 59.5 31.5 L 370.5 31.5 L 370.5 351.5 L 59.5 351.5 L 59.5 31.5" stroke-opacity="1" stroke-linejoin="bevel" stroke-miterlimit="10" stroke-dasharray=""/><path fill="none" stroke="rgb(229,229,229)" paint-order="fill" d="M 59.5 323.5 L 370.5 323.5 M 59.5 269.5 L 370.5 269.5 M 59.5 214.5 L 370.5 214.5 M 59.5 159.5 L 370.5 159.5 M 59.5 104.5 L 370.5 104.5 M 59.5 49.5 L 370.5 49.5" stroke-opacity="1" stroke-linejoin="bevel" stroke-miterlimit="10" stroke-dasharray="" clip-path="url(#dKDBhpmllerS)"/><path fill="none" stroke="none"/><path fill="none" stroke="none"/><path fill="rgb(31,119,180)" stroke="rgb(0,0,0)" paint-order="fill" d="M 76.37313079833984 92.88517761230469 L 86.37313079833984 92.88517761230469 L 86.37313079833984 102.88517761230469 L 76.37313079833984 102.88517761230469 L 76.37313079833984 92.88517761230469" fill-opacity="1" clip-path="url(#AVarDHPFFxwb)" stroke-opacity="0.7019607843137254" stroke-linejoin="bevel" stroke-miterlimit="10" stroke-width="2" stroke-dasharray=""/><path fill="rgb(31,119,180)" stroke="rgb(0,0,0)" paint-order="fill" d="M 70.99215698242188 102.71163177490234 L 80.99215698242188 102.71163177490234 L 80.99215698242188 112.71163177490234 L 70.99215698242188 112.71163177490234 L 70.99215698242188 102.71163177490234" fill-opacity="1" clip-path="url(#AVarDHPFFxwb)" stroke-opacity="0.7019607843137254" stroke-linejoin="bevel" stroke-miterlimit="10" stroke-width="2" stroke-dasharray=""/><path fill="rgb(31,119,180)" stroke="rgb(0,0,0)" paint-order="fill" d="M 72.57930755615234 142.3750762939453 L 82.57930755615234 142.3750762939453 L 82.57930755615234 152.3750762939453 L 72.57930755615234 152.3750762939453 L 72.57930755615234 142.3750762939453" fill-opacity="1" clip-path="url(#AVarDHPFFxwb)" stroke-opacity="0.7019607843137254" stroke-linejoin="bevel" stroke-miterlimit="10" stroke-width="2" stroke-dasharray=""/><path fill="rgb(174,199,232)" stroke="rgb(0,0,0)" paint-order="fill" d="M 115.58722686767578 102.04712677001953 L 125.58722686767578 102.04712677001953 L 125.58722686767578 112.04712677001953 L 115.58722686767578 112.04712677001953 L 115.58722686767578 102.04712677001953" fill-opacity="1" clip-path="url(#AVarDHPFFxwb)" stroke-opacity="0.7019607843137254" stroke-linejoin="bevel" stroke-miterlimit="10" stroke-width="2" stroke-dasharray=""/><path fill="rgb(44,160,44)" stroke="rgb(0,0,0)" paint-order="fill" d="M 155.94024658203125 247.29383850097656 L 165.94024658203125 247.29383850097656 L 165.94024658203125 257.29383850097656 L 155.94024658203125 257.29383850097656 L 155.94024658203125 247.29383850097656" fill-opacity="1" clip-path="url(#AVarDHPFFxwb)" stroke-opacity="0.7019607843137254" stroke-linejoin="bevel" stroke-miterlimit="10" stroke-width="2" stroke-dasharray=""/><path fill="rgb(255,152,150)" stroke="rgb(0,0,0)" paint-order="fill" d="M 191.49703979492188 89.67832946777344 L 201.49703979492188 89.67832946777344 L 201.49703979492188 99.67832946777344 L 191.49703979492188 99.67832946777344 L 191.49703979492188 89.67832946777344" fill-opacity="1" clip-path="url(#AVarDHPFFxwb)" stroke-opacity="0.7019607843137254" stroke-linejoin="bevel" stroke-miterlimit="10" stroke-width="2" stroke-dasharray=""/><path fill="rgb(174,199,232)" stroke="rgb(0,0,0)" paint-order="fill" d="M 115.14752197265625 41.738094329833984 L 125.14752197265625 41.738094329833984 L 125.14752197265625 51.738094329833984 L 115.14752197265625 51.738094329833984 L 115.14752197265625 41.738094329833984" fill-opacity="1" clip-path="url(#AVarDHPFFxwb)" stroke-opacity="0.7019607843137254" stroke-linejoin="bevel" stroke-miterlimit="10" stroke-width="2" stroke-dasharray=""/><path fill="rgb(44,160,44)" stroke="rgb(0,0,0)" paint-order="fill" d="M 149.37620544433594 237.744384765625 L 159.37620544433594 237.744384765625 L 159.37620544433594 247.744384765625 L 149.37620544433594 247.744384765625 L 149.37620544433594 237.744384765625" fill-opacity="1" clip-path="url(#AVarDHPFFxwb)" stroke-opacity="0.7019607843137254" stroke-linejoin="bevel" stroke-miterlimit="10" stroke-width="2" stroke-dasharray=""/><path fill="rgb(255,152,150)" stroke="rgb(0,0,0)" paint-order="fill" d="M 195.82513427734375 42.029823303222656 L 205.82513427734375 42.029823303222656 L 205.82513427734375 52.029823303222656 L 195.82513427734375 52.029823303222656 L 195.82513427734375 42.029823303222656" fill-opacity="1" clip-path="url(#AVarDHPFFxwb)" stroke-opacity="0.7019607843137254" stroke-linejoin="bevel" stroke-miterlimit="10" stroke-width="2" stroke-dasharray=""/><path fill="rgb(174,199,232)" stroke="rgb(0,0,0)" paint-order="fill" d="M 115.0667724609375 127.63896179199219 L 125.0667724609375 127.63896179199219 L 125.0667724609375 137.6389617919922 L 115.0667724609375 137.6389617919922 L 115.0667724609375 127.63896179199219" fill-opacity="1" clip-path="url(#AVarDHPFFxwb)" stroke-opacity="0.7019607843137254" stroke-linejoin="bevel" stroke-miterlimit="10" stroke-width="2" stroke-dasharray=""/><path fill="rgb(44,160,44)" stroke="rgb(0,0,0)" paint-order="fill" d="M 152.83212280273438 281.17755126953125 L 162.83212280273438 281.17755126953125 L 162.83212280273438 291.17755126953125 L 152.83212280273438 291.17755126953125 L 152.83212280273438 281.17755126953125" fill-opacity="1" clip-path="url(#AVarDHPFFxwb)" stroke-opacity="0.7019607843137254" stroke-linejoin="bevel" stroke-miterlimit="10" stroke-width="2" stroke-dasharray=""/><path fill="rgb(255,152,150)" stroke="rgb(0,0,0)" paint-order="fill" d="M 194.821044921875 138.8925323486328 L 204.821044921875 138.8925323486328 L 204.821044921875 148.8925323486328 L 194.821044921875 148.8925323486328 L 194.821044921875 138.8925323486328" fill-opacity="1" clip-path="url(#AVarDHPFFxwb)" stroke-opacity="0.7019607843137254" stroke-linejoin="bevel" stroke-miterlimit="10" stroke-width="2" stroke-dasharray=""/><path fill="rgb(255,127,14)" stroke="rgb(0,0,0)" paint-order="fill" d="M 227.01272583007812 102.72087860107422 L 237.01272583007812 102.72087860107422 L 237.01272583007812 112.72087860107422 L 227.01272583007812 112.72087860107422 L 227.01272583007812 102.72087860107422" fill-opacity="1" clip-path="url(#AVarDHPFFxwb)" stroke-opacity="0.7019607843137254" stroke-linejoin="bevel" stroke-miterlimit="10" stroke-width="2" stroke-dasharray=""/><path fill="rgb(152,223,138)" stroke="rgb(0,0,0)" paint-order="fill" d="M 271.2835998535156 227.164794921875 L 281.2835998535156 227.164794921875 L 281.2835998535156 237.164794921875 L 271.2835998535156 237.164794921875 L 271.2835998535156 227.164794921875" fill-opacity="1" clip-path="url(#AVarDHPFFxwb)" stroke-opacity="0.7019607843137254" stroke-linejoin="bevel" stroke-miterlimit="10" stroke-width="2" stroke-dasharray=""/><path fill="rgb(214,39,40)" stroke="rgb(0,0,0)" paint-order="fill" d="M 306.6458740234375 278.9167175292969 L 316.6458740234375 278.9167175292969 L 316.6458740234375 288.9167175292969 L 306.6458740234375 288.9167175292969 L 306.6458740234375 278.9167175292969" fill-opacity="1" clip-path="url(#AVarDHPFFxwb)" stroke-opacity="0.7019607843137254" stroke-linejoin="bevel" stroke-miterlimit="10" stroke-width="2" stroke-dasharray=""/><path fill="rgb(255,127,14)" stroke="rgb(0,0,0)" paint-order="fill" d="M 229.4966278076172 57.41511535644531 L 239.4966278076172 57.41511535644531 L 239.4966278076172 67.41511535644531 L 229.4966278076172 67.41511535644531 L 229.4966278076172 57.41511535644531" fill-opacity="1" clip-path="url(#AVarDHPFFxwb)" stroke-opacity="0.7019607843137254" stroke-linejoin="bevel" stroke-miterlimit="10" stroke-width="2" stroke-dasharray=""/><path fill="rgb(152,223,138)" stroke="rgb(0,0,0)" paint-order="fill" d="M 269.38751220703125 216.68234252929688 L 279.38751220703125 216.68234252929688 L 279.38751220703125 226.68234252929688 L 269.38751220703125 226.68234252929688 L 269.38751220703125 216.68234252929688" fill-opacity="1" clip-path="url(#AVarDHPFFxwb)" stroke-opacity="0.7019607843137254" stroke-linejoin="bevel" stroke-miterlimit="10" stroke-width="2" stroke-dasharray=""/><path fill="rgb(214,39,40)" stroke="rgb(0,0,0)" paint-order="fill" d="M 309.24871826171875 269.05389404296875 L 319.24871826171875 269.05389404296875 L 319.24871826171875 279.05389404296875 L 309.24871826171875 279.05389404296875 L 309.24871826171875 269.05389404296875" fill-opacity="1" clip-path="url(#AVarDHPFFxwb)" stroke-opacity="0.7019607843137254" stroke-linejoin="bevel" stroke-miterlimit="10" stroke-width="2" stroke-dasharray=""/><path fill="rgb(255,127,14)" stroke="rgb(0,0,0)" paint-order="fill" d="M 226.2522430419922 174.94992065429688 L 236.2522430419922 174.94992065429688 L 236.2522430419922 184.94992065429688 L 226.2522430419922 184.94992065429688 L 226.2522430419922 174.94992065429688" fill-opacity="1" clip-path="url(#AVarDHPFFxwb)" stroke-opacity="0.7019607843137254" stroke-linejoin="bevel" stroke-miterlimit="10" stroke-width="2" stroke-dasharray=""/><path fill="rgb(152,223,138)" stroke="rgb(0,0,0)" paint-order="fill" d="M 263.87384033203125 263.7337341308594 L 273.87384033203125 263.7337341308594 L 273.87384033203125 273.7337341308594 L 263.87384033203125 273.7337341308594 L 263.87384033203125 263.7337341308594" fill-opacity="1" clip-path="url(#AVarDHPFFxwb)" stroke-opacity="0.7019607843137254" stroke-linejoin="bevel" stroke-miterlimit="10" stroke-width="2" stroke-dasharray=""/><path fill="rgb(214,39,40)" stroke="rgb(0,0,0)" paint-order="fill" d="M 302.87298583984375 299.1184997558594 L 312.87298583984375 299.1184997558594 L 312.87298583984375 309.1184997558594 L 302.87298583984375 309.1184997558594 L 302.87298583984375 299.1184997558594" fill-opacity="1" clip-path="url(#AVarDHPFFxwb)" stroke-opacity="0.7019607843137254" stroke-linejoin="bevel" stroke-miterlimit="10" stroke-width="2" stroke-dasharray=""/><path fill="rgb(255,187,120)" stroke="rgb(0,0,0)" paint-order="fill" d="M 350.711669921875 323.80828857421875 L 360.711669921875 323.80828857421875 L 360.711669921875 333.80828857421875 L 350.711669921875 333.80828857421875 L 350.711669921875 323.80828857421875" fill-opacity="1" clip-path="url(#AVarDHPFFxwb)" stroke-opacity="0.7019607843137254" stroke-linejoin="bevel" stroke-miterlimit="10" stroke-width="2" stroke-dasharray=""/><path fill="rgb(255,187,120)" stroke="rgb(0,0,0)" paint-order="fill" d="M 347.0895690917969 321.218017578125 L 357.0895690917969 321.218017578125 L 357.0895690917969 331.218017578125 L 347.0895690917969 331.218017578125 L 347.0895690917969 321.218017578125" fill-opacity="1" clip-path="url(#AVarDHPFFxwb)" stroke-opacity="0.7019607843137254" stroke-linejoin="bevel" stroke-miterlimit="10" stroke-width="2" stroke-dasharray=""/><path fill="rgb(255,187,120)" stroke="rgb(0,0,0)" paint-order="fill" d="M 345.30133056640625 323.91888427734375 L 355.30133056640625 323.91888427734375 L 355.30133056640625 333.91888427734375 L 345.30133056640625 333.91888427734375 L 345.30133056640625 323.91888427734375" fill-opacity="1" clip-path="url(#AVarDHPFFxwb)" stroke-opacity="0.7019607843137254" stroke-linejoin="bevel" stroke-miterlimit="10" stroke-width="2" stroke-dasharray=""/><path fill="none" stroke="rgb(0,0,0)" paint-order="fill" d="M 59.5 351.5 L 370.5 351.5" stroke-opacity="1" stroke-linejoin="bevel" stroke-miterlimit="10" stroke-dasharray=""/><path fill="none" stroke="rgb(0,0,0)" paint-order="fill" d="M 78.5 357.5 L 78.5 349.5 M 117.5 357.5 L 117.5 349.5 M 156.5 357.5 L 156.5 349.5 M 195.5 357.5 L 195.5 349.5 M 234.5 357.5 L 234.5 349.5 M 273.5 357.5 L 273.5 349.5 M 312.5 357.5 L 312.5 349.5 M 351.5 357.5 L 351.5 349.5" stroke-opacity="1" stroke-linejoin="bevel" stroke-miterlimit="10" stroke-dasharray=""/><path fill="none" stroke="rgb(0,0,0)" paint-order="fill" d="" stroke-opacity="1" stroke-linejoin="bevel" stroke-miterlimit="10" stroke-dasharray=""/><text fill="rgb(68,68,68)" stroke="none" font-family="helvetica" font-size="12pt" font-style="normal" font-weight="normal" text-decoration="normal" x="53.57083320617676" y="367.83203125" text-anchor="start" dominant-baseline="alphabetic" transform="matrix(0.7071067811865476, -0.7071067811865475, 0.7071067811865475, 0.7071067811865476, -232.49884293884998, 161.99103335978958)" fill-opacity="1">WT</text><text fill="rgb(68,68,68)" stroke="none" font-family="helvetica" font-size="12pt" font-style="normal" font-weight="normal" text-decoration="normal" x="43.49583435058594" y="367.83203125" text-anchor="start" dominant-baseline="alphabetic" transform="matrix(0.7071067811865476, -0.7071067811865475, 0.7071067811865475, 0.7071067811865476, -221.11261905747705, 189.47980947841663)" fill-opacity="1">napA-tlKO</text><text fill="rgb(68,68,68)" stroke="none" font-family="helvetica" font-size="12pt" font-style="normal" font-weight="normal" text-decoration="normal" x="84.15416717529297" y="367.83203125" text-anchor="start" dominant-baseline="alphabetic" transform="matrix(0.7071067811865476, -0.7071067811865475, 0.7071067811865475, 0.7071067811865476, -209.72639517610406, 216.96858559704367)" fill-opacity="1">narG-tlKO</text><text fill="rgb(68,68,68)" stroke="none" font-family="helvetica" font-size="12pt" font-style="normal" font-weight="normal" text-decoration="normal" x="125.7125015258789" y="367.83203125" text-anchor="start" dominant-baseline="alphabetic" transform="matrix(0.7071067811865476, -0.7071067811865475, 0.7071067811865475, 0.7071067811865476, -198.34017129473114, 244.4573617156707)" fill-opacity="1">narZ-tlKO</text><text fill="rgb(68,68,68)" stroke="none" font-family="helvetica" font-size="12pt" font-style="normal" font-weight="normal" text-decoration="normal" x="127.22083282470703" y="367.83203125" text-anchor="start" dominant-baseline="alphabetic" transform="matrix(0.7071067811865476, -0.7071067811865475, 0.7071067811865475, 0.7071067811865476, -186.95394741335815, 271.9461378342977)" fill-opacity="1">napAnarZ-tlKO</text><text fill="rgb(68,68,68)" stroke="none" font-family="helvetica" font-size="12pt" font-style="normal" font-weight="normal" text-decoration="normal" x="163.4124984741211" y="367.83203125" text-anchor="start" dominant-baseline="alphabetic" transform="matrix(0.7071067811865476, -0.7071067811865475, 0.7071067811865475, 0.7071067811865476, -175.56772353198517, 299.4349139529247)" fill-opacity="1">narGnapA-tlKO</text><text fill="rgb(68,68,68)" stroke="none" font-family="helvetica" font-size="12pt" font-style="normal" font-weight="normal" text-decoration="normal" x="206.75416564941406" y="367.83203125" text-anchor="start" dominant-baseline="alphabetic" transform="matrix(0.7071067811865476, -0.7071067811865475, 0.7071067811865475, 0.7071067811865476, -164.18149965061218, 326.9236900715518)" fill-opacity="1">narGnarZ-tlKO</text><text fill="rgb(68,68,68)" stroke="none" font-family="helvetica" font-size="12pt" font-style="normal" font-weight="normal" text-decoration="normal" x="208.2624969482422" y="367.83203125" text-anchor="start" dominant-baseline="alphabetic" transform="matrix(0.7071067811865476, -0.7071067811865475, 0.7071067811865475, 0.7071067811865476, -152.79527576923925, 354.41246619017886)" fill-opacity="1">napAnarZnarG-tlKO</text><text fill="rgb(128,128,128)" stroke="none" font-family="helvetica" font-size="11px" font-style="normal" font-weight="bold" text-decoration="normal" x="188.52499961853027" y="494.4604507775341" text-anchor="start" dominant-baseline="alphabetic" transform="matrix(1, 0, 0, 1, 0.5, 0.5)" fill-opacity="1">PCA, NO3</text><path fill="none" stroke="rgb(0,0,0)" paint-order="fill" d="M 59.5 351.5 L 59.5 31.5" stroke-opacity="1" stroke-linejoin="bevel" stroke-miterlimit="10" stroke-dasharray=""/><path fill="none" stroke="rgb(0,0,0)" paint-order="fill" d="M 53.5 323.5 L 61.5 323.5 M 53.5 269.5 L 61.5 269.5 M 53.5 214.5 L 61.5 214.5 M 53.5 159.5 L 61.5 159.5 M 53.5 104.5 L 61.5 104.5 M 53.5 49.5 L 61.5 49.5" stroke-opacity="1" stroke-linejoin="bevel" stroke-miterlimit="10" stroke-dasharray=""/><path fill="none" stroke="rgb(0,0,0)" paint-order="fill" d="M 55.5 334.5 L 59.5 334.5 M 55.5 345.5 L 59.5 345.5 M 55.5 323.5 L 59.5 323.5 M 55.5 312.5 L 59.5 312.5 M 55.5 301.5 L 59.5 301.5 M 55.5 290.5 L 59.5 290.5 M 55.5 279.5 L 59.5 279.5 M 55.5 269.5 L 59.5 269.5 M 55.5 258.5 L 59.5 258.5 M 55.5 247.5 L 59.5 247.5 M 55.5 236.5 L 59.5 236.5 M 55.5 225.5 L 59.5 225.5 M 55.5 214.5 L 59.5 214.5 M 55.5 203.5 L 59.5 203.5 M 55.5 192.5 L 59.5 192.5 M 55.5 181.5 L 59.5 181.5 M 55.5 170.5 L 59.5 170.5 M 55.5 159.5 L 59.5 159.5 M 55.5 148.5 L 59.5 148.5 M 55.5 137.5 L 59.5 137.5 M 55.5 126.5 L 59.5 126.5 M 55.5 115.5 L 59.5 115.5 M 55.5 104.5 L 59.5 104.5 M 55.5 93.5 L 59.5 93.5 M 55.5 82.5 L 59.5 82.5 M 55.5 71.5 L 59.5 71.5 M 55.5 60.5 L 59.5 60.5 M 55.5 49.5 L 59.5 49.5 M 55.5 38.5 L 59.5 38.5" stroke-opacity="1" stroke-linejoin="bevel" stroke-miterlimit="10" stroke-dasharray=""/><text fill="rgb(68,68,68)" stroke="none" font-family="helvetica" font-size="12pt" font-style="normal" font-weight="normal" text-decoration="normal" x="39.10000038146973" y="329.03265380859375" text-anchor="start" dominant-baseline="alphabetic" transform="matrix(1, 0, 0, 1, 0.5, 0.5)" fill-opacity="1">0</text><text fill="rgb(68,68,68)" stroke="none" font-family="helvetica" font-size="12pt" font-style="normal" font-weight="normal" text-decoration="normal" x="30.200000762939453" y="274.2558898925781" text-anchor="start" dominant-baseline="alphabetic" transform="matrix(1, 0, 0, 1, 0.5, 0.5)" fill-opacity="1">10</text><text fill="rgb(68,68,68)" stroke="none" font-family="helvetica" font-size="12pt" font-style="normal" font-weight="normal" text-decoration="normal" x="30.200000762939453" y="219.4791259765625" text-anchor="start" dominant-baseline="alphabetic" transform="matrix(1, 0, 0, 1, 0.5, 0.5)" fill-opacity="1">20</text><text fill="rgb(68,68,68)" stroke="none" font-family="helvetica" font-size="12pt" font-style="normal" font-weight="normal" text-decoration="normal" x="30.200000762939453" y="164.70236206054688" text-anchor="start" dominant-baseline="alphabetic" transform="matrix(1, 0, 0, 1, 0.5, 0.5)" fill-opacity="1">30</text><text fill="rgb(68,68,68)" stroke="none" font-family="helvetica" font-size="12pt" font-style="normal" font-weight="normal" text-decoration="normal" x="30.200000762939453" y="109.92560577392578" text-anchor="start" dominant-baseline="alphabetic" transform="matrix(1, 0, 0, 1, 0.5, 0.5)" fill-opacity="1">40</text><text fill="rgb(68,68,68)" stroke="none" font-family="helvetica" font-size="12pt" font-style="normal" font-weight="normal" text-decoration="normal" x="30.200000762939453" y="55.14884567260742" text-anchor="start" dominant-baseline="alphabetic" transform="matrix(1, 0, 0, 1, 0.5, 0.5)" fill-opacity="1">50</text><text fill="rgb(68,68,68)" stroke="none" font-family="helvetica" font-size="12pt" font-style="italic" font-weight="normal" text-decoration="normal" x="-121.15000534057617" y="187.4609375" text-anchor="start" dominant-baseline="alphabetic" transform="matrix(6.123233995736766e-17, -1, 1, 6.123233995736766e-17, -168.29999923706055, 213.70000076293945)" fill-opacity="1">Maximum PCAred oxidation rate (µM/hr)</text><path fill="none" stroke="none"/><text fill="rgb(68,68,68)" stroke="none" font-family="helvetica" font-size="12pt" font-style="normal" font-weight="bold" text-decoration="normal" x="0" y="0" text-anchor="start" dominant-baseline="text-after-edge" transform="matrix(1, 0, 0, 1, 59.5, 26.5)" fill-opacity="1">Standing + nitrate pregrowth; all nitrate reductase tlKOs</text></svg>