<svg version="1.1" xmlns="http://www.w3.org/2000/svg" xmlns:xlink="http://www.w3.org/1999/xlink" width="400" height="500"><defs><clipPath id="UTDJzlekEbhW"><path fill="none" stroke="none" d="M 59.5 31.5 L 370.5 31.5 L 370.5 351.5 L 59.5 351.5 L 59.5 31.5"/></clipPath><clipPath id="rJZUMhgsqVWH"><path fill="none" stroke="none" d="M 59.5 31.5 L 370.5 31.5 L 370.5 351.5 L 59.5 351.5 L 59.5 31.5"/></clipPath><clipPath id="pamxcynMdKUH"><path fill="none" stroke="none" d="M 59.5 31.5 L 370.5 31.5 L 370.5 351.5 L 59.5 351.5 L 59.5 31.5"/></clipPath><clipPath id="JbIzqxrHKCtL"><path fill="none" stroke="none" d="M 59.5 31.5 L 370.5 31.5 L 370.5 351.5 L 59.5 351.5 L 59.5 31.5"/></clipPath><clipPath id="MxIpKfiLukxz"><path fill="none" stroke="none" d="M 59.5 31.5 L 370.5 31.5 L 370.5 351.5 L 59.5 351.5 L 59.5 31.5"/></clipPath></defs><path fill="rgb(255,255,255)" stroke="none" paint-order="stroke" d="M 0.5 0.5 L 400.5 0.5 L 400.5 500.5 L 0.5 500.5 L 0.5 0.5" fill-opacity="1"/><rect fill="#FFFFFF" stroke="none" x="59" y="31" width="311" height="320" transform="matrix(1, 0, 0, 1, 0.5, 0.5)"/><path fill="rgb(255,255,255)" stroke="none" paint-order="stroke" d="M 59.5 31.5 L 370.5 31.5 L 370.5 351.5 L 59.5 351.5 L 59.5 31.5" fill-opacity="1"/><path fill="none" stroke="rgb(229,229,229)" paint-order="fill" d="M 59.5 31.5 L 370.5 31.5 L 370.5 351.5 L 59.5 351.5 L 59.5 31.5" stroke-opacity="1" stroke-linejoin="bevel" stroke-miterlimit="10" stroke-dasharray=""/><path fill="none" stroke="rgb(229,229,229)" paint-order="fill" d="M 59.5 323.5 L 370.5 323.5 M 59.5 246.5 L 370.5 246.5 M 59.5 169.5 L 370.5 169.5 M 59.5 92.5 L 370.5 92.5" stroke-opacity="1" stroke-linejoin="bevel" stroke-miterlimit="10" stroke-dasharray="" clip-path="url(#rJZUMhgsqVWH)"/><path fill="none" stroke="none"/><path fill="rgb(174,199,232)" stroke="rgb(0,0,0)" paint-order="fill" d="M 86.4793701171875 263.5158996582031 A 5 5 0 1 1 86.4793676171877 263.51089965903645" fill-opacity="1" clip-path="url(#pamxcynMdKUH)" stroke-opacity="0.7019607843137254" stroke-linejoin="bevel" stroke-miterlimit="10" stroke-width="2" stroke-dasharray=""/><path fill="rgb(174,199,232)" stroke="rgb(0,0,0)" paint-order="fill" d="M 85.24180603027344 262.23828125 A 5 5 0 1 1 85.24180353027364 262.23328125083333" fill-opacity="1" clip-path="url(#pamxcynMdKUH)" stroke-opacity="0.7019607843137254" stroke-linejoin="bevel" stroke-miterlimit="10" stroke-width="2" stroke-dasharray=""/><path fill="rgb(174,199,232)" stroke="rgb(0,0,0)" paint-order="fill" d="M 86.77141571044922 259.66766357421875 A 5 5 0 1 1 86.77141321044942 259.6626635750521" fill-opacity="1" clip-path="url(#pamxcynMdKUH)" stroke-opacity="0.7019607843137254" stroke-linejoin="bevel" stroke-miterlimit="10" stroke-width="2" stroke-dasharray=""/><path fill="rgb(174,199,232)" stroke="rgb(0,0,0)" paint-order="fill" d="M 83.91958618164062 266.08648681640625 A 5 5 0 1 1 83.91958368164083 266.0814868172396" fill-opacity="1" clip-path="url(#pamxcynMdKUH)" stroke-opacity="0.7019607843137254" stroke-linejoin="bevel" stroke-miterlimit="10" stroke-width="2" stroke-dasharray=""/><path fill="rgb(174,199,232)" stroke="rgb(0,0,0)" paint-order="fill" d="M 85.84297180175781 263.5158996582031 A 5 5 0 1 1 85.84296930175802 263.51089965903645" fill-opacity="1" clip-path="url(#pamxcynMdKUH)" stroke-opacity="0.7019607843137254" stroke-linejoin="bevel" stroke-miterlimit="10" stroke-width="2" stroke-dasharray=""/><path fill="rgb(174,199,232)" stroke="rgb(0,0,0)" paint-order="fill" d="M 81.92591094970703 259.66766357421875 A 5 5 0 1 1 81.92590844970724 259.6626635750521" fill-opacity="1" clip-path="url(#pamxcynMdKUH)" stroke-opacity="0.7019607843137254" stroke-linejoin="bevel" stroke-miterlimit="10" stroke-width="2" stroke-dasharray=""/><path fill="rgb(174,199,232)" stroke="rgb(0,0,0)" paint-order="fill" d="M 82.47317504882812 264.7934875488281 A 5 5 0 1 1 82.47317254882833 264.78848754966145" fill-opacity="1" clip-path="url(#pamxcynMdKUH)" stroke-opacity="0.7019607843137254" stroke-linejoin="bevel" stroke-miterlimit="10" stroke-width="2" stroke-dasharray=""/><path fill="rgb(174,199,232)" stroke="rgb(0,0,0)" paint-order="fill" d="M 76.98633575439453 257.0970764160156 A 5 5 0 1 1 76.98633325439474 257.09207641684895" fill-opacity="1" clip-path="url(#pamxcynMdKUH)" stroke-opacity="0.7019607843137254" stroke-linejoin="bevel" stroke-miterlimit="10" stroke-width="2" stroke-dasharray=""/><path fill="rgb(255,127,14)" stroke="rgb(0,0,0)" paint-order="fill" d="M 147.78759765625 210.91845703125 A 5 5 0 1 1 147.7875951562502 210.91345703208333" fill-opacity="1" clip-path="url(#pamxcynMdKUH)" stroke-opacity="0.7019607843137254" stroke-linejoin="bevel" stroke-miterlimit="10" stroke-width="2" stroke-dasharray=""/><path fill="rgb(255,127,14)" stroke="rgb(0,0,0)" paint-order="fill" d="M 153.1500701904297 240.4265899658203 A 5 5 0 1 1 153.1500676904299 240.42158996665364" fill-opacity="1" clip-path="url(#pamxcynMdKUH)" stroke-opacity="0.7019607843137254" stroke-linejoin="bevel" stroke-miterlimit="10" stroke-width="2" stroke-dasharray=""/><path fill="rgb(255,127,14)" stroke="rgb(0,0,0)" paint-order="fill" d="M 152.51617431640625 212.21145629882812 A 5 5 0 1 1 152.51617181640646 212.20645629966145" fill-opacity="1" clip-path="url(#pamxcynMdKUH)" stroke-opacity="0.7019607843137254" stroke-linejoin="bevel" stroke-miterlimit="10" stroke-width="2" stroke-dasharray=""/><path fill="rgb(152,223,138)" stroke="rgb(0,0,0)" paint-order="fill" d="M 184.08575439453125 242.9971923828125 A 5 5 0 1 1 184.08575189453146 242.99219238364583" fill-opacity="1" clip-path="url(#pamxcynMdKUH)" stroke-opacity="0.7019607843137254" stroke-linejoin="bevel" stroke-miterlimit="10" stroke-width="2" stroke-dasharray=""/><path fill="rgb(152,223,138)" stroke="rgb(0,0,0)" paint-order="fill" d="M 182.34585571289062 237.85597229003906 A 5 5 0 1 1 182.34585321289083 237.8509722908724" fill-opacity="1" clip-path="url(#pamxcynMdKUH)" stroke-opacity="0.7019607843137254" stroke-linejoin="bevel" stroke-miterlimit="10" stroke-width="2" stroke-dasharray=""/><path fill="rgb(152,223,138)" stroke="rgb(0,0,0)" paint-order="fill" d="M 188.2456512451172 237.85597229003906 A 5 5 0 1 1 188.2456487451174 237.8509722908724" fill-opacity="1" clip-path="url(#pamxcynMdKUH)" stroke-opacity="0.7019607843137254" stroke-linejoin="bevel" stroke-miterlimit="10" stroke-width="2" stroke-dasharray=""/><path fill="rgb(148,103,189)" stroke="rgb(0,0,0)" paint-order="fill" d="M 219.9209442138672 264.7934875488281 A 5 5 0 1 1 219.9209417138674 264.78848754966145" fill-opacity="1" clip-path="url(#pamxcynMdKUH)" stroke-opacity="0.7019607843137254" stroke-linejoin="bevel" stroke-miterlimit="10" stroke-width="2" stroke-dasharray=""/><path fill="rgb(148,103,189)" stroke="rgb(0,0,0)" paint-order="fill" d="M 224.71957397460938 263.5158996582031 A 5 5 0 1 1 224.71957147460958 263.51089965903645" fill-opacity="1" clip-path="url(#pamxcynMdKUH)" stroke-opacity="0.7019607843137254" stroke-linejoin="bevel" stroke-miterlimit="10" stroke-width="2" stroke-dasharray=""/><path fill="rgb(148,103,189)" stroke="rgb(0,0,0)" paint-order="fill" d="M 217.92935180664062 262.23828125 A 5 5 0 1 1 217.92934930664083 262.23328125083333" fill-opacity="1" clip-path="url(#pamxcynMdKUH)" stroke-opacity="0.7019607843137254" stroke-linejoin="bevel" stroke-miterlimit="10" stroke-width="2" stroke-dasharray=""/><path fill="rgb(255,187,120)" stroke="rgb(0,0,0)" paint-order="fill" d="M 256.28822326660156 178.8551025390625 A 5 5 0 1 1 256.2882207666018 178.85010253989583" fill-opacity="1" clip-path="url(#pamxcynMdKUH)" stroke-opacity="0.7019607843137254" stroke-linejoin="bevel" stroke-miterlimit="10" stroke-width="2" stroke-dasharray=""/><path fill="rgb(255,187,120)" stroke="rgb(0,0,0)" paint-order="fill" d="M 252.78805541992188 175.0068817138672 A 5 5 0 1 1 252.78805291992208 175.00188171470052" fill-opacity="1" clip-path="url(#pamxcynMdKUH)" stroke-opacity="0.7019607843137254" stroke-linejoin="bevel" stroke-miterlimit="10" stroke-width="2" stroke-dasharray=""/><path fill="rgb(255,187,120)" stroke="rgb(0,0,0)" paint-order="fill" d="M 258.2889404296875 171.15866088867188 A 5 5 0 1 1 258.28893792968773 171.1536608895052" fill-opacity="1" clip-path="url(#pamxcynMdKUH)" stroke-opacity="0.7019607843137254" stroke-linejoin="bevel" stroke-miterlimit="10" stroke-width="2" stroke-dasharray=""/><path fill="rgb(214,39,40)" stroke="rgb(0,0,0)" paint-order="fill" d="M 285.5911560058594 177.57749938964844 A 5 5 0 1 1 285.5911535058596 177.57249939048177" fill-opacity="1" clip-path="url(#pamxcynMdKUH)" stroke-opacity="0.7019607843137254" stroke-linejoin="bevel" stroke-miterlimit="10" stroke-width="2" stroke-dasharray=""/><path fill="rgb(214,39,40)" stroke="rgb(0,0,0)" paint-order="fill" d="M 290.1327819824219 181.4257049560547 A 5 5 0 1 1 290.1327794824221 181.42070495688802" fill-opacity="1" clip-path="url(#pamxcynMdKUH)" stroke-opacity="0.7019607843137254" stroke-linejoin="bevel" stroke-miterlimit="10" stroke-width="2" stroke-dasharray=""/><path fill="rgb(214,39,40)" stroke="rgb(0,0,0)" paint-order="fill" d="M 288.83990478515625 183.98092651367188 A 5 5 0 1 1 288.8399022851565 183.9759265145052" fill-opacity="1" clip-path="url(#pamxcynMdKUH)" stroke-opacity="0.7019607843137254" stroke-linejoin="bevel" stroke-miterlimit="10" stroke-width="2" stroke-dasharray=""/><path fill="rgb(255,152,150)" stroke="rgb(0,0,0)" paint-order="fill" d="M 323.8481750488281 213.4890594482422 A 5 5 0 1 1 323.84817254882836 213.48405944907552" fill-opacity="1" clip-path="url(#pamxcynMdKUH)" stroke-opacity="0.7019607843137254" stroke-linejoin="bevel" stroke-miterlimit="10" stroke-width="2" stroke-dasharray=""/><path fill="rgb(255,152,150)" stroke="rgb(0,0,0)" paint-order="fill" d="M 323.4888610839844 198.09619140625 A 5 5 0 1 1 323.4888585839846 198.09119140708333" fill-opacity="1" clip-path="url(#pamxcynMdKUH)" stroke-opacity="0.7019607843137254" stroke-linejoin="bevel" stroke-miterlimit="10" stroke-width="2" stroke-dasharray=""/><path fill="rgb(255,152,150)" stroke="rgb(0,0,0)" paint-order="fill" d="M 325.8452453613281 208.3632354736328 A 5 5 0 1 1 325.84524286132836 208.35823547446614" fill-opacity="1" clip-path="url(#pamxcynMdKUH)" stroke-opacity="0.7019607843137254" stroke-linejoin="bevel" stroke-miterlimit="10" stroke-width="2" stroke-dasharray=""/><path fill="none" stroke="none"/><path fill="rgb(174,199,232)" stroke="rgb(0,0,0)" paint-order="fill" d="M 66.72599029541016 262.3641052246094 L 76.72599029541016 262.3641052246094 L 76.72599029541016 272.3641052246094 L 66.72599029541016 272.3641052246094 L 66.72599029541016 262.3641052246094" fill-opacity="1" clip-path="url(#JbIzqxrHKCtL)" stroke-opacity="0.7019607843137254" stroke-linejoin="bevel" stroke-miterlimit="10" stroke-width="2" stroke-dasharray=""/><path fill="rgb(174,199,232)" stroke="rgb(0,0,0)" paint-order="fill" d="M 72.07173919677734 230.30076599121094 L 82.07173919677734 230.30076599121094 L 82.07173919677734 240.30076599121094 L 72.07173919677734 240.30076599121094 L 72.07173919677734 230.30076599121094" fill-opacity="1" clip-path="url(#JbIzqxrHKCtL)" stroke-opacity="0.7019607843137254" stroke-linejoin="bevel" stroke-miterlimit="10" stroke-width="2" stroke-dasharray=""/><path fill="rgb(174,199,232)" stroke="rgb(0,0,0)" paint-order="fill" d="M 73.34974670410156 264.9347229003906 L 83.34974670410156 264.9347229003906 L 83.34974670410156 274.9347229003906 L 73.34974670410156 274.9347229003906 L 73.34974670410156 264.9347229003906" fill-opacity="1" clip-path="url(#JbIzqxrHKCtL)" stroke-opacity="0.7019607843137254" stroke-linejoin="bevel" stroke-miterlimit="10" stroke-width="2" stroke-dasharray=""/><path fill="rgb(174,199,232)" stroke="rgb(0,0,0)" paint-order="fill" d="M 72.4670181274414 236.70419311523438 L 82.4670181274414 236.70419311523438 L 82.4670181274414 246.70419311523438 L 72.4670181274414 246.70419311523438 L 72.4670181274414 236.70419311523438" fill-opacity="1" clip-path="url(#JbIzqxrHKCtL)" stroke-opacity="0.7019607843137254" stroke-linejoin="bevel" stroke-miterlimit="10" stroke-width="2" stroke-dasharray=""/><path fill="rgb(174,199,232)" stroke="rgb(0,0,0)" paint-order="fill" d="M 76.67909240722656 253.39007568359375 L 86.67909240722656 253.39007568359375 L 86.67909240722656 263.39007568359375 L 76.67909240722656 263.39007568359375 L 76.67909240722656 253.39007568359375" fill-opacity="1" clip-path="url(#JbIzqxrHKCtL)" stroke-opacity="0.7019607843137254" stroke-linejoin="bevel" stroke-miterlimit="10" stroke-width="2" stroke-dasharray=""/><path fill="rgb(255,127,14)" stroke="rgb(0,0,0)" paint-order="fill" d="M 136.59312438964844 245.67823791503906 L 146.59312438964844 245.67823791503906 L 146.59312438964844 255.67823791503906 L 136.59312438964844 255.67823791503906 L 136.59312438964844 245.67823791503906" fill-opacity="1" clip-path="url(#JbIzqxrHKCtL)" stroke-opacity="0.7019607843137254" stroke-linejoin="bevel" stroke-miterlimit="10" stroke-width="2" stroke-dasharray=""/><path fill="rgb(152,223,138)" stroke="rgb(0,0,0)" paint-order="fill" d="M 171.3018798828125 198.22201538085938 L 181.3018798828125 198.22201538085938 L 181.3018798828125 208.22201538085938 L 171.3018798828125 208.22201538085938 L 171.3018798828125 198.22201538085938" fill-opacity="1" clip-path="url(#JbIzqxrHKCtL)" stroke-opacity="0.7019607843137254" stroke-linejoin="bevel" stroke-miterlimit="10" stroke-width="2" stroke-dasharray=""/><path fill="rgb(148,103,189)" stroke="rgb(0,0,0)" paint-order="fill" d="M 208.10475158691406 229.00775146484375 L 218.10475158691406 229.00775146484375 L 218.10475158691406 239.00775146484375 L 208.10475158691406 239.00775146484375 L 208.10475158691406 229.00775146484375" fill-opacity="1" clip-path="url(#JbIzqxrHKCtL)" stroke-opacity="0.7019607843137254" stroke-linejoin="bevel" stroke-miterlimit="10" stroke-width="2" stroke-dasharray=""/><path fill="rgb(255,127,14)" stroke="rgb(0,0,0)" paint-order="fill" d="M 138.2074432373047 225.1595458984375 L 148.2074432373047 225.1595458984375 L 148.2074432373047 235.1595458984375 L 138.2074432373047 235.1595458984375 L 138.2074432373047 225.1595458984375" fill-opacity="1" clip-path="url(#JbIzqxrHKCtL)" stroke-opacity="0.7019607843137254" stroke-linejoin="bevel" stroke-miterlimit="10" stroke-width="2" stroke-dasharray=""/><path fill="rgb(152,223,138)" stroke="rgb(0,0,0)" paint-order="fill" d="M 170.76876831054688 239.27479553222656 L 180.76876831054688 239.27479553222656 L 180.76876831054688 249.27479553222656 L 170.76876831054688 249.27479553222656 L 170.76876831054688 239.27479553222656" fill-opacity="1" clip-path="url(#JbIzqxrHKCtL)" stroke-opacity="0.7019607843137254" stroke-linejoin="bevel" stroke-miterlimit="10" stroke-width="2" stroke-dasharray=""/><path fill="rgb(148,103,189)" stroke="rgb(0,0,0)" paint-order="fill" d="M 205.46041870117188 253.39007568359375 L 215.46041870117188 253.39007568359375 L 215.46041870117188 263.39007568359375 L 205.46041870117188 263.39007568359375 L 205.46041870117188 253.39007568359375" fill-opacity="1" clip-path="url(#JbIzqxrHKCtL)" stroke-opacity="0.7019607843137254" stroke-linejoin="bevel" stroke-miterlimit="10" stroke-width="2" stroke-dasharray=""/><path fill="rgb(255,127,14)" stroke="rgb(0,0,0)" paint-order="fill" d="M 143.11761474609375 240.5524139404297 L 153.11761474609375 240.5524139404297 L 153.11761474609375 250.5524139404297 L 143.11761474609375 250.5524139404297 L 143.11761474609375 240.5524139404297" fill-opacity="1" clip-path="url(#JbIzqxrHKCtL)" stroke-opacity="0.7019607843137254" stroke-linejoin="bevel" stroke-miterlimit="10" stroke-width="2" stroke-dasharray=""/><path fill="rgb(152,223,138)" stroke="rgb(0,0,0)" paint-order="fill" d="M 175.7966766357422 177.7033233642578 L 185.7966766357422 177.7033233642578 L 185.7966766357422 187.7033233642578 L 175.7966766357422 187.7033233642578 L 175.7966766357422 177.7033233642578" fill-opacity="1" clip-path="url(#JbIzqxrHKCtL)" stroke-opacity="0.7019607843137254" stroke-linejoin="bevel" stroke-miterlimit="10" stroke-width="2" stroke-dasharray=""/><path fill="rgb(148,103,189)" stroke="rgb(0,0,0)" paint-order="fill" d="M 204.861083984375 230.30076599121094 L 214.861083984375 230.30076599121094 L 214.861083984375 240.30076599121094 L 204.861083984375 240.30076599121094 L 204.861083984375 230.30076599121094" fill-opacity="1" clip-path="url(#JbIzqxrHKCtL)" stroke-opacity="0.7019607843137254" stroke-linejoin="bevel" stroke-miterlimit="10" stroke-width="2" stroke-dasharray=""/><path fill="rgb(255,187,120)" stroke="rgb(0,0,0)" paint-order="fill" d="M 244.21533203125 211.04428100585938 L 254.21533203125 211.04428100585938 L 254.21533203125 221.04428100585938 L 244.21533203125 221.04428100585938 L 244.21533203125 211.04428100585938" fill-opacity="1" clip-path="url(#JbIzqxrHKCtL)" stroke-opacity="0.7019607843137254" stroke-linejoin="bevel" stroke-miterlimit="10" stroke-width="2" stroke-dasharray=""/><path fill="rgb(214,39,40)" stroke="rgb(0,0,0)" paint-order="fill" d="M 280.2886962890625 193.09619140625 L 290.2886962890625 193.09619140625 L 290.2886962890625 203.09619140625 L 280.2886962890625 203.09619140625 L 280.2886962890625 193.09619140625" fill-opacity="1" clip-path="url(#JbIzqxrHKCtL)" stroke-opacity="0.7019607843137254" stroke-linejoin="bevel" stroke-miterlimit="10" stroke-width="2" stroke-dasharray=""/><path fill="rgb(255,152,150)" stroke="rgb(0,0,0)" paint-order="fill" d="M 314.447021484375 41.738094329833984 L 324.447021484375 41.738094329833984 L 324.447021484375 51.738094329833984 L 314.447021484375 51.738094329833984 L 314.447021484375 41.738094329833984" fill-opacity="1" clip-path="url(#JbIzqxrHKCtL)" stroke-opacity="0.7019607843137254" stroke-linejoin="bevel" stroke-miterlimit="10" stroke-width="2" stroke-dasharray=""/><path fill="rgb(255,187,120)" stroke="rgb(0,0,0)" paint-order="fill" d="M 240.93478393554688 150.7657928466797 L 250.93478393554688 150.7657928466797 L 250.93478393554688 160.7657928466797 L 240.93478393554688 160.7657928466797 L 240.93478393554688 150.7657928466797" fill-opacity="1" clip-path="url(#JbIzqxrHKCtL)" stroke-opacity="0.7019607843137254" stroke-linejoin="bevel" stroke-miterlimit="10" stroke-width="2" stroke-dasharray=""/><path fill="rgb(214,39,40)" stroke="rgb(0,0,0)" paint-order="fill" d="M 275.7479553222656 161.0328369140625 L 285.7479553222656 161.0328369140625 L 285.7479553222656 171.0328369140625 L 275.7479553222656 171.0328369140625 L 275.7479553222656 161.0328369140625" fill-opacity="1" clip-path="url(#JbIzqxrHKCtL)" stroke-opacity="0.7019607843137254" stroke-linejoin="bevel" stroke-miterlimit="10" stroke-width="2" stroke-dasharray=""/><path fill="rgb(255,152,150)" stroke="rgb(0,0,0)" paint-order="fill" d="M 313.5848083496094 108.4354019165039 L 323.5848083496094 108.4354019165039 L 323.5848083496094 118.4354019165039 L 313.5848083496094 118.4354019165039 L 313.5848083496094 108.4354019165039" fill-opacity="1" clip-path="url(#JbIzqxrHKCtL)" stroke-opacity="0.7019607843137254" stroke-linejoin="bevel" stroke-miterlimit="10" stroke-width="2" stroke-dasharray=""/><path fill="rgb(255,187,120)" stroke="rgb(0,0,0)" paint-order="fill" d="M 247.46533203125 226.43714904785156 L 257.46533203125 226.43714904785156 L 257.46533203125 236.43714904785156 L 247.46533203125 236.43714904785156 L 247.46533203125 226.43714904785156" fill-opacity="1" clip-path="url(#JbIzqxrHKCtL)" stroke-opacity="0.7019607843137254" stroke-linejoin="bevel" stroke-miterlimit="10" stroke-width="2" stroke-dasharray=""/><path fill="rgb(214,39,40)" stroke="rgb(0,0,0)" paint-order="fill" d="M 281.37158203125 173.83970642089844 L 291.37158203125 173.83970642089844 L 291.37158203125 183.83970642089844 L 281.37158203125 183.83970642089844 L 281.37158203125 173.83970642089844" fill-opacity="1" clip-path="url(#JbIzqxrHKCtL)" stroke-opacity="0.7019607843137254" stroke-linejoin="bevel" stroke-miterlimit="10" stroke-width="2" stroke-dasharray=""/><path fill="none" stroke="rgb(0,0,0)" paint-order="fill" d="M 59.5 351.5 L 370.5 351.5" stroke-opacity="1" stroke-linejoin="bevel" stroke-miterlimit="10" stroke-dasharray=""/><path fill="none" stroke="rgb(0,0,0)" paint-order="fill" d="M 76.5 357.5 L 76.5 349.5 M 111.5 357.5 L 111.5 349.5 M 145.5 357.5 L 145.5 349.5 M 180.5 357.5 L 180.5 349.5 M 215.5 357.5 L 215.5 349.5 M 249.5 357.5 L 249.5 349.5 M 284.5 357.5 L 284.5 349.5 M 318.5 357.5 L 318.5 349.5 M 353.5 357.5 L 353.5 349.5" stroke-opacity="1" stroke-linejoin="bevel" stroke-miterlimit="10" stroke-dasharray=""/><path fill="none" stroke="rgb(0,0,0)" paint-order="fill" d="" stroke-opacity="1" stroke-linejoin="bevel" stroke-miterlimit="10" stroke-dasharray=""/><text fill="rgb(68,68,68)" stroke="none" font-family="helvetica" font-size="12pt" font-style="normal" font-weight="normal" text-decoration="normal" x="51.41111183166504" y="367.83203125" text-anchor="start" dominant-baseline="alphabetic" transform="matrix(0.7071067811865476, -0.7071067811865475, 0.7071067811865475, 0.7071067811865476, -233.13141068397096, 160.46387973039882)" fill-opacity="1">WT</text><text fill="rgb(68,68,68)" stroke="none" font-family="helvetica" font-size="12pt" font-style="normal" font-weight="normal" text-decoration="normal" x="62.81666946411133" y="367.83203125" text-anchor="start" dominant-baseline="alphabetic" transform="matrix(0.7071067811865476, -0.7071067811865475, 0.7071067811865475, 0.7071067811865476, -223.01032229283987, 184.89834859024432)" fill-opacity="1">Abiotic</text><text fill="rgb(68,68,68)" stroke="none" font-family="helvetica" font-size="12pt" font-style="normal" font-weight="normal" text-decoration="normal" x="71.57221984863281" y="367.83203125" text-anchor="start" dominant-baseline="alphabetic" transform="matrix(0.7071067811865476, -0.7071067811865475, 0.7071067811865475, 0.7071067811865476, -212.88923613630675, 209.3328120552932)" fill-opacity="1">napA-tlKO</text><text fill="rgb(68,68,68)" stroke="none" font-family="helvetica" font-size="12pt" font-style="normal" font-weight="normal" text-decoration="normal" x="107.9111099243164" y="367.83203125" text-anchor="start" dominant-baseline="alphabetic" transform="matrix(0.7071067811865476, -0.7071067811865475, 0.7071067811865475, 0.7071067811865476, -202.76814774517567, 233.7672809151387)" fill-opacity="1">narG-tlKO</text><text fill="rgb(68,68,68)" stroke="none" font-family="helvetica" font-size="12pt" font-style="normal" font-weight="normal" text-decoration="normal" x="145.1500015258789" y="367.83203125" text-anchor="start" dominant-baseline="alphabetic" transform="matrix(0.7071067811865476, -0.7071067811865475, 0.7071067811865475, 0.7071067811865476, -192.6470593540446, 258.2017497749842)" fill-opacity="1">narZ-tlKO</text><text fill="rgb(68,68,68)" stroke="none" font-family="helvetica" font-size="12pt" font-style="normal" font-weight="normal" text-decoration="normal" x="142.3388900756836" y="367.83203125" text-anchor="start" dominant-baseline="alphabetic" transform="matrix(0.7071067811865476, -0.7071067811865475, 0.7071067811865475, 0.7071067811865476, -182.52597096291356, 282.6362186348297)" fill-opacity="1">napAnarZ-tlKO</text><text fill="rgb(68,68,68)" stroke="none" font-family="helvetica" font-size="12pt" font-style="normal" font-weight="normal" text-decoration="normal" x="174.21111297607422" y="367.83203125" text-anchor="start" dominant-baseline="alphabetic" transform="matrix(0.7071067811865476, -0.7071067811865475, 0.7071067811865475, 0.7071067811865476, -172.40488257178254, 307.0706874946752)" fill-opacity="1">narGnapA-tlKO</text><text fill="rgb(68,68,68)" stroke="none" font-family="helvetica" font-size="12pt" font-style="normal" font-weight="normal" text-decoration="normal" x="213.2333221435547" y="367.83203125" text-anchor="start" dominant-baseline="alphabetic" transform="matrix(0.7071067811865476, -0.7071067811865475, 0.7071067811865475, 0.7071067811865476, -162.2837986498473, 331.5051455649275)" fill-opacity="1">narGnarZ-tlKO</text><text fill="rgb(68,68,68)" stroke="none" font-family="helvetica" font-size="12pt" font-style="normal" font-weight="normal" text-decoration="normal" x="210.42222595214844" y="367.83203125" text-anchor="start" dominant-baseline="alphabetic" transform="matrix(0.7071067811865476, -0.7071067811865475, 0.7071067811865475, 0.7071067811865476, -152.16270578952037, 355.9396252143662)" fill-opacity="1">napAnarZnarG-tlKO</text><text fill="rgb(128,128,128)" stroke="none" font-family="helvetica" font-size="11px" font-style="normal" font-weight="bold" text-decoration="normal" x="188.52499961853027" y="494.4604507775341" text-anchor="start" dominant-baseline="alphabetic" transform="matrix(1, 0, 0, 1, 0.5, 0.5)" fill-opacity="1">PCA, NO3</text><path fill="none" stroke="rgb(0,0,0)" paint-order="fill" d="M 59.5 351.5 L 59.5 31.5" stroke-opacity="1" stroke-linejoin="bevel" stroke-miterlimit="10" stroke-dasharray=""/><path fill="none" stroke="rgb(0,0,0)" paint-order="fill" d="M 53.5 323.5 L 61.5 323.5 M 53.5 246.5 L 61.5 246.5 M 53.5 169.5 L 61.5 169.5 M 53.5 92.5 L 61.5 92.5" stroke-opacity="1" stroke-linejoin="bevel" stroke-miterlimit="10" stroke-dasharray=""/><path fill="none" stroke="rgb(0,0,0)" paint-order="fill" d="M 55.5 339.5 L 59.5 339.5 M 55.5 323.5 L 59.5 323.5 M 55.5 308.5 L 59.5 308.5 M 55.5 293.5 L 59.5 293.5 M 55.5 277.5 L 59.5 277.5 M 55.5 262.5 L 59.5 262.5 M 55.5 246.5 L 59.5 246.5 M 55.5 231.5 L 59.5 231.5 M 55.5 216.5 L 59.5 216.5 M 55.5 200.5 L 59.5 200.5 M 55.5 185.5 L 59.5 185.5 M 55.5 169.5 L 59.5 169.5 M 55.5 154.5 L 59.5 154.5 M 55.5 139.5 L 59.5 139.5 M 55.5 123.5 L 59.5 123.5 M 55.5 108.5 L 59.5 108.5 M 55.5 92.5 L 59.5 92.5 M 55.5 77.5 L 59.5 77.5 M 55.5 62.5 L 59.5 62.5 M 55.5 46.5 L 59.5 46.5" stroke-opacity="1" stroke-linejoin="bevel" stroke-miterlimit="10" stroke-dasharray=""/><text fill="rgb(68,68,68)" stroke="none" font-family="helvetica" font-size="12pt" font-style="normal" font-weight="normal" text-decoration="normal" x="39.10000038146973" y="329.03265380859375" text-anchor="start" dominant-baseline="alphabetic" transform="matrix(1, 0, 0, 1, 0.5, 0.5)" fill-opacity="1">0</text><text fill="rgb(68,68,68)" stroke="none" font-family="helvetica" font-size="12pt" font-style="normal" font-weight="normal" text-decoration="normal" x="39.10000038146973" y="252.06829833984375" text-anchor="start" dominant-baseline="alphabetic" transform="matrix(1, 0, 0, 1, 0.5, 0.5)" fill-opacity="1">5</text><text fill="rgb(68,68,68)" stroke="none" font-family="helvetica" font-size="12pt" font-style="normal" font-weight="normal" text-decoration="normal" x="30.200000762939453" y="175.10394287109375" text-anchor="start" dominant-baseline="alphabetic" transform="matrix(1, 0, 0, 1, 0.5, 0.5)" fill-opacity="1">10</text><text fill="rgb(68,68,68)" stroke="none" font-family="helvetica" font-size="12pt" font-style="normal" font-weight="normal" text-decoration="normal" x="30.200000762939453" y="98.13959503173828" text-anchor="start" dominant-baseline="alphabetic" transform="matrix(1, 0, 0, 1, 0.5, 0.5)" fill-opacity="1">15</text><text fill="rgb(68,68,68)" stroke="none" font-family="helvetica" font-size="12pt" font-style="italic" font-weight="normal" text-decoration="normal" x="-128.7083396911621" y="187.4609375" text-anchor="start" dominant-baseline="alphabetic" transform="matrix(6.123233995736766e-17, -1, 1, 6.123233995736766e-17, -168.29999923706055, 213.70000076293945)" fill-opacity="1">Time to 50% max [PCAred] from max (hrs)</text><path fill="none" stroke="none"/><text fill="rgb(68,68,68)" stroke="none" font-family="helvetica" font-size="12pt" font-style="normal" font-weight="bold" text-decoration="normal" x="0" y="0" text-anchor="start" dominant-baseline="text-after-edge" transform="matrix(1, 0, 0, 1, 59.5, 26.5)" fill-opacity="1"> </text></svg>