<svg version="1.1" xmlns="http://www.w3.org/2000/svg" xmlns:xlink="http://www.w3.org/1999/xlink" width="800" height="400"><defs><clipPath id="detqQCWxIifF"><path fill="none" stroke="none" d="M 56.5 5.5 L 770.5 5.5 L 770.5 196.5 L 56.5 196.5 L 56.5 5.5"/></clipPath><clipPath id="PfFXMVkFSdNW"><path fill="none" stroke="none" d="M 56.5 5.5 L 770.5 5.5 L 770.5 196.5 L 56.5 196.5 L 56.5 5.5"/></clipPath><clipPath id="ZhNRuRvmaMer"><path fill="none" stroke="none" d="M 56.5 5.5 L 770.5 5.5 L 770.5 196.5 L 56.5 196.5 L 56.5 5.5"/></clipPath><clipPath id="KWvaEzTxbHPS"><path fill="none" stroke="none" d="M 56.5 5.5 L 770.5 5.5 L 770.5 196.5 L 56.5 196.5 L 56.5 5.5"/></clipPath><clipPath id="NLNzyDCXDxOz"><path fill="none" stroke="none" d="M 56.5 5.5 L 770.5 5.5 L 770.5 196.5 L 56.5 196.5 L 56.5 5.5"/></clipPath></defs><path fill="rgb(255,255,255)" stroke="none" paint-order="stroke" d="M 0.5 0.5 L 800.5 0.5 L 800.5 400.5 L 0.5 400.5 L 0.5 0.5" fill-opacity="1"/><rect fill="#FFFFFF" stroke="none" x="56" y="5" width="714" height="191" transform="matrix(1, 0, 0, 1, 0.5, 0.5)"/><path fill="rgb(255,255,255)" stroke="none" paint-order="stroke" d="M 56.5 5.5 L 770.5 5.5 L 770.5 196.5 L 56.5 196.5 L 56.5 5.5" fill-opacity="1"/><path fill="none" stroke="rgb(229,229,229)" paint-order="fill" d="M 56.5 5.5 L 770.5 5.5 L 770.5 196.5 L 56.5 196.5 L 56.5 5.5" stroke-opacity="1" stroke-linejoin="bevel" stroke-miterlimit="10" stroke-dasharray=""/><path fill="none" stroke="rgb(229,229,229)" paint-order="fill" d="M 56.5 179.5 L 770.5 179.5 M 56.5 155.5 L 770.5 155.5 M 56.5 131.5 L 770.5 131.5 M 56.5 106.5 L 770.5 106.5 M 56.5 82.5 L 770.5 82.5 M 56.5 58.5 L 770.5 58.5 M 56.5 33.5 L 770.5 33.5 M 56.5 9.5 L 770.5 9.5" stroke-opacity="1" stroke-linejoin="bevel" stroke-miterlimit="10" stroke-dasharray="" clip-path="url(#PfFXMVkFSdNW)"/><path fill="none" stroke="none"/><path fill="rgb(255,127,14)" stroke="rgb(0,0,0)" paint-order="fill" d="M 77.42032623291016 174.4714813232422 A 5 5 0 1 1 77.42032373291036 174.46648132407552" fill-opacity="1" clip-path="url(#ZhNRuRvmaMer)" stroke-opacity="0.7019607843137254" stroke-linejoin="bevel" stroke-miterlimit="10" stroke-width="2" stroke-dasharray=""/><path fill="rgb(255,127,14)" stroke="rgb(0,0,0)" paint-order="fill" d="M 261.504150390625 158.54696655273438 A 5 5 0 1 1 261.50414789062523 158.5419665535677" fill-opacity="1" clip-path="url(#ZhNRuRvmaMer)" stroke-opacity="0.7019607843137254" stroke-linejoin="bevel" stroke-miterlimit="10" stroke-width="2" stroke-dasharray=""/><path fill="rgb(255,127,14)" stroke="rgb(0,0,0)" paint-order="fill" d="M 446.30279541015625 174.80075073242188 A 5 5 0 1 1 446.3027929101565 174.7957507332552" fill-opacity="1" clip-path="url(#ZhNRuRvmaMer)" stroke-opacity="0.7019607843137254" stroke-linejoin="bevel" stroke-miterlimit="10" stroke-width="2" stroke-dasharray=""/><path fill="rgb(255,127,14)" stroke="rgb(0,0,0)" paint-order="fill" d="M 638.8873291015625 63.077449798583984 A 5 5 0 1 1 638.8873266015627 63.07244979941731" fill-opacity="1" clip-path="url(#ZhNRuRvmaMer)" stroke-opacity="0.7019607843137254" stroke-linejoin="bevel" stroke-miterlimit="10" stroke-width="2" stroke-dasharray=""/><path fill="rgb(255,127,14)" stroke="rgb(0,0,0)" paint-order="fill" d="M 70.5064697265625 176.06796264648438 A 5 5 0 1 1 70.5064672265627 176.0629626473177" fill-opacity="1" clip-path="url(#ZhNRuRvmaMer)" stroke-opacity="0.7019607843137254" stroke-linejoin="bevel" stroke-miterlimit="10" stroke-width="2" stroke-dasharray=""/><path fill="rgb(255,127,14)" stroke="rgb(0,0,0)" paint-order="fill" d="M 262.21832275390625 158.28822326660156 A 5 5 0 1 1 262.2183202539065 158.2832232674349" fill-opacity="1" clip-path="url(#ZhNRuRvmaMer)" stroke-opacity="0.7019607843137254" stroke-linejoin="bevel" stroke-miterlimit="10" stroke-width="2" stroke-dasharray=""/><path fill="rgb(255,127,14)" stroke="rgb(0,0,0)" paint-order="fill" d="M 448.1145935058594 175.9144744873047 A 5 5 0 1 1 448.1145910058596 175.90947448813802" fill-opacity="1" clip-path="url(#ZhNRuRvmaMer)" stroke-opacity="0.7019607843137254" stroke-linejoin="bevel" stroke-miterlimit="10" stroke-width="2" stroke-dasharray=""/><path fill="rgb(255,127,14)" stroke="rgb(0,0,0)" paint-order="fill" d="M 635.4031372070312 27.748525619506836 A 5 5 0 1 1 635.4031347070314 27.743525620340165" fill-opacity="1" clip-path="url(#ZhNRuRvmaMer)" stroke-opacity="0.7019607843137254" stroke-linejoin="bevel" stroke-miterlimit="10" stroke-width="2" stroke-dasharray=""/><path fill="rgb(255,127,14)" stroke="rgb(0,0,0)" paint-order="fill" d="M 72.33602142333984 177.7422637939453 A 5 5 0 1 1 72.33601892334005 177.73726379477864" fill-opacity="1" clip-path="url(#ZhNRuRvmaMer)" stroke-opacity="0.7019607843137254" stroke-linejoin="bevel" stroke-miterlimit="10" stroke-width="2" stroke-dasharray=""/><path fill="rgb(255,127,14)" stroke="rgb(0,0,0)" paint-order="fill" d="M 259.8698272705078 156.42974853515625 A 5 5 0 1 1 259.86982477050805 156.42474853598958" fill-opacity="1" clip-path="url(#ZhNRuRvmaMer)" stroke-opacity="0.7019607843137254" stroke-linejoin="bevel" stroke-miterlimit="10" stroke-width="2" stroke-dasharray=""/><path fill="rgb(255,127,14)" stroke="rgb(0,0,0)" paint-order="fill" d="M 447.7019348144531 175.59686279296875 A 5 5 0 1 1 447.70193231445336 175.59186279380208" fill-opacity="1" clip-path="url(#ZhNRuRvmaMer)" stroke-opacity="0.7019607843137254" stroke-linejoin="bevel" stroke-miterlimit="10" stroke-width="2" stroke-dasharray=""/><path fill="rgb(255,127,14)" stroke="rgb(0,0,0)" paint-order="fill" d="M 636.5767822265625 14.595237731933594 A 5 5 0 1 1 636.5767797265627 14.590237732766925" fill-opacity="1" clip-path="url(#ZhNRuRvmaMer)" stroke-opacity="0.7019607843137254" stroke-linejoin="bevel" stroke-miterlimit="10" stroke-width="2" stroke-dasharray=""/><path fill="rgb(174,199,232)" stroke="rgb(0,0,0)" paint-order="fill" d="M 123.2074966430664 178.073974609375 A 5 5 0 1 1 123.20749414306661 178.06897461020833" fill-opacity="1" clip-path="url(#ZhNRuRvmaMer)" stroke-opacity="0.7019607843137254" stroke-linejoin="bevel" stroke-miterlimit="10" stroke-width="2" stroke-dasharray=""/><path fill="rgb(174,199,232)" stroke="rgb(0,0,0)" paint-order="fill" d="M 315.7659606933594 174.76416015625 A 5 5 0 1 1 315.7659581933596 174.75916015708333" fill-opacity="1" clip-path="url(#ZhNRuRvmaMer)" stroke-opacity="0.7019607843137254" stroke-linejoin="bevel" stroke-miterlimit="10" stroke-width="2" stroke-dasharray=""/><path fill="rgb(174,199,232)" stroke="rgb(0,0,0)" paint-order="fill" d="M 499.9372863769531 175.5344696044922 A 5 5 0 1 1 499.93728387695336 175.52946960532552" fill-opacity="1" clip-path="url(#ZhNRuRvmaMer)" stroke-opacity="0.7019607843137254" stroke-linejoin="bevel" stroke-miterlimit="10" stroke-width="2" stroke-dasharray=""/><path fill="rgb(174,199,232)" stroke="rgb(0,0,0)" paint-order="fill" d="M 687.9560546875 156.97581481933594 A 5 5 0 1 1 687.9560521875002 156.97081482016927" fill-opacity="1" clip-path="url(#ZhNRuRvmaMer)" stroke-opacity="0.7019607843137254" stroke-linejoin="bevel" stroke-miterlimit="10" stroke-width="2" stroke-dasharray=""/><path fill="rgb(174,199,232)" stroke="rgb(0,0,0)" paint-order="fill" d="M 128.0680160522461 176.77732849121094 A 5 5 0 1 1 128.0680135522463 176.77232849204427" fill-opacity="1" clip-path="url(#ZhNRuRvmaMer)" stroke-opacity="0.7019607843137254" stroke-linejoin="bevel" stroke-miterlimit="10" stroke-width="2" stroke-dasharray=""/><path fill="rgb(174,199,232)" stroke="rgb(0,0,0)" paint-order="fill" d="M 315.4335021972656 176.47607421875 A 5 5 0 1 1 315.43349969726586 176.47107421958333" fill-opacity="1" clip-path="url(#ZhNRuRvmaMer)" stroke-opacity="0.7019607843137254" stroke-linejoin="bevel" stroke-miterlimit="10" stroke-width="2" stroke-dasharray=""/><path fill="rgb(174,199,232)" stroke="rgb(0,0,0)" paint-order="fill" d="M 502.8818664550781 175.85792541503906 A 5 5 0 1 1 502.88186395507836 175.8529254158724" fill-opacity="1" clip-path="url(#ZhNRuRvmaMer)" stroke-opacity="0.7019607843137254" stroke-linejoin="bevel" stroke-miterlimit="10" stroke-width="2" stroke-dasharray=""/><path fill="rgb(174,199,232)" stroke="rgb(0,0,0)" paint-order="fill" d="M 688.1032104492188 149.96188354492188 A 5 5 0 1 1 688.1032079492189 149.9568835457552" fill-opacity="1" clip-path="url(#ZhNRuRvmaMer)" stroke-opacity="0.7019607843137254" stroke-linejoin="bevel" stroke-miterlimit="10" stroke-width="2" stroke-dasharray=""/><path fill="rgb(174,199,232)" stroke="rgb(0,0,0)" paint-order="fill" d="M 124.18189239501953 176.9930877685547 A 5 5 0 1 1 124.18188989501974 176.98808776938802" fill-opacity="1" clip-path="url(#ZhNRuRvmaMer)" stroke-opacity="0.7019607843137254" stroke-linejoin="bevel" stroke-miterlimit="10" stroke-width="2" stroke-dasharray=""/><path fill="rgb(174,199,232)" stroke="rgb(0,0,0)" paint-order="fill" d="M 314.00128173828125 177.1431884765625 A 5 5 0 1 1 314.0012792382815 177.13818847739583" fill-opacity="1" clip-path="url(#ZhNRuRvmaMer)" stroke-opacity="0.7019607843137254" stroke-linejoin="bevel" stroke-miterlimit="10" stroke-width="2" stroke-dasharray=""/><path fill="rgb(174,199,232)" stroke="rgb(0,0,0)" paint-order="fill" d="M 500.2864074707031 175.5343017578125 A 5 5 0 1 1 500.28640497070336 175.52930175864583" fill-opacity="1" clip-path="url(#ZhNRuRvmaMer)" stroke-opacity="0.7019607843137254" stroke-linejoin="bevel" stroke-miterlimit="10" stroke-width="2" stroke-dasharray=""/><path fill="rgb(174,199,232)" stroke="rgb(0,0,0)" paint-order="fill" d="M 688.150390625 154.65281677246094 A 5 5 0 1 1 688.1503881250002 154.64781677329427" fill-opacity="1" clip-path="url(#ZhNRuRvmaMer)" stroke-opacity="0.7019607843137254" stroke-linejoin="bevel" stroke-miterlimit="10" stroke-width="2" stroke-dasharray=""/><path fill="rgb(255,187,120)" stroke="rgb(0,0,0)" paint-order="fill" d="M 153.14495849609375 173.99871826171875 A 5 5 0 1 1 153.14495599609396 173.99371826255208" fill-opacity="1" clip-path="url(#ZhNRuRvmaMer)" stroke-opacity="0.7019607843137254" stroke-linejoin="bevel" stroke-miterlimit="10" stroke-width="2" stroke-dasharray=""/><path fill="rgb(255,187,120)" stroke="rgb(0,0,0)" paint-order="fill" d="M 340.0686340332031 176.67835998535156 A 5 5 0 1 1 340.06863153320336 176.6733599861849" fill-opacity="1" clip-path="url(#ZhNRuRvmaMer)" stroke-opacity="0.7019607843137254" stroke-linejoin="bevel" stroke-miterlimit="10" stroke-width="2" stroke-dasharray=""/><path fill="rgb(255,187,120)" stroke="rgb(0,0,0)" paint-order="fill" d="M 524.1475830078125 171.7917022705078 A 5 5 0 1 1 524.1475805078127 171.78670227134114" fill-opacity="1" clip-path="url(#ZhNRuRvmaMer)" stroke-opacity="0.7019607843137254" stroke-linejoin="bevel" stroke-miterlimit="10" stroke-width="2" stroke-dasharray=""/><path fill="rgb(255,187,120)" stroke="rgb(0,0,0)" paint-order="fill" d="M 714.0067138671875 140.2977294921875 A 5 5 0 1 1 714.0067113671877 140.29272949302083" fill-opacity="1" clip-path="url(#ZhNRuRvmaMer)" stroke-opacity="0.7019607843137254" stroke-linejoin="bevel" stroke-miterlimit="10" stroke-width="2" stroke-dasharray=""/><path fill="rgb(255,187,120)" stroke="rgb(0,0,0)" paint-order="fill" d="M 149.1493377685547 177.0509796142578 A 5 5 0 1 1 149.1493352685549 177.04597961509114" fill-opacity="1" clip-path="url(#ZhNRuRvmaMer)" stroke-opacity="0.7019607843137254" stroke-linejoin="bevel" stroke-miterlimit="10" stroke-width="2" stroke-dasharray=""/><path fill="rgb(255,187,120)" stroke="rgb(0,0,0)" paint-order="fill" d="M 338.2848205566406 176.86367797851562 A 5 5 0 1 1 338.28481805664086 176.85867797934895" fill-opacity="1" clip-path="url(#ZhNRuRvmaMer)" stroke-opacity="0.7019607843137254" stroke-linejoin="bevel" stroke-miterlimit="10" stroke-width="2" stroke-dasharray=""/><path fill="rgb(255,187,120)" stroke="rgb(0,0,0)" paint-order="fill" d="M 526.4689331054688 174.05615234375 A 5 5 0 1 1 526.4689306054689 174.05115234458333" fill-opacity="1" clip-path="url(#ZhNRuRvmaMer)" stroke-opacity="0.7019607843137254" stroke-linejoin="bevel" stroke-miterlimit="10" stroke-width="2" stroke-dasharray=""/><path fill="rgb(255,187,120)" stroke="rgb(0,0,0)" paint-order="fill" d="M 709.9439697265625 136.5867919921875 A 5 5 0 1 1 709.9439672265627 136.58179199302083" fill-opacity="1" clip-path="url(#ZhNRuRvmaMer)" stroke-opacity="0.7019607843137254" stroke-linejoin="bevel" stroke-miterlimit="10" stroke-width="2" stroke-dasharray=""/><path fill="rgb(255,187,120)" stroke="rgb(0,0,0)" paint-order="fill" d="M 150.6591033935547 177.25558471679688 A 5 5 0 1 1 150.6591008935549 177.2505847176302" fill-opacity="1" clip-path="url(#ZhNRuRvmaMer)" stroke-opacity="0.7019607843137254" stroke-linejoin="bevel" stroke-miterlimit="10" stroke-width="2" stroke-dasharray=""/><path fill="rgb(255,187,120)" stroke="rgb(0,0,0)" paint-order="fill" d="M 339.9532470703125 174.75352478027344 A 5 5 0 1 1 339.95324457031273 174.74852478110677" fill-opacity="1" clip-path="url(#ZhNRuRvmaMer)" stroke-opacity="0.7019607843137254" stroke-linejoin="bevel" stroke-miterlimit="10" stroke-width="2" stroke-dasharray=""/><path fill="rgb(255,187,120)" stroke="rgb(0,0,0)" paint-order="fill" d="M 525.9337768554688 171.8080596923828 A 5 5 0 1 1 525.9337743554689 171.80305969321614" fill-opacity="1" clip-path="url(#ZhNRuRvmaMer)" stroke-opacity="0.7019607843137254" stroke-linejoin="bevel" stroke-miterlimit="10" stroke-width="2" stroke-dasharray=""/><path fill="rgb(255,187,120)" stroke="rgb(0,0,0)" paint-order="fill" d="M 710.5262451171875 134.37445068359375 A 5 5 0 1 1 710.5262426171877 134.36945068442708" fill-opacity="1" clip-path="url(#ZhNRuRvmaMer)" stroke-opacity="0.7019607843137254" stroke-linejoin="bevel" stroke-miterlimit="10" stroke-width="2" stroke-dasharray=""/><path fill="rgb(44,160,44)" stroke="rgb(0,0,0)" paint-order="fill" d="M 177.7261505126953 174.2614288330078 A 5 5 0 1 1 177.72614801269552 174.25642883384114" fill-opacity="1" clip-path="url(#ZhNRuRvmaMer)" stroke-opacity="0.7019607843137254" stroke-linejoin="bevel" stroke-miterlimit="10" stroke-width="2" stroke-dasharray=""/><path fill="rgb(44,160,44)" stroke="rgb(0,0,0)" paint-order="fill" d="M 363.716796875 176.57936096191406 A 5 5 0 1 1 363.71679437500023 176.5743609627474" fill-opacity="1" clip-path="url(#ZhNRuRvmaMer)" stroke-opacity="0.7019607843137254" stroke-linejoin="bevel" stroke-miterlimit="10" stroke-width="2" stroke-dasharray=""/><path fill="rgb(44,160,44)" stroke="rgb(0,0,0)" paint-order="fill" d="M 553.4974975585938 166.65447998046875 A 5 5 0 1 1 553.4974950585939 166.64947998130208" fill-opacity="1" clip-path="url(#ZhNRuRvmaMer)" stroke-opacity="0.7019607843137254" stroke-linejoin="bevel" stroke-miterlimit="10" stroke-width="2" stroke-dasharray=""/><path fill="rgb(44,160,44)" stroke="rgb(0,0,0)" paint-order="fill" d="M 741.2230834960938 176.21116638183594 A 5 5 0 1 1 741.2230809960939 176.20616638266927" fill-opacity="1" clip-path="url(#ZhNRuRvmaMer)" stroke-opacity="0.7019607843137254" stroke-linejoin="bevel" stroke-miterlimit="10" stroke-width="2" stroke-dasharray=""/><path fill="rgb(44,160,44)" stroke="rgb(0,0,0)" paint-order="fill" d="M 176.84938049316406 177.35458374023438 A 5 5 0 1 1 176.84937799316427 177.3495837410677" fill-opacity="1" clip-path="url(#ZhNRuRvmaMer)" stroke-opacity="0.7019607843137254" stroke-linejoin="bevel" stroke-miterlimit="10" stroke-width="2" stroke-dasharray=""/><path fill="rgb(44,160,44)" stroke="rgb(0,0,0)" paint-order="fill" d="M 361.1486511230469 176.8977508544922 A 5 5 0 1 1 361.1486486230471 176.89275085532552" fill-opacity="1" clip-path="url(#ZhNRuRvmaMer)" stroke-opacity="0.7019607843137254" stroke-linejoin="bevel" stroke-miterlimit="10" stroke-width="2" stroke-dasharray=""/><path fill="rgb(44,160,44)" stroke="rgb(0,0,0)" paint-order="fill" d="M 549.4723510742188 169.3438720703125 A 5 5 0 1 1 549.4723485742189 169.33887207114583" fill-opacity="1" clip-path="url(#ZhNRuRvmaMer)" stroke-opacity="0.7019607843137254" stroke-linejoin="bevel" stroke-miterlimit="10" stroke-width="2" stroke-dasharray=""/><path fill="rgb(44,160,44)" stroke="rgb(0,0,0)" paint-order="fill" d="M 739.9701538085938 176.80191040039062 A 5 5 0 1 1 739.9701513085939 176.79691040122395" fill-opacity="1" clip-path="url(#ZhNRuRvmaMer)" stroke-opacity="0.7019607843137254" stroke-linejoin="bevel" stroke-miterlimit="10" stroke-width="2" stroke-dasharray=""/><path fill="rgb(44,160,44)" stroke="rgb(0,0,0)" paint-order="fill" d="M 178.54664611816406 177.7320098876953 A 5 5 0 1 1 178.54664361816427 177.72700988852864" fill-opacity="1" clip-path="url(#ZhNRuRvmaMer)" stroke-opacity="0.7019607843137254" stroke-linejoin="bevel" stroke-miterlimit="10" stroke-width="2" stroke-dasharray=""/><path fill="rgb(44,160,44)" stroke="rgb(0,0,0)" paint-order="fill" d="M 363.9580993652344 176.67495727539062 A 5 5 0 1 1 363.9580968652346 176.66995727622395" fill-opacity="1" clip-path="url(#ZhNRuRvmaMer)" stroke-opacity="0.7019607843137254" stroke-linejoin="bevel" stroke-miterlimit="10" stroke-width="2" stroke-dasharray=""/><path fill="rgb(44,160,44)" stroke="rgb(0,0,0)" paint-order="fill" d="M 550.0116577148438 168.63014221191406 A 5 5 0 1 1 550.0116552148439 168.6251422127474" fill-opacity="1" clip-path="url(#ZhNRuRvmaMer)" stroke-opacity="0.7019607843137254" stroke-linejoin="bevel" stroke-miterlimit="10" stroke-width="2" stroke-dasharray=""/><path fill="rgb(44,160,44)" stroke="rgb(0,0,0)" paint-order="fill" d="M 735.7310180664062 177.21926879882812 A 5 5 0 1 1 735.7310155664064 177.21426879966145" fill-opacity="1" clip-path="url(#ZhNRuRvmaMer)" stroke-opacity="0.7019607843137254" stroke-linejoin="bevel" stroke-miterlimit="10" stroke-width="2" stroke-dasharray=""/><path fill="rgb(152,223,138)" stroke="rgb(0,0,0)" paint-order="fill" d="M 200.6139373779297 175.0258331298828 A 5 5 0 1 1 200.6139348779299 175.02083313071614" fill-opacity="1" clip-path="url(#ZhNRuRvmaMer)" stroke-opacity="0.7019607843137254" stroke-linejoin="bevel" stroke-miterlimit="10" stroke-width="2" stroke-dasharray=""/><path fill="rgb(152,223,138)" stroke="rgb(0,0,0)" paint-order="fill" d="M 385.24066162109375 177.55543518066406 A 5 5 0 1 1 385.240659121094 177.5504351814974" fill-opacity="1" clip-path="url(#ZhNRuRvmaMer)" stroke-opacity="0.7019607843137254" stroke-linejoin="bevel" stroke-miterlimit="10" stroke-width="2" stroke-dasharray=""/><path fill="rgb(152,223,138)" stroke="rgb(0,0,0)" paint-order="fill" d="M 572.913818359375 164.80020141601562 A 5 5 0 1 1 572.9138158593752 164.79520141684895" fill-opacity="1" clip-path="url(#ZhNRuRvmaMer)" stroke-opacity="0.7019607843137254" stroke-linejoin="bevel" stroke-miterlimit="10" stroke-width="2" stroke-dasharray=""/><path fill="rgb(152,223,138)" stroke="rgb(0,0,0)" paint-order="fill" d="M 761.081298828125 175.42530822753906 A 5 5 0 1 1 761.0812963281252 175.4203082283724" fill-opacity="1" clip-path="url(#ZhNRuRvmaMer)" stroke-opacity="0.7019607843137254" stroke-linejoin="bevel" stroke-miterlimit="10" stroke-width="2" stroke-dasharray=""/><path fill="rgb(152,223,138)" stroke="rgb(0,0,0)" paint-order="fill" d="M 198.5965576171875 176.01327514648438 A 5 5 0 1 1 198.5965551171877 176.0082751473177" fill-opacity="1" clip-path="url(#ZhNRuRvmaMer)" stroke-opacity="0.7019607843137254" stroke-linejoin="bevel" stroke-miterlimit="10" stroke-width="2" stroke-dasharray=""/><path fill="rgb(152,223,138)" stroke="rgb(0,0,0)" paint-order="fill" d="M 391.5715026855469 177.6636962890625 A 5 5 0 1 1 391.5715001855471 177.65869628989583" fill-opacity="1" clip-path="url(#ZhNRuRvmaMer)" stroke-opacity="0.7019607843137254" stroke-linejoin="bevel" stroke-miterlimit="10" stroke-width="2" stroke-dasharray=""/><path fill="rgb(152,223,138)" stroke="rgb(0,0,0)" paint-order="fill" d="M 576.2587280273438 168.27513122558594 A 5 5 0 1 1 576.2587255273439 168.27013122641927" fill-opacity="1" clip-path="url(#ZhNRuRvmaMer)" stroke-opacity="0.7019607843137254" stroke-linejoin="bevel" stroke-miterlimit="10" stroke-width="2" stroke-dasharray=""/><path fill="rgb(152,223,138)" stroke="rgb(0,0,0)" paint-order="fill" d="M 759.7969360351562 175.62405395507812 A 5 5 0 1 1 759.7969335351564 175.61905395591145" fill-opacity="1" clip-path="url(#ZhNRuRvmaMer)" stroke-opacity="0.7019607843137254" stroke-linejoin="bevel" stroke-miterlimit="10" stroke-width="2" stroke-dasharray=""/><path fill="rgb(152,223,138)" stroke="rgb(0,0,0)" paint-order="fill" d="M 197.302734375 175.69918823242188 A 5 5 0 1 1 197.3027318750002 175.6941882332552" fill-opacity="1" clip-path="url(#ZhNRuRvmaMer)" stroke-opacity="0.7019607843137254" stroke-linejoin="bevel" stroke-miterlimit="10" stroke-width="2" stroke-dasharray=""/><path fill="rgb(152,223,138)" stroke="rgb(0,0,0)" paint-order="fill" d="M 387.97467041015625 178.12225341796875 A 5 5 0 1 1 387.9746679101565 178.11725341880208" fill-opacity="1" clip-path="url(#ZhNRuRvmaMer)" stroke-opacity="0.7019607843137254" stroke-linejoin="bevel" stroke-miterlimit="10" stroke-width="2" stroke-dasharray=""/><path fill="rgb(152,223,138)" stroke="rgb(0,0,0)" paint-order="fill" d="M 572.4632568359375 168.08819580078125 A 5 5 0 1 1 572.4632543359377 168.08319580161458" fill-opacity="1" clip-path="url(#ZhNRuRvmaMer)" stroke-opacity="0.7019607843137254" stroke-linejoin="bevel" stroke-miterlimit="10" stroke-width="2" stroke-dasharray=""/><path fill="rgb(152,223,138)" stroke="rgb(0,0,0)" paint-order="fill" d="M 764.99072265625 175.93780517578125 A 5 5 0 1 1 764.9907201562502 175.93280517661458" fill-opacity="1" clip-path="url(#ZhNRuRvmaMer)" stroke-opacity="0.7019607843137254" stroke-linejoin="bevel" stroke-miterlimit="10" stroke-width="2" stroke-dasharray=""/><path fill="none" stroke="none"/><path fill="rgb(31,119,180)" stroke="rgb(0,0,0)" paint-order="fill" d="M 93.01681518554688 172.14405822753906 L 103.01681518554688 172.14405822753906 L 103.01681518554688 182.14405822753906 L 93.01681518554688 182.14405822753906 L 93.01681518554688 172.14405822753906" fill-opacity="1" clip-path="url(#KWvaEzTxbHPS)" stroke-opacity="0.7019607843137254" stroke-linejoin="bevel" stroke-miterlimit="10" stroke-width="2" stroke-dasharray=""/><path fill="rgb(31,119,180)" stroke="rgb(0,0,0)" paint-order="fill" d="M 276.1698303222656 171.5424346923828 L 286.1698303222656 171.5424346923828 L 286.1698303222656 181.5424346923828 L 276.1698303222656 181.5424346923828 L 276.1698303222656 171.5424346923828" fill-opacity="1" clip-path="url(#KWvaEzTxbHPS)" stroke-opacity="0.7019607843137254" stroke-linejoin="bevel" stroke-miterlimit="10" stroke-width="2" stroke-dasharray=""/><path fill="rgb(31,119,180)" stroke="rgb(0,0,0)" paint-order="fill" d="M 464.5057678222656 167.61550903320312 L 474.5057678222656 167.61550903320312 L 474.5057678222656 177.61550903320312 L 464.5057678222656 177.61550903320312 L 464.5057678222656 167.61550903320312" fill-opacity="1" clip-path="url(#KWvaEzTxbHPS)" stroke-opacity="0.7019607843137254" stroke-linejoin="bevel" stroke-miterlimit="10" stroke-width="2" stroke-dasharray=""/><path fill="rgb(31,119,180)" stroke="rgb(0,0,0)" paint-order="fill" d="M 654.51513671875 171.0059814453125 L 664.51513671875 171.0059814453125 L 664.51513671875 181.0059814453125 L 654.51513671875 181.0059814453125 L 654.51513671875 171.0059814453125" fill-opacity="1" clip-path="url(#KWvaEzTxbHPS)" stroke-opacity="0.7019607843137254" stroke-linejoin="bevel" stroke-miterlimit="10" stroke-width="2" stroke-dasharray=""/><path fill="none" stroke="rgb(0,0,0)" paint-order="fill" d="M 56.5 196.5 L 770.5 196.5" stroke-opacity="1" stroke-linejoin="bevel" stroke-miterlimit="10" stroke-dasharray=""/><path fill="none" stroke="rgb(0,0,0)" paint-order="fill" d="M 69.5 202.5 L 69.5 194.5 M 256.5 202.5 L 256.5 194.5 M 443.5 202.5 L 443.5 194.5 M 631.5 202.5 L 631.5 194.5 M 94.5 202.5 L 94.5 194.5 M 281.5 202.5 L 281.5 194.5 M 469.5 202.5 L 469.5 194.5 M 656.5 202.5 L 656.5 194.5 M 119.5 202.5 L 119.5 194.5 M 307.5 202.5 L 307.5 194.5 M 494.5 202.5 L 494.5 194.5 M 681.5 202.5 L 681.5 194.5 M 145.5 202.5 L 145.5 194.5 M 332.5 202.5 L 332.5 194.5 M 519.5 202.5 L 519.5 194.5 M 707.5 202.5 L 707.5 194.5 M 170.5 202.5 L 170.5 194.5 M 357.5 202.5 L 357.5 194.5 M 545.5 202.5 L 545.5 194.5 M 732.5 202.5 L 732.5 194.5 M 195.5 202.5 L 195.5 194.5 M 383.5 202.5 L 383.5 194.5 M 570.5 202.5 L 570.5 194.5 M 757.5 202.5 L 757.5 194.5" stroke-opacity="1" stroke-linejoin="bevel" stroke-miterlimit="10" stroke-dasharray=""/><path fill="none" stroke="rgb(0,0,0)" paint-order="fill" d="" stroke-opacity="1" stroke-linejoin="bevel" stroke-miterlimit="10" stroke-dasharray=""/><text fill="rgb(68,68,68)" stroke="none" font-family="helvetica" font-size="12pt" font-style="normal" font-weight="normal" text-decoration="normal" x="35.75957489013672" y="212.83203125" text-anchor="start" dominant-baseline="alphabetic" transform="matrix(0.7071067811865476, -0.7071067811865475, 0.7071067811865475, 0.7071067811865476, -125.7611793667603, 109.67854837154525)" fill-opacity="1">MBL</text><text fill="rgb(68,68,68)" stroke="none" font-family="helvetica" font-size="12pt" font-style="normal" font-weight="normal" text-decoration="normal" x="223.12126922607422" y="212.83203125" text-anchor="start" dominant-baseline="alphabetic" transform="matrix(0.7071067811865476, -0.7071067811865475, 0.7071067811865475, 0.7071067811865476, -70.88420963036538, 242.1632729710878)" fill-opacity="1">MBL</text><text fill="rgb(68,68,68)" stroke="none" font-family="helvetica" font-size="12pt" font-style="normal" font-weight="normal" text-decoration="normal" x="410.48299407958984" y="212.83203125" text-anchor="start" dominant-baseline="alphabetic" transform="matrix(0.7071067811865476, -0.7071067811865475, 0.7071067811865475, 0.7071067811865476, -16.007230955578734, 374.6480191498167)" fill-opacity="1">MBL</text><text fill="rgb(68,68,68)" stroke="none" font-family="helvetica" font-size="12pt" font-style="normal" font-weight="normal" text-decoration="normal" x="597.8446884155273" y="212.83203125" text-anchor="start" dominant-baseline="alphabetic" transform="matrix(0.7071067811865476, -0.7071067811865475, 0.7071067811865475, 0.7071067811865476, 38.86973878081619, 507.1327437493593)" fill-opacity="1">MBL</text><text fill="rgb(68,68,68)" stroke="none" font-family="helvetica" font-size="12pt" font-style="normal" font-weight="normal" text-decoration="normal" x="45.96205520629883" y="212.83203125" text-anchor="start" dominant-baseline="alphabetic" transform="matrix(0.7071067811865476, -0.7071067811865475, 0.7071067811865475, 0.7071067811865476, -118.34537343075485, 127.58188763817651)" fill-opacity="1">Abiotic</text><text fill="rgb(68,68,68)" stroke="none" font-family="helvetica" font-size="12pt" font-style="normal" font-weight="normal" text-decoration="normal" x="233.32375717163086" y="212.83203125" text-anchor="start" dominant-baseline="alphabetic" transform="matrix(0.7071067811865476, -0.7071067811865475, 0.7071067811865475, 0.7071067811865476, -63.46840145976199, 260.06661763251566)" fill-opacity="1">Abiotic</text><text fill="rgb(68,68,68)" stroke="none" font-family="helvetica" font-size="12pt" font-style="normal" font-weight="normal" text-decoration="normal" x="420.68545150756836" y="212.83203125" text-anchor="start" dominant-baseline="alphabetic" transform="matrix(0.7071067811865476, -0.7071067811865475, 0.7071067811865475, 0.7071067811865476, -8.591431723367066, 392.55134223205823)" fill-opacity="1">Abiotic</text><text fill="rgb(68,68,68)" stroke="none" font-family="helvetica" font-size="12pt" font-style="normal" font-weight="normal" text-decoration="normal" x="608.047176361084" y="212.83203125" text-anchor="start" dominant-baseline="alphabetic" transform="matrix(0.7071067811865476, -0.7071067811865475, 0.7071067811865475, 0.7071067811865476, 46.28554695141952, 525.0360884107872)" fill-opacity="1">Abiotic</text><text fill="rgb(68,68,68)" stroke="none" font-family="helvetica" font-size="12pt" font-style="normal" font-weight="normal" text-decoration="normal" x="75.73120880126953" y="212.83203125" text-anchor="start" dominant-baseline="alphabetic" transform="matrix(0.7071067811865476, -0.7071067811865475, 0.7071067811865475, 0.7071067811865476, -110.92956526015149, 145.48523229960438)" fill-opacity="1">E. coli</text><text fill="rgb(68,68,68)" stroke="none" font-family="helvetica" font-size="12pt" font-style="normal" font-weight="normal" text-decoration="normal" x="263.09291076660156" y="212.83203125" text-anchor="start" dominant-baseline="alphabetic" transform="matrix(0.7071067811865476, -0.7071067811865475, 0.7071067811865475, 0.7071067811865476, -56.05259328915861, 277.9699622939435)" fill-opacity="1">E. coli</text><text fill="rgb(68,68,68)" stroke="none" font-family="helvetica" font-size="12pt" font-style="normal" font-weight="normal" text-decoration="normal" x="450.45460510253906" y="212.83203125" text-anchor="start" dominant-baseline="alphabetic" transform="matrix(0.7071067811865476, -0.7071067811865475, 0.7071067811865475, 0.7071067811865476, -1.1756235527636818, 410.45468689348604)" fill-opacity="1">E. coli</text><text fill="rgb(68,68,68)" stroke="none" font-family="helvetica" font-size="12pt" font-style="normal" font-weight="normal" text-decoration="normal" x="637.8163299560547" y="212.83203125" text-anchor="start" dominant-baseline="alphabetic" transform="matrix(0.7071067811865476, -0.7071067811865475, 0.7071067811865475, 0.7071067811865476, 53.70135512202296, 542.939433072215)" fill-opacity="1">E. coli</text><text fill="rgb(68,68,68)" stroke="none" font-family="helvetica" font-size="12pt" font-style="normal" font-weight="normal" text-decoration="normal" x="1.667022705078125" y="212.83203125" text-anchor="start" dominant-baseline="alphabetic" transform="matrix(0.7071067811865476, -0.7071067811865475, 0.7071067811865475, 0.7071067811865476, -103.51375932414604, 163.38857156623564)" fill-opacity="1">P. aeruginosa ∆phz*</text><text fill="rgb(68,68,68)" stroke="none" font-family="helvetica" font-size="12pt" font-style="normal" font-weight="normal" text-decoration="normal" x="189.02870178222656" y="212.83203125" text-anchor="start" dominant-baseline="alphabetic" transform="matrix(0.7071067811865476, -0.7071067811865475, 0.7071067811865475, 0.7071067811865476, -48.63679405694694, 295.873285376185)" fill-opacity="1">P. aeruginosa ∆phz*</text><text fill="rgb(68,68,68)" stroke="none" font-family="helvetica" font-size="12pt" font-style="normal" font-weight="normal" text-decoration="normal" x="376.39039611816406" y="212.83203125" text-anchor="start" dominant-baseline="alphabetic" transform="matrix(0.7071067811865476, -0.7071067811865475, 0.7071067811865475, 0.7071067811865476, 6.24017567944793, 428.35800997572755)" fill-opacity="1">P. aeruginosa ∆phz*</text><text fill="rgb(68,68,68)" stroke="none" font-family="helvetica" font-size="12pt" font-style="normal" font-weight="normal" text-decoration="normal" x="563.7521514892578" y="212.83203125" text-anchor="start" dominant-baseline="alphabetic" transform="matrix(0.7071067811865476, -0.7071067811865475, 0.7071067811865475, 0.7071067811865476, 61.11716329262629, 560.842777733643)" fill-opacity="1">P. aeruginosa ∆phz*</text><text fill="rgb(68,68,68)" stroke="none" font-family="helvetica" font-size="12pt" font-style="normal" font-weight="normal" text-decoration="normal" x="-19.230499267578125" y="212.83203125" text-anchor="start" dominant-baseline="alphabetic" transform="matrix(0.7071067811865476, -0.7071067811865475, 0.7071067811865475, 0.7071067811865476, -96.09795115354268, 181.29191622766353)" fill-opacity="1">P. aureofaciens phzB::lacZ</text><text fill="rgb(68,68,68)" stroke="none" font-family="helvetica" font-size="12pt" font-style="normal" font-weight="normal" text-decoration="normal" x="168.1311798095703" y="212.83203125" text-anchor="start" dominant-baseline="alphabetic" transform="matrix(0.7071067811865476, -0.7071067811865475, 0.7071067811865475, 0.7071067811865476, -41.220985886343556, 313.77663003761285)" fill-opacity="1">P. aureofaciens phzB::lacZ</text><text fill="rgb(68,68,68)" stroke="none" font-family="helvetica" font-size="12pt" font-style="normal" font-weight="normal" text-decoration="normal" x="355.4928741455078" y="212.83203125" text-anchor="start" dominant-baseline="alphabetic" transform="matrix(0.7071067811865476, -0.7071067811865475, 0.7071067811865475, 0.7071067811865476, 13.65598385005137, 446.26135463715536)" fill-opacity="1">P. aureofaciens phzB::lacZ</text><text fill="rgb(68,68,68)" stroke="none" font-family="helvetica" font-size="12pt" font-style="normal" font-weight="normal" text-decoration="normal" x="542.8546295166016" y="212.83203125" text-anchor="start" dominant-baseline="alphabetic" transform="matrix(0.7071067811865476, -0.7071067811865475, 0.7071067811865475, 0.7071067811865476, 68.53297146322961, 578.7461223950708)" fill-opacity="1">P. aureofaciens phzB::lacZ</text><text fill="rgb(68,68,68)" stroke="none" font-family="helvetica" font-size="12pt" font-style="normal" font-weight="normal" text-decoration="normal" x="-25.02801513671875" y="212.83203125" text-anchor="start" dominant-baseline="alphabetic" transform="matrix(0.7071067811865476, -0.7071067811865475, 0.7071067811865475, 0.7071067811865476, -88.6821429829393, 199.1952608890914)" fill-opacity="1">P. chlororaphis phzB::TnLuxAB</text><text fill="rgb(68,68,68)" stroke="none" font-family="helvetica" font-size="12pt" font-style="normal" font-weight="normal" text-decoration="normal" x="162.3336639404297" y="212.83203125" text-anchor="start" dominant-baseline="alphabetic" transform="matrix(0.7071067811865476, -0.7071067811865475, 0.7071067811865475, 0.7071067811865476, -33.80517771574017, 331.6799746990407)" fill-opacity="1">P. chlororaphis phzB::TnLuxAB</text><text fill="rgb(68,68,68)" stroke="none" font-family="helvetica" font-size="12pt" font-style="normal" font-weight="normal" text-decoration="normal" x="349.6953582763672" y="212.83203125" text-anchor="start" dominant-baseline="alphabetic" transform="matrix(0.7071067811865476, -0.7071067811865475, 0.7071067811865475, 0.7071067811865476, 21.07179202065481, 464.1646992985833)" fill-opacity="1">P. chlororaphis phzB::TnLuxAB</text><text fill="rgb(68,68,68)" stroke="none" font-family="helvetica" font-size="12pt" font-style="normal" font-weight="normal" text-decoration="normal" x="537.0571136474609" y="212.83203125" text-anchor="start" dominant-baseline="alphabetic" transform="matrix(0.7071067811865476, -0.7071067811865475, 0.7071067811865475, 0.7071067811865476, 75.94877963383306, 596.6494670564987)" fill-opacity="1">P. chlororaphis phzB::TnLuxAB</text><text fill="rgb(128,128,128)" stroke="none" font-family="helvetica" font-size="11px" font-style="normal" font-weight="bold" text-decoration="normal" x="120.34077644348145" y="394.60299747428985" text-anchor="start" dominant-baseline="alphabetic" transform="matrix(1, 0, 0, 1, 0.5, 0.5)" fill-opacity="1">PCA</text><text fill="rgb(128,128,128)" stroke="none" font-family="helvetica" font-size="11px" font-style="normal" font-weight="bold" text-decoration="normal" x="293.044153213501" y="394.60299747428985" text-anchor="start" dominant-baseline="alphabetic" transform="matrix(1, 0, 0, 1, 0.5, 0.5)" fill-opacity="1">PCA, Fum</text><text fill="rgb(128,128,128)" stroke="none" font-family="helvetica" font-size="11px" font-style="normal" font-weight="bold" text-decoration="normal" x="480.7058162689209" y="394.60299747428985" text-anchor="start" dominant-baseline="alphabetic" transform="matrix(1, 0, 0, 1, 0.5, 0.5)" fill-opacity="1">PCA, NO2</text><text fill="rgb(128,128,128)" stroke="none" font-family="helvetica" font-size="11px" font-style="normal" font-weight="bold" text-decoration="normal" x="668.0676021575928" y="394.60299747428985" text-anchor="start" dominant-baseline="alphabetic" transform="matrix(1, 0, 0, 1, 0.5, 0.5)" fill-opacity="1">PCA, NO3</text><path fill="none" stroke="rgb(211,211,211)" paint-order="fill" d="M 162.5 388.5 L 162.5 199.5 M 350.5 388.5 L 350.5 199.5 M 537.5 388.5 L 537.5 199.5" stroke-opacity="1" stroke-linejoin="bevel" stroke-miterlimit="10" stroke-width="2" stroke-dasharray=""/><path fill="none" stroke="rgb(0,0,0)" paint-order="fill" d="M 56.5 196.5 L 56.5 5.5" stroke-opacity="1" stroke-linejoin="bevel" stroke-miterlimit="10" stroke-dasharray=""/><path fill="none" stroke="rgb(0,0,0)" paint-order="fill" d="M 50.5 179.5 L 58.5 179.5 M 50.5 155.5 L 58.5 155.5 M 50.5 131.5 L 58.5 131.5 M 50.5 106.5 L 58.5 106.5 M 50.5 82.5 L 58.5 82.5 M 50.5 58.5 L 58.5 58.5 M 50.5 33.5 L 58.5 33.5 M 50.5 9.5 L 58.5 9.5" stroke-opacity="1" stroke-linejoin="bevel" stroke-miterlimit="10" stroke-dasharray=""/><path fill="none" stroke="rgb(0,0,0)" paint-order="fill" d="M 52.5 184.5 L 56.5 184.5 M 52.5 189.5 L 56.5 189.5 M 52.5 194.5 L 56.5 194.5 M 52.5 179.5 L 56.5 179.5 M 52.5 175.5 L 56.5 175.5 M 52.5 170.5 L 56.5 170.5 M 52.5 165.5 L 56.5 165.5 M 52.5 160.5 L 56.5 160.5 M 52.5 155.5 L 56.5 155.5 M 52.5 150.5 L 56.5 150.5 M 52.5 145.5 L 56.5 145.5 M 52.5 140.5 L 56.5 140.5 M 52.5 136.5 L 56.5 136.5 M 52.5 131.5 L 56.5 131.5 M 52.5 126.5 L 56.5 126.5 M 52.5 121.5 L 56.5 121.5 M 52.5 116.5 L 56.5 116.5 M 52.5 111.5 L 56.5 111.5 M 52.5 106.5 L 56.5 106.5 M 52.5 101.5 L 56.5 101.5 M 52.5 97.5 L 56.5 97.5 M 52.5 92.5 L 56.5 92.5 M 52.5 87.5 L 56.5 87.5 M 52.5 82.5 L 56.5 82.5 M 52.5 77.5 L 56.5 77.5 M 52.5 72.5 L 56.5 72.5 M 52.5 67.5 L 56.5 67.5 M 52.5 63.5 L 56.5 63.5 M 52.5 58.5 L 56.5 58.5 M 52.5 53.5 L 56.5 53.5 M 52.5 48.5 L 56.5 48.5 M 52.5 43.5 L 56.5 43.5 M 52.5 38.5 L 56.5 38.5 M 52.5 33.5 L 56.5 33.5 M 52.5 28.5 L 56.5 28.5 M 52.5 24.5 L 56.5 24.5 M 52.5 19.5 L 56.5 19.5 M 52.5 14.5 L 56.5 14.5 M 52.5 9.5 L 56.5 9.5" stroke-opacity="1" stroke-linejoin="bevel" stroke-miterlimit="10" stroke-dasharray=""/><text fill="rgb(68,68,68)" stroke="none" font-family="helvetica" font-size="10pt" font-style="normal" font-weight="normal" text-decoration="normal" x="37.58333349227905" y="184.245112101237" text-anchor="start" dominant-baseline="alphabetic" transform="matrix(1, 0, 0, 1, 0.5, 0.5)" fill-opacity="1">0</text><text fill="rgb(68,68,68)" stroke="none" font-family="helvetica" font-size="10pt" font-style="normal" font-weight="normal" text-decoration="normal" x="30.166666984558105" y="159.88001505533856" text-anchor="start" dominant-baseline="alphabetic" transform="matrix(1, 0, 0, 1, 0.5, 0.5)" fill-opacity="1">10</text><text fill="rgb(68,68,68)" stroke="none" font-family="helvetica" font-size="10pt" font-style="normal" font-weight="normal" text-decoration="normal" x="30.166666984558105" y="135.51493326822916" text-anchor="start" dominant-baseline="alphabetic" transform="matrix(1, 0, 0, 1, 0.5, 0.5)" fill-opacity="1">20</text><text fill="rgb(68,68,68)" stroke="none" font-family="helvetica" font-size="10pt" font-style="normal" font-weight="normal" text-decoration="normal" x="30.166666984558105" y="111.14984385172525" text-anchor="start" dominant-baseline="alphabetic" transform="matrix(1, 0, 0, 1, 0.5, 0.5)" fill-opacity="1">30</text><text fill="rgb(68,68,68)" stroke="none" font-family="helvetica" font-size="10pt" font-style="normal" font-weight="normal" text-decoration="normal" x="30.166666984558105" y="86.78475443522134" text-anchor="start" dominant-baseline="alphabetic" transform="matrix(1, 0, 0, 1, 0.5, 0.5)" fill-opacity="1">40</text><text fill="rgb(68,68,68)" stroke="none" font-family="helvetica" font-size="10pt" font-style="normal" font-weight="normal" text-decoration="normal" x="30.166666984558105" y="62.41966883341472" text-anchor="start" dominant-baseline="alphabetic" transform="matrix(1, 0, 0, 1, 0.5, 0.5)" fill-opacity="1">50</text><text fill="rgb(68,68,68)" stroke="none" font-family="helvetica" font-size="10pt" font-style="normal" font-weight="normal" text-decoration="normal" x="30.166666984558105" y="38.05458323160807" text-anchor="start" dominant-baseline="alphabetic" transform="matrix(1, 0, 0, 1, 0.5, 0.5)" fill-opacity="1">60</text><text fill="rgb(68,68,68)" stroke="none" font-family="helvetica" font-size="10pt" font-style="normal" font-weight="normal" text-decoration="normal" x="30.166666984558105" y="13.689494768778484" text-anchor="start" dominant-baseline="alphabetic" transform="matrix(1, 0, 0, 1, 0.5, 0.5)" fill-opacity="1">70</text><text fill="rgb(68,68,68)" stroke="none" font-family="helvetica" font-size="12pt" font-style="italic" font-weight="normal" text-decoration="normal" x="-90.05833148956299" y="96.9609375" text-anchor="start" dominant-baseline="alphabetic" transform="matrix(6.123233995736766e-17, -1, 1, 6.123233995736766e-17, -77.8333330154419, 123.1666669845581)" fill-opacity="1">max PCA oxidation rate (µM/hr)</text></svg>