<svg version="1.1" xmlns="http://www.w3.org/2000/svg" xmlns:xlink="http://www.w3.org/1999/xlink" width="800" height="430"><defs><clipPath id="vzOPIbrExDmx"><path fill="none" stroke="none" d="M 80.5 34.5 L 395.5 34.5 L 395.5 143.5 L 80.5 143.5 L 80.5 34.5"/></clipPath><clipPath id="rFGJiNGgSDXJ"><path fill="none" stroke="none" d="M 80.5 34.5 L 395.5 34.5 L 395.5 143.5 L 80.5 143.5 L 80.5 34.5"/></clipPath><clipPath id="vcKshckIGRJA"><path fill="none" stroke="none" d="M 80.5 34.5 L 395.5 34.5 L 395.5 143.5 L 80.5 143.5 L 80.5 34.5"/></clipPath><clipPath id="nMpwZwAsqwNc"><path fill="none" stroke="none" d="M 80.5 34.5 L 395.5 34.5 L 395.5 143.5 L 80.5 143.5 L 80.5 34.5"/></clipPath><clipPath id="niJfhReTxVsx"><path fill="none" stroke="none" d="M 80.5 34.5 L 395.5 34.5 L 395.5 143.5 L 80.5 143.5 L 80.5 34.5"/></clipPath><clipPath id="cpnLffcVbdqq"><path fill="none" stroke="none" d="M 80.5 34.5 L 395.5 34.5 L 395.5 143.5 L 80.5 143.5 L 80.5 34.5"/></clipPath><clipPath id="HiltaVFCroKR"><path fill="none" stroke="none" d="M 80.5 34.5 L 395.5 34.5 L 395.5 143.5 L 80.5 143.5 L 80.5 34.5"/></clipPath><clipPath id="BfWFZrxazxKz"><path fill="none" stroke="none" d="M 80.5 34.5 L 395.5 34.5 L 395.5 143.5 L 80.5 143.5 L 80.5 34.5"/></clipPath><clipPath id="SzKTWpqWuGiG"><path fill="none" stroke="none" d="M 80.5 34.5 L 395.5 34.5 L 395.5 143.5 L 80.5 143.5 L 80.5 34.5"/></clipPath><clipPath id="tnMxMssOXJar"><path fill="none" stroke="none" d="M 80.5 34.5 L 395.5 34.5 L 395.5 143.5 L 80.5 143.5 L 80.5 34.5"/></clipPath><clipPath id="HhRghpJtWrZo"><path fill="none" stroke="none" d="M 80.5 34.5 L 395.5 34.5 L 395.5 143.5 L 80.5 143.5 L 80.5 34.5"/></clipPath><clipPath id="IkicxzngpTpB"><path fill="none" stroke="none" d="M 80.5 34.5 L 395.5 34.5 L 395.5 143.5 L 80.5 143.5 L 80.5 34.5"/></clipPath><clipPath id="MzvpPnXfuwau"><path fill="none" stroke="none" d="M 80.5 34.5 L 395.5 34.5 L 395.5 143.5 L 80.5 143.5 L 80.5 34.5"/></clipPath><clipPath id="xcQtLgbJflfZ"><path fill="none" stroke="none" d="M 80.5 34.5 L 395.5 34.5 L 395.5 143.5 L 80.5 143.5 L 80.5 34.5"/></clipPath><clipPath id="hpdOwmJFxgrO"><path fill="none" stroke="none" d="M 80.5 34.5 L 395.5 34.5 L 395.5 143.5 L 80.5 143.5 L 80.5 34.5"/></clipPath><clipPath id="CkTOLTbNIfTO"><path fill="none" stroke="none" d="M 80.5 34.5 L 395.5 34.5 L 395.5 143.5 L 80.5 143.5 L 80.5 34.5"/></clipPath><clipPath id="FhwDeDGWWkDT"><path fill="none" stroke="none" d="M 80.5 34.5 L 395.5 34.5 L 395.5 143.5 L 80.5 143.5 L 80.5 34.5"/></clipPath><clipPath id="fuVINLFZtqvT"><path fill="none" stroke="none" d="M 80.5 34.5 L 395.5 34.5 L 395.5 143.5 L 80.5 143.5 L 80.5 34.5"/></clipPath></defs><g transform="matrix(1, 0, 0, 1, 0, 30)"><path fill="rgb(255,255,255)" stroke="none" paint-order="stroke" d="M 0.5 0.5 L 400.5 0.5 L 400.5 200.5 L 0.5 200.5 L 0.5 0.5" fill-opacity="1"/><rect fill="#FFFFFF" stroke="none" x="80" y="34" width="315" height="109" transform="matrix(1, 0, 0, 1, 0.5, 0.5)"/><path fill="rgb(255,255,255)" stroke="none" paint-order="stroke" d="M 80.5 34.5 L 395.5 34.5 L 395.5 143.5 L 80.5 143.5 L 80.5 34.5" fill-opacity="1"/><path fill="none" stroke="rgb(229,229,229)" paint-order="fill" d="M 80.5 34.5 L 395.5 34.5 L 395.5 143.5 L 80.5 143.5 L 80.5 34.5" stroke-opacity="1" stroke-linejoin="bevel" stroke-miterlimit="10" stroke-dasharray=""/><path fill="none" stroke="rgb(229,229,229)" paint-order="fill" d="M 94.5 143.5 L 94.5 34.5 M 171.5 143.5 L 171.5 34.5 M 248.5 143.5 L 248.5 34.5 M 324.5 143.5 L 324.5 34.5" stroke-opacity="1" stroke-linejoin="bevel" stroke-miterlimit="10" stroke-dasharray="" clip-path="url(#vzOPIbrExDmx)"/><path fill="none" stroke="rgb(229,229,229)" paint-order="fill" d="M 80.5 143.5 L 395.5 143.5 M 80.5 121.5 L 395.5 121.5 M 80.5 99.5 L 395.5 99.5 M 80.5 77.5 L 395.5 77.5 M 80.5 54.5 L 395.5 54.5" stroke-opacity="1" stroke-linejoin="bevel" stroke-miterlimit="10" stroke-dasharray="" clip-path="url(#rFGJiNGgSDXJ)"/><path fill="none" stroke="none"/><path fill="none" stroke="rgb(0,114,178)" paint-order="fill" d="M 94.81818389892578 89.99185943603516 L 95.69591522216797 94.10150909423828 L 96.58251953125 97.48271179199219 L 97.46912384033203 87.6909408569336 L 98.35572814941406 96.7044677734375 L 99.24232482910156 104.27287292480469 L 100.1289291381836 108.3004379272461 L 101.01553344726562 102.30501556396484 L 101.90213012695312 111.19944763183594 L 102.78873443603516 104.27287292480469 L 103.67533874511719 89.27631378173828 L 104.56194305419922 115.37281799316406 L 105.44853973388672 113.79515838623047 L 106.33514404296875 103.74803924560547 L 107.22174835205078 98.32966613769531 L 108.10834503173828 92.05596160888672 L 108.99494934082031 89.99185943603516 L 109.88155364990234 104.27287292480469 L 110.76815795898438 100.29163360595703 L 111.65475463867188 89.27631378173828 L 112.5413589477539 99.26255798339844 L 113.42796325683594 108.3004379272461 L 114.31455993652344 89.27631378173828 L 115.20116424560547 88.29403686523438 L 116.0877685546875 94.10150909423828 L 116.97437286376953 108.3004379272461 L 117.86096954345703 107.51294708251953 L 118.74757385253906 89.27631378173828 L 119.6341781616211 89.27631378173828 L 120.52078247070312 113.79515838623047 L 121.40737915039062 101.4444351196289 L 122.29398345947266 106.07693481445312 L 123.18058776855469 91.6061019897461 L 124.06718444824219 88.93759155273438 L 124.95378875732422 87.40302276611328 L 125.84039306640625 87.12349700927734 L 126.72699737548828 87.6909408569336 L 127.61359405517578 90.37068939208984 L 128.5001983642578 88.93759155273438 L 129.3867950439453 87.6909408569336 L 130.27340698242188 88.93759155273438 L 131.16000366210938 113.79515838623047 L 132.04660034179688 93.54782104492188 L 132.93321228027344 95.98462677001953 L 133.81980895996094 122.92620086669922 L 134.7064208984375 98.32966613769531 L 135.593017578125 102.30501556396484 L 136.4796142578125 94.68910217285156 L 137.36622619628906 102.75484466552734 L 138.25282287597656 105.44706726074219 L 139.13941955566406 110.14899444580078 L 140.02603149414062 95.31501770019531 L 140.91262817382812 99.26255798339844 L 141.79922485351562 98.32966613769531 L 142.6858367919922 96.7044677734375 L 143.5724334716797 89.27631378173828 L 144.4590301513672 97.48271179199219 L 145.34564208984375 102.75484466552734 L 146.23223876953125 95.31501770019531 L 147.1188507080078 97.48271179199219 L 148.0054473876953 111.19944763183594 L 148.8920440673828 91.6061019897461 L 149.77865600585938 110.14899444580078 L 150.66525268554688 95.31501770019531 L 151.55184936523438 101.4444351196289 L 152.43846130371094 91.6061019897461 L 153.32505798339844 87.6909408569336 L 154.21165466308594 94.68910217285156 L 155.0982666015625 89.6274185180664 L 155.98486328125 99.26255798339844 L 156.87147521972656 108.3004379272461 L 157.75807189941406 87.98775482177734 L 158.64466857910156 106.07693481445312 L 159.53128051757812 108.3004379272461 L 160.41787719726562 91.17638397216797 L 161.30447387695312 99.26255798339844 L 162.1910858154297 92.52794647216797 L 163.0776824951172 100.29163360595703 L 163.9642791748047 95.31501770019531 L 164.85089111328125 89.99185943603516 L 165.73748779296875 100.29163360595703 L 166.62408447265625 89.27631378173828 L 167.5106964111328 95.31501770019531 L 168.3972930908203 105.44706726074219 L 169.28390502929688 94.10150909423828 L 170.17050170898438 102.75484466552734 L 171.05709838867188 88.93759155273438 L 171.94371032714844 93.02434539794922 L 172.83030700683594 94.10150909423828 L 173.71690368652344 102.75484466552734 L 174.603515625 111.19944763183594 L 175.4901123046875 108.3004379272461 L 176.376708984375 122.92620086669922 L 177.26332092285156 87.6909408569336 L 178.14991760253906 93.02434539794922 L 179.03652954101562 91.17638397216797 L 179.92312622070312 122.92620086669922 L 180.80972290039062 113.79515838623047 L 181.6963348388672 95.31501770019531 L 182.5829315185547 90.76508331298828 L 183.4695281982422 100.29163360595703 L 184.35614013671875 88.29403686523438 L 185.24273681640625 93.02434539794922 L 186.12933349609375 87.12349700927734 L 187.0159454345703 89.99185943603516 L 187.9025421142578 104.27287292480469 L 188.7891387939453 107.51294708251953 L 189.67575073242188 97.48271179199219 L 190.56234741210938 91.17638397216797 L 191.44895935058594 100.29163360595703 L 192.33555603027344 106.07693481445312 L 193.22215270996094 89.99185943603516 L 194.1087646484375 105.44706726074219 L 194.995361328125 110.14899444580078 L 195.8819580078125 89.27631378173828 L 196.76856994628906 106.07693481445312 L 197.65516662597656 103.74803924560547 L 198.54176330566406 104.27287292480469 L 199.42837524414062 92.05596160888672 L 200.31497192382812 87.40302276611328 L 201.2015838623047 88.61042785644531 L 202.0881805419922 119.74699401855469 L 202.9747772216797 91.17638397216797 L 203.86138916015625 101.05084991455078 L 204.74798583984375 90.37068939208984 L 205.63458251953125 100.29163360595703 L 206.5211944580078 95.98462677001953 L 207.4077911376953 115.37281799316406 L 208.2943878173828 90.37068939208984 L 209.18099975585938 91.6061019897461 L 210.06759643554688 88.93759155273438 L 210.95419311523438 95.76522827148438 L 211.84080505371094 99.26255798339844 L 212.72740173339844 96.7044677734375 L 213.614013671875 89.99185943603516 L 214.5006103515625 119.74699401855469 L 215.38720703125 113.79515838623047 L 216.27381896972656 93.54782104492188 L 217.16041564941406 98.32966613769531 L 218.04701232910156 95.31501770019531 L 218.93362426757812 105.44706726074219 L 219.82022094726562 88.29403686523438 L 220.70681762695312 101.4444351196289 L 221.5934295654297 105.44706726074219 L 222.4800262451172 86.080322265625 L 223.36663818359375 96.7044677734375 L 224.25323486328125 92.05596160888672 L 225.13983154296875 89.99185943603516 L 226.0264434814453 93.02434539794922 L 226.9130401611328 119.74699401855469 L 227.7996368408203 91.17638397216797 L 228.68624877929688 104.27287292480469 L 229.57284545898438 93.54782104492188 L 230.45944213867188 87.12349700927734 L 231.34605407714844 99.94178771972656 L 232.23265075683594 91.6061019897461 L 233.11924743652344 91.17638397216797 L 234.005859375 88.29403686523438 L 234.8924560546875 88.29403686523438 L 235.77906799316406 108.3004379272461 L 236.66566467285156 94.10150909423828 L 237.55226135253906 87.98775482177734 L 238.43887329101562 115.37281799316406 L 239.32546997070312 95.98462677001953 L 240.21206665039062 89.27631378173828 L 241.0986785888672 89.27631378173828 L 241.9852752685547 97.48271179199219 L 242.8718719482422 89.27631378173828 L 243.75848388671875 107.51294708251953 L 244.64508056640625 106.07693481445312 L 245.5316925048828 102.30501556396484 L 246.4182891845703 91.17638397216797 L 247.3048858642578 111.19944763183594 L 248.19149780273438 92.05596160888672 L 249.07809448242188 94.68910217285156 L 249.96469116210938 98.05042266845703 L 250.85130310058594 90.37068939208984 L 251.73789978027344 103.74803924560547 L 252.62449645996094 92.52794647216797 L 253.5111083984375 91.6061019897461 L 254.397705078125 93.02434539794922 L 255.28431701660156 87.98775482177734 L 256.17091369628906 87.40302276611328 L 257.0575256347656 90.76508331298828 L 257.9441223144531 87.12349700927734 L 258.8307189941406 138.5454559326172 L 259.7173156738281 111.19944763183594 L 260.6039123535156 89.27631378173828 L 261.49053955078125 119.74699401855469 L 262.37713623046875 91.6061019897461 L 263.26373291015625 92.05596160888672 L 264.15032958984375 115.37281799316406 L 265.03692626953125 90.37068939208984 L 265.92352294921875 122.92620086669922 L 266.8101501464844 110.14899444580078 L 267.6967468261719 88.93759155273438 L 268.5833435058594 99.26255798339844 L 269.4699401855469 91.6061019897461 L 270.3565368652344 91.17638397216797 L 271.2431335449219 101.4444351196289 L 272.1297607421875 88.29403686523438 L 273.016357421875 113.79515838623047 L 273.9029541015625 106.07693481445312 L 274.78955078125 87.6909408569336 L 275.6761474609375 88.93759155273438 L 276.5627746582031 115.37281799316406 L 277.4493713378906 106.07693481445312 L 278.3359680175781 105.44706726074219 L 279.2225646972656 91.17638397216797 L 280.1091613769531 104.27287292480469 L 280.9957580566406 93.02434539794922 L 281.88238525390625 87.40302276611328 L 282.76898193359375 90.76508331298828 L 283.65557861328125 108.3004379272461 L 284.54217529296875 88.93759155273438 L 285.42877197265625 92.52794647216797 L 286.3153991699219 92.52794647216797 L 287.2019958496094 88.29403686523438 L 288.0885925292969 98.32966613769531 L 288.9751892089844 98.05042266845703 L 289.8617858886719 88.29403686523438 L 290.7483825683594 93.02434539794922 L 291.635009765625 94.10150909423828 L 292.5216064453125 113.79515838623047 L 293.408203125 108.3004379272461 L 294.2947998046875 98.32966613769531 L 295.181396484375 89.99185943603516 L 296.0680236816406 100.29163360595703 L 296.9546203613281 88.93759155273438 L 297.8412170410156 107.51294708251953 L 298.7278137207031 89.99185943603516 L 299.6144104003906 89.6274185180664 L 300.5010070800781 115.37281799316406 L 301.38763427734375 98.32966613769531 L 302.27423095703125 138.5454559326172 L 303.16082763671875 90.37068939208984 L 304.04742431640625 96.7044677734375 L 304.93402099609375 111.19944763183594 L 305.8206481933594 91.17638397216797 L 306.7072448730469 89.99185943603516 L 307.5938415527344 94.10150909423828 L 308.4804382324219 89.6274185180664 L 309.3670349121094 122.92620086669922 L 310.2536315917969 103.74803924560547 L 311.1402587890625 102.75484466552734 L 312.02685546875 94.68910217285156 L 312.9134521484375 88.93759155273438 L 313.800048828125 94.68910217285156 L 314.6866455078125 89.27631378173828 L 315.5732421875 111.19944763183594 L 316.4598693847656 98.32966613769531 L 317.3464660644531 104.27287292480469 L 318.2330627441406 101.4444351196289 L 319.1196594238281 105.44706726074219 L 320.0062561035156 95.98462677001953 L 320.89288330078125 94.68910217285156 L 321.77947998046875 88.61042785644531 L 322.66607666015625 88.93759155273438 L 323.55267333984375 94.68910217285156 L 324.43927001953125 86.33068084716797 L 325.32586669921875 97.48271179199219 L 326.2124938964844 108.3004379272461 L 327.0990905761719 98.32966613769531 L 327.9856872558594 94.10150909423828 L 328.8722839355469 90.37068939208984 L 329.7588806152344 102.75484466552734 L 330.6455078125 87.98775482177734 L 331.5321044921875 115.37281799316406 L 332.418701171875 98.32966613769531 L 333.3052978515625 91.17638397216797 L 334.19189453125 95.31501770019531 L 335.0784912109375 108.3004379272461 L 335.9651184082031 104.27287292480469 L 336.8517150878906 115.37281799316406 L 337.7383117675781 113.79515838623047 L 338.6249084472656 88.61042785644531 L 339.5115051269531 122.92620086669922 L 340.39813232421875 122.92620086669922 L 341.28472900390625 96.7044677734375 L 342.17132568359375 88.93759155273438 L 343.05792236328125 96.7044677734375 L 343.94451904296875 89.27631378173828 L 344.83111572265625 87.40302276611328 L 345.7177429199219 93.54782104492188 L 346.6043395996094 90.76508331298828 L 347.4909362792969 92.05596160888672 L 348.3775329589844 107.51294708251953 L 349.2641296386719 111.19944763183594 L 350.1507568359375 89.27631378173828 L 351.037353515625 113.79515838623047 L 351.9239501953125 87.40302276611328 L 352.810546875 88.93759155273438 L 353.6971435546875 94.10150909423828 L 354.583740234375 138.5454559326172 L 355.4703674316406 115.37281799316406 L 356.3569641113281 106.07693481445312 L 357.2435607910156 107.51294708251953 L 358.1301574707031 93.54782104492188 L 359.0167541503906 91.6061019897461 L 359.9033508300781 107.51294708251953 L 360.78997802734375 100.29163360595703 L 361.67657470703125 108.3004379272461 L 362.56317138671875 110.14899444580078 L 363.44976806640625 89.6274185180664 L 364.33636474609375 100.29163360595703 L 365.2229919433594 119.74699401855469 L 366.1095886230469 95.98462677001953 L 366.9961853027344 100.29163360595703 L 367.8827819824219 100.29163360595703 L 368.7693786621094 89.27631378173828 L 369.6559753417969 99.26255798339844 L 370.5426025390625 89.6274185180664 L 371.42919921875 88.29403686523438 L 372.3157958984375 89.6274185180664 L 373.202392578125 89.27631378173828 L 374.0889892578125 110.14899444580078 L 374.9756164550781 115.37281799316406 L 375.8622131347656 95.98462677001953 L 376.7488098144531 94.10150909423828 L 377.6354064941406 94.10150909423828 L 378.5220031738281 98.05042266845703 L 379.4085998535156 89.27631378173828 L 380.29522705078125 91.17638397216797 L 381.18182373046875 102.75484466552734" stroke-opacity="1" stroke-linejoin="bevel" stroke-miterlimit="10" stroke-width="3" stroke-dasharray="" clip-path="url(#vcKshckIGRJA)"/><path fill="none" stroke="rgb(0,0,0)" paint-order="fill" d="M 80.5 143.5 L 395.5 143.5" stroke-opacity="1" stroke-linejoin="bevel" stroke-miterlimit="10" stroke-dasharray=""/><path fill="none" stroke="rgb(0,0,0)" paint-order="fill" d="M 94.5 149.5 L 94.5 141.5 M 171.5 149.5 L 171.5 141.5 M 248.5 149.5 L 248.5 141.5 M 324.5 149.5 L 324.5 141.5" stroke-opacity="1" stroke-linejoin="bevel" stroke-miterlimit="10" stroke-dasharray=""/><path fill="none" stroke="rgb(0,0,0)" paint-order="fill" d="M 94.5 147.5 L 94.5 143.5 M 110.5 147.5 L 110.5 143.5 M 125.5 147.5 L 125.5 143.5 M 140.5 147.5 L 140.5 143.5 M 156.5 147.5 L 156.5 143.5 M 171.5 147.5 L 171.5 143.5 M 186.5 147.5 L 186.5 143.5 M 202.5 147.5 L 202.5 143.5 M 217.5 147.5 L 217.5 143.5 M 232.5 147.5 L 232.5 143.5 M 248.5 147.5 L 248.5 143.5 M 263.5 147.5 L 263.5 143.5 M 278.5 147.5 L 278.5 143.5 M 293.5 147.5 L 293.5 143.5 M 309.5 147.5 L 309.5 143.5 M 324.5 147.5 L 324.5 143.5 M 339.5 147.5 L 339.5 143.5 M 355.5 147.5 L 355.5 143.5 M 370.5 147.5 L 370.5 143.5 M 385.5 147.5 L 385.5 143.5" stroke-opacity="1" stroke-linejoin="bevel" stroke-miterlimit="10" stroke-dasharray=""/><text fill="rgb(68,68,68)" stroke="none" font-family="helvetica" font-size="14pt" font-style="normal" font-weight="normal" text-decoration="normal" x="89.11765193939209" y="167.38932393391926" text-anchor="start" dominant-baseline="alphabetic" transform="matrix(1, 0, 0, 1, 0.5, 0.5)" fill-opacity="1">0</text><text fill="rgb(68,68,68)" stroke="none" font-family="helvetica" font-size="14pt" font-style="normal" font-weight="normal" text-decoration="normal" x="165.72007656097412" y="167.38932393391926" text-anchor="start" dominant-baseline="alphabetic" transform="matrix(1, 0, 0, 1, 0.5, 0.5)" fill-opacity="1">1</text><text fill="rgb(68,68,68)" stroke="none" font-family="helvetica" font-size="14pt" font-style="normal" font-weight="normal" text-decoration="normal" x="242.32250881195068" y="167.38932393391926" text-anchor="start" dominant-baseline="alphabetic" transform="matrix(1, 0, 0, 1, 0.5, 0.5)" fill-opacity="1">2</text><text fill="rgb(68,68,68)" stroke="none" font-family="helvetica" font-size="14pt" font-style="normal" font-weight="normal" text-decoration="normal" x="318.92494106292725" y="167.38932393391926" text-anchor="start" dominant-baseline="alphabetic" transform="matrix(1, 0, 0, 1, 0.5, 0.5)" fill-opacity="1">3</text><text fill="rgb(68,68,68)" stroke="none" font-family="helvetica" font-size="14pt" font-style="italic" font-weight="normal" text-decoration="normal" x="188.57500076293945" y="193.29036763509117" text-anchor="start" dominant-baseline="alphabetic" transform="matrix(1, 0, 0, 1, 0.5, 0.5)" fill-opacity="1">Time (days)</text><path fill="none" stroke="rgb(0,0,0)" paint-order="fill" d="M 80.5 143.5 L 80.5 34.5" stroke-opacity="1" stroke-linejoin="bevel" stroke-miterlimit="10" stroke-dasharray=""/><path fill="none" stroke="rgb(0,0,0)" paint-order="fill" d="M 74.5 143.5 L 82.5 143.5 M 74.5 121.5 L 82.5 121.5 M 74.5 99.5 L 82.5 99.5 M 74.5 77.5 L 82.5 77.5 M 74.5 54.5 L 82.5 54.5" stroke-opacity="1" stroke-linejoin="bevel" stroke-miterlimit="10" stroke-dasharray=""/><path fill="none" stroke="rgb(0,0,0)" paint-order="fill" d="M 76.5 143.5 L 80.5 143.5 M 76.5 143.5 L 80.5 143.5 M 76.5 136.5 L 80.5 136.5 M 76.5 132.5 L 80.5 132.5 M 76.5 129.5 L 80.5 129.5 M 76.5 127.5 L 80.5 127.5 M 76.5 126.5 L 80.5 126.5 M 76.5 124.5 L 80.5 124.5 M 76.5 123.5 L 80.5 123.5 M 76.5 122.5 L 80.5 122.5 M 76.5 121.5 L 80.5 121.5 M 76.5 121.5 L 80.5 121.5 M 76.5 114.5 L 80.5 114.5 M 76.5 110.5 L 80.5 110.5 M 76.5 107.5 L 80.5 107.5 M 76.5 105.5 L 80.5 105.5 M 76.5 104.5 L 80.5 104.5 M 76.5 102.5 L 80.5 102.5 M 76.5 101.5 L 80.5 101.5 M 76.5 100.5 L 80.5 100.5 M 76.5 99.5 L 80.5 99.5 M 76.5 99.5 L 80.5 99.5 M 76.5 92.5 L 80.5 92.5 M 76.5 88.5 L 80.5 88.5 M 76.5 85.5 L 80.5 85.5 M 76.5 83.5 L 80.5 83.5 M 76.5 81.5 L 80.5 81.5 M 76.5 80.5 L 80.5 80.5 M 76.5 79.5 L 80.5 79.5 M 76.5 78.5 L 80.5 78.5 M 76.5 77.5 L 80.5 77.5 M 76.5 77.5 L 80.5 77.5 M 76.5 70.5 L 80.5 70.5 M 76.5 66.5 L 80.5 66.5 M 76.5 63.5 L 80.5 63.5 M 76.5 61.5 L 80.5 61.5 M 76.5 59.5 L 80.5 59.5 M 76.5 58.5 L 80.5 58.5 M 76.5 57.5 L 80.5 57.5 M 76.5 55.5 L 80.5 55.5 M 76.5 54.5 L 80.5 54.5 M 76.5 54.5 L 80.5 54.5 M 76.5 48.5 L 80.5 48.5 M 76.5 44.5 L 80.5 44.5 M 76.5 41.5 L 80.5 41.5 M 76.5 39.5 L 80.5 39.5 M 76.5 37.5 L 80.5 37.5 M 76.5 36.5 L 80.5 36.5 M 76.5 34.5 L 80.5 34.5" stroke-opacity="1" stroke-linejoin="bevel" stroke-miterlimit="10" stroke-dasharray=""/><text fill="rgb(68,68,68)" stroke="none" font-family="helvetica" font-size="14pt" font-style="normal" font-weight="normal" text-decoration="normal" x="0" y="19.134246826171875" text-anchor="start" dominant-baseline="alphabetic" transform="matrix(1, 0, 0, 1, 33.83333396911621, 133.7382354736328)" fill-opacity="1">10</text><text fill="rgb(68,68,68)" stroke="none" font-family="helvetica" font-size="9.799999999999999pt" font-style="normal" font-weight="normal" text-decoration="normal" x="20.766666412353516" y="9.761719767252604" text-anchor="start" dominant-baseline="alphabetic" transform="matrix(1, 0, 0, 1, 33.83333396911621, 133.7382354736328)" fill-opacity="1">−2</text><text fill="rgb(68,68,68)" stroke="none" font-family="helvetica" font-size="14pt" font-style="normal" font-weight="normal" text-decoration="normal" x="0" y="19.134246826171875" text-anchor="start" dominant-baseline="alphabetic" transform="matrix(1, 0, 0, 1, 33.83333396911621, 111.63748168945312)" fill-opacity="1">10</text><text fill="rgb(68,68,68)" stroke="none" font-family="helvetica" font-size="9.799999999999999pt" font-style="normal" font-weight="normal" text-decoration="normal" x="20.766666412353516" y="9.761719767252604" text-anchor="start" dominant-baseline="alphabetic" transform="matrix(1, 0, 0, 1, 33.83333396911621, 111.63748168945312)" fill-opacity="1">−1</text><text fill="rgb(68,68,68)" stroke="none" font-family="helvetica" font-size="14pt" font-style="normal" font-weight="normal" text-decoration="normal" x="0" y="19.134246826171875" text-anchor="start" dominant-baseline="alphabetic" transform="matrix(1, 0, 0, 1, 41.46666669845581, 89.5367202758789)" fill-opacity="1">10</text><text fill="rgb(68,68,68)" stroke="none" font-family="helvetica" font-size="9.799999999999999pt" font-style="normal" font-weight="normal" text-decoration="normal" x="20.766666412353516" y="9.761719767252604" text-anchor="start" dominant-baseline="alphabetic" transform="matrix(1, 0, 0, 1, 41.46666669845581, 89.5367202758789)" fill-opacity="1">0</text><text fill="rgb(68,68,68)" stroke="none" font-family="helvetica" font-size="14pt" font-style="normal" font-weight="normal" text-decoration="normal" x="0" y="19.134246826171875" text-anchor="start" dominant-baseline="alphabetic" transform="matrix(1, 0, 0, 1, 41.46666669845581, 67.43595123291016)" fill-opacity="1">10</text><text fill="rgb(68,68,68)" stroke="none" font-family="helvetica" font-size="9.799999999999999pt" font-style="normal" font-weight="normal" text-decoration="normal" x="20.766666412353516" y="9.761719767252604" text-anchor="start" dominant-baseline="alphabetic" transform="matrix(1, 0, 0, 1, 41.46666669845581, 67.43595123291016)" fill-opacity="1">1</text><text fill="rgb(68,68,68)" stroke="none" font-family="helvetica" font-size="14pt" font-style="normal" font-weight="normal" text-decoration="normal" x="0" y="19.134246826171875" text-anchor="start" dominant-baseline="alphabetic" transform="matrix(1, 0, 0, 1, 41.46666669845581, 45.3351936340332)" fill-opacity="1">10</text><text fill="rgb(68,68,68)" stroke="none" font-family="helvetica" font-size="9.799999999999999pt" font-style="normal" font-weight="normal" text-decoration="normal" x="20.766666412353516" y="9.761719767252604" text-anchor="start" dominant-baseline="alphabetic" transform="matrix(1, 0, 0, 1, 41.46666669845581, 45.3351936340332)" fill-opacity="1">2</text><text fill="rgb(68,68,68)" stroke="none" font-family="helvetica" font-size="14pt" font-style="italic" font-weight="normal" text-decoration="normal" x="-26.19999885559082" y="84.37109375" text-anchor="start" dominant-baseline="alphabetic" transform="matrix(6.123233995736766e-17, -1, 1, 6.123233995736766e-17, -62.66666603088379, 114.33333396911621)" fill-opacity="1">Current (µA)</text><path fill="none" stroke="none"/><text fill="rgb(68,68,68)" stroke="none" font-family="helvetica" font-size="14pt" font-style="normal" font-weight="bold" text-decoration="normal" x="0" y="0" text-anchor="start" dominant-baseline="text-after-edge" transform="matrix(1, 0, 0, 1, 80.5, 29.5)" fill-opacity="1">0 mM nitrate</text><g transform="matrix(1, 0, 0, 1, 400, 0)"><path fill="rgb(255,255,255)" stroke="none" paint-order="stroke" d="M 0.5 0.5 L 400.5 0.5 L 400.5 200.5 L 0.5 200.5 L 0.5 0.5" fill-opacity="1"/><rect fill="#FFFFFF" stroke="none" x="80" y="34" width="315" height="109" transform="matrix(1, 0, 0, 1, 0.5, 0.5)"/><path fill="rgb(255,255,255)" stroke="none" paint-order="stroke" d="M 80.5 34.5 L 395.5 34.5 L 395.5 143.5 L 80.5 143.5 L 80.5 34.5" fill-opacity="1"/><path fill="none" stroke="rgb(229,229,229)" paint-order="fill" d="M 80.5 34.5 L 395.5 34.5 L 395.5 143.5 L 80.5 143.5 L 80.5 34.5" stroke-opacity="1" stroke-linejoin="bevel" stroke-miterlimit="10" stroke-dasharray=""/><path fill="none" stroke="rgb(229,229,229)" paint-order="fill" d="M 94.5 143.5 L 94.5 34.5 M 171.5 143.5 L 171.5 34.5 M 248.5 143.5 L 248.5 34.5 M 324.5 143.5 L 324.5 34.5" stroke-opacity="1" stroke-linejoin="bevel" stroke-miterlimit="10" stroke-dasharray="" clip-path="url(#niJfhReTxVsx)"/><path fill="none" stroke="rgb(229,229,229)" paint-order="fill" d="M 80.5 143.5 L 395.5 143.5 M 80.5 121.5 L 395.5 121.5 M 80.5 99.5 L 395.5 99.5 M 80.5 77.5 L 395.5 77.5 M 80.5 54.5 L 395.5 54.5" stroke-opacity="1" stroke-linejoin="bevel" stroke-miterlimit="10" stroke-dasharray="" clip-path="url(#cpnLffcVbdqq)"/><path fill="none" stroke="none"/><path fill="none" stroke="rgb(230,159,0)" paint-order="fill" d="M 94.81818389892578 90.34368133544922 L 95.69591522216797 52.8221549987793 L 96.58251953125 48.58134078979492 L 97.46912384033203 48.551578521728516 L 98.35572814941406 48.47757339477539 L 99.24232482910156 48.71642303466797 L 100.1289291381836 48.711387634277344 L 101.01553344726562 48.86366271972656 L 101.90213012695312 48.516971588134766 L 102.78873443603516 48.76187515258789 L 103.67533874511719 49.271270751953125 L 104.56194305419922 48.76187515258789 L 105.44853973388672 48.76694107055664 L 106.33514404296875 48.89954376220703 L 107.22174835205078 49.0287971496582 L 108.10834503173828 48.987247467041016 L 108.99494934082031 48.94071578979492 L 109.88155364990234 48.641143798828125 L 110.76815795898438 48.777076721191406 L 111.65475463867188 48.70635223388672 L 112.5413589477539 49.21272659301758 L 113.42796325683594 48.822818756103516 L 114.31455993652344 48.992431640625 L 115.20116424560547 48.889278411865234 L 116.0877685546875 49.276607513427734 L 116.97437286376953 49.03400421142578 L 117.86096954345703 48.83811569213867 L 118.74757385253906 48.8944091796875 L 119.6341781616211 49.276607513427734 L 120.52078247070312 48.95103454589844 L 121.40737915039062 49.19682312011719 L 122.29398345947266 49.20742416381836 L 123.18058776855469 49.19682312011719 L 124.06718444824219 49.18623352050781 L 124.95378875732422 48.879024505615234 L 125.84039306640625 49.007999420166016 L 126.72699737548828 48.89954376220703 L 127.61359405517578 49.12820816040039 L 128.5001983642578 49.154541015625 L 129.3867950439453 48.726505279541016 L 130.27340698242188 48.889278411865234 L 131.16000366210938 49.35706329345703 L 132.04660034179688 49.630226135253906 L 132.93321228027344 48.79229736328125 L 133.81980895996094 49.83749008178711 L 134.7064208984375 50.35518264770508 L 135.593017578125 49.928524017333984 L 136.4796142578125 49.928524017333984 L 137.36622619628906 50.195159912109375 L 138.25282287597656 51.19142532348633 L 139.13941955566406 52.72221374511719 L 140.02603149414062 54.516639709472656 L 140.91262817382812 56.959293365478516 L 141.79922485351562 58.77345275878906 L 142.6858367919922 60.88618850708008 L 143.5724334716797 64.3396110534668 L 144.4590301513672 66.10961151123047 L 145.34564208984375 68.3202896118164 L 146.23223876953125 68.242919921875 L 147.1188507080078 69.8316421508789 L 148.0054473876953 73.56332397460938 L 148.8920440673828 72.13274383544922 L 149.77865600585938 75.99275970458984 L 150.66525268554688 74.3310317993164 L 151.55184936523438 73.56332397460938 L 152.43846130371094 75.16552734375 L 153.32505798339844 77.79400634765625 L 154.21165466308594 73.10492706298828 L 155.0982666015625 73.4964828491211 L 155.98486328125 77.48631286621094 L 156.87147521972656 73.4964828491211 L 157.75807189941406 77.18817901611328 L 158.64466857910156 76.34471130371094 L 159.53128051757812 76.80360412597656 L 160.41787719726562 74.7771987915039 L 161.30447387695312 72.54601287841797 L 162.1910858154297 77.69034576416016 L 163.0776824951172 76.80360412597656 L 163.9642791748047 73.1690902709961 L 164.85089111328125 72.85249328613281 L 165.73748779296875 76.34471130371094 L 166.62408447265625 73.63063049316406 L 167.5106964111328 75.4879150390625 L 168.3972930908203 75.57023620605469 L 169.28390502929688 73.90469360351562 L 170.17050170898438 73.04119873046875 L 171.05709838867188 74.55152130126953 L 171.94371032714844 74.62615966796875 L 172.83030700683594 71.84807586669922 L 173.71690368652344 72.19070434570312 L 174.603515625 73.1690902709961 L 175.4901123046875 76.43474578857422 L 176.376708984375 71.90433502197266 L 177.26332092285156 72.60652923583984 L 178.14991760253906 71.96092987060547 L 179.03652954101562 73.56332397460938 L 179.92312622070312 74.8536148071289 L 180.80972290039062 71.30288696289062 L 181.6963348388672 74.8536148071289 L 182.5829315185547 71.68124389648438 L 183.4695281982422 72.42610931396484 L 184.35614013671875 73.10492706298828 L 185.24273681640625 72.24901580810547 L 186.12933349609375 75.16552734375 L 187.0159454345703 71.90433502197266 L 187.9025421142578 74.8536148071289 L 188.7891387939453 71.14518737792969 L 189.67575073242188 74.62615966796875 L 190.56234741210938 71.79214477539062 L 191.44895935058594 74.3310317993164 L 192.33555603027344 72.60652923583984 L 193.22215270996094 73.10492706298828 L 194.1087646484375 74.18680572509766 L 194.995361328125 72.9778823852539 L 195.8819580078125 71.14518737792969 L 196.76856994628906 72.30768585205078 L 197.65516662597656 72.36671447753906 L 198.54176330566406 70.63749694824219 L 199.42837524414062 73.4964828491211 L 200.31497192382812 72.07512664794922 L 201.2015838623047 73.23368072509766 L 202.0881805419922 71.30288696289062 L 202.9747772216797 70.63749694824219 L 203.86138916015625 72.91498565673828 L 204.74798583984375 71.25003051757812 L 205.63458251953125 71.51725769042969 L 206.5211944580078 70.53910064697266 L 207.4077911376953 70.1083984375 L 208.2943878173828 70.68707275390625 L 209.18099975585938 73.36418151855469 L 210.06759643554688 70.06171417236328 L 210.95419311523438 72.36671447753906 L 211.84080505371094 70.24983215332031 L 212.72740173339844 69.8316421508789 L 213.614013671875 72.72872924804688 L 214.5006103515625 69.8772201538086 L 215.38720703125 72.36671447753906 L 216.27381896972656 69.8316421508789 L 217.16041564941406 71.79214477539062 L 218.04701232910156 70.58817291259766 L 218.93362426757812 72.36671447753906 L 219.82022094726562 70.44170379638672 L 220.70681762695312 69.65147399902344 L 221.5934295654297 72.13274383544922 L 222.4800262451172 70.29743957519531 L 223.36663818359375 69.60694885253906 L 224.25323486328125 71.14518737792969 L 225.13983154296875 69.69619750976562 L 226.0264434814453 69.74113464355469 L 226.9130401611328 71.68124389648438 L 227.7996368408203 69.96902465820312 L 228.68624877929688 69.3440933227539 L 229.57284545898438 71.90433502197266 L 230.45944213867188 71.09319305419922 L 231.34605407714844 72.01786041259766 L 232.23265075683594 71.09319305419922 L 233.11924743652344 69.65147399902344 L 234.005859375 71.19746398925781 L 234.8924560546875 71.62626647949219 L 235.77906799316406 69.8772201538086 L 236.66566467285156 70.1083984375 L 237.55226135253906 69.0882339477539 L 238.43887329101562 70.83736419677734 L 239.32546997070312 69.00444793701172 L 240.21206665039062 70.53910064697266 L 241.0986785888672 68.71680450439453 L 241.9852752685547 70.78700256347656 L 242.8718719482422 70.99004364013672 L 243.75848388671875 70.93887329101562 L 244.64508056640625 70.78700256347656 L 245.5316925048828 69.43091583251953 L 246.4182891845703 70.06171417236328 L 247.3048858642578 68.67640686035156 L 248.19149780273438 69.0882339477539 L 249.07809448242188 70.24983215332031 L 249.96469116210938 68.75736999511719 L 250.85130310058594 70.78700256347656 L 251.73789978027344 68.63617706298828 L 252.62449645996094 69.3440933227539 L 253.5111083984375 68.55622863769531 L 254.397705078125 70.29743957519531 L 255.28431701660156 70.68707275390625 L 256.17091369628906 70.83736419677734 L 257.0575256347656 69.96902465820312 L 257.9441223144531 70.93887329101562 L 258.8307189941406 70.15531158447266 L 259.7173156738281 70.63749694824219 L 260.6039123535156 70.34529113769531 L 261.49053955078125 68.242919921875 L 262.37713623046875 68.20446014404297 L 263.26373291015625 68.59612274169922 L 264.15032958984375 69.13040924072266 L 265.03692626953125 68.92137908935547 L 265.92352294921875 68.75736999511719 L 266.8101501464844 69.0882339477539 L 267.6967468261719 68.71680450439453 L 268.5833435058594 69.56263732910156 L 269.4699401855469 70.06171417236328 L 270.3565368652344 68.47693634033203 L 271.2431335449219 70.06171417236328 L 272.1297607421875 69.0882339477539 L 273.016357421875 68.47693634033203 L 273.9029541015625 70.34529113769531 L 274.78955078125 68.3202896118164 L 275.6761474609375 70.24983215332031 L 276.5627746582031 68.67640686035156 L 277.4493713378906 68.1661605834961 L 278.3359680175781 69.5185317993164 L 279.2225646972656 69.8316421508789 L 280.1091613769531 68.09001159667969 L 280.9957580566406 68.67640686035156 L 281.88238525390625 69.0882339477539 L 282.76898193359375 70.0152587890625 L 283.65557861328125 69.5185317993164 L 284.54217529296875 69.74113464355469 L 285.42877197265625 68.28152465820312 L 286.3153991699219 69.74113464355469 L 287.2019958496094 69.96902465820312 L 288.0885925292969 68.28152465820312 L 288.9751892089844 67.79132843017578 L 289.8617858886719 69.47462463378906 L 290.7483825683594 69.69619750976562 L 291.635009765625 68.63617706298828 L 292.5216064453125 68.88011169433594 L 293.408203125 68.96282196044922 L 294.2947998046875 69.56263732910156 L 295.181396484375 68.01446533203125 L 296.0680236816406 68.01446533203125 L 296.9546203613281 69.2153091430664 L 297.8412170410156 67.754638671875 L 298.7278137207031 68.09001159667969 L 299.6144104003906 68.3202896118164 L 300.5010070800781 68.79811096191406 L 301.38763427734375 68.1661605834961 L 302.27423095703125 67.68167114257812 L 303.16082763671875 69.43091583251953 L 304.04742431640625 67.57325744628906 L 304.93402099609375 69.13040924072266 L 305.8206481933594 68.63617706298828 L 306.7072448730469 69.47462463378906 L 307.5938415527344 67.93950653076172 L 308.4804382324219 67.50165557861328 L 309.3670349121094 68.28152465820312 L 310.2536315917969 67.68167114257812 L 311.1402587890625 69.04624938964844 L 312.02685546875 69.2153091430664 L 312.9134521484375 69.2153091430664 L 313.800048828125 68.20446014404297 L 314.6866455078125 67.82816314697266 L 315.5732421875 69.30097198486328 L 316.4598693847656 68.79811096191406 L 317.3464660644531 67.53739166259766 L 318.2330627441406 67.29000091552734 L 319.1196594238281 68.88011169433594 L 320.0062561035156 67.57325744628906 L 320.89288330078125 67.36003875732422 L 321.77947998046875 67.22047424316406 L 322.66607666015625 68.59612274169922 L 323.55267333984375 68.242919921875 L 324.43927001953125 67.36003875732422 L 325.32586669921875 67.97691345214844 L 326.2124938964844 67.53739166259766 L 327.0990905761719 68.43753814697266 L 327.9856872558594 67.36003875732422 L 328.8722839355469 67.68167114257812 L 329.7588806152344 67.57325744628906 L 330.6455078125 68.83902740478516 L 331.5321044921875 67.048828125 L 332.418701171875 68.63617706298828 L 333.3052978515625 68.05216979980469 L 334.19189453125 68.59612274169922 L 335.0784912109375 67.0829086303711 L 335.9651184082031 67.46605682373047 L 336.8517150878906 67.71808624267578 L 337.7383117675781 67.01486206054688 L 338.6249084472656 68.3202896118164 L 339.5115051269531 66.94729614257812 L 340.39813232421875 68.55622863769531 L 341.28472900390625 68.55622863769531 L 342.17132568359375 68.43753814697266 L 343.05792236328125 67.0829086303711 L 343.94451904296875 67.43058776855469 L 344.83111572265625 67.97691345214844 L 345.7177429199219 68.63617706298828 L 346.6043395996094 67.68167114257812 L 347.4909362792969 68.75736999511719 L 348.3775329589844 66.88019561767578 L 349.2641296386719 66.61640167236328 L 350.1507568359375 67.0829086303711 L 351.037353515625 67.68167114257812 L 351.9239501953125 67.46605682373047 L 352.810546875 68.242919921875 L 353.6971435546875 66.94729614257812 L 354.583740234375 67.18589782714844 L 355.4703674316406 68.47693634033203 L 356.3569641113281 68.242919921875 L 357.2435607910156 66.8468246459961 L 358.1301574707031 68.28152465820312 L 359.0167541503906 68.1661605834961 L 359.9033508300781 67.18589782714844 L 360.78997802734375 67.048828125 L 361.67657470703125 68.3982925415039 L 362.56317138671875 67.048828125 L 363.44976806640625 68.3982925415039 L 364.33636474609375 66.88019561767578 L 365.2229919433594 67.0829086303711 L 366.1095886230469 67.22047424316406 L 366.9961853027344 67.82816314697266 L 367.8827819824219 67.82816314697266 L 368.7693786621094 67.8651351928711 L 369.6559753417969 66.7804183959961 L 370.5426025390625 68.242919921875 L 371.42919921875 67.57325744628906 L 372.3157958984375 67.46605682373047 L 373.202392578125 67.754638671875 L 374.0889892578125 67.0829086303711 L 374.9756164550781 66.68167114257812 L 375.8622131347656 66.42320251464844 L 376.7488098144531 67.57325744628906 L 377.6354064941406 67.60926055908203 L 378.5220031738281 68.28152465820312 L 379.4085998535156 66.7144775390625 L 380.29522705078125 67.22047424316406 L 381.18182373046875 68.1661605834961" stroke-opacity="1" stroke-linejoin="bevel" stroke-miterlimit="10" stroke-width="3" stroke-dasharray="" clip-path="url(#HiltaVFCroKR)"/><path fill="none" stroke="rgb(0,0,0)" paint-order="fill" d="M 80.5 143.5 L 395.5 143.5" stroke-opacity="1" stroke-linejoin="bevel" stroke-miterlimit="10" stroke-dasharray=""/><path fill="none" stroke="rgb(0,0,0)" paint-order="fill" d="M 94.5 149.5 L 94.5 141.5 M 171.5 149.5 L 171.5 141.5 M 248.5 149.5 L 248.5 141.5 M 324.5 149.5 L 324.5 141.5" stroke-opacity="1" stroke-linejoin="bevel" stroke-miterlimit="10" stroke-dasharray=""/><path fill="none" stroke="rgb(0,0,0)" paint-order="fill" d="M 94.5 147.5 L 94.5 143.5 M 110.5 147.5 L 110.5 143.5 M 125.5 147.5 L 125.5 143.5 M 140.5 147.5 L 140.5 143.5 M 156.5 147.5 L 156.5 143.5 M 171.5 147.5 L 171.5 143.5 M 186.5 147.5 L 186.5 143.5 M 202.5 147.5 L 202.5 143.5 M 217.5 147.5 L 217.5 143.5 M 232.5 147.5 L 232.5 143.5 M 248.5 147.5 L 248.5 143.5 M 263.5 147.5 L 263.5 143.5 M 278.5 147.5 L 278.5 143.5 M 293.5 147.5 L 293.5 143.5 M 309.5 147.5 L 309.5 143.5 M 324.5 147.5 L 324.5 143.5 M 339.5 147.5 L 339.5 143.5 M 355.5 147.5 L 355.5 143.5 M 370.5 147.5 L 370.5 143.5 M 385.5 147.5 L 385.5 143.5" stroke-opacity="1" stroke-linejoin="bevel" stroke-miterlimit="10" stroke-dasharray=""/><text fill="rgb(68,68,68)" stroke="none" font-family="helvetica" font-size="14pt" font-style="normal" font-weight="normal" text-decoration="normal" x="89.11765193939209" y="167.38932393391926" text-anchor="start" dominant-baseline="alphabetic" transform="matrix(1, 0, 0, 1, 0.5, 0.5)" fill-opacity="1">0</text><text fill="rgb(68,68,68)" stroke="none" font-family="helvetica" font-size="14pt" font-style="normal" font-weight="normal" text-decoration="normal" x="165.72007656097412" y="167.38932393391926" text-anchor="start" dominant-baseline="alphabetic" transform="matrix(1, 0, 0, 1, 0.5, 0.5)" fill-opacity="1">1</text><text fill="rgb(68,68,68)" stroke="none" font-family="helvetica" font-size="14pt" font-style="normal" font-weight="normal" text-decoration="normal" x="242.32250881195068" y="167.38932393391926" text-anchor="start" dominant-baseline="alphabetic" transform="matrix(1, 0, 0, 1, 0.5, 0.5)" fill-opacity="1">2</text><text fill="rgb(68,68,68)" stroke="none" font-family="helvetica" font-size="14pt" font-style="normal" font-weight="normal" text-decoration="normal" x="318.92494106292725" y="167.38932393391926" text-anchor="start" dominant-baseline="alphabetic" transform="matrix(1, 0, 0, 1, 0.5, 0.5)" fill-opacity="1">3</text><text fill="rgb(68,68,68)" stroke="none" font-family="helvetica" font-size="14pt" font-style="italic" font-weight="normal" text-decoration="normal" x="188.57500076293945" y="193.29036763509117" text-anchor="start" dominant-baseline="alphabetic" transform="matrix(1, 0, 0, 1, 0.5, 0.5)" fill-opacity="1">Time (days)</text><path fill="none" stroke="rgb(0,0,0)" paint-order="fill" d="M 80.5 143.5 L 80.5 34.5" stroke-opacity="1" stroke-linejoin="bevel" stroke-miterlimit="10" stroke-dasharray=""/><path fill="none" stroke="rgb(0,0,0)" paint-order="fill" d="M 74.5 143.5 L 82.5 143.5 M 74.5 121.5 L 82.5 121.5 M 74.5 99.5 L 82.5 99.5 M 74.5 77.5 L 82.5 77.5 M 74.5 54.5 L 82.5 54.5" stroke-opacity="1" stroke-linejoin="bevel" stroke-miterlimit="10" stroke-dasharray=""/><path fill="none" stroke="rgb(0,0,0)" paint-order="fill" d="M 76.5 143.5 L 80.5 143.5 M 76.5 143.5 L 80.5 143.5 M 76.5 136.5 L 80.5 136.5 M 76.5 132.5 L 80.5 132.5 M 76.5 129.5 L 80.5 129.5 M 76.5 127.5 L 80.5 127.5 M 76.5 126.5 L 80.5 126.5 M 76.5 124.5 L 80.5 124.5 M 76.5 123.5 L 80.5 123.5 M 76.5 122.5 L 80.5 122.5 M 76.5 121.5 L 80.5 121.5 M 76.5 121.5 L 80.5 121.5 M 76.5 114.5 L 80.5 114.5 M 76.5 110.5 L 80.5 110.5 M 76.5 107.5 L 80.5 107.5 M 76.5 105.5 L 80.5 105.5 M 76.5 104.5 L 80.5 104.5 M 76.5 102.5 L 80.5 102.5 M 76.5 101.5 L 80.5 101.5 M 76.5 100.5 L 80.5 100.5 M 76.5 99.5 L 80.5 99.5 M 76.5 99.5 L 80.5 99.5 M 76.5 92.5 L 80.5 92.5 M 76.5 88.5 L 80.5 88.5 M 76.5 85.5 L 80.5 85.5 M 76.5 83.5 L 80.5 83.5 M 76.5 81.5 L 80.5 81.5 M 76.5 80.5 L 80.5 80.5 M 76.5 79.5 L 80.5 79.5 M 76.5 78.5 L 80.5 78.5 M 76.5 77.5 L 80.5 77.5 M 76.5 77.5 L 80.5 77.5 M 76.5 70.5 L 80.5 70.5 M 76.5 66.5 L 80.5 66.5 M 76.5 63.5 L 80.5 63.5 M 76.5 61.5 L 80.5 61.5 M 76.5 59.5 L 80.5 59.5 M 76.5 58.5 L 80.5 58.5 M 76.5 57.5 L 80.5 57.5 M 76.5 55.5 L 80.5 55.5 M 76.5 54.5 L 80.5 54.5 M 76.5 54.5 L 80.5 54.5 M 76.5 48.5 L 80.5 48.5 M 76.5 44.5 L 80.5 44.5 M 76.5 41.5 L 80.5 41.5 M 76.5 39.5 L 80.5 39.5 M 76.5 37.5 L 80.5 37.5 M 76.5 36.5 L 80.5 36.5 M 76.5 34.5 L 80.5 34.5" stroke-opacity="1" stroke-linejoin="bevel" stroke-miterlimit="10" stroke-dasharray=""/><text fill="rgb(68,68,68)" stroke="none" font-family="helvetica" font-size="14pt" font-style="normal" font-weight="normal" text-decoration="normal" x="0" y="19.134246826171875" text-anchor="start" dominant-baseline="alphabetic" transform="matrix(1, 0, 0, 1, 33.83333396911621, 133.7382354736328)" fill-opacity="1">10</text><text fill="rgb(68,68,68)" stroke="none" font-family="helvetica" font-size="9.799999999999999pt" font-style="normal" font-weight="normal" text-decoration="normal" x="20.766666412353516" y="9.761719767252604" text-anchor="start" dominant-baseline="alphabetic" transform="matrix(1, 0, 0, 1, 33.83333396911621, 133.7382354736328)" fill-opacity="1">−2</text><text fill="rgb(68,68,68)" stroke="none" font-family="helvetica" font-size="14pt" font-style="normal" font-weight="normal" text-decoration="normal" x="0" y="19.134246826171875" text-anchor="start" dominant-baseline="alphabetic" transform="matrix(1, 0, 0, 1, 33.83333396911621, 111.63748168945312)" fill-opacity="1">10</text><text fill="rgb(68,68,68)" stroke="none" font-family="helvetica" font-size="9.799999999999999pt" font-style="normal" font-weight="normal" text-decoration="normal" x="20.766666412353516" y="9.761719767252604" text-anchor="start" dominant-baseline="alphabetic" transform="matrix(1, 0, 0, 1, 33.83333396911621, 111.63748168945312)" fill-opacity="1">−1</text><text fill="rgb(68,68,68)" stroke="none" font-family="helvetica" font-size="14pt" font-style="normal" font-weight="normal" text-decoration="normal" x="0" y="19.134246826171875" text-anchor="start" dominant-baseline="alphabetic" transform="matrix(1, 0, 0, 1, 41.46666669845581, 89.5367202758789)" fill-opacity="1">10</text><text fill="rgb(68,68,68)" stroke="none" font-family="helvetica" font-size="9.799999999999999pt" font-style="normal" font-weight="normal" text-decoration="normal" x="20.766666412353516" y="9.761719767252604" text-anchor="start" dominant-baseline="alphabetic" transform="matrix(1, 0, 0, 1, 41.46666669845581, 89.5367202758789)" fill-opacity="1">0</text><text fill="rgb(68,68,68)" stroke="none" font-family="helvetica" font-size="14pt" font-style="normal" font-weight="normal" text-decoration="normal" x="0" y="19.134246826171875" text-anchor="start" dominant-baseline="alphabetic" transform="matrix(1, 0, 0, 1, 41.46666669845581, 67.43595123291016)" fill-opacity="1">10</text><text fill="rgb(68,68,68)" stroke="none" font-family="helvetica" font-size="9.799999999999999pt" font-style="normal" font-weight="normal" text-decoration="normal" x="20.766666412353516" y="9.761719767252604" text-anchor="start" dominant-baseline="alphabetic" transform="matrix(1, 0, 0, 1, 41.46666669845581, 67.43595123291016)" fill-opacity="1">1</text><text fill="rgb(68,68,68)" stroke="none" font-family="helvetica" font-size="14pt" font-style="normal" font-weight="normal" text-decoration="normal" x="0" y="19.134246826171875" text-anchor="start" dominant-baseline="alphabetic" transform="matrix(1, 0, 0, 1, 41.46666669845581, 45.3351936340332)" fill-opacity="1">10</text><text fill="rgb(68,68,68)" stroke="none" font-family="helvetica" font-size="9.799999999999999pt" font-style="normal" font-weight="normal" text-decoration="normal" x="20.766666412353516" y="9.761719767252604" text-anchor="start" dominant-baseline="alphabetic" transform="matrix(1, 0, 0, 1, 41.46666669845581, 45.3351936340332)" fill-opacity="1">2</text><text fill="rgb(68,68,68)" stroke="none" font-family="helvetica" font-size="14pt" font-style="italic" font-weight="normal" text-decoration="normal" x="-26.19999885559082" y="84.37109375" text-anchor="start" dominant-baseline="alphabetic" transform="matrix(6.123233995736766e-17, -1, 1, 6.123233995736766e-17, -62.66666603088379, 114.33333396911621)" fill-opacity="1">Current (µA)</text><path fill="none" stroke="none"/><text fill="rgb(68,68,68)" stroke="none" font-family="helvetica" font-size="14pt" font-style="normal" font-weight="bold" text-decoration="normal" x="0" y="0" text-anchor="start" dominant-baseline="text-after-edge" transform="matrix(1, 0, 0, 1, 80.5, 29.5)" fill-opacity="1">5 mM nitrate</text></g><g transform="matrix(1, 0, 0, 1, 0, 200)"><path fill="rgb(255,255,255)" stroke="none" paint-order="stroke" d="M 0.5 0.5 L 400.5 0.5 L 400.5 200.5 L 0.5 200.5 L 0.5 0.5" fill-opacity="1"/><rect fill="#FFFFFF" stroke="none" x="80" y="34" width="315" height="109" transform="matrix(1, 0, 0, 1, 0.5, 0.5)"/><path fill="rgb(255,255,255)" stroke="none" paint-order="stroke" d="M 80.5 34.5 L 395.5 34.5 L 395.5 143.5 L 80.5 143.5 L 80.5 34.5" fill-opacity="1"/><path fill="none" stroke="rgb(229,229,229)" paint-order="fill" d="M 80.5 34.5 L 395.5 34.5 L 395.5 143.5 L 80.5 143.5 L 80.5 34.5" stroke-opacity="1" stroke-linejoin="bevel" stroke-miterlimit="10" stroke-dasharray=""/><path fill="none" stroke="rgb(229,229,229)" paint-order="fill" d="M 94.5 143.5 L 94.5 34.5 M 171.5 143.5 L 171.5 34.5 M 248.5 143.5 L 248.5 34.5 M 324.5 143.5 L 324.5 34.5" stroke-opacity="1" stroke-linejoin="bevel" stroke-miterlimit="10" stroke-dasharray="" clip-path="url(#SzKTWpqWuGiG)"/><path fill="none" stroke="rgb(229,229,229)" paint-order="fill" d="M 80.5 143.5 L 395.5 143.5 M 80.5 121.5 L 395.5 121.5 M 80.5 99.5 L 395.5 99.5 M 80.5 77.5 L 395.5 77.5 M 80.5 54.5 L 395.5 54.5" stroke-opacity="1" stroke-linejoin="bevel" stroke-miterlimit="10" stroke-dasharray="" clip-path="url(#tnMxMssOXJar)"/><path fill="none" stroke="none"/><path fill="none" stroke="rgb(240,228,66)" paint-order="fill" d="M 94.81818389892578 97.53962707519531 L 95.69591522216797 54.03123474121094 L 96.58251953125 49.443634033203125 L 97.46912384033203 49.330169677734375 L 98.35572814941406 49.66353225708008 L 99.24232482910156 49.514549255371094 L 100.1289291381836 49.5694580078125 L 101.01553344726562 49.47629928588867 L 101.90213012695312 49.35706329345703 L 102.78873443603516 49.54745864868164 L 103.67533874511719 49.52550506591797 L 104.56194305419922 49.536476135253906 L 105.44853973388672 49.52550506591797 L 106.33514404296875 49.60255813598633 L 107.22174835205078 49.492671966552734 L 108.10834503173828 49.96288299560547 L 108.99494934082031 49.8544921875 L 109.88155364990234 49.769779205322266 L 110.76815795898438 50.02042770385742 L 111.65475463867188 49.9456901550293 L 112.5413589477539 49.9113883972168 L 113.42796325683594 49.630226135253906 L 114.31455993652344 49.69137954711914 L 115.20116424560547 49.67466354370117 L 116.0877685546875 50.00312805175781 L 116.97437286376953 49.75853729248047 L 117.86096954345703 49.702537536621094 L 118.74757385253906 50.21869659423828 L 119.6341781616211 49.820518493652344 L 120.52078247070312 49.6858024597168 L 121.40737915039062 49.73609924316406 L 122.29398345947266 49.79229736328125 L 123.18058776855469 49.8658447265625 L 124.06718444824219 49.9456901550293 L 124.95378875732422 49.83749008178711 L 125.84039306640625 49.820518493652344 L 126.72699737548828 49.781028747558594 L 127.61359405517578 49.75853729248047 L 128.5001983642578 49.86016845703125 L 129.3867950439453 49.968624114990234 L 130.27340698242188 49.991615295410156 L 131.16000366210938 50.02620315551758 L 132.04660034179688 50.25411605834961 L 132.93321228027344 50.00889205932617 L 133.81980895996094 50.99777603149414 L 134.7064208984375 50.934085845947266 L 135.593017578125 51.10702896118164 L 136.4796142578125 51.19794845581055 L 137.36622619628906 52.82988739013672 L 138.25282287597656 54.913841247558594 L 139.13941955566406 56.9866828918457 L 140.02603149414062 59.15892791748047 L 140.91262817382812 61.53996276855469 L 141.79922485351562 63.6301383972168 L 142.6858367919922 65.78504180908203 L 143.5724334716797 66.99115753173828 L 144.4590301513672 68.81036376953125 L 145.34564208984375 70.16943359375 L 146.23223876953125 71.26585388183594 L 147.1188507080078 72.2665786743164 L 148.0054473876953 72.62476348876953 L 148.8920440673828 73.99546813964844 L 149.77865600585938 73.78726196289062 L 150.66525268554688 74.9538803100586 L 151.55184936523438 75.34957885742188 L 152.43846130371094 74.80005645751953 L 153.32505798339844 74.0658950805664 L 154.21165466308594 75.34957885742188 L 155.0982666015625 74.9538803100586 L 155.98486328125 73.92556762695312 L 156.87147521972656 75.34957885742188 L 157.75807189941406 73.92556762695312 L 158.64466857910156 73.85616302490234 L 159.53128051757812 74.28030395507812 L 160.41787719726562 74.0658950805664 L 161.30447387695312 73.65091705322266 L 162.1910858154297 74.64866638183594 L 163.0776824951172 73.58346557617188 L 163.9642791748047 73.7188491821289 L 164.85089111328125 74.72406005859375 L 165.73748779296875 73.51648712158203 L 166.62408447265625 74.13683319091797 L 167.5106964111328 73.78726196289062 L 168.3972930908203 74.28030395507812 L 169.28390502929688 73.06027221679688 L 170.17050170898438 73.18842315673828 L 171.05709838867188 73.92556762695312 L 171.94371032714844 55.477848052978516 L 172.83030700683594 51.707115173339844 L 173.71690368652344 51.119964599609375 L 174.603515625 51.21100616455078 L 175.4901123046875 50.927738189697266 L 176.376708984375 50.90239715576172 L 177.26332092285156 50.91505813598633 L 178.14991760253906 50.870811462402344 L 179.03652954101562 51.016963958740234 L 179.92312622070312 50.88975143432617 L 180.80972290039062 50.98500442504883 L 181.6963348388672 50.68964767456055 L 182.5829315185547 50.959510803222656 L 183.4695281982422 50.8267707824707 L 184.35614013671875 51.02336883544922 L 185.24273681640625 50.9213981628418 L 186.12933349609375 50.940433502197266 L 187.0159454345703 51.2175407409668 L 187.9025421142578 51.010562896728516 L 188.7891387939453 50.959510803222656 L 189.67575073242188 50.953147888183594 L 190.56234741210938 50.764198303222656 L 191.44895935058594 50.77667999267578 L 192.33555603027344 50.940433502197266 L 193.22215270996094 50.90239715576172 L 194.1087646484375 51.07476806640625 L 194.995361328125 50.80795669555664 L 195.8819580078125 50.86450958251953 L 196.76856994628906 51.19142532348633 L 197.65516662597656 51.068328857421875 L 198.54176330566406 51.08121109008789 L 199.42837524414062 51.02336883544922 L 200.31497192382812 51.029781341552734 L 201.2015838623047 51.230628967285156 L 202.0881805419922 51.70023727416992 L 202.9747772216797 53.33810043334961 L 203.86138916015625 55.31615447998047 L 204.74798583984375 57.450927734375 L 205.63458251953125 59.355342864990234 L 206.5211944580078 61.36900329589844 L 207.4077911376953 63.165016174316406 L 208.2943878173828 65.29092407226562 L 209.18099975585938 66.46473693847656 L 210.06759643554688 67.62008666992188 L 210.95419311523438 67.91341400146484 L 211.84080505371094 68.89247131347656 L 212.72740173339844 69.66486358642578 L 213.614013671875 69.70965576171875 L 214.5006103515625 70.07569885253906 L 215.38720703125 70.21664428710938 L 216.27381896972656 70.8525161743164 L 217.16041564941406 70.75190734863281 L 218.04701232910156 71.16084289550781 L 218.93362426757812 71.16084289550781 L 219.82022094726562 71.4255599975586 L 220.70681762695312 71.16084289550781 L 221.5934295654297 71.64273071289062 L 222.4800262451172 71.58797454833984 L 223.36663818359375 71.69779205322266 L 224.25323486328125 70.8525161743164 L 225.13983154296875 71.53353118896484 L 226.0264434814453 71.80888366699219 L 226.9130401611328 70.9032211303711 L 227.7996368408203 70.95419311523438 L 228.68624877929688 71.64273071289062 L 229.57284545898438 71.53353118896484 L 230.45944213867188 71.80888366699219 L 231.34605407714844 71.64273071289062 L 232.23265075683594 71.21320343017578 L 233.11924743652344 71.21320343017578 L 234.005859375 71.21320343017578 L 234.8924560546875 70.65234375 L 235.77906799316406 70.8525161743164 L 236.66566467285156 70.95419311523438 L 237.55226135253906 70.65234375 L 238.43887329101562 70.55379486083984 L 239.32546997070312 71.4793930053711 L 240.21206665039062 71.16084289550781 L 241.0986785888672 71.4793930053711 L 241.9852752685547 71.31879425048828 L 242.8718719482422 70.95419311523438 L 243.75848388671875 70.9032211303711 L 244.64508056640625 71.37203216552734 L 245.5316925048828 71.16084289550781 L 246.4182891845703 70.55379486083984 L 247.3048858642578 70.60294342041016 L 248.19149780273438 58.820980072021484 L 249.07809448242188 52.13627624511719 L 249.96469116210938 51.57048416137695 L 250.85130310058594 51.45585632324219 L 251.73789978027344 51.529869079589844 L 252.62449645996094 51.5772705078125 L 253.5111083984375 51.76924133300781 L 254.397705078125 51.49615478515625 L 255.28431701660156 51.693363189697266 L 256.17091369628906 51.56370162963867 L 257.0575256347656 51.66592025756836 L 257.9441223144531 51.741580963134766 L 258.8307189941406 51.838741302490234 L 259.7173156738281 51.611270904541016 L 260.6039123535156 51.55692672729492 L 261.49053955078125 51.78310012817383 L 262.37713623046875 51.59085464477539 L 263.26373291015625 51.60445785522461 L 264.15032958984375 51.58406066894531 L 265.03692626953125 51.645389556884766 L 265.92352294921875 51.48942947387695 L 266.8101501464844 51.70023727416992 L 267.6967468261719 51.59085464477539 L 268.5833435058594 51.693363189697266 L 269.4699401855469 51.45585632324219 L 270.3565368652344 51.817840576171875 L 271.2431335449219 51.65222930908203 L 272.1297607421875 51.611270904541016 L 273.016357421875 51.755401611328125 L 273.9029541015625 51.59765625 L 274.78955078125 51.68649673461914 L 275.6761474609375 51.67277526855469 L 276.5627746582031 51.56370162963867 L 277.4493713378906 51.65222930908203 L 278.3359680175781 51.65222930908203 L 279.2225646972656 51.422401428222656 L 280.1091613769531 51.65222930908203 L 280.9957580566406 51.54338836669922 L 281.88238525390625 51.57048416137695 L 282.76898193359375 51.72088623046875 L 283.65557861328125 51.45585632324219 L 284.54217529296875 51.449153900146484 L 285.42877197265625 51.55692672729492 L 286.3153991699219 51.68649673461914 L 287.2019958496094 51.76924133300781 L 288.0885925292969 52.05031967163086 L 288.9751892089844 51.79698181152344 L 289.8617858886719 51.7900390625 L 290.7483825683594 51.7900390625 L 291.635009765625 51.755401611328125 L 292.5216064453125 51.727779388427734 L 293.408203125 51.72088623046875 L 294.2947998046875 51.79698181152344 L 295.181396484375 51.74848556518555 L 296.0680236816406 52.078887939453125 L 296.9546203613281 51.838741302490234 L 297.8412170410156 51.529869079589844 L 298.7278137207031 52.05031967163086 L 299.6144104003906 51.88068771362305 L 300.5010070800781 51.90875244140625 L 301.38763427734375 52.00053405761719 L 302.27423095703125 52.014732360839844 L 303.16082763671875 51.92985534667969 L 304.04742431640625 52.16510009765625 L 304.93402099609375 51.817840576171875 L 305.8206481933594 52.03607177734375 L 306.7072448730469 51.92985534667969 L 307.5938415527344 51.87368392944336 L 308.4804382324219 52.33253479003906 L 309.3670349121094 52.00762939453125 L 310.2536315917969 52.05031967163086 L 311.1402587890625 51.91577911376953 L 312.02685546875 52.028953552246094 L 312.9134521484375 52.26667022705078 L 313.800048828125 52.05745315551758 L 314.6866455078125 52.13627624511719 L 315.5732421875 52.114715576171875 L 316.4598693847656 52.05745315551758 L 317.3464660644531 51.958065032958984 L 318.2330627441406 52.17231750488281 L 319.1196594238281 52.33253479003906 L 320.0062561035156 51.97927474975586 L 320.89288330078125 52.15788650512695 L 321.77947998046875 52.114715576171875 L 322.66607666015625 52.06459426879883 L 323.55267333984375 52.129085540771484 L 324.43927001953125 52.078887939453125 L 325.32586669921875 52.12189865112305 L 326.2124938964844 52.273963928222656 L 327.0990905761719 51.972198486328125 L 327.9856872558594 52.028953552246094 L 328.8722839355469 52.0218391418457 L 329.7588806152344 51.958065032958984 L 330.6455078125 52.2958869934082 L 331.5321044921875 51.8876953125 L 332.418701171875 52.107540130615234 L 333.3052978515625 51.91577911376953 L 334.19189453125 52.354591369628906 L 335.0784912109375 51.96512985229492 L 335.9651184082031 51.77616882324219 L 336.8517150878906 51.79698181152344 L 337.7383117675781 51.84572219848633 L 338.6249084472656 51.96512985229492 L 339.5115051269531 52.09320068359375 L 340.39813232421875 51.91577911376953 L 341.28472900390625 51.70023727416992 L 342.17132568359375 51.96512985229492 L 343.05792236328125 51.901729583740234 L 343.94451904296875 51.95100402832031 L 344.83111572265625 51.90875244140625 L 345.7177429199219 52.05031967163086 L 346.6043395996094 51.70023727416992 L 347.4909362792969 51.734676361083984 L 348.3775329589844 51.8876953125 L 349.2641296386719 51.901729583740234 L 350.1507568359375 52.14347457885742 L 351.037353515625 52.26667022705078 L 351.9239501953125 51.90875244140625 L 352.810546875 51.894710540771484 L 353.6971435546875 51.894710540771484 L 354.583740234375 51.79698181152344 L 355.4703674316406 51.82480239868164 L 356.3569641113281 52.028953552246094 L 357.2435607910156 51.96512985229492 L 358.1301574707031 51.94395065307617 L 359.0167541503906 51.72088623046875 L 359.9033508300781 52.09320068359375 L 360.78997802734375 51.65222930908203 L 361.67657470703125 51.838741302490234 L 362.56317138671875 51.95100402832031 L 363.44976806640625 52.078887939453125 L 364.33636474609375 52.03607177734375 L 365.2229919433594 52.00053405761719 L 366.1095886230469 52.17231750488281 L 366.9961853027344 51.972198486328125 L 367.8827819824219 52.028953552246094 L 368.7693786621094 52.114715576171875 L 369.6559753417969 51.901729583740234 L 370.5426025390625 52.03607177734375 L 371.42919921875 52.23754119873047 L 372.3157958984375 52.16510009765625 L 373.202392578125 52.14347457885742 L 374.0889892578125 51.92985534667969 L 374.9756164550781 51.96512985229492 L 375.8622131347656 51.958065032958984 L 376.7488098144531 51.79698181152344 L 377.6354064941406 52.30320739746094 L 378.5220031738281 52.20125198364258 L 379.4085998535156 52.34723663330078 L 380.29522705078125 52.16510009765625 L 381.18182373046875 52.2958869934082" stroke-opacity="1" stroke-linejoin="bevel" stroke-miterlimit="10" stroke-width="3" stroke-dasharray="" clip-path="url(#HhRghpJtWrZo)"/><path fill="none" stroke="none"/><path fill="none" stroke="rgb(0,0,0)" paint-order="fill" d="M 171.4117431640625 44.35757064819336 L 171.4117431640625 39.45454406738281" stroke-opacity="1" stroke-linejoin="bevel" stroke-miterlimit="10" stroke-width="3" stroke-dasharray="" clip-path="url(#IkicxzngpTpB)"/><path fill="none" stroke="rgb(0,0,0)" paint-order="fill" d="M 248.01417541503906 44.35757064819336 L 248.01417541503906 39.45454406738281" stroke-opacity="1" stroke-linejoin="bevel" stroke-miterlimit="10" stroke-width="3" stroke-dasharray="" clip-path="url(#IkicxzngpTpB)"/><path fill="none" stroke="rgb(0,0,0)" paint-order="fill" d="M 324.70526123046875 44.35757064819336 L 324.70526123046875 39.45454406738281" stroke-opacity="1" stroke-linejoin="bevel" stroke-miterlimit="10" stroke-width="3" stroke-dasharray="" clip-path="url(#IkicxzngpTpB)"/><path fill="none" stroke="rgb(0,0,0)" paint-order="fill" d="M 80.5 143.5 L 395.5 143.5" stroke-opacity="1" stroke-linejoin="bevel" stroke-miterlimit="10" stroke-dasharray=""/><path fill="none" stroke="rgb(0,0,0)" paint-order="fill" d="M 94.5 149.5 L 94.5 141.5 M 171.5 149.5 L 171.5 141.5 M 248.5 149.5 L 248.5 141.5 M 324.5 149.5 L 324.5 141.5" stroke-opacity="1" stroke-linejoin="bevel" stroke-miterlimit="10" stroke-dasharray=""/><path fill="none" stroke="rgb(0,0,0)" paint-order="fill" d="M 94.5 147.5 L 94.5 143.5 M 110.5 147.5 L 110.5 143.5 M 125.5 147.5 L 125.5 143.5 M 140.5 147.5 L 140.5 143.5 M 156.5 147.5 L 156.5 143.5 M 171.5 147.5 L 171.5 143.5 M 186.5 147.5 L 186.5 143.5 M 202.5 147.5 L 202.5 143.5 M 217.5 147.5 L 217.5 143.5 M 232.5 147.5 L 232.5 143.5 M 248.5 147.5 L 248.5 143.5 M 263.5 147.5 L 263.5 143.5 M 278.5 147.5 L 278.5 143.5 M 293.5 147.5 L 293.5 143.5 M 309.5 147.5 L 309.5 143.5 M 324.5 147.5 L 324.5 143.5 M 339.5 147.5 L 339.5 143.5 M 355.5 147.5 L 355.5 143.5 M 370.5 147.5 L 370.5 143.5 M 385.5 147.5 L 385.5 143.5" stroke-opacity="1" stroke-linejoin="bevel" stroke-miterlimit="10" stroke-dasharray=""/><text fill="rgb(68,68,68)" stroke="none" font-family="helvetica" font-size="14pt" font-style="normal" font-weight="normal" text-decoration="normal" x="89.11765193939209" y="167.38932393391926" text-anchor="start" dominant-baseline="alphabetic" transform="matrix(1, 0, 0, 1, 0.5, 0.5)" fill-opacity="1">0</text><text fill="rgb(68,68,68)" stroke="none" font-family="helvetica" font-size="14pt" font-style="normal" font-weight="normal" text-decoration="normal" x="165.72007656097412" y="167.38932393391926" text-anchor="start" dominant-baseline="alphabetic" transform="matrix(1, 0, 0, 1, 0.5, 0.5)" fill-opacity="1">1</text><text fill="rgb(68,68,68)" stroke="none" font-family="helvetica" font-size="14pt" font-style="normal" font-weight="normal" text-decoration="normal" x="242.32250881195068" y="167.38932393391926" text-anchor="start" dominant-baseline="alphabetic" transform="matrix(1, 0, 0, 1, 0.5, 0.5)" fill-opacity="1">2</text><text fill="rgb(68,68,68)" stroke="none" font-family="helvetica" font-size="14pt" font-style="normal" font-weight="normal" text-decoration="normal" x="318.92494106292725" y="167.38932393391926" text-anchor="start" dominant-baseline="alphabetic" transform="matrix(1, 0, 0, 1, 0.5, 0.5)" fill-opacity="1">3</text><text fill="rgb(68,68,68)" stroke="none" font-family="helvetica" font-size="14pt" font-style="italic" font-weight="normal" text-decoration="normal" x="188.57500076293945" y="193.29036763509117" text-anchor="start" dominant-baseline="alphabetic" transform="matrix(1, 0, 0, 1, 0.5, 0.5)" fill-opacity="1">Time (days)</text><path fill="none" stroke="rgb(0,0,0)" paint-order="fill" d="M 80.5 143.5 L 80.5 34.5" stroke-opacity="1" stroke-linejoin="bevel" stroke-miterlimit="10" stroke-dasharray=""/><path fill="none" stroke="rgb(0,0,0)" paint-order="fill" d="M 74.5 143.5 L 82.5 143.5 M 74.5 121.5 L 82.5 121.5 M 74.5 99.5 L 82.5 99.5 M 74.5 77.5 L 82.5 77.5 M 74.5 54.5 L 82.5 54.5" stroke-opacity="1" stroke-linejoin="bevel" stroke-miterlimit="10" stroke-dasharray=""/><path fill="none" stroke="rgb(0,0,0)" paint-order="fill" d="M 76.5 143.5 L 80.5 143.5 M 76.5 143.5 L 80.5 143.5 M 76.5 136.5 L 80.5 136.5 M 76.5 132.5 L 80.5 132.5 M 76.5 129.5 L 80.5 129.5 M 76.5 127.5 L 80.5 127.5 M 76.5 126.5 L 80.5 126.5 M 76.5 124.5 L 80.5 124.5 M 76.5 123.5 L 80.5 123.5 M 76.5 122.5 L 80.5 122.5 M 76.5 121.5 L 80.5 121.5 M 76.5 121.5 L 80.5 121.5 M 76.5 114.5 L 80.5 114.5 M 76.5 110.5 L 80.5 110.5 M 76.5 107.5 L 80.5 107.5 M 76.5 105.5 L 80.5 105.5 M 76.5 104.5 L 80.5 104.5 M 76.5 102.5 L 80.5 102.5 M 76.5 101.5 L 80.5 101.5 M 76.5 100.5 L 80.5 100.5 M 76.5 99.5 L 80.5 99.5 M 76.5 99.5 L 80.5 99.5 M 76.5 92.5 L 80.5 92.5 M 76.5 88.5 L 80.5 88.5 M 76.5 85.5 L 80.5 85.5 M 76.5 83.5 L 80.5 83.5 M 76.5 81.5 L 80.5 81.5 M 76.5 80.5 L 80.5 80.5 M 76.5 79.5 L 80.5 79.5 M 76.5 78.5 L 80.5 78.5 M 76.5 77.5 L 80.5 77.5 M 76.5 77.5 L 80.5 77.5 M 76.5 70.5 L 80.5 70.5 M 76.5 66.5 L 80.5 66.5 M 76.5 63.5 L 80.5 63.5 M 76.5 61.5 L 80.5 61.5 M 76.5 59.5 L 80.5 59.5 M 76.5 58.5 L 80.5 58.5 M 76.5 57.5 L 80.5 57.5 M 76.5 55.5 L 80.5 55.5 M 76.5 54.5 L 80.5 54.5 M 76.5 54.5 L 80.5 54.5 M 76.5 48.5 L 80.5 48.5 M 76.5 44.5 L 80.5 44.5 M 76.5 41.5 L 80.5 41.5 M 76.5 39.5 L 80.5 39.5 M 76.5 37.5 L 80.5 37.5 M 76.5 36.5 L 80.5 36.5 M 76.5 34.5 L 80.5 34.5" stroke-opacity="1" stroke-linejoin="bevel" stroke-miterlimit="10" stroke-dasharray=""/><text fill="rgb(68,68,68)" stroke="none" font-family="helvetica" font-size="14pt" font-style="normal" font-weight="normal" text-decoration="normal" x="0" y="19.134246826171875" text-anchor="start" dominant-baseline="alphabetic" transform="matrix(1, 0, 0, 1, 33.83333396911621, 133.7382354736328)" fill-opacity="1">10</text><text fill="rgb(68,68,68)" stroke="none" font-family="helvetica" font-size="9.799999999999999pt" font-style="normal" font-weight="normal" text-decoration="normal" x="20.766666412353516" y="9.761719767252604" text-anchor="start" dominant-baseline="alphabetic" transform="matrix(1, 0, 0, 1, 33.83333396911621, 133.7382354736328)" fill-opacity="1">−2</text><text fill="rgb(68,68,68)" stroke="none" font-family="helvetica" font-size="14pt" font-style="normal" font-weight="normal" text-decoration="normal" x="0" y="19.134246826171875" text-anchor="start" dominant-baseline="alphabetic" transform="matrix(1, 0, 0, 1, 33.83333396911621, 111.63748168945312)" fill-opacity="1">10</text><text fill="rgb(68,68,68)" stroke="none" font-family="helvetica" font-size="9.799999999999999pt" font-style="normal" font-weight="normal" text-decoration="normal" x="20.766666412353516" y="9.761719767252604" text-anchor="start" dominant-baseline="alphabetic" transform="matrix(1, 0, 0, 1, 33.83333396911621, 111.63748168945312)" fill-opacity="1">−1</text><text fill="rgb(68,68,68)" stroke="none" font-family="helvetica" font-size="14pt" font-style="normal" font-weight="normal" text-decoration="normal" x="0" y="19.134246826171875" text-anchor="start" dominant-baseline="alphabetic" transform="matrix(1, 0, 0, 1, 41.46666669845581, 89.5367202758789)" fill-opacity="1">10</text><text fill="rgb(68,68,68)" stroke="none" font-family="helvetica" font-size="9.799999999999999pt" font-style="normal" font-weight="normal" text-decoration="normal" x="20.766666412353516" y="9.761719767252604" text-anchor="start" dominant-baseline="alphabetic" transform="matrix(1, 0, 0, 1, 41.46666669845581, 89.5367202758789)" fill-opacity="1">0</text><text fill="rgb(68,68,68)" stroke="none" font-family="helvetica" font-size="14pt" font-style="normal" font-weight="normal" text-decoration="normal" x="0" y="19.134246826171875" text-anchor="start" dominant-baseline="alphabetic" transform="matrix(1, 0, 0, 1, 41.46666669845581, 67.43595123291016)" fill-opacity="1">10</text><text fill="rgb(68,68,68)" stroke="none" font-family="helvetica" font-size="9.799999999999999pt" font-style="normal" font-weight="normal" text-decoration="normal" x="20.766666412353516" y="9.761719767252604" text-anchor="start" dominant-baseline="alphabetic" transform="matrix(1, 0, 0, 1, 41.46666669845581, 67.43595123291016)" fill-opacity="1">1</text><text fill="rgb(68,68,68)" stroke="none" font-family="helvetica" font-size="14pt" font-style="normal" font-weight="normal" text-decoration="normal" x="0" y="19.134246826171875" text-anchor="start" dominant-baseline="alphabetic" transform="matrix(1, 0, 0, 1, 41.46666669845581, 45.3351936340332)" fill-opacity="1">10</text><text fill="rgb(68,68,68)" stroke="none" font-family="helvetica" font-size="9.799999999999999pt" font-style="normal" font-weight="normal" text-decoration="normal" x="20.766666412353516" y="9.761719767252604" text-anchor="start" dominant-baseline="alphabetic" transform="matrix(1, 0, 0, 1, 41.46666669845581, 45.3351936340332)" fill-opacity="1">2</text><text fill="rgb(68,68,68)" stroke="none" font-family="helvetica" font-size="14pt" font-style="italic" font-weight="normal" text-decoration="normal" x="-26.19999885559082" y="84.37109375" text-anchor="start" dominant-baseline="alphabetic" transform="matrix(6.123233995736766e-17, -1, 1, 6.123233995736766e-17, -62.66666603088379, 114.33333396911621)" fill-opacity="1">Current (µA)</text><path fill="none" stroke="none"/><text fill="rgb(68,68,68)" stroke="none" font-family="helvetica" font-size="14pt" font-style="normal" font-weight="bold" text-decoration="normal" x="0" y="0" text-anchor="start" dominant-baseline="text-after-edge" transform="matrix(1, 0, 0, 1, 80.5, 29.5)" fill-opacity="1">5 mM nitrate, respike every 24 hours</text></g><g transform="matrix(1, 0, 0, 1, 400, 200)"><path fill="rgb(255,255,255)" stroke="none" paint-order="stroke" d="M 0.5 0.5 L 400.5 0.5 L 400.5 200.5 L 0.5 200.5 L 0.5 0.5" fill-opacity="1"/><rect fill="#FFFFFF" stroke="none" x="80" y="34" width="315" height="109" transform="matrix(1, 0, 0, 1, 0.5, 0.5)"/><path fill="rgb(255,255,255)" stroke="none" paint-order="stroke" d="M 80.5 34.5 L 395.5 34.5 L 395.5 143.5 L 80.5 143.5 L 80.5 34.5" fill-opacity="1"/><path fill="none" stroke="rgb(229,229,229)" paint-order="fill" d="M 80.5 34.5 L 395.5 34.5 L 395.5 143.5 L 80.5 143.5 L 80.5 34.5" stroke-opacity="1" stroke-linejoin="bevel" stroke-miterlimit="10" stroke-dasharray=""/><path fill="none" stroke="rgb(229,229,229)" paint-order="fill" d="M 94.5 143.5 L 94.5 34.5 M 171.5 143.5 L 171.5 34.5 M 248.5 143.5 L 248.5 34.5 M 324.5 143.5 L 324.5 34.5" stroke-opacity="1" stroke-linejoin="bevel" stroke-miterlimit="10" stroke-dasharray="" clip-path="url(#xcQtLgbJflfZ)"/><path fill="none" stroke="rgb(229,229,229)" paint-order="fill" d="M 80.5 143.5 L 395.5 143.5 M 80.5 121.5 L 395.5 121.5 M 80.5 99.5 L 395.5 99.5 M 80.5 77.5 L 395.5 77.5 M 80.5 54.5 L 395.5 54.5" stroke-opacity="1" stroke-linejoin="bevel" stroke-miterlimit="10" stroke-dasharray="" clip-path="url(#hpdOwmJFxgrO)"/><path fill="none" stroke="none"/><path fill="none" stroke="rgb(0,158,115)" paint-order="fill" d="M 94.81818389892578 130.89405822753906 L 95.69591522216797 55.149261474609375 L 96.58251953125 49.894283294677734 L 97.46912384033203 49.820518493652344 L 98.35572814941406 49.991615295410156 L 99.24232482910156 49.73609924316406 L 100.1289291381836 49.67466354370117 L 101.01553344726562 50.06671142578125 L 101.90213012695312 49.96288299560547 L 102.78873443603516 50.45128631591797 L 103.67533874511719 50.15995788574219 L 104.56194305419922 50.37312698364258 L 105.44853973388672 50.4754638671875 L 106.33514404296875 51.30951690673828 L 107.22174835205078 51.158878326416016 L 108.10834503173828 51.34258270263672 L 108.99494934082031 50.81422424316406 L 109.88155364990234 50.77667999267578 L 110.76815795898438 51.04261016845703 L 111.65475463867188 50.97224807739258 L 112.5413589477539 50.566673278808594 L 113.42796325683594 51.469268798828125 L 114.31455993652344 51.113494873046875 L 115.20116424560547 50.953147888183594 L 116.0877685546875 50.13656234741211 L 116.97437286376953 51.12643814086914 L 117.86096954345703 50.391109466552734 L 118.74757385253906 50.85820770263672 L 119.6341781616211 51.402381896972656 L 120.52078247070312 51.29632568359375 L 121.40737915039062 50.8267707824707 L 122.29398345947266 50.24229431152344 L 123.18058776855469 50.60340118408203 L 124.06718444824219 50.28966522216797 L 124.95378875732422 50.959510803222656 L 125.84039306640625 50.59727096557617 L 126.72699737548828 51.55015563964844 L 127.61359405517578 50.42716979980469 L 128.5001983642578 50.536170959472656 L 129.3867950439453 51.44245910644531 L 130.27340698242188 50.68346405029297 L 131.16000366210938 50.4633674621582 L 132.04660034179688 50.61567306518555 L 132.93321228027344 50.77667999267578 L 133.81980895996094 51.355838775634766 L 134.7064208984375 51.36247253417969 L 135.593017578125 50.54226303100586 L 136.4796142578125 50.62181854248047 L 137.36622619628906 50.585018157958984 L 138.25282287597656 50.839332580566406 L 139.13941955566406 50.585018157958984 L 140.02603149414062 50.68346405029297 L 140.91262817382812 50.85820770263672 L 141.79922485351562 50.68346405029297 L 142.6858367919922 50.870811462402344 L 143.5724334716797 50.41513442993164 L 144.4590301513672 51.56370162963867 L 145.34564208984375 50.90872573852539 L 146.23223876953125 50.8834342956543 L 147.1188507080078 50.78917694091797 L 148.0054473876953 50.87712097167969 L 148.8920440673828 51.25685119628906 L 149.77865600585938 50.62796401977539 L 150.66525268554688 50.757965087890625 L 151.55184936523438 50.73306655883789 L 152.43846130371094 50.80795669555664 L 153.32505798339844 50.51791763305664 L 154.21165466308594 50.9467887878418 L 155.0982666015625 51.19794845581055 L 155.98486328125 51.158878326416016 L 156.87147521972656 50.695838928222656 L 157.75807189941406 50.57889938354492 L 158.64466857910156 51.00416946411133 L 159.53128051757812 50.90239715576172 L 160.41787719726562 50.782928466796875 L 161.30447387695312 51.10056686401367 L 162.1910858154297 50.63411331176758 L 163.0776824951172 50.51791763305664 L 163.9642791748047 50.78917694091797 L 164.85089111328125 50.73306655883789 L 165.73748779296875 50.70203399658203 L 166.62408447265625 50.82049560546875 L 167.5106964111328 51.48942947387695 L 168.3972930908203 50.73306655883789 L 169.28390502929688 50.83304977416992 L 170.17050170898438 51.30951690673828 L 171.05709838867188 50.695838928222656 L 171.94371032714844 50.965877532958984 L 172.83030700683594 51.31612014770508 L 173.71690368652344 51.58406066894531 L 174.603515625 50.62181854248047 L 175.4901123046875 51.335960388183594 L 176.376708984375 51.727779388427734 L 177.26332092285156 51.08121109008789 L 178.14991760253906 50.99777603149414 L 179.03652954101562 51.47598648071289 L 179.92312622070312 50.953147888183594 L 180.80972290039062 50.67110061645508 L 181.6963348388672 50.88975143432617 L 182.5829315185547 50.55446243286133 L 183.4695281982422 50.81422424316406 L 184.35614013671875 51.08121109008789 L 185.24273681640625 50.85191345214844 L 186.12933349609375 51.449153900146484 L 187.0159454345703 50.88975143432617 L 187.9025421142578 50.68346405029297 L 188.7891387939453 51.28973388671875 L 189.67575073242188 50.97862243652344 L 190.56234741210938 51.049034118652344 L 191.44895935058594 50.8834342956543 L 192.33555603027344 51.17839431762695 L 193.22215270996094 51.55015563964844 L 194.1087646484375 50.72064208984375 L 194.995361328125 50.745506286621094 L 195.8819580078125 51.068328857421875 L 196.76856994628906 50.8834342956543 L 197.65516662597656 51.31612014770508 L 198.54176330566406 50.8267707824707 L 199.42837524414062 51.19142532348633 L 200.31497192382812 50.940433502197266 L 201.2015838623047 51.010562896728516 L 202.0881805419922 51.21100616455078 L 202.9747772216797 50.934085845947266 L 203.86138916015625 50.940433502197266 L 204.74798583984375 50.70823287963867 L 205.63458251953125 50.934085845947266 L 206.5211944580078 51.55692672729492 L 207.4077911376953 51.010562896728516 L 208.2943878173828 50.86450958251953 L 209.18099975585938 51.16537857055664 L 210.06759643554688 50.757965087890625 L 210.95419311523438 51.41572570800781 L 211.84080505371094 51.335960388183594 L 212.72740173339844 51.07476806640625 L 213.614013671875 51.26999282836914 L 214.5006103515625 50.782928466796875 L 215.38720703125 50.940433502197266 L 216.27381896972656 50.839332580566406 L 217.16041564941406 50.78917694091797 L 218.04701232910156 51.26342010498047 L 218.93362426757812 50.77043914794922 L 219.82022094726562 51.26999282836914 L 220.70681762695312 50.801692962646484 L 221.5934295654297 51.19142532348633 L 222.4800262451172 50.953147888183594 L 223.36663818359375 50.940433502197266 L 224.25323486328125 51.02336883544922 L 225.13983154296875 51.20447540283203 L 226.0264434814453 50.695838928222656 L 226.9130401611328 50.88975143432617 L 227.7996368408203 50.839332580566406 L 228.68624877929688 50.90239715576172 L 229.57284545898438 51.19142532348633 L 230.45944213867188 51.094112396240234 L 231.34605407714844 51.41572570800781 L 232.23265075683594 51.03619384765625 L 233.11924743652344 51.36247253417969 L 234.005859375 51.27656936645508 L 234.8924560546875 50.97862243652344 L 235.77906799316406 50.959510803222656 L 236.66566467285156 51.85969161987305 L 237.55226135253906 50.99138641357422 L 238.43887329101562 51.07476806640625 L 239.32546997070312 51.010562896728516 L 240.21206665039062 51.28973388671875 L 241.0986785888672 50.934085845947266 L 241.9852752685547 50.85820770263672 L 242.8718719482422 50.566673278808594 L 243.75848388671875 51.435768127441406 L 244.64508056640625 50.99138641357422 L 245.5316925048828 50.9467887878418 L 246.4182891845703 51.28314971923828 L 247.3048858642578 51.19794845581055 L 248.19149780273438 51.449153900146484 L 249.07809448242188 51.68649673461914 L 249.96469116210938 51.12643814086914 L 250.85130310058594 51.422401428222656 L 251.73789978027344 51.152381896972656 L 252.62449645996094 51.230628967285156 L 253.5111083984375 51.389060974121094 L 254.397705078125 51.34258270263672 L 255.28431701660156 51.13291931152344 L 256.17091369628906 51.355838775634766 L 257.0575256347656 51.5163688659668 L 257.9441223144531 51.482704162597656 L 258.8307189941406 51.010562896728516 L 259.7173156738281 51.139400482177734 L 260.6039123535156 51.113494873046875 L 261.49053955078125 51.13291931152344 L 262.37713623046875 51.60445785522461 L 263.26373291015625 51.2175407409668 L 264.15032958984375 51.16537857055664 L 265.03692626953125 51.44245910644531 L 265.92352294921875 51.094112396240234 L 266.8101501464844 51.27656936645508 L 267.6967468261719 51.34920883178711 L 268.5833435058594 50.965877532958984 L 269.4699401855469 51.016963958740234 L 270.3565368652344 51.322731018066406 L 271.2431335449219 51.31612014770508 L 272.1297607421875 51.36911392211914 L 273.016357421875 51.5163688659668 L 273.9029541015625 51.094112396240234 L 274.78955078125 51.21100616455078 L 275.6761474609375 51.34920883178711 L 276.5627746582031 50.97224807739258 L 277.4493713378906 51.16537857055664 L 278.3359680175781 51.224082946777344 L 279.2225646972656 51.061893463134766 L 280.1091613769531 51.62490463256836 L 280.9957580566406 51.16537857055664 L 281.88238525390625 51.335960388183594 L 282.76898193359375 51.34920883178711 L 283.65557861328125 51.237178802490234 L 284.54217529296875 51.25685119628906 L 285.42877197265625 51.094112396240234 L 286.3153991699219 51.83176803588867 L 287.2019958496094 51.55015563964844 L 288.0885925292969 51.502891540527344 L 288.9751892089844 51.86668395996094 L 289.8617858886719 51.45585632324219 L 290.7483825683594 51.422401428222656 L 291.635009765625 51.817840576171875 L 292.5216064453125 51.87368392944336 L 293.408203125 51.838741302490234 L 294.2947998046875 51.422401428222656 L 295.181396484375 51.645389556884766 L 296.0680236816406 51.56370162963867 L 296.9546203613281 51.29632568359375 L 297.8412170410156 51.44245910644531 L 298.7278137207031 51.34920883178711 L 299.6144104003906 51.611270904541016 L 300.5010070800781 51.67963409423828 L 301.38763427734375 51.52311706542969 L 302.27423095703125 51.48942947387695 L 303.16082763671875 51.389060974121094 L 304.04742431640625 51.28314971923828 L 304.93402099609375 51.12643814086914 L 305.8206481933594 51.36911392211914 L 306.7072448730469 51.25685119628906 L 307.5938415527344 51.810882568359375 L 308.4804382324219 51.71399688720703 L 309.3670349121094 51.755401611328125 L 310.2536315917969 51.77616882324219 L 311.1402587890625 51.78310012817383 L 312.02685546875 51.335960388183594 L 312.9134521484375 51.47598648071289 L 313.800048828125 51.734676361083984 L 314.6866455078125 51.693363189697266 L 315.5732421875 51.5163688659668 L 316.4598693847656 51.76924133300781 L 317.3464660644531 51.707115173339844 L 318.2330627441406 51.34920883178711 L 319.1196594238281 51.502891540527344 L 320.0062561035156 51.90875244140625 L 320.89288330078125 52.00053405761719 L 321.77947998046875 51.741580963134766 L 322.66607666015625 51.49615478515625 L 323.55267333984375 51.435768127441406 L 324.43927001953125 51.402381896972656 L 325.32586669921875 51.77616882324219 L 326.2124938964844 51.901729583740234 L 327.0990905761719 51.72088623046875 L 327.9856872558594 51.74848556518555 L 328.8722839355469 52.19401168823242 L 329.7588806152344 51.92985534667969 L 330.6455078125 51.972198486328125 L 331.5321044921875 52.09320068359375 L 332.418701171875 51.810882568359375 L 333.3052978515625 51.70023727416992 L 334.19189453125 51.71399688720703 L 335.0784912109375 52.3914680480957 L 335.9651184082031 51.727779388427734 L 336.8517150878906 51.62490463256836 L 337.7383117675781 51.61808395385742 L 338.6249084472656 51.57048416137695 L 339.5115051269531 51.529869079589844 L 340.39813232421875 51.25685119628906 L 341.28472900390625 52.339881896972656 L 342.17132568359375 51.63855743408203 L 343.05792236328125 51.74848556518555 L 343.94451904296875 52.488006591796875 L 344.83111572265625 51.74848556518555 L 345.7177429199219 52.03607177734375 L 346.6043395996094 51.60445785522461 L 347.4909362792969 51.482704162597656 L 348.3775329589844 52.107540130615234 L 349.2641296386719 51.402381896972656 L 350.1507568359375 51.67963409423828 L 351.037353515625 51.5772705078125 L 351.9239501953125 51.88068771362305 L 352.810546875 51.44245910644531 L 353.6971435546875 51.838741302490234 L 354.583740234375 51.74848556518555 L 355.4703674316406 51.17188262939453 L 356.3569641113281 51.5163688659668 L 357.2435607910156 51.58406066894531 L 358.1301574707031 51.36247253417969 L 359.0167541503906 51.755401611328125 L 359.9033508300781 51.87368392944336 L 360.78997802734375 51.59085464477539 L 361.67657470703125 52.179542541503906 L 362.56317138671875 51.70023727416992 L 363.44976806640625 51.482704162597656 L 364.33636474609375 51.55015563964844 L 365.2229919433594 52.15788650512695 L 366.1095886230469 51.65222930908203 L 366.9961853027344 51.645389556884766 L 367.8827819824219 52.15788650512695 L 368.7693786621094 51.44245910644531 L 369.6559753417969 51.99344253540039 L 370.5426025390625 51.85969161987305 L 371.42919921875 51.61808395385742 L 372.3157958984375 51.502891540527344 L 373.202392578125 51.335960388183594 L 374.0889892578125 51.49615478515625 L 374.9756164550781 51.58406066894531 L 375.8622131347656 51.59085464477539 L 376.7488098144531 52.19401168823242 L 377.6354064941406 52.06459426879883 L 378.5220031738281 51.98635482788086 L 379.4085998535156 51.972198486328125 L 380.29522705078125 52.20125198364258 L 381.18182373046875 52.16510009765625" stroke-opacity="1" stroke-linejoin="bevel" stroke-miterlimit="10" stroke-width="3" stroke-dasharray="" clip-path="url(#CkTOLTbNIfTO)"/><path fill="none" stroke="none"/><path fill="none" stroke="rgb(0,0,0)" paint-order="fill" d="M 133.11053466796875 44.35757064819336 L 133.11053466796875 39.45454406738281" stroke-opacity="1" stroke-linejoin="bevel" stroke-miterlimit="10" stroke-width="3" stroke-dasharray="" clip-path="url(#FhwDeDGWWkDT)"/><path fill="none" stroke="rgb(0,0,0)" paint-order="fill" d="M 171.4117431640625 44.35757064819336 L 171.4117431640625 39.45454406738281" stroke-opacity="1" stroke-linejoin="bevel" stroke-miterlimit="10" stroke-width="3" stroke-dasharray="" clip-path="url(#FhwDeDGWWkDT)"/><path fill="none" stroke="rgb(0,0,0)" paint-order="fill" d="M 209.71295166015625 44.35757064819336 L 209.71295166015625 39.45454406738281" stroke-opacity="1" stroke-linejoin="bevel" stroke-miterlimit="10" stroke-width="3" stroke-dasharray="" clip-path="url(#FhwDeDGWWkDT)"/><path fill="none" stroke="rgb(0,0,0)" paint-order="fill" d="M 248.01417541503906 44.35757064819336 L 248.01417541503906 39.45454406738281" stroke-opacity="1" stroke-linejoin="bevel" stroke-miterlimit="10" stroke-width="3" stroke-dasharray="" clip-path="url(#FhwDeDGWWkDT)"/><path fill="none" stroke="rgb(0,0,0)" paint-order="fill" d="M 286.3153991699219 44.35757064819336 L 286.3153991699219 39.45454406738281" stroke-opacity="1" stroke-linejoin="bevel" stroke-miterlimit="10" stroke-width="3" stroke-dasharray="" clip-path="url(#FhwDeDGWWkDT)"/><path fill="none" stroke="rgb(0,0,0)" paint-order="fill" d="M 324.70526123046875 44.35757064819336 L 324.70526123046875 39.45454406738281" stroke-opacity="1" stroke-linejoin="bevel" stroke-miterlimit="10" stroke-width="3" stroke-dasharray="" clip-path="url(#FhwDeDGWWkDT)"/><path fill="none" stroke="rgb(0,0,0)" paint-order="fill" d="M 80.5 143.5 L 395.5 143.5" stroke-opacity="1" stroke-linejoin="bevel" stroke-miterlimit="10" stroke-dasharray=""/><path fill="none" stroke="rgb(0,0,0)" paint-order="fill" d="M 94.5 149.5 L 94.5 141.5 M 171.5 149.5 L 171.5 141.5 M 248.5 149.5 L 248.5 141.5 M 324.5 149.5 L 324.5 141.5" stroke-opacity="1" stroke-linejoin="bevel" stroke-miterlimit="10" stroke-dasharray=""/><path fill="none" stroke="rgb(0,0,0)" paint-order="fill" d="M 94.5 147.5 L 94.5 143.5 M 110.5 147.5 L 110.5 143.5 M 125.5 147.5 L 125.5 143.5 M 140.5 147.5 L 140.5 143.5 M 156.5 147.5 L 156.5 143.5 M 171.5 147.5 L 171.5 143.5 M 186.5 147.5 L 186.5 143.5 M 202.5 147.5 L 202.5 143.5 M 217.5 147.5 L 217.5 143.5 M 232.5 147.5 L 232.5 143.5 M 248.5 147.5 L 248.5 143.5 M 263.5 147.5 L 263.5 143.5 M 278.5 147.5 L 278.5 143.5 M 293.5 147.5 L 293.5 143.5 M 309.5 147.5 L 309.5 143.5 M 324.5 147.5 L 324.5 143.5 M 339.5 147.5 L 339.5 143.5 M 355.5 147.5 L 355.5 143.5 M 370.5 147.5 L 370.5 143.5 M 385.5 147.5 L 385.5 143.5" stroke-opacity="1" stroke-linejoin="bevel" stroke-miterlimit="10" stroke-dasharray=""/><text fill="rgb(68,68,68)" stroke="none" font-family="helvetica" font-size="14pt" font-style="normal" font-weight="normal" text-decoration="normal" x="89.11765193939209" y="167.38932393391926" text-anchor="start" dominant-baseline="alphabetic" transform="matrix(1, 0, 0, 1, 0.5, 0.5)" fill-opacity="1">0</text><text fill="rgb(68,68,68)" stroke="none" font-family="helvetica" font-size="14pt" font-style="normal" font-weight="normal" text-decoration="normal" x="165.72007656097412" y="167.38932393391926" text-anchor="start" dominant-baseline="alphabetic" transform="matrix(1, 0, 0, 1, 0.5, 0.5)" fill-opacity="1">1</text><text fill="rgb(68,68,68)" stroke="none" font-family="helvetica" font-size="14pt" font-style="normal" font-weight="normal" text-decoration="normal" x="242.32250881195068" y="167.38932393391926" text-anchor="start" dominant-baseline="alphabetic" transform="matrix(1, 0, 0, 1, 0.5, 0.5)" fill-opacity="1">2</text><text fill="rgb(68,68,68)" stroke="none" font-family="helvetica" font-size="14pt" font-style="normal" font-weight="normal" text-decoration="normal" x="318.92494106292725" y="167.38932393391926" text-anchor="start" dominant-baseline="alphabetic" transform="matrix(1, 0, 0, 1, 0.5, 0.5)" fill-opacity="1">3</text><text fill="rgb(68,68,68)" stroke="none" font-family="helvetica" font-size="14pt" font-style="italic" font-weight="normal" text-decoration="normal" x="188.57500076293945" y="193.29036763509117" text-anchor="start" dominant-baseline="alphabetic" transform="matrix(1, 0, 0, 1, 0.5, 0.5)" fill-opacity="1">Time (days)</text><path fill="none" stroke="rgb(0,0,0)" paint-order="fill" d="M 80.5 143.5 L 80.5 34.5" stroke-opacity="1" stroke-linejoin="bevel" stroke-miterlimit="10" stroke-dasharray=""/><path fill="none" stroke="rgb(0,0,0)" paint-order="fill" d="M 74.5 143.5 L 82.5 143.5 M 74.5 121.5 L 82.5 121.5 M 74.5 99.5 L 82.5 99.5 M 74.5 77.5 L 82.5 77.5 M 74.5 54.5 L 82.5 54.5" stroke-opacity="1" stroke-linejoin="bevel" stroke-miterlimit="10" stroke-dasharray=""/><path fill="none" stroke="rgb(0,0,0)" paint-order="fill" d="M 76.5 143.5 L 80.5 143.5 M 76.5 143.5 L 80.5 143.5 M 76.5 136.5 L 80.5 136.5 M 76.5 132.5 L 80.5 132.5 M 76.5 129.5 L 80.5 129.5 M 76.5 127.5 L 80.5 127.5 M 76.5 126.5 L 80.5 126.5 M 76.5 124.5 L 80.5 124.5 M 76.5 123.5 L 80.5 123.5 M 76.5 122.5 L 80.5 122.5 M 76.5 121.5 L 80.5 121.5 M 76.5 121.5 L 80.5 121.5 M 76.5 114.5 L 80.5 114.5 M 76.5 110.5 L 80.5 110.5 M 76.5 107.5 L 80.5 107.5 M 76.5 105.5 L 80.5 105.5 M 76.5 104.5 L 80.5 104.5 M 76.5 102.5 L 80.5 102.5 M 76.5 101.5 L 80.5 101.5 M 76.5 100.5 L 80.5 100.5 M 76.5 99.5 L 80.5 99.5 M 76.5 99.5 L 80.5 99.5 M 76.5 92.5 L 80.5 92.5 M 76.5 88.5 L 80.5 88.5 M 76.5 85.5 L 80.5 85.5 M 76.5 83.5 L 80.5 83.5 M 76.5 81.5 L 80.5 81.5 M 76.5 80.5 L 80.5 80.5 M 76.5 79.5 L 80.5 79.5 M 76.5 78.5 L 80.5 78.5 M 76.5 77.5 L 80.5 77.5 M 76.5 77.5 L 80.5 77.5 M 76.5 70.5 L 80.5 70.5 M 76.5 66.5 L 80.5 66.5 M 76.5 63.5 L 80.5 63.5 M 76.5 61.5 L 80.5 61.5 M 76.5 59.5 L 80.5 59.5 M 76.5 58.5 L 80.5 58.5 M 76.5 57.5 L 80.5 57.5 M 76.5 55.5 L 80.5 55.5 M 76.5 54.5 L 80.5 54.5 M 76.5 54.5 L 80.5 54.5 M 76.5 48.5 L 80.5 48.5 M 76.5 44.5 L 80.5 44.5 M 76.5 41.5 L 80.5 41.5 M 76.5 39.5 L 80.5 39.5 M 76.5 37.5 L 80.5 37.5 M 76.5 36.5 L 80.5 36.5 M 76.5 34.5 L 80.5 34.5" stroke-opacity="1" stroke-linejoin="bevel" stroke-miterlimit="10" stroke-dasharray=""/><text fill="rgb(68,68,68)" stroke="none" font-family="helvetica" font-size="14pt" font-style="normal" font-weight="normal" text-decoration="normal" x="0" y="19.134246826171875" text-anchor="start" dominant-baseline="alphabetic" transform="matrix(1, 0, 0, 1, 33.83333396911621, 133.7382354736328)" fill-opacity="1">10</text><text fill="rgb(68,68,68)" stroke="none" font-family="helvetica" font-size="9.799999999999999pt" font-style="normal" font-weight="normal" text-decoration="normal" x="20.766666412353516" y="9.761719767252604" text-anchor="start" dominant-baseline="alphabetic" transform="matrix(1, 0, 0, 1, 33.83333396911621, 133.7382354736328)" fill-opacity="1">−2</text><text fill="rgb(68,68,68)" stroke="none" font-family="helvetica" font-size="14pt" font-style="normal" font-weight="normal" text-decoration="normal" x="0" y="19.134246826171875" text-anchor="start" dominant-baseline="alphabetic" transform="matrix(1, 0, 0, 1, 33.83333396911621, 111.63748168945312)" fill-opacity="1">10</text><text fill="rgb(68,68,68)" stroke="none" font-family="helvetica" font-size="9.799999999999999pt" font-style="normal" font-weight="normal" text-decoration="normal" x="20.766666412353516" y="9.761719767252604" text-anchor="start" dominant-baseline="alphabetic" transform="matrix(1, 0, 0, 1, 33.83333396911621, 111.63748168945312)" fill-opacity="1">−1</text><text fill="rgb(68,68,68)" stroke="none" font-family="helvetica" font-size="14pt" font-style="normal" font-weight="normal" text-decoration="normal" x="0" y="19.134246826171875" text-anchor="start" dominant-baseline="alphabetic" transform="matrix(1, 0, 0, 1, 41.46666669845581, 89.5367202758789)" fill-opacity="1">10</text><text fill="rgb(68,68,68)" stroke="none" font-family="helvetica" font-size="9.799999999999999pt" font-style="normal" font-weight="normal" text-decoration="normal" x="20.766666412353516" y="9.761719767252604" text-anchor="start" dominant-baseline="alphabetic" transform="matrix(1, 0, 0, 1, 41.46666669845581, 89.5367202758789)" fill-opacity="1">0</text><text fill="rgb(68,68,68)" stroke="none" font-family="helvetica" font-size="14pt" font-style="normal" font-weight="normal" text-decoration="normal" x="0" y="19.134246826171875" text-anchor="start" dominant-baseline="alphabetic" transform="matrix(1, 0, 0, 1, 41.46666669845581, 67.43595123291016)" fill-opacity="1">10</text><text fill="rgb(68,68,68)" stroke="none" font-family="helvetica" font-size="9.799999999999999pt" font-style="normal" font-weight="normal" text-decoration="normal" x="20.766666412353516" y="9.761719767252604" text-anchor="start" dominant-baseline="alphabetic" transform="matrix(1, 0, 0, 1, 41.46666669845581, 67.43595123291016)" fill-opacity="1">1</text><text fill="rgb(68,68,68)" stroke="none" font-family="helvetica" font-size="14pt" font-style="normal" font-weight="normal" text-decoration="normal" x="0" y="19.134246826171875" text-anchor="start" dominant-baseline="alphabetic" transform="matrix(1, 0, 0, 1, 41.46666669845581, 45.3351936340332)" fill-opacity="1">10</text><text fill="rgb(68,68,68)" stroke="none" font-family="helvetica" font-size="9.799999999999999pt" font-style="normal" font-weight="normal" text-decoration="normal" x="20.766666412353516" y="9.761719767252604" text-anchor="start" dominant-baseline="alphabetic" transform="matrix(1, 0, 0, 1, 41.46666669845581, 45.3351936340332)" fill-opacity="1">2</text><text fill="rgb(68,68,68)" stroke="none" font-family="helvetica" font-size="14pt" font-style="italic" font-weight="normal" text-decoration="normal" x="-26.19999885559082" y="84.37109375" text-anchor="start" dominant-baseline="alphabetic" transform="matrix(6.123233995736766e-17, -1, 1, 6.123233995736766e-17, -62.66666603088379, 114.33333396911621)" fill-opacity="1">Current (µA)</text><path fill="none" stroke="none"/><text fill="rgb(68,68,68)" stroke="none" font-family="helvetica" font-size="14pt" font-style="normal" font-weight="bold" text-decoration="normal" x="0" y="0" text-anchor="start" dominant-baseline="text-after-edge" transform="matrix(1, 0, 0, 1, 80.5, 29.5)" fill-opacity="1">5 mM nitrate, respike every 12 hours</text></g></g></svg>