<svg version="1.1" xmlns="http://www.w3.org/2000/svg" xmlns:xlink="http://www.w3.org/1999/xlink" width="400" height="500"><defs><clipPath id="LKyGdfeluXII"><path fill="none" stroke="none" d="M 59.5 31.5 L 370.5 31.5 L 370.5 308.5 L 59.5 308.5 L 59.5 31.5"/></clipPath><clipPath id="LAXlRwgeJyPb"><path fill="none" stroke="none" d="M 59.5 31.5 L 370.5 31.5 L 370.5 308.5 L 59.5 308.5 L 59.5 31.5"/></clipPath><clipPath id="CRolKXnoghnB"><path fill="none" stroke="none" d="M 59.5 31.5 L 370.5 31.5 L 370.5 308.5 L 59.5 308.5 L 59.5 31.5"/></clipPath><clipPath id="AgRNBDeLfDWR"><path fill="none" stroke="none" d="M 59.5 31.5 L 370.5 31.5 L 370.5 308.5 L 59.5 308.5 L 59.5 31.5"/></clipPath><clipPath id="vKCTZvOLkKLv"><path fill="none" stroke="none" d="M 59.5 31.5 L 370.5 31.5 L 370.5 308.5 L 59.5 308.5 L 59.5 31.5"/></clipPath></defs><path fill="rgb(255,255,255)" stroke="none" paint-order="stroke" d="M 0.5 0.5 L 400.5 0.5 L 400.5 500.5 L 0.5 500.5 L 0.5 0.5" fill-opacity="1"/><rect fill="#FFFFFF" stroke="none" x="59" y="31" width="311" height="277" transform="matrix(1, 0, 0, 1, 0.5, 0.5)"/><path fill="rgb(255,255,255)" stroke="none" paint-order="stroke" d="M 59.5 31.5 L 370.5 31.5 L 370.5 308.5 L 59.5 308.5 L 59.5 31.5" fill-opacity="1"/><path fill="none" stroke="rgb(229,229,229)" paint-order="fill" d="M 59.5 31.5 L 370.5 31.5 L 370.5 308.5 L 59.5 308.5 L 59.5 31.5" stroke-opacity="1" stroke-linejoin="bevel" stroke-miterlimit="10" stroke-dasharray=""/><path fill="none" stroke="rgb(229,229,229)" paint-order="fill" d="M 59.5 284.5 L 370.5 284.5 M 59.5 228.5 L 370.5 228.5 M 59.5 171.5 L 370.5 171.5 M 59.5 115.5 L 370.5 115.5 M 59.5 58.5 L 370.5 58.5" stroke-opacity="1" stroke-linejoin="bevel" stroke-miterlimit="10" stroke-dasharray="" clip-path="url(#LAXlRwgeJyPb)"/><path fill="none" stroke="none"/><path fill="rgb(174,199,232)" stroke="rgb(0,0,0)" paint-order="fill" d="M 84.41596984863281 269.9414978027344 A 5 5 0 1 1 84.41596734863302 269.9364978035677" fill-opacity="1" clip-path="url(#CRolKXnoghnB)" stroke-opacity="0.7019607843137254" stroke-linejoin="bevel" stroke-miterlimit="10" stroke-width="2" stroke-dasharray=""/><path fill="rgb(174,199,232)" stroke="rgb(0,0,0)" paint-order="fill" d="M 79.76685333251953 269.4731140136719 A 5 5 0 1 1 79.76685083251974 269.4681140145052" fill-opacity="1" clip-path="url(#CRolKXnoghnB)" stroke-opacity="0.7019607843137254" stroke-linejoin="bevel" stroke-miterlimit="10" stroke-width="2" stroke-dasharray=""/><path fill="rgb(174,199,232)" stroke="rgb(0,0,0)" paint-order="fill" d="M 78.6414794921875 269.0047607421875 A 5 5 0 1 1 78.6414769921877 268.99976074302083" fill-opacity="1" clip-path="url(#CRolKXnoghnB)" stroke-opacity="0.7019607843137254" stroke-linejoin="bevel" stroke-miterlimit="10" stroke-width="2" stroke-dasharray=""/><path fill="rgb(174,199,232)" stroke="rgb(0,0,0)" paint-order="fill" d="M 85.14592742919922 270.8838806152344 A 5 5 0 1 1 85.14592492919942 270.8788806160677" fill-opacity="1" clip-path="url(#CRolKXnoghnB)" stroke-opacity="0.7019607843137254" stroke-linejoin="bevel" stroke-miterlimit="10" stroke-width="2" stroke-dasharray=""/><path fill="rgb(174,199,232)" stroke="rgb(0,0,0)" paint-order="fill" d="M 78.86321258544922 269.9414978027344 A 5 5 0 1 1 78.86321008544942 269.9364978035677" fill-opacity="1" clip-path="url(#CRolKXnoghnB)" stroke-opacity="0.7019607843137254" stroke-linejoin="bevel" stroke-miterlimit="10" stroke-width="2" stroke-dasharray=""/><path fill="rgb(174,199,232)" stroke="rgb(0,0,0)" paint-order="fill" d="M 82.39732360839844 269.0047607421875 A 5 5 0 1 1 82.39732110839864 268.99976074302083" fill-opacity="1" clip-path="url(#CRolKXnoghnB)" stroke-opacity="0.7019607843137254" stroke-linejoin="bevel" stroke-miterlimit="10" stroke-width="2" stroke-dasharray=""/><path fill="rgb(174,199,232)" stroke="rgb(0,0,0)" paint-order="fill" d="M 78.9869384765625 270.4154968261719 A 5 5 0 1 1 78.9869359765627 270.4104968270052" fill-opacity="1" clip-path="url(#CRolKXnoghnB)" stroke-opacity="0.7019607843137254" stroke-linejoin="bevel" stroke-miterlimit="10" stroke-width="2" stroke-dasharray=""/><path fill="rgb(174,199,232)" stroke="rgb(0,0,0)" paint-order="fill" d="M 78.20884704589844 268.5307312011719 A 5 5 0 1 1 78.20884454589864 268.5257312020052" fill-opacity="1" clip-path="url(#CRolKXnoghnB)" stroke-opacity="0.7019607843137254" stroke-linejoin="bevel" stroke-miterlimit="10" stroke-width="2" stroke-dasharray=""/><path fill="rgb(44,160,44)" stroke="rgb(0,0,0)" paint-order="fill" d="M 156.02853393554688 147.20657348632812 A 5 5 0 1 1 156.02853143554708 147.20157348716145" fill-opacity="1" clip-path="url(#CRolKXnoghnB)" stroke-opacity="0.7019607843137254" stroke-linejoin="bevel" stroke-miterlimit="10" stroke-width="2" stroke-dasharray=""/><path fill="rgb(44,160,44)" stroke="rgb(0,0,0)" paint-order="fill" d="M 150.11813354492188 174.01075744628906 A 5 5 0 1 1 150.11813104492208 174.0057574471224" fill-opacity="1" clip-path="url(#CRolKXnoghnB)" stroke-opacity="0.7019607843137254" stroke-linejoin="bevel" stroke-miterlimit="10" stroke-width="2" stroke-dasharray=""/><path fill="rgb(44,160,44)" stroke="rgb(0,0,0)" paint-order="fill" d="M 151.14801025390625 159.90328979492188 A 5 5 0 1 1 151.14800775390646 159.8982897957552" fill-opacity="1" clip-path="url(#CRolKXnoghnB)" stroke-opacity="0.7019607843137254" stroke-linejoin="bevel" stroke-miterlimit="10" stroke-width="2" stroke-dasharray=""/><path fill="rgb(44,160,44)" stroke="rgb(0,0,0)" paint-order="fill" d="M 147.43551635742188 195.6459503173828 A 5 5 0 1 1 147.43551385742208 195.64095031821614" fill-opacity="1" clip-path="url(#CRolKXnoghnB)" stroke-opacity="0.7019607843137254" stroke-linejoin="bevel" stroke-miterlimit="10" stroke-width="2" stroke-dasharray=""/><path fill="rgb(44,160,44)" stroke="rgb(0,0,0)" paint-order="fill" d="M 154.45565795898438 184.3599853515625 A 5 5 0 1 1 154.45565545898458 184.35498535239583" fill-opacity="1" clip-path="url(#CRolKXnoghnB)" stroke-opacity="0.7019607843137254" stroke-linejoin="bevel" stroke-miterlimit="10" stroke-width="2" stroke-dasharray=""/><path fill="rgb(44,160,44)" stroke="rgb(0,0,0)" paint-order="fill" d="M 147.3919677734375 196.5826873779297 A 5 5 0 1 1 147.3919652734377 196.57768737876302" fill-opacity="1" clip-path="url(#CRolKXnoghnB)" stroke-opacity="0.7019607843137254" stroke-linejoin="bevel" stroke-miterlimit="10" stroke-width="2" stroke-dasharray=""/><path fill="rgb(44,160,44)" stroke="rgb(0,0,0)" paint-order="fill" d="M 154.31802368164062 184.3599853515625 A 5 5 0 1 1 154.31802118164083 184.35498535239583" fill-opacity="1" clip-path="url(#CRolKXnoghnB)" stroke-opacity="0.7019607843137254" stroke-linejoin="bevel" stroke-miterlimit="10" stroke-width="2" stroke-dasharray=""/><path fill="rgb(44,160,44)" stroke="rgb(0,0,0)" paint-order="fill" d="M 154.6719970703125 189.52896118164062 A 5 5 0 1 1 154.6719945703127 189.52396118247395" fill-opacity="1" clip-path="url(#CRolKXnoghnB)" stroke-opacity="0.7019607843137254" stroke-linejoin="bevel" stroke-miterlimit="10" stroke-width="2" stroke-dasharray=""/><path fill="rgb(44,160,44)" stroke="rgb(0,0,0)" paint-order="fill" d="M 154.1239471435547 152.8495635986328 A 5 5 0 1 1 154.1239446435549 152.84456359946614" fill-opacity="1" clip-path="url(#CRolKXnoghnB)" stroke-opacity="0.7019607843137254" stroke-linejoin="bevel" stroke-miterlimit="10" stroke-width="2" stroke-dasharray=""/><path fill="rgb(44,160,44)" stroke="rgb(0,0,0)" paint-order="fill" d="M 147.83546447753906 186.23910522460938 A 5 5 0 1 1 147.83546197753927 186.2341052254427" fill-opacity="1" clip-path="url(#CRolKXnoghnB)" stroke-opacity="0.7019607843137254" stroke-linejoin="bevel" stroke-miterlimit="10" stroke-width="2" stroke-dasharray=""/><path fill="rgb(44,160,44)" stroke="rgb(0,0,0)" paint-order="fill" d="M 146.70651245117188 186.7074737548828 A 5 5 0 1 1 146.70650995117208 186.70247375571614" fill-opacity="1" clip-path="url(#CRolKXnoghnB)" stroke-opacity="0.7019607843137254" stroke-linejoin="bevel" stroke-miterlimit="10" stroke-width="2" stroke-dasharray=""/><path fill="rgb(44,160,44)" stroke="rgb(0,0,0)" paint-order="fill" d="M 154.35989379882812 175.8955078125 A 5 5 0 1 1 154.35989129882833 175.89050781333333" fill-opacity="1" clip-path="url(#CRolKXnoghnB)" stroke-opacity="0.7019607843137254" stroke-linejoin="bevel" stroke-miterlimit="10" stroke-width="2" stroke-dasharray=""/><path fill="rgb(255,127,14)" stroke="rgb(0,0,0)" paint-order="fill" d="M 224.86109924316406 94.06658935546875 A 5 5 0 1 1 224.86109674316427 94.06158935630208" fill-opacity="1" clip-path="url(#CRolKXnoghnB)" stroke-opacity="0.7019607843137254" stroke-linejoin="bevel" stroke-miterlimit="10" stroke-width="2" stroke-dasharray=""/><path fill="rgb(255,127,14)" stroke="rgb(0,0,0)" paint-order="fill" d="M 221.7763214111328 95.9457015991211 A 5 5 0 1 1 221.77631891113302 95.94070159995442" fill-opacity="1" clip-path="url(#CRolKXnoghnB)" stroke-opacity="0.7019607843137254" stroke-linejoin="bevel" stroke-miterlimit="10" stroke-width="2" stroke-dasharray=""/><path fill="rgb(255,127,14)" stroke="rgb(0,0,0)" paint-order="fill" d="M 223.6218719482422 147.67494201660156 A 5 5 0 1 1 223.6218694482424 147.6699420174349" fill-opacity="1" clip-path="url(#CRolKXnoghnB)" stroke-opacity="0.7019607843137254" stroke-linejoin="bevel" stroke-miterlimit="10" stroke-width="2" stroke-dasharray=""/><path fill="rgb(255,187,120)" stroke="rgb(0,0,0)" paint-order="fill" d="M 259.5032958984375 155.19703674316406 A 5 5 0 1 1 259.50329339843773 155.1920367439974" fill-opacity="1" clip-path="url(#CRolKXnoghnB)" stroke-opacity="0.7019607843137254" stroke-linejoin="bevel" stroke-miterlimit="10" stroke-width="2" stroke-dasharray=""/><path fill="rgb(255,187,120)" stroke="rgb(0,0,0)" paint-order="fill" d="M 252.8949432373047 161.3140411376953 A 5 5 0 1 1 252.8949407373049 161.30904113852864" fill-opacity="1" clip-path="url(#CRolKXnoghnB)" stroke-opacity="0.7019607843137254" stroke-linejoin="bevel" stroke-miterlimit="10" stroke-width="2" stroke-dasharray=""/><path fill="rgb(255,187,120)" stroke="rgb(0,0,0)" paint-order="fill" d="M 250.26722717285156 145.7958221435547 A 5 5 0 1 1 250.26722467285177 145.79082214438802" fill-opacity="1" clip-path="url(#CRolKXnoghnB)" stroke-opacity="0.7019607843137254" stroke-linejoin="bevel" stroke-miterlimit="10" stroke-width="2" stroke-dasharray=""/><path fill="rgb(255,187,120)" stroke="rgb(0,0,0)" paint-order="fill" d="M 251.50794982910156 146.26983642578125 A 5 5 0 1 1 251.50794732910177 146.26483642661458" fill-opacity="1" clip-path="url(#CRolKXnoghnB)" stroke-opacity="0.7019607843137254" stroke-linejoin="bevel" stroke-miterlimit="10" stroke-width="2" stroke-dasharray=""/><path fill="rgb(255,152,150)" stroke="rgb(0,0,0)" paint-order="fill" d="M 326.2497253417969 197.99343872070312 A 5 5 0 1 1 326.2497228417971 197.98843872153645" fill-opacity="1" clip-path="url(#CRolKXnoghnB)" stroke-opacity="0.7019607843137254" stroke-linejoin="bevel" stroke-miterlimit="10" stroke-width="2" stroke-dasharray=""/><path fill="rgb(255,152,150)" stroke="rgb(0,0,0)" paint-order="fill" d="M 324.7790222167969 170.7152557373047 A 5 5 0 1 1 324.7790197167971 170.71025573813802" fill-opacity="1" clip-path="url(#CRolKXnoghnB)" stroke-opacity="0.7019607843137254" stroke-linejoin="bevel" stroke-miterlimit="10" stroke-width="2" stroke-dasharray=""/><path fill="rgb(255,152,150)" stroke="rgb(0,0,0)" paint-order="fill" d="M 328.4055480957031 175.88986206054688 A 5 5 0 1 1 328.40554559570336 175.8848620613802" fill-opacity="1" clip-path="url(#CRolKXnoghnB)" stroke-opacity="0.7019607843137254" stroke-linejoin="bevel" stroke-miterlimit="10" stroke-width="2" stroke-dasharray=""/><path fill="rgb(214,39,40)" stroke="rgb(0,0,0)" paint-order="fill" d="M 361.2159729003906 82.312255859375 A 5 5 0 1 1 361.21597040039086 82.30725586020833" fill-opacity="1" clip-path="url(#CRolKXnoghnB)" stroke-opacity="0.7019607843137254" stroke-linejoin="bevel" stroke-miterlimit="10" stroke-width="2" stroke-dasharray=""/><path fill="rgb(214,39,40)" stroke="rgb(0,0,0)" paint-order="fill" d="M 362.86346435546875 75.2585220336914 A 5 5 0 1 1 362.863461855469 75.25352203452474" fill-opacity="1" clip-path="url(#CRolKXnoghnB)" stroke-opacity="0.7019607843137254" stroke-linejoin="bevel" stroke-miterlimit="10" stroke-width="2" stroke-dasharray=""/><path fill="rgb(214,39,40)" stroke="rgb(0,0,0)" paint-order="fill" d="M 362.23077392578125 67.7364273071289 A 5 5 0 1 1 362.2307714257815 67.73142730796224" fill-opacity="1" clip-path="url(#CRolKXnoghnB)" stroke-opacity="0.7019607843137254" stroke-linejoin="bevel" stroke-miterlimit="10" stroke-width="2" stroke-dasharray=""/><path fill="rgb(214,39,40)" stroke="rgb(0,0,0)" paint-order="fill" d="M 353.46368408203125 44.69047546386719 A 5 5 0 1 1 353.4636815820315 44.68547546470052" fill-opacity="1" clip-path="url(#CRolKXnoghnB)" stroke-opacity="0.7019607843137254" stroke-linejoin="bevel" stroke-miterlimit="10" stroke-width="2" stroke-dasharray=""/><path fill="rgb(214,39,40)" stroke="rgb(0,0,0)" paint-order="fill" d="M 358.39599609375 51.744205474853516 A 5 5 0 1 1 358.39599359375023 51.739205475686845" fill-opacity="1" clip-path="url(#CRolKXnoghnB)" stroke-opacity="0.7019607843137254" stroke-linejoin="bevel" stroke-miterlimit="10" stroke-width="2" stroke-dasharray=""/><path fill="rgb(255,152,150)" stroke="rgb(0,0,0)" paint-order="fill" d="M 324.4101867675781 188.1182098388672 A 5 5 0 1 1 324.41018426757836 188.11320983970052" fill-opacity="1" clip-path="url(#CRolKXnoghnB)" stroke-opacity="0.7019607843137254" stroke-linejoin="bevel" stroke-miterlimit="10" stroke-width="2" stroke-dasharray=""/><path fill="rgb(255,152,150)" stroke="rgb(0,0,0)" paint-order="fill" d="M 328.6949462890625 177.30625915527344 A 5 5 0 1 1 328.69494378906273 177.30125915610677" fill-opacity="1" clip-path="url(#CRolKXnoghnB)" stroke-opacity="0.7019607843137254" stroke-linejoin="bevel" stroke-miterlimit="10" stroke-width="2" stroke-dasharray=""/><path fill="rgb(255,152,150)" stroke="rgb(0,0,0)" paint-order="fill" d="M 323.7095947265625 191.882080078125 A 5 5 0 1 1 323.70959222656273 191.87708007895833" fill-opacity="1" clip-path="url(#CRolKXnoghnB)" stroke-opacity="0.7019607843137254" stroke-linejoin="bevel" stroke-miterlimit="10" stroke-width="2" stroke-dasharray=""/><path fill="none" stroke="none"/><path fill="rgb(174,199,232)" stroke="rgb(0,0,0)" paint-order="fill" d="M 74.60594940185547 265.4154968261719 L 84.60594940185547 265.4154968261719 L 84.60594940185547 275.4154968261719 L 74.60594940185547 275.4154968261719 L 74.60594940185547 265.4154968261719" fill-opacity="1" clip-path="url(#AgRNBDeLfDWR)" stroke-opacity="0.7019607843137254" stroke-linejoin="bevel" stroke-miterlimit="10" stroke-width="2" stroke-dasharray=""/><path fill="rgb(174,199,232)" stroke="rgb(0,0,0)" paint-order="fill" d="M 67.00808715820312 256.4770202636719 L 77.00808715820312 256.4770202636719 L 77.00808715820312 266.4770202636719 L 67.00808715820312 266.4770202636719 L 67.00808715820312 256.4770202636719" fill-opacity="1" clip-path="url(#AgRNBDeLfDWR)" stroke-opacity="0.7019607843137254" stroke-linejoin="bevel" stroke-miterlimit="10" stroke-width="2" stroke-dasharray=""/><path fill="rgb(174,199,232)" stroke="rgb(0,0,0)" paint-order="fill" d="M 72.52674865722656 266.35223388671875 L 82.52674865722656 266.35223388671875 L 82.52674865722656 276.35223388671875 L 72.52674865722656 276.35223388671875 L 72.52674865722656 266.35223388671875" fill-opacity="1" clip-path="url(#AgRNBDeLfDWR)" stroke-opacity="0.7019607843137254" stroke-linejoin="bevel" stroke-miterlimit="10" stroke-width="2" stroke-dasharray=""/><path fill="rgb(174,199,232)" stroke="rgb(0,0,0)" paint-order="fill" d="M 68.67285919189453 259.2984924316406 L 78.67285919189453 259.2984924316406 L 78.67285919189453 269.2984924316406 L 68.67285919189453 269.2984924316406 L 68.67285919189453 259.2984924316406" fill-opacity="1" clip-path="url(#AgRNBDeLfDWR)" stroke-opacity="0.7019607843137254" stroke-linejoin="bevel" stroke-miterlimit="10" stroke-width="2" stroke-dasharray=""/><path fill="rgb(174,199,232)" stroke="rgb(0,0,0)" paint-order="fill" d="M 69.36116790771484 264.4731140136719 L 79.36116790771484 264.4731140136719 L 79.36116790771484 274.4731140136719 L 69.36116790771484 274.4731140136719 L 69.36116790771484 264.4731140136719" fill-opacity="1" clip-path="url(#AgRNBDeLfDWR)" stroke-opacity="0.7019607843137254" stroke-linejoin="bevel" stroke-miterlimit="10" stroke-width="2" stroke-dasharray=""/><path fill="rgb(44,160,44)" stroke="rgb(0,0,0)" paint-order="fill" d="M 145.6132049560547 200.52117919921875 L 155.6132049560547 200.52117919921875 L 155.6132049560547 210.52117919921875 L 145.6132049560547 210.52117919921875 L 145.6132049560547 200.52117919921875" fill-opacity="1" clip-path="url(#AgRNBDeLfDWR)" stroke-opacity="0.7019607843137254" stroke-linejoin="bevel" stroke-miterlimit="10" stroke-width="2" stroke-dasharray=""/><path fill="rgb(255,127,14)" stroke="rgb(0,0,0)" paint-order="fill" d="M 215.12640380859375 115.40239715576172 L 225.12640380859375 115.40239715576172 L 225.12640380859375 125.40239715576172 L 215.12640380859375 125.40239715576172 L 215.12640380859375 115.40239715576172" fill-opacity="1" clip-path="url(#AgRNBDeLfDWR)" stroke-opacity="0.7019607843137254" stroke-linejoin="bevel" stroke-miterlimit="10" stroke-width="2" stroke-dasharray=""/><path fill="none" stroke="rgb(0,0,0)" paint-order="fill" d="M 59.5 308.5 L 370.5 308.5" stroke-opacity="1" stroke-linejoin="bevel" stroke-miterlimit="10" stroke-dasharray=""/><path fill="none" stroke="rgb(0,0,0)" paint-order="fill" d="M 76.5 314.5 L 76.5 306.5 M 111.5 314.5 L 111.5 306.5 M 145.5 314.5 L 145.5 306.5 M 180.5 314.5 L 180.5 306.5 M 215.5 314.5 L 215.5 306.5 M 249.5 314.5 L 249.5 306.5 M 284.5 314.5 L 284.5 306.5 M 318.5 314.5 L 318.5 306.5 M 353.5 314.5 L 353.5 306.5" stroke-opacity="1" stroke-linejoin="bevel" stroke-miterlimit="10" stroke-dasharray=""/><path fill="none" stroke="rgb(0,0,0)" paint-order="fill" d="" stroke-opacity="1" stroke-linejoin="bevel" stroke-miterlimit="10" stroke-dasharray=""/><text fill="rgb(68,68,68)" stroke="none" font-family="helvetica" font-size="12pt" font-style="normal" font-weight="normal" text-decoration="normal" x="51.41111183166504" y="324.83203125" text-anchor="start" dominant-baseline="alphabetic" transform="matrix(0.7071067811865476, -0.7071067811865475, 0.7071067811865475, 0.7071067811865476, -202.7258190929494, 147.86947132142038)" fill-opacity="1">WT</text><text fill="rgb(68,68,68)" stroke="none" font-family="helvetica" font-size="12pt" font-style="normal" font-weight="normal" text-decoration="normal" x="62.81666946411133" y="324.83203125" text-anchor="start" dominant-baseline="alphabetic" transform="matrix(0.7071067811865476, -0.7071067811865475, 0.7071067811865475, 0.7071067811865476, -192.60473070181837, 172.3039401812659)" fill-opacity="1">Abiotic</text><text fill="rgb(68,68,68)" stroke="none" font-family="helvetica" font-size="12pt" font-style="normal" font-weight="normal" text-decoration="normal" x="34.23888397216797" y="324.83203125" text-anchor="start" dominant-baseline="alphabetic" transform="matrix(0.7071067811865476, -0.7071067811865475, 0.7071067811865475, 0.7071067811865476, -182.4836445452852, 196.73840364631477)" fill-opacity="1">menAubiC-tlKO</text><text fill="rgb(68,68,68)" stroke="none" font-family="helvetica" font-size="12pt" font-style="normal" font-weight="normal" text-decoration="normal" x="37.644439697265625" y="324.83203125" text-anchor="start" dominant-baseline="alphabetic" transform="matrix(0.7071067811865476, -0.7071067811865475, 0.7071067811865475, 0.7071067811865476, -172.36255615415416, 221.17287250616027)" fill-opacity="1">napAnarZnarG-tlKO</text><text fill="rgb(68,68,68)" stroke="none" font-family="helvetica" font-size="12pt" font-style="normal" font-weight="normal" text-decoration="normal" x="41.08332824707031" y="324.83203125" text-anchor="start" dominant-baseline="alphabetic" transform="matrix(0.7071067811865476, -0.7071067811865475, 0.7071067811865475, 0.7071067811865476, -162.24146776302308, 245.60734136600576)" fill-opacity="1">menAubiC pFE21-MenA</text><text fill="rgb(68,68,68)" stroke="none" font-family="helvetica" font-size="12pt" font-style="normal" font-weight="normal" text-decoration="normal" x="81.88888549804688" y="324.83203125" text-anchor="start" dominant-baseline="alphabetic" transform="matrix(0.7071067811865476, -0.7071067811865475, 0.7071067811865475, 0.7071067811865476, -152.120379371892, 270.04181022585124)" fill-opacity="1">menAubiC pFE21-UbiC</text><text fill="rgb(68,68,68)" stroke="none" font-family="helvetica" font-size="12pt" font-style="normal" font-weight="normal" text-decoration="normal" x="80.82777404785156" y="324.83203125" text-anchor="start" dominant-baseline="alphabetic" transform="matrix(0.7071067811865476, -0.7071067811865475, 0.7071067811865475, 0.7071067811865476, -141.99929098076097, 294.4762790856968)" fill-opacity="1">napAnarZnarG pFE21-NapA</text><text fill="rgb(68,68,68)" stroke="none" font-family="helvetica" font-size="12pt" font-style="normal" font-weight="normal" text-decoration="normal" x="119.84999084472656" y="324.83203125" text-anchor="start" dominant-baseline="alphabetic" transform="matrix(0.7071067811865476, -0.7071067811865475, 0.7071067811865475, 0.7071067811865476, -131.87820705882575, 318.91073715594905)" fill-opacity="1">napAnarZnarG pFE21-NarZ</text><text fill="rgb(68,68,68)" stroke="none" font-family="helvetica" font-size="12pt" font-style="normal" font-weight="normal" text-decoration="normal" x="151.72222900390625" y="324.83203125" text-anchor="start" dominant-baseline="alphabetic" transform="matrix(0.7071067811865476, -0.7071067811865475, 0.7071067811865475, 0.7071067811865476, -121.75711419849881, 343.34521680538774)" fill-opacity="1">napAnarZnarG pFE21-NarG</text><text fill="rgb(128,128,128)" stroke="none" font-family="helvetica" font-size="11px" font-style="normal" font-weight="bold" text-decoration="normal" x="188.52499961853027" y="494.22862880352534" text-anchor="start" dominant-baseline="alphabetic" transform="matrix(1, 0, 0, 1, 0.5, 0.5)" fill-opacity="1">PCA, NO3</text><path fill="none" stroke="rgb(0,0,0)" paint-order="fill" d="M 59.5 308.5 L 59.5 31.5" stroke-opacity="1" stroke-linejoin="bevel" stroke-miterlimit="10" stroke-dasharray=""/><path fill="none" stroke="rgb(0,0,0)" paint-order="fill" d="M 53.5 284.5 L 61.5 284.5 M 53.5 228.5 L 61.5 228.5 M 53.5 171.5 L 61.5 171.5 M 53.5 115.5 L 61.5 115.5 M 53.5 58.5 L 61.5 58.5" stroke-opacity="1" stroke-linejoin="bevel" stroke-miterlimit="10" stroke-dasharray=""/><path fill="none" stroke="rgb(0,0,0)" paint-order="fill" d="M 55.5 295.5 L 59.5 295.5 M 55.5 307.5 L 59.5 307.5 M 55.5 284.5 L 59.5 284.5 M 55.5 273.5 L 59.5 273.5 M 55.5 261.5 L 59.5 261.5 M 55.5 250.5 L 59.5 250.5 M 55.5 239.5 L 59.5 239.5 M 55.5 228.5 L 59.5 228.5 M 55.5 216.5 L 59.5 216.5 M 55.5 205.5 L 59.5 205.5 M 55.5 194.5 L 59.5 194.5 M 55.5 182.5 L 59.5 182.5 M 55.5 171.5 L 59.5 171.5 M 55.5 160.5 L 59.5 160.5 M 55.5 149.5 L 59.5 149.5 M 55.5 137.5 L 59.5 137.5 M 55.5 126.5 L 59.5 126.5 M 55.5 115.5 L 59.5 115.5 M 55.5 103.5 L 59.5 103.5 M 55.5 92.5 L 59.5 92.5 M 55.5 81.5 L 59.5 81.5 M 55.5 70.5 L 59.5 70.5 M 55.5 58.5 L 59.5 58.5 M 55.5 47.5 L 59.5 47.5 M 55.5 36.5 L 59.5 36.5" stroke-opacity="1" stroke-linejoin="bevel" stroke-miterlimit="10" stroke-dasharray=""/><text fill="rgb(68,68,68)" stroke="none" font-family="helvetica" font-size="12pt" font-style="normal" font-weight="normal" text-decoration="normal" x="39.10000038146973" y="289.7555847167969" text-anchor="start" dominant-baseline="alphabetic" transform="matrix(1, 0, 0, 1, 0.5, 0.5)" fill-opacity="1">0</text><text fill="rgb(68,68,68)" stroke="none" font-family="helvetica" font-size="12pt" font-style="normal" font-weight="normal" text-decoration="normal" x="30.200000762939453" y="233.3257598876953" text-anchor="start" dominant-baseline="alphabetic" transform="matrix(1, 0, 0, 1, 0.5, 0.5)" fill-opacity="1">10</text><text fill="rgb(68,68,68)" stroke="none" font-family="helvetica" font-size="12pt" font-style="normal" font-weight="normal" text-decoration="normal" x="30.200000762939453" y="176.89590454101562" text-anchor="start" dominant-baseline="alphabetic" transform="matrix(1, 0, 0, 1, 0.5, 0.5)" fill-opacity="1">20</text><text fill="rgb(68,68,68)" stroke="none" font-family="helvetica" font-size="12pt" font-style="normal" font-weight="normal" text-decoration="normal" x="30.200000762939453" y="120.466064453125" text-anchor="start" dominant-baseline="alphabetic" transform="matrix(1, 0, 0, 1, 0.5, 0.5)" fill-opacity="1">30</text><text fill="rgb(68,68,68)" stroke="none" font-family="helvetica" font-size="12pt" font-style="normal" font-weight="normal" text-decoration="normal" x="30.200000762939453" y="64.03621673583984" text-anchor="start" dominant-baseline="alphabetic" transform="matrix(1, 0, 0, 1, 0.5, 0.5)" fill-opacity="1">40</text><text fill="rgb(68,68,68)" stroke="none" font-family="helvetica" font-size="12pt" font-style="italic" font-weight="normal" text-decoration="normal" x="-128.7083396911621" y="165.9609375" text-anchor="start" dominant-baseline="alphabetic" transform="matrix(6.123233995736766e-17, -1, 1, 6.123233995736766e-17, -146.79999923706055, 192.20000076293945)" fill-opacity="1">Time to 75% max [PCAred] from max (hrs)</text><path fill="none" stroke="none"/><text fill="rgb(68,68,68)" stroke="none" font-family="helvetica" font-size="12pt" font-style="normal" font-weight="bold" text-decoration="normal" x="0" y="0" text-anchor="start" dominant-baseline="text-after-edge" transform="matrix(1, 0, 0, 1, 59.5, 26.5)" fill-opacity="1">Nitrate complementations</text></svg>