<svg version="1.1" xmlns="http://www.w3.org/2000/svg" xmlns:xlink="http://www.w3.org/1999/xlink" width="600" height="400"><defs><clipPath id="TmhhTdTEfBNL"><path fill="none" stroke="none" d="M 65.5 34.5 L 316.5 34.5 L 316.5 343.5 L 65.5 343.5 L 65.5 34.5"/></clipPath><clipPath id="AqRQmblKFkRe"><path fill="none" stroke="none" d="M 65.5 34.5 L 316.5 34.5 L 316.5 343.5 L 65.5 343.5 L 65.5 34.5"/></clipPath><clipPath id="TBtNkAahuaJb"><path fill="none" stroke="none" d="M 65.5 34.5 L 316.5 34.5 L 316.5 343.5 L 65.5 343.5 L 65.5 34.5"/></clipPath><clipPath id="zClWITcbEHxU"><path fill="none" stroke="none" d="M 65.5 34.5 L 316.5 34.5 L 316.5 343.5 L 65.5 343.5 L 65.5 34.5"/></clipPath><clipPath id="dCiLEBiXqTIW"><path fill="none" stroke="none" d="M 65.5 34.5 L 316.5 34.5 L 316.5 343.5 L 65.5 343.5 L 65.5 34.5"/></clipPath><clipPath id="xXeJVTaVWcJp"><path fill="none" stroke="none" d="M 65.5 34.5 L 316.5 34.5 L 316.5 343.5 L 65.5 343.5 L 65.5 34.5"/></clipPath><clipPath id="HFVoGHhGWKad"><path fill="none" stroke="none" d="M 65.5 34.5 L 316.5 34.5 L 316.5 343.5 L 65.5 343.5 L 65.5 34.5"/></clipPath><clipPath id="zzopVsTosIAy"><path fill="none" stroke="none" d="M 65.5 34.5 L 316.5 34.5 L 316.5 343.5 L 65.5 343.5 L 65.5 34.5"/></clipPath><clipPath id="GVPfFrlFImiQ"><path fill="none" stroke="none" d="M 65.5 34.5 L 316.5 34.5 L 316.5 343.5 L 65.5 343.5 L 65.5 34.5"/></clipPath><clipPath id="GnqTfPQLrkJT"><path fill="none" stroke="none" d="M 65.5 34.5 L 316.5 34.5 L 316.5 343.5 L 65.5 343.5 L 65.5 34.5"/></clipPath><clipPath id="HqfAhZfTgKbB"><path fill="none" stroke="none" d="M 65.5 34.5 L 316.5 34.5 L 316.5 343.5 L 65.5 343.5 L 65.5 34.5"/></clipPath><clipPath id="cAWBoVMNBiVe"><path fill="none" stroke="none" d="M 65.5 34.5 L 316.5 34.5 L 316.5 343.5 L 65.5 343.5 L 65.5 34.5"/></clipPath><clipPath id="qSJvnNDzHXAB"><path fill="none" stroke="none" d="M 65.5 34.5 L 316.5 34.5 L 316.5 343.5 L 65.5 343.5 L 65.5 34.5"/></clipPath><clipPath id="LKAkMKeNOgiP"><path fill="none" stroke="none" d="M 65.5 34.5 L 316.5 34.5 L 316.5 343.5 L 65.5 343.5 L 65.5 34.5"/></clipPath><clipPath id="ttMfHfzxgRuO"><path fill="none" stroke="none" d="M 65.5 34.5 L 316.5 34.5 L 316.5 343.5 L 65.5 343.5 L 65.5 34.5"/></clipPath><clipPath id="EaTiKHHJNbrn"><path fill="none" stroke="none" d="M 65.5 34.5 L 316.5 34.5 L 316.5 343.5 L 65.5 343.5 L 65.5 34.5"/></clipPath><clipPath id="WlhRyNtLkNyl"><path fill="none" stroke="none" d="M 65.5 34.5 L 316.5 34.5 L 316.5 343.5 L 65.5 343.5 L 65.5 34.5"/></clipPath><clipPath id="EhBSxMgmbmiN"><path fill="none" stroke="none" d="M 65.5 34.5 L 316.5 34.5 L 316.5 343.5 L 65.5 343.5 L 65.5 34.5"/></clipPath><clipPath id="hKnvQUTdTyAC"><path fill="none" stroke="none" d="M 65.5 34.5 L 316.5 34.5 L 316.5 343.5 L 65.5 343.5 L 65.5 34.5"/></clipPath><clipPath id="DXfyLabQGgHX"><path fill="none" stroke="none" d="M 65.5 34.5 L 316.5 34.5 L 316.5 343.5 L 65.5 343.5 L 65.5 34.5"/></clipPath><clipPath id="cBLINUsDwdqC"><path fill="none" stroke="none" d="M 65.5 34.5 L 316.5 34.5 L 316.5 343.5 L 65.5 343.5 L 65.5 34.5"/></clipPath></defs><path fill="rgb(255,255,255)" stroke="none" paint-order="stroke" d="M 0.5 0.5 L 600.5 0.5 L 600.5 400.5 L 0.5 400.5 L 0.5 0.5" fill-opacity="1"/><rect fill="#FFFFFF" stroke="none" x="65" y="34" width="251" height="309" transform="matrix(1, 0, 0, 1, 0.5, 0.5)"/><path fill="rgb(255,255,255)" stroke="none" paint-order="stroke" d="M 65.5 34.5 L 316.5 34.5 L 316.5 343.5 L 65.5 343.5 L 65.5 34.5" fill-opacity="1"/><path fill="none" stroke="rgb(229,229,229)" paint-order="fill" d="M 65.5 34.5 L 316.5 34.5 L 316.5 343.5 L 65.5 343.5 L 65.5 34.5" stroke-opacity="1" stroke-linejoin="bevel" stroke-miterlimit="10" stroke-dasharray=""/><path fill="none" stroke="rgb(229,229,229)" paint-order="fill" d="M 76.5 343.5 L 76.5 34.5 M 119.5 343.5 L 119.5 34.5 M 163.5 343.5 L 163.5 34.5 M 206.5 343.5 L 206.5 34.5 M 249.5 343.5 L 249.5 34.5 M 292.5 343.5 L 292.5 34.5" stroke-opacity="1" stroke-linejoin="bevel" stroke-miterlimit="10" stroke-dasharray="" clip-path="url(#TmhhTdTEfBNL)"/><path fill="none" stroke="rgb(229,229,229)" paint-order="fill" d="M 65.5 331.5 L 316.5 331.5 M 65.5 281.5 L 316.5 281.5 M 65.5 232.5 L 316.5 232.5 M 65.5 182.5 L 316.5 182.5 M 65.5 133.5 L 316.5 133.5 M 65.5 83.5 L 316.5 83.5" stroke-opacity="1" stroke-linejoin="bevel" stroke-miterlimit="10" stroke-dasharray="" clip-path="url(#AqRQmblKFkRe)"/><path fill="none" stroke="none"/><path fill="rgb(0,114,178)" stroke="rgb(0,0,0)" paint-order="fill" d="M 80.40908813476562 78.31043243408203 A 3.5 3.5 0 1 1 80.40908638476577 78.30693243466536" fill-opacity="1" clip-path="url(#TBtNkAahuaJb)" stroke-opacity="1" stroke-linejoin="bevel" stroke-miterlimit="10" stroke-dasharray=""/><path fill="rgb(0,114,178)" stroke="rgb(0,0,0)" paint-order="fill" d="M 114.85163116455078 134.1924591064453 A 3.5 3.5 0 1 1 114.85162941455093 134.18895910702864" fill-opacity="1" clip-path="url(#TBtNkAahuaJb)" stroke-opacity="1" stroke-linejoin="bevel" stroke-miterlimit="10" stroke-dasharray=""/><path fill="rgb(0,114,178)" stroke="rgb(0,0,0)" paint-order="fill" d="M 220.3319091796875 262.7702331542969 A 3.5 3.5 0 1 1 220.33190742968765 262.7667331548802" fill-opacity="1" clip-path="url(#TBtNkAahuaJb)" stroke-opacity="1" stroke-linejoin="bevel" stroke-miterlimit="10" stroke-dasharray=""/><path fill="rgb(0,114,178)" stroke="rgb(0,0,0)" paint-order="fill" d="M 308.5909118652344 323.3705139160156 A 3.5 3.5 0 1 1 308.5909101152345 323.367013916599" fill-opacity="1" clip-path="url(#TBtNkAahuaJb)" stroke-opacity="1" stroke-linejoin="bevel" stroke-miterlimit="10" stroke-dasharray=""/><path fill="none" stroke="none"/><path fill="none" stroke="rgb(0,114,178)" paint-order="fill" d="M 76.90908813476562 78.31043243408203 L 111.35163116455078 134.1924591064453 L 216.8319091796875 262.7702331542969 L 305.0909118652344 323.3705139160156" stroke-opacity="1" stroke-linejoin="bevel" stroke-miterlimit="10" stroke-width="2" stroke-dasharray="" clip-path="url(#zClWITcbEHxU)"/><path fill="none" stroke="none"/><path fill="rgb(0,114,178)" stroke="rgb(0,0,0)" paint-order="fill" d="M 73.40908813476562 323.608154296875 L 80.40908813476562 323.608154296875 L 80.40908813476562 330.608154296875 L 73.40908813476562 330.608154296875 L 73.40908813476562 323.608154296875" fill-opacity="1" clip-path="url(#dCiLEBiXqTIW)" stroke-opacity="1" stroke-linejoin="bevel" stroke-miterlimit="10" stroke-dasharray=""/><path fill="rgb(0,114,178)" stroke="rgb(0,0,0)" paint-order="fill" d="M 107.85163116455078 260.2120666503906 L 114.85163116455078 260.2120666503906 L 114.85163116455078 267.2120666503906 L 107.85163116455078 267.2120666503906 L 107.85163116455078 260.2120666503906" fill-opacity="1" clip-path="url(#dCiLEBiXqTIW)" stroke-opacity="1" stroke-linejoin="bevel" stroke-miterlimit="10" stroke-dasharray=""/><path fill="rgb(0,114,178)" stroke="rgb(0,0,0)" paint-order="fill" d="M 213.3319091796875 121.48426055908203 L 220.3319091796875 121.48426055908203 L 220.3319091796875 128.48426055908203 L 213.3319091796875 128.48426055908203 L 213.3319091796875 121.48426055908203" fill-opacity="1" clip-path="url(#dCiLEBiXqTIW)" stroke-opacity="1" stroke-linejoin="bevel" stroke-miterlimit="10" stroke-dasharray=""/><path fill="rgb(0,114,178)" stroke="rgb(0,0,0)" paint-order="fill" d="M 301.5909118652344 59.521934509277344 L 308.5909118652344 59.521934509277344 L 308.5909118652344 66.52193450927734 L 301.5909118652344 66.52193450927734 L 301.5909118652344 59.521934509277344" fill-opacity="1" clip-path="url(#dCiLEBiXqTIW)" stroke-opacity="1" stroke-linejoin="bevel" stroke-miterlimit="10" stroke-dasharray=""/><path fill="none" stroke="none"/><path fill="none" stroke="rgb(0,114,178)" paint-order="fill" d="M 76.90908813476562 327.108154296875 L 111.35163116455078 263.7120666503906 L 216.8319091796875 124.98426055908203 L 305.0909118652344 63.021934509277344" stroke-opacity="1" stroke-linejoin="bevel" stroke-miterlimit="10" stroke-width="2" stroke-dasharray="" clip-path="url(#xXeJVTaVWcJp)"/><path fill="none" stroke="none"/><path fill="none" stroke="rgb(128,128,128)" paint-order="fill" d="M 76.90908813476562 83.00706481933594 L 76.90908813476562 73.61380004882812" stroke-opacity="1" stroke-linejoin="bevel" stroke-miterlimit="10" stroke-width="1.5" stroke-dasharray="" clip-path="url(#HFVoGHhGWKad)"/><path fill="none" stroke="rgb(128,128,128)" paint-order="fill" d="M 111.35163116455078 135.03683471679688 L 111.35163116455078 133.34808349609375" stroke-opacity="1" stroke-linejoin="bevel" stroke-miterlimit="10" stroke-width="1.5" stroke-dasharray="" clip-path="url(#HFVoGHhGWKad)"/><path fill="none" stroke="rgb(128,128,128)" paint-order="fill" d="M 216.8319091796875 264.7392578125 L 216.8319091796875 260.8012390136719" stroke-opacity="1" stroke-linejoin="bevel" stroke-miterlimit="10" stroke-width="1.5" stroke-dasharray="" clip-path="url(#HFVoGHhGWKad)"/><path fill="none" stroke="rgb(128,128,128)" paint-order="fill" d="M 305.0909118652344 324.3020324707031 L 305.0909118652344 322.43896484375" stroke-opacity="1" stroke-linejoin="bevel" stroke-miterlimit="10" stroke-width="1.5" stroke-dasharray="" clip-path="url(#HFVoGHhGWKad)"/><path fill="none" stroke="none"/><path fill="none" stroke="rgb(128,128,128)" paint-order="fill" d="M 76.90908813476562 327.208740234375 L 76.90908813476562 327.0075988769531" stroke-opacity="1" stroke-linejoin="bevel" stroke-miterlimit="10" stroke-width="1.5" stroke-dasharray="" clip-path="url(#zzopVsTosIAy)"/><path fill="none" stroke="rgb(128,128,128)" paint-order="fill" d="M 111.35163116455078 264.9486999511719 L 111.35163116455078 262.4754638671875" stroke-opacity="1" stroke-linejoin="bevel" stroke-miterlimit="10" stroke-width="1.5" stroke-dasharray="" clip-path="url(#zzopVsTosIAy)"/><path fill="none" stroke="rgb(128,128,128)" paint-order="fill" d="M 216.8319091796875 129.58006286621094 L 216.8319091796875 120.38845825195312" stroke-opacity="1" stroke-linejoin="bevel" stroke-miterlimit="10" stroke-width="1.5" stroke-dasharray="" clip-path="url(#zzopVsTosIAy)"/><path fill="none" stroke="rgb(128,128,128)" paint-order="fill" d="M 305.0909118652344 66.13232421875 L 305.0909118652344 59.91154861450195" stroke-opacity="1" stroke-linejoin="bevel" stroke-miterlimit="10" stroke-width="1.5" stroke-dasharray="" clip-path="url(#zzopVsTosIAy)"/><path fill="none" stroke="none"/><path fill="rgb(230,159,0)" stroke="rgb(0,0,0)" paint-order="fill" d="M 80.40908813476562 77.17001342773438 A 3.5 3.5 0 1 1 80.40908638476577 77.1665134283177" fill-opacity="1" clip-path="url(#GVPfFrlFImiQ)" stroke-opacity="1" stroke-linejoin="bevel" stroke-miterlimit="10" stroke-dasharray=""/><path fill="rgb(230,159,0)" stroke="rgb(0,0,0)" paint-order="fill" d="M 114.85163116455078 134.9851531982422 A 3.5 3.5 0 1 1 114.85162941455093 134.9816531988255" fill-opacity="1" clip-path="url(#GVPfFrlFImiQ)" stroke-opacity="1" stroke-linejoin="bevel" stroke-miterlimit="10" stroke-dasharray=""/><path fill="rgb(230,159,0)" stroke="rgb(0,0,0)" paint-order="fill" d="M 220.3319091796875 265.8380126953125 A 3.5 3.5 0 1 1 220.33190742968765 265.83451269589585" fill-opacity="1" clip-path="url(#GVPfFrlFImiQ)" stroke-opacity="1" stroke-linejoin="bevel" stroke-miterlimit="10" stroke-dasharray=""/><path fill="rgb(230,159,0)" stroke="rgb(0,0,0)" paint-order="fill" d="M 308.5909118652344 322.6775207519531 A 3.5 3.5 0 1 1 308.5909101152345 322.6740207525365" fill-opacity="1" clip-path="url(#GVPfFrlFImiQ)" stroke-opacity="1" stroke-linejoin="bevel" stroke-miterlimit="10" stroke-dasharray=""/><path fill="none" stroke="none"/><path fill="none" stroke="rgb(230,159,0)" paint-order="fill" d="M 76.90908813476562 77.17001342773438 L 111.35163116455078 134.9851531982422 L 216.8319091796875 265.8380126953125 L 305.0909118652344 322.6775207519531" stroke-opacity="1" stroke-linejoin="bevel" stroke-miterlimit="10" stroke-width="2" stroke-dasharray="" clip-path="url(#GnqTfPQLrkJT)"/><path fill="none" stroke="none"/><path fill="rgb(230,159,0)" stroke="rgb(0,0,0)" paint-order="fill" d="M 73.40908813476562 323.5628356933594 L 80.40908813476562 323.5628356933594 L 80.40908813476562 330.5628356933594 L 73.40908813476562 330.5628356933594 L 73.40908813476562 323.5628356933594" fill-opacity="1" clip-path="url(#HqfAhZfTgKbB)" stroke-opacity="1" stroke-linejoin="bevel" stroke-miterlimit="10" stroke-dasharray=""/><path fill="rgb(230,159,0)" stroke="rgb(0,0,0)" paint-order="fill" d="M 107.85163116455078 259.37738037109375 L 114.85163116455078 259.37738037109375 L 114.85163116455078 266.37738037109375 L 107.85163116455078 266.37738037109375 L 107.85163116455078 259.37738037109375" fill-opacity="1" clip-path="url(#HqfAhZfTgKbB)" stroke-opacity="1" stroke-linejoin="bevel" stroke-miterlimit="10" stroke-dasharray=""/><path fill="rgb(230,159,0)" stroke="rgb(0,0,0)" paint-order="fill" d="M 213.3319091796875 116.99675750732422 L 220.3319091796875 116.99675750732422 L 220.3319091796875 123.99675750732422 L 213.3319091796875 123.99675750732422 L 213.3319091796875 116.99675750732422" fill-opacity="1" clip-path="url(#HqfAhZfTgKbB)" stroke-opacity="1" stroke-linejoin="bevel" stroke-miterlimit="10" stroke-dasharray=""/><path fill="rgb(230,159,0)" stroke="rgb(0,0,0)" paint-order="fill" d="M 301.5909118652344 60.20008850097656 L 308.5909118652344 60.20008850097656 L 308.5909118652344 67.20008850097656 L 301.5909118652344 67.20008850097656 L 301.5909118652344 60.20008850097656" fill-opacity="1" clip-path="url(#HqfAhZfTgKbB)" stroke-opacity="1" stroke-linejoin="bevel" stroke-miterlimit="10" stroke-dasharray=""/><path fill="none" stroke="none"/><path fill="none" stroke="rgb(230,159,0)" paint-order="fill" d="M 76.90908813476562 327.0628356933594 L 111.35163116455078 262.87738037109375 L 216.8319091796875 120.49675750732422 L 305.0909118652344 63.70008850097656" stroke-opacity="1" stroke-linejoin="bevel" stroke-miterlimit="10" stroke-width="2" stroke-dasharray="" clip-path="url(#cAWBoVMNBiVe)"/><path fill="none" stroke="none"/><path fill="none" stroke="rgb(128,128,128)" paint-order="fill" d="M 76.90908813476562 78.65447998046875 L 76.90908813476562 75.68555450439453" stroke-opacity="1" stroke-linejoin="bevel" stroke-miterlimit="10" stroke-width="1.5" stroke-dasharray="" clip-path="url(#qSJvnNDzHXAB)"/><path fill="none" stroke="rgb(128,128,128)" paint-order="fill" d="M 111.35163116455078 138.71505737304688 L 111.35163116455078 131.25523376464844" stroke-opacity="1" stroke-linejoin="bevel" stroke-miterlimit="10" stroke-width="1.5" stroke-dasharray="" clip-path="url(#qSJvnNDzHXAB)"/><path fill="none" stroke="rgb(128,128,128)" paint-order="fill" d="M 216.8319091796875 268.79095458984375 L 216.8319091796875 262.8850402832031" stroke-opacity="1" stroke-linejoin="bevel" stroke-miterlimit="10" stroke-width="1.5" stroke-dasharray="" clip-path="url(#qSJvnNDzHXAB)"/><path fill="none" stroke="rgb(128,128,128)" paint-order="fill" d="M 305.0909118652344 323.65850830078125 L 305.0909118652344 321.696533203125" stroke-opacity="1" stroke-linejoin="bevel" stroke-miterlimit="10" stroke-width="1.5" stroke-dasharray="" clip-path="url(#qSJvnNDzHXAB)"/><path fill="none" stroke="none"/><path fill="none" stroke="rgb(128,128,128)" paint-order="fill" d="M 76.90908813476562 327.1383972167969 L 76.90908813476562 326.9873046875" stroke-opacity="1" stroke-linejoin="bevel" stroke-miterlimit="10" stroke-width="1.5" stroke-dasharray="" clip-path="url(#LKAkMKeNOgiP)"/><path fill="none" stroke="rgb(128,128,128)" paint-order="fill" d="M 111.35163116455078 263.9911193847656 L 111.35163116455078 261.76361083984375" stroke-opacity="1" stroke-linejoin="bevel" stroke-miterlimit="10" stroke-width="1.5" stroke-dasharray="" clip-path="url(#LKAkMKeNOgiP)"/><path fill="none" stroke="rgb(128,128,128)" paint-order="fill" d="M 216.8319091796875 123.31192779541016 L 216.8319091796875 117.68159484863281" stroke-opacity="1" stroke-linejoin="bevel" stroke-miterlimit="10" stroke-width="1.5" stroke-dasharray="" clip-path="url(#LKAkMKeNOgiP)"/><path fill="none" stroke="rgb(128,128,128)" paint-order="fill" d="M 305.0909118652344 66.59860229492188 L 305.0909118652344 60.801570892333984" stroke-opacity="1" stroke-linejoin="bevel" stroke-miterlimit="10" stroke-width="1.5" stroke-dasharray="" clip-path="url(#LKAkMKeNOgiP)"/><path fill="none" stroke="none"/><path fill="rgb(240,228,66)" stroke="rgb(0,0,0)" paint-order="fill" d="M 80.40908813476562 75.96862030029297 A 3.5 3.5 0 1 1 80.40908638476577 75.9651203008763" fill-opacity="1" clip-path="url(#ttMfHfzxgRuO)" stroke-opacity="1" stroke-linejoin="bevel" stroke-miterlimit="10" stroke-dasharray=""/><path fill="rgb(240,228,66)" stroke="rgb(0,0,0)" paint-order="fill" d="M 114.85163116455078 138.83570861816406 A 3.5 3.5 0 1 1 114.85162941455093 138.8322086187474" fill-opacity="1" clip-path="url(#ttMfHfzxgRuO)" stroke-opacity="1" stroke-linejoin="bevel" stroke-miterlimit="10" stroke-dasharray=""/><path fill="rgb(240,228,66)" stroke="rgb(0,0,0)" paint-order="fill" d="M 220.3319091796875 280.59747314453125 A 3.5 3.5 0 1 1 220.33190742968765 280.5939731451146" fill-opacity="1" clip-path="url(#ttMfHfzxgRuO)" stroke-opacity="1" stroke-linejoin="bevel" stroke-miterlimit="10" stroke-dasharray=""/><path fill="rgb(240,228,66)" stroke="rgb(0,0,0)" paint-order="fill" d="M 308.5909118652344 328.5633544921875 A 3.5 3.5 0 1 1 308.5909101152345 328.55985449277085" fill-opacity="1" clip-path="url(#ttMfHfzxgRuO)" stroke-opacity="1" stroke-linejoin="bevel" stroke-miterlimit="10" stroke-dasharray=""/><path fill="none" stroke="none"/><path fill="none" stroke="rgb(240,228,66)" paint-order="fill" d="M 76.90908813476562 75.96862030029297 L 111.35163116455078 138.83570861816406 L 216.8319091796875 280.59747314453125 L 305.0909118652344 328.5633544921875" stroke-opacity="1" stroke-linejoin="bevel" stroke-miterlimit="10" stroke-width="2" stroke-dasharray="" clip-path="url(#EaTiKHHJNbrn)"/><path fill="none" stroke="none"/><path fill="rgb(240,228,66)" stroke="rgb(0,0,0)" paint-order="fill" d="M 73.40908813476562 323.3024597167969 L 80.40908813476562 323.3024597167969 L 80.40908813476562 330.3024597167969 L 73.40908813476562 330.3024597167969 L 73.40908813476562 323.3024597167969" fill-opacity="1" clip-path="url(#WlhRyNtLkNyl)" stroke-opacity="1" stroke-linejoin="bevel" stroke-miterlimit="10" stroke-dasharray=""/><path fill="rgb(240,228,66)" stroke="rgb(0,0,0)" paint-order="fill" d="M 107.85163116455078 254.52731323242188 L 114.85163116455078 254.52731323242188 L 114.85163116455078 261.5273132324219 L 107.85163116455078 261.5273132324219 L 107.85163116455078 254.52731323242188" fill-opacity="1" clip-path="url(#WlhRyNtLkNyl)" stroke-opacity="1" stroke-linejoin="bevel" stroke-miterlimit="10" stroke-dasharray=""/><path fill="rgb(240,228,66)" stroke="rgb(0,0,0)" paint-order="fill" d="M 213.3319091796875 100.87107849121094 L 220.3319091796875 100.87107849121094 L 220.3319091796875 107.87107849121094 L 213.3319091796875 107.87107849121094 L 213.3319091796875 100.87107849121094" fill-opacity="1" clip-path="url(#WlhRyNtLkNyl)" stroke-opacity="1" stroke-linejoin="bevel" stroke-miterlimit="10" stroke-dasharray=""/><path fill="rgb(240,228,66)" stroke="rgb(0,0,0)" paint-order="fill" d="M 301.5909118652344 52.830230712890625 L 308.5909118652344 52.830230712890625 L 308.5909118652344 59.830230712890625 L 301.5909118652344 59.830230712890625 L 301.5909118652344 52.830230712890625" fill-opacity="1" clip-path="url(#WlhRyNtLkNyl)" stroke-opacity="1" stroke-linejoin="bevel" stroke-miterlimit="10" stroke-dasharray=""/><path fill="none" stroke="none"/><path fill="none" stroke="rgb(240,228,66)" paint-order="fill" d="M 76.90908813476562 326.8024597167969 L 111.35163116455078 258.0273132324219 L 216.8319091796875 104.37107849121094 L 305.0909118652344 56.330230712890625" stroke-opacity="1" stroke-linejoin="bevel" stroke-miterlimit="10" stroke-width="2" stroke-dasharray="" clip-path="url(#EhBSxMgmbmiN)"/><path fill="none" stroke="none"/><path fill="none" stroke="rgb(128,128,128)" paint-order="fill" d="M 76.90908813476562 78.97002410888672 L 76.90908813476562 72.96722412109375" stroke-opacity="1" stroke-linejoin="bevel" stroke-miterlimit="10" stroke-width="1.5" stroke-dasharray="" clip-path="url(#hKnvQUTdTyAC)"/><path fill="none" stroke="rgb(128,128,128)" paint-order="fill" d="M 111.35163116455078 145.38516235351562 L 111.35163116455078 132.2862548828125" stroke-opacity="1" stroke-linejoin="bevel" stroke-miterlimit="10" stroke-width="1.5" stroke-dasharray="" clip-path="url(#hKnvQUTdTyAC)"/><path fill="none" stroke="rgb(128,128,128)" paint-order="fill" d="M 216.8319091796875 293.92608642578125 L 216.8319091796875 267.2688903808594" stroke-opacity="1" stroke-linejoin="bevel" stroke-miterlimit="10" stroke-width="1.5" stroke-dasharray="" clip-path="url(#hKnvQUTdTyAC)"/><path fill="none" stroke="rgb(128,128,128)" paint-order="fill" d="M 305.0909118652344 329.37945556640625 L 305.0909118652344 327.74725341796875" stroke-opacity="1" stroke-linejoin="bevel" stroke-miterlimit="10" stroke-width="1.5" stroke-dasharray="" clip-path="url(#hKnvQUTdTyAC)"/><path fill="none" stroke="none"/><path fill="none" stroke="rgb(128,128,128)" paint-order="fill" d="M 76.90908813476562 327.22906494140625 L 76.90908813476562 326.3758544921875" stroke-opacity="1" stroke-linejoin="bevel" stroke-miterlimit="10" stroke-width="1.5" stroke-dasharray="" clip-path="url(#DXfyLabQGgHX)"/><path fill="none" stroke="rgb(128,128,128)" paint-order="fill" d="M 111.35163116455078 265.7838134765625 L 111.35163116455078 250.27078247070312" stroke-opacity="1" stroke-linejoin="bevel" stroke-miterlimit="10" stroke-width="1.5" stroke-dasharray="" clip-path="url(#DXfyLabQGgHX)"/><path fill="none" stroke="rgb(128,128,128)" paint-order="fill" d="M 216.8319091796875 119.44068145751953 L 216.8319091796875 89.30147552490234" stroke-opacity="1" stroke-linejoin="bevel" stroke-miterlimit="10" stroke-width="1.5" stroke-dasharray="" clip-path="url(#DXfyLabQGgHX)"/><path fill="none" stroke="rgb(128,128,128)" paint-order="fill" d="M 305.0909118652344 60.36954116821289 L 305.0909118652344 52.290924072265625" stroke-opacity="1" stroke-linejoin="bevel" stroke-miterlimit="10" stroke-width="1.5" stroke-dasharray="" clip-path="url(#DXfyLabQGgHX)"/><path fill="none" stroke="rgb(0,0,0)" paint-order="fill" d="M 65.5 343.5 L 316.5 343.5" stroke-opacity="1" stroke-linejoin="bevel" stroke-miterlimit="10" stroke-dasharray=""/><path fill="none" stroke="rgb(0,0,0)" paint-order="fill" d="M 76.5 349.5 L 76.5 341.5 M 119.5 349.5 L 119.5 341.5 M 163.5 349.5 L 163.5 341.5 M 206.5 349.5 L 206.5 341.5 M 249.5 349.5 L 249.5 341.5 M 292.5 349.5 L 292.5 341.5" stroke-opacity="1" stroke-linejoin="bevel" stroke-miterlimit="10" stroke-dasharray=""/><path fill="none" stroke="rgb(0,0,0)" paint-order="fill" d="M 68.5 347.5 L 68.5 343.5 M 76.5 347.5 L 76.5 343.5 M 85.5 347.5 L 85.5 343.5 M 94.5 347.5 L 94.5 343.5 M 102.5 347.5 L 102.5 343.5 M 111.5 347.5 L 111.5 343.5 M 119.5 347.5 L 119.5 343.5 M 128.5 347.5 L 128.5 343.5 M 137.5 347.5 L 137.5 343.5 M 145.5 347.5 L 145.5 343.5 M 154.5 347.5 L 154.5 343.5 M 163.5 347.5 L 163.5 343.5 M 171.5 347.5 L 171.5 343.5 M 180.5 347.5 L 180.5 343.5 M 188.5 347.5 L 188.5 343.5 M 197.5 347.5 L 197.5 343.5 M 206.5 347.5 L 206.5 343.5 M 214.5 347.5 L 214.5 343.5 M 223.5 347.5 L 223.5 343.5 M 231.5 347.5 L 231.5 343.5 M 240.5 347.5 L 240.5 343.5 M 249.5 347.5 L 249.5 343.5 M 257.5 347.5 L 257.5 343.5 M 266.5 347.5 L 266.5 343.5 M 274.5 347.5 L 274.5 343.5 M 283.5 347.5 L 283.5 343.5 M 292.5 347.5 L 292.5 343.5 M 300.5 347.5 L 300.5 343.5 M 309.5 347.5 L 309.5 343.5" stroke-opacity="1" stroke-linejoin="bevel" stroke-miterlimit="10" stroke-dasharray=""/><text fill="rgb(68,68,68)" stroke="none" font-family="helvetica" font-size="14pt" font-style="normal" font-weight="normal" text-decoration="normal" x="71.21742153167725" y="367.3893239339193" text-anchor="start" dominant-baseline="alphabetic" transform="matrix(1, 0, 0, 1, 0.5, 0.5)" fill-opacity="1">0</text><text fill="rgb(68,68,68)" stroke="none" font-family="helvetica" font-size="14pt" font-style="normal" font-weight="normal" text-decoration="normal" x="109.07893180847168" y="367.3893239339193" text-anchor="start" dominant-baseline="alphabetic" transform="matrix(1, 0, 0, 1, 0.5, 0.5)" fill-opacity="1">10</text><text fill="rgb(68,68,68)" stroke="none" font-family="helvetica" font-size="14pt" font-style="normal" font-weight="normal" text-decoration="normal" x="152.1321086883545" y="367.3893239339193" text-anchor="start" dominant-baseline="alphabetic" transform="matrix(1, 0, 0, 1, 0.5, 0.5)" fill-opacity="1">20</text><text fill="rgb(68,68,68)" stroke="none" font-family="helvetica" font-size="14pt" font-style="normal" font-weight="normal" text-decoration="normal" x="195.18527030944824" y="367.3893239339193" text-anchor="start" dominant-baseline="alphabetic" transform="matrix(1, 0, 0, 1, 0.5, 0.5)" fill-opacity="1">30</text><text fill="rgb(68,68,68)" stroke="none" font-family="helvetica" font-size="14pt" font-style="normal" font-weight="normal" text-decoration="normal" x="238.23844718933105" y="367.3893239339193" text-anchor="start" dominant-baseline="alphabetic" transform="matrix(1, 0, 0, 1, 0.5, 0.5)" fill-opacity="1">40</text><text fill="rgb(68,68,68)" stroke="none" font-family="helvetica" font-size="14pt" font-style="normal" font-weight="normal" text-decoration="normal" x="281.29162406921387" y="367.3893239339193" text-anchor="start" dominant-baseline="alphabetic" transform="matrix(1, 0, 0, 1, 0.5, 0.5)" fill-opacity="1">50</text><text fill="rgb(68,68,68)" stroke="none" font-family="helvetica" font-size="14pt" font-style="italic" font-weight="normal" text-decoration="normal" x="148.32500076293945" y="393.2903676350912" text-anchor="start" dominant-baseline="alphabetic" transform="matrix(1, 0, 0, 1, 0.5, 0.5)" fill-opacity="1">Time (hrs)</text><path fill="none" stroke="rgb(0,0,0)" paint-order="fill" d="M 65.5 343.5 L 65.5 34.5" stroke-opacity="1" stroke-linejoin="bevel" stroke-miterlimit="10" stroke-dasharray=""/><path fill="none" stroke="rgb(0,0,0)" paint-order="fill" d="M 59.5 331.5 L 67.5 331.5 M 59.5 281.5 L 67.5 281.5 M 59.5 232.5 L 67.5 232.5 M 59.5 182.5 L 67.5 182.5 M 59.5 133.5 L 67.5 133.5 M 59.5 83.5 L 67.5 83.5 M 59.5 34.5 L 67.5 34.5" stroke-opacity="1" stroke-linejoin="bevel" stroke-miterlimit="10" stroke-dasharray=""/><path fill="none" stroke="rgb(0,0,0)" paint-order="fill" d="M 61.5 341.5 L 65.5 341.5 M 61.5 331.5 L 65.5 331.5 M 61.5 321.5 L 65.5 321.5 M 61.5 311.5 L 65.5 311.5 M 61.5 301.5 L 65.5 301.5 M 61.5 291.5 L 65.5 291.5 M 61.5 281.5 L 65.5 281.5 M 61.5 271.5 L 65.5 271.5 M 61.5 261.5 L 65.5 261.5 M 61.5 252.5 L 65.5 252.5 M 61.5 242.5 L 65.5 242.5 M 61.5 232.5 L 65.5 232.5 M 61.5 222.5 L 65.5 222.5 M 61.5 212.5 L 65.5 212.5 M 61.5 202.5 L 65.5 202.5 M 61.5 192.5 L 65.5 192.5 M 61.5 182.5 L 65.5 182.5 M 61.5 172.5 L 65.5 172.5 M 61.5 163.5 L 65.5 163.5 M 61.5 153.5 L 65.5 153.5 M 61.5 143.5 L 65.5 143.5 M 61.5 133.5 L 65.5 133.5 M 61.5 123.5 L 65.5 123.5 M 61.5 113.5 L 65.5 113.5 M 61.5 103.5 L 65.5 103.5 M 61.5 93.5 L 65.5 93.5 M 61.5 83.5 L 65.5 83.5 M 61.5 74.5 L 65.5 74.5 M 61.5 64.5 L 65.5 64.5 M 61.5 54.5 L 65.5 54.5 M 61.5 44.5 L 65.5 44.5 M 61.5 34.5 L 65.5 34.5" stroke-opacity="1" stroke-linejoin="bevel" stroke-miterlimit="10" stroke-dasharray=""/><text fill="rgb(68,68,68)" stroke="none" font-family="helvetica" font-size="14pt" font-style="normal" font-weight="normal" text-decoration="normal" x="43.61666679382324" y="337.33467661539714" text-anchor="start" dominant-baseline="alphabetic" transform="matrix(1, 0, 0, 1, 0.5, 0.5)" fill-opacity="1">0</text><text fill="rgb(68,68,68)" stroke="none" font-family="helvetica" font-size="14pt" font-style="normal" font-weight="normal" text-decoration="normal" x="43.61666679382324" y="287.8946741739909" text-anchor="start" dominant-baseline="alphabetic" transform="matrix(1, 0, 0, 1, 0.5, 0.5)" fill-opacity="1">2</text><text fill="rgb(68,68,68)" stroke="none" font-family="helvetica" font-size="14pt" font-style="normal" font-weight="normal" text-decoration="normal" x="43.61666679382324" y="238.45465647379555" text-anchor="start" dominant-baseline="alphabetic" transform="matrix(1, 0, 0, 1, 0.5, 0.5)" fill-opacity="1">4</text><text fill="rgb(68,68,68)" stroke="none" font-family="helvetica" font-size="14pt" font-style="normal" font-weight="normal" text-decoration="normal" x="43.61666679382324" y="189.01466929117836" text-anchor="start" dominant-baseline="alphabetic" transform="matrix(1, 0, 0, 1, 0.5, 0.5)" fill-opacity="1">6</text><text fill="rgb(68,68,68)" stroke="none" font-family="helvetica" font-size="14pt" font-style="normal" font-weight="normal" text-decoration="normal" x="43.61666679382324" y="139.57466684977214" text-anchor="start" dominant-baseline="alphabetic" transform="matrix(1, 0, 0, 1, 0.5, 0.5)" fill-opacity="1">8</text><text fill="rgb(68,68,68)" stroke="none" font-family="helvetica" font-size="14pt" font-style="normal" font-weight="normal" text-decoration="normal" x="33.233333587646484" y="90.1346644083659" text-anchor="start" dominant-baseline="alphabetic" transform="matrix(1, 0, 0, 1, 0.5, 0.5)" fill-opacity="1">10</text><text fill="rgb(68,68,68)" stroke="none" font-family="helvetica" font-size="14pt" font-style="normal" font-weight="normal" text-decoration="normal" x="33.233333587646484" y="40.694661966959636" text-anchor="start" dominant-baseline="alphabetic" transform="matrix(1, 0, 0, 1, 0.5, 0.5)" fill-opacity="1">12</text><text fill="rgb(68,68,68)" stroke="none" font-family="helvetica" font-size="14pt" font-style="italic" font-weight="normal" text-decoration="normal" x="-64.47500228881836" y="184.37109375" text-anchor="start" dominant-baseline="alphabetic" transform="matrix(6.123233995736766e-17, -1, 1, 6.123233995736766e-17, -162.76666641235352, 214.23333358764648)" fill-opacity="1">Nitrate or Nitrite (mM)</text><path fill="rgb(255,255,255)" stroke="rgb(229,229,229)" paint-order="fill" d="M 326.31666564941406 44.5 L 560.5 44.5 L 560.5 210.69532470703126 L 326.31666564941406 210.69532470703126 L 326.31666564941406 44.5" fill-opacity="0.9490196078431372" stroke-opacity="0.5019607843137255" stroke-linejoin="bevel" stroke-miterlimit="10" stroke-dasharray=""/><text fill="rgb(68,68,68)" stroke="none" font-family="helvetica" font-size="14pt" font-style="normal" font-weight="normal" text-decoration="normal" x="360.81666564941406" y="64.93294372558594" text-anchor="start" dominant-baseline="central" transform="matrix(1, 0, 0, 1, 0.5, 0.5)" fill-opacity="1">0 µM PCA (NO3)</text><path fill="none" stroke="rgb(0,114,178)" paint-order="fill" d="M 336.31666564941406 64.5 L 356.31666564941406 64.5" stroke-opacity="1" stroke-linejoin="bevel" stroke-miterlimit="10" stroke-width="2" stroke-dasharray=""/><path fill="rgb(0,114,178)" stroke="rgb(0,0,0)" paint-order="fill" d="M 350.31666564941406 64.5 A 4 4 0 1 1 350.31666364941424 64.49600000066667" fill-opacity="1" stroke-opacity="1" stroke-linejoin="bevel" stroke-miterlimit="10" stroke-dasharray=""/><text fill="rgb(68,68,68)" stroke="none" font-family="helvetica" font-size="14pt" font-style="normal" font-weight="normal" text-decoration="normal" x="360.81666564941406" y="89.79883117675782" text-anchor="start" dominant-baseline="central" transform="matrix(1, 0, 0, 1, 0.5, 0.5)" fill-opacity="1">0 µM PCA (NO2)</text><path fill="none" stroke="rgb(0,114,178)" paint-order="fill" d="M 336.31666564941406 89.36588745117187 L 356.31666564941406 89.36588745117187" stroke-opacity="1" stroke-linejoin="bevel" stroke-miterlimit="10" stroke-width="2" stroke-dasharray=""/><path fill="rgb(0,114,178)" stroke="rgb(0,0,0)" paint-order="fill" d="M 342.31666564941406 85.36588745117187 L 350.31666564941406 85.36588745117187 L 350.31666564941406 93.36588745117187 L 342.31666564941406 93.36588745117187 L 342.31666564941406 85.36588745117187" fill-opacity="1" stroke-opacity="1" stroke-linejoin="bevel" stroke-miterlimit="10" stroke-dasharray=""/><text fill="rgb(68,68,68)" stroke="none" font-family="helvetica" font-size="14pt" font-style="normal" font-weight="normal" text-decoration="normal" x="360.81666564941406" y="114.66471862792969" text-anchor="start" dominant-baseline="central" transform="matrix(1, 0, 0, 1, 0.5, 0.5)" fill-opacity="1">200 µM PCAox (NO3)</text><path fill="none" stroke="rgb(230,159,0)" paint-order="fill" d="M 336.31666564941406 114.23177490234374 L 356.31666564941406 114.23177490234374" stroke-opacity="1" stroke-linejoin="bevel" stroke-miterlimit="10" stroke-width="2" stroke-dasharray=""/><path fill="rgb(230,159,0)" stroke="rgb(0,0,0)" paint-order="fill" d="M 350.31666564941406 114.23177490234374 A 4 4 0 1 1 350.31666364941424 114.22777490301041" fill-opacity="1" stroke-opacity="1" stroke-linejoin="bevel" stroke-miterlimit="10" stroke-dasharray=""/><text fill="rgb(68,68,68)" stroke="none" font-family="helvetica" font-size="14pt" font-style="normal" font-weight="normal" text-decoration="normal" x="360.81666564941406" y="139.53060607910155" text-anchor="start" dominant-baseline="central" transform="matrix(1, 0, 0, 1, 0.5, 0.5)" fill-opacity="1">200 µM PCAox (NO2)</text><path fill="none" stroke="rgb(230,159,0)" paint-order="fill" d="M 336.31666564941406 139.0976623535156 L 356.31666564941406 139.0976623535156" stroke-opacity="1" stroke-linejoin="bevel" stroke-miterlimit="10" stroke-width="2" stroke-dasharray=""/><path fill="rgb(230,159,0)" stroke="rgb(0,0,0)" paint-order="fill" d="M 342.31666564941406 135.0976623535156 L 350.31666564941406 135.0976623535156 L 350.31666564941406 143.0976623535156 L 342.31666564941406 143.0976623535156 L 342.31666564941406 135.0976623535156" fill-opacity="1" stroke-opacity="1" stroke-linejoin="bevel" stroke-miterlimit="10" stroke-dasharray=""/><text fill="rgb(68,68,68)" stroke="none" font-family="helvetica" font-size="14pt" font-style="normal" font-weight="normal" text-decoration="normal" x="360.81666564941406" y="164.39649353027343" text-anchor="start" dominant-baseline="central" transform="matrix(1, 0, 0, 1, 0.5, 0.5)" fill-opacity="1">200 µM PCAred (NO3)</text><path fill="none" stroke="rgb(240,228,66)" paint-order="fill" d="M 336.31666564941406 163.9635498046875 L 356.31666564941406 163.9635498046875" stroke-opacity="1" stroke-linejoin="bevel" stroke-miterlimit="10" stroke-width="2" stroke-dasharray=""/><path fill="rgb(240,228,66)" stroke="rgb(0,0,0)" paint-order="fill" d="M 350.31666564941406 163.9635498046875 A 4 4 0 1 1 350.31666364941424 163.95954980535416" fill-opacity="1" stroke-opacity="1" stroke-linejoin="bevel" stroke-miterlimit="10" stroke-dasharray=""/><text fill="rgb(68,68,68)" stroke="none" font-family="helvetica" font-size="14pt" font-style="normal" font-weight="normal" text-decoration="normal" x="360.81666564941406" y="189.26238098144532" text-anchor="start" dominant-baseline="central" transform="matrix(1, 0, 0, 1, 0.5, 0.5)" fill-opacity="1">200 µM PCAred (NO2)</text><path fill="none" stroke="rgb(240,228,66)" paint-order="fill" d="M 336.31666564941406 188.82943725585938 L 356.31666564941406 188.82943725585938" stroke-opacity="1" stroke-linejoin="bevel" stroke-miterlimit="10" stroke-width="2" stroke-dasharray=""/><path fill="rgb(240,228,66)" stroke="rgb(0,0,0)" paint-order="fill" d="M 342.31666564941406 184.82943725585938 L 350.31666564941406 184.82943725585938 L 350.31666564941406 192.82943725585938 L 342.31666564941406 192.82943725585938 L 342.31666564941406 184.82943725585938" fill-opacity="1" stroke-opacity="1" stroke-linejoin="bevel" stroke-miterlimit="10" stroke-dasharray=""/><path fill="none" stroke="none"/><text fill="rgb(68,68,68)" stroke="none" font-family="helvetica" font-size="14pt" font-style="normal" font-weight="bold" text-decoration="normal" x="0" y="0" text-anchor="start" dominant-baseline="text-after-edge" transform="matrix(1, 0, 0, 1, 65.5, 29.5)" fill-opacity="1">10 mM acetate</text></svg>