<svg version="1.1" xmlns="http://www.w3.org/2000/svg" xmlns:xlink="http://www.w3.org/1999/xlink" width="600" height="500"><defs><clipPath id="ZmmMuKWfsXhP"><path fill="none" stroke="none" d="M 59.5 31.5 L 570.5 31.5 L 570.5 322.5 L 59.5 322.5 L 59.5 31.5"/></clipPath><clipPath id="vnbpuBTpELoq"><path fill="none" stroke="none" d="M 59.5 31.5 L 570.5 31.5 L 570.5 322.5 L 59.5 322.5 L 59.5 31.5"/></clipPath><clipPath id="fKekWOvxPReh"><path fill="none" stroke="none" d="M 59.5 31.5 L 570.5 31.5 L 570.5 322.5 L 59.5 322.5 L 59.5 31.5"/></clipPath><clipPath id="AGoMqDxNokTh"><path fill="none" stroke="none" d="M 59.5 31.5 L 570.5 31.5 L 570.5 322.5 L 59.5 322.5 L 59.5 31.5"/></clipPath><clipPath id="LlEsVERkyheM"><path fill="none" stroke="none" d="M 59.5 31.5 L 570.5 31.5 L 570.5 322.5 L 59.5 322.5 L 59.5 31.5"/></clipPath></defs><path fill="rgb(255,255,255)" stroke="none" paint-order="stroke" d="M 0.5 0.5 L 600.5 0.5 L 600.5 500.5 L 0.5 500.5 L 0.5 0.5" fill-opacity="1"/><rect fill="#FFFFFF" stroke="none" x="59" y="31" width="511" height="291" transform="matrix(1, 0, 0, 1, 0.5, 0.5)"/><path fill="rgb(255,255,255)" stroke="none" paint-order="stroke" d="M 59.5 31.5 L 570.5 31.5 L 570.5 322.5 L 59.5 322.5 L 59.5 31.5" fill-opacity="1"/><path fill="none" stroke="rgb(229,229,229)" paint-order="fill" d="M 59.5 31.5 L 570.5 31.5 L 570.5 322.5 L 59.5 322.5 L 59.5 31.5" stroke-opacity="1" stroke-linejoin="bevel" stroke-miterlimit="10" stroke-dasharray=""/><path fill="none" stroke="rgb(229,229,229)" paint-order="fill" d="M 59.5 297.5 L 570.5 297.5 M 59.5 234.5 L 570.5 234.5 M 59.5 172.5 L 570.5 172.5 M 59.5 109.5 L 570.5 109.5 M 59.5 47.5 L 570.5 47.5" stroke-opacity="1" stroke-linejoin="bevel" stroke-miterlimit="10" stroke-dasharray="" clip-path="url(#vnbpuBTpELoq)"/><path fill="none" stroke="none"/><path fill="rgb(174,199,232)" stroke="rgb(0,0,0)" paint-order="fill" d="M 71.10678100585938 228.0730438232422 A 5 5 0 1 1 71.10677850585958 228.06804382407552" fill-opacity="1" clip-path="url(#fKekWOvxPReh)" stroke-opacity="0.7019607843137254" stroke-linejoin="bevel" stroke-miterlimit="10" stroke-width="2" stroke-dasharray=""/><path fill="rgb(174,199,232)" stroke="rgb(0,0,0)" paint-order="fill" d="M 192.42108154296875 246.29466247558594 A 5 5 0 1 1 192.42107904296896 246.28966247641927" fill-opacity="1" clip-path="url(#fKekWOvxPReh)" stroke-opacity="0.7019607843137254" stroke-linejoin="bevel" stroke-miterlimit="10" stroke-width="2" stroke-dasharray=""/><path fill="rgb(174,199,232)" stroke="rgb(0,0,0)" paint-order="fill" d="M 73.86092376708984 204.64793395996094 A 5 5 0 1 1 73.86092126709005 204.64293396079427" fill-opacity="1" clip-path="url(#fKekWOvxPReh)" stroke-opacity="0.7019607843137254" stroke-linejoin="bevel" stroke-miterlimit="10" stroke-width="2" stroke-dasharray=""/><path fill="rgb(174,199,232)" stroke="rgb(0,0,0)" paint-order="fill" d="M 191.55694580078125 244.7329864501953 A 5 5 0 1 1 191.55694330078146 244.72798645102864" fill-opacity="1" clip-path="url(#fKekWOvxPReh)" stroke-opacity="0.7019607843137254" stroke-linejoin="bevel" stroke-miterlimit="10" stroke-width="2" stroke-dasharray=""/><path fill="rgb(174,199,232)" stroke="rgb(0,0,0)" paint-order="fill" d="M 76.67648315429688 207.7712860107422 A 5 5 0 1 1 76.67648065429708 207.76628601157552" fill-opacity="1" clip-path="url(#fKekWOvxPReh)" stroke-opacity="0.7019607843137254" stroke-linejoin="bevel" stroke-miterlimit="10" stroke-width="2" stroke-dasharray=""/><path fill="rgb(174,199,232)" stroke="rgb(0,0,0)" paint-order="fill" d="M 195.6664581298828 242.12811279296875 A 5 5 0 1 1 195.66645562988302 242.12311279380208" fill-opacity="1" clip-path="url(#fKekWOvxPReh)" stroke-opacity="0.7019607843137254" stroke-linejoin="bevel" stroke-miterlimit="10" stroke-width="2" stroke-dasharray=""/><path fill="rgb(174,199,232)" stroke="rgb(0,0,0)" paint-order="fill" d="M 74.8803939819336 202.56777954101562 A 5 5 0 1 1 74.8803914819338 202.56277954184895" fill-opacity="1" clip-path="url(#fKekWOvxPReh)" stroke-opacity="0.7019607843137254" stroke-linejoin="bevel" stroke-miterlimit="10" stroke-width="2" stroke-dasharray=""/><path fill="rgb(174,199,232)" stroke="rgb(0,0,0)" paint-order="fill" d="M 316.38336181640625 272.8431396484375 A 5 5 0 1 1 316.3833593164065 272.83813964927083" fill-opacity="1" clip-path="url(#fKekWOvxPReh)" stroke-opacity="0.7019607843137254" stroke-linejoin="bevel" stroke-miterlimit="10" stroke-width="2" stroke-dasharray=""/><path fill="rgb(174,199,232)" stroke="rgb(0,0,0)" paint-order="fill" d="M 73.7460708618164 217.14132690429688 A 5 5 0 1 1 73.74606836181661 217.1363269051302" fill-opacity="1" clip-path="url(#fKekWOvxPReh)" stroke-opacity="0.7019607843137254" stroke-linejoin="bevel" stroke-miterlimit="10" stroke-width="2" stroke-dasharray=""/><path fill="rgb(174,199,232)" stroke="rgb(0,0,0)" paint-order="fill" d="M 313.81866455078125 272.32464599609375 A 5 5 0 1 1 313.8186620507815 272.3196459969271" fill-opacity="1" clip-path="url(#fKekWOvxPReh)" stroke-opacity="0.7019607843137254" stroke-linejoin="bevel" stroke-miterlimit="10" stroke-width="2" stroke-dasharray=""/><path fill="rgb(174,199,232)" stroke="rgb(0,0,0)" paint-order="fill" d="M 71.37928009033203 215.06117248535156 A 5 5 0 1 1 71.37927759033224 215.0561724861849" fill-opacity="1" clip-path="url(#fKekWOvxPReh)" stroke-opacity="0.7019607843137254" stroke-linejoin="bevel" stroke-miterlimit="10" stroke-width="2" stroke-dasharray=""/><path fill="rgb(174,199,232)" stroke="rgb(0,0,0)" paint-order="fill" d="M 316.1701354980469 271.2814636230469 A 5 5 0 1 1 316.1701329980471 271.2764636238802" fill-opacity="1" clip-path="url(#fKekWOvxPReh)" stroke-opacity="0.7019607843137254" stroke-linejoin="bevel" stroke-miterlimit="10" stroke-width="2" stroke-dasharray=""/><path fill="rgb(174,199,232)" stroke="rgb(0,0,0)" paint-order="fill" d="M 311.9436340332031 273.8863220214844 A 5 5 0 1 1 311.94363153320336 273.8813220223177" fill-opacity="1" clip-path="url(#fKekWOvxPReh)" stroke-opacity="0.7019607843137254" stroke-linejoin="bevel" stroke-miterlimit="10" stroke-width="2" stroke-dasharray=""/><path fill="rgb(174,199,232)" stroke="rgb(0,0,0)" paint-order="fill" d="M 315.120361328125 272.8431396484375 A 5 5 0 1 1 315.12035882812523 272.83813964927083" fill-opacity="1" clip-path="url(#fKekWOvxPReh)" stroke-opacity="0.7019607843137254" stroke-linejoin="bevel" stroke-miterlimit="10" stroke-width="2" stroke-dasharray=""/><path fill="rgb(174,199,232)" stroke="rgb(0,0,0)" paint-order="fill" d="M 73.22396850585938 220.26467895507812 A 5 5 0 1 1 73.22396600585958 220.25967895591145" fill-opacity="1" clip-path="url(#fKekWOvxPReh)" stroke-opacity="0.7019607843137254" stroke-linejoin="bevel" stroke-miterlimit="10" stroke-width="2" stroke-dasharray=""/><path fill="rgb(174,199,232)" stroke="rgb(0,0,0)" paint-order="fill" d="M 488.69073486328125 247.33786010742188 A 5 5 0 1 1 488.6907323632815 247.3328601082552" fill-opacity="1" clip-path="url(#fKekWOvxPReh)" stroke-opacity="0.7019607843137254" stroke-linejoin="bevel" stroke-miterlimit="10" stroke-width="2" stroke-dasharray=""/><path fill="rgb(174,199,232)" stroke="rgb(0,0,0)" paint-order="fill" d="M 74.01399230957031 204.12945556640625 A 5 5 0 1 1 74.01398980957052 204.12445556723958" fill-opacity="1" clip-path="url(#fKekWOvxPReh)" stroke-opacity="0.7019607843137254" stroke-linejoin="bevel" stroke-miterlimit="10" stroke-width="2" stroke-dasharray=""/><path fill="rgb(174,199,232)" stroke="rgb(0,0,0)" paint-order="fill" d="M 491.92376708984375 240.56643676757812 A 5 5 0 1 1 491.923764589844 240.56143676841145" fill-opacity="1" clip-path="url(#fKekWOvxPReh)" stroke-opacity="0.7019607843137254" stroke-linejoin="bevel" stroke-miterlimit="10" stroke-width="2" stroke-dasharray=""/><path fill="rgb(174,199,232)" stroke="rgb(0,0,0)" paint-order="fill" d="M 75.79375457763672 217.14132690429688 A 5 5 0 1 1 75.79375207763692 217.1363269051302" fill-opacity="1" clip-path="url(#fKekWOvxPReh)" stroke-opacity="0.7019607843137254" stroke-linejoin="bevel" stroke-miterlimit="10" stroke-width="2" stroke-dasharray=""/><path fill="rgb(174,199,232)" stroke="rgb(0,0,0)" paint-order="fill" d="M 490.3330078125 242.65283203125 A 5 5 0 1 1 490.33300531250023 242.64783203208333" fill-opacity="1" clip-path="url(#fKekWOvxPReh)" stroke-opacity="0.7019607843137254" stroke-linejoin="bevel" stroke-miterlimit="10" stroke-width="2" stroke-dasharray=""/><path fill="rgb(174,199,232)" stroke="rgb(0,0,0)" paint-order="fill" d="M 491.9110412597656 244.21450805664062 A 5 5 0 1 1 491.91103875976586 244.20950805747395" fill-opacity="1" clip-path="url(#fKekWOvxPReh)" stroke-opacity="0.7019607843137254" stroke-linejoin="bevel" stroke-miterlimit="10" stroke-width="2" stroke-dasharray=""/><path fill="rgb(174,199,232)" stroke="rgb(0,0,0)" paint-order="fill" d="M 488.3279724121094 230.67791748046875 A 5 5 0 1 1 488.3279699121096 230.67291748130208" fill-opacity="1" clip-path="url(#fKekWOvxPReh)" stroke-opacity="0.7019607843137254" stroke-linejoin="bevel" stroke-miterlimit="10" stroke-width="2" stroke-dasharray=""/><path fill="rgb(174,199,232)" stroke="rgb(0,0,0)" paint-order="fill" d="M 193.7340545654297 234.84446716308594 A 5 5 0 1 1 193.7340520654299 234.83946716391927" fill-opacity="1" clip-path="url(#fKekWOvxPReh)" stroke-opacity="0.7019607843137254" stroke-linejoin="bevel" stroke-miterlimit="10" stroke-width="2" stroke-dasharray=""/><path fill="rgb(174,199,232)" stroke="rgb(0,0,0)" paint-order="fill" d="M 312.2037048339844 271.2814636230469 A 5 5 0 1 1 312.2037023339846 271.2764636238802" fill-opacity="1" clip-path="url(#fKekWOvxPReh)" stroke-opacity="0.7019607843137254" stroke-linejoin="bevel" stroke-miterlimit="10" stroke-width="2" stroke-dasharray=""/><path fill="rgb(174,199,232)" stroke="rgb(0,0,0)" paint-order="fill" d="M 192.72947692871094 237.9678192138672 A 5 5 0 1 1 192.72947442871114 237.96281921470052" fill-opacity="1" clip-path="url(#fKekWOvxPReh)" stroke-opacity="0.7019607843137254" stroke-linejoin="bevel" stroke-miterlimit="10" stroke-width="2" stroke-dasharray=""/><path fill="rgb(174,199,232)" stroke="rgb(0,0,0)" paint-order="fill" d="M 316.18463134765625 273.3616027832031 A 5 5 0 1 1 316.1846288476565 273.35660278403645" fill-opacity="1" clip-path="url(#fKekWOvxPReh)" stroke-opacity="0.7019607843137254" stroke-linejoin="bevel" stroke-miterlimit="10" stroke-width="2" stroke-dasharray=""/><path fill="rgb(174,199,232)" stroke="rgb(0,0,0)" paint-order="fill" d="M 193.59568786621094 231.7211151123047 A 5 5 0 1 1 193.59568536621114 231.71611511313802" fill-opacity="1" clip-path="url(#fKekWOvxPReh)" stroke-opacity="0.7019607843137254" stroke-linejoin="bevel" stroke-miterlimit="10" stroke-width="2" stroke-dasharray=""/><path fill="rgb(174,199,232)" stroke="rgb(0,0,0)" paint-order="fill" d="M 312.88482666015625 270.2382507324219 A 5 5 0 1 1 312.8848241601565 270.2332507332552" fill-opacity="1" clip-path="url(#fKekWOvxPReh)" stroke-opacity="0.7019607843137254" stroke-linejoin="bevel" stroke-miterlimit="10" stroke-width="2" stroke-dasharray=""/><path fill="rgb(255,127,14)" stroke="rgb(0,0,0)" paint-order="fill" d="M 111.79866790771484 53.683990478515625 A 5 5 0 1 1 111.79866540771505 53.678990479348954" fill-opacity="1" clip-path="url(#fKekWOvxPReh)" stroke-opacity="0.7019607843137254" stroke-linejoin="bevel" stroke-miterlimit="10" stroke-width="2" stroke-dasharray=""/><path fill="rgb(255,127,14)" stroke="rgb(0,0,0)" paint-order="fill" d="M 112.13218688964844 93.25057220458984 A 5 5 0 1 1 112.13218438964864 93.24557220542317" fill-opacity="1" clip-path="url(#fKekWOvxPReh)" stroke-opacity="0.7019607843137254" stroke-linejoin="bevel" stroke-miterlimit="10" stroke-width="2" stroke-dasharray=""/><path fill="rgb(255,127,14)" stroke="rgb(0,0,0)" paint-order="fill" d="M 110.79183959960938 105.74396514892578 A 5 5 0 1 1 110.79183709960958 105.73896514975911" fill-opacity="1" clip-path="url(#fKekWOvxPReh)" stroke-opacity="0.7019607843137254" stroke-linejoin="bevel" stroke-miterlimit="10" stroke-width="2" stroke-dasharray=""/><path fill="rgb(255,127,14)" stroke="rgb(0,0,0)" paint-order="fill" d="M 112.76386260986328 57.332061767578125 A 5 5 0 1 1 112.76386010986349 57.327061768411454" fill-opacity="1" clip-path="url(#fKekWOvxPReh)" stroke-opacity="0.7019607843137254" stroke-linejoin="bevel" stroke-miterlimit="10" stroke-width="2" stroke-dasharray=""/><path fill="rgb(255,127,14)" stroke="rgb(0,0,0)" paint-order="fill" d="M 349.82098388671875 253.05982971191406 A 5 5 0 1 1 349.820981386719 253.0548297127474" fill-opacity="1" clip-path="url(#fKekWOvxPReh)" stroke-opacity="0.7019607843137254" stroke-linejoin="bevel" stroke-miterlimit="10" stroke-width="2" stroke-dasharray=""/><path fill="rgb(255,127,14)" stroke="rgb(0,0,0)" paint-order="fill" d="M 111.76039123535156 45.35714340209961 A 5 5 0 1 1 111.76038873535177 45.35214340293294" fill-opacity="1" clip-path="url(#fKekWOvxPReh)" stroke-opacity="0.7019607843137254" stroke-linejoin="bevel" stroke-miterlimit="10" stroke-width="2" stroke-dasharray=""/><path fill="rgb(255,127,14)" stroke="rgb(0,0,0)" paint-order="fill" d="M 353.3060302734375 248.37481689453125 A 5 5 0 1 1 353.30602777343773 248.36981689536458" fill-opacity="1" clip-path="url(#fKekWOvxPReh)" stroke-opacity="0.7019607843137254" stroke-linejoin="bevel" stroke-miterlimit="10" stroke-width="2" stroke-dasharray=""/><path fill="rgb(255,127,14)" stroke="rgb(0,0,0)" paint-order="fill" d="M 354.50897216796875 249.4180145263672 A 5 5 0 1 1 354.508969667969 249.41301452720052" fill-opacity="1" clip-path="url(#fKekWOvxPReh)" stroke-opacity="0.7019607843137254" stroke-linejoin="bevel" stroke-miterlimit="10" stroke-width="2" stroke-dasharray=""/><path fill="rgb(255,127,14)" stroke="rgb(0,0,0)" paint-order="fill" d="M 350.634521484375 257.22637939453125 A 5 5 0 1 1 350.63451898437523 257.2213793953646" fill-opacity="1" clip-path="url(#fKekWOvxPReh)" stroke-opacity="0.7019607843137254" stroke-linejoin="bevel" stroke-miterlimit="10" stroke-width="2" stroke-dasharray=""/><path fill="rgb(255,127,14)" stroke="rgb(0,0,0)" paint-order="fill" d="M 354.7353210449219 258.7880554199219 A 5 5 0 1 1 354.7353185449221 258.7830554207552" fill-opacity="1" clip-path="url(#fKekWOvxPReh)" stroke-opacity="0.7019607843137254" stroke-linejoin="bevel" stroke-miterlimit="10" stroke-width="2" stroke-dasharray=""/><path fill="rgb(255,152,150)" stroke="rgb(0,0,0)" paint-order="fill" d="M 131.85385131835938 250.9796905517578 A 5 5 0 1 1 131.85384881835958 250.97469055259114" fill-opacity="1" clip-path="url(#fKekWOvxPReh)" stroke-opacity="0.7019607843137254" stroke-linejoin="bevel" stroke-miterlimit="10" stroke-width="2" stroke-dasharray=""/><path fill="rgb(255,152,150)" stroke="rgb(0,0,0)" paint-order="fill" d="M 252.8856658935547 245.77618408203125 A 5 5 0 1 1 252.8856633935549 245.77118408286458" fill-opacity="1" clip-path="url(#fKekWOvxPReh)" stroke-opacity="0.7019607843137254" stroke-linejoin="bevel" stroke-miterlimit="10" stroke-width="2" stroke-dasharray=""/><path fill="rgb(255,152,150)" stroke="rgb(0,0,0)" paint-order="fill" d="M 372.2048645019531 272.8431396484375 A 5 5 0 1 1 372.20486200195336 272.83813964927083" fill-opacity="1" clip-path="url(#fKekWOvxPReh)" stroke-opacity="0.7019607843137254" stroke-linejoin="bevel" stroke-miterlimit="10" stroke-width="2" stroke-dasharray=""/><path fill="rgb(255,152,150)" stroke="rgb(0,0,0)" paint-order="fill" d="M 545.4931030273438 268.67657470703125 A 5 5 0 1 1 545.4931005273439 268.6715747078646" fill-opacity="1" clip-path="url(#fKekWOvxPReh)" stroke-opacity="0.7019607843137254" stroke-linejoin="bevel" stroke-miterlimit="10" stroke-width="2" stroke-dasharray=""/><path fill="rgb(255,152,150)" stroke="rgb(0,0,0)" paint-order="fill" d="M 129.9675750732422 252.02288818359375 A 5 5 0 1 1 129.9675725732424 252.01788818442708" fill-opacity="1" clip-path="url(#fKekWOvxPReh)" stroke-opacity="0.7019607843137254" stroke-linejoin="bevel" stroke-miterlimit="10" stroke-width="2" stroke-dasharray=""/><path fill="rgb(255,152,150)" stroke="rgb(0,0,0)" paint-order="fill" d="M 248.16041564941406 247.85633850097656 A 5 5 0 1 1 248.16041314941427 247.8513385018099" fill-opacity="1" clip-path="url(#fKekWOvxPReh)" stroke-opacity="0.7019607843137254" stroke-linejoin="bevel" stroke-miterlimit="10" stroke-width="2" stroke-dasharray=""/><path fill="rgb(255,152,150)" stroke="rgb(0,0,0)" paint-order="fill" d="M 372.384033203125 272.8431396484375 A 5 5 0 1 1 372.38403070312523 272.83813964927083" fill-opacity="1" clip-path="url(#fKekWOvxPReh)" stroke-opacity="0.7019607843137254" stroke-linejoin="bevel" stroke-miterlimit="10" stroke-width="2" stroke-dasharray=""/><path fill="rgb(255,152,150)" stroke="rgb(0,0,0)" paint-order="fill" d="M 545.6251220703125 271.7999267578125 A 5 5 0 1 1 545.6251195703127 271.79492675864583" fill-opacity="1" clip-path="url(#fKekWOvxPReh)" stroke-opacity="0.7019607843137254" stroke-linejoin="bevel" stroke-miterlimit="10" stroke-width="2" stroke-dasharray=""/><path fill="rgb(255,152,150)" stroke="rgb(0,0,0)" paint-order="fill" d="M 131.36141204833984 242.65283203125 A 5 5 0 1 1 131.36140954834005 242.64783203208333" fill-opacity="1" clip-path="url(#fKekWOvxPReh)" stroke-opacity="0.7019607843137254" stroke-linejoin="bevel" stroke-miterlimit="10" stroke-width="2" stroke-dasharray=""/><path fill="rgb(255,152,150)" stroke="rgb(0,0,0)" paint-order="fill" d="M 249.6121826171875 242.65283203125 A 5 5 0 1 1 249.6121801171877 242.64783203208333" fill-opacity="1" clip-path="url(#fKekWOvxPReh)" stroke-opacity="0.7019607843137254" stroke-linejoin="bevel" stroke-miterlimit="10" stroke-width="2" stroke-dasharray=""/><path fill="rgb(255,152,150)" stroke="rgb(0,0,0)" paint-order="fill" d="M 369.46630859375 271.7999267578125 A 5 5 0 1 1 369.46630609375023 271.79492675864583" fill-opacity="1" clip-path="url(#fKekWOvxPReh)" stroke-opacity="0.7019607843137254" stroke-linejoin="bevel" stroke-miterlimit="10" stroke-width="2" stroke-dasharray=""/><path fill="rgb(255,152,150)" stroke="rgb(0,0,0)" paint-order="fill" d="M 549.5137329101562 267.1148986816406 A 5 5 0 1 1 549.5137304101564 267.10989868247395" fill-opacity="1" clip-path="url(#fKekWOvxPReh)" stroke-opacity="0.7019607843137254" stroke-linejoin="bevel" stroke-miterlimit="10" stroke-width="2" stroke-dasharray=""/><path fill="rgb(255,152,150)" stroke="rgb(0,0,0)" paint-order="fill" d="M 132.7061767578125 249.4180145263672 A 5 5 0 1 1 132.7061742578127 249.41301452720052" fill-opacity="1" clip-path="url(#fKekWOvxPReh)" stroke-opacity="0.7019607843137254" stroke-linejoin="bevel" stroke-miterlimit="10" stroke-width="2" stroke-dasharray=""/><path fill="rgb(255,152,150)" stroke="rgb(0,0,0)" paint-order="fill" d="M 248.26402282714844 245.77618408203125 A 5 5 0 1 1 248.26402032714864 245.77118408286458" fill-opacity="1" clip-path="url(#fKekWOvxPReh)" stroke-opacity="0.7019607843137254" stroke-linejoin="bevel" stroke-miterlimit="10" stroke-width="2" stroke-dasharray=""/><path fill="rgb(255,152,150)" stroke="rgb(0,0,0)" paint-order="fill" d="M 372.8710632324219 271.2814636230469 A 5 5 0 1 1 372.8710607324221 271.2764636238802" fill-opacity="1" clip-path="url(#fKekWOvxPReh)" stroke-opacity="0.7019607843137254" stroke-linejoin="bevel" stroke-miterlimit="10" stroke-width="2" stroke-dasharray=""/><path fill="rgb(255,152,150)" stroke="rgb(0,0,0)" paint-order="fill" d="M 547.7364501953125 267.6396179199219 A 5 5 0 1 1 547.7364476953127 267.6346179207552" fill-opacity="1" clip-path="url(#fKekWOvxPReh)" stroke-opacity="0.7019607843137254" stroke-linejoin="bevel" stroke-miterlimit="10" stroke-width="2" stroke-dasharray=""/><path fill="rgb(255,127,14)" stroke="rgb(0,0,0)" paint-order="fill" d="M 113.91546630859375 157.79769897460938 A 5 5 0 1 1 113.91546380859396 157.7926989754427" fill-opacity="1" clip-path="url(#fKekWOvxPReh)" stroke-opacity="0.7019607843137254" stroke-linejoin="bevel" stroke-miterlimit="10" stroke-width="2" stroke-dasharray=""/><path fill="rgb(255,127,14)" stroke="rgb(0,0,0)" paint-order="fill" d="M 354.69140625 261.3929443359375 A 5 5 0 1 1 354.69140375000023 261.38794433677083" fill-opacity="1" clip-path="url(#fKekWOvxPReh)" stroke-opacity="0.7019607843137254" stroke-linejoin="bevel" stroke-miterlimit="10" stroke-width="2" stroke-dasharray=""/><path fill="rgb(255,127,14)" stroke="rgb(0,0,0)" paint-order="fill" d="M 113.4955062866211 148.95237731933594 A 5 5 0 1 1 113.4955037866213 148.94737732016927" fill-opacity="1" clip-path="url(#fKekWOvxPReh)" stroke-opacity="0.7019607843137254" stroke-linejoin="bevel" stroke-miterlimit="10" stroke-width="2" stroke-dasharray=""/><path fill="rgb(255,127,14)" stroke="rgb(0,0,0)" paint-order="fill" d="M 350.78875732421875 260.8681945800781 A 5 5 0 1 1 350.788754824219 260.86319458091145" fill-opacity="1" clip-path="url(#fKekWOvxPReh)" stroke-opacity="0.7019607843137254" stroke-linejoin="bevel" stroke-miterlimit="10" stroke-width="2" stroke-dasharray=""/><path fill="rgb(255,127,14)" stroke="rgb(0,0,0)" paint-order="fill" d="M 111.95938110351562 127.60740661621094 A 5 5 0 1 1 111.95937860351583 127.60240661704427" fill-opacity="1" clip-path="url(#fKekWOvxPReh)" stroke-opacity="0.7019607843137254" stroke-linejoin="bevel" stroke-miterlimit="10" stroke-width="2" stroke-dasharray=""/><path fill="rgb(255,127,14)" stroke="rgb(0,0,0)" paint-order="fill" d="M 353.0874938964844 255.146240234375 A 5 5 0 1 1 353.0874913964846 255.14124023520833" fill-opacity="1" clip-path="url(#fKekWOvxPReh)" stroke-opacity="0.7019607843137254" stroke-linejoin="bevel" stroke-miterlimit="10" stroke-width="2" stroke-dasharray=""/><path fill="rgb(255,187,120)" stroke="rgb(0,0,0)" paint-order="fill" d="M 386.850341796875 70.34393310546875 A 5 5 0 1 1 386.85033929687523 70.33893310630208" fill-opacity="1" clip-path="url(#fKekWOvxPReh)" stroke-opacity="0.7019607843137254" stroke-linejoin="bevel" stroke-miterlimit="10" stroke-width="2" stroke-dasharray=""/><path fill="rgb(255,187,120)" stroke="rgb(0,0,0)" paint-order="fill" d="M 391.73980712890625 111.99066925048828 A 5 5 0 1 1 391.7398046289065 111.98566925132161" fill-opacity="1" clip-path="url(#fKekWOvxPReh)" stroke-opacity="0.7019607843137254" stroke-linejoin="bevel" stroke-miterlimit="10" stroke-width="2" stroke-dasharray=""/><path fill="rgb(255,187,120)" stroke="rgb(0,0,0)" paint-order="fill" d="M 387.207275390625 90.64569854736328 A 5 5 0 1 1 387.20727289062523 90.64069854819661" fill-opacity="1" clip-path="url(#fKekWOvxPReh)" stroke-opacity="0.7019607843137254" stroke-linejoin="bevel" stroke-miterlimit="10" stroke-width="2" stroke-dasharray=""/><path fill="rgb(255,187,120)" stroke="rgb(0,0,0)" paint-order="fill" d="M 390.75445556640625 146.34750366210938 A 5 5 0 1 1 390.7544530664065 146.3425036629427" fill-opacity="1" clip-path="url(#fKekWOvxPReh)" stroke-opacity="0.7019607843137254" stroke-linejoin="bevel" stroke-miterlimit="10" stroke-width="2" stroke-dasharray=""/><path fill="rgb(255,187,120)" stroke="rgb(0,0,0)" paint-order="fill" d="M 387.6042785644531 128.65060424804688 A 5 5 0 1 1 387.60427606445336 128.6456042488802" fill-opacity="1" clip-path="url(#fKekWOvxPReh)" stroke-opacity="0.7019607843137254" stroke-linejoin="bevel" stroke-miterlimit="10" stroke-width="2" stroke-dasharray=""/><path fill="rgb(255,187,120)" stroke="rgb(0,0,0)" paint-order="fill" d="M 391.21527099609375 148.4276580810547 A 5 5 0 1 1 391.215268496094 148.42265808188802" fill-opacity="1" clip-path="url(#fKekWOvxPReh)" stroke-opacity="0.7019607843137254" stroke-linejoin="bevel" stroke-miterlimit="10" stroke-width="2" stroke-dasharray=""/><path fill="rgb(255,187,120)" stroke="rgb(0,0,0)" paint-order="fill" d="M 388.1111755371094 126.564208984375 A 5 5 0 1 1 388.1111730371096 126.55920898520833" fill-opacity="1" clip-path="url(#fKekWOvxPReh)" stroke-opacity="0.7019607843137254" stroke-linejoin="bevel" stroke-miterlimit="10" stroke-width="2" stroke-dasharray=""/><path fill="rgb(255,187,120)" stroke="rgb(0,0,0)" paint-order="fill" d="M 388.06817626953125 126.564208984375 A 5 5 0 1 1 388.0681737695315 126.55920898520833" fill-opacity="1" clip-path="url(#fKekWOvxPReh)" stroke-opacity="0.7019607843137254" stroke-linejoin="bevel" stroke-miterlimit="10" stroke-width="2" stroke-dasharray=""/><path fill="rgb(255,187,120)" stroke="rgb(0,0,0)" paint-order="fill" d="M 391.6839904785156 58.89373779296875 A 5 5 0 1 1 391.68398797851586 58.88873779380208" fill-opacity="1" clip-path="url(#fKekWOvxPReh)" stroke-opacity="0.7019607843137254" stroke-linejoin="bevel" stroke-miterlimit="10" stroke-width="2" stroke-dasharray=""/><path fill="rgb(255,187,120)" stroke="rgb(0,0,0)" paint-order="fill" d="M 391.36859130859375 116.67568969726562 A 5 5 0 1 1 391.368588808594 116.67068969809895" fill-opacity="1" clip-path="url(#fKekWOvxPReh)" stroke-opacity="0.7019607843137254" stroke-linejoin="bevel" stroke-miterlimit="10" stroke-width="2" stroke-dasharray=""/><path fill="rgb(255,187,120)" stroke="rgb(0,0,0)" paint-order="fill" d="M 389.4037780761719 115.63249206542969 A 5 5 0 1 1 389.4037755761721 115.62749206626302" fill-opacity="1" clip-path="url(#fKekWOvxPReh)" stroke-opacity="0.7019607843137254" stroke-linejoin="bevel" stroke-miterlimit="10" stroke-width="2" stroke-dasharray=""/><path fill="rgb(255,187,120)" stroke="rgb(0,0,0)" paint-order="fill" d="M 271.3096618652344 52.122314453125 A 5 5 0 1 1 271.3096593652346 52.11731445395833" fill-opacity="1" clip-path="url(#fKekWOvxPReh)" stroke-opacity="0.7019607843137254" stroke-linejoin="bevel" stroke-miterlimit="10" stroke-width="2" stroke-dasharray=""/><path fill="rgb(255,187,120)" stroke="rgb(0,0,0)" paint-order="fill" d="M 392.1874694824219 94.28752136230469 A 5 5 0 1 1 392.1874669824221 94.28252136313802" fill-opacity="1" clip-path="url(#fKekWOvxPReh)" stroke-opacity="0.7019607843137254" stroke-linejoin="bevel" stroke-miterlimit="10" stroke-width="2" stroke-dasharray=""/><path fill="rgb(44,160,44)" stroke="rgb(0,0,0)" paint-order="fill" d="M 406.32183837890625 220.26467895507812 A 5 5 0 1 1 406.3218358789065 220.25967895591145" fill-opacity="1" clip-path="url(#fKekWOvxPReh)" stroke-opacity="0.7019607843137254" stroke-linejoin="bevel" stroke-miterlimit="10" stroke-width="2" stroke-dasharray=""/><path fill="rgb(44,160,44)" stroke="rgb(0,0,0)" paint-order="fill" d="M 409.0495300292969 220.78939819335938 A 5 5 0 1 1 409.0495275292971 220.7843981941927" fill-opacity="1" clip-path="url(#fKekWOvxPReh)" stroke-opacity="0.7019607843137254" stroke-linejoin="bevel" stroke-miterlimit="10" stroke-width="2" stroke-dasharray=""/><path fill="rgb(44,160,44)" stroke="rgb(0,0,0)" paint-order="fill" d="M 407.56927490234375 204.64793395996094 A 5 5 0 1 1 407.569272402344 204.64293396079427" fill-opacity="1" clip-path="url(#fKekWOvxPReh)" stroke-opacity="0.7019607843137254" stroke-linejoin="bevel" stroke-miterlimit="10" stroke-width="2" stroke-dasharray=""/><path fill="rgb(152,223,138)" stroke="rgb(0,0,0)" paint-order="fill" d="M 426.6056823730469 91.16417694091797 A 5 5 0 1 1 426.6056798730471 91.1591769417513" fill-opacity="1" clip-path="url(#fKekWOvxPReh)" stroke-opacity="0.7019607843137254" stroke-linejoin="bevel" stroke-miterlimit="10" stroke-width="2" stroke-dasharray=""/><path fill="rgb(152,223,138)" stroke="rgb(0,0,0)" paint-order="fill" d="M 428.2385559082031 126.04573822021484 A 5 5 0 1 1 428.23855340820336 126.04073822104817" fill-opacity="1" clip-path="url(#fKekWOvxPReh)" stroke-opacity="0.7019607843137254" stroke-linejoin="bevel" stroke-miterlimit="10" stroke-width="2" stroke-dasharray=""/><path fill="rgb(152,223,138)" stroke="rgb(0,0,0)" paint-order="fill" d="M 425.9424133300781 115.63249206542969 A 5 5 0 1 1 425.94241083007836 115.62749206626302" fill-opacity="1" clip-path="url(#fKekWOvxPReh)" stroke-opacity="0.7019607843137254" stroke-linejoin="bevel" stroke-miterlimit="10" stroke-width="2" stroke-dasharray=""/><path fill="rgb(214,39,40)" stroke="rgb(0,0,0)" paint-order="fill" d="M 448.54071044921875 204.64793395996094 A 5 5 0 1 1 448.540707949219 204.64293396079427" fill-opacity="1" clip-path="url(#fKekWOvxPReh)" stroke-opacity="0.7019607843137254" stroke-linejoin="bevel" stroke-miterlimit="10" stroke-width="2" stroke-dasharray=""/><path fill="rgb(214,39,40)" stroke="rgb(0,0,0)" paint-order="fill" d="M 443.9501037597656 164.56912231445312 A 5 5 0 1 1 443.95010125976586 164.56412231528645" fill-opacity="1" clip-path="url(#fKekWOvxPReh)" stroke-opacity="0.7019607843137254" stroke-linejoin="bevel" stroke-miterlimit="10" stroke-width="2" stroke-dasharray=""/><path fill="rgb(214,39,40)" stroke="rgb(0,0,0)" paint-order="fill" d="M 448.19427490234375 219.22772216796875 A 5 5 0 1 1 448.194272402344 219.22272216880208" fill-opacity="1" clip-path="url(#fKekWOvxPReh)" stroke-opacity="0.7019607843137254" stroke-linejoin="bevel" stroke-miterlimit="10" stroke-width="2" stroke-dasharray=""/><path fill="none" stroke="none"/><path fill="rgb(174,199,232)" stroke="rgb(0,0,0)" paint-order="fill" d="M 304.1073303222656 269.4048156738281 L 314.1073303222656 269.4048156738281 L 314.1073303222656 279.4048156738281 L 304.1073303222656 279.4048156738281 L 304.1073303222656 269.4048156738281" fill-opacity="1" clip-path="url(#AGoMqDxNokTh)" stroke-opacity="0.7019607843137254" stroke-linejoin="bevel" stroke-miterlimit="10" stroke-width="2" stroke-dasharray=""/><path fill="rgb(174,199,232)" stroke="rgb(0,0,0)" paint-order="fill" d="M 302.0691223144531 256.3929443359375 L 312.0691223144531 256.3929443359375 L 312.0691223144531 266.3929443359375 L 302.0691223144531 266.3929443359375 L 302.0691223144531 256.3929443359375" fill-opacity="1" clip-path="url(#AGoMqDxNokTh)" stroke-opacity="0.7019607843137254" stroke-linejoin="bevel" stroke-miterlimit="10" stroke-width="2" stroke-dasharray=""/><path fill="rgb(174,199,232)" stroke="rgb(0,0,0)" paint-order="fill" d="M 302.0736083984375 270.447998046875 L 312.0736083984375 270.447998046875 L 312.0736083984375 280.447998046875 L 302.0736083984375 280.447998046875 L 302.0736083984375 270.447998046875" fill-opacity="1" clip-path="url(#AGoMqDxNokTh)" stroke-opacity="0.7019607843137254" stroke-linejoin="bevel" stroke-miterlimit="10" stroke-width="2" stroke-dasharray=""/><path fill="rgb(174,199,232)" stroke="rgb(0,0,0)" paint-order="fill" d="M 302.10150146484375 258.9915466308594 L 312.10150146484375 258.9915466308594 L 312.10150146484375 268.9915466308594 L 302.10150146484375 268.9915466308594 L 302.10150146484375 258.9915466308594" fill-opacity="1" clip-path="url(#AGoMqDxNokTh)" stroke-opacity="0.7019607843137254" stroke-linejoin="bevel" stroke-miterlimit="10" stroke-width="2" stroke-dasharray=""/><path fill="rgb(174,199,232)" stroke="rgb(0,0,0)" paint-order="fill" d="M 61.155845642089844 201.7343292236328 L 71.15584564208984 201.7343292236328 L 71.15584564208984 211.7343292236328 L 61.155845642089844 211.7343292236328 L 61.155845642089844 201.7343292236328" fill-opacity="1" clip-path="url(#AGoMqDxNokTh)" stroke-opacity="0.7019607843137254" stroke-linejoin="bevel" stroke-miterlimit="10" stroke-width="2" stroke-dasharray=""/><path fill="rgb(174,199,232)" stroke="rgb(0,0,0)" paint-order="fill" d="M 184.68310546875 230.8814239501953 L 194.68310546875 230.8814239501953 L 194.68310546875 240.8814239501953 L 184.68310546875 240.8814239501953 L 184.68310546875 230.8814239501953" fill-opacity="1" clip-path="url(#AGoMqDxNokTh)" stroke-opacity="0.7019607843137254" stroke-linejoin="bevel" stroke-miterlimit="10" stroke-width="2" stroke-dasharray=""/><path fill="rgb(174,199,232)" stroke="rgb(0,0,0)" paint-order="fill" d="M 302.78656005859375 265.7629699707031 L 312.78656005859375 265.7629699707031 L 312.78656005859375 275.7629699707031 L 302.78656005859375 275.7629699707031 L 302.78656005859375 265.7629699707031" fill-opacity="1" clip-path="url(#AGoMqDxNokTh)" stroke-opacity="0.7019607843137254" stroke-linejoin="bevel" stroke-miterlimit="10" stroke-width="2" stroke-dasharray=""/><path fill="rgb(174,199,232)" stroke="rgb(0,0,0)" paint-order="fill" d="M 481.7402648925781 248.58456420898438 L 491.7402648925781 248.58456420898438 L 491.7402648925781 258.5845642089844 L 481.7402648925781 258.5845642089844 L 481.7402648925781 248.58456420898438" fill-opacity="1" clip-path="url(#AGoMqDxNokTh)" stroke-opacity="0.7019607843137254" stroke-linejoin="bevel" stroke-miterlimit="10" stroke-width="2" stroke-dasharray=""/><path fill="rgb(255,127,14)" stroke="rgb(0,0,0)" paint-order="fill" d="M 340.9953918457031 250.66470336914062 L 350.9953918457031 250.66470336914062 L 350.9953918457031 260.6647033691406 L 340.9953918457031 260.6647033691406 L 340.9953918457031 250.66470336914062" fill-opacity="1" clip-path="url(#AGoMqDxNokTh)" stroke-opacity="0.7019607843137254" stroke-linejoin="bevel" stroke-miterlimit="10" stroke-width="2" stroke-dasharray=""/><path fill="rgb(255,127,14)" stroke="rgb(0,0,0)" paint-order="fill" d="M 343.9450988769531 245.9796905517578 L 353.9450988769531 245.9796905517578 L 353.9450988769531 255.9796905517578 L 343.9450988769531 255.9796905517578 L 343.9450988769531 245.9796905517578" fill-opacity="1" clip-path="url(#AGoMqDxNokTh)" stroke-opacity="0.7019607843137254" stroke-linejoin="bevel" stroke-miterlimit="10" stroke-width="2" stroke-dasharray=""/><path fill="rgb(255,127,14)" stroke="rgb(0,0,0)" paint-order="fill" d="M 517.7761840820312 180.3893585205078 L 527.7761840820312 180.3893585205078 L 527.7761840820312 190.3893585205078 L 517.7761840820312 190.3893585205078 L 517.7761840820312 180.3893585205078" fill-opacity="1" clip-path="url(#AGoMqDxNokTh)" stroke-opacity="0.7019607843137254" stroke-linejoin="bevel" stroke-miterlimit="10" stroke-width="2" stroke-dasharray=""/><path fill="rgb(255,187,120)" stroke="rgb(0,0,0)" paint-order="fill" d="M 379.04718017578125 153.8408966064453 L 389.04718017578125 153.8408966064453 L 389.04718017578125 163.8408966064453 L 379.04718017578125 163.8408966064453 L 379.04718017578125 153.8408966064453" fill-opacity="1" clip-path="url(#AGoMqDxNokTh)" stroke-opacity="0.7019607843137254" stroke-linejoin="bevel" stroke-miterlimit="10" stroke-width="2" stroke-dasharray=""/><path fill="none" stroke="rgb(0,0,0)" paint-order="fill" d="M 59.5 322.5 L 570.5 322.5" stroke-opacity="1" stroke-linejoin="bevel" stroke-miterlimit="10" stroke-dasharray=""/><path fill="none" stroke="rgb(0,0,0)" paint-order="fill" d="M 68.5 328.5 L 68.5 320.5 M 189.5 328.5 L 189.5 320.5 M 309.5 328.5 L 309.5 320.5 M 485.5 328.5 L 485.5 320.5 M 87.5 328.5 L 87.5 320.5 M 207.5 328.5 L 207.5 320.5 M 328.5 328.5 L 328.5 320.5 M 504.5 328.5 L 504.5 320.5 M 106.5 328.5 L 106.5 320.5 M 226.5 328.5 L 226.5 320.5 M 346.5 328.5 L 346.5 320.5 M 523.5 328.5 L 523.5 320.5 M 125.5 328.5 L 125.5 320.5 M 245.5 328.5 L 245.5 320.5 M 365.5 328.5 L 365.5 320.5 M 542.5 328.5 L 542.5 320.5 M 144.5 328.5 L 144.5 320.5 M 264.5 328.5 L 264.5 320.5 M 384.5 328.5 L 384.5 320.5 M 561.5 328.5 L 561.5 320.5 M 403.5 328.5 L 403.5 320.5 M 422.5 328.5 L 422.5 320.5 M 440.5 328.5 L 440.5 320.5" stroke-opacity="1" stroke-linejoin="bevel" stroke-miterlimit="10" stroke-dasharray=""/><path fill="none" stroke="rgb(0,0,0)" paint-order="fill" d="" stroke-opacity="1" stroke-linejoin="bevel" stroke-miterlimit="10" stroke-dasharray=""/><text fill="rgb(68,68,68)" stroke="none" font-family="helvetica" font-size="12pt" font-style="normal" font-weight="normal" text-decoration="normal" x="43.52671241760254" y="338.83203125" text-anchor="start" dominant-baseline="alphabetic" transform="matrix(0.7071067811865476, -0.7071067811865475, 0.7071067811865475, 0.7071067811865476, -214.93460115235672, 146.39486409354186)" fill-opacity="1">WT</text><text fill="rgb(68,68,68)" stroke="none" font-family="helvetica" font-size="12pt" font-style="normal" font-weight="normal" text-decoration="normal" x="163.76201057434082" y="338.83203125" text-anchor="start" dominant-baseline="alphabetic" transform="matrix(0.7071067811865476, -0.7071067811865475, 0.7071067811865475, 0.7071067811865476, -179.7184976602345, 231.4140587581579)" fill-opacity="1">WT</text><text fill="rgb(68,68,68)" stroke="none" font-family="helvetica" font-size="12pt" font-style="normal" font-weight="normal" text-decoration="normal" x="283.99731636047363" y="338.83203125" text-anchor="start" dominant-baseline="alphabetic" transform="matrix(0.7071067811865476, -0.7071067811865475, 0.7071067811865475, 0.7071067811865476, -144.50239193351433, 316.4332588175705)" fill-opacity="1">WT</text><text fill="rgb(68,68,68)" stroke="none" font-family="helvetica" font-size="12pt" font-style="normal" font-weight="normal" text-decoration="normal" x="460.59289741516113" y="338.83203125" text-anchor="start" dominant-baseline="alphabetic" transform="matrix(0.7071067811865476, -0.7071067811865475, 0.7071067811865475, 0.7071067811865476, -92.77874377017497, 441.30519170891864)" fill-opacity="1">WT</text><text fill="rgb(68,68,68)" stroke="none" font-family="helvetica" font-size="12pt" font-style="normal" font-weight="normal" text-decoration="normal" x="39.16347885131836" y="338.83203125" text-anchor="start" dominant-baseline="alphabetic" transform="matrix(0.7071067811865476, -0.7071067811865475, 0.7071067811865475, 0.7071067811865476, -209.43208477221907, 159.6791137656503)" fill-opacity="1">Abiotic</text><text fill="rgb(68,68,68)" stroke="none" font-family="helvetica" font-size="12pt" font-style="normal" font-weight="normal" text-decoration="normal" x="159.3987693786621" y="338.83203125" text-anchor="start" dominant-baseline="alphabetic" transform="matrix(0.7071067811865476, -0.7071067811865475, 0.7071067811865475, 0.7071067811865476, -174.21598351469476, 244.6983030354697)" fill-opacity="1">Abiotic</text><text fill="rgb(68,68,68)" stroke="none" font-family="helvetica" font-size="12pt" font-style="normal" font-weight="normal" text-decoration="normal" x="279.63405990600586" y="338.83203125" text-anchor="start" dominant-baseline="alphabetic" transform="matrix(0.7071067811865476, -0.7071067811865475, 0.7071067811865475, 0.7071067811865476, -138.99988225717044, 329.71749230528917)" fill-opacity="1">Abiotic</text><text fill="rgb(68,68,68)" stroke="none" font-family="helvetica" font-size="12pt" font-style="normal" font-weight="normal" text-decoration="normal" x="456.2296714782715" y="338.83203125" text-anchor="start" dominant-baseline="alphabetic" transform="matrix(0.7071067811865476, -0.7071067811865475, 0.7071067811865475, 0.7071067811865476, -87.27622515543942, 454.5894467758237)" fill-opacity="1">Abiotic</text><text fill="rgb(68,68,68)" stroke="none" font-family="helvetica" font-size="12pt" font-style="normal" font-weight="normal" text-decoration="normal" x="27.71691131591797" y="338.83203125" text-anchor="start" dominant-baseline="alphabetic" transform="matrix(0.7071067811865476, -0.7071067811865475, 0.7071067811865475, 0.7071067811865476, -203.92956839208142, 172.96336343775874)" fill-opacity="1">menA-tlKO</text><text fill="rgb(68,68,68)" stroke="none" font-family="helvetica" font-size="12pt" font-style="normal" font-weight="normal" text-decoration="normal" x="147.9521942138672" y="338.83203125" text-anchor="start" dominant-baseline="alphabetic" transform="matrix(0.7071067811865476, -0.7071067811865475, 0.7071067811865475, 0.7071067811865476, -168.71346936915506, 257.98254731278155)" fill-opacity="1">menA-tlKO</text><text fill="rgb(68,68,68)" stroke="none" font-family="helvetica" font-size="12pt" font-style="normal" font-weight="normal" text-decoration="normal" x="268.1875" y="338.83203125" text-anchor="start" dominant-baseline="alphabetic" transform="matrix(0.7071067811865476, -0.7071067811865475, 0.7071067811865475, 0.7071067811865476, -133.49736364243483, 343.0017473721942)" fill-opacity="1">menA-tlKO</text><text fill="rgb(68,68,68)" stroke="none" font-family="helvetica" font-size="12pt" font-style="normal" font-weight="normal" text-decoration="normal" x="444.7830810546875" y="338.83203125" text-anchor="start" dominant-baseline="alphabetic" transform="matrix(0.7071067811865476, -0.7071067811865475, 0.7071067811865475, 0.7071067811865476, -81.77371547909547, 467.8736802635423)" fill-opacity="1">menA-tlKO</text><text fill="rgb(68,68,68)" stroke="none" font-family="helvetica" font-size="12pt" font-style="normal" font-weight="normal" text-decoration="normal" x="55.40367889404297" y="338.83203125" text-anchor="start" dominant-baseline="alphabetic" transform="matrix(0.7071067811865476, -0.7071067811865475, 0.7071067811865475, 0.7071067811865476, -198.42705201194377, 186.2476131098672)" fill-opacity="1">ubiC-tlKO</text><text fill="rgb(68,68,68)" stroke="none" font-family="helvetica" font-size="12pt" font-style="normal" font-weight="normal" text-decoration="normal" x="175.63896942138672" y="338.83203125" text-anchor="start" dominant-baseline="alphabetic" transform="matrix(0.7071067811865476, -0.7071067811865475, 0.7071067811865475, 0.7071067811865476, -163.21095075441946, 271.2668023796866)" fill-opacity="1">ubiC-tlKO</text><text fill="rgb(68,68,68)" stroke="none" font-family="helvetica" font-size="12pt" font-style="normal" font-weight="normal" text-decoration="normal" x="295.8742446899414" y="338.83203125" text-anchor="start" dominant-baseline="alphabetic" transform="matrix(0.7071067811865476, -0.7071067811865475, 0.7071067811865475, 0.7071067811865476, -127.994853966091, 356.2859808599128)" fill-opacity="1">ubiC-tlKO</text><text fill="rgb(68,68,68)" stroke="none" font-family="helvetica" font-size="12pt" font-style="normal" font-weight="normal" text-decoration="normal" x="472.46988677978516" y="338.83203125" text-anchor="start" dominant-baseline="alphabetic" transform="matrix(0.7071067811865476, -0.7071067811865475, 0.7071067811865475, 0.7071067811865476, -76.2711879259682, 481.1579569096338)" fill-opacity="1">ubiC-tlKO</text><text fill="rgb(68,68,68)" stroke="none" font-family="helvetica" font-size="12pt" font-style="normal" font-weight="normal" text-decoration="normal" x="32.39043426513672" y="338.83203125" text-anchor="start" dominant-baseline="alphabetic" transform="matrix(0.7071067811865476, -0.7071067811865475, 0.7071067811865475, 0.7071067811865476, -192.92453786640402, 199.531857387179)" fill-opacity="1">menAubiC-tlKO</text><text fill="rgb(68,68,68)" stroke="none" font-family="helvetica" font-size="12pt" font-style="normal" font-weight="normal" text-decoration="normal" x="152.62572479248047" y="338.83203125" text-anchor="start" dominant-baseline="alphabetic" transform="matrix(0.7071067811865476, -0.7071067811865475, 0.7071067811865475, 0.7071067811865476, -157.7084366088797, 284.55104665699844)" fill-opacity="1">menAubiC-tlKO</text><text fill="rgb(68,68,68)" stroke="none" font-family="helvetica" font-size="12pt" font-style="normal" font-weight="normal" text-decoration="normal" x="272.8610153198242" y="338.83203125" text-anchor="start" dominant-baseline="alphabetic" transform="matrix(0.7071067811865476, -0.7071067811865475, 0.7071067811865475, 0.7071067811865476, -122.4923353513554, 369.5702359268178)" fill-opacity="1">menAubiC-tlKO</text><text fill="rgb(68,68,68)" stroke="none" font-family="helvetica" font-size="12pt" font-style="normal" font-weight="normal" text-decoration="normal" x="449.45662689208984" y="338.83203125" text-anchor="start" dominant-baseline="alphabetic" transform="matrix(0.7071067811865476, -0.7071067811865475, 0.7071067811865475, 0.7071067811865476, -70.76867824962437, 494.4421903973524)" fill-opacity="1">menAubiC-tlKO</text><text fill="rgb(68,68,68)" stroke="none" font-family="helvetica" font-size="12pt" font-style="normal" font-weight="normal" text-decoration="normal" x="221.38111877441406" y="338.83203125" text-anchor="start" dominant-baseline="alphabetic" transform="matrix(0.7071067811865476, -0.7071067811865475, 0.7071067811865475, 0.7071067811865476, -116.98981673661979, 382.8544909937229)" fill-opacity="1">menAubiCnapAnarZ-tlKO</text><text fill="rgb(68,68,68)" stroke="none" font-family="helvetica" font-size="12pt" font-style="normal" font-weight="normal" text-decoration="normal" x="237.48452758789062" y="338.83203125" text-anchor="start" dominant-baseline="alphabetic" transform="matrix(0.7071067811865476, -0.7071067811865475, 0.7071067811865475, 0.7071067811865476, -111.48730706027595, 396.1387244814415)" fill-opacity="1">menAubiCnarGnapA-tlKO</text><text fill="rgb(68,68,68)" stroke="none" font-family="helvetica" font-size="12pt" font-style="normal" font-weight="normal" text-decoration="normal" x="260.73797607421875" y="338.83203125" text-anchor="start" dominant-baseline="alphabetic" transform="matrix(0.7071067811865476, -0.7071067811865475, 0.7071067811865475, 0.7071067811865476, -105.98478844554029, 409.4229795483465)" fill-opacity="1">menAubiCnarGnarZ-tlKO</text><text fill="rgb(128,128,128)" stroke="none" font-family="helvetica" font-size="11px" font-style="normal" font-weight="bold" text-decoration="normal" x="74.80024528503418" y="495.01751638905046" text-anchor="start" dominant-baseline="alphabetic" transform="matrix(1, 0, 0, 1, 0.5, 0.5)" fill-opacity="1">PCA, DMSO</text><text fill="rgb(128,128,128)" stroke="none" font-family="helvetica" font-size="11px" font-style="normal" font-weight="bold" text-decoration="normal" x="199.9271945953369" y="495.01751638905046" text-anchor="start" dominant-baseline="alphabetic" transform="matrix(1, 0, 0, 1, 0.5, 0.5)" fill-opacity="1">PCA, Fum</text><text fill="rgb(128,128,128)" stroke="none" font-family="helvetica" font-size="11px" font-style="normal" font-weight="bold" text-decoration="normal" x="348.64264488220215" y="495.01751638905046" text-anchor="start" dominant-baseline="alphabetic" transform="matrix(1, 0, 0, 1, 0.5, 0.5)" fill-opacity="1">PCA, NO3</text><text fill="rgb(128,128,128)" stroke="none" font-family="helvetica" font-size="11px" font-style="normal" font-weight="bold" text-decoration="normal" x="492.174747467041" y="495.01751638905046" text-anchor="start" dominant-baseline="alphabetic" transform="matrix(1, 0, 0, 1, 0.5, 0.5)" fill-opacity="1">PCA, TMAO</text><path fill="none" stroke="rgb(211,211,211)" paint-order="fill" d="M 129.5 488.5 L 129.5 325.5 M 249.5 488.5 L 249.5 325.5 M 397.5 488.5 L 397.5 325.5" stroke-opacity="1" stroke-linejoin="bevel" stroke-miterlimit="10" stroke-width="2" stroke-dasharray=""/><path fill="none" stroke="rgb(0,0,0)" paint-order="fill" d="M 59.5 322.5 L 59.5 31.5" stroke-opacity="1" stroke-linejoin="bevel" stroke-miterlimit="10" stroke-dasharray=""/><path fill="none" stroke="rgb(0,0,0)" paint-order="fill" d="M 53.5 297.5 L 61.5 297.5 M 53.5 234.5 L 61.5 234.5 M 53.5 172.5 L 61.5 172.5 M 53.5 109.5 L 61.5 109.5 M 53.5 47.5 L 61.5 47.5" stroke-opacity="1" stroke-linejoin="bevel" stroke-miterlimit="10" stroke-dasharray=""/><path fill="none" stroke="rgb(0,0,0)" paint-order="fill" d="M 55.5 309.5 L 59.5 309.5 M 55.5 322.5 L 59.5 322.5 M 55.5 297.5 L 59.5 297.5 M 55.5 284.5 L 59.5 284.5 M 55.5 272.5 L 59.5 272.5 M 55.5 259.5 L 59.5 259.5 M 55.5 247.5 L 59.5 247.5 M 55.5 234.5 L 59.5 234.5 M 55.5 222.5 L 59.5 222.5 M 55.5 209.5 L 59.5 209.5 M 55.5 197.5 L 59.5 197.5 M 55.5 184.5 L 59.5 184.5 M 55.5 172.5 L 59.5 172.5 M 55.5 159.5 L 59.5 159.5 M 55.5 147.5 L 59.5 147.5 M 55.5 134.5 L 59.5 134.5 M 55.5 122.5 L 59.5 122.5 M 55.5 109.5 L 59.5 109.5 M 55.5 97.5 L 59.5 97.5 M 55.5 84.5 L 59.5 84.5 M 55.5 72.5 L 59.5 72.5 M 55.5 59.5 L 59.5 59.5 M 55.5 47.5 L 59.5 47.5 M 55.5 34.5 L 59.5 34.5" stroke-opacity="1" stroke-linejoin="bevel" stroke-miterlimit="10" stroke-dasharray=""/><text fill="rgb(68,68,68)" stroke="none" font-family="helvetica" font-size="12pt" font-style="normal" font-weight="normal" text-decoration="normal" x="39.10000038146973" y="302.5434875488281" text-anchor="start" dominant-baseline="alphabetic" transform="matrix(1, 0, 0, 1, 0.5, 0.5)" fill-opacity="1">0</text><text fill="rgb(68,68,68)" stroke="none" font-family="helvetica" font-size="12pt" font-style="normal" font-weight="normal" text-decoration="normal" x="30.200000762939453" y="240.07650756835938" text-anchor="start" dominant-baseline="alphabetic" transform="matrix(1, 0, 0, 1, 0.5, 0.5)" fill-opacity="1">10</text><text fill="rgb(68,68,68)" stroke="none" font-family="helvetica" font-size="12pt" font-style="normal" font-weight="normal" text-decoration="normal" x="30.200000762939453" y="177.60952758789062" text-anchor="start" dominant-baseline="alphabetic" transform="matrix(1, 0, 0, 1, 0.5, 0.5)" fill-opacity="1">20</text><text fill="rgb(68,68,68)" stroke="none" font-family="helvetica" font-size="12pt" font-style="normal" font-weight="normal" text-decoration="normal" x="30.200000762939453" y="115.14254760742188" text-anchor="start" dominant-baseline="alphabetic" transform="matrix(1, 0, 0, 1, 0.5, 0.5)" fill-opacity="1">30</text><text fill="rgb(68,68,68)" stroke="none" font-family="helvetica" font-size="12pt" font-style="normal" font-weight="normal" text-decoration="normal" x="30.200000762939453" y="52.675575256347656" text-anchor="start" dominant-baseline="alphabetic" transform="matrix(1, 0, 0, 1, 0.5, 0.5)" fill-opacity="1">40</text><text fill="rgb(68,68,68)" stroke="none" font-family="helvetica" font-size="12pt" font-style="italic" font-weight="normal" text-decoration="normal" x="-128.7083396911621" y="172.9609375" text-anchor="start" dominant-baseline="alphabetic" transform="matrix(6.123233995736766e-17, -1, 1, 6.123233995736766e-17, -153.79999923706055, 199.20000076293945)" fill-opacity="1">Time to 50% max [PCAred] from max (hrs)</text><path fill="none" stroke="none"/><text fill="rgb(68,68,68)" stroke="none" font-family="helvetica" font-size="12pt" font-style="normal" font-weight="bold" text-decoration="normal" x="0" y="0" text-anchor="start" dominant-baseline="text-after-edge" transform="matrix(1, 0, 0, 1, 59.5, 26.5)" fill-opacity="1">Quinone knockouts</text></svg>