<svg version="1.1" xmlns="http://www.w3.org/2000/svg" xmlns:xlink="http://www.w3.org/1999/xlink" width="500" height="300"><defs><clipPath id="FpAStcSNSzhe"><path fill="none" stroke="none" d="M 56.5 5.5 L 470.5 5.5 L 470.5 167.5 L 56.5 167.5 L 56.5 5.5"/></clipPath><clipPath id="NkuTKgqhLhUR"><path fill="none" stroke="none" d="M 56.5 5.5 L 470.5 5.5 L 470.5 167.5 L 56.5 167.5 L 56.5 5.5"/></clipPath><clipPath id="ZtFhUMyvERer"><path fill="none" stroke="none" d="M 56.5 5.5 L 470.5 5.5 L 470.5 167.5 L 56.5 167.5 L 56.5 5.5"/></clipPath><clipPath id="gvTNxnzAKvPH"><path fill="none" stroke="none" d="M 56.5 5.5 L 470.5 5.5 L 470.5 167.5 L 56.5 167.5 L 56.5 5.5"/></clipPath><clipPath id="yhPlFimzpKTs"><path fill="none" stroke="none" d="M 56.5 5.5 L 470.5 5.5 L 470.5 167.5 L 56.5 167.5 L 56.5 5.5"/></clipPath></defs><path fill="rgb(255,255,255)" stroke="none" paint-order="stroke" d="M 0.5 0.5 L 500.5 0.5 L 500.5 300.5 L 0.5 300.5 L 0.5 0.5" fill-opacity="1"/><rect fill="#FFFFFF" stroke="none" x="56" y="5" width="414" height="162" transform="matrix(1, 0, 0, 1, 0.5, 0.5)"/><path fill="rgb(255,255,255)" stroke="none" paint-order="stroke" d="M 56.5 5.5 L 470.5 5.5 L 470.5 167.5 L 56.5 167.5 L 56.5 5.5" fill-opacity="1"/><path fill="none" stroke="rgb(229,229,229)" paint-order="fill" d="M 56.5 5.5 L 470.5 5.5 L 470.5 167.5 L 56.5 167.5 L 56.5 5.5" stroke-opacity="1" stroke-linejoin="bevel" stroke-miterlimit="10" stroke-dasharray=""/><path fill="none" stroke="rgb(229,229,229)" paint-order="fill" d="M 56.5 153.5 L 470.5 153.5 M 56.5 129.5 L 470.5 129.5 M 56.5 105.5 L 470.5 105.5 M 56.5 82.5 L 470.5 82.5 M 56.5 58.5 L 470.5 58.5 M 56.5 34.5 L 470.5 34.5 M 56.5 10.5 L 470.5 10.5" stroke-opacity="1" stroke-linejoin="bevel" stroke-miterlimit="10" stroke-dasharray="" clip-path="url(#NkuTKgqhLhUR)"/><path fill="none" stroke="none"/><path fill="none" stroke="none"/><path fill="rgb(44,160,44)" stroke="rgb(0,0,0)" paint-order="fill" d="M 286.9876708984375 141.34217834472656 L 296.9876708984375 141.34217834472656 L 296.9876708984375 151.34217834472656 L 286.9876708984375 151.34217834472656 L 286.9876708984375 141.34217834472656" fill-opacity="1" clip-path="url(#gvTNxnzAKvPH)" stroke-opacity="0.7019607843137254" stroke-linejoin="bevel" stroke-miterlimit="10" stroke-width="2" stroke-dasharray=""/><path fill="rgb(152,223,138)" stroke="rgb(0,0,0)" paint-order="fill" d="M 315.5010681152344 140.7478485107422 L 325.5010681152344 140.7478485107422 L 325.5010681152344 150.7478485107422 L 315.5010681152344 150.7478485107422 L 315.5010681152344 140.7478485107422" fill-opacity="1" clip-path="url(#gvTNxnzAKvPH)" stroke-opacity="0.7019607843137254" stroke-linejoin="bevel" stroke-miterlimit="10" stroke-width="2" stroke-dasharray=""/><path fill="rgb(44,160,44)" stroke="rgb(0,0,0)" paint-order="fill" d="M 288.16094970703125 143.71945190429688 L 298.16094970703125 143.71945190429688 L 298.16094970703125 153.71945190429688 L 288.16094970703125 153.71945190429688 L 288.16094970703125 143.71945190429688" fill-opacity="1" clip-path="url(#gvTNxnzAKvPH)" stroke-opacity="0.7019607843137254" stroke-linejoin="bevel" stroke-miterlimit="10" stroke-width="2" stroke-dasharray=""/><path fill="rgb(152,223,138)" stroke="rgb(0,0,0)" paint-order="fill" d="M 88.37196350097656 8.214285850524902 L 98.37196350097656 8.214285850524902 L 98.37196350097656 18.214285850524902 L 88.37196350097656 18.214285850524902 L 88.37196350097656 8.214285850524902" fill-opacity="1" clip-path="url(#gvTNxnzAKvPH)" stroke-opacity="0.7019607843137254" stroke-linejoin="bevel" stroke-miterlimit="10" stroke-width="2" stroke-dasharray=""/><path fill="rgb(152,223,138)" stroke="rgb(0,0,0)" paint-order="fill" d="M 318.90484619140625 143.71945190429688 L 328.90484619140625 143.71945190429688 L 328.90484619140625 153.71945190429688 L 318.90484619140625 153.71945190429688 L 318.90484619140625 143.71945190429688" fill-opacity="1" clip-path="url(#gvTNxnzAKvPH)" stroke-opacity="0.7019607843137254" stroke-linejoin="bevel" stroke-miterlimit="10" stroke-width="2" stroke-dasharray=""/><path fill="rgb(31,119,180)" stroke="rgb(0,0,0)" paint-order="fill" d="M 347.06103515625 140.7478485107422 L 357.06103515625 140.7478485107422 L 357.06103515625 150.7478485107422 L 347.06103515625 150.7478485107422 L 347.06103515625 140.7478485107422" fill-opacity="1" clip-path="url(#gvTNxnzAKvPH)" stroke-opacity="0.7019607843137254" stroke-linejoin="bevel" stroke-miterlimit="10" stroke-width="2" stroke-dasharray=""/><path fill="rgb(31,119,180)" stroke="rgb(0,0,0)" paint-order="fill" d="M 343.5147705078125 143.71945190429688 L 353.5147705078125 143.71945190429688 L 353.5147705078125 153.71945190429688 L 343.5147705078125 153.71945190429688 L 343.5147705078125 143.71945190429688" fill-opacity="1" clip-path="url(#gvTNxnzAKvPH)" stroke-opacity="0.7019607843137254" stroke-linejoin="bevel" stroke-miterlimit="10" stroke-width="2" stroke-dasharray=""/><path fill="rgb(174,199,232)" stroke="rgb(0,0,0)" paint-order="fill" d="M 148.56248474121094 87.25778198242188 L 158.56248474121094 87.25778198242188 L 158.56248474121094 97.25778198242188 L 148.56248474121094 97.25778198242188 L 148.56248474121094 87.25778198242188" fill-opacity="1" clip-path="url(#gvTNxnzAKvPH)" stroke-opacity="0.7019607843137254" stroke-linejoin="bevel" stroke-miterlimit="10" stroke-width="2" stroke-dasharray=""/><path fill="rgb(174,199,232)" stroke="rgb(0,0,0)" paint-order="fill" d="M 370.71917724609375 137.1819305419922 L 380.71917724609375 137.1819305419922 L 380.71917724609375 147.1819305419922 L 370.71917724609375 147.1819305419922 L 370.71917724609375 137.1819305419922" fill-opacity="1" clip-path="url(#gvTNxnzAKvPH)" stroke-opacity="0.7019607843137254" stroke-linejoin="bevel" stroke-miterlimit="10" stroke-width="2" stroke-dasharray=""/><path fill="rgb(174,199,232)" stroke="rgb(0,0,0)" paint-order="fill" d="M 144.87017822265625 95.57827758789062 L 154.87017822265625 95.57827758789062 L 154.87017822265625 105.57827758789062 L 144.87017822265625 105.57827758789062 L 144.87017822265625 95.57827758789062" fill-opacity="1" clip-path="url(#gvTNxnzAKvPH)" stroke-opacity="0.7019607843137254" stroke-linejoin="bevel" stroke-miterlimit="10" stroke-width="2" stroke-dasharray=""/><path fill="rgb(174,199,232)" stroke="rgb(0,0,0)" paint-order="fill" d="M 369.0047302246094 128.86024475097656 L 379.0047302246094 128.86024475097656 L 379.0047302246094 138.86024475097656 L 369.0047302246094 138.86024475097656 L 369.0047302246094 128.86024475097656" fill-opacity="1" clip-path="url(#gvTNxnzAKvPH)" stroke-opacity="0.7019607843137254" stroke-linejoin="bevel" stroke-miterlimit="10" stroke-width="2" stroke-dasharray=""/><path fill="rgb(214,39,40)" stroke="rgb(0,0,0)" paint-order="fill" d="M 175.49317932128906 89.63506317138672 L 185.49317932128906 89.63506317138672 L 185.49317932128906 99.63506317138672 L 175.49317932128906 99.63506317138672 L 175.49317932128906 89.63506317138672" fill-opacity="1" clip-path="url(#gvTNxnzAKvPH)" stroke-opacity="0.7019607843137254" stroke-linejoin="bevel" stroke-miterlimit="10" stroke-width="2" stroke-dasharray=""/><path fill="rgb(214,39,40)" stroke="rgb(0,0,0)" paint-order="fill" d="M 399.75042724609375 137.7762451171875 L 409.75042724609375 137.7762451171875 L 409.75042724609375 147.7762451171875 L 399.75042724609375 147.7762451171875 L 399.75042724609375 137.7762451171875" fill-opacity="1" clip-path="url(#gvTNxnzAKvPH)" stroke-opacity="0.7019607843137254" stroke-linejoin="bevel" stroke-miterlimit="10" stroke-width="2" stroke-dasharray=""/><path fill="rgb(214,39,40)" stroke="rgb(0,0,0)" paint-order="fill" d="M 171.53504943847656 20.69621467590332 L 181.53504943847656 20.69621467590332 L 181.53504943847656 30.69621467590332 L 171.53504943847656 30.69621467590332 L 171.53504943847656 20.69621467590332" fill-opacity="1" clip-path="url(#gvTNxnzAKvPH)" stroke-opacity="0.7019607843137254" stroke-linejoin="bevel" stroke-miterlimit="10" stroke-width="2" stroke-dasharray=""/><path fill="rgb(214,39,40)" stroke="rgb(0,0,0)" paint-order="fill" d="M 398.2193908691406 143.71945190429688 L 408.2193908691406 143.71945190429688 L 408.2193908691406 153.71945190429688 L 398.2193908691406 153.71945190429688 L 398.2193908691406 143.71945190429688" fill-opacity="1" clip-path="url(#gvTNxnzAKvPH)" stroke-opacity="0.7019607843137254" stroke-linejoin="bevel" stroke-miterlimit="10" stroke-width="2" stroke-dasharray=""/><path fill="rgb(255,127,14)" stroke="rgb(0,0,0)" paint-order="fill" d="M 200.73817443847656 125.29432678222656 L 210.73817443847656 125.29432678222656 L 210.73817443847656 135.29432678222656 L 200.73817443847656 135.29432678222656 L 200.73817443847656 125.29432678222656" fill-opacity="1" clip-path="url(#gvTNxnzAKvPH)" stroke-opacity="0.7019607843137254" stroke-linejoin="bevel" stroke-miterlimit="10" stroke-width="2" stroke-dasharray=""/><path fill="rgb(255,127,14)" stroke="rgb(0,0,0)" paint-order="fill" d="M 423.57275390625 137.7762451171875 L 433.57275390625 137.7762451171875 L 433.57275390625 147.7762451171875 L 423.57275390625 147.7762451171875 L 423.57275390625 137.7762451171875" fill-opacity="1" clip-path="url(#gvTNxnzAKvPH)" stroke-opacity="0.7019607843137254" stroke-linejoin="bevel" stroke-miterlimit="10" stroke-width="2" stroke-dasharray=""/><path fill="rgb(255,127,14)" stroke="rgb(0,0,0)" paint-order="fill" d="M 196.64651489257812 140.7478485107422 L 206.64651489257812 140.7478485107422 L 206.64651489257812 150.7478485107422 L 196.64651489257812 150.7478485107422 L 196.64651489257812 140.7478485107422" fill-opacity="1" clip-path="url(#gvTNxnzAKvPH)" stroke-opacity="0.7019607843137254" stroke-linejoin="bevel" stroke-miterlimit="10" stroke-width="2" stroke-dasharray=""/><path fill="rgb(255,127,14)" stroke="rgb(0,0,0)" paint-order="fill" d="M 425.49554443359375 139.55921936035156 L 435.49554443359375 139.55921936035156 L 435.49554443359375 149.55921936035156 L 425.49554443359375 149.55921936035156 L 425.49554443359375 139.55921936035156" fill-opacity="1" clip-path="url(#gvTNxnzAKvPH)" stroke-opacity="0.7019607843137254" stroke-linejoin="bevel" stroke-miterlimit="10" stroke-width="2" stroke-dasharray=""/><path fill="rgb(255,187,120)" stroke="rgb(0,0,0)" paint-order="fill" d="M 227.81329345703125 125.29432678222656 L 237.81329345703125 125.29432678222656 L 237.81329345703125 135.29432678222656 L 227.81329345703125 135.29432678222656 L 227.81329345703125 125.29432678222656" fill-opacity="1" clip-path="url(#gvTNxnzAKvPH)" stroke-opacity="0.7019607843137254" stroke-linejoin="bevel" stroke-miterlimit="10" stroke-width="2" stroke-dasharray=""/><path fill="rgb(255,187,120)" stroke="rgb(0,0,0)" paint-order="fill" d="M 453.75628662109375 137.1819305419922 L 463.75628662109375 137.1819305419922 L 463.75628662109375 147.1819305419922 L 453.75628662109375 147.1819305419922 L 453.75628662109375 137.1819305419922" fill-opacity="1" clip-path="url(#gvTNxnzAKvPH)" stroke-opacity="0.7019607843137254" stroke-linejoin="bevel" stroke-miterlimit="10" stroke-width="2" stroke-dasharray=""/><path fill="rgb(255,187,120)" stroke="rgb(0,0,0)" paint-order="fill" d="M 226.86489868164062 140.7478485107422 L 236.86489868164062 140.7478485107422 L 236.86489868164062 150.7478485107422 L 226.86489868164062 150.7478485107422 L 226.86489868164062 140.7478485107422" fill-opacity="1" clip-path="url(#gvTNxnzAKvPH)" stroke-opacity="0.7019607843137254" stroke-linejoin="bevel" stroke-miterlimit="10" stroke-width="2" stroke-dasharray=""/><path fill="rgb(255,187,120)" stroke="rgb(0,0,0)" paint-order="fill" d="M 451.6108703613281 138.9648895263672 L 461.6108703613281 138.9648895263672 L 461.6108703613281 148.9648895263672 L 451.6108703613281 148.9648895263672 L 451.6108703613281 138.9648895263672" fill-opacity="1" clip-path="url(#gvTNxnzAKvPH)" stroke-opacity="0.7019607843137254" stroke-linejoin="bevel" stroke-miterlimit="10" stroke-width="2" stroke-dasharray=""/><path fill="none" stroke="rgb(0,0,0)" paint-order="fill" d="M 56.5 167.5 L 470.5 167.5" stroke-opacity="1" stroke-linejoin="bevel" stroke-miterlimit="10" stroke-dasharray=""/><path fill="none" stroke="rgb(0,0,0)" paint-order="fill" d="M 69.5 173.5 L 69.5 165.5 M 295.5 173.5 L 295.5 165.5 M 96.5 173.5 L 96.5 165.5 M 322.5 173.5 L 322.5 165.5 M 123.5 173.5 L 123.5 165.5 M 349.5 173.5 L 349.5 165.5 M 150.5 173.5 L 150.5 165.5 M 376.5 173.5 L 376.5 165.5 M 177.5 173.5 L 177.5 165.5 M 403.5 173.5 L 403.5 165.5 M 204.5 173.5 L 204.5 165.5 M 430.5 173.5 L 430.5 165.5 M 231.5 173.5 L 231.5 165.5 M 457.5 173.5 L 457.5 165.5" stroke-opacity="1" stroke-linejoin="bevel" stroke-miterlimit="10" stroke-dasharray=""/><path fill="none" stroke="rgb(0,0,0)" paint-order="fill" d="" stroke-opacity="1" stroke-linejoin="bevel" stroke-miterlimit="10" stroke-dasharray=""/><text fill="rgb(68,68,68)" stroke="none" font-family="helvetica" font-size="11px" font-style="normal" font-weight="normal" text-decoration="normal" x="26.058223724365234" y="182.009521484375" text-anchor="start" dominant-baseline="alphabetic" transform="matrix(0.7071067811865476, -0.7071067811865475, 0.7071067811865475, 0.7071067811865476, -105.0260453637519, 101.73759009923162)" fill-opacity="1">PhzOx A</text><text fill="rgb(68,68,68)" stroke="none" font-family="helvetica" font-size="11px" font-style="normal" font-weight="normal" text-decoration="normal" x="251.87639999389648" y="182.009521484375" text-anchor="start" dominant-baseline="alphabetic" transform="matrix(0.7071067811865476, -0.7071067811865475, 0.7071067811865475, 0.7071067811865476, -38.8854328495853, 261.41515385459627)" fill-opacity="1">PhzOx A</text><text fill="rgb(68,68,68)" stroke="none" font-family="helvetica" font-size="11px" font-style="normal" font-weight="normal" text-decoration="normal" x="52.324676513671875" y="182.009521484375" text-anchor="start" dominant-baseline="alphabetic" transform="matrix(0.7071067811865476, -0.7071067811865475, 0.7071067811865475, 0.7071067811865476, -97.15216249595153, 120.74682490721248)" fill-opacity="1">PhzOx C</text><text fill="rgb(68,68,68)" stroke="none" font-family="helvetica" font-size="11px" font-style="normal" font-weight="normal" text-decoration="normal" x="278.1428527832031" y="182.009521484375" text-anchor="start" dominant-baseline="alphabetic" transform="matrix(0.7071067811865476, -0.7071067811865475, 0.7071067811865475, 0.7071067811865476, -31.011549981784924, 280.42438866257714)" fill-opacity="1">PhzOx C</text><text fill="rgb(68,68,68)" stroke="none" font-family="helvetica" font-size="11px" font-style="normal" font-weight="normal" text-decoration="normal" x="69.40779495239258" y="182.009521484375" text-anchor="start" dominant-baseline="alphabetic" transform="matrix(0.7071067811865476, -0.7071067811865475, 0.7071067811865475, 0.7071067811865476, -89.27827962815115, 139.75605971519332)" fill-opacity="1">Citrobacter</text><text fill="rgb(68,68,68)" stroke="none" font-family="helvetica" font-size="11px" font-style="normal" font-weight="normal" text-decoration="normal" x="295.2259712219238" y="182.009521484375" text-anchor="start" dominant-baseline="alphabetic" transform="matrix(0.7071067811865476, -0.7071067811865475, 0.7071067811865475, 0.7071067811865476, -23.13766711398455, 299.43362347055796)" fill-opacity="1">Citrobacter</text><text fill="rgb(68,68,68)" stroke="none" font-family="helvetica" font-size="11px" font-style="normal" font-weight="normal" text-decoration="normal" x="83.6242446899414" y="182.009521484375" text-anchor="start" dominant-baseline="alphabetic" transform="matrix(0.7071067811865476, -0.7071067811865475, 0.7071067811865475, 0.7071067811865476, -81.40439676035078, 158.7652945231742)" fill-opacity="1">P. aeruginosa</text><text fill="rgb(68,68,68)" stroke="none" font-family="helvetica" font-size="11px" font-style="normal" font-weight="normal" text-decoration="normal" x="309.44242095947266" y="182.009521484375" text-anchor="start" dominant-baseline="alphabetic" transform="matrix(0.7071067811865476, -0.7071067811865475, 0.7071067811865475, 0.7071067811865476, -15.263784246184173, 318.44285827853884)" fill-opacity="1">P. aeruginosa</text><text fill="rgb(68,68,68)" stroke="none" font-family="helvetica" font-size="11px" font-style="normal" font-weight="normal" text-decoration="normal" x="55.29069519042969" y="182.009521484375" text-anchor="start" dominant-baseline="alphabetic" transform="matrix(0.7071067811865476, -0.7071067811865475, 0.7071067811865475, 0.7071067811865476, -73.53051389255037, 177.77452933115507)" fill-opacity="1">Pseudogulbenkiania MAI</text><text fill="rgb(68,68,68)" stroke="none" font-family="helvetica" font-size="11px" font-style="normal" font-weight="normal" text-decoration="normal" x="281.10887145996094" y="182.009521484375" text-anchor="start" dominant-baseline="alphabetic" transform="matrix(0.7071067811865476, -0.7071067811865475, 0.7071067811865475, 0.7071067811865476, -7.389901378383797, 337.4520930865197)" fill-opacity="1">Pseudogulbenkiania MAI</text><text fill="rgb(68,68,68)" stroke="none" font-family="helvetica" font-size="11px" font-style="normal" font-weight="normal" text-decoration="normal" x="88.490478515625" y="182.009521484375" text-anchor="start" dominant-baseline="alphabetic" transform="matrix(0.7071067811865476, -0.7071067811865475, 0.7071067811865475, 0.7071067811865476, -65.65663102474997, 196.78376413913594)" fill-opacity="1">P. nitroreducens pointer</text><text fill="rgb(68,68,68)" stroke="none" font-family="helvetica" font-size="11px" font-style="normal" font-weight="normal" text-decoration="normal" x="314.30865478515625" y="182.009521484375" text-anchor="start" dominant-baseline="alphabetic" transform="matrix(0.7071067811865476, -0.7071067811865475, 0.7071067811865475, 0.7071067811865476, 0.48398148941657837, 356.4613278945006)" fill-opacity="1">P. nitroreducens pointer</text><text fill="rgb(68,68,68)" stroke="none" font-family="helvetica" font-size="11px" font-style="normal" font-weight="normal" text-decoration="normal" x="105.59026336669922" y="182.009521484375" text-anchor="start" dominant-baseline="alphabetic" transform="matrix(0.7071067811865476, -0.7071067811865475, 0.7071067811865475, 0.7071067811865476, -57.782748156949594, 215.79299894711676)" fill-opacity="1">P. nitroreducens spreader</text><text fill="rgb(68,68,68)" stroke="none" font-family="helvetica" font-size="11px" font-style="normal" font-weight="normal" text-decoration="normal" x="331.40843963623047" y="182.009521484375" text-anchor="start" dominant-baseline="alphabetic" transform="matrix(0.7071067811865476, -0.7071067811865475, 0.7071067811865475, 0.7071067811865476, 8.35786435721701, 375.4705627024814)" fill-opacity="1">P. nitroreducens spreader</text><text fill="rgb(128,128,128)" stroke="none" font-family="helvetica" font-size="11px" font-style="normal" font-weight="bold" text-decoration="normal" x="124.11591148376465" y="294.1920909401256" text-anchor="start" dominant-baseline="alphabetic" transform="matrix(1, 0, 0, 1, 0.5, 0.5)" fill-opacity="1">PCA, NO2</text><text fill="rgb(128,128,128)" stroke="none" font-family="helvetica" font-size="11px" font-style="normal" font-weight="bold" text-decoration="normal" x="349.9340877532959" y="294.1920909401256" text-anchor="start" dominant-baseline="alphabetic" transform="matrix(1, 0, 0, 1, 0.5, 0.5)" fill-opacity="1">PCA, NO3</text><path fill="none" stroke="rgb(211,211,211)" paint-order="fill" d="M 182.5 288.5 L 182.5 170.5" stroke-opacity="1" stroke-linejoin="bevel" stroke-miterlimit="10" stroke-width="2" stroke-dasharray=""/><path fill="none" stroke="rgb(0,0,0)" paint-order="fill" d="M 56.5 167.5 L 56.5 5.5" stroke-opacity="1" stroke-linejoin="bevel" stroke-miterlimit="10" stroke-dasharray=""/><path fill="none" stroke="rgb(0,0,0)" paint-order="fill" d="M 50.5 153.5 L 58.5 153.5 M 50.5 129.5 L 58.5 129.5 M 50.5 105.5 L 58.5 105.5 M 50.5 82.5 L 58.5 82.5 M 50.5 58.5 L 58.5 58.5 M 50.5 34.5 L 58.5 34.5 M 50.5 10.5 L 58.5 10.5" stroke-opacity="1" stroke-linejoin="bevel" stroke-miterlimit="10" stroke-dasharray=""/><path fill="none" stroke="rgb(0,0,0)" paint-order="fill" d="M 52.5 158.5 L 56.5 158.5 M 52.5 162.5 L 56.5 162.5 M 52.5 153.5 L 56.5 153.5 M 52.5 148.5 L 56.5 148.5 M 52.5 143.5 L 56.5 143.5 M 52.5 139.5 L 56.5 139.5 M 52.5 134.5 L 56.5 134.5 M 52.5 129.5 L 56.5 129.5 M 52.5 124.5 L 56.5 124.5 M 52.5 120.5 L 56.5 120.5 M 52.5 115.5 L 56.5 115.5 M 52.5 110.5 L 56.5 110.5 M 52.5 105.5 L 56.5 105.5 M 52.5 101.5 L 56.5 101.5 M 52.5 96.5 L 56.5 96.5 M 52.5 91.5 L 56.5 91.5 M 52.5 86.5 L 56.5 86.5 M 52.5 82.5 L 56.5 82.5 M 52.5 77.5 L 56.5 77.5 M 52.5 72.5 L 56.5 72.5 M 52.5 67.5 L 56.5 67.5 M 52.5 63.5 L 56.5 63.5 M 52.5 58.5 L 56.5 58.5 M 52.5 53.5 L 56.5 53.5 M 52.5 48.5 L 56.5 48.5 M 52.5 44.5 L 56.5 44.5 M 52.5 39.5 L 56.5 39.5 M 52.5 34.5 L 56.5 34.5 M 52.5 29.5 L 56.5 29.5 M 52.5 25.5 L 56.5 25.5 M 52.5 20.5 L 56.5 20.5 M 52.5 15.5 L 56.5 15.5 M 52.5 10.5 L 56.5 10.5 M 52.5 6.5 L 56.5 6.5" stroke-opacity="1" stroke-linejoin="bevel" stroke-miterlimit="10" stroke-dasharray=""/><text fill="rgb(68,68,68)" stroke="none" font-family="helvetica" font-size="11px" font-style="normal" font-weight="normal" text-decoration="normal" x="38.88333320617676" y="156.91909790039062" text-anchor="start" dominant-baseline="alphabetic" transform="matrix(1, 0, 0, 1, 0.5, 0.5)" fill-opacity="1">0</text><text fill="rgb(68,68,68)" stroke="none" font-family="helvetica" font-size="11px" font-style="normal" font-weight="normal" text-decoration="normal" x="32.766666412353516" y="133.14625549316406" text-anchor="start" dominant-baseline="alphabetic" transform="matrix(1, 0, 0, 1, 0.5, 0.5)" fill-opacity="1">20</text><text fill="rgb(68,68,68)" stroke="none" font-family="helvetica" font-size="11px" font-style="normal" font-weight="normal" text-decoration="normal" x="32.766666412353516" y="109.37342071533203" text-anchor="start" dominant-baseline="alphabetic" transform="matrix(1, 0, 0, 1, 0.5, 0.5)" fill-opacity="1">40</text><text fill="rgb(68,68,68)" stroke="none" font-family="helvetica" font-size="11px" font-style="normal" font-weight="normal" text-decoration="normal" x="32.766666412353516" y="85.6005859375" text-anchor="start" dominant-baseline="alphabetic" transform="matrix(1, 0, 0, 1, 0.5, 0.5)" fill-opacity="1">60</text><text fill="rgb(68,68,68)" stroke="none" font-family="helvetica" font-size="11px" font-style="normal" font-weight="normal" text-decoration="normal" x="32.766666412353516" y="61.82774353027344" text-anchor="start" dominant-baseline="alphabetic" transform="matrix(1, 0, 0, 1, 0.5, 0.5)" fill-opacity="1">80</text><text fill="rgb(68,68,68)" stroke="none" font-family="helvetica" font-size="11px" font-style="normal" font-weight="normal" text-decoration="normal" x="26.649999618530273" y="38.054908752441406" text-anchor="start" dominant-baseline="alphabetic" transform="matrix(1, 0, 0, 1, 0.5, 0.5)" fill-opacity="1">100</text><text fill="rgb(68,68,68)" stroke="none" font-family="helvetica" font-size="11px" font-style="normal" font-weight="normal" text-decoration="normal" x="26.649999618530273" y="14.28207015991211" text-anchor="start" dominant-baseline="alphabetic" transform="matrix(1, 0, 0, 1, 0.5, 0.5)" fill-opacity="1">120</text><text fill="rgb(68,68,68)" stroke="none" font-family="helvetica" font-size="13px" font-style="italic" font-weight="normal" text-decoration="normal" x="-102.18333625793457" y="83.12451171875" text-anchor="start" dominant-baseline="alphabetic" transform="matrix(6.123233995736766e-17, -1, 1, 6.123233995736766e-17, -66.85000038146973, 105.14999961853027)" fill-opacity="1">Time to 50% of max PCAred fluorescence</text></svg>