<svg version="1.1" xmlns="http://www.w3.org/2000/svg" xmlns:xlink="http://www.w3.org/1999/xlink" width="300" height="500"><defs><clipPath id="zJTJBDlBWgcG"><path fill="none" stroke="none" d="M 59.5 31.5 L 270.5 31.5 L 270.5 329.5 L 59.5 329.5 L 59.5 31.5"/></clipPath><clipPath id="nxZDWdDnhJIz"><path fill="none" stroke="none" d="M 59.5 31.5 L 270.5 31.5 L 270.5 329.5 L 59.5 329.5 L 59.5 31.5"/></clipPath><clipPath id="HXyHsOUITEHV"><path fill="none" stroke="none" d="M 59.5 31.5 L 270.5 31.5 L 270.5 329.5 L 59.5 329.5 L 59.5 31.5"/></clipPath><clipPath id="iJroVVoMTdSy"><path fill="none" stroke="none" d="M 59.5 31.5 L 270.5 31.5 L 270.5 329.5 L 59.5 329.5 L 59.5 31.5"/></clipPath><clipPath id="cRoFxRvLLSsa"><path fill="none" stroke="none" d="M 59.5 31.5 L 270.5 31.5 L 270.5 329.5 L 59.5 329.5 L 59.5 31.5"/></clipPath></defs><path fill="rgb(255,255,255)" stroke="none" paint-order="stroke" d="M 0.5 0.5 L 300.5 0.5 L 300.5 500.5 L 0.5 500.5 L 0.5 0.5" fill-opacity="1"/><rect fill="#FFFFFF" stroke="none" x="59" y="31" width="211" height="298" transform="matrix(1, 0, 0, 1, 0.5, 0.5)"/><path fill="rgb(255,255,255)" stroke="none" paint-order="stroke" d="M 59.5 31.5 L 270.5 31.5 L 270.5 329.5 L 59.5 329.5 L 59.5 31.5" fill-opacity="1"/><path fill="none" stroke="rgb(229,229,229)" paint-order="fill" d="M 59.5 31.5 L 270.5 31.5 L 270.5 329.5 L 59.5 329.5 L 59.5 31.5" stroke-opacity="1" stroke-linejoin="bevel" stroke-miterlimit="10" stroke-dasharray=""/><path fill="none" stroke="rgb(229,229,229)" paint-order="fill" d="M 59.5 303.5 L 270.5 303.5 M 59.5 265.5 L 270.5 265.5 M 59.5 227.5 L 270.5 227.5 M 59.5 189.5 L 270.5 189.5 M 59.5 151.5 L 270.5 151.5 M 59.5 112.5 L 270.5 112.5 M 59.5 74.5 L 270.5 74.5 M 59.5 36.5 L 270.5 36.5" stroke-opacity="1" stroke-linejoin="bevel" stroke-miterlimit="10" stroke-dasharray="" clip-path="url(#nxZDWdDnhJIz)"/><path fill="none" stroke="none"/><path fill="rgb(174,199,232)" stroke="rgb(0,0,0)" paint-order="fill" d="M 78.34358978271484 112.73534393310547 A 5 5 0 1 1 78.34358728271505 112.7303439339388" fill-opacity="1" clip-path="url(#HXyHsOUITEHV)" stroke-opacity="0.7019607843137254" stroke-linejoin="bevel" stroke-miterlimit="10" stroke-width="2" stroke-dasharray=""/><path fill="rgb(174,199,232)" stroke="rgb(0,0,0)" paint-order="fill" d="M 82.05859375 170.6435546875 A 5 5 0 1 1 82.0585912500002 170.63855468833333" fill-opacity="1" clip-path="url(#HXyHsOUITEHV)" stroke-opacity="0.7019607843137254" stroke-linejoin="bevel" stroke-miterlimit="10" stroke-width="2" stroke-dasharray=""/><path fill="rgb(174,199,232)" stroke="rgb(0,0,0)" paint-order="fill" d="M 83.32030487060547 170.4199981689453 A 5 5 0 1 1 83.32030237060567 170.41499816977864" fill-opacity="1" clip-path="url(#HXyHsOUITEHV)" stroke-opacity="0.7019607843137254" stroke-linejoin="bevel" stroke-miterlimit="10" stroke-width="2" stroke-dasharray=""/><path fill="rgb(174,199,232)" stroke="rgb(0,0,0)" paint-order="fill" d="M 77.00686645507812 111.2805404663086 A 5 5 0 1 1 77.00686395507833 111.27554046714192" fill-opacity="1" clip-path="url(#HXyHsOUITEHV)" stroke-opacity="0.7019607843137254" stroke-linejoin="bevel" stroke-miterlimit="10" stroke-width="2" stroke-dasharray=""/><path fill="rgb(174,199,232)" stroke="rgb(0,0,0)" paint-order="fill" d="M 78.3470458984375 109.02130126953125 A 5 5 0 1 1 78.3470433984377 109.01630127036458" fill-opacity="1" clip-path="url(#HXyHsOUITEHV)" stroke-opacity="0.7019607843137254" stroke-linejoin="bevel" stroke-miterlimit="10" stroke-width="2" stroke-dasharray=""/><path fill="rgb(174,199,232)" stroke="rgb(0,0,0)" paint-order="fill" d="M 79.10903930664062 108.96930694580078 A 5 5 0 1 1 79.10903680664083 108.96430694663411" fill-opacity="1" clip-path="url(#HXyHsOUITEHV)" stroke-opacity="0.7019607843137254" stroke-linejoin="bevel" stroke-miterlimit="10" stroke-width="2" stroke-dasharray=""/><path fill="rgb(174,199,232)" stroke="rgb(0,0,0)" paint-order="fill" d="M 76.99835205078125 123.03522491455078 A 5 5 0 1 1 76.99834955078146 123.03022491538411" fill-opacity="1" clip-path="url(#HXyHsOUITEHV)" stroke-opacity="0.7019607843137254" stroke-linejoin="bevel" stroke-miterlimit="10" stroke-width="2" stroke-dasharray=""/><path fill="rgb(174,199,232)" stroke="rgb(0,0,0)" paint-order="fill" d="M 81.43780517578125 144.47882080078125 A 5 5 0 1 1 81.43780267578146 144.47382080161458" fill-opacity="1" clip-path="url(#HXyHsOUITEHV)" stroke-opacity="0.7019607843137254" stroke-linejoin="bevel" stroke-miterlimit="10" stroke-width="2" stroke-dasharray=""/><path fill="rgb(174,199,232)" stroke="rgb(0,0,0)" paint-order="fill" d="M 76.14862060546875 102.79230499267578 A 5 5 0 1 1 76.14861810546896 102.78730499350911" fill-opacity="1" clip-path="url(#HXyHsOUITEHV)" stroke-opacity="0.7019607843137254" stroke-linejoin="bevel" stroke-miterlimit="10" stroke-width="2" stroke-dasharray=""/><path fill="rgb(255,187,120)" stroke="rgb(0,0,0)" paint-order="fill" d="M 143.8618927001953 290.55950927734375 A 5 5 0 1 1 143.86189020019552 290.5545092781771" fill-opacity="1" clip-path="url(#HXyHsOUITEHV)" stroke-opacity="0.7019607843137254" stroke-linejoin="bevel" stroke-miterlimit="10" stroke-width="2" stroke-dasharray=""/><path fill="rgb(255,187,120)" stroke="rgb(0,0,0)" paint-order="fill" d="M 143.61300659179688 289.4931640625 A 5 5 0 1 1 143.61300409179708 289.48816406333333" fill-opacity="1" clip-path="url(#HXyHsOUITEHV)" stroke-opacity="0.7019607843137254" stroke-linejoin="bevel" stroke-miterlimit="10" stroke-width="2" stroke-dasharray=""/><path fill="rgb(255,187,120)" stroke="rgb(0,0,0)" paint-order="fill" d="M 143.3066864013672 292.82293701171875 A 5 5 0 1 1 143.3066839013674 292.8179370125521" fill-opacity="1" clip-path="url(#HXyHsOUITEHV)" stroke-opacity="0.7019607843137254" stroke-linejoin="bevel" stroke-miterlimit="10" stroke-width="2" stroke-dasharray=""/><path fill="rgb(255,187,120)" stroke="rgb(0,0,0)" paint-order="fill" d="M 138.04798889160156 281.7575988769531 A 5 5 0 1 1 138.04798639160177 281.75259887778645" fill-opacity="1" clip-path="url(#HXyHsOUITEHV)" stroke-opacity="0.7019607843137254" stroke-linejoin="bevel" stroke-miterlimit="10" stroke-width="2" stroke-dasharray=""/><path fill="rgb(255,187,120)" stroke="rgb(0,0,0)" paint-order="fill" d="M 142.8084716796875 290.21099853515625 A 5 5 0 1 1 142.8084691796877 290.2059985359896" fill-opacity="1" clip-path="url(#HXyHsOUITEHV)" stroke-opacity="0.7019607843137254" stroke-linejoin="bevel" stroke-miterlimit="10" stroke-width="2" stroke-dasharray=""/><path fill="rgb(255,187,120)" stroke="rgb(0,0,0)" paint-order="fill" d="M 140.3640594482422 280.6651611328125 A 5 5 0 1 1 140.3640569482424 280.66016113364583" fill-opacity="1" clip-path="url(#HXyHsOUITEHV)" stroke-opacity="0.7019607843137254" stroke-linejoin="bevel" stroke-miterlimit="10" stroke-width="2" stroke-dasharray=""/><path fill="rgb(255,187,120)" stroke="rgb(0,0,0)" paint-order="fill" d="M 139.6366729736328 230.499755859375 A 5 5 0 1 1 139.63667047363302 230.49475586020833" fill-opacity="1" clip-path="url(#HXyHsOUITEHV)" stroke-opacity="0.7019607843137254" stroke-linejoin="bevel" stroke-miterlimit="10" stroke-width="2" stroke-dasharray=""/><path fill="rgb(255,187,120)" stroke="rgb(0,0,0)" paint-order="fill" d="M 143.53955078125 226.2264862060547 A 5 5 0 1 1 143.5395482812502 226.22148620688802" fill-opacity="1" clip-path="url(#HXyHsOUITEHV)" stroke-opacity="0.7019607843137254" stroke-linejoin="bevel" stroke-miterlimit="10" stroke-width="2" stroke-dasharray=""/><path fill="rgb(255,187,120)" stroke="rgb(0,0,0)" paint-order="fill" d="M 135.5890655517578 240.45982360839844 A 5 5 0 1 1 135.58906305175802 240.45482360923177" fill-opacity="1" clip-path="url(#HXyHsOUITEHV)" stroke-opacity="0.7019607843137254" stroke-linejoin="bevel" stroke-miterlimit="10" stroke-width="2" stroke-dasharray=""/><path fill="rgb(214,39,40)" stroke="rgb(0,0,0)" paint-order="fill" d="M 169.23623657226562 270.13470458984375 A 5 5 0 1 1 169.23623407226583 270.1297045906771" fill-opacity="1" clip-path="url(#HXyHsOUITEHV)" stroke-opacity="0.7019607843137254" stroke-linejoin="bevel" stroke-miterlimit="10" stroke-width="2" stroke-dasharray=""/><path fill="rgb(214,39,40)" stroke="rgb(0,0,0)" paint-order="fill" d="M 167.70851135253906 258.60284423828125 A 5 5 0 1 1 167.70850885253927 258.5978442391146" fill-opacity="1" clip-path="url(#HXyHsOUITEHV)" stroke-opacity="0.7019607843137254" stroke-linejoin="bevel" stroke-miterlimit="10" stroke-width="2" stroke-dasharray=""/><path fill="rgb(214,39,40)" stroke="rgb(0,0,0)" paint-order="fill" d="M 166.21717834472656 262.42779541015625 A 5 5 0 1 1 166.21717584472677 262.4227954109896" fill-opacity="1" clip-path="url(#HXyHsOUITEHV)" stroke-opacity="0.7019607843137254" stroke-linejoin="bevel" stroke-miterlimit="10" stroke-width="2" stroke-dasharray=""/><path fill="rgb(214,39,40)" stroke="rgb(0,0,0)" paint-order="fill" d="M 170.884521484375 269.29498291015625 A 5 5 0 1 1 170.8845189843752 269.2899829109896" fill-opacity="1" clip-path="url(#HXyHsOUITEHV)" stroke-opacity="0.7019607843137254" stroke-linejoin="bevel" stroke-miterlimit="10" stroke-width="2" stroke-dasharray=""/><path fill="rgb(214,39,40)" stroke="rgb(0,0,0)" paint-order="fill" d="M 167.22694396972656 271.6432189941406 A 5 5 0 1 1 167.22694146972677 271.63821899497395" fill-opacity="1" clip-path="url(#HXyHsOUITEHV)" stroke-opacity="0.7019607843137254" stroke-linejoin="bevel" stroke-miterlimit="10" stroke-width="2" stroke-dasharray=""/><path fill="rgb(214,39,40)" stroke="rgb(0,0,0)" paint-order="fill" d="M 165.51194763183594 264.592041015625 A 5 5 0 1 1 165.51194513183614 264.58704101645833" fill-opacity="1" clip-path="url(#HXyHsOUITEHV)" stroke-opacity="0.7019607843137254" stroke-linejoin="bevel" stroke-miterlimit="10" stroke-width="2" stroke-dasharray=""/><path fill="rgb(214,39,40)" stroke="rgb(0,0,0)" paint-order="fill" d="M 167.71363830566406 250.9580535888672 A 5 5 0 1 1 167.71363580566427 250.95305358970052" fill-opacity="1" clip-path="url(#HXyHsOUITEHV)" stroke-opacity="0.7019607843137254" stroke-linejoin="bevel" stroke-miterlimit="10" stroke-width="2" stroke-dasharray=""/><path fill="rgb(214,39,40)" stroke="rgb(0,0,0)" paint-order="fill" d="M 173.21241760253906 237.80540466308594 A 5 5 0 1 1 173.21241510253927 237.80040466391927" fill-opacity="1" clip-path="url(#HXyHsOUITEHV)" stroke-opacity="0.7019607843137254" stroke-linejoin="bevel" stroke-miterlimit="10" stroke-width="2" stroke-dasharray=""/><path fill="rgb(214,39,40)" stroke="rgb(0,0,0)" paint-order="fill" d="M 171.8485107421875 205.72193908691406 A 5 5 0 1 1 171.8485082421877 205.7169390877474" fill-opacity="1" clip-path="url(#HXyHsOUITEHV)" stroke-opacity="0.7019607843137254" stroke-linejoin="bevel" stroke-miterlimit="10" stroke-width="2" stroke-dasharray=""/><path fill="rgb(255,127,14)" stroke="rgb(0,0,0)" paint-order="fill" d="M 198.9626007080078 74.33861541748047 A 5 5 0 1 1 198.96259820800802 74.3336154183138" fill-opacity="1" clip-path="url(#HXyHsOUITEHV)" stroke-opacity="0.7019607843137254" stroke-linejoin="bevel" stroke-miterlimit="10" stroke-width="2" stroke-dasharray=""/><path fill="rgb(255,127,14)" stroke="rgb(0,0,0)" paint-order="fill" d="M 196.33082580566406 100.12649536132812 A 5 5 0 1 1 196.33082330566427 100.12149536216145" fill-opacity="1" clip-path="url(#HXyHsOUITEHV)" stroke-opacity="0.7019607843137254" stroke-linejoin="bevel" stroke-miterlimit="10" stroke-width="2" stroke-dasharray=""/><path fill="rgb(255,127,14)" stroke="rgb(0,0,0)" paint-order="fill" d="M 197.5986785888672 45.69047546386719 A 5 5 0 1 1 197.5986760888674 45.68547546470052" fill-opacity="1" clip-path="url(#HXyHsOUITEHV)" stroke-opacity="0.7019607843137254" stroke-linejoin="bevel" stroke-miterlimit="10" stroke-width="2" stroke-dasharray=""/><path fill="rgb(44,160,44)" stroke="rgb(0,0,0)" paint-order="fill" d="M 228.48040771484375 212.113525390625 A 5 5 0 1 1 228.48040521484396 212.10852539145833" fill-opacity="1" clip-path="url(#HXyHsOUITEHV)" stroke-opacity="0.7019607843137254" stroke-linejoin="bevel" stroke-miterlimit="10" stroke-width="2" stroke-dasharray=""/><path fill="rgb(44,160,44)" stroke="rgb(0,0,0)" paint-order="fill" d="M 232.97853088378906 226.69448852539062 A 5 5 0 1 1 232.97852838378927 226.68948852622395" fill-opacity="1" clip-path="url(#HXyHsOUITEHV)" stroke-opacity="0.7019607843137254" stroke-linejoin="bevel" stroke-miterlimit="10" stroke-width="2" stroke-dasharray=""/><path fill="rgb(44,160,44)" stroke="rgb(0,0,0)" paint-order="fill" d="M 230.2296142578125 167.33238220214844 A 5 5 0 1 1 230.2296117578127 167.32738220298177" fill-opacity="1" clip-path="url(#HXyHsOUITEHV)" stroke-opacity="0.7019607843137254" stroke-linejoin="bevel" stroke-miterlimit="10" stroke-width="2" stroke-dasharray=""/><path fill="rgb(152,223,138)" stroke="rgb(0,0,0)" paint-order="fill" d="M 261.86322021484375 217.03504943847656 A 5 5 0 1 1 261.863217714844 217.0300494393099" fill-opacity="1" clip-path="url(#HXyHsOUITEHV)" stroke-opacity="0.7019607843137254" stroke-linejoin="bevel" stroke-miterlimit="10" stroke-width="2" stroke-dasharray=""/><path fill="rgb(152,223,138)" stroke="rgb(0,0,0)" paint-order="fill" d="M 261.4877166748047 235.47203063964844 A 5 5 0 1 1 261.4877141748049 235.46703064048177" fill-opacity="1" clip-path="url(#HXyHsOUITEHV)" stroke-opacity="0.7019607843137254" stroke-linejoin="bevel" stroke-miterlimit="10" stroke-width="2" stroke-dasharray=""/><path fill="rgb(152,223,138)" stroke="rgb(0,0,0)" paint-order="fill" d="M 261.4701232910156 162.09161376953125 A 5 5 0 1 1 261.47012079101586 162.08661377036458" fill-opacity="1" clip-path="url(#HXyHsOUITEHV)" stroke-opacity="0.7019607843137254" stroke-linejoin="bevel" stroke-miterlimit="10" stroke-width="2" stroke-dasharray=""/><path fill="rgb(152,223,138)" stroke="rgb(0,0,0)" paint-order="fill" d="M 261.49493408203125 246.63140869140625 A 5 5 0 1 1 261.4949315820315 246.62640869223958" fill-opacity="1" clip-path="url(#HXyHsOUITEHV)" stroke-opacity="0.7019607843137254" stroke-linejoin="bevel" stroke-miterlimit="10" stroke-width="2" stroke-dasharray=""/><path fill="none" stroke="none"/><path fill="rgb(174,199,232)" stroke="rgb(0,0,0)" paint-order="fill" d="M 65.17427825927734 134.42588806152344 L 75.17427825927734 134.42588806152344 L 75.17427825927734 144.42588806152344 L 65.17427825927734 144.42588806152344 L 65.17427825927734 134.42588806152344" fill-opacity="1" clip-path="url(#iJroVVoMTdSy)" stroke-opacity="0.7019607843137254" stroke-linejoin="bevel" stroke-miterlimit="10" stroke-width="2" stroke-dasharray=""/><path fill="rgb(31,119,180)" stroke="rgb(0,0,0)" paint-order="fill" d="M 99.38138580322266 289.1480712890625 L 109.38138580322266 289.1480712890625 L 109.38138580322266 299.1480712890625 L 99.38138580322266 299.1480712890625 L 99.38138580322266 289.1480712890625" fill-opacity="1" clip-path="url(#iJroVVoMTdSy)" stroke-opacity="0.7019607843137254" stroke-linejoin="bevel" stroke-miterlimit="10" stroke-width="2" stroke-dasharray=""/><path fill="rgb(31,119,180)" stroke="rgb(0,0,0)" paint-order="fill" d="M 104.0081558227539 260.78826904296875 L 114.0081558227539 260.78826904296875 L 114.0081558227539 270.78826904296875 L 104.0081558227539 270.78826904296875 L 104.0081558227539 260.78826904296875" fill-opacity="1" clip-path="url(#iJroVVoMTdSy)" stroke-opacity="0.7019607843137254" stroke-linejoin="bevel" stroke-miterlimit="10" stroke-width="2" stroke-dasharray=""/><path fill="rgb(31,119,180)" stroke="rgb(0,0,0)" paint-order="fill" d="M 103.2544174194336 271.3252868652344 L 113.2544174194336 271.3252868652344 L 113.2544174194336 281.3252868652344 L 103.2544174194336 281.3252868652344 L 103.2544174194336 271.3252868652344" fill-opacity="1" clip-path="url(#iJroVVoMTdSy)" stroke-opacity="0.7019607843137254" stroke-linejoin="bevel" stroke-miterlimit="10" stroke-width="2" stroke-dasharray=""/><path fill="rgb(31,119,180)" stroke="rgb(0,0,0)" paint-order="fill" d="M 103.75655364990234 253.80337524414062 L 113.75655364990234 253.80337524414062 L 113.75655364990234 263.8033752441406 L 103.75655364990234 263.8033752441406 L 103.75655364990234 253.80337524414062" fill-opacity="1" clip-path="url(#iJroVVoMTdSy)" stroke-opacity="0.7019607843137254" stroke-linejoin="bevel" stroke-miterlimit="10" stroke-width="2" stroke-dasharray=""/><path fill="rgb(31,119,180)" stroke="rgb(0,0,0)" paint-order="fill" d="M 98.80683898925781 280.6331481933594 L 108.80683898925781 280.6331481933594 L 108.80683898925781 290.6331481933594 L 98.80683898925781 290.6331481933594 L 98.80683898925781 280.6331481933594" fill-opacity="1" clip-path="url(#iJroVVoMTdSy)" stroke-opacity="0.7019607843137254" stroke-linejoin="bevel" stroke-miterlimit="10" stroke-width="2" stroke-dasharray=""/><path fill="rgb(214,39,40)" stroke="rgb(0,0,0)" paint-order="fill" d="M 162.68873596191406 259.7747497558594 L 172.68873596191406 259.7747497558594 L 172.68873596191406 269.7747497558594 L 162.68873596191406 269.7747497558594 L 162.68873596191406 259.7747497558594" fill-opacity="1" clip-path="url(#iJroVVoMTdSy)" stroke-opacity="0.7019607843137254" stroke-linejoin="bevel" stroke-miterlimit="10" stroke-width="2" stroke-dasharray=""/><path fill="rgb(44,160,44)" stroke="rgb(0,0,0)" paint-order="fill" d="M 218.67454528808594 236.42514038085938 L 228.67454528808594 236.42514038085938 L 228.67454528808594 246.42514038085938 L 218.67454528808594 246.42514038085938 L 218.67454528808594 236.42514038085938" fill-opacity="1" clip-path="url(#iJroVVoMTdSy)" stroke-opacity="0.7019607843137254" stroke-linejoin="bevel" stroke-miterlimit="10" stroke-width="2" stroke-dasharray=""/><path fill="none" stroke="rgb(0,0,0)" paint-order="fill" d="M 59.5 329.5 L 270.5 329.5" stroke-opacity="1" stroke-linejoin="bevel" stroke-miterlimit="10" stroke-dasharray=""/><path fill="none" stroke="rgb(0,0,0)" paint-order="fill" d="M 74.5 335.5 L 74.5 327.5 M 104.5 335.5 L 104.5 327.5 M 134.5 335.5 L 134.5 327.5 M 165.5 335.5 L 165.5 327.5 M 195.5 335.5 L 195.5 327.5 M 225.5 335.5 L 225.5 327.5 M 255.5 335.5 L 255.5 327.5" stroke-opacity="1" stroke-linejoin="bevel" stroke-miterlimit="10" stroke-dasharray=""/><path fill="none" stroke="rgb(0,0,0)" paint-order="fill" d="" stroke-opacity="1" stroke-linejoin="bevel" stroke-miterlimit="10" stroke-dasharray=""/><text fill="rgb(68,68,68)" stroke="none" font-family="helvetica" font-size="12pt" font-style="normal" font-weight="normal" text-decoration="normal" x="49.20475959777832" y="345.83203125" text-anchor="start" dominant-baseline="alphabetic" transform="matrix(0.7071067811865476, -0.7071067811865475, 0.7071067811865475, 0.7071067811865476, -218.22128710548623, 152.4601022902355)" fill-opacity="1">WT</text><text fill="rgb(68,68,68)" stroke="none" font-family="helvetica" font-size="12pt" font-style="normal" font-weight="normal" text-decoration="normal" x="56.1976203918457" y="345.83203125" text-anchor="start" dominant-baseline="alphabetic" transform="matrix(0.7071067811865476, -0.7071067811865475, 0.7071067811865475, 0.7071067811865476, -209.39264769499596, 173.77432329234284)" fill-opacity="1">Abiotic</text><text fill="rgb(68,68,68)" stroke="none" font-family="helvetica" font-size="12pt" font-style="normal" font-weight="normal" text-decoration="normal" x="57.00714874267578" y="345.83203125" text-anchor="start" dominant-baseline="alphabetic" transform="matrix(0.7071067811865476, -0.7071067811865475, 0.7071067811865475, 0.7071067811865476, -200.56400828450558, 195.08854429445017)" fill-opacity="1">dmsA-tlKO</text><text fill="rgb(68,68,68)" stroke="none" font-family="helvetica" font-size="12pt" font-style="normal" font-weight="normal" text-decoration="normal" x="53.349998474121094" y="345.83203125" text-anchor="start" dominant-baseline="alphabetic" transform="matrix(0.7071067811865476, -0.7071067811865475, 0.7071067811865475, 0.7071067811865476, -191.7353711086132, 216.40275990176087)" fill-opacity="1">menAubiC-tlKO</text><text fill="rgb(68,68,68)" stroke="none" font-family="helvetica" font-size="12pt" font-style="normal" font-weight="normal" text-decoration="normal" x="53.27618408203125" y="345.83203125" text-anchor="start" dominant-baseline="alphabetic" transform="matrix(0.7071067811865476, -0.7071067811865475, 0.7071067811865475, 0.7071067811865476, -182.90673393272084, 237.7169755090716)" fill-opacity="1">dmsA pFE21-DmsA</text><text fill="rgb(68,68,68)" stroke="none" font-family="helvetica" font-size="12pt" font-style="normal" font-weight="normal" text-decoration="normal" x="51.369049072265625" y="345.83203125" text-anchor="start" dominant-baseline="alphabetic" transform="matrix(0.7071067811865476, -0.7071067811865475, 0.7071067811865475, 0.7071067811865476, -174.07809228763256, 259.03120190597554)" fill-opacity="1">menAubiC pFE21-MenA</text><text fill="rgb(68,68,68)" stroke="none" font-family="helvetica" font-size="12pt" font-style="normal" font-weight="normal" text-decoration="normal" x="87.76190185546875" y="345.83203125" text-anchor="start" dominant-baseline="alphabetic" transform="matrix(0.7071067811865476, -0.7071067811865475, 0.7071067811865475, 0.7071067811865476, -165.2494551117402, 280.3454175132863)" fill-opacity="1">menAubiC pFE21-UbiC</text><text fill="rgb(128,128,128)" stroke="none" font-family="helvetica" font-size="11px" font-style="normal" font-weight="bold" text-decoration="normal" x="133.3333339691162" y="494.4632582240679" text-anchor="start" dominant-baseline="alphabetic" transform="matrix(1, 0, 0, 1, 0.5, 0.5)" fill-opacity="1">PCA, DMSO</text><path fill="none" stroke="rgb(0,0,0)" paint-order="fill" d="M 59.5 329.5 L 59.5 31.5" stroke-opacity="1" stroke-linejoin="bevel" stroke-miterlimit="10" stroke-dasharray=""/><path fill="none" stroke="rgb(0,0,0)" paint-order="fill" d="M 53.5 303.5 L 61.5 303.5 M 53.5 265.5 L 61.5 265.5 M 53.5 227.5 L 61.5 227.5 M 53.5 189.5 L 61.5 189.5 M 53.5 151.5 L 61.5 151.5 M 53.5 112.5 L 61.5 112.5 M 53.5 74.5 L 61.5 74.5 M 53.5 36.5 L 61.5 36.5" stroke-opacity="1" stroke-linejoin="bevel" stroke-miterlimit="10" stroke-dasharray=""/><path fill="none" stroke="rgb(0,0,0)" paint-order="fill" d="M 55.5 311.5 L 59.5 311.5 M 55.5 318.5 L 59.5 318.5 M 55.5 326.5 L 59.5 326.5 M 55.5 303.5 L 59.5 303.5 M 55.5 296.5 L 59.5 296.5 M 55.5 288.5 L 59.5 288.5 M 55.5 280.5 L 59.5 280.5 M 55.5 273.5 L 59.5 273.5 M 55.5 265.5 L 59.5 265.5 M 55.5 257.5 L 59.5 257.5 M 55.5 250.5 L 59.5 250.5 M 55.5 242.5 L 59.5 242.5 M 55.5 235.5 L 59.5 235.5 M 55.5 227.5 L 59.5 227.5 M 55.5 219.5 L 59.5 219.5 M 55.5 212.5 L 59.5 212.5 M 55.5 204.5 L 59.5 204.5 M 55.5 196.5 L 59.5 196.5 M 55.5 189.5 L 59.5 189.5 M 55.5 181.5 L 59.5 181.5 M 55.5 174.5 L 59.5 174.5 M 55.5 166.5 L 59.5 166.5 M 55.5 158.5 L 59.5 158.5 M 55.5 151.5 L 59.5 151.5 M 55.5 143.5 L 59.5 143.5 M 55.5 135.5 L 59.5 135.5 M 55.5 128.5 L 59.5 128.5 M 55.5 120.5 L 59.5 120.5 M 55.5 112.5 L 59.5 112.5 M 55.5 105.5 L 59.5 105.5 M 55.5 97.5 L 59.5 97.5 M 55.5 90.5 L 59.5 90.5 M 55.5 82.5 L 59.5 82.5 M 55.5 74.5 L 59.5 74.5 M 55.5 67.5 L 59.5 67.5 M 55.5 59.5 L 59.5 59.5 M 55.5 51.5 L 59.5 51.5 M 55.5 44.5 L 59.5 44.5 M 55.5 36.5 L 59.5 36.5" stroke-opacity="1" stroke-linejoin="bevel" stroke-miterlimit="10" stroke-dasharray=""/><text fill="rgb(68,68,68)" stroke="none" font-family="helvetica" font-size="12pt" font-style="normal" font-weight="normal" text-decoration="normal" x="39.10000038146973" y="308.9374084472656" text-anchor="start" dominant-baseline="alphabetic" transform="matrix(1, 0, 0, 1, 0.5, 0.5)" fill-opacity="1">0</text><text fill="rgb(68,68,68)" stroke="none" font-family="helvetica" font-size="12pt" font-style="normal" font-weight="normal" text-decoration="normal" x="39.10000038146973" y="270.7953186035156" text-anchor="start" dominant-baseline="alphabetic" transform="matrix(1, 0, 0, 1, 0.5, 0.5)" fill-opacity="1">2</text><text fill="rgb(68,68,68)" stroke="none" font-family="helvetica" font-size="12pt" font-style="normal" font-weight="normal" text-decoration="normal" x="39.10000038146973" y="232.65322875976562" text-anchor="start" dominant-baseline="alphabetic" transform="matrix(1, 0, 0, 1, 0.5, 0.5)" fill-opacity="1">4</text><text fill="rgb(68,68,68)" stroke="none" font-family="helvetica" font-size="12pt" font-style="normal" font-weight="normal" text-decoration="normal" x="39.10000038146973" y="194.51113891601562" text-anchor="start" dominant-baseline="alphabetic" transform="matrix(1, 0, 0, 1, 0.5, 0.5)" fill-opacity="1">6</text><text fill="rgb(68,68,68)" stroke="none" font-family="helvetica" font-size="12pt" font-style="normal" font-weight="normal" text-decoration="normal" x="39.10000038146973" y="156.36904907226562" text-anchor="start" dominant-baseline="alphabetic" transform="matrix(1, 0, 0, 1, 0.5, 0.5)" fill-opacity="1">8</text><text fill="rgb(68,68,68)" stroke="none" font-family="helvetica" font-size="12pt" font-style="normal" font-weight="normal" text-decoration="normal" x="30.200000762939453" y="118.2269515991211" text-anchor="start" dominant-baseline="alphabetic" transform="matrix(1, 0, 0, 1, 0.5, 0.5)" fill-opacity="1">10</text><text fill="rgb(68,68,68)" stroke="none" font-family="helvetica" font-size="12pt" font-style="normal" font-weight="normal" text-decoration="normal" x="30.200000762939453" y="80.0848617553711" text-anchor="start" dominant-baseline="alphabetic" transform="matrix(1, 0, 0, 1, 0.5, 0.5)" fill-opacity="1">12</text><text fill="rgb(68,68,68)" stroke="none" font-family="helvetica" font-size="12pt" font-style="normal" font-weight="normal" text-decoration="normal" x="30.200000762939453" y="41.94276809692383" text-anchor="start" dominant-baseline="alphabetic" transform="matrix(1, 0, 0, 1, 0.5, 0.5)" fill-opacity="1">14</text><text fill="rgb(68,68,68)" stroke="none" font-family="helvetica" font-size="12pt" font-style="italic" font-weight="normal" text-decoration="normal" x="-121.15000534057617" y="176.4609375" text-anchor="start" dominant-baseline="alphabetic" transform="matrix(6.123233995736766e-17, -1, 1, 6.123233995736766e-17, -157.29999923706055, 202.70000076293945)" fill-opacity="1">Maximum PCAred oxidation rate (µM/hr)</text><path fill="none" stroke="none"/><text fill="rgb(68,68,68)" stroke="none" font-family="helvetica" font-size="12pt" font-style="normal" font-weight="bold" text-decoration="normal" x="0" y="0" text-anchor="start" dominant-baseline="text-after-edge" transform="matrix(1, 0, 0, 1, 59.5, 26.5)" fill-opacity="1">DMSO complementations</text></svg>