<svg version="1.1" xmlns="http://www.w3.org/2000/svg" xmlns:xlink="http://www.w3.org/1999/xlink" width="800" height="400"><defs><clipPath id="IiWTEBzkmfvC"><path fill="none" stroke="none" d="M 56.5 5.5 L 770.5 5.5 L 770.5 196.5 L 56.5 196.5 L 56.5 5.5"/></clipPath><clipPath id="LTTXVcMvbzle"><path fill="none" stroke="none" d="M 56.5 5.5 L 770.5 5.5 L 770.5 196.5 L 56.5 196.5 L 56.5 5.5"/></clipPath><clipPath id="rpQnICghNFQO"><path fill="none" stroke="none" d="M 56.5 5.5 L 770.5 5.5 L 770.5 196.5 L 56.5 196.5 L 56.5 5.5"/></clipPath><clipPath id="MkCrLEtxTelQ"><path fill="none" stroke="none" d="M 56.5 5.5 L 770.5 5.5 L 770.5 196.5 L 56.5 196.5 L 56.5 5.5"/></clipPath><clipPath id="pmkkLLWzXxVP"><path fill="none" stroke="none" d="M 56.5 5.5 L 770.5 5.5 L 770.5 196.5 L 56.5 196.5 L 56.5 5.5"/></clipPath></defs><path fill="rgb(255,255,255)" stroke="none" paint-order="stroke" d="M 0.5 0.5 L 800.5 0.5 L 800.5 400.5 L 0.5 400.5 L 0.5 0.5" fill-opacity="1"/><rect fill="#FFFFFF" stroke="none" x="56" y="5" width="714" height="191" transform="matrix(1, 0, 0, 1, 0.5, 0.5)"/><path fill="rgb(255,255,255)" stroke="none" paint-order="stroke" d="M 56.5 5.5 L 770.5 5.5 L 770.5 196.5 L 56.5 196.5 L 56.5 5.5" fill-opacity="1"/><path fill="none" stroke="rgb(229,229,229)" paint-order="fill" d="M 56.5 5.5 L 770.5 5.5 L 770.5 196.5 L 56.5 196.5 L 56.5 5.5" stroke-opacity="1" stroke-linejoin="bevel" stroke-miterlimit="10" stroke-dasharray=""/><path fill="none" stroke="rgb(229,229,229)" paint-order="fill" d="M 56.5 179.5 L 770.5 179.5 M 56.5 138.5 L 770.5 138.5 M 56.5 96.5 L 770.5 96.5 M 56.5 54.5 L 770.5 54.5 M 56.5 13.5 L 770.5 13.5" stroke-opacity="1" stroke-linejoin="bevel" stroke-miterlimit="10" stroke-dasharray="" clip-path="url(#LTTXVcMvbzle)"/><path fill="none" stroke="none"/><path fill="rgb(255,127,14)" stroke="rgb(0,0,0)" paint-order="fill" d="M 265.2610168457031 138.96514892578125 A 5 5 0 1 1 265.26101434570336 138.96014892661458" fill-opacity="1" clip-path="url(#rpQnICghNFQO)" stroke-opacity="0.7019607843137254" stroke-linejoin="bevel" stroke-miterlimit="10" stroke-width="2" stroke-dasharray=""/><path fill="rgb(255,127,14)" stroke="rgb(0,0,0)" paint-order="fill" d="M 632.4629516601562 169.54067993164062 A 5 5 0 1 1 632.4629491601564 169.53567993247395" fill-opacity="1" clip-path="url(#rpQnICghNFQO)" stroke-opacity="0.7019607843137254" stroke-linejoin="bevel" stroke-miterlimit="10" stroke-width="2" stroke-dasharray=""/><path fill="rgb(255,127,14)" stroke="rgb(0,0,0)" paint-order="fill" d="M 263.54388427734375 140.35760498046875 A 5 5 0 1 1 263.543881777344 140.35260498130208" fill-opacity="1" clip-path="url(#rpQnICghNFQO)" stroke-opacity="0.7019607843137254" stroke-linejoin="bevel" stroke-miterlimit="10" stroke-width="2" stroke-dasharray=""/><path fill="rgb(255,127,14)" stroke="rgb(0,0,0)" paint-order="fill" d="M 634.3773803710938 172.31724548339844 A 5 5 0 1 1 634.3773778710939 172.31224548423177" fill-opacity="1" clip-path="url(#rpQnICghNFQO)" stroke-opacity="0.7019607843137254" stroke-linejoin="bevel" stroke-miterlimit="10" stroke-width="2" stroke-dasharray=""/><path fill="rgb(255,127,14)" stroke="rgb(0,0,0)" paint-order="fill" d="M 262.9106750488281 132.71163940429688 A 5 5 0 1 1 262.91067254882836 132.7066394051302" fill-opacity="1" clip-path="url(#rpQnICghNFQO)" stroke-opacity="0.7019607843137254" stroke-linejoin="bevel" stroke-miterlimit="10" stroke-width="2" stroke-dasharray=""/><path fill="rgb(255,127,14)" stroke="rgb(0,0,0)" paint-order="fill" d="M 633.7882690429688 171.62518310546875 A 5 5 0 1 1 633.7882665429689 171.62018310630208" fill-opacity="1" clip-path="url(#rpQnICghNFQO)" stroke-opacity="0.7019607843137254" stroke-linejoin="bevel" stroke-miterlimit="10" stroke-width="2" stroke-dasharray=""/><path fill="rgb(174,199,232)" stroke="rgb(0,0,0)" paint-order="fill" d="M 687.80712890625 134.10409545898438 A 5 5 0 1 1 687.8071264062502 134.0990954598177" fill-opacity="1" clip-path="url(#rpQnICghNFQO)" stroke-opacity="0.7019607843137254" stroke-linejoin="bevel" stroke-miterlimit="10" stroke-width="2" stroke-dasharray=""/><path fill="rgb(174,199,232)" stroke="rgb(0,0,0)" paint-order="fill" d="M 689.9866943359375 138.96514892578125 A 5 5 0 1 1 689.9866918359377 138.96014892661458" fill-opacity="1" clip-path="url(#rpQnICghNFQO)" stroke-opacity="0.7019607843137254" stroke-linejoin="bevel" stroke-miterlimit="10" stroke-width="2" stroke-dasharray=""/><path fill="rgb(174,199,232)" stroke="rgb(0,0,0)" paint-order="fill" d="M 688.0719604492188 136.1885986328125 A 5 5 0 1 1 688.0719579492189 136.18359863364583" fill-opacity="1" clip-path="url(#rpQnICghNFQO)" stroke-opacity="0.7019607843137254" stroke-linejoin="bevel" stroke-miterlimit="10" stroke-width="2" stroke-dasharray=""/><path fill="rgb(255,187,120)" stroke="rgb(0,0,0)" paint-order="fill" d="M 525.59814453125 62.530517578125 A 5 5 0 1 1 525.5981420312502 62.52551757895833" fill-opacity="1" clip-path="url(#rpQnICghNFQO)" stroke-opacity="0.7019607843137254" stroke-linejoin="bevel" stroke-miterlimit="10" stroke-width="2" stroke-dasharray=""/><path fill="rgb(255,187,120)" stroke="rgb(0,0,0)" paint-order="fill" d="M 714.4442749023438 152.86463928222656 A 5 5 0 1 1 714.4442724023439 152.8596392830599" fill-opacity="1" clip-path="url(#rpQnICghNFQO)" stroke-opacity="0.7019607843137254" stroke-linejoin="bevel" stroke-miterlimit="10" stroke-width="2" stroke-dasharray=""/><path fill="rgb(255,187,120)" stroke="rgb(0,0,0)" paint-order="fill" d="M 527.3643188476562 14.595237731933594 A 5 5 0 1 1 527.3643163476564 14.590237732766925" fill-opacity="1" clip-path="url(#rpQnICghNFQO)" stroke-opacity="0.7019607843137254" stroke-linejoin="bevel" stroke-miterlimit="10" stroke-width="2" stroke-dasharray=""/><path fill="rgb(255,187,120)" stroke="rgb(0,0,0)" paint-order="fill" d="M 711.5794067382812 155.6411895751953 A 5 5 0 1 1 711.5794042382814 155.63618957602864" fill-opacity="1" clip-path="url(#rpQnICghNFQO)" stroke-opacity="0.7019607843137254" stroke-linejoin="bevel" stroke-miterlimit="10" stroke-width="2" stroke-dasharray=""/><path fill="rgb(255,187,120)" stroke="rgb(0,0,0)" paint-order="fill" d="M 525.0022583007812 77.1303939819336 A 5 5 0 1 1 525.0022558007814 77.12539398276692" fill-opacity="1" clip-path="url(#rpQnICghNFQO)" stroke-opacity="0.7019607843137254" stroke-linejoin="bevel" stroke-miterlimit="10" stroke-width="2" stroke-dasharray=""/><path fill="rgb(255,187,120)" stroke="rgb(0,0,0)" paint-order="fill" d="M 710.9226684570312 154.9491424560547 A 5 5 0 1 1 710.9226659570314 154.94414245688802" fill-opacity="1" clip-path="url(#rpQnICghNFQO)" stroke-opacity="0.7019607843137254" stroke-linejoin="bevel" stroke-miterlimit="10" stroke-width="2" stroke-dasharray=""/><path fill="rgb(44,160,44)" stroke="rgb(0,0,0)" paint-order="fill" d="M 552.5077514648438 117.42804718017578 A 5 5 0 1 1 552.5077489648439 117.42304718100911" fill-opacity="1" clip-path="url(#rpQnICghNFQO)" stroke-opacity="0.7019607843137254" stroke-linejoin="bevel" stroke-miterlimit="10" stroke-width="2" stroke-dasharray=""/><path fill="rgb(44,160,44)" stroke="rgb(0,0,0)" paint-order="fill" d="M 550.1690673828125 86.85252380371094 A 5 5 0 1 1 550.1690648828127 86.84752380454427" fill-opacity="1" clip-path="url(#rpQnICghNFQO)" stroke-opacity="0.7019607843137254" stroke-linejoin="bevel" stroke-miterlimit="10" stroke-width="2" stroke-dasharray=""/><path fill="rgb(44,160,44)" stroke="rgb(0,0,0)" paint-order="fill" d="M 548.13134765625 93.10604095458984 A 5 5 0 1 1 548.1313451562502 93.10104095542317" fill-opacity="1" clip-path="url(#rpQnICghNFQO)" stroke-opacity="0.7019607843137254" stroke-linejoin="bevel" stroke-miterlimit="10" stroke-width="2" stroke-dasharray=""/><path fill="rgb(152,223,138)" stroke="rgb(0,0,0)" paint-order="fill" d="M 572.8272094726562 116.72765350341797 A 5 5 0 1 1 572.8272069726564 116.7226535042513" fill-opacity="1" clip-path="url(#rpQnICghNFQO)" stroke-opacity="0.7019607843137254" stroke-linejoin="bevel" stroke-miterlimit="10" stroke-width="2" stroke-dasharray=""/><path fill="rgb(152,223,138)" stroke="rgb(0,0,0)" paint-order="fill" d="M 576.909912109375 107.70591735839844 A 5 5 0 1 1 576.9099096093752 107.70091735923177" fill-opacity="1" clip-path="url(#rpQnICghNFQO)" stroke-opacity="0.7019607843137254" stroke-linejoin="bevel" stroke-miterlimit="10" stroke-width="2" stroke-dasharray=""/><path fill="rgb(152,223,138)" stroke="rgb(0,0,0)" paint-order="fill" d="M 572.2330932617188 99.35955810546875 A 5 5 0 1 1 572.2330907617189 99.35455810630208" fill-opacity="1" clip-path="url(#rpQnICghNFQO)" stroke-opacity="0.7019607843137254" stroke-linejoin="bevel" stroke-miterlimit="10" stroke-width="2" stroke-dasharray=""/><path fill="none" stroke="none"/><path fill="rgb(31,119,180)" stroke="rgb(0,0,0)" paint-order="fill" d="M 463.56439208984375 16.540809631347656 L 473.56439208984375 16.540809631347656 L 473.56439208984375 26.540809631347656 L 463.56439208984375 26.540809631347656 L 463.56439208984375 16.540809631347656" fill-opacity="1" clip-path="url(#MkCrLEtxTelQ)" stroke-opacity="0.7019607843137254" stroke-linejoin="bevel" stroke-miterlimit="10" stroke-width="2" stroke-dasharray=""/><path fill="none" stroke="rgb(0,0,0)" paint-order="fill" d="M 56.5 196.5 L 770.5 196.5" stroke-opacity="1" stroke-linejoin="bevel" stroke-miterlimit="10" stroke-dasharray=""/><path fill="none" stroke="rgb(0,0,0)" paint-order="fill" d="M 69.5 202.5 L 69.5 194.5 M 256.5 202.5 L 256.5 194.5 M 443.5 202.5 L 443.5 194.5 M 631.5 202.5 L 631.5 194.5 M 94.5 202.5 L 94.5 194.5 M 281.5 202.5 L 281.5 194.5 M 469.5 202.5 L 469.5 194.5 M 656.5 202.5 L 656.5 194.5 M 119.5 202.5 L 119.5 194.5 M 307.5 202.5 L 307.5 194.5 M 494.5 202.5 L 494.5 194.5 M 681.5 202.5 L 681.5 194.5 M 145.5 202.5 L 145.5 194.5 M 332.5 202.5 L 332.5 194.5 M 519.5 202.5 L 519.5 194.5 M 707.5 202.5 L 707.5 194.5 M 170.5 202.5 L 170.5 194.5 M 357.5 202.5 L 357.5 194.5 M 545.5 202.5 L 545.5 194.5 M 732.5 202.5 L 732.5 194.5 M 195.5 202.5 L 195.5 194.5 M 383.5 202.5 L 383.5 194.5 M 570.5 202.5 L 570.5 194.5 M 757.5 202.5 L 757.5 194.5" stroke-opacity="1" stroke-linejoin="bevel" stroke-miterlimit="10" stroke-dasharray=""/><path fill="none" stroke="rgb(0,0,0)" paint-order="fill" d="" stroke-opacity="1" stroke-linejoin="bevel" stroke-miterlimit="10" stroke-dasharray=""/><text fill="rgb(68,68,68)" stroke="none" font-family="helvetica" font-size="12pt" font-style="normal" font-weight="normal" text-decoration="normal" x="35.75957489013672" y="212.83203125" text-anchor="start" dominant-baseline="alphabetic" transform="matrix(0.7071067811865476, -0.7071067811865475, 0.7071067811865475, 0.7071067811865476, -125.7611793667603, 109.67854837154525)" fill-opacity="1">MBL</text><text fill="rgb(68,68,68)" stroke="none" font-family="helvetica" font-size="12pt" font-style="normal" font-weight="normal" text-decoration="normal" x="223.12126922607422" y="212.83203125" text-anchor="start" dominant-baseline="alphabetic" transform="matrix(0.7071067811865476, -0.7071067811865475, 0.7071067811865475, 0.7071067811865476, -70.88420963036538, 242.1632729710878)" fill-opacity="1">MBL</text><text fill="rgb(68,68,68)" stroke="none" font-family="helvetica" font-size="12pt" font-style="normal" font-weight="normal" text-decoration="normal" x="410.48299407958984" y="212.83203125" text-anchor="start" dominant-baseline="alphabetic" transform="matrix(0.7071067811865476, -0.7071067811865475, 0.7071067811865475, 0.7071067811865476, -16.007230955578734, 374.6480191498167)" fill-opacity="1">MBL</text><text fill="rgb(68,68,68)" stroke="none" font-family="helvetica" font-size="12pt" font-style="normal" font-weight="normal" text-decoration="normal" x="597.8446884155273" y="212.83203125" text-anchor="start" dominant-baseline="alphabetic" transform="matrix(0.7071067811865476, -0.7071067811865475, 0.7071067811865475, 0.7071067811865476, 38.86973878081619, 507.1327437493593)" fill-opacity="1">MBL</text><text fill="rgb(68,68,68)" stroke="none" font-family="helvetica" font-size="12pt" font-style="normal" font-weight="normal" text-decoration="normal" x="45.96205520629883" y="212.83203125" text-anchor="start" dominant-baseline="alphabetic" transform="matrix(0.7071067811865476, -0.7071067811865475, 0.7071067811865475, 0.7071067811865476, -118.34537343075485, 127.58188763817651)" fill-opacity="1">Abiotic</text><text fill="rgb(68,68,68)" stroke="none" font-family="helvetica" font-size="12pt" font-style="normal" font-weight="normal" text-decoration="normal" x="233.32375717163086" y="212.83203125" text-anchor="start" dominant-baseline="alphabetic" transform="matrix(0.7071067811865476, -0.7071067811865475, 0.7071067811865475, 0.7071067811865476, -63.46840145976199, 260.06661763251566)" fill-opacity="1">Abiotic</text><text fill="rgb(68,68,68)" stroke="none" font-family="helvetica" font-size="12pt" font-style="normal" font-weight="normal" text-decoration="normal" x="420.68545150756836" y="212.83203125" text-anchor="start" dominant-baseline="alphabetic" transform="matrix(0.7071067811865476, -0.7071067811865475, 0.7071067811865475, 0.7071067811865476, -8.591431723367066, 392.55134223205823)" fill-opacity="1">Abiotic</text><text fill="rgb(68,68,68)" stroke="none" font-family="helvetica" font-size="12pt" font-style="normal" font-weight="normal" text-decoration="normal" x="608.047176361084" y="212.83203125" text-anchor="start" dominant-baseline="alphabetic" transform="matrix(0.7071067811865476, -0.7071067811865475, 0.7071067811865475, 0.7071067811865476, 46.28554695141952, 525.0360884107872)" fill-opacity="1">Abiotic</text><text fill="rgb(68,68,68)" stroke="none" font-family="helvetica" font-size="12pt" font-style="normal" font-weight="normal" text-decoration="normal" x="75.73120880126953" y="212.83203125" text-anchor="start" dominant-baseline="alphabetic" transform="matrix(0.7071067811865476, -0.7071067811865475, 0.7071067811865475, 0.7071067811865476, -110.92956526015149, 145.48523229960438)" fill-opacity="1">E. coli</text><text fill="rgb(68,68,68)" stroke="none" font-family="helvetica" font-size="12pt" font-style="normal" font-weight="normal" text-decoration="normal" x="263.09291076660156" y="212.83203125" text-anchor="start" dominant-baseline="alphabetic" transform="matrix(0.7071067811865476, -0.7071067811865475, 0.7071067811865475, 0.7071067811865476, -56.05259328915861, 277.9699622939435)" fill-opacity="1">E. coli</text><text fill="rgb(68,68,68)" stroke="none" font-family="helvetica" font-size="12pt" font-style="normal" font-weight="normal" text-decoration="normal" x="450.45460510253906" y="212.83203125" text-anchor="start" dominant-baseline="alphabetic" transform="matrix(0.7071067811865476, -0.7071067811865475, 0.7071067811865475, 0.7071067811865476, -1.1756235527636818, 410.45468689348604)" fill-opacity="1">E. coli</text><text fill="rgb(68,68,68)" stroke="none" font-family="helvetica" font-size="12pt" font-style="normal" font-weight="normal" text-decoration="normal" x="637.8163299560547" y="212.83203125" text-anchor="start" dominant-baseline="alphabetic" transform="matrix(0.7071067811865476, -0.7071067811865475, 0.7071067811865475, 0.7071067811865476, 53.70135512202296, 542.939433072215)" fill-opacity="1">E. coli</text><text fill="rgb(68,68,68)" stroke="none" font-family="helvetica" font-size="12pt" font-style="normal" font-weight="normal" text-decoration="normal" x="1.667022705078125" y="212.83203125" text-anchor="start" dominant-baseline="alphabetic" transform="matrix(0.7071067811865476, -0.7071067811865475, 0.7071067811865475, 0.7071067811865476, -103.51375932414604, 163.38857156623564)" fill-opacity="1">P. aeruginosa ∆phz*</text><text fill="rgb(68,68,68)" stroke="none" font-family="helvetica" font-size="12pt" font-style="normal" font-weight="normal" text-decoration="normal" x="189.02870178222656" y="212.83203125" text-anchor="start" dominant-baseline="alphabetic" transform="matrix(0.7071067811865476, -0.7071067811865475, 0.7071067811865475, 0.7071067811865476, -48.63679405694694, 295.873285376185)" fill-opacity="1">P. aeruginosa ∆phz*</text><text fill="rgb(68,68,68)" stroke="none" font-family="helvetica" font-size="12pt" font-style="normal" font-weight="normal" text-decoration="normal" x="376.39039611816406" y="212.83203125" text-anchor="start" dominant-baseline="alphabetic" transform="matrix(0.7071067811865476, -0.7071067811865475, 0.7071067811865475, 0.7071067811865476, 6.24017567944793, 428.35800997572755)" fill-opacity="1">P. aeruginosa ∆phz*</text><text fill="rgb(68,68,68)" stroke="none" font-family="helvetica" font-size="12pt" font-style="normal" font-weight="normal" text-decoration="normal" x="563.7521514892578" y="212.83203125" text-anchor="start" dominant-baseline="alphabetic" transform="matrix(0.7071067811865476, -0.7071067811865475, 0.7071067811865475, 0.7071067811865476, 61.11716329262629, 560.842777733643)" fill-opacity="1">P. aeruginosa ∆phz*</text><text fill="rgb(68,68,68)" stroke="none" font-family="helvetica" font-size="12pt" font-style="normal" font-weight="normal" text-decoration="normal" x="-19.230499267578125" y="212.83203125" text-anchor="start" dominant-baseline="alphabetic" transform="matrix(0.7071067811865476, -0.7071067811865475, 0.7071067811865475, 0.7071067811865476, -96.09795115354268, 181.29191622766353)" fill-opacity="1">P. aureofaciens phzB::lacZ</text><text fill="rgb(68,68,68)" stroke="none" font-family="helvetica" font-size="12pt" font-style="normal" font-weight="normal" text-decoration="normal" x="168.1311798095703" y="212.83203125" text-anchor="start" dominant-baseline="alphabetic" transform="matrix(0.7071067811865476, -0.7071067811865475, 0.7071067811865475, 0.7071067811865476, -41.220985886343556, 313.77663003761285)" fill-opacity="1">P. aureofaciens phzB::lacZ</text><text fill="rgb(68,68,68)" stroke="none" font-family="helvetica" font-size="12pt" font-style="normal" font-weight="normal" text-decoration="normal" x="355.4928741455078" y="212.83203125" text-anchor="start" dominant-baseline="alphabetic" transform="matrix(0.7071067811865476, -0.7071067811865475, 0.7071067811865475, 0.7071067811865476, 13.65598385005137, 446.26135463715536)" fill-opacity="1">P. aureofaciens phzB::lacZ</text><text fill="rgb(68,68,68)" stroke="none" font-family="helvetica" font-size="12pt" font-style="normal" font-weight="normal" text-decoration="normal" x="542.8546295166016" y="212.83203125" text-anchor="start" dominant-baseline="alphabetic" transform="matrix(0.7071067811865476, -0.7071067811865475, 0.7071067811865475, 0.7071067811865476, 68.53297146322961, 578.7461223950708)" fill-opacity="1">P. aureofaciens phzB::lacZ</text><text fill="rgb(68,68,68)" stroke="none" font-family="helvetica" font-size="12pt" font-style="normal" font-weight="normal" text-decoration="normal" x="-25.02801513671875" y="212.83203125" text-anchor="start" dominant-baseline="alphabetic" transform="matrix(0.7071067811865476, -0.7071067811865475, 0.7071067811865475, 0.7071067811865476, -88.6821429829393, 199.1952608890914)" fill-opacity="1">P. chlororaphis phzB::TnLuxAB</text><text fill="rgb(68,68,68)" stroke="none" font-family="helvetica" font-size="12pt" font-style="normal" font-weight="normal" text-decoration="normal" x="162.3336639404297" y="212.83203125" text-anchor="start" dominant-baseline="alphabetic" transform="matrix(0.7071067811865476, -0.7071067811865475, 0.7071067811865475, 0.7071067811865476, -33.80517771574017, 331.6799746990407)" fill-opacity="1">P. chlororaphis phzB::TnLuxAB</text><text fill="rgb(68,68,68)" stroke="none" font-family="helvetica" font-size="12pt" font-style="normal" font-weight="normal" text-decoration="normal" x="349.6953582763672" y="212.83203125" text-anchor="start" dominant-baseline="alphabetic" transform="matrix(0.7071067811865476, -0.7071067811865475, 0.7071067811865475, 0.7071067811865476, 21.07179202065481, 464.1646992985833)" fill-opacity="1">P. chlororaphis phzB::TnLuxAB</text><text fill="rgb(68,68,68)" stroke="none" font-family="helvetica" font-size="12pt" font-style="normal" font-weight="normal" text-decoration="normal" x="537.0571136474609" y="212.83203125" text-anchor="start" dominant-baseline="alphabetic" transform="matrix(0.7071067811865476, -0.7071067811865475, 0.7071067811865475, 0.7071067811865476, 75.94877963383306, 596.6494670564987)" fill-opacity="1">P. chlororaphis phzB::TnLuxAB</text><text fill="rgb(128,128,128)" stroke="none" font-family="helvetica" font-size="11px" font-style="normal" font-weight="bold" text-decoration="normal" x="120.34077644348145" y="394.60299747428985" text-anchor="start" dominant-baseline="alphabetic" transform="matrix(1, 0, 0, 1, 0.5, 0.5)" fill-opacity="1">PCA</text><text fill="rgb(128,128,128)" stroke="none" font-family="helvetica" font-size="11px" font-style="normal" font-weight="bold" text-decoration="normal" x="293.044153213501" y="394.60299747428985" text-anchor="start" dominant-baseline="alphabetic" transform="matrix(1, 0, 0, 1, 0.5, 0.5)" fill-opacity="1">PCA, Fum</text><text fill="rgb(128,128,128)" stroke="none" font-family="helvetica" font-size="11px" font-style="normal" font-weight="bold" text-decoration="normal" x="480.7058162689209" y="394.60299747428985" text-anchor="start" dominant-baseline="alphabetic" transform="matrix(1, 0, 0, 1, 0.5, 0.5)" fill-opacity="1">PCA, NO2</text><text fill="rgb(128,128,128)" stroke="none" font-family="helvetica" font-size="11px" font-style="normal" font-weight="bold" text-decoration="normal" x="668.0676021575928" y="394.60299747428985" text-anchor="start" dominant-baseline="alphabetic" transform="matrix(1, 0, 0, 1, 0.5, 0.5)" fill-opacity="1">PCA, NO3</text><path fill="none" stroke="rgb(211,211,211)" paint-order="fill" d="M 162.5 388.5 L 162.5 199.5 M 350.5 388.5 L 350.5 199.5 M 537.5 388.5 L 537.5 199.5" stroke-opacity="1" stroke-linejoin="bevel" stroke-miterlimit="10" stroke-width="2" stroke-dasharray=""/><path fill="none" stroke="rgb(0,0,0)" paint-order="fill" d="M 56.5 196.5 L 56.5 5.5" stroke-opacity="1" stroke-linejoin="bevel" stroke-miterlimit="10" stroke-dasharray=""/><path fill="none" stroke="rgb(0,0,0)" paint-order="fill" d="M 50.5 179.5 L 58.5 179.5 M 50.5 138.5 L 58.5 138.5 M 50.5 96.5 L 58.5 96.5 M 50.5 54.5 L 58.5 54.5 M 50.5 13.5 L 58.5 13.5" stroke-opacity="1" stroke-linejoin="bevel" stroke-miterlimit="10" stroke-dasharray=""/><path fill="none" stroke="rgb(0,0,0)" paint-order="fill" d="M 52.5 188.5 L 56.5 188.5 M 52.5 179.5 L 56.5 179.5 M 52.5 171.5 L 56.5 171.5 M 52.5 163.5 L 56.5 163.5 M 52.5 154.5 L 56.5 154.5 M 52.5 146.5 L 56.5 146.5 M 52.5 138.5 L 56.5 138.5 M 52.5 129.5 L 56.5 129.5 M 52.5 121.5 L 56.5 121.5 M 52.5 113.5 L 56.5 113.5 M 52.5 104.5 L 56.5 104.5 M 52.5 96.5 L 56.5 96.5 M 52.5 88.5 L 56.5 88.5 M 52.5 79.5 L 56.5 79.5 M 52.5 71.5 L 56.5 71.5 M 52.5 63.5 L 56.5 63.5 M 52.5 54.5 L 56.5 54.5 M 52.5 46.5 L 56.5 46.5 M 52.5 38.5 L 56.5 38.5 M 52.5 29.5 L 56.5 29.5 M 52.5 21.5 L 56.5 21.5 M 52.5 13.5 L 56.5 13.5" stroke-opacity="1" stroke-linejoin="bevel" stroke-miterlimit="10" stroke-dasharray=""/><text fill="rgb(68,68,68)" stroke="none" font-family="helvetica" font-size="10pt" font-style="normal" font-weight="normal" text-decoration="normal" x="37.58333349227905" y="184.245112101237" text-anchor="start" dominant-baseline="alphabetic" transform="matrix(1, 0, 0, 1, 0.5, 0.5)" fill-opacity="1">0</text><text fill="rgb(68,68,68)" stroke="none" font-family="helvetica" font-size="10pt" font-style="normal" font-weight="normal" text-decoration="normal" x="37.58333349227905" y="142.5550028483073" text-anchor="start" dominant-baseline="alphabetic" transform="matrix(1, 0, 0, 1, 0.5, 0.5)" fill-opacity="1">5</text><text fill="rgb(68,68,68)" stroke="none" font-family="helvetica" font-size="10pt" font-style="normal" font-weight="normal" text-decoration="normal" x="30.166666984558105" y="100.8648935953776" text-anchor="start" dominant-baseline="alphabetic" transform="matrix(1, 0, 0, 1, 0.5, 0.5)" fill-opacity="1">10</text><text fill="rgb(68,68,68)" stroke="none" font-family="helvetica" font-size="10pt" font-style="normal" font-weight="normal" text-decoration="normal" x="30.166666984558105" y="59.17479197184245" text-anchor="start" dominant-baseline="alphabetic" transform="matrix(1, 0, 0, 1, 0.5, 0.5)" fill-opacity="1">15</text><text fill="rgb(68,68,68)" stroke="none" font-family="helvetica" font-size="10pt" font-style="normal" font-weight="normal" text-decoration="normal" x="30.166666984558105" y="17.484689394632976" text-anchor="start" dominant-baseline="alphabetic" transform="matrix(1, 0, 0, 1, 0.5, 0.5)" fill-opacity="1">20</text><text fill="rgb(68,68,68)" stroke="none" font-family="helvetica" font-size="12pt" font-style="italic" font-weight="normal" text-decoration="normal" x="-81.01666736602783" y="96.9609375" text-anchor="start" dominant-baseline="alphabetic" transform="matrix(6.123233995736766e-17, -1, 1, 6.123233995736766e-17, -77.8333330154419, 123.1666669845581)" fill-opacity="1">time to 75% of max [PCAred]</text></svg>