<svg version="1.1" xmlns="http://www.w3.org/2000/svg" xmlns:xlink="http://www.w3.org/1999/xlink" width="300" height="500"><defs><clipPath id="ykoKZoKOvTrh"><path fill="none" stroke="none" d="M 59.5 31.5 L 270.5 31.5 L 270.5 329.5 L 59.5 329.5 L 59.5 31.5"/></clipPath><clipPath id="THySOTZBVtQn"><path fill="none" stroke="none" d="M 59.5 31.5 L 270.5 31.5 L 270.5 329.5 L 59.5 329.5 L 59.5 31.5"/></clipPath><clipPath id="CHWmFHQolXIg"><path fill="none" stroke="none" d="M 59.5 31.5 L 270.5 31.5 L 270.5 329.5 L 59.5 329.5 L 59.5 31.5"/></clipPath><clipPath id="KtkaSWwIxQfR"><path fill="none" stroke="none" d="M 59.5 31.5 L 270.5 31.5 L 270.5 329.5 L 59.5 329.5 L 59.5 31.5"/></clipPath><clipPath id="wcUcMXeDXIWp"><path fill="none" stroke="none" d="M 59.5 31.5 L 270.5 31.5 L 270.5 329.5 L 59.5 329.5 L 59.5 31.5"/></clipPath></defs><path fill="rgb(255,255,255)" stroke="none" paint-order="stroke" d="M 0.5 0.5 L 300.5 0.5 L 300.5 500.5 L 0.5 500.5 L 0.5 0.5" fill-opacity="1"/><rect fill="#FFFFFF" stroke="none" x="59" y="31" width="211" height="298" transform="matrix(1, 0, 0, 1, 0.5, 0.5)"/><path fill="rgb(255,255,255)" stroke="none" paint-order="stroke" d="M 59.5 31.5 L 270.5 31.5 L 270.5 329.5 L 59.5 329.5 L 59.5 31.5" fill-opacity="1"/><path fill="none" stroke="rgb(229,229,229)" paint-order="fill" d="M 59.5 31.5 L 270.5 31.5 L 270.5 329.5 L 59.5 329.5 L 59.5 31.5" stroke-opacity="1" stroke-linejoin="bevel" stroke-miterlimit="10" stroke-dasharray=""/><path fill="none" stroke="rgb(229,229,229)" paint-order="fill" d="M 59.5 303.5 L 270.5 303.5 M 59.5 219.5 L 270.5 219.5 M 59.5 134.5 L 270.5 134.5 M 59.5 49.5 L 270.5 49.5" stroke-opacity="1" stroke-linejoin="bevel" stroke-miterlimit="10" stroke-dasharray="" clip-path="url(#THySOTZBVtQn)"/><path fill="none" stroke="none"/><path fill="rgb(174,199,232)" stroke="rgb(0,0,0)" paint-order="fill" d="M 79.97738647460938 128.66571044921875 A 5 5 0 1 1 79.97738397460958 128.66071045005208" fill-opacity="1" clip-path="url(#CHWmFHQolXIg)" stroke-opacity="0.7019607843137254" stroke-linejoin="bevel" stroke-miterlimit="10" stroke-width="2" stroke-dasharray=""/><path fill="rgb(174,199,232)" stroke="rgb(0,0,0)" paint-order="fill" d="M 78.13788604736328 141.135009765625 A 5 5 0 1 1 78.13788354736349 141.13000976645833" fill-opacity="1" clip-path="url(#CHWmFHQolXIg)" stroke-opacity="0.7019607843137254" stroke-linejoin="bevel" stroke-miterlimit="10" stroke-width="2" stroke-dasharray=""/><path fill="rgb(174,199,232)" stroke="rgb(0,0,0)" paint-order="fill" d="M 78.29063415527344 121.38835144042969 A 5 5 0 1 1 78.29063165527364 121.38335144126302" fill-opacity="1" clip-path="url(#CHWmFHQolXIg)" stroke-opacity="0.7019607843137254" stroke-linejoin="bevel" stroke-miterlimit="10" stroke-width="2" stroke-dasharray=""/><path fill="rgb(174,199,232)" stroke="rgb(0,0,0)" paint-order="fill" d="M 80.76520538330078 89.1225357055664 A 5 5 0 1 1 80.76520288330099 89.11753570639974" fill-opacity="1" clip-path="url(#CHWmFHQolXIg)" stroke-opacity="0.7019607843137254" stroke-linejoin="bevel" stroke-miterlimit="10" stroke-width="2" stroke-dasharray=""/><path fill="rgb(174,199,232)" stroke="rgb(0,0,0)" paint-order="fill" d="M 79.58634948730469 45.69047546386719 A 5 5 0 1 1 79.58634698730489 45.68547546470052" fill-opacity="1" clip-path="url(#CHWmFHQolXIg)" stroke-opacity="0.7019607843137254" stroke-linejoin="bevel" stroke-miterlimit="10" stroke-width="2" stroke-dasharray=""/><path fill="rgb(174,199,232)" stroke="rgb(0,0,0)" paint-order="fill" d="M 78.51435852050781 82.11153411865234 A 5 5 0 1 1 78.51435602050802 82.10653411948567" fill-opacity="1" clip-path="url(#CHWmFHQolXIg)" stroke-opacity="0.7019607843137254" stroke-linejoin="bevel" stroke-miterlimit="10" stroke-width="2" stroke-dasharray=""/><path fill="rgb(255,187,120)" stroke="rgb(0,0,0)" paint-order="fill" d="M 142.827880859375 295.3436279296875 A 5 5 0 1 1 142.8278783593752 295.33862793052083" fill-opacity="1" clip-path="url(#CHWmFHQolXIg)" stroke-opacity="0.7019607843137254" stroke-linejoin="bevel" stroke-miterlimit="10" stroke-width="2" stroke-dasharray=""/><path fill="rgb(255,187,120)" stroke="rgb(0,0,0)" paint-order="fill" d="M 143.7350311279297 298.68389892578125 A 5 5 0 1 1 143.7350286279299 298.6788989266146" fill-opacity="1" clip-path="url(#CHWmFHQolXIg)" stroke-opacity="0.7019607843137254" stroke-linejoin="bevel" stroke-miterlimit="10" stroke-width="2" stroke-dasharray=""/><path fill="rgb(255,187,120)" stroke="rgb(0,0,0)" paint-order="fill" d="M 143.17710876464844 296.0849914550781 A 5 5 0 1 1 143.17710626464864 296.07999145591145" fill-opacity="1" clip-path="url(#CHWmFHQolXIg)" stroke-opacity="0.7019607843137254" stroke-linejoin="bevel" stroke-miterlimit="10" stroke-width="2" stroke-dasharray=""/><path fill="rgb(214,39,40)" stroke="rgb(0,0,0)" paint-order="fill" d="M 174.21910095214844 221.89894104003906 A 5 5 0 1 1 174.21909845214864 221.8939410408724" fill-opacity="1" clip-path="url(#CHWmFHQolXIg)" stroke-opacity="0.7019607843137254" stroke-linejoin="bevel" stroke-miterlimit="10" stroke-width="2" stroke-dasharray=""/><path fill="rgb(214,39,40)" stroke="rgb(0,0,0)" paint-order="fill" d="M 166.7484130859375 208.48928833007812 A 5 5 0 1 1 166.7484105859377 208.48428833091145" fill-opacity="1" clip-path="url(#CHWmFHQolXIg)" stroke-opacity="0.7019607843137254" stroke-linejoin="bevel" stroke-miterlimit="10" stroke-width="2" stroke-dasharray=""/><path fill="rgb(214,39,40)" stroke="rgb(0,0,0)" paint-order="fill" d="M 172.3343048095703 196.19357299804688 A 5 5 0 1 1 172.33430230957052 196.1885729988802" fill-opacity="1" clip-path="url(#CHWmFHQolXIg)" stroke-opacity="0.7019607843137254" stroke-linejoin="bevel" stroke-miterlimit="10" stroke-width="2" stroke-dasharray=""/><path fill="rgb(214,39,40)" stroke="rgb(0,0,0)" paint-order="fill" d="M 173.4835968017578 235.64068603515625 A 5 5 0 1 1 173.48359430175802 235.63568603598958" fill-opacity="1" clip-path="url(#CHWmFHQolXIg)" stroke-opacity="0.7019607843137254" stroke-linejoin="bevel" stroke-miterlimit="10" stroke-width="2" stroke-dasharray=""/><path fill="rgb(214,39,40)" stroke="rgb(0,0,0)" paint-order="fill" d="M 169.52052307128906 242.6262664794922 A 5 5 0 1 1 169.52052057128927 242.62126648032552" fill-opacity="1" clip-path="url(#CHWmFHQolXIg)" stroke-opacity="0.7019607843137254" stroke-linejoin="bevel" stroke-miterlimit="10" stroke-width="2" stroke-dasharray=""/><path fill="rgb(214,39,40)" stroke="rgb(0,0,0)" paint-order="fill" d="M 170.95809936523438 238.639892578125 A 5 5 0 1 1 170.95809686523458 238.63489257895833" fill-opacity="1" clip-path="url(#CHWmFHQolXIg)" stroke-opacity="0.7019607843137254" stroke-linejoin="bevel" stroke-miterlimit="10" stroke-width="2" stroke-dasharray=""/><path fill="rgb(214,39,40)" stroke="rgb(0,0,0)" paint-order="fill" d="M 170.58087158203125 197.2992401123047 A 5 5 0 1 1 170.58086908203146 197.29424011313802" fill-opacity="1" clip-path="url(#CHWmFHQolXIg)" stroke-opacity="0.7019607843137254" stroke-linejoin="bevel" stroke-miterlimit="10" stroke-width="2" stroke-dasharray=""/><path fill="rgb(214,39,40)" stroke="rgb(0,0,0)" paint-order="fill" d="M 168.70474243164062 194.11827087402344 A 5 5 0 1 1 168.70473993164083 194.11327087485677" fill-opacity="1" clip-path="url(#CHWmFHQolXIg)" stroke-opacity="0.7019607843137254" stroke-linejoin="bevel" stroke-miterlimit="10" stroke-width="2" stroke-dasharray=""/><path fill="rgb(214,39,40)" stroke="rgb(0,0,0)" paint-order="fill" d="M 167.8120880126953 133.6136016845703 A 5 5 0 1 1 167.81208551269552 133.60860168540364" fill-opacity="1" clip-path="url(#CHWmFHQolXIg)" stroke-opacity="0.7019607843137254" stroke-linejoin="bevel" stroke-miterlimit="10" stroke-width="2" stroke-dasharray=""/><path fill="rgb(255,127,14)" stroke="rgb(0,0,0)" paint-order="fill" d="M 201.03697204589844 165.43643188476562 A 5 5 0 1 1 201.03696954589864 165.43143188559895" fill-opacity="1" clip-path="url(#CHWmFHQolXIg)" stroke-opacity="0.7019607843137254" stroke-linejoin="bevel" stroke-miterlimit="10" stroke-width="2" stroke-dasharray=""/><path fill="rgb(255,127,14)" stroke="rgb(0,0,0)" paint-order="fill" d="M 196.43077087402344 110.74162292480469 A 5 5 0 1 1 196.43076837402364 110.73662292563802" fill-opacity="1" clip-path="url(#CHWmFHQolXIg)" stroke-opacity="0.7019607843137254" stroke-linejoin="bevel" stroke-miterlimit="10" stroke-width="2" stroke-dasharray=""/><path fill="rgb(255,127,14)" stroke="rgb(0,0,0)" paint-order="fill" d="M 196.26173400878906 111.9205093383789 A 5 5 0 1 1 196.26173150878927 111.91550933921224" fill-opacity="1" clip-path="url(#CHWmFHQolXIg)" stroke-opacity="0.7019607843137254" stroke-linejoin="bevel" stroke-miterlimit="10" stroke-width="2" stroke-dasharray=""/><path fill="rgb(44,160,44)" stroke="rgb(0,0,0)" paint-order="fill" d="M 226.41871643066406 60.60256576538086 A 5 5 0 1 1 226.41871393066427 60.59756576621419" fill-opacity="1" clip-path="url(#CHWmFHQolXIg)" stroke-opacity="0.7019607843137254" stroke-linejoin="bevel" stroke-miterlimit="10" stroke-width="2" stroke-dasharray=""/><path fill="rgb(44,160,44)" stroke="rgb(0,0,0)" paint-order="fill" d="M 227.35824584960938 145.42965698242188 A 5 5 0 1 1 227.35824334960958 145.4246569832552" fill-opacity="1" clip-path="url(#CHWmFHQolXIg)" stroke-opacity="0.7019607843137254" stroke-linejoin="bevel" stroke-miterlimit="10" stroke-width="2" stroke-dasharray=""/><path fill="rgb(44,160,44)" stroke="rgb(0,0,0)" paint-order="fill" d="M 226.14744567871094 67.82576751708984 A 5 5 0 1 1 226.14744317871114 67.82076751792317" fill-opacity="1" clip-path="url(#CHWmFHQolXIg)" stroke-opacity="0.7019607843137254" stroke-linejoin="bevel" stroke-miterlimit="10" stroke-width="2" stroke-dasharray=""/><path fill="rgb(152,223,138)" stroke="rgb(0,0,0)" paint-order="fill" d="M 258.37811279296875 197.35154724121094 A 5 5 0 1 1 258.378110292969 197.34654724204427" fill-opacity="1" clip-path="url(#CHWmFHQolXIg)" stroke-opacity="0.7019607843137254" stroke-linejoin="bevel" stroke-miterlimit="10" stroke-width="2" stroke-dasharray=""/><path fill="rgb(152,223,138)" stroke="rgb(0,0,0)" paint-order="fill" d="M 258.77427673339844 190.45639038085938 A 5 5 0 1 1 258.77427423339867 190.4513903816927" fill-opacity="1" clip-path="url(#CHWmFHQolXIg)" stroke-opacity="0.7019607843137254" stroke-linejoin="bevel" stroke-miterlimit="10" stroke-width="2" stroke-dasharray=""/><path fill="rgb(152,223,138)" stroke="rgb(0,0,0)" paint-order="fill" d="M 258.6680908203125 173.4978485107422 A 5 5 0 1 1 258.66808832031273 173.49284851157552" fill-opacity="1" clip-path="url(#CHWmFHQolXIg)" stroke-opacity="0.7019607843137254" stroke-linejoin="bevel" stroke-miterlimit="10" stroke-width="2" stroke-dasharray=""/><path fill="rgb(152,223,138)" stroke="rgb(0,0,0)" paint-order="fill" d="M 262.4607849121094 187.61679077148438 A 5 5 0 1 1 262.4607824121096 187.6117907723177" fill-opacity="1" clip-path="url(#CHWmFHQolXIg)" stroke-opacity="0.7019607843137254" stroke-linejoin="bevel" stroke-miterlimit="10" stroke-width="2" stroke-dasharray=""/><path fill="none" stroke="none"/><path fill="rgb(174,199,232)" stroke="rgb(0,0,0)" paint-order="fill" d="M 72.27852630615234 88.3547134399414 L 82.27852630615234 88.3547134399414 L 82.27852630615234 98.3547134399414 L 72.27852630615234 98.3547134399414 L 72.27852630615234 88.3547134399414" fill-opacity="1" clip-path="url(#KtkaSWwIxQfR)" stroke-opacity="0.7019607843137254" stroke-linejoin="bevel" stroke-miterlimit="10" stroke-width="2" stroke-dasharray=""/><path fill="rgb(31,119,180)" stroke="rgb(0,0,0)" paint-order="fill" d="M 97.37510681152344 286.6949157714844 L 107.37510681152344 286.6949157714844 L 107.37510681152344 296.6949157714844 L 97.37510681152344 296.6949157714844 L 97.37510681152344 286.6949157714844" fill-opacity="1" clip-path="url(#KtkaSWwIxQfR)" stroke-opacity="0.7019607843137254" stroke-linejoin="bevel" stroke-miterlimit="10" stroke-width="2" stroke-dasharray=""/><path fill="rgb(31,119,180)" stroke="rgb(0,0,0)" paint-order="fill" d="M 100.46636199951172 282.0396728515625 L 110.46636199951172 282.0396728515625 L 110.46636199951172 292.0396728515625 L 100.46636199951172 292.0396728515625 L 100.46636199951172 282.0396728515625" fill-opacity="1" clip-path="url(#KtkaSWwIxQfR)" stroke-opacity="0.7019607843137254" stroke-linejoin="bevel" stroke-miterlimit="10" stroke-width="2" stroke-dasharray=""/><path fill="rgb(31,119,180)" stroke="rgb(0,0,0)" paint-order="fill" d="M 103.63565063476562 270.7076721191406 L 113.63565063476562 270.7076721191406 L 113.63565063476562 280.7076721191406 L 103.63565063476562 280.7076721191406 L 103.63565063476562 270.7076721191406" fill-opacity="1" clip-path="url(#KtkaSWwIxQfR)" stroke-opacity="0.7019607843137254" stroke-linejoin="bevel" stroke-miterlimit="10" stroke-width="2" stroke-dasharray=""/><path fill="rgb(31,119,180)" stroke="rgb(0,0,0)" paint-order="fill" d="M 96.34346771240234 286.4659118652344 L 106.34346771240234 286.4659118652344 L 106.34346771240234 296.4659118652344 L 96.34346771240234 296.4659118652344 L 96.34346771240234 286.4659118652344" fill-opacity="1" clip-path="url(#KtkaSWwIxQfR)" stroke-opacity="0.7019607843137254" stroke-linejoin="bevel" stroke-miterlimit="10" stroke-width="2" stroke-dasharray=""/><path fill="rgb(214,39,40)" stroke="rgb(0,0,0)" paint-order="fill" d="M 163.76300048828125 227.9784393310547 L 173.76300048828125 227.9784393310547 L 173.76300048828125 237.9784393310547 L 163.76300048828125 237.9784393310547 L 163.76300048828125 227.9784393310547" fill-opacity="1" clip-path="url(#KtkaSWwIxQfR)" stroke-opacity="0.7019607843137254" stroke-linejoin="bevel" stroke-miterlimit="10" stroke-width="2" stroke-dasharray=""/><path fill="rgb(44,160,44)" stroke="rgb(0,0,0)" paint-order="fill" d="M 224.0476837158203 44.3699951171875 L 234.0476837158203 44.3699951171875 L 234.0476837158203 54.3699951171875 L 224.0476837158203 54.3699951171875 L 224.0476837158203 44.3699951171875" fill-opacity="1" clip-path="url(#KtkaSWwIxQfR)" stroke-opacity="0.7019607843137254" stroke-linejoin="bevel" stroke-miterlimit="10" stroke-width="2" stroke-dasharray=""/><path fill="none" stroke="rgb(0,0,0)" paint-order="fill" d="M 59.5 329.5 L 270.5 329.5" stroke-opacity="1" stroke-linejoin="bevel" stroke-miterlimit="10" stroke-dasharray=""/><path fill="none" stroke="rgb(0,0,0)" paint-order="fill" d="M 74.5 335.5 L 74.5 327.5 M 104.5 335.5 L 104.5 327.5 M 134.5 335.5 L 134.5 327.5 M 165.5 335.5 L 165.5 327.5 M 195.5 335.5 L 195.5 327.5 M 225.5 335.5 L 225.5 327.5 M 255.5 335.5 L 255.5 327.5" stroke-opacity="1" stroke-linejoin="bevel" stroke-miterlimit="10" stroke-dasharray=""/><path fill="none" stroke="rgb(0,0,0)" paint-order="fill" d="" stroke-opacity="1" stroke-linejoin="bevel" stroke-miterlimit="10" stroke-dasharray=""/><text fill="rgb(68,68,68)" stroke="none" font-family="helvetica" font-size="12pt" font-style="normal" font-weight="normal" text-decoration="normal" x="49.20475959777832" y="345.83203125" text-anchor="start" dominant-baseline="alphabetic" transform="matrix(0.7071067811865476, -0.7071067811865475, 0.7071067811865475, 0.7071067811865476, -218.22128710548623, 152.4601022902355)" fill-opacity="1">WT</text><text fill="rgb(68,68,68)" stroke="none" font-family="helvetica" font-size="12pt" font-style="normal" font-weight="normal" text-decoration="normal" x="56.1976203918457" y="345.83203125" text-anchor="start" dominant-baseline="alphabetic" transform="matrix(0.7071067811865476, -0.7071067811865475, 0.7071067811865475, 0.7071067811865476, -209.39264769499596, 173.77432329234284)" fill-opacity="1">Abiotic</text><text fill="rgb(68,68,68)" stroke="none" font-family="helvetica" font-size="12pt" font-style="normal" font-weight="normal" text-decoration="normal" x="68.55714416503906" y="345.83203125" text-anchor="start" dominant-baseline="alphabetic" transform="matrix(0.7071067811865476, -0.7071067811865475, 0.7071067811865475, 0.7071067811865476, -200.56400828450558, 195.08854429445017)" fill-opacity="1">frdA-tlKO</text><text fill="rgb(68,68,68)" stroke="none" font-family="helvetica" font-size="12pt" font-style="normal" font-weight="normal" text-decoration="normal" x="53.349998474121094" y="345.83203125" text-anchor="start" dominant-baseline="alphabetic" transform="matrix(0.7071067811865476, -0.7071067811865475, 0.7071067811865475, 0.7071067811865476, -191.7353711086132, 216.40275990176087)" fill-opacity="1">menAubiC-tlKO</text><text fill="rgb(68,68,68)" stroke="none" font-family="helvetica" font-size="12pt" font-style="normal" font-weight="normal" text-decoration="normal" x="73.70951843261719" y="345.83203125" text-anchor="start" dominant-baseline="alphabetic" transform="matrix(0.7071067811865476, -0.7071067811865475, 0.7071067811865475, 0.7071067811865476, -182.90673393272084, 237.7169755090716)" fill-opacity="1">frdA pFE21-FrdA</text><text fill="rgb(68,68,68)" stroke="none" font-family="helvetica" font-size="12pt" font-style="normal" font-weight="normal" text-decoration="normal" x="51.369049072265625" y="345.83203125" text-anchor="start" dominant-baseline="alphabetic" transform="matrix(0.7071067811865476, -0.7071067811865475, 0.7071067811865475, 0.7071067811865476, -174.07809228763256, 259.03120190597554)" fill-opacity="1">menAubiC pFE21-MenA</text><text fill="rgb(68,68,68)" stroke="none" font-family="helvetica" font-size="12pt" font-style="normal" font-weight="normal" text-decoration="normal" x="87.76190185546875" y="345.83203125" text-anchor="start" dominant-baseline="alphabetic" transform="matrix(0.7071067811865476, -0.7071067811865475, 0.7071067811865475, 0.7071067811865476, -165.2494551117402, 280.3454175132863)" fill-opacity="1">menAubiC pFE21-UbiC</text><text fill="rgb(128,128,128)" stroke="none" font-family="helvetica" font-size="11px" font-style="normal" font-weight="bold" text-decoration="normal" x="138.22500038146973" y="494.4632582240679" text-anchor="start" dominant-baseline="alphabetic" transform="matrix(1, 0, 0, 1, 0.5, 0.5)" fill-opacity="1">PCA, Fum</text><path fill="none" stroke="rgb(0,0,0)" paint-order="fill" d="M 59.5 329.5 L 59.5 31.5" stroke-opacity="1" stroke-linejoin="bevel" stroke-miterlimit="10" stroke-dasharray=""/><path fill="none" stroke="rgb(0,0,0)" paint-order="fill" d="M 53.5 303.5 L 61.5 303.5 M 53.5 219.5 L 61.5 219.5 M 53.5 134.5 L 61.5 134.5 M 53.5 49.5 L 61.5 49.5" stroke-opacity="1" stroke-linejoin="bevel" stroke-miterlimit="10" stroke-dasharray=""/><path fill="none" stroke="rgb(0,0,0)" paint-order="fill" d="M 55.5 320.5 L 59.5 320.5 M 55.5 303.5 L 59.5 303.5 M 55.5 286.5 L 59.5 286.5 M 55.5 269.5 L 59.5 269.5 M 55.5 252.5 L 59.5 252.5 M 55.5 236.5 L 59.5 236.5 M 55.5 219.5 L 59.5 219.5 M 55.5 202.5 L 59.5 202.5 M 55.5 185.5 L 59.5 185.5 M 55.5 168.5 L 59.5 168.5 M 55.5 151.5 L 59.5 151.5 M 55.5 134.5 L 59.5 134.5 M 55.5 117.5 L 59.5 117.5 M 55.5 100.5 L 59.5 100.5 M 55.5 83.5 L 59.5 83.5 M 55.5 66.5 L 59.5 66.5 M 55.5 49.5 L 59.5 49.5 M 55.5 32.5 L 59.5 32.5" stroke-opacity="1" stroke-linejoin="bevel" stroke-miterlimit="10" stroke-dasharray=""/><text fill="rgb(68,68,68)" stroke="none" font-family="helvetica" font-size="12pt" font-style="normal" font-weight="normal" text-decoration="normal" x="39.10000038146973" y="308.9374084472656" text-anchor="start" dominant-baseline="alphabetic" transform="matrix(1, 0, 0, 1, 0.5, 0.5)" fill-opacity="1">0</text><text fill="rgb(68,68,68)" stroke="none" font-family="helvetica" font-size="12pt" font-style="normal" font-weight="normal" text-decoration="normal" x="39.10000038146973" y="224.31764221191406" text-anchor="start" dominant-baseline="alphabetic" transform="matrix(1, 0, 0, 1, 0.5, 0.5)" fill-opacity="1">5</text><text fill="rgb(68,68,68)" stroke="none" font-family="helvetica" font-size="12pt" font-style="normal" font-weight="normal" text-decoration="normal" x="30.200000762939453" y="139.69786071777344" text-anchor="start" dominant-baseline="alphabetic" transform="matrix(1, 0, 0, 1, 0.5, 0.5)" fill-opacity="1">10</text><text fill="rgb(68,68,68)" stroke="none" font-family="helvetica" font-size="12pt" font-style="normal" font-weight="normal" text-decoration="normal" x="30.200000762939453" y="55.078086853027344" text-anchor="start" dominant-baseline="alphabetic" transform="matrix(1, 0, 0, 1, 0.5, 0.5)" fill-opacity="1">15</text><text fill="rgb(68,68,68)" stroke="none" font-family="helvetica" font-size="12pt" font-style="italic" font-weight="normal" text-decoration="normal" x="-121.15000534057617" y="176.4609375" text-anchor="start" dominant-baseline="alphabetic" transform="matrix(6.123233995736766e-17, -1, 1, 6.123233995736766e-17, -157.29999923706055, 202.70000076293945)" fill-opacity="1">Maximum PCAred oxidation rate (µM/hr)</text><path fill="none" stroke="none"/><text fill="rgb(68,68,68)" stroke="none" font-family="helvetica" font-size="12pt" font-style="normal" font-weight="bold" text-decoration="normal" x="0" y="0" text-anchor="start" dominant-baseline="text-after-edge" transform="matrix(1, 0, 0, 1, 59.5, 26.5)" fill-opacity="1">Fumarate complementations</text></svg>