<svg version="1.1" xmlns="http://www.w3.org/2000/svg" xmlns:xlink="http://www.w3.org/1999/xlink" width="400" height="500"><defs><clipPath id="OwaNrswSSQtu"><path fill="none" stroke="none" d="M 59.5 31.5 L 370.5 31.5 L 370.5 351.5 L 59.5 351.5 L 59.5 31.5"/></clipPath><clipPath id="HvFoafEPsOQb"><path fill="none" stroke="none" d="M 59.5 31.5 L 370.5 31.5 L 370.5 351.5 L 59.5 351.5 L 59.5 31.5"/></clipPath><clipPath id="zdKrICgTpVMD"><path fill="none" stroke="none" d="M 59.5 31.5 L 370.5 31.5 L 370.5 351.5 L 59.5 351.5 L 59.5 31.5"/></clipPath><clipPath id="XeTuNLuuKbxJ"><path fill="none" stroke="none" d="M 59.5 31.5 L 370.5 31.5 L 370.5 351.5 L 59.5 351.5 L 59.5 31.5"/></clipPath><clipPath id="KBTiTxClNcfx"><path fill="none" stroke="none" d="M 59.5 31.5 L 370.5 31.5 L 370.5 351.5 L 59.5 351.5 L 59.5 31.5"/></clipPath></defs><path fill="rgb(255,255,255)" stroke="none" paint-order="stroke" d="M 0.5 0.5 L 400.5 0.5 L 400.5 500.5 L 0.5 500.5 L 0.5 0.5" fill-opacity="1"/><rect fill="#FFFFFF" stroke="none" x="59" y="31" width="311" height="320" transform="matrix(1, 0, 0, 1, 0.5, 0.5)"/><path fill="rgb(255,255,255)" stroke="none" paint-order="stroke" d="M 59.5 31.5 L 370.5 31.5 L 370.5 351.5 L 59.5 351.5 L 59.5 31.5" fill-opacity="1"/><path fill="none" stroke="rgb(229,229,229)" paint-order="fill" d="M 59.5 31.5 L 370.5 31.5 L 370.5 351.5 L 59.5 351.5 L 59.5 31.5" stroke-opacity="1" stroke-linejoin="bevel" stroke-miterlimit="10" stroke-dasharray=""/><path fill="none" stroke="rgb(229,229,229)" paint-order="fill" d="M 59.5 323.5 L 370.5 323.5 M 59.5 278.5 L 370.5 278.5 M 59.5 233.5 L 370.5 233.5 M 59.5 189.5 L 370.5 189.5 M 59.5 144.5 L 370.5 144.5 M 59.5 99.5 L 370.5 99.5 M 59.5 54.5 L 370.5 54.5" stroke-opacity="1" stroke-linejoin="bevel" stroke-miterlimit="10" stroke-dasharray="" clip-path="url(#HvFoafEPsOQb)"/><path fill="none" stroke="none"/><path fill="none" stroke="none"/><path fill="rgb(31,119,180)" stroke="rgb(0,0,0)" paint-order="fill" d="M 76.8165512084961 277.61669921875 L 86.8165512084961 277.61669921875 L 86.8165512084961 287.61669921875 L 76.8165512084961 287.61669921875 L 76.8165512084961 277.61669921875" fill-opacity="1" clip-path="url(#XeTuNLuuKbxJ)" stroke-opacity="0.7019607843137254" stroke-linejoin="bevel" stroke-miterlimit="10" stroke-width="2" stroke-dasharray=""/><path fill="rgb(31,119,180)" stroke="rgb(0,0,0)" paint-order="fill" d="M 78.0570068359375 272.00054931640625 L 88.0570068359375 272.00054931640625 L 88.0570068359375 282.00054931640625 L 78.0570068359375 282.00054931640625 L 78.0570068359375 272.00054931640625" fill-opacity="1" clip-path="url(#XeTuNLuuKbxJ)" stroke-opacity="0.7019607843137254" stroke-linejoin="bevel" stroke-miterlimit="10" stroke-width="2" stroke-dasharray=""/><path fill="rgb(31,119,180)" stroke="rgb(0,0,0)" paint-order="fill" d="M 75.97869110107422 270.135986328125 L 85.97869110107422 270.135986328125 L 85.97869110107422 280.135986328125 L 75.97869110107422 280.135986328125 L 75.97869110107422 270.135986328125" fill-opacity="1" clip-path="url(#XeTuNLuuKbxJ)" stroke-opacity="0.7019607843137254" stroke-linejoin="bevel" stroke-miterlimit="10" stroke-width="2" stroke-dasharray=""/><path fill="rgb(174,199,232)" stroke="rgb(0,0,0)" paint-order="fill" d="M 108.56732940673828 275.75213623046875 L 118.56732940673828 275.75213623046875 L 118.56732940673828 285.75213623046875 L 108.56732940673828 285.75213623046875 L 108.56732940673828 275.75213623046875" fill-opacity="1" clip-path="url(#XeTuNLuuKbxJ)" stroke-opacity="0.7019607843137254" stroke-linejoin="bevel" stroke-miterlimit="10" stroke-width="2" stroke-dasharray=""/><path fill="rgb(44,160,44)" stroke="rgb(0,0,0)" paint-order="fill" d="M 157.20770263671875 139.09979248046875 L 167.20770263671875 139.09979248046875 L 167.20770263671875 149.09979248046875 L 157.20770263671875 149.09979248046875 L 157.20770263671875 139.09979248046875" fill-opacity="1" clip-path="url(#XeTuNLuuKbxJ)" stroke-opacity="0.7019607843137254" stroke-linejoin="bevel" stroke-miterlimit="10" stroke-width="2" stroke-dasharray=""/><path fill="rgb(255,152,150)" stroke="rgb(0,0,0)" paint-order="fill" d="M 185.27850341796875 277.61669921875 L 195.27850341796875 277.61669921875 L 195.27850341796875 287.61669921875 L 185.27850341796875 287.61669921875 L 185.27850341796875 277.61669921875" fill-opacity="1" clip-path="url(#XeTuNLuuKbxJ)" stroke-opacity="0.7019607843137254" stroke-linejoin="bevel" stroke-miterlimit="10" stroke-width="2" stroke-dasharray=""/><path fill="rgb(174,199,232)" stroke="rgb(0,0,0)" paint-order="fill" d="M 111.31694793701172 279.50372314453125 L 121.31694793701172 279.50372314453125 L 121.31694793701172 289.50372314453125 L 111.31694793701172 289.50372314453125 L 111.31694793701172 279.50372314453125" fill-opacity="1" clip-path="url(#XeTuNLuuKbxJ)" stroke-opacity="0.7019607843137254" stroke-linejoin="bevel" stroke-miterlimit="10" stroke-width="2" stroke-dasharray=""/><path fill="rgb(44,160,44)" stroke="rgb(0,0,0)" paint-order="fill" d="M 146.857666015625 184.029052734375 L 156.857666015625 184.029052734375 L 156.857666015625 194.029052734375 L 146.857666015625 194.029052734375 L 146.857666015625 184.029052734375" fill-opacity="1" clip-path="url(#XeTuNLuuKbxJ)" stroke-opacity="0.7019607843137254" stroke-linejoin="bevel" stroke-miterlimit="10" stroke-width="2" stroke-dasharray=""/><path fill="rgb(255,152,150)" stroke="rgb(0,0,0)" paint-order="fill" d="M 189.058349609375 283.23284912109375 L 199.058349609375 283.23284912109375 L 199.058349609375 293.23284912109375 L 189.058349609375 293.23284912109375 L 189.058349609375 283.23284912109375" fill-opacity="1" clip-path="url(#XeTuNLuuKbxJ)" stroke-opacity="0.7019607843137254" stroke-linejoin="bevel" stroke-miterlimit="10" stroke-width="2" stroke-dasharray=""/><path fill="rgb(174,199,232)" stroke="rgb(0,0,0)" paint-order="fill" d="M 114.08460998535156 268.27142333984375 L 124.08460998535156 268.27142333984375 L 124.08460998535156 278.27142333984375 L 114.08460998535156 278.27142333984375 L 114.08460998535156 268.27142333984375" fill-opacity="1" clip-path="url(#XeTuNLuuKbxJ)" stroke-opacity="0.7019607843137254" stroke-linejoin="bevel" stroke-miterlimit="10" stroke-width="2" stroke-dasharray=""/><path fill="rgb(44,160,44)" stroke="rgb(0,0,0)" paint-order="fill" d="M 149.96852111816406 103.51582336425781 L 159.96852111816406 103.51582336425781 L 159.96852111816406 113.51582336425781 L 149.96852111816406 113.51582336425781 L 149.96852111816406 103.51582336425781" fill-opacity="1" clip-path="url(#XeTuNLuuKbxJ)" stroke-opacity="0.7019607843137254" stroke-linejoin="bevel" stroke-miterlimit="10" stroke-width="2" stroke-dasharray=""/><path fill="rgb(255,152,150)" stroke="rgb(0,0,0)" paint-order="fill" d="M 192.43081665039062 270.135986328125 L 202.43081665039062 270.135986328125 L 202.43081665039062 280.135986328125 L 192.43081665039062 280.135986328125 L 192.43081665039062 270.135986328125" fill-opacity="1" clip-path="url(#XeTuNLuuKbxJ)" stroke-opacity="0.7019607843137254" stroke-linejoin="bevel" stroke-miterlimit="10" stroke-width="2" stroke-dasharray=""/><path fill="rgb(255,127,14)" stroke="rgb(0,0,0)" paint-order="fill" d="M 225.89645385742188 275.75213623046875 L 235.89645385742188 275.75213623046875 L 235.89645385742188 285.75213623046875 L 225.89645385742188 285.75213623046875 L 225.89645385742188 275.75213623046875" fill-opacity="1" clip-path="url(#XeTuNLuuKbxJ)" stroke-opacity="0.7019607843137254" stroke-linejoin="bevel" stroke-miterlimit="10" stroke-width="2" stroke-dasharray=""/><path fill="rgb(152,223,138)" stroke="rgb(0,0,0)" paint-order="fill" d="M 271.5296325683594 161.54196166992188 L 281.5296325683594 161.54196166992188 L 281.5296325683594 171.54196166992188 L 271.5296325683594 171.54196166992188 L 271.5296325683594 161.54196166992188" fill-opacity="1" clip-path="url(#XeTuNLuuKbxJ)" stroke-opacity="0.7019607843137254" stroke-linejoin="bevel" stroke-miterlimit="10" stroke-width="2" stroke-dasharray=""/><path fill="rgb(214,39,40)" stroke="rgb(0,0,0)" paint-order="fill" d="M 302.71331787109375 41.738094329833984 L 312.71331787109375 41.738094329833984 L 312.71331787109375 51.738094329833984 L 302.71331787109375 51.738094329833984 L 302.71331787109375 41.738094329833984" fill-opacity="1" clip-path="url(#XeTuNLuuKbxJ)" stroke-opacity="0.7019607843137254" stroke-linejoin="bevel" stroke-miterlimit="10" stroke-width="2" stroke-dasharray=""/><path fill="rgb(255,127,14)" stroke="rgb(0,0,0)" paint-order="fill" d="M 233.99386596679688 279.50372314453125 L 243.99386596679688 279.50372314453125 L 243.99386596679688 289.50372314453125 L 233.99386596679688 289.50372314453125 L 233.99386596679688 279.50372314453125" fill-opacity="1" clip-path="url(#XeTuNLuuKbxJ)" stroke-opacity="0.7019607843137254" stroke-linejoin="bevel" stroke-miterlimit="10" stroke-width="2" stroke-dasharray=""/><path fill="rgb(152,223,138)" stroke="rgb(0,0,0)" paint-order="fill" d="M 273.26495361328125 142.8289337158203 L 283.26495361328125 142.8289337158203 L 283.26495361328125 152.8289337158203 L 273.26495361328125 152.8289337158203 L 273.26495361328125 142.8289337158203" fill-opacity="1" clip-path="url(#XeTuNLuuKbxJ)" stroke-opacity="0.7019607843137254" stroke-linejoin="bevel" stroke-miterlimit="10" stroke-width="2" stroke-dasharray=""/><path fill="rgb(214,39,40)" stroke="rgb(0,0,0)" paint-order="fill" d="M 308.9876403808594 64.20272827148438 L 318.9876403808594 64.20272827148438 L 318.9876403808594 74.20272827148438 L 308.9876403808594 74.20272827148438 L 308.9876403808594 64.20272827148438" fill-opacity="1" clip-path="url(#XeTuNLuuKbxJ)" stroke-opacity="0.7019607843137254" stroke-linejoin="bevel" stroke-miterlimit="10" stroke-width="2" stroke-dasharray=""/><path fill="rgb(255,127,14)" stroke="rgb(0,0,0)" paint-order="fill" d="M 224.79696655273438 262.6552734375 L 234.79696655273438 262.6552734375 L 234.79696655273438 272.6552734375 L 224.79696655273438 272.6552734375 L 224.79696655273438 262.6552734375" fill-opacity="1" clip-path="url(#XeTuNLuuKbxJ)" stroke-opacity="0.7019607843137254" stroke-linejoin="bevel" stroke-miterlimit="10" stroke-width="2" stroke-dasharray=""/><path fill="rgb(152,223,138)" stroke="rgb(0,0,0)" paint-order="fill" d="M 265.32025146484375 129.7320556640625 L 275.32025146484375 129.7320556640625 L 275.32025146484375 139.7320556640625 L 265.32025146484375 139.7320556640625 L 265.32025146484375 129.7320556640625" fill-opacity="1" clip-path="url(#XeTuNLuuKbxJ)" stroke-opacity="0.7019607843137254" stroke-linejoin="bevel" stroke-miterlimit="10" stroke-width="2" stroke-dasharray=""/><path fill="none" stroke="rgb(0,0,0)" paint-order="fill" d="M 59.5 351.5 L 370.5 351.5" stroke-opacity="1" stroke-linejoin="bevel" stroke-miterlimit="10" stroke-dasharray=""/><path fill="none" stroke="rgb(0,0,0)" paint-order="fill" d="M 78.5 357.5 L 78.5 349.5 M 117.5 357.5 L 117.5 349.5 M 156.5 357.5 L 156.5 349.5 M 195.5 357.5 L 195.5 349.5 M 234.5 357.5 L 234.5 349.5 M 273.5 357.5 L 273.5 349.5 M 312.5 357.5 L 312.5 349.5 M 351.5 357.5 L 351.5 349.5" stroke-opacity="1" stroke-linejoin="bevel" stroke-miterlimit="10" stroke-dasharray=""/><path fill="none" stroke="rgb(0,0,0)" paint-order="fill" d="" stroke-opacity="1" stroke-linejoin="bevel" stroke-miterlimit="10" stroke-dasharray=""/><text fill="rgb(68,68,68)" stroke="none" font-family="helvetica" font-size="12pt" font-style="normal" font-weight="normal" text-decoration="normal" x="53.57083320617676" y="367.83203125" text-anchor="start" dominant-baseline="alphabetic" transform="matrix(0.7071067811865476, -0.7071067811865475, 0.7071067811865475, 0.7071067811865476, -232.49884293884998, 161.99103335978958)" fill-opacity="1">WT</text><text fill="rgb(68,68,68)" stroke="none" font-family="helvetica" font-size="12pt" font-style="normal" font-weight="normal" text-decoration="normal" x="43.49583435058594" y="367.83203125" text-anchor="start" dominant-baseline="alphabetic" transform="matrix(0.7071067811865476, -0.7071067811865475, 0.7071067811865475, 0.7071067811865476, -221.11261905747705, 189.47980947841663)" fill-opacity="1">napA-tlKO</text><text fill="rgb(68,68,68)" stroke="none" font-family="helvetica" font-size="12pt" font-style="normal" font-weight="normal" text-decoration="normal" x="84.15416717529297" y="367.83203125" text-anchor="start" dominant-baseline="alphabetic" transform="matrix(0.7071067811865476, -0.7071067811865475, 0.7071067811865475, 0.7071067811865476, -209.72639517610406, 216.96858559704367)" fill-opacity="1">narG-tlKO</text><text fill="rgb(68,68,68)" stroke="none" font-family="helvetica" font-size="12pt" font-style="normal" font-weight="normal" text-decoration="normal" x="125.7125015258789" y="367.83203125" text-anchor="start" dominant-baseline="alphabetic" transform="matrix(0.7071067811865476, -0.7071067811865475, 0.7071067811865475, 0.7071067811865476, -198.34017129473114, 244.4573617156707)" fill-opacity="1">narZ-tlKO</text><text fill="rgb(68,68,68)" stroke="none" font-family="helvetica" font-size="12pt" font-style="normal" font-weight="normal" text-decoration="normal" x="127.22083282470703" y="367.83203125" text-anchor="start" dominant-baseline="alphabetic" transform="matrix(0.7071067811865476, -0.7071067811865475, 0.7071067811865475, 0.7071067811865476, -186.95394741335815, 271.9461378342977)" fill-opacity="1">napAnarZ-tlKO</text><text fill="rgb(68,68,68)" stroke="none" font-family="helvetica" font-size="12pt" font-style="normal" font-weight="normal" text-decoration="normal" x="163.4124984741211" y="367.83203125" text-anchor="start" dominant-baseline="alphabetic" transform="matrix(0.7071067811865476, -0.7071067811865475, 0.7071067811865475, 0.7071067811865476, -175.56772353198517, 299.4349139529247)" fill-opacity="1">narGnapA-tlKO</text><text fill="rgb(68,68,68)" stroke="none" font-family="helvetica" font-size="12pt" font-style="normal" font-weight="normal" text-decoration="normal" x="206.75416564941406" y="367.83203125" text-anchor="start" dominant-baseline="alphabetic" transform="matrix(0.7071067811865476, -0.7071067811865475, 0.7071067811865475, 0.7071067811865476, -164.18149965061218, 326.9236900715518)" fill-opacity="1">narGnarZ-tlKO</text><text fill="rgb(68,68,68)" stroke="none" font-family="helvetica" font-size="12pt" font-style="normal" font-weight="normal" text-decoration="normal" x="208.2624969482422" y="367.83203125" text-anchor="start" dominant-baseline="alphabetic" transform="matrix(0.7071067811865476, -0.7071067811865475, 0.7071067811865475, 0.7071067811865476, -152.79527576923925, 354.41246619017886)" fill-opacity="1">napAnarZnarG-tlKO</text><text fill="rgb(128,128,128)" stroke="none" font-family="helvetica" font-size="11px" font-style="normal" font-weight="bold" text-decoration="normal" x="188.52499961853027" y="494.4604507775341" text-anchor="start" dominant-baseline="alphabetic" transform="matrix(1, 0, 0, 1, 0.5, 0.5)" fill-opacity="1">PCA, NO3</text><path fill="none" stroke="rgb(0,0,0)" paint-order="fill" d="M 59.5 351.5 L 59.5 31.5" stroke-opacity="1" stroke-linejoin="bevel" stroke-miterlimit="10" stroke-dasharray=""/><path fill="none" stroke="rgb(0,0,0)" paint-order="fill" d="M 53.5 323.5 L 61.5 323.5 M 53.5 278.5 L 61.5 278.5 M 53.5 233.5 L 61.5 233.5 M 53.5 189.5 L 61.5 189.5 M 53.5 144.5 L 61.5 144.5 M 53.5 99.5 L 61.5 99.5 M 53.5 54.5 L 61.5 54.5" stroke-opacity="1" stroke-linejoin="bevel" stroke-miterlimit="10" stroke-dasharray=""/><path fill="none" stroke="rgb(0,0,0)" paint-order="fill" d="M 55.5 332.5 L 59.5 332.5 M 55.5 341.5 L 59.5 341.5 M 55.5 350.5 L 59.5 350.5 M 55.5 323.5 L 59.5 323.5 M 55.5 314.5 L 59.5 314.5 M 55.5 305.5 L 59.5 305.5 M 55.5 296.5 L 59.5 296.5 M 55.5 287.5 L 59.5 287.5 M 55.5 278.5 L 59.5 278.5 M 55.5 269.5 L 59.5 269.5 M 55.5 260.5 L 59.5 260.5 M 55.5 251.5 L 59.5 251.5 M 55.5 242.5 L 59.5 242.5 M 55.5 233.5 L 59.5 233.5 M 55.5 224.5 L 59.5 224.5 M 55.5 215.5 L 59.5 215.5 M 55.5 206.5 L 59.5 206.5 M 55.5 197.5 L 59.5 197.5 M 55.5 189.5 L 59.5 189.5 M 55.5 180.5 L 59.5 180.5 M 55.5 171.5 L 59.5 171.5 M 55.5 162.5 L 59.5 162.5 M 55.5 153.5 L 59.5 153.5 M 55.5 144.5 L 59.5 144.5 M 55.5 135.5 L 59.5 135.5 M 55.5 126.5 L 59.5 126.5 M 55.5 117.5 L 59.5 117.5 M 55.5 108.5 L 59.5 108.5 M 55.5 99.5 L 59.5 99.5 M 55.5 90.5 L 59.5 90.5 M 55.5 81.5 L 59.5 81.5 M 55.5 72.5 L 59.5 72.5 M 55.5 63.5 L 59.5 63.5 M 55.5 54.5 L 59.5 54.5 M 55.5 45.5 L 59.5 45.5 M 55.5 36.5 L 59.5 36.5" stroke-opacity="1" stroke-linejoin="bevel" stroke-miterlimit="10" stroke-dasharray=""/><text fill="rgb(68,68,68)" stroke="none" font-family="helvetica" font-size="12pt" font-style="normal" font-weight="normal" text-decoration="normal" x="39.10000038146973" y="329.03265380859375" text-anchor="start" dominant-baseline="alphabetic" transform="matrix(1, 0, 0, 1, 0.5, 0.5)" fill-opacity="1">0</text><text fill="rgb(68,68,68)" stroke="none" font-family="helvetica" font-size="12pt" font-style="normal" font-weight="normal" text-decoration="normal" x="39.10000038146973" y="284.1033935546875" text-anchor="start" dominant-baseline="alphabetic" transform="matrix(1, 0, 0, 1, 0.5, 0.5)" fill-opacity="1">2</text><text fill="rgb(68,68,68)" stroke="none" font-family="helvetica" font-size="12pt" font-style="normal" font-weight="normal" text-decoration="normal" x="39.10000038146973" y="239.17413330078125" text-anchor="start" dominant-baseline="alphabetic" transform="matrix(1, 0, 0, 1, 0.5, 0.5)" fill-opacity="1">4</text><text fill="rgb(68,68,68)" stroke="none" font-family="helvetica" font-size="12pt" font-style="normal" font-weight="normal" text-decoration="normal" x="39.10000038146973" y="194.244873046875" text-anchor="start" dominant-baseline="alphabetic" transform="matrix(1, 0, 0, 1, 0.5, 0.5)" fill-opacity="1">6</text><text fill="rgb(68,68,68)" stroke="none" font-family="helvetica" font-size="12pt" font-style="normal" font-weight="normal" text-decoration="normal" x="39.10000038146973" y="149.31561279296875" text-anchor="start" dominant-baseline="alphabetic" transform="matrix(1, 0, 0, 1, 0.5, 0.5)" fill-opacity="1">8</text><text fill="rgb(68,68,68)" stroke="none" font-family="helvetica" font-size="12pt" font-style="normal" font-weight="normal" text-decoration="normal" x="30.200000762939453" y="104.38636016845703" text-anchor="start" dominant-baseline="alphabetic" transform="matrix(1, 0, 0, 1, 0.5, 0.5)" fill-opacity="1">10</text><text fill="rgb(68,68,68)" stroke="none" font-family="helvetica" font-size="12pt" font-style="normal" font-weight="normal" text-decoration="normal" x="30.200000762939453" y="59.45709991455078" text-anchor="start" dominant-baseline="alphabetic" transform="matrix(1, 0, 0, 1, 0.5, 0.5)" fill-opacity="1">12</text><text fill="rgb(68,68,68)" stroke="none" font-family="helvetica" font-size="12pt" font-style="italic" font-weight="normal" text-decoration="normal" x="-128.7083396911621" y="187.4609375" text-anchor="start" dominant-baseline="alphabetic" transform="matrix(6.123233995736766e-17, -1, 1, 6.123233995736766e-17, -168.29999923706055, 213.70000076293945)" fill-opacity="1">Time to 50% max [PCAred] from max (hrs)</text><path fill="none" stroke="none"/><text fill="rgb(68,68,68)" stroke="none" font-family="helvetica" font-size="12pt" font-style="normal" font-weight="bold" text-decoration="normal" x="0" y="0" text-anchor="start" dominant-baseline="text-after-edge" transform="matrix(1, 0, 0, 1, 59.5, 26.5)" fill-opacity="1"> </text></svg>