<svg version="1.1" xmlns="http://www.w3.org/2000/svg" xmlns:xlink="http://www.w3.org/1999/xlink" width="250" height="320"><defs><clipPath id="nJHyLUEWfXTE"><path fill="none" stroke="none" d="M 59.5 31.5 L 220.5 31.5 L 220.5 196.5 L 59.5 196.5 L 59.5 31.5"/></clipPath><clipPath id="ITqCFSSLvJgP"><path fill="none" stroke="none" d="M 59.5 31.5 L 220.5 31.5 L 220.5 196.5 L 59.5 196.5 L 59.5 31.5"/></clipPath><clipPath id="IoxZOMhhIusM"><path fill="none" stroke="none" d="M 59.5 31.5 L 220.5 31.5 L 220.5 196.5 L 59.5 196.5 L 59.5 31.5"/></clipPath><clipPath id="pLNZmIhfnEfZ"><path fill="none" stroke="none" d="M 59.5 31.5 L 220.5 31.5 L 220.5 196.5 L 59.5 196.5 L 59.5 31.5"/></clipPath><clipPath id="womDchPPvOpZ"><path fill="none" stroke="none" d="M 59.5 31.5 L 220.5 31.5 L 220.5 196.5 L 59.5 196.5 L 59.5 31.5"/></clipPath></defs><path fill="rgb(255,255,255)" stroke="none" paint-order="stroke" d="M 0.5 0.5 L 250.5 0.5 L 250.5 320.5 L 0.5 320.5 L 0.5 0.5" fill-opacity="1"/><rect fill="#FFFFFF" stroke="none" x="59" y="31" width="161" height="165" transform="matrix(1, 0, 0, 1, 0.5, 0.5)"/><path fill="rgb(255,255,255)" stroke="none" paint-order="stroke" d="M 59.5 31.5 L 220.5 31.5 L 220.5 196.5 L 59.5 196.5 L 59.5 31.5" fill-opacity="1"/><path fill="none" stroke="rgb(229,229,229)" paint-order="fill" d="M 59.5 31.5 L 220.5 31.5 L 220.5 196.5 L 59.5 196.5 L 59.5 31.5" stroke-opacity="1" stroke-linejoin="bevel" stroke-miterlimit="10" stroke-dasharray=""/><path fill="none" stroke="rgb(229,229,229)" paint-order="fill" d="M 59.5 182.5 L 220.5 182.5 M 59.5 153.5 L 220.5 153.5 M 59.5 124.5 L 220.5 124.5 M 59.5 95.5 L 220.5 95.5 M 59.5 66.5 L 220.5 66.5 M 59.5 37.5 L 220.5 37.5" stroke-opacity="1" stroke-linejoin="bevel" stroke-miterlimit="10" stroke-dasharray="" clip-path="url(#ITqCFSSLvJgP)"/><path fill="none" stroke="none"/><path fill="rgb(174,199,232)" stroke="rgb(0,0,0)" paint-order="fill" d="M 76.90426635742188 97.14859008789062 A 5 5 0 1 1 76.90426385742208 97.14359008872395" fill-opacity="1" clip-path="url(#IoxZOMhhIusM)" stroke-opacity="0.7019607843137254" stroke-linejoin="bevel" stroke-miterlimit="10" stroke-width="2" stroke-dasharray=""/><path fill="rgb(174,199,232)" stroke="rgb(0,0,0)" paint-order="fill" d="M 85.1385498046875 109.2964859008789 A 5 5 0 1 1 85.1385473046877 109.29148590171224" fill-opacity="1" clip-path="url(#IoxZOMhhIusM)" stroke-opacity="0.7019607843137254" stroke-linejoin="bevel" stroke-miterlimit="10" stroke-width="2" stroke-dasharray=""/><path fill="rgb(174,199,232)" stroke="rgb(0,0,0)" paint-order="fill" d="M 82.06586456298828 105.40673065185547 A 5 5 0 1 1 82.06586206298849 105.4017306526888" fill-opacity="1" clip-path="url(#IoxZOMhhIusM)" stroke-opacity="0.7019607843137254" stroke-linejoin="bevel" stroke-miterlimit="10" stroke-width="2" stroke-dasharray=""/><path fill="rgb(174,199,232)" stroke="rgb(0,0,0)" paint-order="fill" d="M 83.98310852050781 102.97173309326172 A 5 5 0 1 1 83.98310602050802 102.96673309409505" fill-opacity="1" clip-path="url(#IoxZOMhhIusM)" stroke-opacity="0.7019607843137254" stroke-linejoin="bevel" stroke-miterlimit="10" stroke-width="2" stroke-dasharray=""/><path fill="rgb(174,199,232)" stroke="rgb(0,0,0)" paint-order="fill" d="M 85.4041976928711 120.82391357421875 A 5 5 0 1 1 85.4041951928713 120.81891357505208" fill-opacity="1" clip-path="url(#IoxZOMhhIusM)" stroke-opacity="0.7019607843137254" stroke-linejoin="bevel" stroke-miterlimit="10" stroke-width="2" stroke-dasharray=""/><path fill="rgb(255,127,14)" stroke="rgb(0,0,0)" paint-order="fill" d="M 146.60421752929688 156.8244171142578 A 5 5 0 1 1 146.60421502929708 156.81941711509114" fill-opacity="1" clip-path="url(#IoxZOMhhIusM)" stroke-opacity="0.7019607843137254" stroke-linejoin="bevel" stroke-miterlimit="10" stroke-width="2" stroke-dasharray=""/><path fill="rgb(255,127,14)" stroke="rgb(0,0,0)" paint-order="fill" d="M 143.1479949951172 155.3934326171875 A 5 5 0 1 1 143.1479924951174 155.38843261802083" fill-opacity="1" clip-path="url(#IoxZOMhhIusM)" stroke-opacity="0.7019607843137254" stroke-linejoin="bevel" stroke-miterlimit="10" stroke-width="2" stroke-dasharray=""/><path fill="rgb(255,127,14)" stroke="rgb(0,0,0)" paint-order="fill" d="M 148.67393493652344 153.4443359375 A 5 5 0 1 1 148.67393243652364 153.43933593833333" fill-opacity="1" clip-path="url(#IoxZOMhhIusM)" stroke-opacity="0.7019607843137254" stroke-linejoin="bevel" stroke-miterlimit="10" stroke-width="2" stroke-dasharray=""/><path fill="rgb(255,127,14)" stroke="rgb(0,0,0)" paint-order="fill" d="M 146.58351135253906 152.5771026611328 A 5 5 0 1 1 146.58350885253927 152.57210266196614" fill-opacity="1" clip-path="url(#IoxZOMhhIusM)" stroke-opacity="0.7019607843137254" stroke-linejoin="bevel" stroke-miterlimit="10" stroke-width="2" stroke-dasharray=""/><path fill="rgb(255,127,14)" stroke="rgb(0,0,0)" paint-order="fill" d="M 141.4364471435547 154.83677673339844 A 5 5 0 1 1 141.4364446435549 154.83177673423177" fill-opacity="1" clip-path="url(#IoxZOMhhIusM)" stroke-opacity="0.7019607843137254" stroke-linejoin="bevel" stroke-miterlimit="10" stroke-width="2" stroke-dasharray=""/><path fill="rgb(44,160,44)" stroke="rgb(0,0,0)" paint-order="fill" d="M 180.32589721679688 56.924198150634766 A 5 5 0 1 1 180.32589471679708 56.919198151468095" fill-opacity="1" clip-path="url(#IoxZOMhhIusM)" stroke-opacity="0.7019607843137254" stroke-linejoin="bevel" stroke-miterlimit="10" stroke-width="2" stroke-dasharray=""/><path fill="rgb(44,160,44)" stroke="rgb(0,0,0)" paint-order="fill" d="M 181.2096710205078 51.54570007324219 A 5 5 0 1 1 181.20966852050802 51.54070007407552" fill-opacity="1" clip-path="url(#IoxZOMhhIusM)" stroke-opacity="0.7019607843137254" stroke-linejoin="bevel" stroke-miterlimit="10" stroke-width="2" stroke-dasharray=""/><path fill="rgb(44,160,44)" stroke="rgb(0,0,0)" paint-order="fill" d="M 172.8158721923828 54.698448181152344 A 5 5 0 1 1 172.81586969238302 54.69344818198567" fill-opacity="1" clip-path="url(#IoxZOMhhIusM)" stroke-opacity="0.7019607843137254" stroke-linejoin="bevel" stroke-miterlimit="10" stroke-width="2" stroke-dasharray=""/><path fill="rgb(44,160,44)" stroke="rgb(0,0,0)" paint-order="fill" d="M 177.10549926757812 39.35714340209961 A 5 5 0 1 1 177.10549676757833 39.35214340293294" fill-opacity="1" clip-path="url(#IoxZOMhhIusM)" stroke-opacity="0.7019607843137254" stroke-linejoin="bevel" stroke-miterlimit="10" stroke-width="2" stroke-dasharray=""/><path fill="rgb(44,160,44)" stroke="rgb(0,0,0)" paint-order="fill" d="M 176.64137268066406 68.12471008300781 A 5 5 0 1 1 176.64137018066427 68.11971008384114" fill-opacity="1" clip-path="url(#IoxZOMhhIusM)" stroke-opacity="0.7019607843137254" stroke-linejoin="bevel" stroke-miterlimit="10" stroke-width="2" stroke-dasharray=""/><path fill="rgb(255,187,120)" stroke="rgb(0,0,0)" paint-order="fill" d="M 212.7686767578125 138.47882080078125 A 5 5 0 1 1 212.7686742578127 138.47382080161458" fill-opacity="1" clip-path="url(#IoxZOMhhIusM)" stroke-opacity="0.7019607843137254" stroke-linejoin="bevel" stroke-miterlimit="10" stroke-width="2" stroke-dasharray=""/><path fill="rgb(255,187,120)" stroke="rgb(0,0,0)" paint-order="fill" d="M 205.71481323242188 139.38604736328125 A 5 5 0 1 1 205.71481073242208 139.38104736411458" fill-opacity="1" clip-path="url(#IoxZOMhhIusM)" stroke-opacity="0.7019607843137254" stroke-linejoin="bevel" stroke-miterlimit="10" stroke-width="2" stroke-dasharray=""/><path fill="rgb(255,187,120)" stroke="rgb(0,0,0)" paint-order="fill" d="M 207.01193237304688 142.60107421875 A 5 5 0 1 1 207.01192987304708 142.59607421958333" fill-opacity="1" clip-path="url(#IoxZOMhhIusM)" stroke-opacity="0.7019607843137254" stroke-linejoin="bevel" stroke-miterlimit="10" stroke-width="2" stroke-dasharray=""/><path fill="rgb(255,187,120)" stroke="rgb(0,0,0)" paint-order="fill" d="M 210.5244598388672 138.23318481445312 A 5 5 0 1 1 210.5244573388674 138.22818481528645" fill-opacity="1" clip-path="url(#IoxZOMhhIusM)" stroke-opacity="0.7019607843137254" stroke-linejoin="bevel" stroke-miterlimit="10" stroke-width="2" stroke-dasharray=""/><path fill="rgb(255,187,120)" stroke="rgb(0,0,0)" paint-order="fill" d="M 213.6991424560547 138.39666748046875 A 5 5 0 1 1 213.6991399560549 138.39166748130208" fill-opacity="1" clip-path="url(#IoxZOMhhIusM)" stroke-opacity="0.7019607843137254" stroke-linejoin="bevel" stroke-miterlimit="10" stroke-width="2" stroke-dasharray=""/><path fill="none" stroke="none"/><path fill="rgb(31,119,180)" stroke="rgb(0,0,0)" paint-order="fill" d="M 101.05071258544922 171.16488647460938 L 111.05071258544922 171.16488647460938 L 111.05071258544922 181.16488647460938 L 101.05071258544922 181.16488647460938 L 101.05071258544922 171.16488647460938" fill-opacity="1" clip-path="url(#pLNZmIhfnEfZ)" stroke-opacity="0.7019607843137254" stroke-linejoin="bevel" stroke-miterlimit="10" stroke-width="2" stroke-dasharray=""/><path fill="rgb(31,119,180)" stroke="rgb(0,0,0)" paint-order="fill" d="M 98.5056381225586 167.3462371826172 L 108.5056381225586 167.3462371826172 L 108.5056381225586 177.3462371826172 L 98.5056381225586 177.3462371826172 L 98.5056381225586 167.3462371826172" fill-opacity="1" clip-path="url(#pLNZmIhfnEfZ)" stroke-opacity="0.7019607843137254" stroke-linejoin="bevel" stroke-miterlimit="10" stroke-width="2" stroke-dasharray=""/><path fill="none" stroke="rgb(0,0,0)" paint-order="fill" d="M 59.5 196.5 L 220.5 196.5" stroke-opacity="1" stroke-linejoin="bevel" stroke-miterlimit="10" stroke-dasharray=""/><path fill="none" stroke="rgb(0,0,0)" paint-order="fill" d="M 75.5 202.5 L 75.5 194.5 M 107.5 202.5 L 107.5 194.5 M 140.5 202.5 L 140.5 194.5 M 172.5 202.5 L 172.5 194.5 M 204.5 202.5 L 204.5 194.5" stroke-opacity="1" stroke-linejoin="bevel" stroke-miterlimit="10" stroke-dasharray=""/><path fill="none" stroke="rgb(0,0,0)" paint-order="fill" d="" stroke-opacity="1" stroke-linejoin="bevel" stroke-miterlimit="10" stroke-dasharray=""/><text fill="rgb(68,68,68)" stroke="none" font-family="helvetica" font-size="12pt" font-style="normal" font-weight="normal" text-decoration="normal" x="50.23333168029785" y="212.83203125" text-anchor="start" dominant-baseline="alphabetic" transform="matrix(0.7071067811865476, -0.7071067811865475, 0.7071067811865475, 0.7071067811865476, -123.87482341964463, 114.23261448253504)" fill-opacity="1">WT</text><text fill="rgb(68,68,68)" stroke="none" font-family="helvetica" font-size="12pt" font-style="normal" font-weight="normal" text-decoration="normal" x="59.2833366394043" y="212.83203125" text-anchor="start" dominant-baseline="alphabetic" transform="matrix(0.7071067811865476, -0.7071067811865475, 0.7071067811865475, 0.7071067811865476, -114.4436604330927, 137.00145607361983)" fill-opacity="1">Abiotic</text><text fill="rgb(68,68,68)" stroke="none" font-family="helvetica" font-size="12pt" font-style="normal" font-weight="normal" text-decoration="normal" x="62.150001525878906" y="212.83203125" text-anchor="start" dominant-baseline="alphabetic" transform="matrix(0.7071067811865476, -0.7071067811865475, 0.7071067811865475, 0.7071067811865476, -105.0124996811387, 159.770292269908)" fill-opacity="1">dmsA-tlKO</text><text fill="rgb(68,68,68)" stroke="none" font-family="helvetica" font-size="12pt" font-style="normal" font-weight="normal" text-decoration="normal" x="105.89999389648438" y="212.83203125" text-anchor="start" dominant-baseline="alphabetic" transform="matrix(0.7071067811865476, -0.7071067811865475, 0.7071067811865475, 0.7071067811865476, -95.58133892918471, 182.5391284661962)" fill-opacity="1">torA-tlKO</text><text fill="rgb(68,68,68)" stroke="none" font-family="helvetica" font-size="12pt" font-style="normal" font-weight="normal" text-decoration="normal" x="97.19999694824219" y="212.83203125" text-anchor="start" dominant-baseline="alphabetic" transform="matrix(0.7071067811865476, -0.7071067811865475, 0.7071067811865475, 0.7071067811865476, -86.15017817723071, 205.30796466248438)" fill-opacity="1">dmsAtorA-tlKO</text><text fill="rgb(128,128,128)" stroke="none" font-family="helvetica" font-size="11px" font-style="normal" font-weight="bold" text-decoration="normal" x="108.64166641235352" y="314.28744505145573" text-anchor="start" dominant-baseline="alphabetic" transform="matrix(1, 0, 0, 1, 0.5, 0.5)" fill-opacity="1">PCA, TMAO</text><path fill="none" stroke="rgb(0,0,0)" paint-order="fill" d="M 59.5 196.5 L 59.5 31.5" stroke-opacity="1" stroke-linejoin="bevel" stroke-miterlimit="10" stroke-dasharray=""/><path fill="none" stroke="rgb(0,0,0)" paint-order="fill" d="M 53.5 182.5 L 61.5 182.5 M 53.5 153.5 L 61.5 153.5 M 53.5 124.5 L 61.5 124.5 M 53.5 95.5 L 61.5 95.5 M 53.5 66.5 L 61.5 66.5 M 53.5 37.5 L 61.5 37.5" stroke-opacity="1" stroke-linejoin="bevel" stroke-miterlimit="10" stroke-dasharray=""/><path fill="none" stroke="rgb(0,0,0)" paint-order="fill" d="M 55.5 188.5 L 59.5 188.5 M 55.5 193.5 L 59.5 193.5 M 55.5 182.5 L 59.5 182.5 M 55.5 176.5 L 59.5 176.5 M 55.5 170.5 L 59.5 170.5 M 55.5 164.5 L 59.5 164.5 M 55.5 159.5 L 59.5 159.5 M 55.5 153.5 L 59.5 153.5 M 55.5 147.5 L 59.5 147.5 M 55.5 141.5 L 59.5 141.5 M 55.5 135.5 L 59.5 135.5 M 55.5 130.5 L 59.5 130.5 M 55.5 124.5 L 59.5 124.5 M 55.5 118.5 L 59.5 118.5 M 55.5 112.5 L 59.5 112.5 M 55.5 106.5 L 59.5 106.5 M 55.5 101.5 L 59.5 101.5 M 55.5 95.5 L 59.5 95.5 M 55.5 89.5 L 59.5 89.5 M 55.5 83.5 L 59.5 83.5 M 55.5 77.5 L 59.5 77.5 M 55.5 72.5 L 59.5 72.5 M 55.5 66.5 L 59.5 66.5 M 55.5 60.5 L 59.5 60.5 M 55.5 54.5 L 59.5 54.5 M 55.5 48.5 L 59.5 48.5 M 55.5 43.5 L 59.5 43.5 M 55.5 37.5 L 59.5 37.5 M 55.5 31.5 L 59.5 31.5" stroke-opacity="1" stroke-linejoin="bevel" stroke-miterlimit="10" stroke-dasharray=""/><text fill="rgb(68,68,68)" stroke="none" font-family="helvetica" font-size="12pt" font-style="normal" font-weight="normal" text-decoration="normal" x="39.10000038146973" y="187.4525604248047" text-anchor="start" dominant-baseline="alphabetic" transform="matrix(1, 0, 0, 1, 0.5, 0.5)" fill-opacity="1">0</text><text fill="rgb(68,68,68)" stroke="none" font-family="helvetica" font-size="12pt" font-style="normal" font-weight="normal" text-decoration="normal" x="39.10000038146973" y="158.47181701660156" text-anchor="start" dominant-baseline="alphabetic" transform="matrix(1, 0, 0, 1, 0.5, 0.5)" fill-opacity="1">5</text><text fill="rgb(68,68,68)" stroke="none" font-family="helvetica" font-size="12pt" font-style="normal" font-weight="normal" text-decoration="normal" x="30.200000762939453" y="129.49107360839844" text-anchor="start" dominant-baseline="alphabetic" transform="matrix(1, 0, 0, 1, 0.5, 0.5)" fill-opacity="1">10</text><text fill="rgb(68,68,68)" stroke="none" font-family="helvetica" font-size="12pt" font-style="normal" font-weight="normal" text-decoration="normal" x="30.200000762939453" y="100.51033020019531" text-anchor="start" dominant-baseline="alphabetic" transform="matrix(1, 0, 0, 1, 0.5, 0.5)" fill-opacity="1">15</text><text fill="rgb(68,68,68)" stroke="none" font-family="helvetica" font-size="12pt" font-style="normal" font-weight="normal" text-decoration="normal" x="30.200000762939453" y="71.52957916259766" text-anchor="start" dominant-baseline="alphabetic" transform="matrix(1, 0, 0, 1, 0.5, 0.5)" fill-opacity="1">20</text><text fill="rgb(68,68,68)" stroke="none" font-family="helvetica" font-size="12pt" font-style="normal" font-weight="normal" text-decoration="normal" x="30.200000762939453" y="42.548831939697266" text-anchor="start" dominant-baseline="alphabetic" transform="matrix(1, 0, 0, 1, 0.5, 0.5)" fill-opacity="1">25</text><text fill="rgb(68,68,68)" stroke="none" font-family="helvetica" font-size="12pt" font-style="italic" font-weight="normal" text-decoration="normal" x="-121.15000534057617" y="109.9609375" text-anchor="start" dominant-baseline="alphabetic" transform="matrix(6.123233995736766e-17, -1, 1, 6.123233995736766e-17, -90.79999923706055, 136.20000076293945)" fill-opacity="1">Maximum PCAred oxidation rate (µM/hr)</text><path fill="none" stroke="none"/><text fill="rgb(68,68,68)" stroke="none" font-family="helvetica" font-size="12pt" font-style="normal" font-weight="bold" text-decoration="normal" x="0" y="0" text-anchor="start" dominant-baseline="text-after-edge" transform="matrix(1, 0, 0, 1, 59.5, 26.5)" fill-opacity="1">TMAO</text></svg>