<svg version="1.1" xmlns="http://www.w3.org/2000/svg" xmlns:xlink="http://www.w3.org/1999/xlink" width="400" height="500"><defs><clipPath id="TpypeATENEgT"><path fill="none" stroke="none" d="M 59.5 31.5 L 370.5 31.5 L 370.5 351.5 L 59.5 351.5 L 59.5 31.5"/></clipPath><clipPath id="TzbEIwxZAdcF"><path fill="none" stroke="none" d="M 59.5 31.5 L 370.5 31.5 L 370.5 351.5 L 59.5 351.5 L 59.5 31.5"/></clipPath><clipPath id="TNFIIimbddzo"><path fill="none" stroke="none" d="M 59.5 31.5 L 370.5 31.5 L 370.5 351.5 L 59.5 351.5 L 59.5 31.5"/></clipPath><clipPath id="emtHGikViqcc"><path fill="none" stroke="none" d="M 59.5 31.5 L 370.5 31.5 L 370.5 351.5 L 59.5 351.5 L 59.5 31.5"/></clipPath><clipPath id="JSDNNiQTwxwQ"><path fill="none" stroke="none" d="M 59.5 31.5 L 370.5 31.5 L 370.5 351.5 L 59.5 351.5 L 59.5 31.5"/></clipPath></defs><path fill="rgb(255,255,255)" stroke="none" paint-order="stroke" d="M 0.5 0.5 L 400.5 0.5 L 400.5 500.5 L 0.5 500.5 L 0.5 0.5" fill-opacity="1"/><rect fill="#FFFFFF" stroke="none" x="59" y="31" width="311" height="320" transform="matrix(1, 0, 0, 1, 0.5, 0.5)"/><path fill="rgb(255,255,255)" stroke="none" paint-order="stroke" d="M 59.5 31.5 L 370.5 31.5 L 370.5 351.5 L 59.5 351.5 L 59.5 31.5" fill-opacity="1"/><path fill="none" stroke="rgb(229,229,229)" paint-order="fill" d="M 59.5 31.5 L 370.5 31.5 L 370.5 351.5 L 59.5 351.5 L 59.5 31.5" stroke-opacity="1" stroke-linejoin="bevel" stroke-miterlimit="10" stroke-dasharray=""/><path fill="none" stroke="rgb(229,229,229)" paint-order="fill" d="M 59.5 323.5 L 370.5 323.5 M 59.5 260.5 L 370.5 260.5 M 59.5 197.5 L 370.5 197.5 M 59.5 134.5 L 370.5 134.5 M 59.5 71.5 L 370.5 71.5" stroke-opacity="1" stroke-linejoin="bevel" stroke-miterlimit="10" stroke-dasharray="" clip-path="url(#TzbEIwxZAdcF)"/><path fill="none" stroke="none"/><path fill="rgb(174,199,232)" stroke="rgb(0,0,0)" paint-order="fill" d="M 78.23688507080078 55.68233871459961 A 5 5 0 1 1 78.23688257080099 55.67733871543294" fill-opacity="1" clip-path="url(#TNFIIimbddzo)" stroke-opacity="0.7019607843137254" stroke-linejoin="bevel" stroke-miterlimit="10" stroke-width="2" stroke-dasharray=""/><path fill="rgb(174,199,232)" stroke="rgb(0,0,0)" paint-order="fill" d="M 80.91169738769531 54.08466720581055 A 5 5 0 1 1 80.91169488769552 54.079667206643876" fill-opacity="1" clip-path="url(#TNFIIimbddzo)" stroke-opacity="0.7019607843137254" stroke-linejoin="bevel" stroke-miterlimit="10" stroke-width="2" stroke-dasharray=""/><path fill="rgb(174,199,232)" stroke="rgb(0,0,0)" paint-order="fill" d="M 80.30306243896484 63.709903717041016 A 5 5 0 1 1 80.30305993896505 63.704903717874345" fill-opacity="1" clip-path="url(#TNFIIimbddzo)" stroke-opacity="0.7019607843137254" stroke-linejoin="bevel" stroke-miterlimit="10" stroke-width="2" stroke-dasharray=""/><path fill="rgb(174,199,232)" stroke="rgb(0,0,0)" paint-order="fill" d="M 83.19331359863281 78.99561309814453 A 5 5 0 1 1 83.19331109863302 78.99061309897786" fill-opacity="1" clip-path="url(#TNFIIimbddzo)" stroke-opacity="0.7019607843137254" stroke-linejoin="bevel" stroke-miterlimit="10" stroke-width="2" stroke-dasharray=""/><path fill="rgb(174,199,232)" stroke="rgb(0,0,0)" paint-order="fill" d="M 83.36394500732422 54.617488861083984 A 5 5 0 1 1 83.36394250732442 54.61248886191731" fill-opacity="1" clip-path="url(#TNFIIimbddzo)" stroke-opacity="0.7019607843137254" stroke-linejoin="bevel" stroke-miterlimit="10" stroke-width="2" stroke-dasharray=""/><path fill="rgb(174,199,232)" stroke="rgb(0,0,0)" paint-order="fill" d="M 85.44149780273438 87.37757110595703 A 5 5 0 1 1 85.44149530273458 87.37257110679036" fill-opacity="1" clip-path="url(#TNFIIimbddzo)" stroke-opacity="0.7019607843137254" stroke-linejoin="bevel" stroke-miterlimit="10" stroke-width="2" stroke-dasharray=""/><path fill="rgb(174,199,232)" stroke="rgb(0,0,0)" paint-order="fill" d="M 83.7765121459961 61.85725402832031 A 5 5 0 1 1 83.7765096459963 61.85225402915364" fill-opacity="1" clip-path="url(#TNFIIimbddzo)" stroke-opacity="0.7019607843137254" stroke-linejoin="bevel" stroke-miterlimit="10" stroke-width="2" stroke-dasharray=""/><path fill="rgb(174,199,232)" stroke="rgb(0,0,0)" paint-order="fill" d="M 76.66062927246094 92.66751861572266 A 5 5 0 1 1 76.66062677246114 92.66251861655599" fill-opacity="1" clip-path="url(#TNFIIimbddzo)" stroke-opacity="0.7019607843137254" stroke-linejoin="bevel" stroke-miterlimit="10" stroke-width="2" stroke-dasharray=""/><path fill="rgb(255,127,14)" stroke="rgb(0,0,0)" paint-order="fill" d="M 155.59060668945312 105.4099349975586 A 5 5 0 1 1 155.59060418945333 105.40493499839192" fill-opacity="1" clip-path="url(#TNFIIimbddzo)" stroke-opacity="0.7019607843137254" stroke-linejoin="bevel" stroke-miterlimit="10" stroke-width="2" stroke-dasharray=""/><path fill="rgb(255,127,14)" stroke="rgb(0,0,0)" paint-order="fill" d="M 145.8963165283203 68.03073120117188 A 5 5 0 1 1 145.89631402832052 68.0257312020052" fill-opacity="1" clip-path="url(#TNFIIimbddzo)" stroke-opacity="0.7019607843137254" stroke-linejoin="bevel" stroke-miterlimit="10" stroke-width="2" stroke-dasharray=""/><path fill="rgb(255,127,14)" stroke="rgb(0,0,0)" paint-order="fill" d="M 153.5115966796875 70.71879577636719 A 5 5 0 1 1 153.5115941796877 70.71379577720052" fill-opacity="1" clip-path="url(#TNFIIimbddzo)" stroke-opacity="0.7019607843137254" stroke-linejoin="bevel" stroke-miterlimit="10" stroke-width="2" stroke-dasharray=""/><path fill="rgb(152,223,138)" stroke="rgb(0,0,0)" paint-order="fill" d="M 189.78955078125 167.24147033691406 A 5 5 0 1 1 189.7895482812502 167.2364703377474" fill-opacity="1" clip-path="url(#TNFIIimbddzo)" stroke-opacity="0.7019607843137254" stroke-linejoin="bevel" stroke-miterlimit="10" stroke-width="2" stroke-dasharray=""/><path fill="rgb(152,223,138)" stroke="rgb(0,0,0)" paint-order="fill" d="M 183.75135803222656 173.90025329589844 A 5 5 0 1 1 183.75135553222677 173.89525329673177" fill-opacity="1" clip-path="url(#TNFIIimbddzo)" stroke-opacity="0.7019607843137254" stroke-linejoin="bevel" stroke-miterlimit="10" stroke-width="2" stroke-dasharray=""/><path fill="rgb(152,223,138)" stroke="rgb(0,0,0)" paint-order="fill" d="M 182.6597137451172 174.23809814453125 A 5 5 0 1 1 182.6597112451174 174.23309814536458" fill-opacity="1" clip-path="url(#TNFIIimbddzo)" stroke-opacity="0.7019607843137254" stroke-linejoin="bevel" stroke-miterlimit="10" stroke-width="2" stroke-dasharray=""/><path fill="rgb(148,103,189)" stroke="rgb(0,0,0)" paint-order="fill" d="M 215.80873107910156 51.49144744873047 A 5 5 0 1 1 215.80872857910177 51.4864474495638" fill-opacity="1" clip-path="url(#TNFIIimbddzo)" stroke-opacity="0.7019607843137254" stroke-linejoin="bevel" stroke-miterlimit="10" stroke-width="2" stroke-dasharray=""/><path fill="rgb(148,103,189)" stroke="rgb(0,0,0)" paint-order="fill" d="M 217.86424255371094 46.738094329833984 A 5 5 0 1 1 217.86424005371114 46.73309433066731" fill-opacity="1" clip-path="url(#TNFIIimbddzo)" stroke-opacity="0.7019607843137254" stroke-linejoin="bevel" stroke-miterlimit="10" stroke-width="2" stroke-dasharray=""/><path fill="rgb(148,103,189)" stroke="rgb(0,0,0)" paint-order="fill" d="M 220.7736358642578 65.885009765625 A 5 5 0 1 1 220.77363336425802 65.88000976645833" fill-opacity="1" clip-path="url(#TNFIIimbddzo)" stroke-opacity="0.7019607843137254" stroke-linejoin="bevel" stroke-miterlimit="10" stroke-width="2" stroke-dasharray=""/><path fill="rgb(255,187,120)" stroke="rgb(0,0,0)" paint-order="fill" d="M 253.75685119628906 161.23765563964844 A 5 5 0 1 1 253.75684869628927 161.23265564048177" fill-opacity="1" clip-path="url(#TNFIIimbddzo)" stroke-opacity="0.7019607843137254" stroke-linejoin="bevel" stroke-miterlimit="10" stroke-width="2" stroke-dasharray=""/><path fill="rgb(255,187,120)" stroke="rgb(0,0,0)" paint-order="fill" d="M 259.48219299316406 152.77218627929688 A 5 5 0 1 1 259.4821904931643 152.7671862801302" fill-opacity="1" clip-path="url(#TNFIIimbddzo)" stroke-opacity="0.7019607843137254" stroke-linejoin="bevel" stroke-miterlimit="10" stroke-width="2" stroke-dasharray=""/><path fill="rgb(255,187,120)" stroke="rgb(0,0,0)" paint-order="fill" d="M 251.43695068359375 160.86253356933594 A 5 5 0 1 1 251.43694818359396 160.85753357016927" fill-opacity="1" clip-path="url(#TNFIIimbddzo)" stroke-opacity="0.7019607843137254" stroke-linejoin="bevel" stroke-miterlimit="10" stroke-width="2" stroke-dasharray=""/><path fill="rgb(214,39,40)" stroke="rgb(0,0,0)" paint-order="fill" d="M 291.18499755859375 206.6814727783203 A 5 5 0 1 1 291.184995058594 206.67647277915364" fill-opacity="1" clip-path="url(#TNFIIimbddzo)" stroke-opacity="0.7019607843137254" stroke-linejoin="bevel" stroke-miterlimit="10" stroke-width="2" stroke-dasharray=""/><path fill="rgb(214,39,40)" stroke="rgb(0,0,0)" paint-order="fill" d="M 291.2692565917969 199.4527587890625 A 5 5 0 1 1 291.2692540917971 199.44775878989583" fill-opacity="1" clip-path="url(#TNFIIimbddzo)" stroke-opacity="0.7019607843137254" stroke-linejoin="bevel" stroke-miterlimit="10" stroke-width="2" stroke-dasharray=""/><path fill="rgb(214,39,40)" stroke="rgb(0,0,0)" paint-order="fill" d="M 292.56793212890625 191.7008819580078 A 5 5 0 1 1 292.5679296289065 191.69588195884114" fill-opacity="1" clip-path="url(#TNFIIimbddzo)" stroke-opacity="0.7019607843137254" stroke-linejoin="bevel" stroke-miterlimit="10" stroke-width="2" stroke-dasharray=""/><path fill="rgb(255,152,150)" stroke="rgb(0,0,0)" paint-order="fill" d="M 326.79119873046875 204.83421325683594 A 5 5 0 1 1 326.791196230469 204.82921325766927" fill-opacity="1" clip-path="url(#TNFIIimbddzo)" stroke-opacity="0.7019607843137254" stroke-linejoin="bevel" stroke-miterlimit="10" stroke-width="2" stroke-dasharray=""/><path fill="rgb(255,152,150)" stroke="rgb(0,0,0)" paint-order="fill" d="M 319.8052062988281 196.58602905273438 A 5 5 0 1 1 319.80520379882836 196.5810290535677" fill-opacity="1" clip-path="url(#TNFIIimbddzo)" stroke-opacity="0.7019607843137254" stroke-linejoin="bevel" stroke-miterlimit="10" stroke-width="2" stroke-dasharray=""/><path fill="rgb(255,152,150)" stroke="rgb(0,0,0)" paint-order="fill" d="M 320.4805603027344 205.0996551513672 A 5 5 0 1 1 320.4805578027346 205.09465515220052" fill-opacity="1" clip-path="url(#TNFIIimbddzo)" stroke-opacity="0.7019607843137254" stroke-linejoin="bevel" stroke-miterlimit="10" stroke-width="2" stroke-dasharray=""/><path fill="rgb(44,160,44)" stroke="rgb(0,0,0)" paint-order="fill" d="M 358.203857421875 312.71307373046875 A 5 5 0 1 1 358.20385492187523 312.7080737313021" fill-opacity="1" clip-path="url(#TNFIIimbddzo)" stroke-opacity="0.7019607843137254" stroke-linejoin="bevel" stroke-miterlimit="10" stroke-width="2" stroke-dasharray=""/><path fill="rgb(44,160,44)" stroke="rgb(0,0,0)" paint-order="fill" d="M 355.303466796875 312.8906555175781 A 5 5 0 1 1 355.30346429687523 312.88565551841145" fill-opacity="1" clip-path="url(#TNFIIimbddzo)" stroke-opacity="0.7019607843137254" stroke-linejoin="bevel" stroke-miterlimit="10" stroke-width="2" stroke-dasharray=""/><path fill="rgb(44,160,44)" stroke="rgb(0,0,0)" paint-order="fill" d="M 358.98443603515625 303.2881774902344 A 5 5 0 1 1 358.9844335351565 303.2831774910677" fill-opacity="1" clip-path="url(#TNFIIimbddzo)" stroke-opacity="0.7019607843137254" stroke-linejoin="bevel" stroke-miterlimit="10" stroke-width="2" stroke-dasharray=""/><path fill="none" stroke="none"/><path fill="rgb(174,199,232)" stroke="rgb(0,0,0)" paint-order="fill" d="M 75.84075164794922 43.626441955566406 L 85.84075164794922 43.626441955566406 L 85.84075164794922 53.626441955566406 L 75.84075164794922 53.626441955566406 L 75.84075164794922 43.626441955566406" fill-opacity="1" clip-path="url(#emtHGikViqcc)" stroke-opacity="0.7019607843137254" stroke-linejoin="bevel" stroke-miterlimit="10" stroke-width="2" stroke-dasharray=""/><path fill="rgb(174,199,232)" stroke="rgb(0,0,0)" paint-order="fill" d="M 69.45333099365234 153.31381225585938 L 79.45333099365234 153.31381225585938 L 79.45333099365234 163.31381225585938 L 69.45333099365234 163.31381225585938 L 69.45333099365234 153.31381225585938" fill-opacity="1" clip-path="url(#emtHGikViqcc)" stroke-opacity="0.7019607843137254" stroke-linejoin="bevel" stroke-miterlimit="10" stroke-width="2" stroke-dasharray=""/><path fill="rgb(174,199,232)" stroke="rgb(0,0,0)" paint-order="fill" d="M 74.27191925048828 43.91917037963867 L 84.27191925048828 43.91917037963867 L 84.27191925048828 53.91917037963867 L 74.27191925048828 53.91917037963867 L 74.27191925048828 43.91917037963867" fill-opacity="1" clip-path="url(#emtHGikViqcc)" stroke-opacity="0.7019607843137254" stroke-linejoin="bevel" stroke-miterlimit="10" stroke-width="2" stroke-dasharray=""/><path fill="rgb(174,199,232)" stroke="rgb(0,0,0)" paint-order="fill" d="M 69.45364379882812 182.68228149414062 L 79.45364379882812 182.68228149414062 L 79.45364379882812 192.68228149414062 L 69.45364379882812 192.68228149414062 L 69.45364379882812 182.68228149414062" fill-opacity="1" clip-path="url(#emtHGikViqcc)" stroke-opacity="0.7019607843137254" stroke-linejoin="bevel" stroke-miterlimit="10" stroke-width="2" stroke-dasharray=""/><path fill="rgb(174,199,232)" stroke="rgb(0,0,0)" paint-order="fill" d="M 68.75115203857422 99.9231948852539 L 78.75115203857422 99.9231948852539 L 78.75115203857422 109.9231948852539 L 68.75115203857422 109.9231948852539 L 68.75115203857422 99.9231948852539" fill-opacity="1" clip-path="url(#emtHGikViqcc)" stroke-opacity="0.7019607843137254" stroke-linejoin="bevel" stroke-miterlimit="10" stroke-width="2" stroke-dasharray=""/><path fill="rgb(31,119,180)" stroke="rgb(0,0,0)" paint-order="fill" d="M 103.62860870361328 309.3298645019531 L 113.62860870361328 309.3298645019531 L 113.62860870361328 319.3298645019531 L 103.62860870361328 319.3298645019531 L 103.62860870361328 309.3298645019531" fill-opacity="1" clip-path="url(#emtHGikViqcc)" stroke-opacity="0.7019607843137254" stroke-linejoin="bevel" stroke-miterlimit="10" stroke-width="2" stroke-dasharray=""/><path fill="rgb(31,119,180)" stroke="rgb(0,0,0)" paint-order="fill" d="M 106.91035461425781 311.8348693847656 L 116.91035461425781 311.8348693847656 L 116.91035461425781 321.8348693847656 L 106.91035461425781 321.8348693847656 L 106.91035461425781 311.8348693847656" fill-opacity="1" clip-path="url(#emtHGikViqcc)" stroke-opacity="0.7019607843137254" stroke-linejoin="bevel" stroke-miterlimit="10" stroke-width="2" stroke-dasharray=""/><path fill="rgb(31,119,180)" stroke="rgb(0,0,0)" paint-order="fill" d="M 101.51074981689453 313.96539306640625 L 111.51074981689453 313.96539306640625 L 111.51074981689453 323.96539306640625 L 101.51074981689453 323.96539306640625 L 101.51074981689453 313.96539306640625" fill-opacity="1" clip-path="url(#emtHGikViqcc)" stroke-opacity="0.7019607843137254" stroke-linejoin="bevel" stroke-miterlimit="10" stroke-width="2" stroke-dasharray=""/><path fill="rgb(31,119,180)" stroke="rgb(0,0,0)" paint-order="fill" d="M 105.24900817871094 309.6369323730469 L 115.24900817871094 309.6369323730469 L 115.24900817871094 319.6369323730469 L 105.24900817871094 319.6369323730469 L 105.24900817871094 309.6369323730469" fill-opacity="1" clip-path="url(#emtHGikViqcc)" stroke-opacity="0.7019607843137254" stroke-linejoin="bevel" stroke-miterlimit="10" stroke-width="2" stroke-dasharray=""/><path fill="rgb(31,119,180)" stroke="rgb(0,0,0)" paint-order="fill" d="M 109.52288818359375 312.7459411621094 L 119.52288818359375 312.7459411621094 L 119.52288818359375 322.7459411621094 L 109.52288818359375 322.7459411621094 L 109.52288818359375 312.7459411621094" fill-opacity="1" clip-path="url(#emtHGikViqcc)" stroke-opacity="0.7019607843137254" stroke-linejoin="bevel" stroke-miterlimit="10" stroke-width="2" stroke-dasharray=""/><path fill="rgb(255,127,14)" stroke="rgb(0,0,0)" paint-order="fill" d="M 145.3934783935547 128.9757080078125 L 155.3934783935547 128.9757080078125 L 155.3934783935547 138.9757080078125 L 145.3934783935547 138.9757080078125 L 145.3934783935547 128.9757080078125" fill-opacity="1" clip-path="url(#emtHGikViqcc)" stroke-opacity="0.7019607843137254" stroke-linejoin="bevel" stroke-miterlimit="10" stroke-width="2" stroke-dasharray=""/><path fill="rgb(152,223,138)" stroke="rgb(0,0,0)" paint-order="fill" d="M 179.2501220703125 217.68475341796875 L 189.2501220703125 217.68475341796875 L 189.2501220703125 227.68475341796875 L 179.2501220703125 227.68475341796875 L 179.2501220703125 217.68475341796875" fill-opacity="1" clip-path="url(#emtHGikViqcc)" stroke-opacity="0.7019607843137254" stroke-linejoin="bevel" stroke-miterlimit="10" stroke-width="2" stroke-dasharray=""/><path fill="rgb(148,103,189)" stroke="rgb(0,0,0)" paint-order="fill" d="M 212.486572265625 127.64459228515625 L 222.486572265625 127.64459228515625 L 222.486572265625 137.64459228515625 L 212.486572265625 137.64459228515625 L 212.486572265625 127.64459228515625" fill-opacity="1" clip-path="url(#emtHGikViqcc)" stroke-opacity="0.7019607843137254" stroke-linejoin="bevel" stroke-miterlimit="10" stroke-width="2" stroke-dasharray=""/><path fill="rgb(255,127,14)" stroke="rgb(0,0,0)" paint-order="fill" d="M 143.46389770507812 82.91883850097656 L 153.46389770507812 82.91883850097656 L 153.46389770507812 92.91883850097656 L 143.46389770507812 92.91883850097656 L 143.46389770507812 82.91883850097656" fill-opacity="1" clip-path="url(#emtHGikViqcc)" stroke-opacity="0.7019607843137254" stroke-linejoin="bevel" stroke-miterlimit="10" stroke-width="2" stroke-dasharray=""/><path fill="rgb(152,223,138)" stroke="rgb(0,0,0)" paint-order="fill" d="M 171.63082885742188 158.34573364257812 L 181.63082885742188 158.34573364257812 L 181.63082885742188 168.34573364257812 L 171.63082885742188 168.34573364257812 L 171.63082885742188 158.34573364257812" fill-opacity="1" clip-path="url(#emtHGikViqcc)" stroke-opacity="0.7019607843137254" stroke-linejoin="bevel" stroke-miterlimit="10" stroke-width="2" stroke-dasharray=""/><path fill="rgb(148,103,189)" stroke="rgb(0,0,0)" paint-order="fill" d="M 205.91632080078125 67.19676208496094 L 215.91632080078125 67.19676208496094 L 215.91632080078125 77.19676208496094 L 205.91632080078125 77.19676208496094 L 205.91632080078125 67.19676208496094" fill-opacity="1" clip-path="url(#emtHGikViqcc)" stroke-opacity="0.7019607843137254" stroke-linejoin="bevel" stroke-miterlimit="10" stroke-width="2" stroke-dasharray=""/><path fill="rgb(255,127,14)" stroke="rgb(0,0,0)" paint-order="fill" d="M 137.42984008789062 157.3704376220703 L 147.42984008789062 157.3704376220703 L 147.42984008789062 167.3704376220703 L 137.42984008789062 167.3704376220703 L 137.42984008789062 157.3704376220703" fill-opacity="1" clip-path="url(#emtHGikViqcc)" stroke-opacity="0.7019607843137254" stroke-linejoin="bevel" stroke-miterlimit="10" stroke-width="2" stroke-dasharray=""/><path fill="rgb(152,223,138)" stroke="rgb(0,0,0)" paint-order="fill" d="M 172.3897247314453 247.80369567871094 L 182.3897247314453 247.80369567871094 L 182.3897247314453 257.80369567871094 L 172.3897247314453 257.80369567871094 L 172.3897247314453 247.80369567871094" fill-opacity="1" clip-path="url(#emtHGikViqcc)" stroke-opacity="0.7019607843137254" stroke-linejoin="bevel" stroke-miterlimit="10" stroke-width="2" stroke-dasharray=""/><path fill="rgb(148,103,189)" stroke="rgb(0,0,0)" paint-order="fill" d="M 207.81056213378906 176.93557739257812 L 217.81056213378906 176.93557739257812 L 217.81056213378906 186.93557739257812 L 207.81056213378906 186.93557739257812 L 207.81056213378906 176.93557739257812" fill-opacity="1" clip-path="url(#emtHGikViqcc)" stroke-opacity="0.7019607843137254" stroke-linejoin="bevel" stroke-miterlimit="10" stroke-width="2" stroke-dasharray=""/><path fill="rgb(255,187,120)" stroke="rgb(0,0,0)" paint-order="fill" d="M 245.61361694335938 170.21987915039062 L 255.61361694335938 170.21987915039062 L 255.61361694335938 180.21987915039062 L 245.61361694335938 180.21987915039062 L 245.61361694335938 170.21987915039062" fill-opacity="1" clip-path="url(#emtHGikViqcc)" stroke-opacity="0.7019607843137254" stroke-linejoin="bevel" stroke-miterlimit="10" stroke-width="2" stroke-dasharray=""/><path fill="rgb(214,39,40)" stroke="rgb(0,0,0)" paint-order="fill" d="M 275.89056396484375 214.097900390625 L 285.89056396484375 214.097900390625 L 285.89056396484375 224.097900390625 L 275.89056396484375 224.097900390625 L 275.89056396484375 214.097900390625" fill-opacity="1" clip-path="url(#emtHGikViqcc)" stroke-opacity="0.7019607843137254" stroke-linejoin="bevel" stroke-miterlimit="10" stroke-width="2" stroke-dasharray=""/><path fill="rgb(255,152,150)" stroke="rgb(0,0,0)" paint-order="fill" d="M 314.8950500488281 261.6217956542969 L 324.8950500488281 261.6217956542969 L 324.8950500488281 271.6217956542969 L 314.8950500488281 271.6217956542969 L 314.8950500488281 261.6217956542969" fill-opacity="1" clip-path="url(#emtHGikViqcc)" stroke-opacity="0.7019607843137254" stroke-linejoin="bevel" stroke-miterlimit="10" stroke-width="2" stroke-dasharray=""/><path fill="rgb(255,187,120)" stroke="rgb(0,0,0)" paint-order="fill" d="M 240.96800231933594 154.6947479248047 L 250.96800231933594 154.6947479248047 L 250.96800231933594 164.6947479248047 L 240.96800231933594 164.6947479248047 L 240.96800231933594 154.6947479248047" fill-opacity="1" clip-path="url(#emtHGikViqcc)" stroke-opacity="0.7019607843137254" stroke-linejoin="bevel" stroke-miterlimit="10" stroke-width="2" stroke-dasharray=""/><path fill="rgb(214,39,40)" stroke="rgb(0,0,0)" paint-order="fill" d="M 280.0872497558594 208.93179321289062 L 290.0872497558594 208.93179321289062 L 290.0872497558594 218.93179321289062 L 280.0872497558594 218.93179321289062 L 280.0872497558594 208.93179321289062" fill-opacity="1" clip-path="url(#emtHGikViqcc)" stroke-opacity="0.7019607843137254" stroke-linejoin="bevel" stroke-miterlimit="10" stroke-width="2" stroke-dasharray=""/><path fill="rgb(255,152,150)" stroke="rgb(0,0,0)" paint-order="fill" d="M 311.1944580078125 252.23336791992188 L 321.1944580078125 252.23336791992188 L 321.1944580078125 262.2333679199219 L 311.1944580078125 262.2333679199219 L 311.1944580078125 252.23336791992188" fill-opacity="1" clip-path="url(#emtHGikViqcc)" stroke-opacity="0.7019607843137254" stroke-linejoin="bevel" stroke-miterlimit="10" stroke-width="2" stroke-dasharray=""/><path fill="rgb(255,187,120)" stroke="rgb(0,0,0)" paint-order="fill" d="M 241.6033172607422 208.77127075195312 L 251.6033172607422 208.77127075195312 L 251.6033172607422 218.77127075195312 L 241.6033172607422 218.77127075195312 L 241.6033172607422 208.77127075195312" fill-opacity="1" clip-path="url(#emtHGikViqcc)" stroke-opacity="0.7019607843137254" stroke-linejoin="bevel" stroke-miterlimit="10" stroke-width="2" stroke-dasharray=""/><path fill="rgb(214,39,40)" stroke="rgb(0,0,0)" paint-order="fill" d="M 278.642578125 248.5335693359375 L 288.642578125 248.5335693359375 L 288.642578125 258.5335693359375 L 278.642578125 258.5335693359375 L 278.642578125 248.5335693359375" fill-opacity="1" clip-path="url(#emtHGikViqcc)" stroke-opacity="0.7019607843137254" stroke-linejoin="bevel" stroke-miterlimit="10" stroke-width="2" stroke-dasharray=""/><path fill="rgb(255,152,150)" stroke="rgb(0,0,0)" paint-order="fill" d="M 313.83624267578125 279.03753662109375 L 323.83624267578125 279.03753662109375 L 323.83624267578125 289.03753662109375 L 313.83624267578125 289.03753662109375 L 313.83624267578125 279.03753662109375" fill-opacity="1" clip-path="url(#emtHGikViqcc)" stroke-opacity="0.7019607843137254" stroke-linejoin="bevel" stroke-miterlimit="10" stroke-width="2" stroke-dasharray=""/><path fill="rgb(44,160,44)" stroke="rgb(0,0,0)" paint-order="fill" d="M 353.01202392578125 316.3836669921875 L 363.01202392578125 316.3836669921875 L 363.01202392578125 326.3836669921875 L 353.01202392578125 326.3836669921875 L 353.01202392578125 316.3836669921875" fill-opacity="1" clip-path="url(#emtHGikViqcc)" stroke-opacity="0.7019607843137254" stroke-linejoin="bevel" stroke-miterlimit="10" stroke-width="2" stroke-dasharray=""/><path fill="rgb(44,160,44)" stroke="rgb(0,0,0)" paint-order="fill" d="M 349.44317626953125 315.3005065917969 L 359.44317626953125 315.3005065917969 L 359.44317626953125 325.3005065917969 L 349.44317626953125 325.3005065917969 L 349.44317626953125 315.3005065917969" fill-opacity="1" clip-path="url(#emtHGikViqcc)" stroke-opacity="0.7019607843137254" stroke-linejoin="bevel" stroke-miterlimit="10" stroke-width="2" stroke-dasharray=""/><path fill="rgb(44,160,44)" stroke="rgb(0,0,0)" paint-order="fill" d="M 343.8144226074219 328.572021484375 L 353.8144226074219 328.572021484375 L 353.8144226074219 338.572021484375 L 343.8144226074219 338.572021484375 L 343.8144226074219 328.572021484375" fill-opacity="1" clip-path="url(#emtHGikViqcc)" stroke-opacity="0.7019607843137254" stroke-linejoin="bevel" stroke-miterlimit="10" stroke-width="2" stroke-dasharray=""/><path fill="none" stroke="rgb(0,0,0)" paint-order="fill" d="M 59.5 351.5 L 370.5 351.5" stroke-opacity="1" stroke-linejoin="bevel" stroke-miterlimit="10" stroke-dasharray=""/><path fill="none" stroke="rgb(0,0,0)" paint-order="fill" d="M 76.5 357.5 L 76.5 349.5 M 111.5 357.5 L 111.5 349.5 M 145.5 357.5 L 145.5 349.5 M 180.5 357.5 L 180.5 349.5 M 215.5 357.5 L 215.5 349.5 M 249.5 357.5 L 249.5 349.5 M 284.5 357.5 L 284.5 349.5 M 318.5 357.5 L 318.5 349.5 M 353.5 357.5 L 353.5 349.5" stroke-opacity="1" stroke-linejoin="bevel" stroke-miterlimit="10" stroke-dasharray=""/><path fill="none" stroke="rgb(0,0,0)" paint-order="fill" d="" stroke-opacity="1" stroke-linejoin="bevel" stroke-miterlimit="10" stroke-dasharray=""/><text fill="rgb(68,68,68)" stroke="none" font-family="helvetica" font-size="12pt" font-style="normal" font-weight="normal" text-decoration="normal" x="51.41111183166504" y="367.83203125" text-anchor="start" dominant-baseline="alphabetic" transform="matrix(0.7071067811865476, -0.7071067811865475, 0.7071067811865475, 0.7071067811865476, -233.13141068397096, 160.46387973039882)" fill-opacity="1">WT</text><text fill="rgb(68,68,68)" stroke="none" font-family="helvetica" font-size="12pt" font-style="normal" font-weight="normal" text-decoration="normal" x="62.81666946411133" y="367.83203125" text-anchor="start" dominant-baseline="alphabetic" transform="matrix(0.7071067811865476, -0.7071067811865475, 0.7071067811865475, 0.7071067811865476, -223.01032229283987, 184.89834859024432)" fill-opacity="1">Abiotic</text><text fill="rgb(68,68,68)" stroke="none" font-family="helvetica" font-size="12pt" font-style="normal" font-weight="normal" text-decoration="normal" x="71.57221984863281" y="367.83203125" text-anchor="start" dominant-baseline="alphabetic" transform="matrix(0.7071067811865476, -0.7071067811865475, 0.7071067811865475, 0.7071067811865476, -212.88923613630675, 209.3328120552932)" fill-opacity="1">napA-tlKO</text><text fill="rgb(68,68,68)" stroke="none" font-family="helvetica" font-size="12pt" font-style="normal" font-weight="normal" text-decoration="normal" x="107.9111099243164" y="367.83203125" text-anchor="start" dominant-baseline="alphabetic" transform="matrix(0.7071067811865476, -0.7071067811865475, 0.7071067811865475, 0.7071067811865476, -202.76814774517567, 233.7672809151387)" fill-opacity="1">narG-tlKO</text><text fill="rgb(68,68,68)" stroke="none" font-family="helvetica" font-size="12pt" font-style="normal" font-weight="normal" text-decoration="normal" x="145.1500015258789" y="367.83203125" text-anchor="start" dominant-baseline="alphabetic" transform="matrix(0.7071067811865476, -0.7071067811865475, 0.7071067811865475, 0.7071067811865476, -192.6470593540446, 258.2017497749842)" fill-opacity="1">narZ-tlKO</text><text fill="rgb(68,68,68)" stroke="none" font-family="helvetica" font-size="12pt" font-style="normal" font-weight="normal" text-decoration="normal" x="142.3388900756836" y="367.83203125" text-anchor="start" dominant-baseline="alphabetic" transform="matrix(0.7071067811865476, -0.7071067811865475, 0.7071067811865475, 0.7071067811865476, -182.52597096291356, 282.6362186348297)" fill-opacity="1">napAnarZ-tlKO</text><text fill="rgb(68,68,68)" stroke="none" font-family="helvetica" font-size="12pt" font-style="normal" font-weight="normal" text-decoration="normal" x="174.21111297607422" y="367.83203125" text-anchor="start" dominant-baseline="alphabetic" transform="matrix(0.7071067811865476, -0.7071067811865475, 0.7071067811865475, 0.7071067811865476, -172.40488257178254, 307.0706874946752)" fill-opacity="1">narGnapA-tlKO</text><text fill="rgb(68,68,68)" stroke="none" font-family="helvetica" font-size="12pt" font-style="normal" font-weight="normal" text-decoration="normal" x="213.2333221435547" y="367.83203125" text-anchor="start" dominant-baseline="alphabetic" transform="matrix(0.7071067811865476, -0.7071067811865475, 0.7071067811865475, 0.7071067811865476, -162.2837986498473, 331.5051455649275)" fill-opacity="1">narGnarZ-tlKO</text><text fill="rgb(68,68,68)" stroke="none" font-family="helvetica" font-size="12pt" font-style="normal" font-weight="normal" text-decoration="normal" x="210.42222595214844" y="367.83203125" text-anchor="start" dominant-baseline="alphabetic" transform="matrix(0.7071067811865476, -0.7071067811865475, 0.7071067811865475, 0.7071067811865476, -152.16270578952037, 355.9396252143662)" fill-opacity="1">napAnarZnarG-tlKO</text><text fill="rgb(128,128,128)" stroke="none" font-family="helvetica" font-size="11px" font-style="normal" font-weight="bold" text-decoration="normal" x="188.52499961853027" y="494.4604507775341" text-anchor="start" dominant-baseline="alphabetic" transform="matrix(1, 0, 0, 1, 0.5, 0.5)" fill-opacity="1">PCA, NO3</text><path fill="none" stroke="rgb(0,0,0)" paint-order="fill" d="M 59.5 351.5 L 59.5 31.5" stroke-opacity="1" stroke-linejoin="bevel" stroke-miterlimit="10" stroke-dasharray=""/><path fill="none" stroke="rgb(0,0,0)" paint-order="fill" d="M 53.5 323.5 L 61.5 323.5 M 53.5 260.5 L 61.5 260.5 M 53.5 197.5 L 61.5 197.5 M 53.5 134.5 L 61.5 134.5 M 53.5 71.5 L 61.5 71.5" stroke-opacity="1" stroke-linejoin="bevel" stroke-miterlimit="10" stroke-dasharray=""/><path fill="none" stroke="rgb(0,0,0)" paint-order="fill" d="M 55.5 336.5 L 59.5 336.5 M 55.5 349.5 L 59.5 349.5 M 55.5 323.5 L 59.5 323.5 M 55.5 311.5 L 59.5 311.5 M 55.5 298.5 L 59.5 298.5 M 55.5 285.5 L 59.5 285.5 M 55.5 273.5 L 59.5 273.5 M 55.5 260.5 L 59.5 260.5 M 55.5 248.5 L 59.5 248.5 M 55.5 235.5 L 59.5 235.5 M 55.5 222.5 L 59.5 222.5 M 55.5 210.5 L 59.5 210.5 M 55.5 197.5 L 59.5 197.5 M 55.5 185.5 L 59.5 185.5 M 55.5 172.5 L 59.5 172.5 M 55.5 159.5 L 59.5 159.5 M 55.5 147.5 L 59.5 147.5 M 55.5 134.5 L 59.5 134.5 M 55.5 121.5 L 59.5 121.5 M 55.5 109.5 L 59.5 109.5 M 55.5 96.5 L 59.5 96.5 M 55.5 84.5 L 59.5 84.5 M 55.5 71.5 L 59.5 71.5 M 55.5 58.5 L 59.5 58.5 M 55.5 46.5 L 59.5 46.5 M 55.5 33.5 L 59.5 33.5" stroke-opacity="1" stroke-linejoin="bevel" stroke-miterlimit="10" stroke-dasharray=""/><text fill="rgb(68,68,68)" stroke="none" font-family="helvetica" font-size="12pt" font-style="normal" font-weight="normal" text-decoration="normal" x="39.10000038146973" y="329.03265380859375" text-anchor="start" dominant-baseline="alphabetic" transform="matrix(1, 0, 0, 1, 0.5, 0.5)" fill-opacity="1">0</text><text fill="rgb(68,68,68)" stroke="none" font-family="helvetica" font-size="12pt" font-style="normal" font-weight="normal" text-decoration="normal" x="30.200000762939453" y="265.9559631347656" text-anchor="start" dominant-baseline="alphabetic" transform="matrix(1, 0, 0, 1, 0.5, 0.5)" fill-opacity="1">10</text><text fill="rgb(68,68,68)" stroke="none" font-family="helvetica" font-size="12pt" font-style="normal" font-weight="normal" text-decoration="normal" x="30.200000762939453" y="202.87928771972656" text-anchor="start" dominant-baseline="alphabetic" transform="matrix(1, 0, 0, 1, 0.5, 0.5)" fill-opacity="1">20</text><text fill="rgb(68,68,68)" stroke="none" font-family="helvetica" font-size="12pt" font-style="normal" font-weight="normal" text-decoration="normal" x="30.200000762939453" y="139.80259704589844" text-anchor="start" dominant-baseline="alphabetic" transform="matrix(1, 0, 0, 1, 0.5, 0.5)" fill-opacity="1">30</text><text fill="rgb(68,68,68)" stroke="none" font-family="helvetica" font-size="12pt" font-style="normal" font-weight="normal" text-decoration="normal" x="30.200000762939453" y="76.72591400146484" text-anchor="start" dominant-baseline="alphabetic" transform="matrix(1, 0, 0, 1, 0.5, 0.5)" fill-opacity="1">40</text><text fill="rgb(68,68,68)" stroke="none" font-family="helvetica" font-size="12pt" font-style="italic" font-weight="normal" text-decoration="normal" x="-121.15000534057617" y="187.4609375" text-anchor="start" dominant-baseline="alphabetic" transform="matrix(6.123233995736766e-17, -1, 1, 6.123233995736766e-17, -168.29999923706055, 213.70000076293945)" fill-opacity="1">Maximum PCAred oxidation rate (µM/hr)</text><path fill="none" stroke="none"/><text fill="rgb(68,68,68)" stroke="none" font-family="helvetica" font-size="12pt" font-style="normal" font-weight="bold" text-decoration="normal" x="0" y="0" text-anchor="start" dominant-baseline="text-after-edge" transform="matrix(1, 0, 0, 1, 59.5, 26.5)" fill-opacity="1">Standing pregrowth; all nitrate reductase tlKOs</text></svg>