<svg version="1.1" xmlns="http://www.w3.org/2000/svg" xmlns:xlink="http://www.w3.org/1999/xlink" width="400" height="500"><defs><clipPath id="IqRWeaqKBplo"><path fill="none" stroke="none" d="M 50.5 31.5 L 370.5 31.5 L 370.5 351.5 L 50.5 351.5 L 50.5 31.5"/></clipPath><clipPath id="axGHWVsXuFCc"><path fill="none" stroke="none" d="M 50.5 31.5 L 370.5 31.5 L 370.5 351.5 L 50.5 351.5 L 50.5 31.5"/></clipPath><clipPath id="OLTAAkNSyclI"><path fill="none" stroke="none" d="M 50.5 31.5 L 370.5 31.5 L 370.5 351.5 L 50.5 351.5 L 50.5 31.5"/></clipPath><clipPath id="LFwdaaoTetVB"><path fill="none" stroke="none" d="M 50.5 31.5 L 370.5 31.5 L 370.5 351.5 L 50.5 351.5 L 50.5 31.5"/></clipPath><clipPath id="LzshzgRcFwFW"><path fill="none" stroke="none" d="M 50.5 31.5 L 370.5 31.5 L 370.5 351.5 L 50.5 351.5 L 50.5 31.5"/></clipPath></defs><path fill="rgb(255,255,255)" stroke="none" paint-order="stroke" d="M 0.5 0.5 L 400.5 0.5 L 400.5 500.5 L 0.5 500.5 L 0.5 0.5" fill-opacity="1"/><rect fill="#FFFFFF" stroke="none" x="50" y="31" width="320" height="320" transform="matrix(1, 0, 0, 1, 0.5, 0.5)"/><path fill="rgb(255,255,255)" stroke="none" paint-order="stroke" d="M 50.5 31.5 L 370.5 31.5 L 370.5 351.5 L 50.5 351.5 L 50.5 31.5" fill-opacity="1"/><path fill="none" stroke="rgb(229,229,229)" paint-order="fill" d="M 50.5 31.5 L 370.5 31.5 L 370.5 351.5 L 50.5 351.5 L 50.5 31.5" stroke-opacity="1" stroke-linejoin="bevel" stroke-miterlimit="10" stroke-dasharray=""/><path fill="none" stroke="rgb(229,229,229)" paint-order="fill" d="M 50.5 323.5 L 370.5 323.5 M 50.5 251.5 L 370.5 251.5 M 50.5 179.5 L 370.5 179.5 M 50.5 106.5 L 370.5 106.5 M 50.5 34.5 L 370.5 34.5" stroke-opacity="1" stroke-linejoin="bevel" stroke-miterlimit="10" stroke-dasharray="" clip-path="url(#axGHWVsXuFCc)"/><path fill="none" stroke="none"/><path fill="none" stroke="none"/><path fill="rgb(174,199,232)" stroke="rgb(0,0,0)" paint-order="fill" d="M 61.017845153808594 180.2843017578125 L 71.0178451538086 180.2843017578125 L 71.0178451538086 190.2843017578125 L 61.017845153808594 190.2843017578125 L 61.017845153808594 180.2843017578125" fill-opacity="1" clip-path="url(#LFwdaaoTetVB)" stroke-opacity="0.7019607843137254" stroke-linejoin="bevel" stroke-miterlimit="10" stroke-width="2" stroke-dasharray=""/><path fill="rgb(174,199,232)" stroke="rgb(0,0,0)" paint-order="fill" d="M 58.64483642578125 144.14810180664062 L 68.64483642578125 144.14810180664062 L 68.64483642578125 154.14810180664062 L 58.64483642578125 154.14810180664062 L 58.64483642578125 144.14810180664062" fill-opacity="1" clip-path="url(#LFwdaaoTetVB)" stroke-opacity="0.7019607843137254" stroke-linejoin="bevel" stroke-miterlimit="10" stroke-width="2" stroke-dasharray=""/><path fill="rgb(174,199,232)" stroke="rgb(0,0,0)" paint-order="fill" d="M 61.51060485839844 189.318359375 L 71.51060485839844 189.318359375 L 71.51060485839844 199.318359375 L 61.51060485839844 199.318359375 L 61.51060485839844 189.318359375" fill-opacity="1" clip-path="url(#LFwdaaoTetVB)" stroke-opacity="0.7019607843137254" stroke-linejoin="bevel" stroke-miterlimit="10" stroke-width="2" stroke-dasharray=""/><path fill="rgb(174,199,232)" stroke="rgb(0,0,0)" paint-order="fill" d="M 62.15271759033203 177.28500366210938 L 72.15271759033203 177.28500366210938 L 72.15271759033203 187.28500366210938 L 62.15271759033203 187.28500366210938 L 62.15271759033203 177.28500366210938" fill-opacity="1" clip-path="url(#LFwdaaoTetVB)" stroke-opacity="0.7019607843137254" stroke-linejoin="bevel" stroke-miterlimit="10" stroke-width="2" stroke-dasharray=""/><path fill="rgb(174,199,232)" stroke="rgb(0,0,0)" paint-order="fill" d="M 66.80438995361328 195.3531036376953 L 76.80438995361328 195.3531036376953 L 76.80438995361328 205.3531036376953 L 66.80438995361328 205.3531036376953 L 66.80438995361328 195.3531036376953" fill-opacity="1" clip-path="url(#LFwdaaoTetVB)" stroke-opacity="0.7019607843137254" stroke-linejoin="bevel" stroke-miterlimit="10" stroke-width="2" stroke-dasharray=""/><path fill="rgb(174,199,232)" stroke="rgb(0,0,0)" paint-order="fill" d="M 60.35767364501953 150.18284606933594 L 70.35767364501953 150.18284606933594 L 70.35767364501953 160.18284606933594 L 60.35767364501953 160.18284606933594 L 60.35767364501953 150.18284606933594" fill-opacity="1" clip-path="url(#LFwdaaoTetVB)" stroke-opacity="0.7019607843137254" stroke-linejoin="bevel" stroke-miterlimit="10" stroke-width="2" stroke-dasharray=""/><path fill="rgb(255,127,14)" stroke="rgb(0,0,0)" paint-order="fill" d="M 135.83425903320312 150.14671325683594 L 145.83425903320312 150.14671325683594 L 145.83425903320312 160.14671325683594 L 135.83425903320312 160.14671325683594 L 135.83425903320312 150.14671325683594" fill-opacity="1" clip-path="url(#LFwdaaoTetVB)" stroke-opacity="0.7019607843137254" stroke-linejoin="bevel" stroke-miterlimit="10" stroke-width="2" stroke-dasharray=""/><path fill="rgb(152,223,138)" stroke="rgb(0,0,0)" paint-order="fill" d="M 167.20626831054688 159.18075561523438 L 177.20626831054688 159.18075561523438 L 177.20626831054688 169.18075561523438 L 167.20626831054688 169.18075561523438 L 167.20626831054688 159.18075561523438" fill-opacity="1" clip-path="url(#LFwdaaoTetVB)" stroke-opacity="0.7019607843137254" stroke-linejoin="bevel" stroke-miterlimit="10" stroke-width="2" stroke-dasharray=""/><path fill="rgb(148,103,189)" stroke="rgb(0,0,0)" paint-order="fill" d="M 207.7176513671875 74.87499237060547 L 217.7176513671875 74.87499237060547 L 217.7176513671875 84.87499237060547 L 207.7176513671875 84.87499237060547 L 207.7176513671875 74.87499237060547" fill-opacity="1" clip-path="url(#LFwdaaoTetVB)" stroke-opacity="0.7019607843137254" stroke-linejoin="bevel" stroke-miterlimit="10" stroke-width="2" stroke-dasharray=""/><path fill="rgb(255,127,14)" stroke="rgb(0,0,0)" paint-order="fill" d="M 138.52023315429688 150.18284606933594 L 148.52023315429688 150.18284606933594 L 148.52023315429688 160.18284606933594 L 138.52023315429688 160.18284606933594 L 138.52023315429688 150.18284606933594" fill-opacity="1" clip-path="url(#LFwdaaoTetVB)" stroke-opacity="0.7019607843137254" stroke-linejoin="bevel" stroke-miterlimit="10" stroke-width="2" stroke-dasharray=""/><path fill="rgb(152,223,138)" stroke="rgb(0,0,0)" paint-order="fill" d="M 170.7935333251953 138.1133575439453 L 180.7935333251953 138.1133575439453 L 180.7935333251953 148.1133575439453 L 170.7935333251953 148.1133575439453 L 170.7935333251953 138.1133575439453" fill-opacity="1" clip-path="url(#LFwdaaoTetVB)" stroke-opacity="0.7019607843137254" stroke-linejoin="bevel" stroke-miterlimit="10" stroke-width="2" stroke-dasharray=""/><path fill="rgb(148,103,189)" stroke="rgb(0,0,0)" paint-order="fill" d="M 202.47267150878906 41.738094329833984 L 212.47267150878906 41.738094329833984 L 212.47267150878906 51.738094329833984 L 202.47267150878906 51.738094329833984 L 202.47267150878906 41.738094329833984" fill-opacity="1" clip-path="url(#LFwdaaoTetVB)" stroke-opacity="0.7019607843137254" stroke-linejoin="bevel" stroke-miterlimit="10" stroke-width="2" stroke-dasharray=""/><path fill="rgb(255,127,14)" stroke="rgb(0,0,0)" paint-order="fill" d="M 134.67889404296875 189.318359375 L 144.67889404296875 189.318359375 L 144.67889404296875 199.318359375 L 134.67889404296875 199.318359375 L 134.67889404296875 189.318359375" fill-opacity="1" clip-path="url(#LFwdaaoTetVB)" stroke-opacity="0.7019607843137254" stroke-linejoin="bevel" stroke-miterlimit="10" stroke-width="2" stroke-dasharray=""/><path fill="rgb(152,223,138)" stroke="rgb(0,0,0)" paint-order="fill" d="M 170.77359008789062 183.28359985351562 L 180.77359008789062 183.28359985351562 L 180.77359008789062 193.28359985351562 L 170.77359008789062 193.28359985351562 L 170.77359008789062 183.28359985351562" fill-opacity="1" clip-path="url(#LFwdaaoTetVB)" stroke-opacity="0.7019607843137254" stroke-linejoin="bevel" stroke-miterlimit="10" stroke-width="2" stroke-dasharray=""/><path fill="rgb(148,103,189)" stroke="rgb(0,0,0)" paint-order="fill" d="M 203.562744140625 95.9785385131836 L 213.562744140625 95.9785385131836 L 213.562744140625 105.9785385131836 L 203.562744140625 105.9785385131836 L 203.562744140625 95.9785385131836" fill-opacity="1" clip-path="url(#LFwdaaoTetVB)" stroke-opacity="0.7019607843137254" stroke-linejoin="bevel" stroke-miterlimit="10" stroke-width="2" stroke-dasharray=""/><path fill="rgb(255,127,14)" stroke="rgb(0,0,0)" paint-order="fill" d="M 135.2781219482422 198.35240173339844 L 145.2781219482422 198.35240173339844 L 145.2781219482422 208.35240173339844 L 135.2781219482422 208.35240173339844 L 135.2781219482422 198.35240173339844" fill-opacity="1" clip-path="url(#LFwdaaoTetVB)" stroke-opacity="0.7019607843137254" stroke-linejoin="bevel" stroke-miterlimit="10" stroke-width="2" stroke-dasharray=""/><path fill="rgb(152,223,138)" stroke="rgb(0,0,0)" paint-order="fill" d="M 167.4827423095703 150.18284606933594 L 177.4827423095703 150.18284606933594 L 177.4827423095703 160.18284606933594 L 167.4827423095703 160.18284606933594 L 167.4827423095703 150.18284606933594" fill-opacity="1" clip-path="url(#LFwdaaoTetVB)" stroke-opacity="0.7019607843137254" stroke-linejoin="bevel" stroke-miterlimit="10" stroke-width="2" stroke-dasharray=""/><path fill="rgb(148,103,189)" stroke="rgb(0,0,0)" paint-order="fill" d="M 209.1051025390625 150.18284606933594 L 219.1051025390625 150.18284606933594 L 219.1051025390625 160.18284606933594 L 209.1051025390625 160.18284606933594 L 209.1051025390625 150.18284606933594" fill-opacity="1" clip-path="url(#LFwdaaoTetVB)" stroke-opacity="0.7019607843137254" stroke-linejoin="bevel" stroke-miterlimit="10" stroke-width="2" stroke-dasharray=""/><path fill="rgb(255,127,14)" stroke="rgb(0,0,0)" paint-order="fill" d="M 132.50099182128906 195.31695556640625 L 142.50099182128906 195.31695556640625 L 142.50099182128906 205.31695556640625 L 132.50099182128906 205.31695556640625 L 132.50099182128906 195.31695556640625" fill-opacity="1" clip-path="url(#LFwdaaoTetVB)" stroke-opacity="0.7019607843137254" stroke-linejoin="bevel" stroke-miterlimit="10" stroke-width="2" stroke-dasharray=""/><path fill="rgb(152,223,138)" stroke="rgb(0,0,0)" paint-order="fill" d="M 173.00502014160156 150.18284606933594 L 183.00502014160156 150.18284606933594 L 183.00502014160156 160.18284606933594 L 173.00502014160156 160.18284606933594 L 173.00502014160156 150.18284606933594" fill-opacity="1" clip-path="url(#LFwdaaoTetVB)" stroke-opacity="0.7019607843137254" stroke-linejoin="bevel" stroke-miterlimit="10" stroke-width="2" stroke-dasharray=""/><path fill="rgb(148,103,189)" stroke="rgb(0,0,0)" paint-order="fill" d="M 204.11581420898438 111.01119995117188 L 214.11581420898438 111.01119995117188 L 214.11581420898438 121.01119995117188 L 204.11581420898438 121.01119995117188 L 204.11581420898438 111.01119995117188" fill-opacity="1" clip-path="url(#LFwdaaoTetVB)" stroke-opacity="0.7019607843137254" stroke-linejoin="bevel" stroke-miterlimit="10" stroke-width="2" stroke-dasharray=""/><path fill="rgb(255,127,14)" stroke="rgb(0,0,0)" paint-order="fill" d="M 133.140869140625 234.4524688720703 L 143.140869140625 234.4524688720703 L 143.140869140625 244.4524688720703 L 133.140869140625 244.4524688720703 L 133.140869140625 234.4524688720703" fill-opacity="1" clip-path="url(#LFwdaaoTetVB)" stroke-opacity="0.7019607843137254" stroke-linejoin="bevel" stroke-miterlimit="10" stroke-width="2" stroke-dasharray=""/><path fill="rgb(152,223,138)" stroke="rgb(0,0,0)" paint-order="fill" d="M 164.91455078125 177.28500366210938 L 174.91455078125 177.28500366210938 L 174.91455078125 187.28500366210938 L 164.91455078125 187.28500366210938 L 164.91455078125 177.28500366210938" fill-opacity="1" clip-path="url(#LFwdaaoTetVB)" stroke-opacity="0.7019607843137254" stroke-linejoin="bevel" stroke-miterlimit="10" stroke-width="2" stroke-dasharray=""/><path fill="rgb(148,103,189)" stroke="rgb(0,0,0)" paint-order="fill" d="M 208.06304931640625 150.14671325683594 L 218.06304931640625 150.14671325683594 L 218.06304931640625 160.14671325683594 L 208.06304931640625 160.14671325683594 L 208.06304931640625 150.14671325683594" fill-opacity="1" clip-path="url(#LFwdaaoTetVB)" stroke-opacity="0.7019607843137254" stroke-linejoin="bevel" stroke-miterlimit="10" stroke-width="2" stroke-dasharray=""/><path fill="rgb(255,187,120)" stroke="rgb(0,0,0)" paint-order="fill" d="M 245.70753479003906 120.04524993896484 L 255.70753479003906 120.04524993896484 L 255.70753479003906 130.04524993896484 L 245.70753479003906 130.04524993896484 L 245.70753479003906 120.04524993896484" fill-opacity="1" clip-path="url(#LFwdaaoTetVB)" stroke-opacity="0.7019607843137254" stroke-linejoin="bevel" stroke-miterlimit="10" stroke-width="2" stroke-dasharray=""/><path fill="rgb(214,39,40)" stroke="rgb(0,0,0)" paint-order="fill" d="M 276.2466125488281 186.3190460205078 L 286.2466125488281 186.3190460205078 L 286.2466125488281 196.3190460205078 L 276.2466125488281 196.3190460205078 L 276.2466125488281 186.3190460205078" fill-opacity="1" clip-path="url(#LFwdaaoTetVB)" stroke-opacity="0.7019607843137254" stroke-linejoin="bevel" stroke-miterlimit="10" stroke-width="2" stroke-dasharray=""/><path fill="rgb(255,187,120)" stroke="rgb(0,0,0)" paint-order="fill" d="M 240.57546997070312 86.9083480834961 L 250.57546997070312 86.9083480834961 L 250.57546997070312 96.9083480834961 L 240.57546997070312 96.9083480834961 L 240.57546997070312 86.9083480834961" fill-opacity="1" clip-path="url(#LFwdaaoTetVB)" stroke-opacity="0.7019607843137254" stroke-linejoin="bevel" stroke-miterlimit="10" stroke-width="2" stroke-dasharray=""/><path fill="rgb(214,39,40)" stroke="rgb(0,0,0)" paint-order="fill" d="M 276.7572021484375 234.4886016845703 L 286.7572021484375 234.4886016845703 L 286.7572021484375 244.4886016845703 L 276.7572021484375 244.4886016845703 L 276.7572021484375 234.4886016845703" fill-opacity="1" clip-path="url(#LFwdaaoTetVB)" stroke-opacity="0.7019607843137254" stroke-linejoin="bevel" stroke-miterlimit="10" stroke-width="2" stroke-dasharray=""/><path fill="rgb(255,187,120)" stroke="rgb(0,0,0)" paint-order="fill" d="M 245.0982666015625 213.38507080078125 L 255.0982666015625 213.38507080078125 L 255.0982666015625 223.38507080078125 L 245.0982666015625 223.38507080078125 L 245.0982666015625 213.38507080078125" fill-opacity="1" clip-path="url(#LFwdaaoTetVB)" stroke-opacity="0.7019607843137254" stroke-linejoin="bevel" stroke-miterlimit="10" stroke-width="2" stroke-dasharray=""/><path fill="rgb(214,39,40)" stroke="rgb(0,0,0)" paint-order="fill" d="M 279.7560119628906 159.21688842773438 L 289.7560119628906 159.21688842773438 L 289.7560119628906 169.21688842773438 L 279.7560119628906 169.21688842773438 L 279.7560119628906 159.21688842773438" fill-opacity="1" clip-path="url(#LFwdaaoTetVB)" stroke-opacity="0.7019607843137254" stroke-linejoin="bevel" stroke-miterlimit="10" stroke-width="2" stroke-dasharray=""/><path fill="rgb(255,187,120)" stroke="rgb(0,0,0)" paint-order="fill" d="M 240.2232666015625 195.3531036376953 L 250.2232666015625 195.3531036376953 L 250.2232666015625 205.3531036376953 L 240.2232666015625 205.3531036376953 L 240.2232666015625 195.3531036376953" fill-opacity="1" clip-path="url(#LFwdaaoTetVB)" stroke-opacity="0.7019607843137254" stroke-linejoin="bevel" stroke-miterlimit="10" stroke-width="2" stroke-dasharray=""/><path fill="rgb(214,39,40)" stroke="rgb(0,0,0)" paint-order="fill" d="M 275.1404724121094 180.2843017578125 L 285.1404724121094 180.2843017578125 L 285.1404724121094 190.2843017578125 L 275.1404724121094 190.2843017578125 L 275.1404724121094 180.2843017578125" fill-opacity="1" clip-path="url(#LFwdaaoTetVB)" stroke-opacity="0.7019607843137254" stroke-linejoin="bevel" stroke-miterlimit="10" stroke-width="2" stroke-dasharray=""/><path fill="rgb(255,187,120)" stroke="rgb(0,0,0)" paint-order="fill" d="M 243.9915771484375 219.41981506347656 L 253.9915771484375 219.41981506347656 L 253.9915771484375 229.41981506347656 L 243.9915771484375 229.41981506347656 L 243.9915771484375 219.41981506347656" fill-opacity="1" clip-path="url(#LFwdaaoTetVB)" stroke-opacity="0.7019607843137254" stroke-linejoin="bevel" stroke-miterlimit="10" stroke-width="2" stroke-dasharray=""/><path fill="rgb(214,39,40)" stroke="rgb(0,0,0)" paint-order="fill" d="M 278.9254455566406 192.35379028320312 L 288.9254455566406 192.35379028320312 L 288.9254455566406 202.35379028320312 L 278.9254455566406 202.35379028320312 L 278.9254455566406 192.35379028320312" fill-opacity="1" clip-path="url(#LFwdaaoTetVB)" stroke-opacity="0.7019607843137254" stroke-linejoin="bevel" stroke-miterlimit="10" stroke-width="2" stroke-dasharray=""/><path fill="none" stroke="rgb(0,0,0)" paint-order="fill" d="M 50.5 351.5 L 370.5 351.5" stroke-opacity="1" stroke-linejoin="bevel" stroke-miterlimit="10" stroke-dasharray=""/><path fill="none" stroke="rgb(0,0,0)" paint-order="fill" d="M 68.5 357.5 L 68.5 349.5 M 103.5 357.5 L 103.5 349.5 M 139.5 357.5 L 139.5 349.5 M 174.5 357.5 L 174.5 349.5 M 210.5 357.5 L 210.5 349.5 M 246.5 357.5 L 246.5 349.5 M 281.5 357.5 L 281.5 349.5 M 317.5 357.5 L 317.5 349.5 M 352.5 357.5 L 352.5 349.5" stroke-opacity="1" stroke-linejoin="bevel" stroke-miterlimit="10" stroke-dasharray=""/><path fill="none" stroke="rgb(0,0,0)" paint-order="fill" d="" stroke-opacity="1" stroke-linejoin="bevel" stroke-miterlimit="10" stroke-dasharray=""/><text fill="rgb(68,68,68)" stroke="none" font-family="helvetica" font-size="12pt" font-style="normal" font-weight="normal" text-decoration="normal" x="42.91111183166504" y="367.83203125" text-anchor="start" dominant-baseline="alphabetic" transform="matrix(0.7071067811865476, -0.7071067811865475, 0.7071067811865475, 0.7071067811865476, -235.6210030438853, 154.45347209031317)" fill-opacity="1">WT</text><text fill="rgb(68,68,68)" stroke="none" font-family="helvetica" font-size="12pt" font-style="normal" font-weight="normal" text-decoration="normal" x="55.31666946411133" y="367.83203125" text-anchor="start" dominant-baseline="alphabetic" transform="matrix(0.7071067811865476, -0.7071067811865475, 0.7071067811865475, 0.7071067811865476, -225.20702143394078, 179.59504773134523)" fill-opacity="1">Abiotic</text><text fill="rgb(68,68,68)" stroke="none" font-family="helvetica" font-size="12pt" font-style="normal" font-weight="normal" text-decoration="normal" x="65.07221984863281" y="367.83203125" text-anchor="start" dominant-baseline="alphabetic" transform="matrix(0.7071067811865476, -0.7071067811865475, 0.7071067811865475, 0.7071067811865476, -214.7930420585942, 204.73661797758064)" fill-opacity="1">napA-tlKO</text><text fill="rgb(68,68,68)" stroke="none" font-family="helvetica" font-size="12pt" font-style="normal" font-weight="normal" text-decoration="normal" x="102.4111099243164" y="367.83203125" text-anchor="start" dominant-baseline="alphabetic" transform="matrix(0.7071067811865476, -0.7071067811865475, 0.7071067811865475, 0.7071067811865476, -204.37906044864968, 229.8781936186127)" fill-opacity="1">narG-tlKO</text><text fill="rgb(68,68,68)" stroke="none" font-family="helvetica" font-size="12pt" font-style="normal" font-weight="normal" text-decoration="normal" x="140.6500015258789" y="367.83203125" text-anchor="start" dominant-baseline="alphabetic" transform="matrix(0.7071067811865476, -0.7071067811865475, 0.7071067811865475, 0.7071067811865476, -193.96507883870515, 255.01976925964473)" fill-opacity="1">narZ-tlKO</text><text fill="rgb(68,68,68)" stroke="none" font-family="helvetica" font-size="12pt" font-style="normal" font-weight="normal" text-decoration="normal" x="138.8388900756836" y="367.83203125" text-anchor="start" dominant-baseline="alphabetic" transform="matrix(0.7071067811865476, -0.7071067811865475, 0.7071067811865475, 0.7071067811865476, -183.55109722876068, 280.1613449006768)" fill-opacity="1">napAnarZ-tlKO</text><text fill="rgb(68,68,68)" stroke="none" font-family="helvetica" font-size="12pt" font-style="normal" font-weight="normal" text-decoration="normal" x="171.71111297607422" y="367.83203125" text-anchor="start" dominant-baseline="alphabetic" transform="matrix(0.7071067811865476, -0.7071067811865475, 0.7071067811865475, 0.7071067811865476, -173.1371156188161, 305.30292054170883)" fill-opacity="1">narGnapA-tlKO</text><text fill="rgb(68,68,68)" stroke="none" font-family="helvetica" font-size="12pt" font-style="normal" font-weight="normal" text-decoration="normal" x="211.7333221435547" y="367.83203125" text-anchor="start" dominant-baseline="alphabetic" transform="matrix(0.7071067811865476, -0.7071067811865475, 0.7071067811865475, 0.7071067811865476, -162.72313847806743, 330.44448539314766)" fill-opacity="1">narGnarZ-tlKO</text><text fill="rgb(68,68,68)" stroke="none" font-family="helvetica" font-size="12pt" font-style="normal" font-weight="normal" text-decoration="normal" x="209.92222595214844" y="367.83203125" text-anchor="start" dominant-baseline="alphabetic" transform="matrix(0.7071067811865476, -0.7071067811865475, 0.7071067811865475, 0.7071067811865476, -152.3091523989271, 355.58607182377295)" fill-opacity="1">napAnarZnarG-tlKO</text><text fill="rgb(128,128,128)" stroke="none" font-family="helvetica" font-size="11px" font-style="normal" font-weight="bold" text-decoration="normal" x="184.02499961853027" y="494.4604507775341" text-anchor="start" dominant-baseline="alphabetic" transform="matrix(1, 0, 0, 1, 0.5, 0.5)" fill-opacity="1">PCA, NO3</text><path fill="none" stroke="rgb(0,0,0)" paint-order="fill" d="M 50.5 351.5 L 50.5 31.5" stroke-opacity="1" stroke-linejoin="bevel" stroke-miterlimit="10" stroke-dasharray=""/><path fill="none" stroke="rgb(0,0,0)" paint-order="fill" d="M 44.5 323.5 L 52.5 323.5 M 44.5 251.5 L 52.5 251.5 M 44.5 179.5 L 52.5 179.5 M 44.5 106.5 L 52.5 106.5 M 44.5 34.5 L 52.5 34.5" stroke-opacity="1" stroke-linejoin="bevel" stroke-miterlimit="10" stroke-dasharray=""/><path fill="none" stroke="rgb(0,0,0)" paint-order="fill" d="M 46.5 338.5 L 50.5 338.5 M 46.5 323.5 L 50.5 323.5 M 46.5 309.5 L 50.5 309.5 M 46.5 294.5 L 50.5 294.5 M 46.5 280.5 L 50.5 280.5 M 46.5 265.5 L 50.5 265.5 M 46.5 251.5 L 50.5 251.5 M 46.5 237.5 L 50.5 237.5 M 46.5 222.5 L 50.5 222.5 M 46.5 208.5 L 50.5 208.5 M 46.5 193.5 L 50.5 193.5 M 46.5 179.5 L 50.5 179.5 M 46.5 164.5 L 50.5 164.5 M 46.5 150.5 L 50.5 150.5 M 46.5 135.5 L 50.5 135.5 M 46.5 121.5 L 50.5 121.5 M 46.5 106.5 L 50.5 106.5 M 46.5 92.5 L 50.5 92.5 M 46.5 78.5 L 50.5 78.5 M 46.5 63.5 L 50.5 63.5 M 46.5 49.5 L 50.5 49.5 M 46.5 34.5 L 50.5 34.5" stroke-opacity="1" stroke-linejoin="bevel" stroke-miterlimit="10" stroke-dasharray=""/><text fill="rgb(68,68,68)" stroke="none" font-family="helvetica" font-size="12pt" font-style="normal" font-weight="normal" text-decoration="normal" x="30.100000381469727" y="329.03265380859375" text-anchor="start" dominant-baseline="alphabetic" transform="matrix(1, 0, 0, 1, 0.5, 0.5)" fill-opacity="1">0</text><text fill="rgb(68,68,68)" stroke="none" font-family="helvetica" font-size="12pt" font-style="normal" font-weight="normal" text-decoration="normal" x="30.100000381469727" y="256.76023864746094" text-anchor="start" dominant-baseline="alphabetic" transform="matrix(1, 0, 0, 1, 0.5, 0.5)" fill-opacity="1">2</text><text fill="rgb(68,68,68)" stroke="none" font-family="helvetica" font-size="12pt" font-style="normal" font-weight="normal" text-decoration="normal" x="30.100000381469727" y="184.4878387451172" text-anchor="start" dominant-baseline="alphabetic" transform="matrix(1, 0, 0, 1, 0.5, 0.5)" fill-opacity="1">4</text><text fill="rgb(68,68,68)" stroke="none" font-family="helvetica" font-size="12pt" font-style="normal" font-weight="normal" text-decoration="normal" x="30.100000381469727" y="112.2154312133789" text-anchor="start" dominant-baseline="alphabetic" transform="matrix(1, 0, 0, 1, 0.5, 0.5)" fill-opacity="1">6</text><text fill="rgb(68,68,68)" stroke="none" font-family="helvetica" font-size="12pt" font-style="normal" font-weight="normal" text-decoration="normal" x="30.100000381469727" y="39.94301986694336" text-anchor="start" dominant-baseline="alphabetic" transform="matrix(1, 0, 0, 1, 0.5, 0.5)" fill-opacity="1">8</text><text fill="rgb(68,68,68)" stroke="none" font-family="helvetica" font-size="12pt" font-style="italic" font-weight="normal" text-decoration="normal" x="-128.80834007263184" y="187.4609375" text-anchor="start" dominant-baseline="alphabetic" transform="matrix(6.123233995736766e-17, -1, 1, 6.123233995736766e-17, -168.39999961853027, 213.60000038146973)" fill-opacity="1">Time to 50% max [PCAred] from max (hrs)</text><path fill="none" stroke="none"/><text fill="rgb(68,68,68)" stroke="none" font-family="helvetica" font-size="12pt" font-style="normal" font-weight="bold" text-decoration="normal" x="0" y="0" text-anchor="start" dominant-baseline="text-after-edge" transform="matrix(1, 0, 0, 1, 50.5, 26.5)" fill-opacity="1"> </text></svg>