<svg version="1.1" xmlns="http://www.w3.org/2000/svg" xmlns:xlink="http://www.w3.org/1999/xlink" width="800" height="400"><defs><clipPath id="OsfqgaTRPPMV"><path fill="none" stroke="none" d="M 61.5 5.5 L 770.5 5.5 L 770.5 196.5 L 61.5 196.5 L 61.5 5.5"/></clipPath><clipPath id="IRGKIVQwgcuI"><path fill="none" stroke="none" d="M 61.5 5.5 L 770.5 5.5 L 770.5 196.5 L 61.5 196.5 L 61.5 5.5"/></clipPath><clipPath id="QmPowIRGHamx"><path fill="none" stroke="none" d="M 61.5 5.5 L 770.5 5.5 L 770.5 196.5 L 61.5 196.5 L 61.5 5.5"/></clipPath><clipPath id="MyhRovxWXQWR"><path fill="none" stroke="none" d="M 61.5 5.5 L 770.5 5.5 L 770.5 196.5 L 61.5 196.5 L 61.5 5.5"/></clipPath><clipPath id="IWRzHSftQXlI"><path fill="none" stroke="none" d="M 61.5 5.5 L 770.5 5.5 L 770.5 196.5 L 61.5 196.5 L 61.5 5.5"/></clipPath></defs><path fill="rgb(255,255,255)" stroke="none" paint-order="stroke" d="M 0.5 0.5 L 800.5 0.5 L 800.5 400.5 L 0.5 400.5 L 0.5 0.5" fill-opacity="1"/><rect fill="#FFFFFF" stroke="none" x="61" y="5" width="709" height="191" transform="matrix(1, 0, 0, 1, 0.5, 0.5)"/><path fill="rgb(255,255,255)" stroke="none" paint-order="stroke" d="M 61.5 5.5 L 770.5 5.5 L 770.5 196.5 L 61.5 196.5 L 61.5 5.5" fill-opacity="1"/><path fill="none" stroke="rgb(229,229,229)" paint-order="fill" d="M 61.5 5.5 L 770.5 5.5 L 770.5 196.5 L 61.5 196.5 L 61.5 5.5" stroke-opacity="1" stroke-linejoin="bevel" stroke-miterlimit="10" stroke-dasharray=""/><path fill="none" stroke="rgb(229,229,229)" paint-order="fill" d="M 61.5 173.5 L 770.5 173.5 M 61.5 86.5 L 770.5 86.5" stroke-opacity="1" stroke-linejoin="bevel" stroke-miterlimit="10" stroke-dasharray="" clip-path="url(#IRGKIVQwgcuI)"/><path fill="none" stroke="none"/><path fill="rgb(255,127,14)" stroke="rgb(0,0,0)" paint-order="fill" d="M 78.20463562011719 142.56362915039062 A 5 5 0 1 1 78.20463312011739 142.55862915122395" fill-opacity="1" clip-path="url(#QmPowIRGHamx)" stroke-opacity="0.7019607843137254" stroke-linejoin="bevel" stroke-miterlimit="10" stroke-width="2" stroke-dasharray=""/><path fill="rgb(255,127,14)" stroke="rgb(0,0,0)" paint-order="fill" d="M 267.8663635253906 91.25102996826172 A 5 5 0 1 1 267.86636102539086 91.24602996909505" fill-opacity="1" clip-path="url(#QmPowIRGHamx)" stroke-opacity="0.7019607843137254" stroke-linejoin="bevel" stroke-miterlimit="10" stroke-width="2" stroke-dasharray=""/><path fill="rgb(255,127,14)" stroke="rgb(0,0,0)" paint-order="fill" d="M 447.840087890625 144.8948974609375 A 5 5 0 1 1 447.84008539062523 144.88989746177083" fill-opacity="1" clip-path="url(#QmPowIRGHamx)" stroke-opacity="0.7019607843137254" stroke-linejoin="bevel" stroke-miterlimit="10" stroke-width="2" stroke-dasharray=""/><path fill="rgb(255,127,14)" stroke="rgb(0,0,0)" paint-order="fill" d="M 633.5022583007812 27.264432907104492 A 5 5 0 1 1 633.5022558007814 27.25943290793782" fill-opacity="1" clip-path="url(#QmPowIRGHamx)" stroke-opacity="0.7019607843137254" stroke-linejoin="bevel" stroke-miterlimit="10" stroke-width="2" stroke-dasharray=""/><path fill="rgb(255,127,14)" stroke="rgb(0,0,0)" paint-order="fill" d="M 79.71070861816406 155.5145721435547 A 5 5 0 1 1 79.71070611816427 155.50957214438802" fill-opacity="1" clip-path="url(#QmPowIRGHamx)" stroke-opacity="0.7019607843137254" stroke-linejoin="bevel" stroke-miterlimit="10" stroke-width="2" stroke-dasharray=""/><path fill="rgb(255,127,14)" stroke="rgb(0,0,0)" paint-order="fill" d="M 262.47332763671875 90.7982177734375 A 5 5 0 1 1 262.473325136719 90.79321777427083" fill-opacity="1" clip-path="url(#QmPowIRGHamx)" stroke-opacity="0.7019607843137254" stroke-linejoin="bevel" stroke-miterlimit="10" stroke-width="2" stroke-dasharray=""/><path fill="rgb(255,127,14)" stroke="rgb(0,0,0)" paint-order="fill" d="M 451.6365051269531 154.05746459960938 A 5 5 0 1 1 451.63650262695336 154.0524646004427" fill-opacity="1" clip-path="url(#QmPowIRGHamx)" stroke-opacity="0.7019607843137254" stroke-linejoin="bevel" stroke-miterlimit="10" stroke-width="2" stroke-dasharray=""/><path fill="rgb(255,127,14)" stroke="rgb(0,0,0)" paint-order="fill" d="M 634.5184936523438 17.306825637817383 A 5 5 0 1 1 634.5184911523439 17.301825638650712" fill-opacity="1" clip-path="url(#QmPowIRGHamx)" stroke-opacity="0.7019607843137254" stroke-linejoin="bevel" stroke-miterlimit="10" stroke-width="2" stroke-dasharray=""/><path fill="rgb(255,127,14)" stroke="rgb(0,0,0)" paint-order="fill" d="M 78.06920623779297 176.69796752929688 A 5 5 0 1 1 78.06920373779317 176.6929675301302" fill-opacity="1" clip-path="url(#QmPowIRGHamx)" stroke-opacity="0.7019607843137254" stroke-linejoin="bevel" stroke-miterlimit="10" stroke-width="2" stroke-dasharray=""/><path fill="rgb(255,127,14)" stroke="rgb(0,0,0)" paint-order="fill" d="M 261.68212890625 87.69648742675781 A 5 5 0 1 1 261.68212640625023 87.69148742759114" fill-opacity="1" clip-path="url(#QmPowIRGHamx)" stroke-opacity="0.7019607843137254" stroke-linejoin="bevel" stroke-miterlimit="10" stroke-width="2" stroke-dasharray=""/><path fill="rgb(255,127,14)" stroke="rgb(0,0,0)" paint-order="fill" d="M 447.4943542480469 151.20982360839844 A 5 5 0 1 1 447.4943517480471 151.20482360923177" fill-opacity="1" clip-path="url(#QmPowIRGHamx)" stroke-opacity="0.7019607843137254" stroke-linejoin="bevel" stroke-miterlimit="10" stroke-width="2" stroke-dasharray=""/><path fill="rgb(255,127,14)" stroke="rgb(0,0,0)" paint-order="fill" d="M 634.4927368164062 14.181818008422852 A 5 5 0 1 1 634.4927343164064 14.176818009256182" fill-opacity="1" clip-path="url(#QmPowIRGHamx)" stroke-opacity="0.7019607843137254" stroke-linejoin="bevel" stroke-miterlimit="10" stroke-width="2" stroke-dasharray=""/><path fill="rgb(174,199,232)" stroke="rgb(0,0,0)" paint-order="fill" d="M 126.1119613647461 182.7973175048828 A 5 5 0 1 1 126.1119588647463 182.79231750571614" fill-opacity="1" clip-path="url(#QmPowIRGHamx)" stroke-opacity="0.7019607843137254" stroke-linejoin="bevel" stroke-miterlimit="10" stroke-width="2" stroke-dasharray=""/><path fill="rgb(174,199,232)" stroke="rgb(0,0,0)" paint-order="fill" d="M 312.0411071777344 144.6285400390625 A 5 5 0 1 1 312.0411046777346 144.62354003989583" fill-opacity="1" clip-path="url(#QmPowIRGHamx)" stroke-opacity="0.7019607843137254" stroke-linejoin="bevel" stroke-miterlimit="10" stroke-width="2" stroke-dasharray=""/><path fill="rgb(174,199,232)" stroke="rgb(0,0,0)" paint-order="fill" d="M 501.1597900390625 150.6748809814453 A 5 5 0 1 1 501.15978753906273 150.66988098227864" fill-opacity="1" clip-path="url(#QmPowIRGHamx)" stroke-opacity="0.7019607843137254" stroke-linejoin="bevel" stroke-miterlimit="10" stroke-width="2" stroke-dasharray=""/><path fill="rgb(174,199,232)" stroke="rgb(0,0,0)" paint-order="fill" d="M 684.1431274414062 88.5816879272461 A 5 5 0 1 1 684.1431249414064 88.57668792807942" fill-opacity="1" clip-path="url(#QmPowIRGHamx)" stroke-opacity="0.7019607843137254" stroke-linejoin="bevel" stroke-miterlimit="10" stroke-width="2" stroke-dasharray=""/><path fill="rgb(174,199,232)" stroke="rgb(0,0,0)" paint-order="fill" d="M 128.66155242919922 163.09434509277344 A 5 5 0 1 1 128.66154992919942 163.08934509360677" fill-opacity="1" clip-path="url(#QmPowIRGHamx)" stroke-opacity="0.7019607843137254" stroke-linejoin="bevel" stroke-miterlimit="10" stroke-width="2" stroke-dasharray=""/><path fill="rgb(174,199,232)" stroke="rgb(0,0,0)" paint-order="fill" d="M 312.1141662597656 159.68759155273438 A 5 5 0 1 1 312.11416375976586 159.6825915535677" fill-opacity="1" clip-path="url(#QmPowIRGHamx)" stroke-opacity="0.7019607843137254" stroke-linejoin="bevel" stroke-miterlimit="10" stroke-width="2" stroke-dasharray=""/><path fill="rgb(174,199,232)" stroke="rgb(0,0,0)" paint-order="fill" d="M 503.30865478515625 153.53440856933594 A 5 5 0 1 1 503.3086522851565 153.52940857016927" fill-opacity="1" clip-path="url(#QmPowIRGHamx)" stroke-opacity="0.7019607843137254" stroke-linejoin="bevel" stroke-miterlimit="10" stroke-width="2" stroke-dasharray=""/><path fill="rgb(174,199,232)" stroke="rgb(0,0,0)" paint-order="fill" d="M 684.4188232421875 78.54108428955078 A 5 5 0 1 1 684.4188207421877 78.53608429038411" fill-opacity="1" clip-path="url(#QmPowIRGHamx)" stroke-opacity="0.7019607843137254" stroke-linejoin="bevel" stroke-miterlimit="10" stroke-width="2" stroke-dasharray=""/><path fill="rgb(174,199,232)" stroke="rgb(0,0,0)" paint-order="fill" d="M 131.1520233154297 165.7384796142578 A 5 5 0 1 1 131.1520208154299 165.73347961509114" fill-opacity="1" clip-path="url(#QmPowIRGHamx)" stroke-opacity="0.7019607843137254" stroke-linejoin="bevel" stroke-miterlimit="10" stroke-width="2" stroke-dasharray=""/><path fill="rgb(174,199,232)" stroke="rgb(0,0,0)" paint-order="fill" d="M 313.2489013671875 167.69374084472656 A 5 5 0 1 1 313.24889886718773 167.6887408455599" fill-opacity="1" clip-path="url(#QmPowIRGHamx)" stroke-opacity="0.7019607843137254" stroke-linejoin="bevel" stroke-miterlimit="10" stroke-width="2" stroke-dasharray=""/><path fill="rgb(174,199,232)" stroke="rgb(0,0,0)" paint-order="fill" d="M 498.25457763671875 150.67344665527344 A 5 5 0 1 1 498.254575136719 150.66844665610677" fill-opacity="1" clip-path="url(#QmPowIRGHamx)" stroke-opacity="0.7019607843137254" stroke-linejoin="bevel" stroke-miterlimit="10" stroke-width="2" stroke-dasharray=""/><path fill="rgb(174,199,232)" stroke="rgb(0,0,0)" paint-order="fill" d="M 690.2927856445312 84.95188903808594 A 5 5 0 1 1 690.2927831445314 84.94688903891927" fill-opacity="1" clip-path="url(#QmPowIRGHamx)" stroke-opacity="0.7019607843137254" stroke-linejoin="bevel" stroke-miterlimit="10" stroke-width="2" stroke-dasharray=""/><path fill="rgb(255,187,120)" stroke="rgb(0,0,0)" paint-order="fill" d="M 152.01974487304688 139.449951171875 A 5 5 0 1 1 152.01974237304708 139.44495117270833" fill-opacity="1" clip-path="url(#QmPowIRGHamx)" stroke-opacity="0.7019607843137254" stroke-linejoin="bevel" stroke-miterlimit="10" stroke-width="2" stroke-dasharray=""/><path fill="rgb(255,187,120)" stroke="rgb(0,0,0)" paint-order="fill" d="M 340.8558654785156 161.94078063964844 A 5 5 0 1 1 340.85586297851586 161.93578064048177" fill-opacity="1" clip-path="url(#QmPowIRGHamx)" stroke-opacity="0.7019607843137254" stroke-linejoin="bevel" stroke-miterlimit="10" stroke-width="2" stroke-dasharray=""/><path fill="rgb(255,187,120)" stroke="rgb(0,0,0)" paint-order="fill" d="M 527.1100463867188 127.57937622070312 A 5 5 0 1 1 527.1100438867189 127.57437622153645" fill-opacity="1" clip-path="url(#QmPowIRGHamx)" stroke-opacity="0.7019607843137254" stroke-linejoin="bevel" stroke-miterlimit="10" stroke-width="2" stroke-dasharray=""/><path fill="rgb(255,187,120)" stroke="rgb(0,0,0)" paint-order="fill" d="M 708.9633178710938 68.012451171875 A 5 5 0 1 1 708.9633153710939 68.00745117270833" fill-opacity="1" clip-path="url(#QmPowIRGHamx)" stroke-opacity="0.7019607843137254" stroke-linejoin="bevel" stroke-miterlimit="10" stroke-width="2" stroke-dasharray=""/><path fill="rgb(255,187,120)" stroke="rgb(0,0,0)" paint-order="fill" d="M 154.6304168701172 166.48056030273438 A 5 5 0 1 1 154.6304143701174 166.4755603035677" fill-opacity="1" clip-path="url(#QmPowIRGHamx)" stroke-opacity="0.7019607843137254" stroke-linejoin="bevel" stroke-miterlimit="10" stroke-width="2" stroke-dasharray=""/><path fill="rgb(255,187,120)" stroke="rgb(0,0,0)" paint-order="fill" d="M 337.07763671875 164.1302947998047 A 5 5 0 1 1 337.07763421875023 164.12529480063802" fill-opacity="1" clip-path="url(#QmPowIRGHamx)" stroke-opacity="0.7019607843137254" stroke-linejoin="bevel" stroke-miterlimit="10" stroke-width="2" stroke-dasharray=""/><path fill="rgb(255,187,120)" stroke="rgb(0,0,0)" paint-order="fill" d="M 524.5986328125 139.81471252441406 A 5 5 0 1 1 524.5986303125002 139.8097125252474" fill-opacity="1" clip-path="url(#QmPowIRGHamx)" stroke-opacity="0.7019607843137254" stroke-linejoin="bevel" stroke-miterlimit="10" stroke-width="2" stroke-dasharray=""/><path fill="rgb(255,187,120)" stroke="rgb(0,0,0)" paint-order="fill" d="M 715.2967529296875 64.64035034179688 A 5 5 0 1 1 715.2967504296877 64.6353503426302" fill-opacity="1" clip-path="url(#QmPowIRGHamx)" stroke-opacity="0.7019607843137254" stroke-linejoin="bevel" stroke-miterlimit="10" stroke-width="2" stroke-dasharray=""/><path fill="rgb(255,187,120)" stroke="rgb(0,0,0)" paint-order="fill" d="M 152.53616333007812 169.22726440429688 A 5 5 0 1 1 152.53616083007833 169.2222644051302" fill-opacity="1" clip-path="url(#QmPowIRGHamx)" stroke-opacity="0.7019607843137254" stroke-linejoin="bevel" stroke-miterlimit="10" stroke-width="2" stroke-dasharray=""/><path fill="rgb(255,187,120)" stroke="rgb(0,0,0)" paint-order="fill" d="M 344.25762939453125 144.55148315429688 A 5 5 0 1 1 344.2576268945315 144.5464831551302" fill-opacity="1" clip-path="url(#QmPowIRGHamx)" stroke-opacity="0.7019607843137254" stroke-linejoin="bevel" stroke-miterlimit="10" stroke-width="2" stroke-dasharray=""/><path fill="rgb(255,187,120)" stroke="rgb(0,0,0)" paint-order="fill" d="M 527.5283203125 127.65492248535156 A 5 5 0 1 1 527.5283178125002 127.64992248618489" fill-opacity="1" clip-path="url(#QmPowIRGHamx)" stroke-opacity="0.7019607843137254" stroke-linejoin="bevel" stroke-miterlimit="10" stroke-width="2" stroke-dasharray=""/><path fill="rgb(255,187,120)" stroke="rgb(0,0,0)" paint-order="fill" d="M 709.1577758789062 62.76472854614258 A 5 5 0 1 1 709.1577733789064 62.75972854697591" fill-opacity="1" clip-path="url(#QmPowIRGHamx)" stroke-opacity="0.7019607843137254" stroke-linejoin="bevel" stroke-miterlimit="10" stroke-width="2" stroke-dasharray=""/><path fill="rgb(44,160,44)" stroke="rgb(0,0,0)" paint-order="fill" d="M 183.2997589111328 141.14830017089844 A 5 5 0 1 1 183.29975641113302 141.14330017173177" fill-opacity="1" clip-path="url(#QmPowIRGHamx)" stroke-opacity="0.7019607843137254" stroke-linejoin="bevel" stroke-miterlimit="10" stroke-width="2" stroke-dasharray=""/><path fill="rgb(44,160,44)" stroke="rgb(0,0,0)" paint-order="fill" d="M 363.6583557128906 160.8213653564453 A 5 5 0 1 1 363.65835321289086 160.81636535727864" fill-opacity="1" clip-path="url(#QmPowIRGHamx)" stroke-opacity="0.7019607843137254" stroke-linejoin="bevel" stroke-miterlimit="10" stroke-width="2" stroke-dasharray=""/><path fill="rgb(44,160,44)" stroke="rgb(0,0,0)" paint-order="fill" d="M 553.8865966796875 109.18826293945312 A 5 5 0 1 1 553.8865941796877 109.18326294028645" fill-opacity="1" clip-path="url(#QmPowIRGHamx)" stroke-opacity="0.7019607843137254" stroke-linejoin="bevel" stroke-miterlimit="10" stroke-width="2" stroke-dasharray=""/><path fill="rgb(44,160,44)" stroke="rgb(0,0,0)" paint-order="fill" d="M 738.9999389648438 156.92684936523438 A 5 5 0 1 1 738.9999364648439 156.9218493660677" fill-opacity="1" clip-path="url(#QmPowIRGHamx)" stroke-opacity="0.7019607843137254" stroke-linejoin="bevel" stroke-miterlimit="10" stroke-width="2" stroke-dasharray=""/><path fill="rgb(44,160,44)" stroke="rgb(0,0,0)" paint-order="fill" d="M 182.1445770263672 170.6317596435547 A 5 5 0 1 1 182.1445745263674 170.62675964438802" fill-opacity="1" clip-path="url(#QmPowIRGHamx)" stroke-opacity="0.7019607843137254" stroke-linejoin="bevel" stroke-miterlimit="10" stroke-width="2" stroke-dasharray=""/><path fill="rgb(44,160,44)" stroke="rgb(0,0,0)" paint-order="fill" d="M 368.8075866699219 164.547119140625 A 5 5 0 1 1 368.8075841699221 164.54211914145833" fill-opacity="1" clip-path="url(#QmPowIRGHamx)" stroke-opacity="0.7019607843137254" stroke-linejoin="bevel" stroke-miterlimit="10" stroke-width="2" stroke-dasharray=""/><path fill="rgb(44,160,44)" stroke="rgb(0,0,0)" paint-order="fill" d="M 548.4149169921875 117.6998291015625 A 5 5 0 1 1 548.4149144921877 117.69482910239583" fill-opacity="1" clip-path="url(#QmPowIRGHamx)" stroke-opacity="0.7019607843137254" stroke-linejoin="bevel" stroke-miterlimit="10" stroke-width="2" stroke-dasharray=""/><path fill="rgb(44,160,44)" stroke="rgb(0,0,0)" paint-order="fill" d="M 739.5847778320312 163.3863983154297 A 5 5 0 1 1 739.5847753320314 163.38139831626302" fill-opacity="1" clip-path="url(#QmPowIRGHamx)" stroke-opacity="0.7019607843137254" stroke-linejoin="bevel" stroke-miterlimit="10" stroke-width="2" stroke-dasharray=""/><path fill="rgb(44,160,44)" stroke="rgb(0,0,0)" paint-order="fill" d="M 179.3398895263672 176.52423095703125 A 5 5 0 1 1 179.3398870263674 176.51923095786458" fill-opacity="1" clip-path="url(#QmPowIRGHamx)" stroke-opacity="0.7019607843137254" stroke-linejoin="bevel" stroke-miterlimit="10" stroke-width="2" stroke-dasharray=""/><path fill="rgb(44,160,44)" stroke="rgb(0,0,0)" paint-order="fill" d="M 368.4324951171875 161.90187072753906 A 5 5 0 1 1 368.43249261718773 161.8968707283724" fill-opacity="1" clip-path="url(#QmPowIRGHamx)" stroke-opacity="0.7019607843137254" stroke-linejoin="bevel" stroke-miterlimit="10" stroke-width="2" stroke-dasharray=""/><path fill="rgb(44,160,44)" stroke="rgb(0,0,0)" paint-order="fill" d="M 554.5489501953125 115.24722290039062 A 5 5 0 1 1 554.5489476953127 115.24222290122395" fill-opacity="1" clip-path="url(#QmPowIRGHamx)" stroke-opacity="0.7019607843137254" stroke-linejoin="bevel" stroke-miterlimit="10" stroke-width="2" stroke-dasharray=""/><path fill="rgb(44,160,44)" stroke="rgb(0,0,0)" paint-order="fill" d="M 737.9368896484375 168.7249755859375 A 5 5 0 1 1 737.9368871484377 168.71997558677083" fill-opacity="1" clip-path="url(#QmPowIRGHamx)" stroke-opacity="0.7019607843137254" stroke-linejoin="bevel" stroke-miterlimit="10" stroke-width="2" stroke-dasharray=""/><path fill="rgb(152,223,138)" stroke="rgb(0,0,0)" paint-order="fill" d="M 206.09066772460938 146.5756378173828 A 5 5 0 1 1 206.09066522460958 146.57063781821614" fill-opacity="1" clip-path="url(#QmPowIRGHamx)" stroke-opacity="0.7019607843137254" stroke-linejoin="bevel" stroke-miterlimit="10" stroke-width="2" stroke-dasharray=""/><path fill="rgb(152,223,138)" stroke="rgb(0,0,0)" paint-order="fill" d="M 388.8954162597656 173.65269470214844 A 5 5 0 1 1 388.89541375976586 173.64769470298177" fill-opacity="1" clip-path="url(#QmPowIRGHamx)" stroke-opacity="0.7019607843137254" stroke-linejoin="bevel" stroke-miterlimit="10" stroke-width="2" stroke-dasharray=""/><path fill="rgb(152,223,138)" stroke="rgb(0,0,0)" paint-order="fill" d="M 579.3840942382812 104.2701187133789 A 5 5 0 1 1 579.3840917382814 104.26511871421224" fill-opacity="1" clip-path="url(#QmPowIRGHamx)" stroke-opacity="0.7019607843137254" stroke-linejoin="bevel" stroke-miterlimit="10" stroke-width="2" stroke-dasharray=""/><path fill="rgb(152,223,138)" stroke="rgb(0,0,0)" paint-order="fill" d="M 765.9738159179688 149.75686645507812 A 5 5 0 1 1 765.9738134179689 149.75186645591145" fill-opacity="1" clip-path="url(#QmPowIRGHamx)" stroke-opacity="0.7019607843137254" stroke-linejoin="bevel" stroke-miterlimit="10" stroke-width="2" stroke-dasharray=""/><path fill="rgb(152,223,138)" stroke="rgb(0,0,0)" paint-order="fill" d="M 204.64942932128906 154.989013671875 A 5 5 0 1 1 204.64942682128927 154.98401367270833" fill-opacity="1" clip-path="url(#QmPowIRGHamx)" stroke-opacity="0.7019607843137254" stroke-linejoin="bevel" stroke-miterlimit="10" stroke-width="2" stroke-dasharray=""/><path fill="rgb(152,223,138)" stroke="rgb(0,0,0)" paint-order="fill" d="M 388.7740173339844 175.38719177246094 A 5 5 0 1 1 388.7740148339846 175.38219177329427" fill-opacity="1" clip-path="url(#QmPowIRGHamx)" stroke-opacity="0.7019607843137254" stroke-linejoin="bevel" stroke-miterlimit="10" stroke-width="2" stroke-dasharray=""/><path fill="rgb(152,223,138)" stroke="rgb(0,0,0)" paint-order="fill" d="M 576.3410034179688 114.08424377441406 A 5 5 0 1 1 576.3410009179689 114.07924377524739" fill-opacity="1" clip-path="url(#QmPowIRGHamx)" stroke-opacity="0.7019607843137254" stroke-linejoin="bevel" stroke-miterlimit="10" stroke-width="2" stroke-dasharray=""/><path fill="rgb(152,223,138)" stroke="rgb(0,0,0)" paint-order="fill" d="M 765.46533203125 151.44546508789062 A 5 5 0 1 1 765.4653295312502 151.44046508872395" fill-opacity="1" clip-path="url(#QmPowIRGHamx)" stroke-opacity="0.7019607843137254" stroke-linejoin="bevel" stroke-miterlimit="10" stroke-width="2" stroke-dasharray=""/><path fill="rgb(152,223,138)" stroke="rgb(0,0,0)" paint-order="fill" d="M 204.46690368652344 152.10401916503906 A 5 5 0 1 1 204.46690118652364 152.0990191658724" fill-opacity="1" clip-path="url(#QmPowIRGHamx)" stroke-opacity="0.7019607843137254" stroke-linejoin="bevel" stroke-miterlimit="10" stroke-width="2" stroke-dasharray=""/><path fill="rgb(152,223,138)" stroke="rgb(0,0,0)" paint-order="fill" d="M 392.17919921875 183.77322387695312 A 5 5 0 1 1 392.17919671875023 183.76822387778645" fill-opacity="1" clip-path="url(#QmPowIRGHamx)" stroke-opacity="0.7019607843137254" stroke-linejoin="bevel" stroke-miterlimit="10" stroke-width="2" stroke-dasharray=""/><path fill="rgb(152,223,138)" stroke="rgb(0,0,0)" paint-order="fill" d="M 578.9712524414062 113.4859848022461 A 5 5 0 1 1 578.9712499414064 113.48098480307942" fill-opacity="1" clip-path="url(#QmPowIRGHamx)" stroke-opacity="0.7019607843137254" stroke-linejoin="bevel" stroke-miterlimit="10" stroke-width="2" stroke-dasharray=""/><path fill="rgb(152,223,138)" stroke="rgb(0,0,0)" paint-order="fill" d="M 766.11962890625 154.275390625 A 5 5 0 1 1 766.1196264062502 154.27039062583333" fill-opacity="1" clip-path="url(#QmPowIRGHamx)" stroke-opacity="0.7019607843137254" stroke-linejoin="bevel" stroke-miterlimit="10" stroke-width="2" stroke-dasharray=""/><path fill="none" stroke="none"/><path fill="rgb(31,119,180)" stroke="rgb(0,0,0)" paint-order="fill" d="M 92.89705657958984 162.70530700683594 L 102.89705657958984 162.70530700683594 L 102.89705657958984 172.70530700683594 L 92.89705657958984 172.70530700683594 L 92.89705657958984 162.70530700683594" fill-opacity="1" clip-path="url(#MyhRovxWXQWR)" stroke-opacity="0.7019607843137254" stroke-linejoin="bevel" stroke-miterlimit="10" stroke-width="2" stroke-dasharray=""/><path fill="rgb(31,119,180)" stroke="rgb(0,0,0)" paint-order="fill" d="M 282.64630126953125 155.41209411621094 L 292.64630126953125 155.41209411621094 L 292.64630126953125 165.41209411621094 L 282.64630126953125 165.41209411621094 L 282.64630126953125 155.41209411621094" fill-opacity="1" clip-path="url(#MyhRovxWXQWR)" stroke-opacity="0.7019607843137254" stroke-linejoin="bevel" stroke-miterlimit="10" stroke-width="2" stroke-dasharray=""/><path fill="rgb(31,119,180)" stroke="rgb(0,0,0)" paint-order="fill" d="M 464.55035400390625 126.58610534667969 L 474.55035400390625 126.58610534667969 L 474.55035400390625 136.5861053466797 L 464.55035400390625 136.5861053466797 L 464.55035400390625 126.58610534667969" fill-opacity="1" clip-path="url(#MyhRovxWXQWR)" stroke-opacity="0.7019607843137254" stroke-linejoin="bevel" stroke-miterlimit="10" stroke-width="2" stroke-dasharray=""/><path fill="rgb(31,119,180)" stroke="rgb(0,0,0)" paint-order="fill" d="M 650.426513671875 149.9193878173828 L 660.426513671875 149.9193878173828 L 660.426513671875 159.9193878173828 L 650.426513671875 159.9193878173828 L 650.426513671875 149.9193878173828" fill-opacity="1" clip-path="url(#MyhRovxWXQWR)" stroke-opacity="0.7019607843137254" stroke-linejoin="bevel" stroke-miterlimit="10" stroke-width="2" stroke-dasharray=""/><path fill="none" stroke="rgb(0,0,0)" paint-order="fill" d="M 61.5 196.5 L 770.5 196.5" stroke-opacity="1" stroke-linejoin="bevel" stroke-miterlimit="10" stroke-dasharray=""/><path fill="none" stroke="rgb(0,0,0)" paint-order="fill" d="M 74.5 202.5 L 74.5 194.5 M 260.5 202.5 L 260.5 194.5 M 446.5 202.5 L 446.5 194.5 M 632.5 202.5 L 632.5 194.5 M 99.5 202.5 L 99.5 194.5 M 285.5 202.5 L 285.5 194.5 M 471.5 202.5 L 471.5 194.5 M 657.5 202.5 L 657.5 194.5 M 124.5 202.5 L 124.5 194.5 M 310.5 202.5 L 310.5 194.5 M 496.5 202.5 L 496.5 194.5 M 682.5 202.5 L 682.5 194.5 M 149.5 202.5 L 149.5 194.5 M 335.5 202.5 L 335.5 194.5 M 521.5 202.5 L 521.5 194.5 M 707.5 202.5 L 707.5 194.5 M 174.5 202.5 L 174.5 194.5 M 360.5 202.5 L 360.5 194.5 M 546.5 202.5 L 546.5 194.5 M 732.5 202.5 L 732.5 194.5 M 199.5 202.5 L 199.5 194.5 M 385.5 202.5 L 385.5 194.5 M 571.5 202.5 L 571.5 194.5 M 757.5 202.5 L 757.5 194.5" stroke-opacity="1" stroke-linejoin="bevel" stroke-miterlimit="10" stroke-dasharray=""/><path fill="none" stroke="rgb(0,0,0)" paint-order="fill" d="" stroke-opacity="1" stroke-linejoin="bevel" stroke-miterlimit="10" stroke-dasharray=""/><text fill="rgb(68,68,68)" stroke="none" font-family="helvetica" font-size="12pt" font-style="normal" font-weight="normal" text-decoration="normal" x="40.670921325683594" y="212.83203125" text-anchor="start" dominant-baseline="alphabetic" transform="matrix(0.7071067811865476, -0.7071067811865475, 0.7071067811865475, 0.7071067811865476, -124.32267930054502, 113.15139474087681)" fill-opacity="1">MBL</text><text fill="rgb(68,68,68)" stroke="none" font-family="helvetica" font-size="12pt" font-style="normal" font-weight="normal" text-decoration="normal" x="226.72057342529297" y="212.83203125" text-anchor="start" dominant-baseline="alphabetic" transform="matrix(0.7071067811865476, -0.7071067811865475, 0.7071067811865475, 0.7071067811865476, -69.82999783796743, 244.7083653779086)" fill-opacity="1">MBL</text><text fill="rgb(68,68,68)" stroke="none" font-family="helvetica" font-size="12pt" font-style="normal" font-weight="normal" text-decoration="normal" x="412.77022552490234" y="212.83203125" text-anchor="start" dominant-baseline="alphabetic" transform="matrix(0.7071067811865476, -0.7071067811865475, 0.7071067811865475, 0.7071067811865476, -15.337316375389833, 376.2653360149403)" fill-opacity="1">MBL</text><text fill="rgb(68,68,68)" stroke="none" font-family="helvetica" font-size="12pt" font-style="normal" font-weight="normal" text-decoration="normal" x="598.8198471069336" y="212.83203125" text-anchor="start" dominant-baseline="alphabetic" transform="matrix(0.7071067811865476, -0.7071067811865475, 0.7071067811865475, 0.7071067811865476, 39.155356148796045, 507.8222850727857)" fill-opacity="1">MBL</text><text fill="rgb(68,68,68)" stroke="none" font-family="helvetica" font-size="12pt" font-style="normal" font-weight="normal" text-decoration="normal" x="50.696102142333984" y="212.83203125" text-anchor="start" dominant-baseline="alphabetic" transform="matrix(0.7071067811865476, -0.7071067811865475, 0.7071067811865475, 0.7071067811865476, -116.95880318564554, 130.92936432910236)" fill-opacity="1">Abiotic</text><text fill="rgb(68,68,68)" stroke="none" font-family="helvetica" font-size="12pt" font-style="normal" font-weight="normal" text-decoration="normal" x="236.74572372436523" y="212.83203125" text-anchor="start" dominant-baseline="alphabetic" transform="matrix(0.7071067811865476, -0.7071067811865475, 0.7071067811865475, 0.7071067811865476, -62.46613066145966, 262.4863133869477)" fill-opacity="1">Abiotic</text><text fill="rgb(68,68,68)" stroke="none" font-family="helvetica" font-size="12pt" font-style="normal" font-weight="normal" text-decoration="normal" x="422.7953758239746" y="212.83203125" text-anchor="start" dominant-baseline="alphabetic" transform="matrix(0.7071067811865476, -0.7071067811865475, 0.7071067811865475, 0.7071067811865476, -7.973449198882065, 394.0432840239795)" fill-opacity="1">Abiotic</text><text fill="rgb(68,68,68)" stroke="none" font-family="helvetica" font-size="12pt" font-style="normal" font-weight="normal" text-decoration="normal" x="608.845027923584" y="212.83203125" text-anchor="start" dominant-baseline="alphabetic" transform="matrix(0.7071067811865476, -0.7071067811865475, 0.7071067811865475, 0.7071067811865476, 46.519232263695585, 525.6002546610113)" fill-opacity="1">Abiotic</text><text fill="rgb(68,68,68)" stroke="none" font-family="helvetica" font-size="12pt" font-style="normal" font-weight="normal" text-decoration="normal" x="80.2879409790039" y="212.83203125" text-anchor="start" dominant-baseline="alphabetic" transform="matrix(0.7071067811865476, -0.7071067811865475, 0.7071067811865475, 0.7071067811865476, -109.59492930534401, 148.7073285225313)" fill-opacity="1">E. coli</text><text fill="rgb(68,68,68)" stroke="none" font-family="helvetica" font-size="12pt" font-style="normal" font-weight="normal" text-decoration="normal" x="266.3375701904297" y="212.83203125" text-anchor="start" dominant-baseline="alphabetic" transform="matrix(0.7071067811865476, -0.7071067811865475, 0.7071067811865475, 0.7071067811865476, -55.102254546560175, 280.2642829751733)" fill-opacity="1">E. coli</text><text fill="rgb(68,68,68)" stroke="none" font-family="helvetica" font-size="12pt" font-style="normal" font-weight="normal" text-decoration="normal" x="452.38722229003906" y="212.83203125" text-anchor="start" dominant-baseline="alphabetic" transform="matrix(0.7071067811865476, -0.7071067811865475, 0.7071067811865475, 0.7071067811865476, -0.6095730839826388, 411.82125361220506)" fill-opacity="1">E. coli</text><text fill="rgb(68,68,68)" stroke="none" font-family="helvetica" font-size="12pt" font-style="normal" font-weight="normal" text-decoration="normal" x="638.4368743896484" y="212.83203125" text-anchor="start" dominant-baseline="alphabetic" transform="matrix(0.7071067811865476, -0.7071067811865475, 0.7071067811865475, 0.7071067811865476, 53.8831083785949, 543.3782242492367)" fill-opacity="1">E. coli</text><text fill="rgb(68,68,68)" stroke="none" font-family="helvetica" font-size="12pt" font-style="normal" font-weight="normal" text-decoration="normal" x="6.0464630126953125" y="212.83203125" text-anchor="start" dominant-baseline="alphabetic" transform="matrix(0.7071067811865476, -0.7071067811865475, 0.7071067811865475, 0.7071067811865476, -102.23105095584665, 166.48530350555347)" fill-opacity="1">P. aeruginosa ∆phz*</text><text fill="rgb(68,68,68)" stroke="none" font-family="helvetica" font-size="12pt" font-style="normal" font-weight="normal" text-decoration="normal" x="192.09608459472656" y="212.83203125" text-anchor="start" dominant-baseline="alphabetic" transform="matrix(0.7071067811865476, -0.7071067811865475, 0.7071067811865475, 0.7071067811865476, -47.73837843166075, 298.0422525633988)" fill-opacity="1">P. aeruginosa ∆phz*</text><text fill="rgb(68,68,68)" stroke="none" font-family="helvetica" font-size="12pt" font-style="normal" font-weight="normal" text-decoration="normal" x="378.1457061767578" y="212.83203125" text-anchor="start" dominant-baseline="alphabetic" transform="matrix(0.7071067811865476, -0.7071067811865475, 0.7071067811865475, 0.7071067811865476, 6.754294092525129, 429.5992016212441)" fill-opacity="1">P. aeruginosa ∆phz*</text><text fill="rgb(68,68,68)" stroke="none" font-family="helvetica" font-size="12pt" font-style="normal" font-weight="normal" text-decoration="normal" x="564.1953887939453" y="212.83203125" text-anchor="start" dominant-baseline="alphabetic" transform="matrix(0.7071067811865476, -0.7071067811865475, 0.7071067811865475, 0.7071067811865476, 61.24698449349444, 561.1561938374623)" fill-opacity="1">P. aeruginosa ∆phz*</text><text fill="rgb(68,68,68)" stroke="none" font-family="helvetica" font-size="12pt" font-style="normal" font-weight="normal" text-decoration="normal" x="-15.02838134765625" y="212.83203125" text-anchor="start" dominant-baseline="alphabetic" transform="matrix(0.7071067811865476, -0.7071067811865475, 0.7071067811865475, 0.7071067811865476, -94.86717931014306, 184.2632623041858)" fill-opacity="1">P. aureofaciens phzB::lacZ</text><text fill="rgb(68,68,68)" stroke="none" font-family="helvetica" font-size="12pt" font-style="normal" font-weight="normal" text-decoration="normal" x="171.02125549316406" y="212.83203125" text-anchor="start" dominant-baseline="alphabetic" transform="matrix(0.7071067811865476, -0.7071067811865475, 0.7071067811865475, 0.7071067811865476, -40.37450231676132, 315.8202221516243)" fill-opacity="1">P. aureofaciens phzB::lacZ</text><text fill="rgb(68,68,68)" stroke="none" font-family="helvetica" font-size="12pt" font-style="normal" font-weight="normal" text-decoration="normal" x="357.0708770751953" y="212.83203125" text-anchor="start" dominant-baseline="alphabetic" transform="matrix(0.7071067811865476, -0.7071067811865475, 0.7071067811865475, 0.7071067811865476, 14.118170207424555, 447.3771712094697)" fill-opacity="1">P. aureofaciens phzB::lacZ</text><text fill="rgb(68,68,68)" stroke="none" font-family="helvetica" font-size="12pt" font-style="normal" font-weight="normal" text-decoration="normal" x="543.1205596923828" y="212.83203125" text-anchor="start" dominant-baseline="alphabetic" transform="matrix(0.7071067811865476, -0.7071067811865475, 0.7071067811865475, 0.7071067811865476, 68.61086060839398, 578.9341634256879)" fill-opacity="1">P. aureofaciens phzB::lacZ</text><text fill="rgb(68,68,68)" stroke="none" font-family="helvetica" font-size="12pt" font-style="normal" font-weight="normal" text-decoration="normal" x="-21.003204345703125" y="212.83203125" text-anchor="start" dominant-baseline="alphabetic" transform="matrix(0.7071067811865476, -0.7071067811865475, 0.7071067811865475, 0.7071067811865476, -87.50330319524357, 202.04123189241133)" fill-opacity="1">P. chlororaphis phzB::TnLuxAB</text><text fill="rgb(68,68,68)" stroke="none" font-family="helvetica" font-size="12pt" font-style="normal" font-weight="normal" text-decoration="normal" x="165.0464324951172" y="212.83203125" text-anchor="start" dominant-baseline="alphabetic" transform="matrix(0.7071067811865476, -0.7071067811865475, 0.7071067811865475, 0.7071067811865476, -33.01062620186184, 333.5981917398499)" fill-opacity="1">P. chlororaphis phzB::TnLuxAB</text><text fill="rgb(68,68,68)" stroke="none" font-family="helvetica" font-size="12pt" font-style="normal" font-weight="normal" text-decoration="normal" x="351.09605407714844" y="212.83203125" text-anchor="start" dominant-baseline="alphabetic" transform="matrix(0.7071067811865476, -0.7071067811865475, 0.7071067811865475, 0.7071067811865476, 21.482046322324095, 465.15514079769525)" fill-opacity="1">P. chlororaphis phzB::TnLuxAB</text><text fill="rgb(68,68,68)" stroke="none" font-family="helvetica" font-size="12pt" font-style="normal" font-weight="normal" text-decoration="normal" x="537.1457366943359" y="212.83203125" text-anchor="start" dominant-baseline="alphabetic" transform="matrix(0.7071067811865476, -0.7071067811865475, 0.7071067811865475, 0.7071067811865476, 75.97473672329329, 596.7121330139134)" fill-opacity="1">P. chlororaphis phzB::TnLuxAB</text><text fill="rgb(128,128,128)" stroke="none" font-family="helvetica" font-size="11px" font-style="normal" font-weight="bold" text-decoration="normal" x="124.80887031555176" y="394.60299747428985" text-anchor="start" dominant-baseline="alphabetic" transform="matrix(1, 0, 0, 1, 0.5, 0.5)" fill-opacity="1">PCA</text><text fill="rgb(128,128,128)" stroke="none" font-family="helvetica" font-size="11px" font-style="normal" font-weight="bold" text-decoration="normal" x="296.200159072876" y="394.60299747428985" text-anchor="start" dominant-baseline="alphabetic" transform="matrix(1, 0, 0, 1, 0.5, 0.5)" fill-opacity="1">PCA, Fum</text><text fill="rgb(128,128,128)" stroke="none" font-family="helvetica" font-size="11px" font-style="normal" font-weight="bold" text-decoration="normal" x="482.5498104095459" y="394.60299747428985" text-anchor="start" dominant-baseline="alphabetic" transform="matrix(1, 0, 0, 1, 0.5, 0.5)" fill-opacity="1">PCA, NO2</text><text fill="rgb(128,128,128)" stroke="none" font-family="helvetica" font-size="11px" font-style="normal" font-weight="bold" text-decoration="normal" x="668.5994625091553" y="394.60299747428985" text-anchor="start" dominant-baseline="alphabetic" transform="matrix(1, 0, 0, 1, 0.5, 0.5)" fill-opacity="1">PCA, NO3</text><path fill="none" stroke="rgb(211,211,211)" paint-order="fill" d="M 167.5 388.5 L 167.5 199.5 M 353.5 388.5 L 353.5 199.5 M 539.5 388.5 L 539.5 199.5" stroke-opacity="1" stroke-linejoin="bevel" stroke-miterlimit="10" stroke-width="2" stroke-dasharray=""/><path fill="none" stroke="rgb(0,0,0)" paint-order="fill" d="M 61.5 196.5 L 61.5 5.5" stroke-opacity="1" stroke-linejoin="bevel" stroke-miterlimit="10" stroke-dasharray=""/><path fill="none" stroke="rgb(0,0,0)" paint-order="fill" d="M 55.5 173.5 L 63.5 173.5 M 55.5 86.5 L 63.5 86.5" stroke-opacity="1" stroke-linejoin="bevel" stroke-miterlimit="10" stroke-dasharray=""/><path fill="none" stroke="rgb(0,0,0)" paint-order="fill" d="M 57.5 192.5 L 61.5 192.5 M 57.5 186.5 L 61.5 186.5 M 57.5 181.5 L 61.5 181.5 M 57.5 177.5 L 61.5 177.5 M 57.5 173.5 L 61.5 173.5 M 57.5 173.5 L 61.5 173.5 M 57.5 147.5 L 61.5 147.5 M 57.5 131.5 L 61.5 131.5 M 57.5 120.5 L 61.5 120.5 M 57.5 112.5 L 61.5 112.5 M 57.5 105.5 L 61.5 105.5 M 57.5 99.5 L 61.5 99.5 M 57.5 94.5 L 61.5 94.5 M 57.5 90.5 L 61.5 90.5 M 57.5 86.5 L 61.5 86.5 M 57.5 86.5 L 61.5 86.5 M 57.5 60.5 L 61.5 60.5 M 57.5 44.5 L 61.5 44.5 M 57.5 34.5 L 61.5 34.5 M 57.5 25.5 L 61.5 25.5 M 57.5 18.5 L 61.5 18.5 M 57.5 13.5 L 61.5 13.5 M 57.5 7.5 L 61.5 7.5" stroke-opacity="1" stroke-linejoin="bevel" stroke-miterlimit="10" stroke-dasharray=""/><text fill="rgb(68,68,68)" stroke="none" font-family="helvetica" font-size="10pt" font-style="normal" font-weight="normal" text-decoration="normal" x="0" y="13.667318725585938" text-anchor="start" dominant-baseline="alphabetic" transform="matrix(1, 0, 0, 1, 30.483333587646484, 166.37158660888673)" fill-opacity="1">10</text><text fill="rgb(68,68,68)" stroke="none" font-family="helvetica" font-size="7pt" font-style="normal" font-weight="normal" text-decoration="normal" x="14.833333015441895" y="6.972656758626303" text-anchor="start" dominant-baseline="alphabetic" transform="matrix(1, 0, 0, 1, 30.483333587646484, 166.37158660888673)" fill-opacity="1">0</text><text fill="rgb(68,68,68)" stroke="none" font-family="helvetica" font-size="10pt" font-style="normal" font-weight="normal" text-decoration="normal" x="0" y="13.667318725585938" text-anchor="start" dominant-baseline="alphabetic" transform="matrix(1, 0, 0, 1, 30.483333587646484, 79.55340270996093)" fill-opacity="1">10</text><text fill="rgb(68,68,68)" stroke="none" font-family="helvetica" font-size="7pt" font-style="normal" font-weight="normal" text-decoration="normal" x="14.833333015441895" y="6.972656758626303" text-anchor="start" dominant-baseline="alphabetic" transform="matrix(1, 0, 0, 1, 30.483333587646484, 79.55340270996093)" fill-opacity="1">1</text><text fill="rgb(68,68,68)" stroke="none" font-family="helvetica" font-size="12pt" font-style="italic" font-weight="normal" text-decoration="normal" x="-90.24166488647461" y="96.9609375" text-anchor="start" dominant-baseline="alphabetic" transform="matrix(6.123233995736766e-17, -1, 1, 6.123233995736766e-17, -78.01666641235352, 122.98333358764648)" fill-opacity="1">max PCA oxidation rate (µM/hr)</text></svg>