<svg version="1.1" xmlns="http://www.w3.org/2000/svg" xmlns:xlink="http://www.w3.org/1999/xlink" width="600" height="400"><defs><clipPath id="OFDoLPtkamuF"><path fill="none" stroke="none" d="M 65.5 34.5 L 316.5 34.5 L 316.5 343.5 L 65.5 343.5 L 65.5 34.5"/></clipPath><clipPath id="nMaVanKwoJfJ"><path fill="none" stroke="none" d="M 65.5 34.5 L 316.5 34.5 L 316.5 343.5 L 65.5 343.5 L 65.5 34.5"/></clipPath><clipPath id="hBvOmzLFHrNE"><path fill="none" stroke="none" d="M 65.5 34.5 L 316.5 34.5 L 316.5 343.5 L 65.5 343.5 L 65.5 34.5"/></clipPath><clipPath id="TzLOvmxhyQpk"><path fill="none" stroke="none" d="M 65.5 34.5 L 316.5 34.5 L 316.5 343.5 L 65.5 343.5 L 65.5 34.5"/></clipPath><clipPath id="vywtbDPfVANb"><path fill="none" stroke="none" d="M 65.5 34.5 L 316.5 34.5 L 316.5 343.5 L 65.5 343.5 L 65.5 34.5"/></clipPath><clipPath id="hKgmqpaVEggl"><path fill="none" stroke="none" d="M 65.5 34.5 L 316.5 34.5 L 316.5 343.5 L 65.5 343.5 L 65.5 34.5"/></clipPath><clipPath id="AWQmrCWMLvdw"><path fill="none" stroke="none" d="M 65.5 34.5 L 316.5 34.5 L 316.5 343.5 L 65.5 343.5 L 65.5 34.5"/></clipPath><clipPath id="UVVTJmLAkxaZ"><path fill="none" stroke="none" d="M 65.5 34.5 L 316.5 34.5 L 316.5 343.5 L 65.5 343.5 L 65.5 34.5"/></clipPath><clipPath id="UTVmeFEGiNkr"><path fill="none" stroke="none" d="M 65.5 34.5 L 316.5 34.5 L 316.5 343.5 L 65.5 343.5 L 65.5 34.5"/></clipPath><clipPath id="KSXmIRPawzsx"><path fill="none" stroke="none" d="M 65.5 34.5 L 316.5 34.5 L 316.5 343.5 L 65.5 343.5 L 65.5 34.5"/></clipPath><clipPath id="zfAvWzshAFMk"><path fill="none" stroke="none" d="M 65.5 34.5 L 316.5 34.5 L 316.5 343.5 L 65.5 343.5 L 65.5 34.5"/></clipPath><clipPath id="GvdDGFZhKKxi"><path fill="none" stroke="none" d="M 65.5 34.5 L 316.5 34.5 L 316.5 343.5 L 65.5 343.5 L 65.5 34.5"/></clipPath><clipPath id="tWiTCFyfrgyC"><path fill="none" stroke="none" d="M 65.5 34.5 L 316.5 34.5 L 316.5 343.5 L 65.5 343.5 L 65.5 34.5"/></clipPath><clipPath id="DulMucOCuyUG"><path fill="none" stroke="none" d="M 65.5 34.5 L 316.5 34.5 L 316.5 343.5 L 65.5 343.5 L 65.5 34.5"/></clipPath><clipPath id="OVMQhNKxkHst"><path fill="none" stroke="none" d="M 65.5 34.5 L 316.5 34.5 L 316.5 343.5 L 65.5 343.5 L 65.5 34.5"/></clipPath><clipPath id="PWLkRZNZsmTQ"><path fill="none" stroke="none" d="M 65.5 34.5 L 316.5 34.5 L 316.5 343.5 L 65.5 343.5 L 65.5 34.5"/></clipPath><clipPath id="vDbIttmlyNVJ"><path fill="none" stroke="none" d="M 65.5 34.5 L 316.5 34.5 L 316.5 343.5 L 65.5 343.5 L 65.5 34.5"/></clipPath><clipPath id="rgXZVTZvdbeK"><path fill="none" stroke="none" d="M 65.5 34.5 L 316.5 34.5 L 316.5 343.5 L 65.5 343.5 L 65.5 34.5"/></clipPath><clipPath id="LVWtDwWtaucf"><path fill="none" stroke="none" d="M 65.5 34.5 L 316.5 34.5 L 316.5 343.5 L 65.5 343.5 L 65.5 34.5"/></clipPath><clipPath id="VaQTgGlEShcR"><path fill="none" stroke="none" d="M 65.5 34.5 L 316.5 34.5 L 316.5 343.5 L 65.5 343.5 L 65.5 34.5"/></clipPath><clipPath id="NGFcCMRCuMRX"><path fill="none" stroke="none" d="M 65.5 34.5 L 316.5 34.5 L 316.5 343.5 L 65.5 343.5 L 65.5 34.5"/></clipPath></defs><path fill="rgb(255,255,255)" stroke="none" paint-order="stroke" d="M 0.5 0.5 L 600.5 0.5 L 600.5 400.5 L 0.5 400.5 L 0.5 0.5" fill-opacity="1"/><rect fill="#FFFFFF" stroke="none" x="65" y="34" width="251" height="309" transform="matrix(1, 0, 0, 1, 0.5, 0.5)"/><path fill="rgb(255,255,255)" stroke="none" paint-order="stroke" d="M 65.5 34.5 L 316.5 34.5 L 316.5 343.5 L 65.5 343.5 L 65.5 34.5" fill-opacity="1"/><path fill="none" stroke="rgb(229,229,229)" paint-order="fill" d="M 65.5 34.5 L 316.5 34.5 L 316.5 343.5 L 65.5 343.5 L 65.5 34.5" stroke-opacity="1" stroke-linejoin="bevel" stroke-miterlimit="10" stroke-dasharray=""/><path fill="none" stroke="rgb(229,229,229)" paint-order="fill" d="M 76.5 343.5 L 76.5 34.5 M 119.5 343.5 L 119.5 34.5 M 163.5 343.5 L 163.5 34.5 M 206.5 343.5 L 206.5 34.5 M 249.5 343.5 L 249.5 34.5 M 292.5 343.5 L 292.5 34.5" stroke-opacity="1" stroke-linejoin="bevel" stroke-miterlimit="10" stroke-dasharray="" clip-path="url(#OFDoLPtkamuF)"/><path fill="none" stroke="rgb(229,229,229)" paint-order="fill" d="M 65.5 331.5 L 316.5 331.5 M 65.5 281.5 L 316.5 281.5 M 65.5 232.5 L 316.5 232.5 M 65.5 182.5 L 316.5 182.5 M 65.5 133.5 L 316.5 133.5 M 65.5 83.5 L 316.5 83.5" stroke-opacity="1" stroke-linejoin="bevel" stroke-miterlimit="10" stroke-dasharray="" clip-path="url(#nMaVanKwoJfJ)"/><path fill="none" stroke="none"/><path fill="rgb(0,114,178)" stroke="rgb(0,0,0)" paint-order="fill" d="M 80.40908813476562 72.64872741699219 A 3.5 3.5 0 1 1 80.40908638476577 72.64522741757551" fill-opacity="1" clip-path="url(#hBvOmzLFHrNE)" stroke-opacity="1" stroke-linejoin="bevel" stroke-miterlimit="10" stroke-dasharray=""/><path fill="rgb(0,114,178)" stroke="rgb(0,0,0)" paint-order="fill" d="M 114.85163116455078 131.2441864013672 A 3.5 3.5 0 1 1 114.85162941455093 131.2406864019505" fill-opacity="1" clip-path="url(#hBvOmzLFHrNE)" stroke-opacity="1" stroke-linejoin="bevel" stroke-miterlimit="10" stroke-dasharray=""/><path fill="rgb(0,114,178)" stroke="rgb(0,0,0)" paint-order="fill" d="M 220.3319091796875 234.35955810546875 A 3.5 3.5 0 1 1 220.33190742968765 234.35605810605207" fill-opacity="1" clip-path="url(#hBvOmzLFHrNE)" stroke-opacity="1" stroke-linejoin="bevel" stroke-miterlimit="10" stroke-dasharray=""/><path fill="rgb(0,114,178)" stroke="rgb(0,0,0)" paint-order="fill" d="M 308.5909118652344 300.65777587890625 A 3.5 3.5 0 1 1 308.5909101152345 300.6542758794896" fill-opacity="1" clip-path="url(#hBvOmzLFHrNE)" stroke-opacity="1" stroke-linejoin="bevel" stroke-miterlimit="10" stroke-dasharray=""/><path fill="none" stroke="none"/><path fill="none" stroke="rgb(0,114,178)" paint-order="fill" d="M 76.90908813476562 72.64872741699219 L 111.35163116455078 131.2441864013672 L 216.8319091796875 234.35955810546875 L 305.0909118652344 300.65777587890625" stroke-opacity="1" stroke-linejoin="bevel" stroke-miterlimit="10" stroke-width="2" stroke-dasharray="" clip-path="url(#TzLOvmxhyQpk)"/><path fill="none" stroke="none"/><path fill="rgb(0,114,178)" stroke="rgb(0,0,0)" paint-order="fill" d="M 73.40908813476562 323.46807861328125 L 80.40908813476562 323.46807861328125 L 80.40908813476562 330.46807861328125 L 73.40908813476562 330.46807861328125 L 73.40908813476562 323.46807861328125" fill-opacity="1" clip-path="url(#vywtbDPfVANb)" stroke-opacity="1" stroke-linejoin="bevel" stroke-miterlimit="10" stroke-dasharray=""/><path fill="rgb(0,114,178)" stroke="rgb(0,0,0)" paint-order="fill" d="M 107.85163116455078 259.5462951660156 L 114.85163116455078 259.5462951660156 L 114.85163116455078 266.5462951660156 L 107.85163116455078 266.5462951660156 L 107.85163116455078 259.5462951660156" fill-opacity="1" clip-path="url(#vywtbDPfVANb)" stroke-opacity="1" stroke-linejoin="bevel" stroke-miterlimit="10" stroke-dasharray=""/><path fill="rgb(0,114,178)" stroke="rgb(0,0,0)" paint-order="fill" d="M 213.3319091796875 147.4542694091797 L 220.3319091796875 147.4542694091797 L 220.3319091796875 154.4542694091797 L 213.3319091796875 154.4542694091797 L 213.3319091796875 147.4542694091797" fill-opacity="1" clip-path="url(#vywtbDPfVANb)" stroke-opacity="1" stroke-linejoin="bevel" stroke-miterlimit="10" stroke-dasharray=""/><path fill="rgb(0,114,178)" stroke="rgb(0,0,0)" paint-order="fill" d="M 301.5909118652344 80.72016143798828 L 308.5909118652344 80.72016143798828 L 308.5909118652344 87.72016143798828 L 301.5909118652344 87.72016143798828 L 301.5909118652344 80.72016143798828" fill-opacity="1" clip-path="url(#vywtbDPfVANb)" stroke-opacity="1" stroke-linejoin="bevel" stroke-miterlimit="10" stroke-dasharray=""/><path fill="none" stroke="none"/><path fill="none" stroke="rgb(0,114,178)" paint-order="fill" d="M 76.90908813476562 326.96807861328125 L 111.35163116455078 263.0462951660156 L 216.8319091796875 150.9542694091797 L 305.0909118652344 84.22016143798828" stroke-opacity="1" stroke-linejoin="bevel" stroke-miterlimit="10" stroke-width="2" stroke-dasharray="" clip-path="url(#hKgmqpaVEggl)"/><path fill="none" stroke="none"/><path fill="none" stroke="rgb(128,128,128)" paint-order="fill" d="M 76.90908813476562 75.76250457763672 L 76.90908813476562 69.53495025634766" stroke-opacity="1" stroke-linejoin="bevel" stroke-miterlimit="10" stroke-width="1.5" stroke-dasharray="" clip-path="url(#AWQmrCWMLvdw)"/><path fill="none" stroke="rgb(128,128,128)" paint-order="fill" d="M 111.35163116455078 134.93409729003906 L 111.35163116455078 127.55429077148438" stroke-opacity="1" stroke-linejoin="bevel" stroke-miterlimit="10" stroke-width="1.5" stroke-dasharray="" clip-path="url(#AWQmrCWMLvdw)"/><path fill="none" stroke="rgb(128,128,128)" paint-order="fill" d="M 216.8319091796875 240.57427978515625 L 216.8319091796875 228.1448211669922" stroke-opacity="1" stroke-linejoin="bevel" stroke-miterlimit="10" stroke-width="1.5" stroke-dasharray="" clip-path="url(#AWQmrCWMLvdw)"/><path fill="none" stroke="rgb(128,128,128)" paint-order="fill" d="M 305.0909118652344 308.4792785644531 L 305.0909118652344 292.83624267578125" stroke-opacity="1" stroke-linejoin="bevel" stroke-miterlimit="10" stroke-width="1.5" stroke-dasharray="" clip-path="url(#AWQmrCWMLvdw)"/><path fill="none" stroke="none"/><path fill="none" stroke="rgb(128,128,128)" paint-order="fill" d="M 76.90908813476562 327.1594543457031 L 76.90908813476562 326.7767028808594" stroke-opacity="1" stroke-linejoin="bevel" stroke-miterlimit="10" stroke-width="1.5" stroke-dasharray="" clip-path="url(#UVVTJmLAkxaZ)"/><path fill="none" stroke="rgb(128,128,128)" paint-order="fill" d="M 111.35163116455078 263.0726318359375 L 111.35163116455078 263.01995849609375" stroke-opacity="1" stroke-linejoin="bevel" stroke-miterlimit="10" stroke-width="1.5" stroke-dasharray="" clip-path="url(#UVVTJmLAkxaZ)"/><path fill="none" stroke="rgb(128,128,128)" paint-order="fill" d="M 216.8319091796875 155.3308868408203 L 216.8319091796875 146.57765197753906" stroke-opacity="1" stroke-linejoin="bevel" stroke-miterlimit="10" stroke-width="1.5" stroke-dasharray="" clip-path="url(#UVVTJmLAkxaZ)"/><path fill="none" stroke="rgb(128,128,128)" paint-order="fill" d="M 305.0909118652344 88.63397979736328 L 305.0909118652344 79.80634307861328" stroke-opacity="1" stroke-linejoin="bevel" stroke-miterlimit="10" stroke-width="1.5" stroke-dasharray="" clip-path="url(#UVVTJmLAkxaZ)"/><path fill="none" stroke="none"/><path fill="rgb(230,159,0)" stroke="rgb(0,0,0)" paint-order="fill" d="M 80.40908813476562 74.76311492919922 A 3.5 3.5 0 1 1 80.40908638476577 74.75961492978254" fill-opacity="1" clip-path="url(#UTVmeFEGiNkr)" stroke-opacity="1" stroke-linejoin="bevel" stroke-miterlimit="10" stroke-dasharray=""/><path fill="rgb(230,159,0)" stroke="rgb(0,0,0)" paint-order="fill" d="M 114.85163116455078 134.34490966796875 A 3.5 3.5 0 1 1 114.85162941455093 134.34140966855207" fill-opacity="1" clip-path="url(#UTVmeFEGiNkr)" stroke-opacity="1" stroke-linejoin="bevel" stroke-miterlimit="10" stroke-dasharray=""/><path fill="rgb(230,159,0)" stroke="rgb(0,0,0)" paint-order="fill" d="M 220.3319091796875 302.52166748046875 A 3.5 3.5 0 1 1 220.33190742968765 302.5181674810521" fill-opacity="1" clip-path="url(#UTVmeFEGiNkr)" stroke-opacity="1" stroke-linejoin="bevel" stroke-miterlimit="10" stroke-dasharray=""/><path fill="rgb(230,159,0)" stroke="rgb(0,0,0)" paint-order="fill" d="M 308.5909118652344 330.8433532714844 A 3.5 3.5 0 1 1 308.5909101152345 330.8398532720677" fill-opacity="1" clip-path="url(#UTVmeFEGiNkr)" stroke-opacity="1" stroke-linejoin="bevel" stroke-miterlimit="10" stroke-dasharray=""/><path fill="none" stroke="none"/><path fill="none" stroke="rgb(230,159,0)" paint-order="fill" d="M 76.90908813476562 74.76311492919922 L 111.35163116455078 134.34490966796875 L 216.8319091796875 302.52166748046875 L 305.0909118652344 330.8433532714844" stroke-opacity="1" stroke-linejoin="bevel" stroke-miterlimit="10" stroke-width="2" stroke-dasharray="" clip-path="url(#KSXmIRPawzsx)"/><path fill="none" stroke="none"/><path fill="rgb(230,159,0)" stroke="rgb(0,0,0)" paint-order="fill" d="M 73.40908813476562 323.5068054199219 L 80.40908813476562 323.5068054199219 L 80.40908813476562 330.5068054199219 L 73.40908813476562 330.5068054199219 L 73.40908813476562 323.5068054199219" fill-opacity="1" clip-path="url(#zfAvWzshAFMk)" stroke-opacity="1" stroke-linejoin="bevel" stroke-miterlimit="10" stroke-dasharray=""/><path fill="rgb(230,159,0)" stroke="rgb(0,0,0)" paint-order="fill" d="M 107.85163116455078 256.0599365234375 L 114.85163116455078 256.0599365234375 L 114.85163116455078 263.0599365234375 L 107.85163116455078 263.0599365234375 L 107.85163116455078 256.0599365234375" fill-opacity="1" clip-path="url(#zfAvWzshAFMk)" stroke-opacity="1" stroke-linejoin="bevel" stroke-miterlimit="10" stroke-dasharray=""/><path fill="rgb(230,159,0)" stroke="rgb(0,0,0)" paint-order="fill" d="M 213.3319091796875 72.8616714477539 L 220.3319091796875 72.8616714477539 L 220.3319091796875 79.8616714477539 L 213.3319091796875 79.8616714477539 L 213.3319091796875 72.8616714477539" fill-opacity="1" clip-path="url(#zfAvWzshAFMk)" stroke-opacity="1" stroke-linejoin="bevel" stroke-miterlimit="10" stroke-dasharray=""/><path fill="rgb(230,159,0)" stroke="rgb(0,0,0)" paint-order="fill" d="M 301.5909118652344 49.11975860595703 L 308.5909118652344 49.11975860595703 L 308.5909118652344 56.11975860595703 L 301.5909118652344 56.11975860595703 L 301.5909118652344 49.11975860595703" fill-opacity="1" clip-path="url(#zfAvWzshAFMk)" stroke-opacity="1" stroke-linejoin="bevel" stroke-miterlimit="10" stroke-dasharray=""/><path fill="none" stroke="none"/><path fill="none" stroke="rgb(230,159,0)" paint-order="fill" d="M 76.90908813476562 327.0068054199219 L 111.35163116455078 259.5599365234375 L 216.8319091796875 76.3616714477539 L 305.0909118652344 52.61975860595703" stroke-opacity="1" stroke-linejoin="bevel" stroke-miterlimit="10" stroke-width="2" stroke-dasharray="" clip-path="url(#GvdDGFZhKKxi)"/><path fill="none" stroke="none"/><path fill="none" stroke="rgb(128,128,128)" paint-order="fill" d="M 76.90908813476562 77.50114440917969 L 76.90908813476562 72.02508544921875" stroke-opacity="1" stroke-linejoin="bevel" stroke-miterlimit="10" stroke-width="1.5" stroke-dasharray="" clip-path="url(#tWiTCFyfrgyC)"/><path fill="none" stroke="rgb(128,128,128)" paint-order="fill" d="M 111.35163116455078 136.677978515625 L 111.35163116455078 132.01182556152344" stroke-opacity="1" stroke-linejoin="bevel" stroke-miterlimit="10" stroke-width="1.5" stroke-dasharray="" clip-path="url(#tWiTCFyfrgyC)"/><path fill="none" stroke="rgb(128,128,128)" paint-order="fill" d="M 216.8319091796875 312.6593933105469 L 216.8319091796875 292.3839111328125" stroke-opacity="1" stroke-linejoin="bevel" stroke-miterlimit="10" stroke-width="1.5" stroke-dasharray="" clip-path="url(#tWiTCFyfrgyC)"/><path fill="none" stroke="rgb(128,128,128)" paint-order="fill" d="M 305.0909118652344 330.92694091796875 L 305.0909118652344 330.7597961425781" stroke-opacity="1" stroke-linejoin="bevel" stroke-miterlimit="10" stroke-width="1.5" stroke-dasharray="" clip-path="url(#tWiTCFyfrgyC)"/><path fill="none" stroke="none"/><path fill="none" stroke="rgb(128,128,128)" paint-order="fill" d="M 76.90908813476562 327.21466064453125 L 76.90908813476562 326.7989807128906" stroke-opacity="1" stroke-linejoin="bevel" stroke-miterlimit="10" stroke-width="1.5" stroke-dasharray="" clip-path="url(#DulMucOCuyUG)"/><path fill="none" stroke="rgb(128,128,128)" paint-order="fill" d="M 111.35163116455078 261.29705810546875 L 111.35163116455078 257.82281494140625" stroke-opacity="1" stroke-linejoin="bevel" stroke-miterlimit="10" stroke-width="1.5" stroke-dasharray="" clip-path="url(#DulMucOCuyUG)"/><path fill="none" stroke="rgb(128,128,128)" paint-order="fill" d="M 216.8319091796875 87.8814468383789 L 216.8319091796875 64.8418960571289" stroke-opacity="1" stroke-linejoin="bevel" stroke-miterlimit="10" stroke-width="1.5" stroke-dasharray="" clip-path="url(#DulMucOCuyUG)"/><path fill="none" stroke="rgb(128,128,128)" paint-order="fill" d="M 305.0909118652344 55.91535568237305 L 305.0909118652344 49.32416534423828" stroke-opacity="1" stroke-linejoin="bevel" stroke-miterlimit="10" stroke-width="1.5" stroke-dasharray="" clip-path="url(#DulMucOCuyUG)"/><path fill="none" stroke="none"/><path fill="rgb(240,228,66)" stroke="rgb(0,0,0)" paint-order="fill" d="M 80.40908813476562 74.23822021484375 A 3.5 3.5 0 1 1 80.40908638476577 74.23472021542707" fill-opacity="1" clip-path="url(#OVMQhNKxkHst)" stroke-opacity="1" stroke-linejoin="bevel" stroke-miterlimit="10" stroke-dasharray=""/><path fill="rgb(240,228,66)" stroke="rgb(0,0,0)" paint-order="fill" d="M 114.85163116455078 141.25003051757812 A 3.5 3.5 0 1 1 114.85162941455093 141.24653051816145" fill-opacity="1" clip-path="url(#OVMQhNKxkHst)" stroke-opacity="1" stroke-linejoin="bevel" stroke-miterlimit="10" stroke-dasharray=""/><path fill="rgb(240,228,66)" stroke="rgb(0,0,0)" paint-order="fill" d="M 220.3319091796875 315.1824035644531 A 3.5 3.5 0 1 1 220.33190742968765 315.1789035650365" fill-opacity="1" clip-path="url(#OVMQhNKxkHst)" stroke-opacity="1" stroke-linejoin="bevel" stroke-miterlimit="10" stroke-dasharray=""/><path fill="rgb(240,228,66)" stroke="rgb(0,0,0)" paint-order="fill" d="M 308.5909118652344 330.8631286621094 A 3.5 3.5 0 1 1 308.5909101152345 330.8596286626927" fill-opacity="1" clip-path="url(#OVMQhNKxkHst)" stroke-opacity="1" stroke-linejoin="bevel" stroke-miterlimit="10" stroke-dasharray=""/><path fill="none" stroke="none"/><path fill="none" stroke="rgb(240,228,66)" paint-order="fill" d="M 76.90908813476562 74.23822021484375 L 111.35163116455078 141.25003051757812 L 216.8319091796875 315.1824035644531 L 305.0909118652344 330.8631286621094" stroke-opacity="1" stroke-linejoin="bevel" stroke-miterlimit="10" stroke-width="2" stroke-dasharray="" clip-path="url(#PWLkRZNZsmTQ)"/><path fill="none" stroke="none"/><path fill="rgb(240,228,66)" stroke="rgb(0,0,0)" paint-order="fill" d="M 73.40908813476562 323.52740478515625 L 80.40908813476562 323.52740478515625 L 80.40908813476562 330.52740478515625 L 73.40908813476562 330.52740478515625 L 73.40908813476562 323.52740478515625" fill-opacity="1" clip-path="url(#vDbIttmlyNVJ)" stroke-opacity="1" stroke-linejoin="bevel" stroke-miterlimit="10" stroke-dasharray=""/><path fill="rgb(240,228,66)" stroke="rgb(0,0,0)" paint-order="fill" d="M 107.85163116455078 248.5664825439453 L 114.85163116455078 248.5664825439453 L 114.85163116455078 255.5664825439453 L 107.85163116455078 255.5664825439453 L 107.85163116455078 248.5664825439453" fill-opacity="1" clip-path="url(#vDbIttmlyNVJ)" stroke-opacity="1" stroke-linejoin="bevel" stroke-miterlimit="10" stroke-dasharray=""/><path fill="rgb(240,228,66)" stroke="rgb(0,0,0)" paint-order="fill" d="M 213.3319091796875 59.945472717285156 L 220.3319091796875 59.945472717285156 L 220.3319091796875 66.94547271728516 L 213.3319091796875 66.94547271728516 L 213.3319091796875 59.945472717285156" fill-opacity="1" clip-path="url(#vDbIttmlyNVJ)" stroke-opacity="1" stroke-linejoin="bevel" stroke-miterlimit="10" stroke-dasharray=""/><path fill="rgb(240,228,66)" stroke="rgb(0,0,0)" paint-order="fill" d="M 301.5909118652344 47.36958312988281 L 308.5909118652344 47.36958312988281 L 308.5909118652344 54.36958312988281 L 301.5909118652344 54.36958312988281 L 301.5909118652344 47.36958312988281" fill-opacity="1" clip-path="url(#vDbIttmlyNVJ)" stroke-opacity="1" stroke-linejoin="bevel" stroke-miterlimit="10" stroke-dasharray=""/><path fill="none" stroke="none"/><path fill="none" stroke="rgb(240,228,66)" paint-order="fill" d="M 76.90908813476562 327.02740478515625 L 111.35163116455078 252.0664825439453 L 216.8319091796875 63.445472717285156 L 305.0909118652344 50.86958312988281" stroke-opacity="1" stroke-linejoin="bevel" stroke-miterlimit="10" stroke-width="2" stroke-dasharray="" clip-path="url(#rgXZVTZvdbeK)"/><path fill="none" stroke="none"/><path fill="none" stroke="rgb(128,128,128)" paint-order="fill" d="M 76.90908813476562 77.18903350830078 L 76.90908813476562 71.28741455078125" stroke-opacity="1" stroke-linejoin="bevel" stroke-miterlimit="10" stroke-width="1.5" stroke-dasharray="" clip-path="url(#LVWtDwWtaucf)"/><path fill="none" stroke="rgb(128,128,128)" paint-order="fill" d="M 111.35163116455078 146.55715942382812 L 111.35163116455078 135.94288635253906" stroke-opacity="1" stroke-linejoin="bevel" stroke-miterlimit="10" stroke-width="1.5" stroke-dasharray="" clip-path="url(#LVWtDwWtaucf)"/><path fill="none" stroke="rgb(128,128,128)" paint-order="fill" d="M 216.8319091796875 316.6930847167969 L 216.8319091796875 313.6717529296875" stroke-opacity="1" stroke-linejoin="bevel" stroke-miterlimit="10" stroke-width="1.5" stroke-dasharray="" clip-path="url(#LVWtDwWtaucf)"/><path fill="none" stroke="rgb(128,128,128)" paint-order="fill" d="M 305.0909118652344 330.9469909667969 L 305.0909118652344 330.7792663574219" stroke-opacity="1" stroke-linejoin="bevel" stroke-miterlimit="10" stroke-width="1.5" stroke-dasharray="" clip-path="url(#LVWtDwWtaucf)"/><path fill="none" stroke="none"/><path fill="none" stroke="rgb(128,128,128)" paint-order="fill" d="M 76.90908813476562 327.30487060546875 L 76.90908813476562 326.7499694824219" stroke-opacity="1" stroke-linejoin="bevel" stroke-miterlimit="10" stroke-width="1.5" stroke-dasharray="" clip-path="url(#VaQTgGlEShcR)"/><path fill="none" stroke="rgb(128,128,128)" paint-order="fill" d="M 111.35163116455078 258.60443115234375 L 111.35163116455078 245.52853393554688" stroke-opacity="1" stroke-linejoin="bevel" stroke-miterlimit="10" stroke-width="1.5" stroke-dasharray="" clip-path="url(#VaQTgGlEShcR)"/><path fill="none" stroke="rgb(128,128,128)" paint-order="fill" d="M 216.8319091796875 69.17462921142578 L 216.8319091796875 57.7163200378418" stroke-opacity="1" stroke-linejoin="bevel" stroke-miterlimit="10" stroke-width="1.5" stroke-dasharray="" clip-path="url(#VaQTgGlEShcR)"/><path fill="none" stroke="rgb(128,128,128)" paint-order="fill" d="M 305.0909118652344 53.995304107666016 L 305.0909118652344 47.74386215209961" stroke-opacity="1" stroke-linejoin="bevel" stroke-miterlimit="10" stroke-width="1.5" stroke-dasharray="" clip-path="url(#VaQTgGlEShcR)"/><path fill="none" stroke="rgb(0,0,0)" paint-order="fill" d="M 65.5 343.5 L 316.5 343.5" stroke-opacity="1" stroke-linejoin="bevel" stroke-miterlimit="10" stroke-dasharray=""/><path fill="none" stroke="rgb(0,0,0)" paint-order="fill" d="M 76.5 349.5 L 76.5 341.5 M 119.5 349.5 L 119.5 341.5 M 163.5 349.5 L 163.5 341.5 M 206.5 349.5 L 206.5 341.5 M 249.5 349.5 L 249.5 341.5 M 292.5 349.5 L 292.5 341.5" stroke-opacity="1" stroke-linejoin="bevel" stroke-miterlimit="10" stroke-dasharray=""/><path fill="none" stroke="rgb(0,0,0)" paint-order="fill" d="M 68.5 347.5 L 68.5 343.5 M 76.5 347.5 L 76.5 343.5 M 85.5 347.5 L 85.5 343.5 M 94.5 347.5 L 94.5 343.5 M 102.5 347.5 L 102.5 343.5 M 111.5 347.5 L 111.5 343.5 M 119.5 347.5 L 119.5 343.5 M 128.5 347.5 L 128.5 343.5 M 137.5 347.5 L 137.5 343.5 M 145.5 347.5 L 145.5 343.5 M 154.5 347.5 L 154.5 343.5 M 163.5 347.5 L 163.5 343.5 M 171.5 347.5 L 171.5 343.5 M 180.5 347.5 L 180.5 343.5 M 188.5 347.5 L 188.5 343.5 M 197.5 347.5 L 197.5 343.5 M 206.5 347.5 L 206.5 343.5 M 214.5 347.5 L 214.5 343.5 M 223.5 347.5 L 223.5 343.5 M 231.5 347.5 L 231.5 343.5 M 240.5 347.5 L 240.5 343.5 M 249.5 347.5 L 249.5 343.5 M 257.5 347.5 L 257.5 343.5 M 266.5 347.5 L 266.5 343.5 M 274.5 347.5 L 274.5 343.5 M 283.5 347.5 L 283.5 343.5 M 292.5 347.5 L 292.5 343.5 M 300.5 347.5 L 300.5 343.5 M 309.5 347.5 L 309.5 343.5" stroke-opacity="1" stroke-linejoin="bevel" stroke-miterlimit="10" stroke-dasharray=""/><text fill="rgb(68,68,68)" stroke="none" font-family="helvetica" font-size="14pt" font-style="normal" font-weight="normal" text-decoration="normal" x="71.21742153167725" y="367.3893239339193" text-anchor="start" dominant-baseline="alphabetic" transform="matrix(1, 0, 0, 1, 0.5, 0.5)" fill-opacity="1">0</text><text fill="rgb(68,68,68)" stroke="none" font-family="helvetica" font-size="14pt" font-style="normal" font-weight="normal" text-decoration="normal" x="109.07893180847168" y="367.3893239339193" text-anchor="start" dominant-baseline="alphabetic" transform="matrix(1, 0, 0, 1, 0.5, 0.5)" fill-opacity="1">10</text><text fill="rgb(68,68,68)" stroke="none" font-family="helvetica" font-size="14pt" font-style="normal" font-weight="normal" text-decoration="normal" x="152.1321086883545" y="367.3893239339193" text-anchor="start" dominant-baseline="alphabetic" transform="matrix(1, 0, 0, 1, 0.5, 0.5)" fill-opacity="1">20</text><text fill="rgb(68,68,68)" stroke="none" font-family="helvetica" font-size="14pt" font-style="normal" font-weight="normal" text-decoration="normal" x="195.18527030944824" y="367.3893239339193" text-anchor="start" dominant-baseline="alphabetic" transform="matrix(1, 0, 0, 1, 0.5, 0.5)" fill-opacity="1">30</text><text fill="rgb(68,68,68)" stroke="none" font-family="helvetica" font-size="14pt" font-style="normal" font-weight="normal" text-decoration="normal" x="238.23844718933105" y="367.3893239339193" text-anchor="start" dominant-baseline="alphabetic" transform="matrix(1, 0, 0, 1, 0.5, 0.5)" fill-opacity="1">40</text><text fill="rgb(68,68,68)" stroke="none" font-family="helvetica" font-size="14pt" font-style="normal" font-weight="normal" text-decoration="normal" x="281.29162406921387" y="367.3893239339193" text-anchor="start" dominant-baseline="alphabetic" transform="matrix(1, 0, 0, 1, 0.5, 0.5)" fill-opacity="1">50</text><text fill="rgb(68,68,68)" stroke="none" font-family="helvetica" font-size="14pt" font-style="italic" font-weight="normal" text-decoration="normal" x="148.32500076293945" y="393.2903676350912" text-anchor="start" dominant-baseline="alphabetic" transform="matrix(1, 0, 0, 1, 0.5, 0.5)" fill-opacity="1">Time (hrs)</text><path fill="none" stroke="rgb(0,0,0)" paint-order="fill" d="M 65.5 343.5 L 65.5 34.5" stroke-opacity="1" stroke-linejoin="bevel" stroke-miterlimit="10" stroke-dasharray=""/><path fill="none" stroke="rgb(0,0,0)" paint-order="fill" d="M 59.5 331.5 L 67.5 331.5 M 59.5 281.5 L 67.5 281.5 M 59.5 232.5 L 67.5 232.5 M 59.5 182.5 L 67.5 182.5 M 59.5 133.5 L 67.5 133.5 M 59.5 83.5 L 67.5 83.5 M 59.5 34.5 L 67.5 34.5" stroke-opacity="1" stroke-linejoin="bevel" stroke-miterlimit="10" stroke-dasharray=""/><path fill="none" stroke="rgb(0,0,0)" paint-order="fill" d="M 61.5 341.5 L 65.5 341.5 M 61.5 331.5 L 65.5 331.5 M 61.5 321.5 L 65.5 321.5 M 61.5 311.5 L 65.5 311.5 M 61.5 301.5 L 65.5 301.5 M 61.5 291.5 L 65.5 291.5 M 61.5 281.5 L 65.5 281.5 M 61.5 271.5 L 65.5 271.5 M 61.5 261.5 L 65.5 261.5 M 61.5 252.5 L 65.5 252.5 M 61.5 242.5 L 65.5 242.5 M 61.5 232.5 L 65.5 232.5 M 61.5 222.5 L 65.5 222.5 M 61.5 212.5 L 65.5 212.5 M 61.5 202.5 L 65.5 202.5 M 61.5 192.5 L 65.5 192.5 M 61.5 182.5 L 65.5 182.5 M 61.5 172.5 L 65.5 172.5 M 61.5 163.5 L 65.5 163.5 M 61.5 153.5 L 65.5 153.5 M 61.5 143.5 L 65.5 143.5 M 61.5 133.5 L 65.5 133.5 M 61.5 123.5 L 65.5 123.5 M 61.5 113.5 L 65.5 113.5 M 61.5 103.5 L 65.5 103.5 M 61.5 93.5 L 65.5 93.5 M 61.5 83.5 L 65.5 83.5 M 61.5 74.5 L 65.5 74.5 M 61.5 64.5 L 65.5 64.5 M 61.5 54.5 L 65.5 54.5 M 61.5 44.5 L 65.5 44.5 M 61.5 34.5 L 65.5 34.5" stroke-opacity="1" stroke-linejoin="bevel" stroke-miterlimit="10" stroke-dasharray=""/><text fill="rgb(68,68,68)" stroke="none" font-family="helvetica" font-size="14pt" font-style="normal" font-weight="normal" text-decoration="normal" x="43.61666679382324" y="337.33467661539714" text-anchor="start" dominant-baseline="alphabetic" transform="matrix(1, 0, 0, 1, 0.5, 0.5)" fill-opacity="1">0</text><text fill="rgb(68,68,68)" stroke="none" font-family="helvetica" font-size="14pt" font-style="normal" font-weight="normal" text-decoration="normal" x="43.61666679382324" y="287.8946741739909" text-anchor="start" dominant-baseline="alphabetic" transform="matrix(1, 0, 0, 1, 0.5, 0.5)" fill-opacity="1">2</text><text fill="rgb(68,68,68)" stroke="none" font-family="helvetica" font-size="14pt" font-style="normal" font-weight="normal" text-decoration="normal" x="43.61666679382324" y="238.45465647379555" text-anchor="start" dominant-baseline="alphabetic" transform="matrix(1, 0, 0, 1, 0.5, 0.5)" fill-opacity="1">4</text><text fill="rgb(68,68,68)" stroke="none" font-family="helvetica" font-size="14pt" font-style="normal" font-weight="normal" text-decoration="normal" x="43.61666679382324" y="189.01466929117836" text-anchor="start" dominant-baseline="alphabetic" transform="matrix(1, 0, 0, 1, 0.5, 0.5)" fill-opacity="1">6</text><text fill="rgb(68,68,68)" stroke="none" font-family="helvetica" font-size="14pt" font-style="normal" font-weight="normal" text-decoration="normal" x="43.61666679382324" y="139.57466684977214" text-anchor="start" dominant-baseline="alphabetic" transform="matrix(1, 0, 0, 1, 0.5, 0.5)" fill-opacity="1">8</text><text fill="rgb(68,68,68)" stroke="none" font-family="helvetica" font-size="14pt" font-style="normal" font-weight="normal" text-decoration="normal" x="33.233333587646484" y="90.1346644083659" text-anchor="start" dominant-baseline="alphabetic" transform="matrix(1, 0, 0, 1, 0.5, 0.5)" fill-opacity="1">10</text><text fill="rgb(68,68,68)" stroke="none" font-family="helvetica" font-size="14pt" font-style="normal" font-weight="normal" text-decoration="normal" x="33.233333587646484" y="40.694661966959636" text-anchor="start" dominant-baseline="alphabetic" transform="matrix(1, 0, 0, 1, 0.5, 0.5)" fill-opacity="1">12</text><text fill="rgb(68,68,68)" stroke="none" font-family="helvetica" font-size="14pt" font-style="italic" font-weight="normal" text-decoration="normal" x="-64.47500228881836" y="184.37109375" text-anchor="start" dominant-baseline="alphabetic" transform="matrix(6.123233995736766e-17, -1, 1, 6.123233995736766e-17, -162.76666641235352, 214.23333358764648)" fill-opacity="1">Nitrate or Nitrite (mM)</text><path fill="rgb(255,255,255)" stroke="rgb(229,229,229)" paint-order="fill" d="M 326.31666564941406 44.5 L 560.5 44.5 L 560.5 210.69532470703126 L 326.31666564941406 210.69532470703126 L 326.31666564941406 44.5" fill-opacity="0.9490196078431372" stroke-opacity="0.5019607843137255" stroke-linejoin="bevel" stroke-miterlimit="10" stroke-dasharray=""/><text fill="rgb(68,68,68)" stroke="none" font-family="helvetica" font-size="14pt" font-style="normal" font-weight="normal" text-decoration="normal" x="360.81666564941406" y="64.93294372558594" text-anchor="start" dominant-baseline="central" transform="matrix(1, 0, 0, 1, 0.5, 0.5)" fill-opacity="1">0 µM PCA (NO3)</text><path fill="none" stroke="rgb(0,114,178)" paint-order="fill" d="M 336.31666564941406 64.5 L 356.31666564941406 64.5" stroke-opacity="1" stroke-linejoin="bevel" stroke-miterlimit="10" stroke-width="2" stroke-dasharray=""/><path fill="rgb(0,114,178)" stroke="rgb(0,0,0)" paint-order="fill" d="M 350.31666564941406 64.5 A 4 4 0 1 1 350.31666364941424 64.49600000066667" fill-opacity="1" stroke-opacity="1" stroke-linejoin="bevel" stroke-miterlimit="10" stroke-dasharray=""/><text fill="rgb(68,68,68)" stroke="none" font-family="helvetica" font-size="14pt" font-style="normal" font-weight="normal" text-decoration="normal" x="360.81666564941406" y="89.79883117675782" text-anchor="start" dominant-baseline="central" transform="matrix(1, 0, 0, 1, 0.5, 0.5)" fill-opacity="1">0 µM PCA (NO2)</text><path fill="none" stroke="rgb(0,114,178)" paint-order="fill" d="M 336.31666564941406 89.36588745117187 L 356.31666564941406 89.36588745117187" stroke-opacity="1" stroke-linejoin="bevel" stroke-miterlimit="10" stroke-width="2" stroke-dasharray=""/><path fill="rgb(0,114,178)" stroke="rgb(0,0,0)" paint-order="fill" d="M 342.31666564941406 85.36588745117187 L 350.31666564941406 85.36588745117187 L 350.31666564941406 93.36588745117187 L 342.31666564941406 93.36588745117187 L 342.31666564941406 85.36588745117187" fill-opacity="1" stroke-opacity="1" stroke-linejoin="bevel" stroke-miterlimit="10" stroke-dasharray=""/><text fill="rgb(68,68,68)" stroke="none" font-family="helvetica" font-size="14pt" font-style="normal" font-weight="normal" text-decoration="normal" x="360.81666564941406" y="114.66471862792969" text-anchor="start" dominant-baseline="central" transform="matrix(1, 0, 0, 1, 0.5, 0.5)" fill-opacity="1">200 µM PCAox (NO3)</text><path fill="none" stroke="rgb(230,159,0)" paint-order="fill" d="M 336.31666564941406 114.23177490234374 L 356.31666564941406 114.23177490234374" stroke-opacity="1" stroke-linejoin="bevel" stroke-miterlimit="10" stroke-width="2" stroke-dasharray=""/><path fill="rgb(230,159,0)" stroke="rgb(0,0,0)" paint-order="fill" d="M 350.31666564941406 114.23177490234374 A 4 4 0 1 1 350.31666364941424 114.22777490301041" fill-opacity="1" stroke-opacity="1" stroke-linejoin="bevel" stroke-miterlimit="10" stroke-dasharray=""/><text fill="rgb(68,68,68)" stroke="none" font-family="helvetica" font-size="14pt" font-style="normal" font-weight="normal" text-decoration="normal" x="360.81666564941406" y="139.53060607910155" text-anchor="start" dominant-baseline="central" transform="matrix(1, 0, 0, 1, 0.5, 0.5)" fill-opacity="1">200 µM PCAox (NO2)</text><path fill="none" stroke="rgb(230,159,0)" paint-order="fill" d="M 336.31666564941406 139.0976623535156 L 356.31666564941406 139.0976623535156" stroke-opacity="1" stroke-linejoin="bevel" stroke-miterlimit="10" stroke-width="2" stroke-dasharray=""/><path fill="rgb(230,159,0)" stroke="rgb(0,0,0)" paint-order="fill" d="M 342.31666564941406 135.0976623535156 L 350.31666564941406 135.0976623535156 L 350.31666564941406 143.0976623535156 L 342.31666564941406 143.0976623535156 L 342.31666564941406 135.0976623535156" fill-opacity="1" stroke-opacity="1" stroke-linejoin="bevel" stroke-miterlimit="10" stroke-dasharray=""/><text fill="rgb(68,68,68)" stroke="none" font-family="helvetica" font-size="14pt" font-style="normal" font-weight="normal" text-decoration="normal" x="360.81666564941406" y="164.39649353027343" text-anchor="start" dominant-baseline="central" transform="matrix(1, 0, 0, 1, 0.5, 0.5)" fill-opacity="1">200 µM PCAred (NO3)</text><path fill="none" stroke="rgb(240,228,66)" paint-order="fill" d="M 336.31666564941406 163.9635498046875 L 356.31666564941406 163.9635498046875" stroke-opacity="1" stroke-linejoin="bevel" stroke-miterlimit="10" stroke-width="2" stroke-dasharray=""/><path fill="rgb(240,228,66)" stroke="rgb(0,0,0)" paint-order="fill" d="M 350.31666564941406 163.9635498046875 A 4 4 0 1 1 350.31666364941424 163.95954980535416" fill-opacity="1" stroke-opacity="1" stroke-linejoin="bevel" stroke-miterlimit="10" stroke-dasharray=""/><text fill="rgb(68,68,68)" stroke="none" font-family="helvetica" font-size="14pt" font-style="normal" font-weight="normal" text-decoration="normal" x="360.81666564941406" y="189.26238098144532" text-anchor="start" dominant-baseline="central" transform="matrix(1, 0, 0, 1, 0.5, 0.5)" fill-opacity="1">200 µM PCAred (NO2)</text><path fill="none" stroke="rgb(240,228,66)" paint-order="fill" d="M 336.31666564941406 188.82943725585938 L 356.31666564941406 188.82943725585938" stroke-opacity="1" stroke-linejoin="bevel" stroke-miterlimit="10" stroke-width="2" stroke-dasharray=""/><path fill="rgb(240,228,66)" stroke="rgb(0,0,0)" paint-order="fill" d="M 342.31666564941406 184.82943725585938 L 350.31666564941406 184.82943725585938 L 350.31666564941406 192.82943725585938 L 342.31666564941406 192.82943725585938 L 342.31666564941406 184.82943725585938" fill-opacity="1" stroke-opacity="1" stroke-linejoin="bevel" stroke-miterlimit="10" stroke-dasharray=""/><path fill="none" stroke="none"/><text fill="rgb(68,68,68)" stroke="none" font-family="helvetica" font-size="14pt" font-style="normal" font-weight="bold" text-decoration="normal" x="0" y="0" text-anchor="start" dominant-baseline="text-after-edge" transform="matrix(1, 0, 0, 1, 65.5, 29.5)" fill-opacity="1">50 mM acetate</text></svg>