<svg version="1.1" xmlns="http://www.w3.org/2000/svg" xmlns:xlink="http://www.w3.org/1999/xlink" width="250" height="300"><defs><clipPath id="ixkIOVoFQIXc"><path fill="none" stroke="none" d="M 59.5 31.5 L 220.5 31.5 L 220.5 205.5 L 59.5 205.5 L 59.5 31.5"/></clipPath><clipPath id="AtAbTkhUVeRq"><path fill="none" stroke="none" d="M 59.5 31.5 L 220.5 31.5 L 220.5 205.5 L 59.5 205.5 L 59.5 31.5"/></clipPath><clipPath id="sLLPKsDuERAB"><path fill="none" stroke="none" d="M 59.5 31.5 L 220.5 31.5 L 220.5 205.5 L 59.5 205.5 L 59.5 31.5"/></clipPath><clipPath id="mQmOBbNqPdrp"><path fill="none" stroke="none" d="M 59.5 31.5 L 220.5 31.5 L 220.5 205.5 L 59.5 205.5 L 59.5 31.5"/></clipPath><clipPath id="AHgrzSSEZUVv"><path fill="none" stroke="none" d="M 59.5 31.5 L 220.5 31.5 L 220.5 205.5 L 59.5 205.5 L 59.5 31.5"/></clipPath></defs><path fill="rgb(255,255,255)" stroke="none" paint-order="stroke" d="M 0.5 0.5 L 250.5 0.5 L 250.5 300.5 L 0.5 300.5 L 0.5 0.5" fill-opacity="1"/><rect fill="#FFFFFF" stroke="none" x="59" y="31" width="161" height="174" transform="matrix(1, 0, 0, 1, 0.5, 0.5)"/><path fill="rgb(255,255,255)" stroke="none" paint-order="stroke" d="M 59.5 31.5 L 220.5 31.5 L 220.5 205.5 L 59.5 205.5 L 59.5 31.5" fill-opacity="1"/><path fill="none" stroke="rgb(229,229,229)" paint-order="fill" d="M 59.5 31.5 L 220.5 31.5 L 220.5 205.5 L 59.5 205.5 L 59.5 31.5" stroke-opacity="1" stroke-linejoin="bevel" stroke-miterlimit="10" stroke-dasharray=""/><path fill="none" stroke="rgb(229,229,229)" paint-order="fill" d="M 59.5 190.5 L 220.5 190.5 M 59.5 141.5 L 220.5 141.5 M 59.5 91.5 L 220.5 91.5 M 59.5 42.5 L 220.5 42.5" stroke-opacity="1" stroke-linejoin="bevel" stroke-miterlimit="10" stroke-dasharray="" clip-path="url(#AtAbTkhUVeRq)"/><path fill="none" stroke="none"/><path fill="rgb(174,199,232)" stroke="rgb(0,0,0)" paint-order="fill" d="M 88.13434600830078 88.23434448242188 A 5 5 0 1 1 88.13434350830099 88.2293444832552" fill-opacity="1" clip-path="url(#sLLPKsDuERAB)" stroke-opacity="0.7019607843137254" stroke-linejoin="bevel" stroke-miterlimit="10" stroke-width="2" stroke-dasharray=""/><path fill="rgb(174,199,232)" stroke="rgb(0,0,0)" paint-order="fill" d="M 95.93594360351562 95.51506805419922 A 5 5 0 1 1 95.93594110351583 95.51006805503255" fill-opacity="1" clip-path="url(#sLLPKsDuERAB)" stroke-opacity="0.7019607843137254" stroke-linejoin="bevel" stroke-miterlimit="10" stroke-width="2" stroke-dasharray=""/><path fill="rgb(174,199,232)" stroke="rgb(0,0,0)" paint-order="fill" d="M 87.94412994384766 83.98514556884766 A 5 5 0 1 1 87.94412744384786 83.98014556968099" fill-opacity="1" clip-path="url(#sLLPKsDuERAB)" stroke-opacity="0.7019607843137254" stroke-linejoin="bevel" stroke-miterlimit="10" stroke-width="2" stroke-dasharray=""/><path fill="rgb(174,199,232)" stroke="rgb(0,0,0)" paint-order="fill" d="M 84.14057159423828 65.14537048339844 A 5 5 0 1 1 84.14056909423849 65.14037048423177" fill-opacity="1" clip-path="url(#sLLPKsDuERAB)" stroke-opacity="0.7019607843137254" stroke-linejoin="bevel" stroke-miterlimit="10" stroke-width="2" stroke-dasharray=""/><path fill="rgb(174,199,232)" stroke="rgb(0,0,0)" paint-order="fill" d="M 92.6752700805664 39.78571319580078 A 5 5 0 1 1 92.67526758056661 39.78071319663411" fill-opacity="1" clip-path="url(#sLLPKsDuERAB)" stroke-opacity="0.7019607843137254" stroke-linejoin="bevel" stroke-miterlimit="10" stroke-width="2" stroke-dasharray=""/><path fill="rgb(174,199,232)" stroke="rgb(0,0,0)" paint-order="fill" d="M 86.21240234375 61.051700592041016 A 5 5 0 1 1 86.2123998437502 61.046700592874345" fill-opacity="1" clip-path="url(#sLLPKsDuERAB)" stroke-opacity="0.7019607843137254" stroke-linejoin="bevel" stroke-miterlimit="10" stroke-width="2" stroke-dasharray=""/><path fill="rgb(255,127,14)" stroke="rgb(0,0,0)" paint-order="fill" d="M 199.3581085205078 185.5563507080078 A 5 5 0 1 1 199.35810602050802 185.55135070884114" fill-opacity="1" clip-path="url(#sLLPKsDuERAB)" stroke-opacity="0.7019607843137254" stroke-linejoin="bevel" stroke-miterlimit="10" stroke-width="2" stroke-dasharray=""/><path fill="rgb(255,127,14)" stroke="rgb(0,0,0)" paint-order="fill" d="M 191.84506225585938 187.50669860839844 A 5 5 0 1 1 191.84505975585958 187.50169860923177" fill-opacity="1" clip-path="url(#sLLPKsDuERAB)" stroke-opacity="0.7019607843137254" stroke-linejoin="bevel" stroke-miterlimit="10" stroke-width="2" stroke-dasharray=""/><path fill="rgb(255,127,14)" stroke="rgb(0,0,0)" paint-order="fill" d="M 195.7047882080078 185.9892120361328 A 5 5 0 1 1 195.70478570800802 185.98421203696614" fill-opacity="1" clip-path="url(#sLLPKsDuERAB)" stroke-opacity="0.7019607843137254" stroke-linejoin="bevel" stroke-miterlimit="10" stroke-width="2" stroke-dasharray=""/><path fill="none" stroke="none"/><path fill="rgb(31,119,180)" stroke="rgb(0,0,0)" paint-order="fill" d="M 142.95111083984375 178.42588806152344 L 152.95111083984375 178.42588806152344 L 152.95111083984375 188.42588806152344 L 142.95111083984375 188.42588806152344 L 142.95111083984375 178.42588806152344" fill-opacity="1" clip-path="url(#mQmOBbNqPdrp)" stroke-opacity="0.7019607843137254" stroke-linejoin="bevel" stroke-miterlimit="10" stroke-width="2" stroke-dasharray=""/><path fill="rgb(31,119,180)" stroke="rgb(0,0,0)" paint-order="fill" d="M 129.10511779785156 175.70773315429688 L 139.10511779785156 175.70773315429688 L 139.10511779785156 185.70773315429688 L 129.10511779785156 185.70773315429688 L 129.10511779785156 175.70773315429688" fill-opacity="1" clip-path="url(#mQmOBbNqPdrp)" stroke-opacity="0.7019607843137254" stroke-linejoin="bevel" stroke-miterlimit="10" stroke-width="2" stroke-dasharray=""/><path fill="rgb(31,119,180)" stroke="rgb(0,0,0)" paint-order="fill" d="M 133.85340881347656 169.09104919433594 L 143.85340881347656 169.09104919433594 L 143.85340881347656 179.09104919433594 L 133.85340881347656 179.09104919433594 L 133.85340881347656 169.09104919433594" fill-opacity="1" clip-path="url(#mQmOBbNqPdrp)" stroke-opacity="0.7019607843137254" stroke-linejoin="bevel" stroke-miterlimit="10" stroke-width="2" stroke-dasharray=""/><path fill="rgb(31,119,180)" stroke="rgb(0,0,0)" paint-order="fill" d="M 139.19442749023438 178.29217529296875 L 149.19442749023438 178.29217529296875 L 149.19442749023438 188.29217529296875 L 139.19442749023438 188.29217529296875 L 139.19442749023438 178.29217529296875" fill-opacity="1" clip-path="url(#mQmOBbNqPdrp)" stroke-opacity="0.7019607843137254" stroke-linejoin="bevel" stroke-miterlimit="10" stroke-width="2" stroke-dasharray=""/><path fill="none" stroke="rgb(0,0,0)" paint-order="fill" d="M 59.5 205.5 L 220.5 205.5" stroke-opacity="1" stroke-linejoin="bevel" stroke-miterlimit="10" stroke-dasharray=""/><path fill="none" stroke="rgb(0,0,0)" paint-order="fill" d="M 86.5 211.5 L 86.5 203.5 M 140.5 211.5 L 140.5 203.5 M 193.5 211.5 L 193.5 203.5" stroke-opacity="1" stroke-linejoin="bevel" stroke-miterlimit="10" stroke-dasharray=""/><path fill="none" stroke="rgb(0,0,0)" paint-order="fill" d="" stroke-opacity="1" stroke-linejoin="bevel" stroke-miterlimit="10" stroke-dasharray=""/><text fill="rgb(68,68,68)" stroke="none" font-family="helvetica" font-size="12pt" font-style="normal" font-weight="normal" text-decoration="normal" x="60.9666690826416" y="221.83203125" text-anchor="start" dominant-baseline="alphabetic" transform="matrix(0.7071067811865476, -0.7071067811865475, 0.7071067811865475, 0.7071067811865476, -127.09506270994027, 124.45826911381658)" fill-opacity="1">WT</text><text fill="rgb(68,68,68)" stroke="none" font-family="helvetica" font-size="12pt" font-style="normal" font-weight="normal" text-decoration="normal" x="91.48333358764648" y="221.83203125" text-anchor="start" dominant-baseline="alphabetic" transform="matrix(0.7071067811865476, -0.7071067811865475, 0.7071067811865475, 0.7071067811865476, -111.37646071181763, 162.40633123922908)" fill-opacity="1">Abiotic</text><text fill="rgb(68,68,68)" stroke="none" font-family="helvetica" font-size="12pt" font-style="normal" font-weight="normal" text-decoration="normal" x="127.36666870117188" y="221.83203125" text-anchor="start" dominant-baseline="alphabetic" transform="matrix(0.7071067811865476, -0.7071067811865475, 0.7071067811865475, 0.7071067811865476, -95.65785647909706, 200.35439875943823)" fill-opacity="1">frdA-tlKO</text><text fill="rgb(128,128,128)" stroke="none" font-family="helvetica" font-size="11px" font-style="normal" font-weight="bold" text-decoration="normal" x="113.22500038146973" y="294.3667820167632" text-anchor="start" dominant-baseline="alphabetic" transform="matrix(1, 0, 0, 1, 0.5, 0.5)" fill-opacity="1">PCA, Fum</text><path fill="none" stroke="rgb(0,0,0)" paint-order="fill" d="M 59.5 205.5 L 59.5 31.5" stroke-opacity="1" stroke-linejoin="bevel" stroke-miterlimit="10" stroke-dasharray=""/><path fill="none" stroke="rgb(0,0,0)" paint-order="fill" d="M 53.5 190.5 L 61.5 190.5 M 53.5 141.5 L 61.5 141.5 M 53.5 91.5 L 61.5 91.5 M 53.5 42.5 L 61.5 42.5" stroke-opacity="1" stroke-linejoin="bevel" stroke-miterlimit="10" stroke-dasharray=""/><path fill="none" stroke="rgb(0,0,0)" paint-order="fill" d="M 55.5 200.5 L 59.5 200.5 M 55.5 190.5 L 59.5 190.5 M 55.5 180.5 L 59.5 180.5 M 55.5 170.5 L 59.5 170.5 M 55.5 160.5 L 59.5 160.5 M 55.5 150.5 L 59.5 150.5 M 55.5 141.5 L 59.5 141.5 M 55.5 131.5 L 59.5 131.5 M 55.5 121.5 L 59.5 121.5 M 55.5 111.5 L 59.5 111.5 M 55.5 101.5 L 59.5 101.5 M 55.5 91.5 L 59.5 91.5 M 55.5 81.5 L 59.5 81.5 M 55.5 71.5 L 59.5 71.5 M 55.5 61.5 L 59.5 61.5 M 55.5 52.5 L 59.5 52.5 M 55.5 42.5 L 59.5 42.5 M 55.5 32.5 L 59.5 32.5" stroke-opacity="1" stroke-linejoin="bevel" stroke-miterlimit="10" stroke-dasharray=""/><text fill="rgb(68,68,68)" stroke="none" font-family="helvetica" font-size="12pt" font-style="normal" font-weight="normal" text-decoration="normal" x="39.10000038146973" y="195.67333984375" text-anchor="start" dominant-baseline="alphabetic" transform="matrix(1, 0, 0, 1, 0.5, 0.5)" fill-opacity="1">0</text><text fill="rgb(68,68,68)" stroke="none" font-family="helvetica" font-size="12pt" font-style="normal" font-weight="normal" text-decoration="normal" x="39.10000038146973" y="146.2644805908203" text-anchor="start" dominant-baseline="alphabetic" transform="matrix(1, 0, 0, 1, 0.5, 0.5)" fill-opacity="1">5</text><text fill="rgb(68,68,68)" stroke="none" font-family="helvetica" font-size="12pt" font-style="normal" font-weight="normal" text-decoration="normal" x="30.200000762939453" y="96.85562133789062" text-anchor="start" dominant-baseline="alphabetic" transform="matrix(1, 0, 0, 1, 0.5, 0.5)" fill-opacity="1">10</text><text fill="rgb(68,68,68)" stroke="none" font-family="helvetica" font-size="12pt" font-style="normal" font-weight="normal" text-decoration="normal" x="30.200000762939453" y="47.44675827026367" text-anchor="start" dominant-baseline="alphabetic" transform="matrix(1, 0, 0, 1, 0.5, 0.5)" fill-opacity="1">15</text><text fill="rgb(68,68,68)" stroke="none" font-family="helvetica" font-size="12pt" font-style="italic" font-weight="normal" text-decoration="normal" x="-121.15000534057617" y="114.4609375" text-anchor="start" dominant-baseline="alphabetic" transform="matrix(6.123233995736766e-17, -1, 1, 6.123233995736766e-17, -95.29999923706055, 140.70000076293945)" fill-opacity="1">Maximum PCAred oxidation rate (µM/hr)</text><path fill="none" stroke="none"/><text fill="rgb(68,68,68)" stroke="none" font-family="helvetica" font-size="12pt" font-style="normal" font-weight="bold" text-decoration="normal" x="0" y="0" text-anchor="start" dominant-baseline="text-after-edge" transform="matrix(1, 0, 0, 1, 59.5, 26.5)" fill-opacity="1">fumarate</text></svg>