<svg version="1.1" xmlns="http://www.w3.org/2000/svg" xmlns:xlink="http://www.w3.org/1999/xlink" width="300" height="500"><defs><clipPath id="zyCtuOvVLVCA"><path fill="none" stroke="none" d="M 59.5 31.5 L 270.5 31.5 L 270.5 329.5 L 59.5 329.5 L 59.5 31.5"/></clipPath><clipPath id="WldxofIwUzWi"><path fill="none" stroke="none" d="M 59.5 31.5 L 270.5 31.5 L 270.5 329.5 L 59.5 329.5 L 59.5 31.5"/></clipPath><clipPath id="TQAEGPGTacSd"><path fill="none" stroke="none" d="M 59.5 31.5 L 270.5 31.5 L 270.5 329.5 L 59.5 329.5 L 59.5 31.5"/></clipPath><clipPath id="uuZWGrgTSbgb"><path fill="none" stroke="none" d="M 59.5 31.5 L 270.5 31.5 L 270.5 329.5 L 59.5 329.5 L 59.5 31.5"/></clipPath><clipPath id="RdSdenrbqxcS"><path fill="none" stroke="none" d="M 59.5 31.5 L 270.5 31.5 L 270.5 329.5 L 59.5 329.5 L 59.5 31.5"/></clipPath></defs><path fill="rgb(255,255,255)" stroke="none" paint-order="stroke" d="M 0.5 0.5 L 300.5 0.5 L 300.5 500.5 L 0.5 500.5 L 0.5 0.5" fill-opacity="1"/><rect fill="#FFFFFF" stroke="none" x="59" y="31" width="211" height="298" transform="matrix(1, 0, 0, 1, 0.5, 0.5)"/><path fill="rgb(255,255,255)" stroke="none" paint-order="stroke" d="M 59.5 31.5 L 270.5 31.5 L 270.5 329.5 L 59.5 329.5 L 59.5 31.5" fill-opacity="1"/><path fill="none" stroke="rgb(229,229,229)" paint-order="fill" d="M 59.5 31.5 L 270.5 31.5 L 270.5 329.5 L 59.5 329.5 L 59.5 31.5" stroke-opacity="1" stroke-linejoin="bevel" stroke-miterlimit="10" stroke-dasharray=""/><path fill="none" stroke="rgb(229,229,229)" paint-order="fill" d="M 59.5 303.5 L 270.5 303.5 M 59.5 226.5 L 270.5 226.5 M 59.5 149.5 L 270.5 149.5 M 59.5 72.5 L 270.5 72.5" stroke-opacity="1" stroke-linejoin="bevel" stroke-miterlimit="10" stroke-dasharray="" clip-path="url(#WldxofIwUzWi)"/><path fill="none" stroke="none"/><path fill="rgb(174,199,232)" stroke="rgb(0,0,0)" paint-order="fill" d="M 75.56129455566406 77.19181060791016 A 5 5 0 1 1 75.56129205566427 77.18681060874349" fill-opacity="1" clip-path="url(#TQAEGPGTacSd)" stroke-opacity="0.7019607843137254" stroke-linejoin="bevel" stroke-miterlimit="10" stroke-width="2" stroke-dasharray=""/><path fill="rgb(174,199,232)" stroke="rgb(0,0,0)" paint-order="fill" d="M 83.19879913330078 109.5384292602539 A 5 5 0 1 1 83.19879663330099 109.53342926108724" fill-opacity="1" clip-path="url(#TQAEGPGTacSd)" stroke-opacity="0.7019607843137254" stroke-linejoin="bevel" stroke-miterlimit="10" stroke-width="2" stroke-dasharray=""/><path fill="rgb(174,199,232)" stroke="rgb(0,0,0)" paint-order="fill" d="M 77.54779815673828 99.18104553222656 A 5 5 0 1 1 77.54779565673849 99.17604553305989" fill-opacity="1" clip-path="url(#TQAEGPGTacSd)" stroke-opacity="0.7019607843137254" stroke-linejoin="bevel" stroke-miterlimit="10" stroke-width="2" stroke-dasharray=""/><path fill="rgb(174,199,232)" stroke="rgb(0,0,0)" paint-order="fill" d="M 82.80484771728516 92.69729614257812 A 5 5 0 1 1 82.80484521728536 92.69229614341145" fill-opacity="1" clip-path="url(#TQAEGPGTacSd)" stroke-opacity="0.7019607843137254" stroke-linejoin="bevel" stroke-miterlimit="10" stroke-width="2" stroke-dasharray=""/><path fill="rgb(174,199,232)" stroke="rgb(0,0,0)" paint-order="fill" d="M 81.0294418334961 140.23289489746094 A 5 5 0 1 1 81.0294393334963 140.22789489829427" fill-opacity="1" clip-path="url(#TQAEGPGTacSd)" stroke-opacity="0.7019607843137254" stroke-linejoin="bevel" stroke-miterlimit="10" stroke-width="2" stroke-dasharray=""/><path fill="rgb(255,187,120)" stroke="rgb(0,0,0)" paint-order="fill" d="M 143.97743225097656 236.09268188476562 A 5 5 0 1 1 143.97742975097677 236.08768188559895" fill-opacity="1" clip-path="url(#TQAEGPGTacSd)" stroke-opacity="0.7019607843137254" stroke-linejoin="bevel" stroke-miterlimit="10" stroke-width="2" stroke-dasharray=""/><path fill="rgb(255,187,120)" stroke="rgb(0,0,0)" paint-order="fill" d="M 144.15252685546875 232.2823486328125 A 5 5 0 1 1 144.15252435546896 232.27734863364583" fill-opacity="1" clip-path="url(#TQAEGPGTacSd)" stroke-opacity="0.7019607843137254" stroke-linejoin="bevel" stroke-miterlimit="10" stroke-width="2" stroke-dasharray=""/><path fill="rgb(255,187,120)" stroke="rgb(0,0,0)" paint-order="fill" d="M 141.23812866210938 227.09242248535156 A 5 5 0 1 1 141.23812616210958 227.0874224861849" fill-opacity="1" clip-path="url(#TQAEGPGTacSd)" stroke-opacity="0.7019607843137254" stroke-linejoin="bevel" stroke-miterlimit="10" stroke-width="2" stroke-dasharray=""/><path fill="rgb(255,187,120)" stroke="rgb(0,0,0)" paint-order="fill" d="M 139.35263061523438 224.783203125 A 5 5 0 1 1 139.35262811523458 224.77820312583333" fill-opacity="1" clip-path="url(#TQAEGPGTacSd)" stroke-opacity="0.7019607843137254" stroke-linejoin="bevel" stroke-miterlimit="10" stroke-width="2" stroke-dasharray=""/><path fill="rgb(255,187,120)" stroke="rgb(0,0,0)" paint-order="fill" d="M 139.04173278808594 230.80010986328125 A 5 5 0 1 1 139.04173028808614 230.79510986411458" fill-opacity="1" clip-path="url(#TQAEGPGTacSd)" stroke-opacity="0.7019607843137254" stroke-linejoin="bevel" stroke-miterlimit="10" stroke-width="2" stroke-dasharray=""/><path fill="rgb(255,127,14)" stroke="rgb(0,0,0)" paint-order="fill" d="M 198.93505859375 178.4064178466797 A 5 5 0 1 1 198.9350560937502 178.40141784751302" fill-opacity="1" clip-path="url(#TQAEGPGTacSd)" stroke-opacity="0.7019607843137254" stroke-linejoin="bevel" stroke-miterlimit="10" stroke-width="2" stroke-dasharray=""/><path fill="rgb(255,127,14)" stroke="rgb(0,0,0)" paint-order="fill" d="M 202.56784057617188 158.72108459472656 A 5 5 0 1 1 202.56783807617208 158.7160845955599" fill-opacity="1" clip-path="url(#TQAEGPGTacSd)" stroke-opacity="0.7019607843137254" stroke-linejoin="bevel" stroke-miterlimit="10" stroke-width="2" stroke-dasharray=""/><path fill="rgb(255,127,14)" stroke="rgb(0,0,0)" paint-order="fill" d="M 201.6033477783203 150.7078857421875 A 5 5 0 1 1 201.60334527832052 150.70288574302083" fill-opacity="1" clip-path="url(#TQAEGPGTacSd)" stroke-opacity="0.7019607843137254" stroke-linejoin="bevel" stroke-miterlimit="10" stroke-width="2" stroke-dasharray=""/><path fill="rgb(44,160,44)" stroke="rgb(0,0,0)" paint-order="fill" d="M 226.08404541015625 225.78839111328125 A 5 5 0 1 1 226.08404291015646 225.78339111411458" fill-opacity="1" clip-path="url(#TQAEGPGTacSd)" stroke-opacity="0.7019607843137254" stroke-linejoin="bevel" stroke-miterlimit="10" stroke-width="2" stroke-dasharray=""/><path fill="rgb(44,160,44)" stroke="rgb(0,0,0)" paint-order="fill" d="M 230.5282745361328 252.59214782714844 A 5 5 0 1 1 230.52827203613302 252.58714782798177" fill-opacity="1" clip-path="url(#TQAEGPGTacSd)" stroke-opacity="0.7019607843137254" stroke-linejoin="bevel" stroke-miterlimit="10" stroke-width="2" stroke-dasharray=""/><path fill="rgb(44,160,44)" stroke="rgb(0,0,0)" paint-order="fill" d="M 230.45240783691406 197.35096740722656 A 5 5 0 1 1 230.45240533691427 197.3459674080599" fill-opacity="1" clip-path="url(#TQAEGPGTacSd)" stroke-opacity="0.7019607843137254" stroke-linejoin="bevel" stroke-miterlimit="10" stroke-width="2" stroke-dasharray=""/><path fill="rgb(152,223,138)" stroke="rgb(0,0,0)" paint-order="fill" d="M 261.3139953613281 262.5773620605469 A 5 5 0 1 1 261.31399286132836 262.5723620613802" fill-opacity="1" clip-path="url(#TQAEGPGTacSd)" stroke-opacity="0.7019607843137254" stroke-linejoin="bevel" stroke-miterlimit="10" stroke-width="2" stroke-dasharray=""/><path fill="rgb(152,223,138)" stroke="rgb(0,0,0)" paint-order="fill" d="M 260.1143798828125 252.22372436523438 A 5 5 0 1 1 260.11437738281273 252.2187243660677" fill-opacity="1" clip-path="url(#TQAEGPGTacSd)" stroke-opacity="0.7019607843137254" stroke-linejoin="bevel" stroke-miterlimit="10" stroke-width="2" stroke-dasharray=""/><path fill="rgb(152,223,138)" stroke="rgb(0,0,0)" paint-order="fill" d="M 256.43370056152344 217.77723693847656 A 5 5 0 1 1 256.43369806152367 217.7722369393099" fill-opacity="1" clip-path="url(#TQAEGPGTacSd)" stroke-opacity="0.7019607843137254" stroke-linejoin="bevel" stroke-miterlimit="10" stroke-width="2" stroke-dasharray=""/><path fill="none" stroke="none"/><path fill="rgb(174,199,232)" stroke="rgb(0,0,0)" paint-order="fill" d="M 73.80543518066406 40.69047546386719 L 83.80543518066406 40.69047546386719 L 83.80543518066406 50.69047546386719 L 73.80543518066406 50.69047546386719 L 73.80543518066406 40.69047546386719" fill-opacity="1" clip-path="url(#uuZWGrgTSbgb)" stroke-opacity="0.7019607843137254" stroke-linejoin="bevel" stroke-miterlimit="10" stroke-width="2" stroke-dasharray=""/><path fill="rgb(31,119,180)" stroke="rgb(0,0,0)" paint-order="fill" d="M 99.22384643554688 282.5911865234375 L 109.22384643554688 282.5911865234375 L 109.22384643554688 292.5911865234375 L 99.22384643554688 292.5911865234375 L 99.22384643554688 282.5911865234375" fill-opacity="1" clip-path="url(#uuZWGrgTSbgb)" stroke-opacity="0.7019607843137254" stroke-linejoin="bevel" stroke-miterlimit="10" stroke-width="2" stroke-dasharray=""/><path fill="rgb(31,119,180)" stroke="rgb(0,0,0)" paint-order="fill" d="M 101.25018310546875 272.4231262207031 L 111.25018310546875 272.4231262207031 L 111.25018310546875 282.4231262207031 L 101.25018310546875 282.4231262207031 L 101.25018310546875 272.4231262207031" fill-opacity="1" clip-path="url(#uuZWGrgTSbgb)" stroke-opacity="0.7019607843137254" stroke-linejoin="bevel" stroke-miterlimit="10" stroke-width="2" stroke-dasharray=""/><path fill="rgb(214,39,40)" stroke="rgb(0,0,0)" paint-order="fill" d="M 159.20571899414062 267.3075866699219 L 169.20571899414062 267.3075866699219 L 169.20571899414062 277.3075866699219 L 159.20571899414062 277.3075866699219 L 159.20571899414062 267.3075866699219" fill-opacity="1" clip-path="url(#uuZWGrgTSbgb)" stroke-opacity="0.7019607843137254" stroke-linejoin="bevel" stroke-miterlimit="10" stroke-width="2" stroke-dasharray=""/><path fill="none" stroke="rgb(0,0,0)" paint-order="fill" d="M 59.5 329.5 L 270.5 329.5" stroke-opacity="1" stroke-linejoin="bevel" stroke-miterlimit="10" stroke-dasharray=""/><path fill="none" stroke="rgb(0,0,0)" paint-order="fill" d="M 74.5 335.5 L 74.5 327.5 M 104.5 335.5 L 104.5 327.5 M 134.5 335.5 L 134.5 327.5 M 165.5 335.5 L 165.5 327.5 M 195.5 335.5 L 195.5 327.5 M 225.5 335.5 L 225.5 327.5 M 255.5 335.5 L 255.5 327.5" stroke-opacity="1" stroke-linejoin="bevel" stroke-miterlimit="10" stroke-dasharray=""/><path fill="none" stroke="rgb(0,0,0)" paint-order="fill" d="" stroke-opacity="1" stroke-linejoin="bevel" stroke-miterlimit="10" stroke-dasharray=""/><text fill="rgb(68,68,68)" stroke="none" font-family="helvetica" font-size="12pt" font-style="normal" font-weight="normal" text-decoration="normal" x="49.20475959777832" y="345.83203125" text-anchor="start" dominant-baseline="alphabetic" transform="matrix(0.7071067811865476, -0.7071067811865475, 0.7071067811865475, 0.7071067811865476, -218.22128710548623, 152.4601022902355)" fill-opacity="1">WT</text><text fill="rgb(68,68,68)" stroke="none" font-family="helvetica" font-size="12pt" font-style="normal" font-weight="normal" text-decoration="normal" x="56.1976203918457" y="345.83203125" text-anchor="start" dominant-baseline="alphabetic" transform="matrix(0.7071067811865476, -0.7071067811865475, 0.7071067811865475, 0.7071067811865476, -209.39264769499596, 173.77432329234284)" fill-opacity="1">Abiotic</text><text fill="rgb(68,68,68)" stroke="none" font-family="helvetica" font-size="12pt" font-style="normal" font-weight="normal" text-decoration="normal" x="57.00714874267578" y="345.83203125" text-anchor="start" dominant-baseline="alphabetic" transform="matrix(0.7071067811865476, -0.7071067811865475, 0.7071067811865475, 0.7071067811865476, -200.56400828450558, 195.08854429445017)" fill-opacity="1">dmsA-tlKO</text><text fill="rgb(68,68,68)" stroke="none" font-family="helvetica" font-size="12pt" font-style="normal" font-weight="normal" text-decoration="normal" x="53.349998474121094" y="345.83203125" text-anchor="start" dominant-baseline="alphabetic" transform="matrix(0.7071067811865476, -0.7071067811865475, 0.7071067811865475, 0.7071067811865476, -191.7353711086132, 216.40275990176087)" fill-opacity="1">menAubiC-tlKO</text><text fill="rgb(68,68,68)" stroke="none" font-family="helvetica" font-size="12pt" font-style="normal" font-weight="normal" text-decoration="normal" x="53.27618408203125" y="345.83203125" text-anchor="start" dominant-baseline="alphabetic" transform="matrix(0.7071067811865476, -0.7071067811865475, 0.7071067811865475, 0.7071067811865476, -182.90673393272084, 237.7169755090716)" fill-opacity="1">dmsA pFE21-DmsA</text><text fill="rgb(68,68,68)" stroke="none" font-family="helvetica" font-size="12pt" font-style="normal" font-weight="normal" text-decoration="normal" x="51.369049072265625" y="345.83203125" text-anchor="start" dominant-baseline="alphabetic" transform="matrix(0.7071067811865476, -0.7071067811865475, 0.7071067811865475, 0.7071067811865476, -174.07809228763256, 259.03120190597554)" fill-opacity="1">menAubiC pFE21-MenA</text><text fill="rgb(68,68,68)" stroke="none" font-family="helvetica" font-size="12pt" font-style="normal" font-weight="normal" text-decoration="normal" x="87.76190185546875" y="345.83203125" text-anchor="start" dominant-baseline="alphabetic" transform="matrix(0.7071067811865476, -0.7071067811865475, 0.7071067811865475, 0.7071067811865476, -165.2494551117402, 280.3454175132863)" fill-opacity="1">menAubiC pFE21-UbiC</text><text fill="rgb(128,128,128)" stroke="none" font-family="helvetica" font-size="11px" font-style="normal" font-weight="bold" text-decoration="normal" x="133.64166641235352" y="494.4632582240679" text-anchor="start" dominant-baseline="alphabetic" transform="matrix(1, 0, 0, 1, 0.5, 0.5)" fill-opacity="1">PCA, TMAO</text><path fill="none" stroke="rgb(0,0,0)" paint-order="fill" d="M 59.5 329.5 L 59.5 31.5" stroke-opacity="1" stroke-linejoin="bevel" stroke-miterlimit="10" stroke-dasharray=""/><path fill="none" stroke="rgb(0,0,0)" paint-order="fill" d="M 53.5 303.5 L 61.5 303.5 M 53.5 226.5 L 61.5 226.5 M 53.5 149.5 L 61.5 149.5 M 53.5 72.5 L 61.5 72.5" stroke-opacity="1" stroke-linejoin="bevel" stroke-miterlimit="10" stroke-dasharray=""/><path fill="none" stroke="rgb(0,0,0)" paint-order="fill" d="M 55.5 319.5 L 59.5 319.5 M 55.5 303.5 L 59.5 303.5 M 55.5 288.5 L 59.5 288.5 M 55.5 272.5 L 59.5 272.5 M 55.5 257.5 L 59.5 257.5 M 55.5 241.5 L 59.5 241.5 M 55.5 226.5 L 59.5 226.5 M 55.5 211.5 L 59.5 211.5 M 55.5 195.5 L 59.5 195.5 M 55.5 180.5 L 59.5 180.5 M 55.5 164.5 L 59.5 164.5 M 55.5 149.5 L 59.5 149.5 M 55.5 133.5 L 59.5 133.5 M 55.5 118.5 L 59.5 118.5 M 55.5 103.5 L 59.5 103.5 M 55.5 87.5 L 59.5 87.5 M 55.5 72.5 L 59.5 72.5 M 55.5 56.5 L 59.5 56.5 M 55.5 41.5 L 59.5 41.5" stroke-opacity="1" stroke-linejoin="bevel" stroke-miterlimit="10" stroke-dasharray=""/><text fill="rgb(68,68,68)" stroke="none" font-family="helvetica" font-size="12pt" font-style="normal" font-weight="normal" text-decoration="normal" x="39.10000038146973" y="308.9374084472656" text-anchor="start" dominant-baseline="alphabetic" transform="matrix(1, 0, 0, 1, 0.5, 0.5)" fill-opacity="1">0</text><text fill="rgb(68,68,68)" stroke="none" font-family="helvetica" font-size="12pt" font-style="normal" font-weight="normal" text-decoration="normal" x="39.10000038146973" y="231.76939392089844" text-anchor="start" dominant-baseline="alphabetic" transform="matrix(1, 0, 0, 1, 0.5, 0.5)" fill-opacity="1">5</text><text fill="rgb(68,68,68)" stroke="none" font-family="helvetica" font-size="12pt" font-style="normal" font-weight="normal" text-decoration="normal" x="30.200000762939453" y="154.6013641357422" text-anchor="start" dominant-baseline="alphabetic" transform="matrix(1, 0, 0, 1, 0.5, 0.5)" fill-opacity="1">10</text><text fill="rgb(68,68,68)" stroke="none" font-family="helvetica" font-size="12pt" font-style="normal" font-weight="normal" text-decoration="normal" x="30.200000762939453" y="77.43334197998047" text-anchor="start" dominant-baseline="alphabetic" transform="matrix(1, 0, 0, 1, 0.5, 0.5)" fill-opacity="1">15</text><text fill="rgb(68,68,68)" stroke="none" font-family="helvetica" font-size="12pt" font-style="italic" font-weight="normal" text-decoration="normal" x="-121.15000534057617" y="176.4609375" text-anchor="start" dominant-baseline="alphabetic" transform="matrix(6.123233995736766e-17, -1, 1, 6.123233995736766e-17, -157.29999923706055, 202.70000076293945)" fill-opacity="1">Maximum PCAred oxidation rate (µM/hr)</text><path fill="none" stroke="none"/><text fill="rgb(68,68,68)" stroke="none" font-family="helvetica" font-size="12pt" font-style="normal" font-weight="bold" text-decoration="normal" x="0" y="0" text-anchor="start" dominant-baseline="text-after-edge" transform="matrix(1, 0, 0, 1, 59.5, 26.5)" fill-opacity="1">TMAO complementations</text></svg>