<svg version="1.1" xmlns="http://www.w3.org/2000/svg" xmlns:xlink="http://www.w3.org/1999/xlink" width="400" height="500"><defs><clipPath id="lEGoMzEhUykh"><path fill="none" stroke="none" d="M 59.5 31.5 L 370.5 31.5 L 370.5 308.5 L 59.5 308.5 L 59.5 31.5"/></clipPath><clipPath id="LBwvuVtDLngI"><path fill="none" stroke="none" d="M 59.5 31.5 L 370.5 31.5 L 370.5 308.5 L 59.5 308.5 L 59.5 31.5"/></clipPath><clipPath id="AlCUoRsBViOh"><path fill="none" stroke="none" d="M 59.5 31.5 L 370.5 31.5 L 370.5 308.5 L 59.5 308.5 L 59.5 31.5"/></clipPath><clipPath id="pLglvcZCrvsT"><path fill="none" stroke="none" d="M 59.5 31.5 L 370.5 31.5 L 370.5 308.5 L 59.5 308.5 L 59.5 31.5"/></clipPath><clipPath id="DUpRBZsFqDLN"><path fill="none" stroke="none" d="M 59.5 31.5 L 370.5 31.5 L 370.5 308.5 L 59.5 308.5 L 59.5 31.5"/></clipPath></defs><path fill="rgb(255,255,255)" stroke="none" paint-order="stroke" d="M 0.5 0.5 L 400.5 0.5 L 400.5 500.5 L 0.5 500.5 L 0.5 0.5" fill-opacity="1"/><rect fill="#FFFFFF" stroke="none" x="59" y="31" width="311" height="277" transform="matrix(1, 0, 0, 1, 0.5, 0.5)"/><path fill="rgb(255,255,255)" stroke="none" paint-order="stroke" d="M 59.5 31.5 L 370.5 31.5 L 370.5 308.5 L 59.5 308.5 L 59.5 31.5" fill-opacity="1"/><path fill="none" stroke="rgb(229,229,229)" paint-order="fill" d="M 59.5 31.5 L 370.5 31.5 L 370.5 308.5 L 59.5 308.5 L 59.5 31.5" stroke-opacity="1" stroke-linejoin="bevel" stroke-miterlimit="10" stroke-dasharray=""/><path fill="none" stroke="rgb(229,229,229)" paint-order="fill" d="M 59.5 284.5 L 370.5 284.5 M 59.5 229.5 L 370.5 229.5 M 59.5 174.5 L 370.5 174.5 M 59.5 119.5 L 370.5 119.5 M 59.5 64.5 L 370.5 64.5" stroke-opacity="1" stroke-linejoin="bevel" stroke-miterlimit="10" stroke-dasharray="" clip-path="url(#LBwvuVtDLngI)"/><path fill="none" stroke="none"/><path fill="rgb(174,199,232)" stroke="rgb(0,0,0)" paint-order="fill" d="M 79.36909484863281 50.840152740478516 A 5 5 0 1 1 79.36909234863302 50.835152741311845" fill-opacity="1" clip-path="url(#AlCUoRsBViOh)" stroke-opacity="0.7019607843137254" stroke-linejoin="bevel" stroke-miterlimit="10" stroke-width="2" stroke-dasharray=""/><path fill="rgb(174,199,232)" stroke="rgb(0,0,0)" paint-order="fill" d="M 82.21746063232422 49.44767379760742 A 5 5 0 1 1 82.21745813232442 49.44267379844075" fill-opacity="1" clip-path="url(#AlCUoRsBViOh)" stroke-opacity="0.7019607843137254" stroke-linejoin="bevel" stroke-miterlimit="10" stroke-width="2" stroke-dasharray=""/><path fill="rgb(174,199,232)" stroke="rgb(0,0,0)" paint-order="fill" d="M 86.45797729492188 57.83669662475586 A 5 5 0 1 1 86.45797479492208 57.83169662558919" fill-opacity="1" clip-path="url(#AlCUoRsBViOh)" stroke-opacity="0.7019607843137254" stroke-linejoin="bevel" stroke-miterlimit="10" stroke-width="2" stroke-dasharray=""/><path fill="rgb(174,199,232)" stroke="rgb(0,0,0)" paint-order="fill" d="M 80.0655288696289 71.15919494628906 A 5 5 0 1 1 80.06552636962911 71.15419494712239" fill-opacity="1" clip-path="url(#AlCUoRsBViOh)" stroke-opacity="0.7019607843137254" stroke-linejoin="bevel" stroke-miterlimit="10" stroke-width="2" stroke-dasharray=""/><path fill="rgb(174,199,232)" stroke="rgb(0,0,0)" paint-order="fill" d="M 81.13224029541016 49.91206359863281 A 5 5 0 1 1 81.13223779541036 49.90706359946614" fill-opacity="1" clip-path="url(#AlCUoRsBViOh)" stroke-opacity="0.7019607843137254" stroke-linejoin="bevel" stroke-miterlimit="10" stroke-width="2" stroke-dasharray=""/><path fill="rgb(174,199,232)" stroke="rgb(0,0,0)" paint-order="fill" d="M 85.79063415527344 78.46461486816406 A 5 5 0 1 1 85.79063165527364 78.45961486899739" fill-opacity="1" clip-path="url(#AlCUoRsBViOh)" stroke-opacity="0.7019607843137254" stroke-linejoin="bevel" stroke-miterlimit="10" stroke-width="2" stroke-dasharray=""/><path fill="rgb(174,199,232)" stroke="rgb(0,0,0)" paint-order="fill" d="M 80.42981719970703 56.22199249267578 A 5 5 0 1 1 80.42981469970724 56.21699249350911" fill-opacity="1" clip-path="url(#AlCUoRsBViOh)" stroke-opacity="0.7019607843137254" stroke-linejoin="bevel" stroke-miterlimit="10" stroke-width="2" stroke-dasharray=""/><path fill="rgb(174,199,232)" stroke="rgb(0,0,0)" paint-order="fill" d="M 82.81790924072266 83.07514953613281 A 5 5 0 1 1 82.81790674072286 83.07014953696614" fill-opacity="1" clip-path="url(#AlCUoRsBViOh)" stroke-opacity="0.7019607843137254" stroke-linejoin="bevel" stroke-miterlimit="10" stroke-width="2" stroke-dasharray=""/><path fill="rgb(44,160,44)" stroke="rgb(0,0,0)" paint-order="fill" d="M 151.0402374267578 257.554931640625 A 5 5 0 1 1 151.04023492675802 257.54993164145833" fill-opacity="1" clip-path="url(#AlCUoRsBViOh)" stroke-opacity="0.7019607843137254" stroke-linejoin="bevel" stroke-miterlimit="10" stroke-width="2" stroke-dasharray=""/><path fill="rgb(44,160,44)" stroke="rgb(0,0,0)" paint-order="fill" d="M 146.06256103515625 252.60214233398438 A 5 5 0 1 1 146.06255853515646 252.5971423348177" fill-opacity="1" clip-path="url(#AlCUoRsBViOh)" stroke-opacity="0.7019607843137254" stroke-linejoin="bevel" stroke-miterlimit="10" stroke-width="2" stroke-dasharray=""/><path fill="rgb(44,160,44)" stroke="rgb(0,0,0)" paint-order="fill" d="M 146.01715087890625 253.53138732910156 A 5 5 0 1 1 146.01714837890646 253.5263873299349" fill-opacity="1" clip-path="url(#AlCUoRsBViOh)" stroke-opacity="0.7019607843137254" stroke-linejoin="bevel" stroke-miterlimit="10" stroke-width="2" stroke-dasharray=""/><path fill="rgb(44,160,44)" stroke="rgb(0,0,0)" paint-order="fill" d="M 152.15859985351562 249.14999389648438 A 5 5 0 1 1 152.15859735351583 249.1449938973177" fill-opacity="1" clip-path="url(#AlCUoRsBViOh)" stroke-opacity="0.7019607843137254" stroke-linejoin="bevel" stroke-miterlimit="10" stroke-width="2" stroke-dasharray=""/><path fill="rgb(44,160,44)" stroke="rgb(0,0,0)" paint-order="fill" d="M 150.0538330078125 251.34225463867188 A 5 5 0 1 1 150.0538305078127 251.3372546395052" fill-opacity="1" clip-path="url(#AlCUoRsBViOh)" stroke-opacity="0.7019607843137254" stroke-linejoin="bevel" stroke-miterlimit="10" stroke-width="2" stroke-dasharray=""/><path fill="rgb(44,160,44)" stroke="rgb(0,0,0)" paint-order="fill" d="M 146.51089477539062 244.70387268066406 A 5 5 0 1 1 146.51089227539083 244.6988726814974" fill-opacity="1" clip-path="url(#AlCUoRsBViOh)" stroke-opacity="0.7019607843137254" stroke-linejoin="bevel" stroke-miterlimit="10" stroke-width="2" stroke-dasharray=""/><path fill="rgb(44,160,44)" stroke="rgb(0,0,0)" paint-order="fill" d="M 152.6507110595703 253.74850463867188 A 5 5 0 1 1 152.65070855957052 253.7435046395052" fill-opacity="1" clip-path="url(#AlCUoRsBViOh)" stroke-opacity="0.7019607843137254" stroke-linejoin="bevel" stroke-miterlimit="10" stroke-width="2" stroke-dasharray=""/><path fill="rgb(44,160,44)" stroke="rgb(0,0,0)" paint-order="fill" d="M 153.83135986328125 254.9185791015625 A 5 5 0 1 1 153.83135736328146 254.91357910239583" fill-opacity="1" clip-path="url(#AlCUoRsBViOh)" stroke-opacity="0.7019607843137254" stroke-linejoin="bevel" stroke-miterlimit="10" stroke-width="2" stroke-dasharray=""/><path fill="rgb(44,160,44)" stroke="rgb(0,0,0)" paint-order="fill" d="M 151.76683044433594 263.0580749511719 A 5 5 0 1 1 151.76682794433614 263.0530749520052" fill-opacity="1" clip-path="url(#AlCUoRsBViOh)" stroke-opacity="0.7019607843137254" stroke-linejoin="bevel" stroke-miterlimit="10" stroke-width="2" stroke-dasharray=""/><path fill="rgb(44,160,44)" stroke="rgb(0,0,0)" paint-order="fill" d="M 149.8433837890625 254.80360412597656 A 5 5 0 1 1 149.8433812890627 254.7986041268099" fill-opacity="1" clip-path="url(#AlCUoRsBViOh)" stroke-opacity="0.7019607843137254" stroke-linejoin="bevel" stroke-miterlimit="10" stroke-width="2" stroke-dasharray=""/><path fill="rgb(44,160,44)" stroke="rgb(0,0,0)" paint-order="fill" d="M 148.3463897705078 252.5101318359375 A 5 5 0 1 1 148.34638727050802 252.50513183677083" fill-opacity="1" clip-path="url(#AlCUoRsBViOh)" stroke-opacity="0.7019607843137254" stroke-linejoin="bevel" stroke-miterlimit="10" stroke-width="2" stroke-dasharray=""/><path fill="rgb(44,160,44)" stroke="rgb(0,0,0)" paint-order="fill" d="M 153.886474609375 253.65785217285156 A 5 5 0 1 1 153.8864721093752 253.6528521736849" fill-opacity="1" clip-path="url(#AlCUoRsBViOh)" stroke-opacity="0.7019607843137254" stroke-linejoin="bevel" stroke-miterlimit="10" stroke-width="2" stroke-dasharray=""/><path fill="rgb(148,103,189)" stroke="rgb(0,0,0)" paint-order="fill" d="M 187.4039764404297 274.8592224121094 A 5 5 0 1 1 187.4039739404299 274.8542224129427" fill-opacity="1" clip-path="url(#AlCUoRsBViOh)" stroke-opacity="0.7019607843137254" stroke-linejoin="bevel" stroke-miterlimit="10" stroke-width="2" stroke-dasharray=""/><path fill="rgb(148,103,189)" stroke="rgb(0,0,0)" paint-order="fill" d="M 184.10464477539062 275.0140075683594 A 5 5 0 1 1 184.10464227539083 275.0090075691927" fill-opacity="1" clip-path="url(#AlCUoRsBViOh)" stroke-opacity="0.7019607843137254" stroke-linejoin="bevel" stroke-miterlimit="10" stroke-width="2" stroke-dasharray=""/><path fill="rgb(148,103,189)" stroke="rgb(0,0,0)" paint-order="fill" d="M 183.7073211669922 266.64483642578125 A 5 5 0 1 1 183.7073186669924 266.6398364266146" fill-opacity="1" clip-path="url(#AlCUoRsBViOh)" stroke-opacity="0.7019607843137254" stroke-linejoin="bevel" stroke-miterlimit="10" stroke-width="2" stroke-dasharray=""/><path fill="rgb(255,127,14)" stroke="rgb(0,0,0)" paint-order="fill" d="M 220.75608825683594 242.6296844482422 A 5 5 0 1 1 220.75608575683614 242.62468444907552" fill-opacity="1" clip-path="url(#AlCUoRsBViOh)" stroke-opacity="0.7019607843137254" stroke-linejoin="bevel" stroke-miterlimit="10" stroke-width="2" stroke-dasharray=""/><path fill="rgb(255,127,14)" stroke="rgb(0,0,0)" paint-order="fill" d="M 222.8453826904297 244.83218383789062 A 5 5 0 1 1 222.8453801904299 244.82718383872395" fill-opacity="1" clip-path="url(#AlCUoRsBViOh)" stroke-opacity="0.7019607843137254" stroke-linejoin="bevel" stroke-miterlimit="10" stroke-width="2" stroke-dasharray=""/><path fill="rgb(255,127,14)" stroke="rgb(0,0,0)" paint-order="fill" d="M 216.59291076660156 250.2027130126953 A 5 5 0 1 1 216.59290826660177 250.19771301352864" fill-opacity="1" clip-path="url(#AlCUoRsBViOh)" stroke-opacity="0.7019607843137254" stroke-linejoin="bevel" stroke-miterlimit="10" stroke-width="2" stroke-dasharray=""/><path fill="rgb(255,187,120)" stroke="rgb(0,0,0)" paint-order="fill" d="M 253.95494079589844 247.17298889160156 A 5 5 0 1 1 253.95493829589864 247.1679888924349" fill-opacity="1" clip-path="url(#AlCUoRsBViOh)" stroke-opacity="0.7019607843137254" stroke-linejoin="bevel" stroke-miterlimit="10" stroke-width="2" stroke-dasharray=""/><path fill="rgb(255,187,120)" stroke="rgb(0,0,0)" paint-order="fill" d="M 258.9001159667969 254.37802124023438 A 5 5 0 1 1 258.9001134667971 254.3730212410677" fill-opacity="1" clip-path="url(#AlCUoRsBViOh)" stroke-opacity="0.7019607843137254" stroke-linejoin="bevel" stroke-miterlimit="10" stroke-width="2" stroke-dasharray=""/><path fill="rgb(255,187,120)" stroke="rgb(0,0,0)" paint-order="fill" d="M 256.5905303955078 253.74374389648438 A 5 5 0 1 1 256.59052789550805 253.7387438973177" fill-opacity="1" clip-path="url(#AlCUoRsBViOh)" stroke-opacity="0.7019607843137254" stroke-linejoin="bevel" stroke-miterlimit="10" stroke-width="2" stroke-dasharray=""/><path fill="rgb(255,187,120)" stroke="rgb(0,0,0)" paint-order="fill" d="M 250.57879638671875 255.62950134277344 A 5 5 0 1 1 250.57879388671896 255.62450134360677" fill-opacity="1" clip-path="url(#AlCUoRsBViOh)" stroke-opacity="0.7019607843137254" stroke-linejoin="bevel" stroke-miterlimit="10" stroke-width="2" stroke-dasharray=""/><path fill="rgb(152,223,138)" stroke="rgb(0,0,0)" paint-order="fill" d="M 291.7246398925781 237.5021514892578 A 5 5 0 1 1 291.72463739257836 237.49715149009114" fill-opacity="1" clip-path="url(#AlCUoRsBViOh)" stroke-opacity="0.7019607843137254" stroke-linejoin="bevel" stroke-miterlimit="10" stroke-width="2" stroke-dasharray=""/><path fill="rgb(152,223,138)" stroke="rgb(0,0,0)" paint-order="fill" d="M 289.16448974609375 241.77281188964844 A 5 5 0 1 1 289.164487246094 241.76781189048177" fill-opacity="1" clip-path="url(#AlCUoRsBViOh)" stroke-opacity="0.7019607843137254" stroke-linejoin="bevel" stroke-miterlimit="10" stroke-width="2" stroke-dasharray=""/><path fill="rgb(152,223,138)" stroke="rgb(0,0,0)" paint-order="fill" d="M 287.0841064453125 233.6718292236328 A 5 5 0 1 1 287.08410394531273 233.66682922446614" fill-opacity="1" clip-path="url(#AlCUoRsBViOh)" stroke-opacity="0.7019607843137254" stroke-linejoin="bevel" stroke-miterlimit="10" stroke-width="2" stroke-dasharray=""/><path fill="rgb(255,152,150)" stroke="rgb(0,0,0)" paint-order="fill" d="M 322.0663757324219 221.34678649902344 A 5 5 0 1 1 322.0663732324221 221.34178649985677" fill-opacity="1" clip-path="url(#AlCUoRsBViOh)" stroke-opacity="0.7019607843137254" stroke-linejoin="bevel" stroke-miterlimit="10" stroke-width="2" stroke-dasharray=""/><path fill="rgb(255,152,150)" stroke="rgb(0,0,0)" paint-order="fill" d="M 323.77532958984375 224.4503173828125 A 5 5 0 1 1 323.775327089844 224.44531738364583" fill-opacity="1" clip-path="url(#AlCUoRsBViOh)" stroke-opacity="0.7019607843137254" stroke-linejoin="bevel" stroke-miterlimit="10" stroke-width="2" stroke-dasharray=""/><path fill="rgb(255,152,150)" stroke="rgb(0,0,0)" paint-order="fill" d="M 319.3409729003906 249.05299377441406 A 5 5 0 1 1 319.34097040039086 249.0479937752474" fill-opacity="1" clip-path="url(#AlCUoRsBViOh)" stroke-opacity="0.7019607843137254" stroke-linejoin="bevel" stroke-miterlimit="10" stroke-width="2" stroke-dasharray=""/><path fill="rgb(152,223,138)" stroke="rgb(0,0,0)" paint-order="fill" d="M 285.2275695800781 276.0410461425781 A 5 5 0 1 1 285.22756708007836 276.03604614341145" fill-opacity="1" clip-path="url(#AlCUoRsBViOh)" stroke-opacity="0.7019607843137254" stroke-linejoin="bevel" stroke-miterlimit="10" stroke-width="2" stroke-dasharray=""/><path fill="rgb(152,223,138)" stroke="rgb(0,0,0)" paint-order="fill" d="M 290.66754150390625 252.27394104003906 A 5 5 0 1 1 290.6675390039065 252.2689410408724" fill-opacity="1" clip-path="url(#AlCUoRsBViOh)" stroke-opacity="0.7019607843137254" stroke-linejoin="bevel" stroke-miterlimit="10" stroke-width="2" stroke-dasharray=""/><path fill="rgb(152,223,138)" stroke="rgb(0,0,0)" paint-order="fill" d="M 289.4406433105469 266.5693359375 A 5 5 0 1 1 289.4406408105471 266.56433593833333" fill-opacity="1" clip-path="url(#AlCUoRsBViOh)" stroke-opacity="0.7019607843137254" stroke-linejoin="bevel" stroke-miterlimit="10" stroke-width="2" stroke-dasharray=""/><path fill="rgb(214,39,40)" stroke="rgb(0,0,0)" paint-order="fill" d="M 359.7052001953125 258.13360595703125 A 5 5 0 1 1 359.70519769531273 258.1286059578646" fill-opacity="1" clip-path="url(#AlCUoRsBViOh)" stroke-opacity="0.7019607843137254" stroke-linejoin="bevel" stroke-miterlimit="10" stroke-width="2" stroke-dasharray=""/><path fill="rgb(214,39,40)" stroke="rgb(0,0,0)" paint-order="fill" d="M 361.5682678222656 263.376708984375 A 5 5 0 1 1 361.56826532226586 263.37170898520833" fill-opacity="1" clip-path="url(#AlCUoRsBViOh)" stroke-opacity="0.7019607843137254" stroke-linejoin="bevel" stroke-miterlimit="10" stroke-width="2" stroke-dasharray=""/><path fill="rgb(214,39,40)" stroke="rgb(0,0,0)" paint-order="fill" d="M 361.6756286621094 274.29681396484375 A 5 5 0 1 1 361.6756261621096 274.2918139656771" fill-opacity="1" clip-path="url(#AlCUoRsBViOh)" stroke-opacity="0.7019607843137254" stroke-linejoin="bevel" stroke-miterlimit="10" stroke-width="2" stroke-dasharray=""/><path fill="rgb(214,39,40)" stroke="rgb(0,0,0)" paint-order="fill" d="M 362.73211669921875 273.1751708984375 A 5 5 0 1 1 362.732114199219 273.17017089927083" fill-opacity="1" clip-path="url(#AlCUoRsBViOh)" stroke-opacity="0.7019607843137254" stroke-linejoin="bevel" stroke-miterlimit="10" stroke-width="2" stroke-dasharray=""/><path fill="rgb(214,39,40)" stroke="rgb(0,0,0)" paint-order="fill" d="M 361.6187744140625 274.41583251953125 A 5 5 0 1 1 361.61877191406273 274.4108325203646" fill-opacity="1" clip-path="url(#AlCUoRsBViOh)" stroke-opacity="0.7019607843137254" stroke-linejoin="bevel" stroke-miterlimit="10" stroke-width="2" stroke-dasharray=""/><path fill="rgb(214,39,40)" stroke="rgb(0,0,0)" paint-order="fill" d="M 353.59942626953125 272.4544372558594 A 5 5 0 1 1 353.5994237695315 272.4494372566927" fill-opacity="1" clip-path="url(#AlCUoRsBViOh)" stroke-opacity="0.7019607843137254" stroke-linejoin="bevel" stroke-miterlimit="10" stroke-width="2" stroke-dasharray=""/><path fill="rgb(255,152,150)" stroke="rgb(0,0,0)" paint-order="fill" d="M 325.64019775390625 248.43446350097656 A 5 5 0 1 1 325.6401952539065 248.4294635018099" fill-opacity="1" clip-path="url(#AlCUoRsBViOh)" stroke-opacity="0.7019607843137254" stroke-linejoin="bevel" stroke-miterlimit="10" stroke-width="2" stroke-dasharray=""/><path fill="rgb(255,152,150)" stroke="rgb(0,0,0)" paint-order="fill" d="M 327.50750732421875 260.7287292480469 A 5 5 0 1 1 327.507504824219 260.7237292488802" fill-opacity="1" clip-path="url(#AlCUoRsBViOh)" stroke-opacity="0.7019607843137254" stroke-linejoin="bevel" stroke-miterlimit="10" stroke-width="2" stroke-dasharray=""/><path fill="rgb(255,152,150)" stroke="rgb(0,0,0)" paint-order="fill" d="M 321.6738586425781 249.92018127441406 A 5 5 0 1 1 321.67385614257836 249.9151812752474" fill-opacity="1" clip-path="url(#AlCUoRsBViOh)" stroke-opacity="0.7019607843137254" stroke-linejoin="bevel" stroke-miterlimit="10" stroke-width="2" stroke-dasharray=""/><path fill="none" stroke="none"/><path fill="rgb(174,199,232)" stroke="rgb(0,0,0)" paint-order="fill" d="M 76.82483673095703 39.69047546386719 L 86.82483673095703 39.69047546386719 L 86.82483673095703 49.69047546386719 L 76.82483673095703 49.69047546386719 L 76.82483673095703 39.69047546386719" fill-opacity="1" clip-path="url(#pLglvcZCrvsT)" stroke-opacity="0.7019607843137254" stroke-linejoin="bevel" stroke-miterlimit="10" stroke-width="2" stroke-dasharray=""/><path fill="rgb(174,199,232)" stroke="rgb(0,0,0)" paint-order="fill" d="M 71.55091094970703 135.29019165039062 L 81.55091094970703 135.29019165039062 L 81.55091094970703 145.29019165039062 L 71.55091094970703 145.29019165039062 L 71.55091094970703 135.29019165039062" fill-opacity="1" clip-path="url(#pLglvcZCrvsT)" stroke-opacity="0.7019607843137254" stroke-linejoin="bevel" stroke-miterlimit="10" stroke-width="2" stroke-dasharray=""/><path fill="rgb(174,199,232)" stroke="rgb(0,0,0)" paint-order="fill" d="M 67.83378601074219 39.94560623168945 L 77.83378601074219 39.94560623168945 L 77.83378601074219 49.94560623168945 L 67.83378601074219 49.94560623168945 L 67.83378601074219 39.94560623168945" fill-opacity="1" clip-path="url(#pLglvcZCrvsT)" stroke-opacity="0.7019607843137254" stroke-linejoin="bevel" stroke-miterlimit="10" stroke-width="2" stroke-dasharray=""/><path fill="rgb(174,199,232)" stroke="rgb(0,0,0)" paint-order="fill" d="M 75.25997161865234 160.88673400878906 L 85.25997161865234 160.88673400878906 L 85.25997161865234 170.88673400878906 L 75.25997161865234 170.88673400878906 L 75.25997161865234 160.88673400878906" fill-opacity="1" clip-path="url(#pLglvcZCrvsT)" stroke-opacity="0.7019607843137254" stroke-linejoin="bevel" stroke-miterlimit="10" stroke-width="2" stroke-dasharray=""/><path fill="rgb(174,199,232)" stroke="rgb(0,0,0)" paint-order="fill" d="M 67.10740661621094 88.75677490234375 L 77.10740661621094 88.75677490234375 L 77.10740661621094 98.75677490234375 L 67.10740661621094 98.75677490234375 L 67.10740661621094 88.75677490234375" fill-opacity="1" clip-path="url(#pLglvcZCrvsT)" stroke-opacity="0.7019607843137254" stroke-linejoin="bevel" stroke-miterlimit="10" stroke-width="2" stroke-dasharray=""/><path fill="rgb(31,119,180)" stroke="rgb(0,0,0)" paint-order="fill" d="M 108.85124206542969 271.26837158203125 L 118.85124206542969 271.26837158203125 L 118.85124206542969 281.26837158203125 L 108.85124206542969 281.26837158203125 L 108.85124206542969 271.26837158203125" fill-opacity="1" clip-path="url(#pLglvcZCrvsT)" stroke-opacity="0.7019607843137254" stroke-linejoin="bevel" stroke-miterlimit="10" stroke-width="2" stroke-dasharray=""/><path fill="rgb(31,119,180)" stroke="rgb(0,0,0)" paint-order="fill" d="M 108.36245727539062 273.4516296386719 L 118.36245727539062 273.4516296386719 L 118.36245727539062 283.4516296386719 L 108.36245727539062 283.4516296386719 L 108.36245727539062 273.4516296386719" fill-opacity="1" clip-path="url(#pLglvcZCrvsT)" stroke-opacity="0.7019607843137254" stroke-linejoin="bevel" stroke-miterlimit="10" stroke-width="2" stroke-dasharray=""/><path fill="rgb(31,119,180)" stroke="rgb(0,0,0)" paint-order="fill" d="M 109.46892547607422 275.3085632324219 L 119.46892547607422 275.3085632324219 L 119.46892547607422 285.3085632324219 L 109.46892547607422 285.3085632324219 L 109.46892547607422 275.3085632324219" fill-opacity="1" clip-path="url(#pLglvcZCrvsT)" stroke-opacity="0.7019607843137254" stroke-linejoin="bevel" stroke-miterlimit="10" stroke-width="2" stroke-dasharray=""/><path fill="rgb(31,119,180)" stroke="rgb(0,0,0)" paint-order="fill" d="M 104.48963928222656 271.5360107421875 L 114.48963928222656 271.5360107421875 L 114.48963928222656 281.5360107421875 L 104.48963928222656 281.5360107421875 L 104.48963928222656 271.5360107421875" fill-opacity="1" clip-path="url(#pLglvcZCrvsT)" stroke-opacity="0.7019607843137254" stroke-linejoin="bevel" stroke-miterlimit="10" stroke-width="2" stroke-dasharray=""/><path fill="rgb(31,119,180)" stroke="rgb(0,0,0)" paint-order="fill" d="M 104.85599517822266 274.2456970214844 L 114.85599517822266 274.2456970214844 L 114.85599517822266 284.2456970214844 L 104.85599517822266 284.2456970214844 L 104.85599517822266 274.2456970214844" fill-opacity="1" clip-path="url(#pLglvcZCrvsT)" stroke-opacity="0.7019607843137254" stroke-linejoin="bevel" stroke-miterlimit="10" stroke-width="2" stroke-dasharray=""/><path fill="rgb(44,160,44)" stroke="rgb(0,0,0)" paint-order="fill" d="M 140.497802734375 243.0255584716797 L 150.497802734375 243.0255584716797 L 150.497802734375 253.0255584716797 L 140.497802734375 253.0255584716797 L 140.497802734375 243.0255584716797" fill-opacity="1" clip-path="url(#pLglvcZCrvsT)" stroke-opacity="0.7019607843137254" stroke-linejoin="bevel" stroke-miterlimit="10" stroke-width="2" stroke-dasharray=""/><path fill="rgb(148,103,189)" stroke="rgb(0,0,0)" paint-order="fill" d="M 177.96766662597656 277.4162292480469 L 187.96766662597656 277.4162292480469 L 187.96766662597656 287.4162292480469 L 177.96766662597656 287.4162292480469 L 177.96766662597656 277.4162292480469" fill-opacity="1" clip-path="url(#pLglvcZCrvsT)" stroke-opacity="0.7019607843137254" stroke-linejoin="bevel" stroke-miterlimit="10" stroke-width="2" stroke-dasharray=""/><path fill="rgb(148,103,189)" stroke="rgb(0,0,0)" paint-order="fill" d="M 179.75393676757812 276.4721984863281 L 189.75393676757812 276.4721984863281 L 189.75393676757812 286.4721984863281 L 179.75393676757812 286.4721984863281 L 179.75393676757812 276.4721984863281" fill-opacity="1" clip-path="url(#pLglvcZCrvsT)" stroke-opacity="0.7019607843137254" stroke-linejoin="bevel" stroke-miterlimit="10" stroke-width="2" stroke-dasharray=""/><path fill="rgb(148,103,189)" stroke="rgb(0,0,0)" paint-order="fill" d="M 176.8468780517578 288.0391845703125 L 186.8468780517578 288.0391845703125 L 186.8468780517578 298.0391845703125 L 176.8468780517578 298.0391845703125 L 176.8468780517578 288.0391845703125" fill-opacity="1" clip-path="url(#pLglvcZCrvsT)" stroke-opacity="0.7019607843137254" stroke-linejoin="bevel" stroke-miterlimit="10" stroke-width="2" stroke-dasharray=""/><path fill="rgb(255,127,14)" stroke="rgb(0,0,0)" paint-order="fill" d="M 206.86582946777344 249.9839630126953 L 216.86582946777344 249.9839630126953 L 216.86582946777344 259.9839630126953 L 206.86582946777344 259.9839630126953 L 206.86582946777344 249.9839630126953" fill-opacity="1" clip-path="url(#pLglvcZCrvsT)" stroke-opacity="0.7019607843137254" stroke-linejoin="bevel" stroke-miterlimit="10" stroke-width="2" stroke-dasharray=""/><path fill="none" stroke="rgb(0,0,0)" paint-order="fill" d="M 59.5 308.5 L 370.5 308.5" stroke-opacity="1" stroke-linejoin="bevel" stroke-miterlimit="10" stroke-dasharray=""/><path fill="none" stroke="rgb(0,0,0)" paint-order="fill" d="M 76.5 314.5 L 76.5 306.5 M 111.5 314.5 L 111.5 306.5 M 145.5 314.5 L 145.5 306.5 M 180.5 314.5 L 180.5 306.5 M 215.5 314.5 L 215.5 306.5 M 249.5 314.5 L 249.5 306.5 M 284.5 314.5 L 284.5 306.5 M 318.5 314.5 L 318.5 306.5 M 353.5 314.5 L 353.5 306.5" stroke-opacity="1" stroke-linejoin="bevel" stroke-miterlimit="10" stroke-dasharray=""/><path fill="none" stroke="rgb(0,0,0)" paint-order="fill" d="" stroke-opacity="1" stroke-linejoin="bevel" stroke-miterlimit="10" stroke-dasharray=""/><text fill="rgb(68,68,68)" stroke="none" font-family="helvetica" font-size="12pt" font-style="normal" font-weight="normal" text-decoration="normal" x="51.41111183166504" y="324.83203125" text-anchor="start" dominant-baseline="alphabetic" transform="matrix(0.7071067811865476, -0.7071067811865475, 0.7071067811865475, 0.7071067811865476, -202.7258190929494, 147.86947132142038)" fill-opacity="1">WT</text><text fill="rgb(68,68,68)" stroke="none" font-family="helvetica" font-size="12pt" font-style="normal" font-weight="normal" text-decoration="normal" x="62.81666946411133" y="324.83203125" text-anchor="start" dominant-baseline="alphabetic" transform="matrix(0.7071067811865476, -0.7071067811865475, 0.7071067811865475, 0.7071067811865476, -192.60473070181837, 172.3039401812659)" fill-opacity="1">Abiotic</text><text fill="rgb(68,68,68)" stroke="none" font-family="helvetica" font-size="12pt" font-style="normal" font-weight="normal" text-decoration="normal" x="34.23888397216797" y="324.83203125" text-anchor="start" dominant-baseline="alphabetic" transform="matrix(0.7071067811865476, -0.7071067811865475, 0.7071067811865475, 0.7071067811865476, -182.4836445452852, 196.73840364631477)" fill-opacity="1">menAubiC-tlKO</text><text fill="rgb(68,68,68)" stroke="none" font-family="helvetica" font-size="12pt" font-style="normal" font-weight="normal" text-decoration="normal" x="37.644439697265625" y="324.83203125" text-anchor="start" dominant-baseline="alphabetic" transform="matrix(0.7071067811865476, -0.7071067811865475, 0.7071067811865475, 0.7071067811865476, -172.36255615415416, 221.17287250616027)" fill-opacity="1">napAnarZnarG-tlKO</text><text fill="rgb(68,68,68)" stroke="none" font-family="helvetica" font-size="12pt" font-style="normal" font-weight="normal" text-decoration="normal" x="41.08332824707031" y="324.83203125" text-anchor="start" dominant-baseline="alphabetic" transform="matrix(0.7071067811865476, -0.7071067811865475, 0.7071067811865475, 0.7071067811865476, -162.24146776302308, 245.60734136600576)" fill-opacity="1">menAubiC pFE21-MenA</text><text fill="rgb(68,68,68)" stroke="none" font-family="helvetica" font-size="12pt" font-style="normal" font-weight="normal" text-decoration="normal" x="81.88888549804688" y="324.83203125" text-anchor="start" dominant-baseline="alphabetic" transform="matrix(0.7071067811865476, -0.7071067811865475, 0.7071067811865475, 0.7071067811865476, -152.120379371892, 270.04181022585124)" fill-opacity="1">menAubiC pFE21-UbiC</text><text fill="rgb(68,68,68)" stroke="none" font-family="helvetica" font-size="12pt" font-style="normal" font-weight="normal" text-decoration="normal" x="80.82777404785156" y="324.83203125" text-anchor="start" dominant-baseline="alphabetic" transform="matrix(0.7071067811865476, -0.7071067811865475, 0.7071067811865475, 0.7071067811865476, -141.99929098076097, 294.4762790856968)" fill-opacity="1">napAnarZnarG pFE21-NapA</text><text fill="rgb(68,68,68)" stroke="none" font-family="helvetica" font-size="12pt" font-style="normal" font-weight="normal" text-decoration="normal" x="119.84999084472656" y="324.83203125" text-anchor="start" dominant-baseline="alphabetic" transform="matrix(0.7071067811865476, -0.7071067811865475, 0.7071067811865475, 0.7071067811865476, -131.87820705882575, 318.91073715594905)" fill-opacity="1">napAnarZnarG pFE21-NarZ</text><text fill="rgb(68,68,68)" stroke="none" font-family="helvetica" font-size="12pt" font-style="normal" font-weight="normal" text-decoration="normal" x="151.72222900390625" y="324.83203125" text-anchor="start" dominant-baseline="alphabetic" transform="matrix(0.7071067811865476, -0.7071067811865475, 0.7071067811865475, 0.7071067811865476, -121.75711419849881, 343.34521680538774)" fill-opacity="1">napAnarZnarG pFE21-NarG</text><text fill="rgb(128,128,128)" stroke="none" font-family="helvetica" font-size="11px" font-style="normal" font-weight="bold" text-decoration="normal" x="188.52499961853027" y="494.22862880352534" text-anchor="start" dominant-baseline="alphabetic" transform="matrix(1, 0, 0, 1, 0.5, 0.5)" fill-opacity="1">PCA, NO3</text><path fill="none" stroke="rgb(0,0,0)" paint-order="fill" d="M 59.5 308.5 L 59.5 31.5" stroke-opacity="1" stroke-linejoin="bevel" stroke-miterlimit="10" stroke-dasharray=""/><path fill="none" stroke="rgb(0,0,0)" paint-order="fill" d="M 53.5 284.5 L 61.5 284.5 M 53.5 229.5 L 61.5 229.5 M 53.5 174.5 L 61.5 174.5 M 53.5 119.5 L 61.5 119.5 M 53.5 64.5 L 61.5 64.5" stroke-opacity="1" stroke-linejoin="bevel" stroke-miterlimit="10" stroke-dasharray=""/><path fill="none" stroke="rgb(0,0,0)" paint-order="fill" d="M 55.5 295.5 L 59.5 295.5 M 55.5 306.5 L 59.5 306.5 M 55.5 284.5 L 59.5 284.5 M 55.5 273.5 L 59.5 273.5 M 55.5 262.5 L 59.5 262.5 M 55.5 251.5 L 59.5 251.5 M 55.5 240.5 L 59.5 240.5 M 55.5 229.5 L 59.5 229.5 M 55.5 218.5 L 59.5 218.5 M 55.5 207.5 L 59.5 207.5 M 55.5 196.5 L 59.5 196.5 M 55.5 185.5 L 59.5 185.5 M 55.5 174.5 L 59.5 174.5 M 55.5 163.5 L 59.5 163.5 M 55.5 152.5 L 59.5 152.5 M 55.5 141.5 L 59.5 141.5 M 55.5 130.5 L 59.5 130.5 M 55.5 119.5 L 59.5 119.5 M 55.5 108.5 L 59.5 108.5 M 55.5 97.5 L 59.5 97.5 M 55.5 86.5 L 59.5 86.5 M 55.5 75.5 L 59.5 75.5 M 55.5 64.5 L 59.5 64.5 M 55.5 53.5 L 59.5 53.5 M 55.5 42.5 L 59.5 42.5 M 55.5 31.5 L 59.5 31.5" stroke-opacity="1" stroke-linejoin="bevel" stroke-miterlimit="10" stroke-dasharray=""/><text fill="rgb(68,68,68)" stroke="none" font-family="helvetica" font-size="12pt" font-style="normal" font-weight="normal" text-decoration="normal" x="39.10000038146973" y="289.7555847167969" text-anchor="start" dominant-baseline="alphabetic" transform="matrix(1, 0, 0, 1, 0.5, 0.5)" fill-opacity="1">0</text><text fill="rgb(68,68,68)" stroke="none" font-family="helvetica" font-size="12pt" font-style="normal" font-weight="normal" text-decoration="normal" x="30.200000762939453" y="234.78013610839844" text-anchor="start" dominant-baseline="alphabetic" transform="matrix(1, 0, 0, 1, 0.5, 0.5)" fill-opacity="1">10</text><text fill="rgb(68,68,68)" stroke="none" font-family="helvetica" font-size="12pt" font-style="normal" font-weight="normal" text-decoration="normal" x="30.200000762939453" y="179.8046875" text-anchor="start" dominant-baseline="alphabetic" transform="matrix(1, 0, 0, 1, 0.5, 0.5)" fill-opacity="1">20</text><text fill="rgb(68,68,68)" stroke="none" font-family="helvetica" font-size="12pt" font-style="normal" font-weight="normal" text-decoration="normal" x="30.200000762939453" y="124.82923126220703" text-anchor="start" dominant-baseline="alphabetic" transform="matrix(1, 0, 0, 1, 0.5, 0.5)" fill-opacity="1">30</text><text fill="rgb(68,68,68)" stroke="none" font-family="helvetica" font-size="12pt" font-style="normal" font-weight="normal" text-decoration="normal" x="30.200000762939453" y="69.8537826538086" text-anchor="start" dominant-baseline="alphabetic" transform="matrix(1, 0, 0, 1, 0.5, 0.5)" fill-opacity="1">40</text><text fill="rgb(68,68,68)" stroke="none" font-family="helvetica" font-size="12pt" font-style="italic" font-weight="normal" text-decoration="normal" x="-121.15000534057617" y="165.9609375" text-anchor="start" dominant-baseline="alphabetic" transform="matrix(6.123233995736766e-17, -1, 1, 6.123233995736766e-17, -146.79999923706055, 192.20000076293945)" fill-opacity="1">Maximum PCAred oxidation rate (µM/hr)</text><path fill="none" stroke="none"/><text fill="rgb(68,68,68)" stroke="none" font-family="helvetica" font-size="12pt" font-style="normal" font-weight="bold" text-decoration="normal" x="0" y="0" text-anchor="start" dominant-baseline="text-after-edge" transform="matrix(1, 0, 0, 1, 59.5, 26.5)" fill-opacity="1">Nitrate complementations</text></svg>