<svg version="1.1" xmlns="http://www.w3.org/2000/svg" xmlns:xlink="http://www.w3.org/1999/xlink" width="300" height="500"><defs><clipPath id="vdKiFtxpAutP"><path fill="none" stroke="none" d="M 59.5 31.5 L 270.5 31.5 L 270.5 329.5 L 59.5 329.5 L 59.5 31.5"/></clipPath><clipPath id="QCLCEAHqPuTT"><path fill="none" stroke="none" d="M 59.5 31.5 L 270.5 31.5 L 270.5 329.5 L 59.5 329.5 L 59.5 31.5"/></clipPath><clipPath id="sfMNEbTbiywd"><path fill="none" stroke="none" d="M 59.5 31.5 L 270.5 31.5 L 270.5 329.5 L 59.5 329.5 L 59.5 31.5"/></clipPath><clipPath id="rqwHhillvFPN"><path fill="none" stroke="none" d="M 59.5 31.5 L 270.5 31.5 L 270.5 329.5 L 59.5 329.5 L 59.5 31.5"/></clipPath><clipPath id="VZCkqUCSiBhA"><path fill="none" stroke="none" d="M 59.5 31.5 L 270.5 31.5 L 270.5 329.5 L 59.5 329.5 L 59.5 31.5"/></clipPath></defs><path fill="rgb(255,255,255)" stroke="none" paint-order="stroke" d="M 0.5 0.5 L 300.5 0.5 L 300.5 500.5 L 0.5 500.5 L 0.5 0.5" fill-opacity="1"/><rect fill="#FFFFFF" stroke="none" x="59" y="31" width="211" height="298" transform="matrix(1, 0, 0, 1, 0.5, 0.5)"/><path fill="rgb(255,255,255)" stroke="none" paint-order="stroke" d="M 59.5 31.5 L 270.5 31.5 L 270.5 329.5 L 59.5 329.5 L 59.5 31.5" fill-opacity="1"/><path fill="none" stroke="rgb(229,229,229)" paint-order="fill" d="M 59.5 31.5 L 270.5 31.5 L 270.5 329.5 L 59.5 329.5 L 59.5 31.5" stroke-opacity="1" stroke-linejoin="bevel" stroke-miterlimit="10" stroke-dasharray=""/><path fill="none" stroke="rgb(229,229,229)" paint-order="fill" d="M 59.5 303.5 L 270.5 303.5 M 59.5 263.5 L 270.5 263.5 M 59.5 222.5 L 270.5 222.5 M 59.5 182.5 L 270.5 182.5 M 59.5 141.5 L 270.5 141.5 M 59.5 101.5 L 270.5 101.5 M 59.5 60.5 L 270.5 60.5" stroke-opacity="1" stroke-linejoin="bevel" stroke-miterlimit="10" stroke-dasharray="" clip-path="url(#QCLCEAHqPuTT)"/><path fill="none" stroke="none"/><path fill="rgb(174,199,232)" stroke="rgb(0,0,0)" paint-order="fill" d="M 83.72557067871094 259.1293640136719 A 5 5 0 1 1 83.72556817871114 259.1243640145052" fill-opacity="1" clip-path="url(#sfMNEbTbiywd)" stroke-opacity="0.7019607843137254" stroke-linejoin="bevel" stroke-miterlimit="10" stroke-width="2" stroke-dasharray=""/><path fill="rgb(174,199,232)" stroke="rgb(0,0,0)" paint-order="fill" d="M 76.73990631103516 242.2384033203125 A 5 5 0 1 1 76.73990381103536 242.23340332114583" fill-opacity="1" clip-path="url(#sfMNEbTbiywd)" stroke-opacity="0.7019607843137254" stroke-linejoin="bevel" stroke-miterlimit="10" stroke-width="2" stroke-dasharray=""/><path fill="rgb(174,199,232)" stroke="rgb(0,0,0)" paint-order="fill" d="M 78.76862335205078 248.99803161621094 A 5 5 0 1 1 78.76862085205099 248.99303161704427" fill-opacity="1" clip-path="url(#sfMNEbTbiywd)" stroke-opacity="0.7019607843137254" stroke-linejoin="bevel" stroke-miterlimit="10" stroke-width="2" stroke-dasharray=""/><path fill="rgb(174,199,232)" stroke="rgb(0,0,0)" paint-order="fill" d="M 83.08895111083984 252.36973571777344 A 5 5 0 1 1 83.08894861084005 252.36473571860677" fill-opacity="1" clip-path="url(#sfMNEbTbiywd)" stroke-opacity="0.7019607843137254" stroke-linejoin="bevel" stroke-miterlimit="10" stroke-width="2" stroke-dasharray=""/><path fill="rgb(174,199,232)" stroke="rgb(0,0,0)" paint-order="fill" d="M 81.13568878173828 257.10308837890625 A 5 5 0 1 1 81.13568628173849 257.0980883797396" fill-opacity="1" clip-path="url(#sfMNEbTbiywd)" stroke-opacity="0.7019607843137254" stroke-linejoin="bevel" stroke-miterlimit="10" stroke-width="2" stroke-dasharray=""/><path fill="rgb(174,199,232)" stroke="rgb(0,0,0)" paint-order="fill" d="M 81.97827911376953 255.0768280029297 A 5 5 0 1 1 81.97827661376974 255.07182800376302" fill-opacity="1" clip-path="url(#sfMNEbTbiywd)" stroke-opacity="0.7019607843137254" stroke-linejoin="bevel" stroke-miterlimit="10" stroke-width="2" stroke-dasharray=""/><path fill="rgb(174,199,232)" stroke="rgb(0,0,0)" paint-order="fill" d="M 77.40193176269531 251.69700622558594 A 5 5 0 1 1 77.40192926269552 251.69200622641927" fill-opacity="1" clip-path="url(#sfMNEbTbiywd)" stroke-opacity="0.7019607843137254" stroke-linejoin="bevel" stroke-miterlimit="10" stroke-width="2" stroke-dasharray=""/><path fill="rgb(174,199,232)" stroke="rgb(0,0,0)" paint-order="fill" d="M 76.30680847167969 242.91921997070312 A 5 5 0 1 1 76.30680597167989 242.91421997153645" fill-opacity="1" clip-path="url(#sfMNEbTbiywd)" stroke-opacity="0.7019607843137254" stroke-linejoin="bevel" stroke-miterlimit="10" stroke-width="2" stroke-dasharray=""/><path fill="rgb(174,199,232)" stroke="rgb(0,0,0)" paint-order="fill" d="M 84.07858276367188 249.67074584960938 A 5 5 0 1 1 84.07858026367208 249.6657458504427" fill-opacity="1" clip-path="url(#sfMNEbTbiywd)" stroke-opacity="0.7019607843137254" stroke-linejoin="bevel" stroke-miterlimit="10" stroke-width="2" stroke-dasharray=""/><path fill="rgb(255,127,14)" stroke="rgb(0,0,0)" paint-order="fill" d="M 198.0973663330078 84.1895523071289 A 5 5 0 1 1 198.09736383300802 84.18455230796224" fill-opacity="1" clip-path="url(#sfMNEbTbiywd)" stroke-opacity="0.7019607843137254" stroke-linejoin="bevel" stroke-miterlimit="10" stroke-width="2" stroke-dasharray=""/><path fill="rgb(255,127,14)" stroke="rgb(0,0,0)" paint-order="fill" d="M 197.47705078125 45.69047546386719 A 5 5 0 1 1 197.4770482812502 45.68547546470052" fill-opacity="1" clip-path="url(#sfMNEbTbiywd)" stroke-opacity="0.7019607843137254" stroke-linejoin="bevel" stroke-miterlimit="10" stroke-width="2" stroke-dasharray=""/><path fill="rgb(255,127,14)" stroke="rgb(0,0,0)" paint-order="fill" d="M 203.86692810058594 67.29859161376953 A 5 5 0 1 1 203.86692560058614 67.29359161460286" fill-opacity="1" clip-path="url(#sfMNEbTbiywd)" stroke-opacity="0.7019607843137254" stroke-linejoin="bevel" stroke-miterlimit="10" stroke-width="2" stroke-dasharray=""/><path fill="none" stroke="none"/><path fill="rgb(174,199,232)" stroke="rgb(0,0,0)" paint-order="fill" d="M 67.39838409423828 239.26466369628906 L 77.39838409423828 239.26466369628906 L 77.39838409423828 249.26466369628906 L 67.39838409423828 249.26466369628906 L 67.39838409423828 239.26466369628906" fill-opacity="1" clip-path="url(#rqwHhillvFPN)" stroke-opacity="0.7019607843137254" stroke-linejoin="bevel" stroke-miterlimit="10" stroke-width="2" stroke-dasharray=""/><path fill="none" stroke="rgb(0,0,0)" paint-order="fill" d="M 59.5 329.5 L 270.5 329.5" stroke-opacity="1" stroke-linejoin="bevel" stroke-miterlimit="10" stroke-dasharray=""/><path fill="none" stroke="rgb(0,0,0)" paint-order="fill" d="M 74.5 335.5 L 74.5 327.5 M 104.5 335.5 L 104.5 327.5 M 134.5 335.5 L 134.5 327.5 M 165.5 335.5 L 165.5 327.5 M 195.5 335.5 L 195.5 327.5 M 225.5 335.5 L 225.5 327.5 M 255.5 335.5 L 255.5 327.5" stroke-opacity="1" stroke-linejoin="bevel" stroke-miterlimit="10" stroke-dasharray=""/><path fill="none" stroke="rgb(0,0,0)" paint-order="fill" d="" stroke-opacity="1" stroke-linejoin="bevel" stroke-miterlimit="10" stroke-dasharray=""/><text fill="rgb(68,68,68)" stroke="none" font-family="helvetica" font-size="12pt" font-style="normal" font-weight="normal" text-decoration="normal" x="49.20475959777832" y="345.83203125" text-anchor="start" dominant-baseline="alphabetic" transform="matrix(0.7071067811865476, -0.7071067811865475, 0.7071067811865475, 0.7071067811865476, -218.22128710548623, 152.4601022902355)" fill-opacity="1">WT</text><text fill="rgb(68,68,68)" stroke="none" font-family="helvetica" font-size="12pt" font-style="normal" font-weight="normal" text-decoration="normal" x="56.1976203918457" y="345.83203125" text-anchor="start" dominant-baseline="alphabetic" transform="matrix(0.7071067811865476, -0.7071067811865475, 0.7071067811865475, 0.7071067811865476, -209.39264769499596, 173.77432329234284)" fill-opacity="1">Abiotic</text><text fill="rgb(68,68,68)" stroke="none" font-family="helvetica" font-size="12pt" font-style="normal" font-weight="normal" text-decoration="normal" x="57.00714874267578" y="345.83203125" text-anchor="start" dominant-baseline="alphabetic" transform="matrix(0.7071067811865476, -0.7071067811865475, 0.7071067811865475, 0.7071067811865476, -200.56400828450558, 195.08854429445017)" fill-opacity="1">dmsA-tlKO</text><text fill="rgb(68,68,68)" stroke="none" font-family="helvetica" font-size="12pt" font-style="normal" font-weight="normal" text-decoration="normal" x="53.349998474121094" y="345.83203125" text-anchor="start" dominant-baseline="alphabetic" transform="matrix(0.7071067811865476, -0.7071067811865475, 0.7071067811865475, 0.7071067811865476, -191.7353711086132, 216.40275990176087)" fill-opacity="1">menAubiC-tlKO</text><text fill="rgb(68,68,68)" stroke="none" font-family="helvetica" font-size="12pt" font-style="normal" font-weight="normal" text-decoration="normal" x="53.27618408203125" y="345.83203125" text-anchor="start" dominant-baseline="alphabetic" transform="matrix(0.7071067811865476, -0.7071067811865475, 0.7071067811865475, 0.7071067811865476, -182.90673393272084, 237.7169755090716)" fill-opacity="1">dmsA pFE21-DmsA</text><text fill="rgb(68,68,68)" stroke="none" font-family="helvetica" font-size="12pt" font-style="normal" font-weight="normal" text-decoration="normal" x="51.369049072265625" y="345.83203125" text-anchor="start" dominant-baseline="alphabetic" transform="matrix(0.7071067811865476, -0.7071067811865475, 0.7071067811865475, 0.7071067811865476, -174.07809228763256, 259.03120190597554)" fill-opacity="1">menAubiC pFE21-MenA</text><text fill="rgb(68,68,68)" stroke="none" font-family="helvetica" font-size="12pt" font-style="normal" font-weight="normal" text-decoration="normal" x="87.76190185546875" y="345.83203125" text-anchor="start" dominant-baseline="alphabetic" transform="matrix(0.7071067811865476, -0.7071067811865475, 0.7071067811865475, 0.7071067811865476, -165.2494551117402, 280.3454175132863)" fill-opacity="1">menAubiC pFE21-UbiC</text><text fill="rgb(128,128,128)" stroke="none" font-family="helvetica" font-size="11px" font-style="normal" font-weight="bold" text-decoration="normal" x="133.3333339691162" y="494.4632582240679" text-anchor="start" dominant-baseline="alphabetic" transform="matrix(1, 0, 0, 1, 0.5, 0.5)" fill-opacity="1">PCA, DMSO</text><path fill="none" stroke="rgb(0,0,0)" paint-order="fill" d="M 59.5 329.5 L 59.5 31.5" stroke-opacity="1" stroke-linejoin="bevel" stroke-miterlimit="10" stroke-dasharray=""/><path fill="none" stroke="rgb(0,0,0)" paint-order="fill" d="M 53.5 303.5 L 61.5 303.5 M 53.5 263.5 L 61.5 263.5 M 53.5 222.5 L 61.5 222.5 M 53.5 182.5 L 61.5 182.5 M 53.5 141.5 L 61.5 141.5 M 53.5 101.5 L 61.5 101.5 M 53.5 60.5 L 61.5 60.5" stroke-opacity="1" stroke-linejoin="bevel" stroke-miterlimit="10" stroke-dasharray=""/><path fill="none" stroke="rgb(0,0,0)" paint-order="fill" d="M 55.5 311.5 L 59.5 311.5 M 55.5 319.5 L 59.5 319.5 M 55.5 328.5 L 59.5 328.5 M 55.5 303.5 L 59.5 303.5 M 55.5 295.5 L 59.5 295.5 M 55.5 287.5 L 59.5 287.5 M 55.5 279.5 L 59.5 279.5 M 55.5 271.5 L 59.5 271.5 M 55.5 263.5 L 59.5 263.5 M 55.5 255.5 L 59.5 255.5 M 55.5 246.5 L 59.5 246.5 M 55.5 238.5 L 59.5 238.5 M 55.5 230.5 L 59.5 230.5 M 55.5 222.5 L 59.5 222.5 M 55.5 214.5 L 59.5 214.5 M 55.5 206.5 L 59.5 206.5 M 55.5 198.5 L 59.5 198.5 M 55.5 190.5 L 59.5 190.5 M 55.5 182.5 L 59.5 182.5 M 55.5 174.5 L 59.5 174.5 M 55.5 165.5 L 59.5 165.5 M 55.5 157.5 L 59.5 157.5 M 55.5 149.5 L 59.5 149.5 M 55.5 141.5 L 59.5 141.5 M 55.5 133.5 L 59.5 133.5 M 55.5 125.5 L 59.5 125.5 M 55.5 117.5 L 59.5 117.5 M 55.5 109.5 L 59.5 109.5 M 55.5 101.5 L 59.5 101.5 M 55.5 92.5 L 59.5 92.5 M 55.5 84.5 L 59.5 84.5 M 55.5 76.5 L 59.5 76.5 M 55.5 68.5 L 59.5 68.5 M 55.5 60.5 L 59.5 60.5 M 55.5 52.5 L 59.5 52.5 M 55.5 44.5 L 59.5 44.5 M 55.5 36.5 L 59.5 36.5" stroke-opacity="1" stroke-linejoin="bevel" stroke-miterlimit="10" stroke-dasharray=""/><text fill="rgb(68,68,68)" stroke="none" font-family="helvetica" font-size="12pt" font-style="normal" font-weight="normal" text-decoration="normal" x="39.10000038146973" y="308.9374084472656" text-anchor="start" dominant-baseline="alphabetic" transform="matrix(1, 0, 0, 1, 0.5, 0.5)" fill-opacity="1">0</text><text fill="rgb(68,68,68)" stroke="none" font-family="helvetica" font-size="12pt" font-style="normal" font-weight="normal" text-decoration="normal" x="39.10000038146973" y="268.4120788574219" text-anchor="start" dominant-baseline="alphabetic" transform="matrix(1, 0, 0, 1, 0.5, 0.5)" fill-opacity="1">5</text><text fill="rgb(68,68,68)" stroke="none" font-family="helvetica" font-size="12pt" font-style="normal" font-weight="normal" text-decoration="normal" x="30.200000762939453" y="227.88673400878906" text-anchor="start" dominant-baseline="alphabetic" transform="matrix(1, 0, 0, 1, 0.5, 0.5)" fill-opacity="1">10</text><text fill="rgb(68,68,68)" stroke="none" font-family="helvetica" font-size="12pt" font-style="normal" font-weight="normal" text-decoration="normal" x="30.200000762939453" y="187.36138916015625" text-anchor="start" dominant-baseline="alphabetic" transform="matrix(1, 0, 0, 1, 0.5, 0.5)" fill-opacity="1">15</text><text fill="rgb(68,68,68)" stroke="none" font-family="helvetica" font-size="12pt" font-style="normal" font-weight="normal" text-decoration="normal" x="30.200000762939453" y="146.83604431152344" text-anchor="start" dominant-baseline="alphabetic" transform="matrix(1, 0, 0, 1, 0.5, 0.5)" fill-opacity="1">20</text><text fill="rgb(68,68,68)" stroke="none" font-family="helvetica" font-size="12pt" font-style="normal" font-weight="normal" text-decoration="normal" x="30.200000762939453" y="106.3106918334961" text-anchor="start" dominant-baseline="alphabetic" transform="matrix(1, 0, 0, 1, 0.5, 0.5)" fill-opacity="1">25</text><text fill="rgb(68,68,68)" stroke="none" font-family="helvetica" font-size="12pt" font-style="normal" font-weight="normal" text-decoration="normal" x="30.200000762939453" y="65.78534698486328" text-anchor="start" dominant-baseline="alphabetic" transform="matrix(1, 0, 0, 1, 0.5, 0.5)" fill-opacity="1">30</text><text fill="rgb(68,68,68)" stroke="none" font-family="helvetica" font-size="12pt" font-style="italic" font-weight="normal" text-decoration="normal" x="-128.7083396911621" y="176.4609375" text-anchor="start" dominant-baseline="alphabetic" transform="matrix(6.123233995736766e-17, -1, 1, 6.123233995736766e-17, -157.29999923706055, 202.70000076293945)" fill-opacity="1">Time to 75% max [PCAred] from max (hrs)</text><path fill="none" stroke="none"/><text fill="rgb(68,68,68)" stroke="none" font-family="helvetica" font-size="12pt" font-style="normal" font-weight="bold" text-decoration="normal" x="0" y="0" text-anchor="start" dominant-baseline="text-after-edge" transform="matrix(1, 0, 0, 1, 59.5, 26.5)" fill-opacity="1">DMSO complementations</text></svg>