<svg version="1.1" xmlns="http://www.w3.org/2000/svg" xmlns:xlink="http://www.w3.org/1999/xlink" width="300" height="500"><defs><clipPath id="BQQIBKOlnAyB"><path fill="none" stroke="none" d="M 59.5 31.5 L 270.5 31.5 L 270.5 329.5 L 59.5 329.5 L 59.5 31.5"/></clipPath><clipPath id="EnNmGykDILLS"><path fill="none" stroke="none" d="M 59.5 31.5 L 270.5 31.5 L 270.5 329.5 L 59.5 329.5 L 59.5 31.5"/></clipPath><clipPath id="clrqvUVSTSqd"><path fill="none" stroke="none" d="M 59.5 31.5 L 270.5 31.5 L 270.5 329.5 L 59.5 329.5 L 59.5 31.5"/></clipPath><clipPath id="VqToZfMMaPCT"><path fill="none" stroke="none" d="M 59.5 31.5 L 270.5 31.5 L 270.5 329.5 L 59.5 329.5 L 59.5 31.5"/></clipPath><clipPath id="RmDTQfrZaiDR"><path fill="none" stroke="none" d="M 59.5 31.5 L 270.5 31.5 L 270.5 329.5 L 59.5 329.5 L 59.5 31.5"/></clipPath></defs><path fill="rgb(255,255,255)" stroke="none" paint-order="stroke" d="M 0.5 0.5 L 300.5 0.5 L 300.5 500.5 L 0.5 500.5 L 0.5 0.5" fill-opacity="1"/><rect fill="#FFFFFF" stroke="none" x="59" y="31" width="211" height="298" transform="matrix(1, 0, 0, 1, 0.5, 0.5)"/><path fill="rgb(255,255,255)" stroke="none" paint-order="stroke" d="M 59.5 31.5 L 270.5 31.5 L 270.5 329.5 L 59.5 329.5 L 59.5 31.5" fill-opacity="1"/><path fill="none" stroke="rgb(229,229,229)" paint-order="fill" d="M 59.5 31.5 L 270.5 31.5 L 270.5 329.5 L 59.5 329.5 L 59.5 31.5" stroke-opacity="1" stroke-linejoin="bevel" stroke-miterlimit="10" stroke-dasharray=""/><path fill="none" stroke="rgb(229,229,229)" paint-order="fill" d="M 59.5 303.5 L 270.5 303.5 M 59.5 239.5 L 270.5 239.5 M 59.5 174.5 L 270.5 174.5 M 59.5 110.5 L 270.5 110.5 M 59.5 46.5 L 270.5 46.5" stroke-opacity="1" stroke-linejoin="bevel" stroke-miterlimit="10" stroke-dasharray="" clip-path="url(#EnNmGykDILLS)"/><path fill="none" stroke="none"/><path fill="rgb(174,199,232)" stroke="rgb(0,0,0)" paint-order="fill" d="M 83.40821838378906 286.00421142578125 A 5 5 0 1 1 83.40821588378927 285.9992114266146" fill-opacity="1" clip-path="url(#clrqvUVSTSqd)" stroke-opacity="0.7019607843137254" stroke-linejoin="bevel" stroke-miterlimit="10" stroke-width="2" stroke-dasharray=""/><path fill="rgb(174,199,232)" stroke="rgb(0,0,0)" paint-order="fill" d="M 79.5739517211914 287.6134338378906 A 5 5 0 1 1 79.57394922119161 287.60843383872395" fill-opacity="1" clip-path="url(#clrqvUVSTSqd)" stroke-opacity="0.7019607843137254" stroke-linejoin="bevel" stroke-miterlimit="10" stroke-width="2" stroke-dasharray=""/><path fill="rgb(174,199,232)" stroke="rgb(0,0,0)" paint-order="fill" d="M 83.54393005371094 283.3200378417969 A 5 5 0 1 1 83.54392755371114 283.3150378426302" fill-opacity="1" clip-path="url(#clrqvUVSTSqd)" stroke-opacity="0.7019607843137254" stroke-linejoin="bevel" stroke-miterlimit="10" stroke-width="2" stroke-dasharray=""/><path fill="rgb(174,199,232)" stroke="rgb(0,0,0)" paint-order="fill" d="M 78.78936767578125 274.7397155761719 A 5 5 0 1 1 78.78936517578146 274.7347155770052" fill-opacity="1" clip-path="url(#clrqvUVSTSqd)" stroke-opacity="0.7019607843137254" stroke-linejoin="bevel" stroke-miterlimit="10" stroke-width="2" stroke-dasharray=""/><path fill="rgb(174,199,232)" stroke="rgb(0,0,0)" paint-order="fill" d="M 79.13451385498047 278.4924011230469 A 5 5 0 1 1 79.13451135498067 278.4874011238802" fill-opacity="1" clip-path="url(#clrqvUVSTSqd)" stroke-opacity="0.7019607843137254" stroke-linejoin="bevel" stroke-miterlimit="10" stroke-width="2" stroke-dasharray=""/><path fill="rgb(174,199,232)" stroke="rgb(0,0,0)" paint-order="fill" d="M 80.13736724853516 275.2739562988281 A 5 5 0 1 1 80.13736474853536 275.26895629966145" fill-opacity="1" clip-path="url(#clrqvUVSTSqd)" stroke-opacity="0.7019607843137254" stroke-linejoin="bevel" stroke-miterlimit="10" stroke-width="2" stroke-dasharray=""/><path fill="rgb(214,39,40)" stroke="rgb(0,0,0)" paint-order="fill" d="M 166.54991149902344 45.69047546386719 A 5 5 0 1 1 166.54990899902364 45.68547546470052" fill-opacity="1" clip-path="url(#clrqvUVSTSqd)" stroke-opacity="0.7019607843137254" stroke-linejoin="bevel" stroke-miterlimit="10" stroke-width="2" stroke-dasharray=""/><path fill="rgb(214,39,40)" stroke="rgb(0,0,0)" paint-order="fill" d="M 173.28025817871094 183.0144500732422 A 5 5 0 1 1 173.28025567871114 183.00945007407552" fill-opacity="1" clip-path="url(#clrqvUVSTSqd)" stroke-opacity="0.7019607843137254" stroke-linejoin="bevel" stroke-miterlimit="10" stroke-width="2" stroke-dasharray=""/><path fill="rgb(214,39,40)" stroke="rgb(0,0,0)" paint-order="fill" d="M 168.74197387695312 148.68023681640625 A 5 5 0 1 1 168.74197137695333 148.67523681723958" fill-opacity="1" clip-path="url(#clrqvUVSTSqd)" stroke-opacity="0.7019607843137254" stroke-linejoin="bevel" stroke-miterlimit="10" stroke-width="2" stroke-dasharray=""/><path fill="rgb(214,39,40)" stroke="rgb(0,0,0)" paint-order="fill" d="M 169.3070526123047 125.6169662475586 A 5 5 0 1 1 169.3070501123049 125.61196624839192" fill-opacity="1" clip-path="url(#clrqvUVSTSqd)" stroke-opacity="0.7019607843137254" stroke-linejoin="bevel" stroke-miterlimit="10" stroke-width="2" stroke-dasharray=""/><path fill="rgb(214,39,40)" stroke="rgb(0,0,0)" paint-order="fill" d="M 167.69882202148438 107.38134002685547 A 5 5 0 1 1 167.69881952148458 107.3763400276888" fill-opacity="1" clip-path="url(#clrqvUVSTSqd)" stroke-opacity="0.7019607843137254" stroke-linejoin="bevel" stroke-miterlimit="10" stroke-width="2" stroke-dasharray=""/><path fill="rgb(214,39,40)" stroke="rgb(0,0,0)" paint-order="fill" d="M 173.92413330078125 207.1526641845703 A 5 5 0 1 1 173.92413080078146 207.14766418540364" fill-opacity="1" clip-path="url(#clrqvUVSTSqd)" stroke-opacity="0.7019607843137254" stroke-linejoin="bevel" stroke-miterlimit="10" stroke-width="2" stroke-dasharray=""/><path fill="rgb(214,39,40)" stroke="rgb(0,0,0)" paint-order="fill" d="M 172.0109405517578 220.02639770507812 A 5 5 0 1 1 172.01093805175802 220.02139770591145" fill-opacity="1" clip-path="url(#clrqvUVSTSqd)" stroke-opacity="0.7019607843137254" stroke-linejoin="bevel" stroke-miterlimit="10" stroke-width="2" stroke-dasharray=""/><path fill="rgb(214,39,40)" stroke="rgb(0,0,0)" paint-order="fill" d="M 173.99188232421875 245.77383422851562 A 5 5 0 1 1 173.99187982421896 245.76883422934895" fill-opacity="1" clip-path="url(#clrqvUVSTSqd)" stroke-opacity="0.7019607843137254" stroke-linejoin="bevel" stroke-miterlimit="10" stroke-width="2" stroke-dasharray=""/><path fill="rgb(255,127,14)" stroke="rgb(0,0,0)" paint-order="fill" d="M 199.19598388671875 230.7501983642578 A 5 5 0 1 1 199.19598138671896 230.74519836509114" fill-opacity="1" clip-path="url(#clrqvUVSTSqd)" stroke-opacity="0.7019607843137254" stroke-linejoin="bevel" stroke-miterlimit="10" stroke-width="2" stroke-dasharray=""/><path fill="rgb(255,127,14)" stroke="rgb(0,0,0)" paint-order="fill" d="M 202.51739501953125 224.31333923339844 A 5 5 0 1 1 202.51739251953146 224.30833923423177" fill-opacity="1" clip-path="url(#clrqvUVSTSqd)" stroke-opacity="0.7019607843137254" stroke-linejoin="bevel" stroke-miterlimit="10" stroke-width="2" stroke-dasharray=""/><path fill="rgb(255,127,14)" stroke="rgb(0,0,0)" paint-order="fill" d="M 203.67654418945312 177.64610290527344 A 5 5 0 1 1 203.67654168945333 177.64110290610677" fill-opacity="1" clip-path="url(#clrqvUVSTSqd)" stroke-opacity="0.7019607843137254" stroke-linejoin="bevel" stroke-miterlimit="10" stroke-width="2" stroke-dasharray=""/><path fill="rgb(44,160,44)" stroke="rgb(0,0,0)" paint-order="fill" d="M 231.0526885986328 280.09515380859375 A 5 5 0 1 1 231.05268609863302 280.0901538094271" fill-opacity="1" clip-path="url(#clrqvUVSTSqd)" stroke-opacity="0.7019607843137254" stroke-linejoin="bevel" stroke-miterlimit="10" stroke-width="2" stroke-dasharray=""/><path fill="rgb(44,160,44)" stroke="rgb(0,0,0)" paint-order="fill" d="M 228.0559539794922 275.8082275390625 A 5 5 0 1 1 228.0559514794924 275.80322753989583" fill-opacity="1" clip-path="url(#clrqvUVSTSqd)" stroke-opacity="0.7019607843137254" stroke-linejoin="bevel" stroke-miterlimit="10" stroke-width="2" stroke-dasharray=""/><path fill="rgb(44,160,44)" stroke="rgb(0,0,0)" paint-order="fill" d="M 225.76828002929688 279.0266418457031 A 5 5 0 1 1 225.76827752929708 279.02164184653645" fill-opacity="1" clip-path="url(#clrqvUVSTSqd)" stroke-opacity="0.7019607843137254" stroke-linejoin="bevel" stroke-miterlimit="10" stroke-width="2" stroke-dasharray=""/><path fill="rgb(152,223,138)" stroke="rgb(0,0,0)" paint-order="fill" d="M 256.42848205566406 166.91586303710938 A 5 5 0 1 1 256.4284795556643 166.9108630379427" fill-opacity="1" clip-path="url(#clrqvUVSTSqd)" stroke-opacity="0.7019607843137254" stroke-linejoin="bevel" stroke-miterlimit="10" stroke-width="2" stroke-dasharray=""/><path fill="rgb(152,223,138)" stroke="rgb(0,0,0)" paint-order="fill" d="M 258.74232482910156 165.306640625 A 5 5 0 1 1 258.7423223291018 165.30164062583333" fill-opacity="1" clip-path="url(#clrqvUVSTSqd)" stroke-opacity="0.7019607843137254" stroke-linejoin="bevel" stroke-miterlimit="10" stroke-width="2" stroke-dasharray=""/><path fill="rgb(152,223,138)" stroke="rgb(0,0,0)" paint-order="fill" d="M 261.9107971191406 187.8356475830078 A 5 5 0 1 1 261.91079461914086 187.83064758384114" fill-opacity="1" clip-path="url(#clrqvUVSTSqd)" stroke-opacity="0.7019607843137254" stroke-linejoin="bevel" stroke-miterlimit="10" stroke-width="2" stroke-dasharray=""/><path fill="rgb(152,223,138)" stroke="rgb(0,0,0)" paint-order="fill" d="M 255.9945526123047 209.8303985595703 A 5 5 0 1 1 255.9945501123049 209.82539856040364" fill-opacity="1" clip-path="url(#clrqvUVSTSqd)" stroke-opacity="0.7019607843137254" stroke-linejoin="bevel" stroke-miterlimit="10" stroke-width="2" stroke-dasharray=""/><path fill="none" stroke="none"/><path fill="rgb(174,199,232)" stroke="rgb(0,0,0)" paint-order="fill" d="M 67.40443420410156 270.2739562988281 L 77.40443420410156 270.2739562988281 L 77.40443420410156 280.2739562988281 L 67.40443420410156 280.2739562988281 L 67.40443420410156 270.2739562988281" fill-opacity="1" clip-path="url(#VqToZfMMaPCT)" stroke-opacity="0.7019607843137254" stroke-linejoin="bevel" stroke-miterlimit="10" stroke-width="2" stroke-dasharray=""/><path fill="rgb(44,160,44)" stroke="rgb(0,0,0)" paint-order="fill" d="M 222.4684295654297 276.7108154296875 L 232.4684295654297 276.7108154296875 L 232.4684295654297 286.7108154296875 L 222.4684295654297 286.7108154296875 L 222.4684295654297 276.7108154296875" fill-opacity="1" clip-path="url(#VqToZfMMaPCT)" stroke-opacity="0.7019607843137254" stroke-linejoin="bevel" stroke-miterlimit="10" stroke-width="2" stroke-dasharray=""/><path fill="none" stroke="rgb(0,0,0)" paint-order="fill" d="M 59.5 329.5 L 270.5 329.5" stroke-opacity="1" stroke-linejoin="bevel" stroke-miterlimit="10" stroke-dasharray=""/><path fill="none" stroke="rgb(0,0,0)" paint-order="fill" d="M 74.5 335.5 L 74.5 327.5 M 104.5 335.5 L 104.5 327.5 M 134.5 335.5 L 134.5 327.5 M 165.5 335.5 L 165.5 327.5 M 195.5 335.5 L 195.5 327.5 M 225.5 335.5 L 225.5 327.5 M 255.5 335.5 L 255.5 327.5" stroke-opacity="1" stroke-linejoin="bevel" stroke-miterlimit="10" stroke-dasharray=""/><path fill="none" stroke="rgb(0,0,0)" paint-order="fill" d="" stroke-opacity="1" stroke-linejoin="bevel" stroke-miterlimit="10" stroke-dasharray=""/><text fill="rgb(68,68,68)" stroke="none" font-family="helvetica" font-size="12pt" font-style="normal" font-weight="normal" text-decoration="normal" x="49.20475959777832" y="345.83203125" text-anchor="start" dominant-baseline="alphabetic" transform="matrix(0.7071067811865476, -0.7071067811865475, 0.7071067811865475, 0.7071067811865476, -218.22128710548623, 152.4601022902355)" fill-opacity="1">WT</text><text fill="rgb(68,68,68)" stroke="none" font-family="helvetica" font-size="12pt" font-style="normal" font-weight="normal" text-decoration="normal" x="56.1976203918457" y="345.83203125" text-anchor="start" dominant-baseline="alphabetic" transform="matrix(0.7071067811865476, -0.7071067811865475, 0.7071067811865475, 0.7071067811865476, -209.39264769499596, 173.77432329234284)" fill-opacity="1">Abiotic</text><text fill="rgb(68,68,68)" stroke="none" font-family="helvetica" font-size="12pt" font-style="normal" font-weight="normal" text-decoration="normal" x="68.55714416503906" y="345.83203125" text-anchor="start" dominant-baseline="alphabetic" transform="matrix(0.7071067811865476, -0.7071067811865475, 0.7071067811865475, 0.7071067811865476, -200.56400828450558, 195.08854429445017)" fill-opacity="1">frdA-tlKO</text><text fill="rgb(68,68,68)" stroke="none" font-family="helvetica" font-size="12pt" font-style="normal" font-weight="normal" text-decoration="normal" x="53.349998474121094" y="345.83203125" text-anchor="start" dominant-baseline="alphabetic" transform="matrix(0.7071067811865476, -0.7071067811865475, 0.7071067811865475, 0.7071067811865476, -191.7353711086132, 216.40275990176087)" fill-opacity="1">menAubiC-tlKO</text><text fill="rgb(68,68,68)" stroke="none" font-family="helvetica" font-size="12pt" font-style="normal" font-weight="normal" text-decoration="normal" x="73.70951843261719" y="345.83203125" text-anchor="start" dominant-baseline="alphabetic" transform="matrix(0.7071067811865476, -0.7071067811865475, 0.7071067811865475, 0.7071067811865476, -182.90673393272084, 237.7169755090716)" fill-opacity="1">frdA pFE21-FrdA</text><text fill="rgb(68,68,68)" stroke="none" font-family="helvetica" font-size="12pt" font-style="normal" font-weight="normal" text-decoration="normal" x="51.369049072265625" y="345.83203125" text-anchor="start" dominant-baseline="alphabetic" transform="matrix(0.7071067811865476, -0.7071067811865475, 0.7071067811865475, 0.7071067811865476, -174.07809228763256, 259.03120190597554)" fill-opacity="1">menAubiC pFE21-MenA</text><text fill="rgb(68,68,68)" stroke="none" font-family="helvetica" font-size="12pt" font-style="normal" font-weight="normal" text-decoration="normal" x="87.76190185546875" y="345.83203125" text-anchor="start" dominant-baseline="alphabetic" transform="matrix(0.7071067811865476, -0.7071067811865475, 0.7071067811865475, 0.7071067811865476, -165.2494551117402, 280.3454175132863)" fill-opacity="1">menAubiC pFE21-UbiC</text><text fill="rgb(128,128,128)" stroke="none" font-family="helvetica" font-size="11px" font-style="normal" font-weight="bold" text-decoration="normal" x="138.22500038146973" y="494.4632582240679" text-anchor="start" dominant-baseline="alphabetic" transform="matrix(1, 0, 0, 1, 0.5, 0.5)" fill-opacity="1">PCA, Fum</text><path fill="none" stroke="rgb(0,0,0)" paint-order="fill" d="M 59.5 329.5 L 59.5 31.5" stroke-opacity="1" stroke-linejoin="bevel" stroke-miterlimit="10" stroke-dasharray=""/><path fill="none" stroke="rgb(0,0,0)" paint-order="fill" d="M 53.5 303.5 L 61.5 303.5 M 53.5 239.5 L 61.5 239.5 M 53.5 174.5 L 61.5 174.5 M 53.5 110.5 L 61.5 110.5 M 53.5 46.5 L 61.5 46.5" stroke-opacity="1" stroke-linejoin="bevel" stroke-miterlimit="10" stroke-dasharray=""/><path fill="none" stroke="rgb(0,0,0)" paint-order="fill" d="M 55.5 316.5 L 59.5 316.5 M 55.5 329.5 L 59.5 329.5 M 55.5 303.5 L 59.5 303.5 M 55.5 290.5 L 59.5 290.5 M 55.5 277.5 L 59.5 277.5 M 55.5 265.5 L 59.5 265.5 M 55.5 252.5 L 59.5 252.5 M 55.5 239.5 L 59.5 239.5 M 55.5 226.5 L 59.5 226.5 M 55.5 213.5 L 59.5 213.5 M 55.5 200.5 L 59.5 200.5 M 55.5 187.5 L 59.5 187.5 M 55.5 174.5 L 59.5 174.5 M 55.5 162.5 L 59.5 162.5 M 55.5 149.5 L 59.5 149.5 M 55.5 136.5 L 59.5 136.5 M 55.5 123.5 L 59.5 123.5 M 55.5 110.5 L 59.5 110.5 M 55.5 97.5 L 59.5 97.5 M 55.5 84.5 L 59.5 84.5 M 55.5 71.5 L 59.5 71.5 M 55.5 59.5 L 59.5 59.5 M 55.5 46.5 L 59.5 46.5 M 55.5 33.5 L 59.5 33.5" stroke-opacity="1" stroke-linejoin="bevel" stroke-miterlimit="10" stroke-dasharray=""/><text fill="rgb(68,68,68)" stroke="none" font-family="helvetica" font-size="12pt" font-style="normal" font-weight="normal" text-decoration="normal" x="39.10000038146973" y="308.9374084472656" text-anchor="start" dominant-baseline="alphabetic" transform="matrix(1, 0, 0, 1, 0.5, 0.5)" fill-opacity="1">0</text><text fill="rgb(68,68,68)" stroke="none" font-family="helvetica" font-size="12pt" font-style="normal" font-weight="normal" text-decoration="normal" x="30.200000762939453" y="244.56881713867188" text-anchor="start" dominant-baseline="alphabetic" transform="matrix(1, 0, 0, 1, 0.5, 0.5)" fill-opacity="1">10</text><text fill="rgb(68,68,68)" stroke="none" font-family="helvetica" font-size="12pt" font-style="normal" font-weight="normal" text-decoration="normal" x="30.200000762939453" y="180.20021057128906" text-anchor="start" dominant-baseline="alphabetic" transform="matrix(1, 0, 0, 1, 0.5, 0.5)" fill-opacity="1">20</text><text fill="rgb(68,68,68)" stroke="none" font-family="helvetica" font-size="12pt" font-style="normal" font-weight="normal" text-decoration="normal" x="30.200000762939453" y="115.83161926269531" text-anchor="start" dominant-baseline="alphabetic" transform="matrix(1, 0, 0, 1, 0.5, 0.5)" fill-opacity="1">30</text><text fill="rgb(68,68,68)" stroke="none" font-family="helvetica" font-size="12pt" font-style="normal" font-weight="normal" text-decoration="normal" x="30.200000762939453" y="51.463016510009766" text-anchor="start" dominant-baseline="alphabetic" transform="matrix(1, 0, 0, 1, 0.5, 0.5)" fill-opacity="1">40</text><text fill="rgb(68,68,68)" stroke="none" font-family="helvetica" font-size="12pt" font-style="italic" font-weight="normal" text-decoration="normal" x="-128.7083396911621" y="176.4609375" text-anchor="start" dominant-baseline="alphabetic" transform="matrix(6.123233995736766e-17, -1, 1, 6.123233995736766e-17, -157.29999923706055, 202.70000076293945)" fill-opacity="1">Time to 75% max [PCAred] from max (hrs)</text><path fill="none" stroke="none"/><text fill="rgb(68,68,68)" stroke="none" font-family="helvetica" font-size="12pt" font-style="normal" font-weight="bold" text-decoration="normal" x="0" y="0" text-anchor="start" dominant-baseline="text-after-edge" transform="matrix(1, 0, 0, 1, 59.5, 26.5)" fill-opacity="1">Fumarate complementations</text></svg>